<?xml version="1.0" encoding="utf-8"?>
<!-- Generator: Adobe Illustrator 21.0.2, SVG Export Plug-In . SVG Version: 6.00 Build 0)  -->
<svg version="1.1" id="Слой_1" xmlns="http://www.w3.org/2000/svg" xmlns:xlink="http://www.w3.org/1999/xlink" x="0px" y="0px"
	 viewBox="0 0 2500 2000" style="enable-background:new 0 0 2500 2000;" xml:space="preserve">
<style type="text/css">
	.st0{fill:#FFFF01;}
	.st1{fill:#A3A3A3;}
	.st2{fill:#C0C0C0;}
	.st3{fill:#5E5E5E;}
	.st4{fill:#CECECE;}
	.st5{fill:#0029FA;}
	.st6{fill:#F6FFE3;}
	.st7{fill:#FFFFFF;}
	.st8{fill:#A0A00B;}
	.st9{fill:url(#SVGID_1_);}
	.st10{fill:url(#SVGID_2_);}
	.st11{fill:#27FFA2;}
	.st12{opacity:0.36;fill:#27FFA2;}
	.st13{fill:#08FF9E;}
	.st14{fill:#1B1B19;}
</style>
<g id="Objects">
	<polygon class="st0" points="1960,819 1864,819 1864,813 1954,813 1954,748.5 1960,748.5 	"/>
	<polygon class="st0" points="469.9,1230.4 463.9,1230.4 463.9,1054 302,1054 302,1048 469.9,1048 	"/>
	<polygon class="st0" points="1724.4,1355.9 1692.3,1355.9 1692.3,1324.5 1698.3,1324.5 1698.3,1349.9 1724.4,1349.9 	"/>
	<polygon class="st0" points="548.6,377.2 505.6,377.2 505.6,371.1 542.6,371.1 542.6,326 548.6,326 	"/>
	<polygon class="st0" points="592.5,436.3 586.5,436.3 586.5,403.2 623.2,403.2 623.2,409.2 592.5,409.2 	"/>
	<polygon class="st0" points="1695.3,409.2 1659.3,409.2 1659.3,384.2 1665.4,384.2 1665.4,403.2 1695.3,403.2 	"/>
</g>
<g id="Laptop">
	<g id="Keyboard">
		<polygon class="st1" points="1366.9,1590.9 947.8,1568.4 868.4,1564.1 853.5,1563.3 825.8,1509.5 822.6,1503.3 795.8,1451.2 
			1309.1,1478.8 1334.3,1527.7 1335.8,1530.6 		"/>
		<polygon class="st2" points="1712.2,1054 1546.5,1311.7 1542.8,1317.6 1464.8,1438.9 1461,1444.8 1366.9,1591.1 1309.1,1479 
			1654.4,941.9 		"/>
		<polygon class="st3" points="1239.2,1564.9 1022.4,1554.5 1016.7,1543.5 1233.5,1553.8 		"/>
		<polygon class="st3" points="930.8,1535.4 947.8,1568.4 868.4,1564.1 851.6,1531.6 		"/>
		<polygon class="st3" points="833.3,1471.5 878.9,1473.7 890.2,1495.6 844.6,1493.5 		"/>
		
			<rect x="1215.2" y="1306.8" transform="matrix(0.5407 -0.8412 0.8412 0.5407 -423.1089 1844.8265)" class="st1" width="525.1" height="6"/>
		<polygon class="st2" points="1335.9,1527.7 1335.8,1530.6 1335.6,1533.7 825.8,1509.5 822.6,1503.3 1334.3,1527.7 		"/>
		<path class="st1" d="M1535.8,1191.6l-12.6-24.5l11.2-17.4l12.6,24.5L1535.8,1191.6z M1530.1,1167.3l6.3,12.2l3.7-5.7l-6.3-12.2
			L1530.1,1167.3z"/>
		<path class="st1" d="M1551.6,1166.9l-12.6-24.5l11.2-17.4l12.6,24.5L1551.6,1166.9z M1545.9,1142.7l6.3,12.2l3.7-5.7l-6.3-12.2
			L1545.9,1142.7z"/>
		<path class="st1" d="M1567.5,1142.3l-12.6-24.5l11.2-17.4l12.6,24.5L1567.5,1142.3z M1561.8,1118l6.3,12.2l3.7-5.7l-6.3-12.2
			L1561.8,1118z"/>
		<path class="st1" d="M1583.3,1117.6l-12.6-24.5l11.2-17.4l12.6,24.5L1583.3,1117.6z M1577.6,1093.4l6.3,12.2l3.7-5.7l-6.3-12.2
			L1577.6,1093.4z"/>
		<path class="st1" d="M1630,1115.5l-23.4-45.3l65.1-101.2l23.4,45.3L1630,1115.5z M1613.6,1070.5l17,33l57.6-89.6l-17-33
			L1613.6,1070.5z"/>
		<path class="st3" d="M1638.3,1060.1c2.6,5.1,2.2,13.2-0.9,18c-3.1,4.9-7.8,4.7-10.4-0.4c-2.6-5.1-2.2-13.2,0.9-18
			C1631,1054.9,1635.7,1055.1,1638.3,1060.1z"/>
		<path class="st3" d="M1656.5,1031.8c2.6,5.1,2.2,13.2-0.9,18c-3.1,4.9-7.8,4.7-10.4-0.4s-2.2-13.2,0.9-18
			C1649.2,1026.5,1653.9,1026.7,1656.5,1031.8z"/>
		<path class="st3" d="M1674.7,1003.5c2.6,5.1,2.2,13.2-0.9,18c-3.1,4.9-7.8,4.7-10.4-0.4c-2.6-5.1-2.2-13.2,0.9-18
			C1667.4,998.2,1672.1,998.4,1674.7,1003.5z"/>
		<polygon class="st1" points="1464.8,1438.9 1461,1444.8 1429.1,1382.8 1434.4,1380 		"/>
		<polygon class="st1" points="1546.5,1311.7 1542.8,1317.6 1510.9,1255.6 1516.2,1252.8 		"/>
		<polygon class="st4" points="1309.2,1479 1654.4,941.9 1141,914.1 795.8,1451.2 		"/>
		<polygon class="st1" points="877,1411.5 1127.4,1423.5 1417.9,971.5 1167.5,959.5 		"/>
		<path class="st1" d="M1267.4,1274.3l25.9,1.8c1.5,0.1,2.9-0.6,3.7-1.9l72.3-112.5c1.7-2.7-0.1-6.2-3.3-6.3l-26.3-1.3
			c-1.5-0.1-2.9,0.6-3.7,1.9l-72,111.9C1262.6,1270.6,1264.3,1274.1,1267.4,1274.3z"/>
		<path class="st1" d="M1362.9,1229.2l22.8-35.4c2.5-3.8,6.8-6.1,11.4-5.9l41.9,2c9.9,0.5,15.5,11.4,10.2,19.7l-22.7,35.4
			c-2.5,3.9-6.8,6.1-11.4,5.9l-42-2.1C1363.2,1248.4,1357.6,1237.5,1362.9,1229.2z"/>
		<path class="st2" d="M1426,1266c-0.1,0-0.2,0-0.4,0l-87-4.3c-2.8-0.1-5.3-1.7-6.5-4.2c-1.3-2.5-1.1-5.4,0.4-7.8l47.2-73.3
			c1.5-2.3,4.2-3.7,6.9-3.6l86.9,4.2c2.8,0.1,5.3,1.7,6.5,4.2c1.3,2.5,1.2,5.4-0.4,7.8l-47,73.4
			C1431.1,1264.6,1428.6,1266,1426,1266z M1386.2,1178.9c-0.6,0-1.2,0.3-1.5,0.8l-47.2,73.3c-0.5,0.8-0.2,1.5-0.1,1.8
			c0.1,0.3,0.6,0.9,1.5,1l87,4.3c0.7-0.1,1.2-0.3,1.6-0.8l47-73.4c0.5-0.8,0.2-1.5,0.1-1.8c-0.1-0.3-0.6-0.9-1.5-1L1386.2,1178.9
			C1386.2,1178.9,1386.2,1178.9,1386.2,1178.9z"/>
		<polygon class="st2" points="815.2,1421.1 831.7,1453.2 909.1,1332.4 892.7,1300.6 		"/>
		<polygon class="st1" points="779.4,1419.4 815.2,1421.1 831.7,1453.2 795.8,1451.2 		"/>
		<polygon class="st2" points="967.2,1242 950.8,1210.2 1047.6,1059.5 1064,1091.3 		"/>
		<polygon class="st1" points="967.2,1242 931.4,1240.3 915,1208.5 950.8,1210.2 		"/>
		<polygon class="st1" points="1122.1,1001 1105.7,969.1 1069.9,967.4 1086.3,999.2 		"/>
		<polygon class="st2" points="1105.7,969.1 1122.1,1001 1176.9,915.8 1160.5,884 		"/>
		<polygon class="st4" points="779.4,1419.4 815.2,1421.1 892.7,1300.5 856.9,1298.8 		"/>
		<polygon class="st4" points="1069.9,967.4 1105.7,969.1 1160.5,884 1124.7,882.3 		"/>
		<polygon class="st4" points="915,1208.4 950.7,1210.2 1047.6,1059.5 1011.8,1057.8 		"/>
		<polygon class="st2" points="1133.1,1299.9 1169.4,1300.9 1304.7,1090.3 1268.9,1088.6 		"/>
		<polygon class="st2" points="932.1,1383.1 951.5,1353 987.3,1354.7 967.9,1384.8 		"/>
		<polygon class="st2" points="970.9,1322.8 990.2,1292.7 1026,1294.4 1006.6,1324.5 		"/>
		<polygon class="st2" points="1009.6,1262.6 1029,1232.4 1064.7,1234.2 1045.4,1264.3 		"/>
		<polygon class="st2" points="1119.9,1205.7 1139.3,1175.6 1175,1177.3 1155.7,1207.4 		"/>
		<polygon class="st2" points="1064.7,1234.2 1084.1,1204 1119.9,1205.7 1100.5,1235.9 		"/>
		<polygon class="st2" points="1026,1294.4 1045.4,1264.3 1081.1,1266 1061.8,1296.1 		"/>
		<polygon class="st2" points="1048.3,1202.3 1067.7,1172.2 1103.5,1173.9 1084.1,1204 		"/>
		<polygon class="st2" points="1087.1,1142 1106.4,1111.9 1142.2,1113.6 1122.8,1143.8 		"/>
		<polygon class="st2" points="1142.2,1113.6 1161.6,1083.5 1197.4,1085.2 1178,1115.3 		"/>
		<polygon class="st2" points="1197.4,1085.2 1216.7,1055.1 1252.5,1056.8 1233.1,1086.9 		"/>
		<polygon class="st2" points="1081.1,1266 1100.5,1235.9 1136.3,1237.6 1116.9,1267.7 		"/>
		<polygon class="st2" points="1158.6,1145.5 1178,1115.3 1213.8,1117 1194.4,1147.2 		"/>
		<polygon class="st2" points="1103.5,1173.9 1122.8,1143.8 1158.6,1145.5 1139.3,1175.6 		"/>
		<polygon class="st2" points="1125.8,1081.8 1145.2,1051.7 1180.9,1053.4 1161.6,1083.5 		"/>
		<polygon class="st2" points="1180.9,1053.4 1200.3,1023.2 1236.1,1024.9 1216.7,1055.1 		"/>
		<polygon class="st2" points="1164.5,1021.5 1183.9,991.4 1219.7,993.1 1200.3,1023.2 		"/>
		<polygon class="st2" points="1216.7,1055.1 1255.5,994.8 1291.2,996.5 1252.5,1056.8 		"/>
		<polygon class="st2" points="1288.3,1058.5 1327,998.2 1362.8,999.9 1324.1,1060.2 		"/>
		<polygon class="st2" points="1075.2,1389.9 1114,1329.7 1149.7,1331.4 1111,1391.6 		"/>
		<polygon class="st2" points="1003.7,1386.5 1061.8,1296.1 1097.6,1297.8 1039.4,1388.2 		"/>
	</g>
	<g id="Screen">
		<polygon class="st1" points="1012.1,1058.5 976.3,1056.7 972.1,1028.7 995.7,1026.6 		"/>
		<polygon class="st2" points="995.7,1026.6 1012.1,1058.5 1070.2,968.1 1053.8,936.2 		"/>
		<polygon class="st1" points="857.2,1299.5 821.4,1297.8 817.2,1269.7 840.8,1267.7 		"/>
		<polygon class="st2" points="1108.6,851.1 763.3,1388.2 505.6,888.1 850.7,350.8 		"/>
		<polygon points="1064.8,856.3 1060.5,863.5 776.4,1292.6 570.9,909.3 567.2,902.1 856.5,452.2 		"/>
		<polygon class="st5" points="1060.5,863.5 775.7,1306.6 570.9,909.3 855.8,466.2 		"/>
		<polygon class="st6" points="1060.5,863.5 775.7,1306.6 763.3,1282.7 1048.2,839.6 		"/>
		<polygon class="st7" points="835.6,577.8 984.7,867 754,1225.8 605,936.6 		"/>
		<polygon points="816.9,723.4 799.4,723.4 778.3,756.2 776.4,786.5 820.7,872.6 890.8,763.5 846.5,677.5 		"/>
		<g>
			<polygon class="st0" points="810.5,723.2 793,723.2 771.9,756 770,786.2 814.4,872.3 884.5,763.3 840.1,677.2 			"/>
			<path class="st8" d="M814.1,878.3l-47.1-91.4l2-31.9l22.4-34.8l17.5,0l31.5-49l47.5,92.2L814.1,878.3z M773,785.6l41.6,80.7
				L881,763.1l-41.2-79.9l-27.6,43l-17.5,0l-19.8,30.8L773,785.6z"/>
		</g>
		<g>
			
				<linearGradient id="SVGID_1_" gradientUnits="userSpaceOnUse" x1="637.2504" y1="1206.5898" x2="691.4203" y2="1240.1599" gradientTransform="matrix(0.5408 -0.8412 0.529 1.0264 -216.1066 57.8475)">
				<stop  offset="0" style="stop-color:#FFFFFF"/>
				<stop  offset="9.688431e-02" style="stop-color:#FEFFF6"/>
				<stop  offset="0.2581" style="stop-color:#FCFFDC"/>
				<stop  offset="0.4637" style="stop-color:#F9FFB3"/>
				<stop  offset="0.7058" style="stop-color:#F5FF79"/>
				<stop  offset="0.9758" style="stop-color:#EFFF30"/>
				<stop  offset="0.9944" style="stop-color:#EFFF2B"/>
			</linearGradient>
			<line class="st9" x1="810.5" y1="723.2" x2="770" y2="786.2"/>
			
				<rect x="752.8" y="751.7" transform="matrix(0.5407 -0.8412 0.8412 0.5407 -271.8904 1011.4742)" class="st8" width="75" height="6"/>
		</g>
		<polygon points="704.8,897.8 687.3,897.8 666.2,930.6 664.3,960.9 708.6,1047 778.7,937.9 734.4,851.8 		"/>
		<g>
			<polygon class="st0" points="698.4,897.6 680.9,897.6 659.8,930.4 657.9,960.6 702.2,1046.7 772.3,937.7 728,851.6 			"/>
			<path class="st8" d="M702,1052.7l-47.1-91.4l2-31.9l22.4-34.8l17.5,0l31.5-49l47.5,92.2L702,1052.7z M660.9,960l41.6,80.7
				l66.4-103.2l-41.2-79.9l-27.6,43l-17.5,0l-19.8,30.8L660.9,960z"/>
		</g>
		<g>
			
				<linearGradient id="SVGID_2_" gradientUnits="userSpaceOnUse" x1="429.9272" y1="1206.5898" x2="484.0971" y2="1240.1599" gradientTransform="matrix(0.5408 -0.8412 0.529 1.0264 -216.1066 57.8475)">
				<stop  offset="0" style="stop-color:#FFFFFF"/>
				<stop  offset="9.688431e-02" style="stop-color:#FEFFF6"/>
				<stop  offset="0.2581" style="stop-color:#FCFFDC"/>
				<stop  offset="0.4637" style="stop-color:#F9FFB3"/>
				<stop  offset="0.7058" style="stop-color:#F5FF79"/>
				<stop  offset="0.9758" style="stop-color:#EFFF30"/>
				<stop  offset="0.9944" style="stop-color:#EFFF2B"/>
			</linearGradient>
			<line class="st10" x1="698.4" y1="897.6" x2="657.9" y2="960.6"/>
			
				<rect x="640.7" y="926.1" transform="matrix(0.5407 -0.8412 0.8412 0.5407 -470.0962 997.2703)" class="st8" width="75" height="6"/>
		</g>
		<polygon points="833.3,1043.7 850.1,1076.4 780,1185.4 763.2,1152.8 763.9,1141.5 765.1,1122.5 786.2,1089.7 797.2,1089.7 
			803.7,1089.7 		"/>
		<g>
			<polygon class="st0" points="826.9,1043.5 846.6,1081.8 776.5,1190.8 756.8,1152.5 758.7,1122.2 779.8,1089.4 797.3,1089.5 			
				"/>
			<path class="st8" d="M776.2,1196.8l-22.5-43.7l2-31.9l22.4-34.9l17.5,0l31.5-49l22.9,44.5L776.2,1196.8z M759.8,1151.9l17,32.9
				l66.3-103.2l-16.5-32.1l-27.6,43l-17.5,0l-19.8,30.8L759.8,1151.9z"/>
		</g>
		<g>
			
				<rect x="739.6" y="1118" transform="matrix(0.5407 -0.8412 0.8412 0.5407 -586.0847 1168.5913)" class="st8" width="75" height="6"/>
		</g>
		<path d="M753.7,1231.8L601.5,936.4l234.4-364.6l152.2,295.4L753.7,1231.8z M608.5,936.8l145.8,283l226.9-352.9l-145.8-283
			L608.5,936.8z"/>
		<polygon class="st1" points="820.1,547.7 589.5,906.5 612.7,951.6 843.4,592.9 		"/>
		<g>
			<path d="M593,906.7l20.1,38.9l226.9-352.9l-20.1-38.9L593,906.7z M612.5,957.6L586,906.4l234.4-364.6l26.4,51.3L612.5,957.6z"/>
		</g>
		<rect x="711.1" y="1050.5" transform="matrix(0.5407 -0.8412 0.8412 0.5407 -543.8395 1110.9337)" width="68.6" height="6"/>
		<rect x="821.5" y="878.8" transform="matrix(0.5407 -0.8412 0.8412 0.5407 -348.6956 1124.9209)" width="68.6" height="6"/>
		<line class="st1" x1="801.5" y1="604.7" x2="821.1" y2="605.6"/>
		
			<rect x="808.3" y="595.3" transform="matrix(4.160564e-02 -0.9991 0.9991 4.160564e-02 172.8962 1390.538)" width="6" height="19.6"/>
		<line class="st1" x1="812.1" y1="588.2" x2="810.4" y2="622.1"/>
		
			<rect x="794.3" y="602.1" transform="matrix(4.886523e-02 -0.9988 0.9988 4.886523e-02 167.2056 1385.8781)" width="34" height="6"/>
		<line class="st1" x1="780.8" y1="652.6" x2="769.4" y2="670.3"/>
		<rect x="764.5" y="658.4" transform="matrix(0.5407 -0.8412 0.8412 0.5407 -200.4069 955.8588)" width="21.1" height="6"/>
		<polygon class="st1" points="802.4,634.6 791.8,651.1 782.8,633.8 793.5,617.2 		"/>
		<path d="M791.5,657.1l-12.1-23.5l14.4-22.4l12.1,23.5L791.5,657.1z M786.3,633.9l5.8,11.2l6.9-10.7l-5.8-11.2L786.3,633.9z"/>
		<polygon class="st1" points="763.3,1388.2 727.5,1386.5 469.8,886.4 505.6,888.1 		"/>
		<polygon class="st1" points="850.7,350.8 815,349.1 469.8,886.4 505.6,888.1 		"/>
		<polygon class="st2" points="840.8,1267.7 857.2,1299.5 915.3,1209.1 898.9,1177.3 		"/>
	</g>
</g>
<g id="Window">
	<path class="st11" d="M1890.7,593.5h-765.2v-97.6h765.2V593.5z M1137.5,581.5h741.1v-73.6h-741.1V581.5z"/>
	<rect x="1131.5" y="587.5" class="st12" width="753.2" height="667.8"/>
	<path class="st11" d="M1890.7,1261.3h-765.2V581.5h765.2V1261.3z M1137.5,1249.3h741.1V593.5h-741.1V1249.3z"/>
	<rect x="1417.2" y="664.8" class="st7" width="180.9" height="50.9"/>
	<polygon class="st7" points="1598.1,715.7 1598.1,763.9 1598.1,766.1 1598.1,817.3 1648.6,817.3 1648.6,766.1 1648.6,763.9 
		1648.6,715.7 	"/>
	<rect x="1548.9" y="816" class="st7" width="50.5" height="50.5"/>
	<rect x="1367.6" y="715.7" class="st7" width="50.5" height="50.5"/>
	<rect x="1498" y="1005.4" class="st7" width="50.5" height="50.5"/>
	<rect x="1498" y="866.9" class="st7" width="50.5" height="93.9"/>
	<circle class="st13" cx="1179.1" cy="544.5" r="10.7"/>
	<circle class="st13" cx="1236.1" cy="544.5" r="10.7"/>
	<circle class="st13" cx="1293.1" cy="544.5" r="10.7"/>
</g>
<g id="Hand">
	<polygon class="st7" points="1684.3,943.2 1695.3,997.3 1718.5,1019.3 1740.6,1062.5 1762.6,1105.5 1784.7,1148.5 1806.7,1191.5 
		1960.9,1191.5 1982.9,1148.5 2005,1084 2005,937.2 1982.9,915.9 1881.8,871.3 1847.5,851.1 1825.5,770.5 1781.1,770.5 
		1760.6,976.3 1739.6,954.3 	"/>
	<rect x="1695.3" y="997.3" class="st14" width="22" height="22"/>
	<rect x="1673.3" y="954.3" class="st14" width="22" height="43"/>
	<rect x="1718.5" y="1019.3" class="st14" width="22" height="43"/>
	<rect x="1938.6" y="915.7" class="st14" width="22" height="60.7"/>
	<rect x="1784.7" y="1191.5" class="st14" width="198.3" height="22"/>
	<rect x="1740.6" y="1062.5" class="st14" width="22" height="43"/>
	<rect x="1762.6" y="1105.5" class="st14" width="22" height="43"/>
	<rect x="1784.7" y="1148.5" class="st14" width="22" height="43"/>
	<rect x="1960.9" y="1148.5" class="st14" width="22" height="43"/>
	<rect x="1982.9" y="1084" class="st14" width="22" height="64.5"/>
	<rect x="2005" y="937.2" class="st14" width="22" height="146.8"/>
	<rect x="1738.5" y="954.3" class="st14" width="22" height="22"/>
	<rect x="1982.9" y="915.1" class="st14" width="22" height="22"/>
	<rect x="1938.6" y="893.9" class="st14" width="44.3" height="22"/>
	<rect x="1781.1" y="748.5" class="st14" width="44.3" height="22"/>
	<rect x="1882.2" y="893.6" class="st14" width="22" height="60.7"/>
	<rect x="1882.2" y="871.8" class="st14" width="56.4" height="22"/>
	<rect x="1825.5" y="770.5" class="st14" width="22" height="183.7"/>
	<rect x="1759.1" y="770.5" class="st14" width="22" height="268.7"/>
	<rect x="1825.5" y="849.3" class="st14" width="56.4" height="22"/>
	<rect x="1673.3" y="932.2" class="st14" width="66.3" height="22"/>
</g>
</svg>
