<?xml version="1.0" encoding="utf-8"?>
<!-- Generator: Adobe Illustrator 21.0.2, SVG Export Plug-In . SVG Version: 6.00 Build 0)  -->
<svg version="1.1" id="Слой_1" xmlns="http://www.w3.org/2000/svg" xmlns:xlink="http://www.w3.org/1999/xlink" x="0px" y="0px"
	 viewBox="0 0 2500 2000" style="enable-background:new 0 0 2500 2000;" xml:space="preserve">
<style type="text/css">
	.st0{fill:url(#SVGID_1_);}
	.st1{fill:#32312E;}
	.st2{fill:#FF3127;}
	.st3{fill:#BABABA;}
	.st4{fill:#D1D1D1;}
	.st5{fill:#585756;}
	.st6{fill:#EA281F;}
	.st7{fill:#E6008E;}
	.st8{fill:#D1008B;}
	.st9{fill:#0029FA;}
	.st10{fill:#FFFFFF;}
	.st11{fill:#6B6356;}
	.st12{fill:#676155;}
	.st13{fill:#B2A372;}
	.st14{fill:#FCE8BE;}
	.st15{fill:#33FFCC;}
	.st16{fill:#E9EEFF;}
</style>
<g id="Reader">
	<linearGradient id="SVGID_1_" gradientUnits="userSpaceOnUse" x1="1351.408" y1="1682.8828" x2="1057.2523" y2="391.0242">
		<stop  offset="0" style="stop-color:#FFFFFF"/>
		<stop  offset="1" style="stop-color:#00FFC2"/>
	</linearGradient>
	<polygon class="st0" points="1250.9,472 1995.3,1587.9 680.2,1587.9 410.2,472 	"/>
	<rect x="409.5" y="363.4" width="841.4" height="118.3"/>
	<rect x="708" y="331.9" width="244.4" height="181.3"/>
	<polygon class="st1" points="1195.1,419.1 1195.1,481.8 952.4,481.8 952.4,513.3 708,513.3 708,481.8 409.5,481.8 409.5,419.1 	"/>
	<polygon points="952.4,481.8 921,513.2 952.4,513.3 	"/>
</g>
<g id="Disc_2">
	<polygon class="st2" points="1007.9,1015 1016.4,1448.9 604.3,1457 596.5,1059.9 623.3,1032 689.9,1030.7 689.7,1021.2 	"/>
	<path class="st3" d="M913.9,1016.7l-224.1,4.4l2.6,133.3c0,1.8,0.4,3.6,1.1,5.1c2.1,4.7,6.9,8,12.4,7.8l197.7-3.9
		c3.7-0.1,6.9-1.6,9.3-4.1c2.3-2.4,3.8-5.8,3.7-9.4L913.9,1016.7z"/>
	<path class="st4" d="M819.2,1165.1l84.3-1.7c4.5-0.1,8.5-2.4,10.8-5.9c1.4-2.2,2.2-4.8,2.2-7.6l-1.6-80.6L819.2,1165.1z"/>
	
		<rect x="723.8" y="1038.8" transform="matrix(0.9998 -1.962984e-02 1.962984e-02 0.9998 -21.3568 14.9801)" class="st1" width="57.1" height="113"/>
	
		<ellipse transform="matrix(0.9998 -1.962984e-02 1.962984e-02 0.9998 -24.6026 16.076)" class="st4" cx="806.6" cy="1261.2" rx="60.1" ry="60.1"/>
	
		<ellipse transform="matrix(0.9998 -1.962984e-02 1.962984e-02 0.9998 -24.6026 16.076)" class="st5" cx="806.6" cy="1261.2" rx="16.1" ry="16.1"/>
	
		<rect x="663.1" y="1402.6" transform="matrix(0.9998 -1.962984e-02 1.962984e-02 0.9998 -27.8707 16.1723)" class="st6" width="293.5" height="50.4"/>
	
		<ellipse transform="matrix(0.9998 -1.962984e-02 1.962984e-02 0.9998 -21.4331 12.3884)" class="st1" cx="620.3" cy="1098" rx="11.2" ry="11.2"/>
	
		<ellipse transform="matrix(0.9998 -1.962984e-02 1.962984e-02 0.9998 -21.2219 19.5586)" class="st1" cx="985.7" cy="1090.8" rx="11.2" ry="11.2"/>
	
		<rect x="621.2" y="1410.6" transform="matrix(0.9998 -1.962984e-02 1.962984e-02 0.9998 -27.7378 12.6365)" class="st1" width="17.2" height="17.2"/>
	
		<rect x="979.8" y="1403.6" transform="matrix(0.9998 -1.962984e-02 1.962984e-02 0.9998 -27.5305 19.6734)" class="st1" width="17.2" height="17.2"/>
	
		<rect x="765.7" y="1276.1" transform="matrix(0.6931 -0.7209 0.7209 0.6931 -694.0149 954.4708)" class="st5" width="16.3" height="32.3"/>
</g>
<g id="Disc_3">
	<polygon class="st7" points="1761.7,1014.4 1544.5,1390.1 1187.6,1183.8 1386.4,839.9 1423.8,829.9 1481.5,863.3 1486.2,855.1 	"/>
	<path class="st3" d="M1680.4,967.2l-67.1,115.9c-1.5,2.7-3.9,4.6-6.6,5.6c-3.4,1.2-7.3,1-10.7-0.9l-49.2-28.5l-122.9-71.1
		c-1.5-0.9-2.8-2-3.8-3.3c-3-3.9-3.5-9.5-0.9-14l67.1-115.9l167.8,97L1680.4,967.2z"/>
	
		<rect x="1444.9" y="922.4" transform="matrix(0.5004 -0.8658 0.8658 0.5004 -73.2093 1775.0568)" class="st1" width="113" height="57.1"/>
	
		<ellipse transform="matrix(0.5004 -0.8658 0.8658 0.5004 -240.0947 1825.8529)" class="st4" cx="1462" cy="1121" rx="60.1" ry="60.1"/>
	
		<ellipse transform="matrix(0.5004 -0.8658 0.8658 0.5004 -240.0947 1825.8529)" class="st5" cx="1462" cy="1121" rx="16.1" ry="16.1"/>
	
		<rect x="1353.5" y="1118.4" transform="matrix(0.5004 -0.8658 0.8658 0.5004 -406.5778 1825.7407)" class="st8" width="50.4" height="293.5"/>
	
		<ellipse transform="matrix(0.5004 -0.8658 0.8658 0.5004 -73.1182 1643.0275)" class="st1" cx="1387.1" cy="884.9" rx="11.2" ry="11.2"/>
	
		<ellipse transform="matrix(0.5004 -0.8658 0.8658 0.5004 -73.3704 2008.2965)" class="st1" cx="1703.5" cy="1067.7" rx="11.2" ry="11.2"/>
	
		<rect x="1220.4" y="1156.1" transform="matrix(0.8658 0.5004 -0.5004 0.8658 747.7662 -458.6916)" class="st1" width="17.2" height="17.2"/>
	
		<rect x="1530.9" y="1335.6" transform="matrix(0.8658 0.5004 -0.5004 0.8658 879.2331 -589.9771)" class="st1" width="17.2" height="17.2"/>
	
		<rect x="1409.9" y="1114.5" transform="matrix(0.966 -0.2584 0.2584 0.966 -243.9706 404.7676)" class="st5" width="16.3" height="32.3"/>
	<path class="st4" d="M1680.4,967.2l-67.1,115.9c-1.5,2.7-3.9,4.6-6.6,5.6c-3.4,1.2-7.3,1-10.7-0.9l-49.2-28.5L1654.1,952
		L1680.4,967.2z"/>
</g>
<g id="Disc_1">
	<polygon class="st9" points="1521,667.7 1443.2,1063.2 1043.7,984.6 1128.7,552.4 1165,559.6 1173.1,561.2 1437.1,613.1 
		1435.3,622.5 1499.9,635.2 	"/>
	<path class="st10" d="M1399.5,1054.6l-312.1-61.4l45.4-230.8c3.5-17.7,18.3-29.7,33.1-26.8l258.4,50.9c14.8,2.9,24,19.6,20.5,37.4
		L1399.5,1054.6z"/>
	<path class="st1" d="M1219.9,570.2l217.3,42.8l-22.4,113.9c-3.5,17.7-18.3,29.7-33.1,26.8L1218,721.5c-14.8-2.9-24-19.6-20.5-37.4
		L1219.9,570.2z"/>
	<g>
		<path class="st1" d="M1228.1,715l-1.6,8.1l-68.5-13.5c-11.5-2.3-18.9-13.6-16.6-25.3l23.6-124.7l8.1,1.6l-23.6,124.7
			c-1.4,7.3,3.1,14.3,10.1,15.7L1228.1,715z"/>
	</g>
	
		<rect x="1063.2" y="937.8" transform="matrix(0.1931 -0.9812 0.9812 0.1931 -63.6762 1817.7441)" class="st1" width="20.2" height="19.7"/>
	
		<rect x="1421.2" y="1008.2" transform="matrix(0.1931 -0.9812 0.9812 0.1931 156.0642 2225.8584)" class="st1" width="20.2" height="19.7"/>
	
		<rect x="1305.7" y="648.3" transform="matrix(0.1931 -0.9812 0.9812 0.1931 436.1135 1883.2789)" class="st11" width="114.7" height="56.4"/>
	<g>
		
			<rect x="1183.9" y="840.2" transform="matrix(0.193 -0.9812 0.9812 0.193 89.9864 1880.1716)" class="st2" width="8.2" height="90.3"/>
	</g>
	<g>
		
			<rect x="1178.7" y="867" transform="matrix(0.1931 -0.9812 0.9812 0.1931 59.3783 1896.5262)" class="st2" width="8.2" height="90.3"/>
	</g>
	
		<rect x="1153.6" y="923.9" transform="matrix(0.1931 -0.9812 0.9812 0.1931 -4.692 1927.8409)" class="st12" width="32.2" height="85.8"/>
</g>
<g id="Button">
	<polygon class="st13" points="1535,390 1569,489.5 1535,515.2 1363.3,515.2 1363.3,390 1389.1,356 	"/>
	<rect x="1389.1" y="356" class="st14" width="179.9" height="133.5"/>
	<path class="st10" d="M1479,464.6c-23.1,0-41.9-18.8-41.9-41.9s18.8-41.9,41.9-41.9c23.1,0,41.8,18.8,41.8,41.9
		S1502.1,464.6,1479,464.6z M1479,389.1c-18.5,0-33.6,15.1-33.6,33.6c0,18.5,15.1,33.6,33.6,33.6s33.6-15.1,33.6-33.6
		C1512.6,404.2,1497.5,389.1,1479,389.1z"/>
	<rect x="1474.9" y="376.9" class="st10" width="8.2" height="45.8"/>
</g>
<g id="Objects_1_">
	
		<rect x="689.6" y="626.7" transform="matrix(0.9911 0.1332 -0.1332 0.9911 94.0199 -90.119)" class="st10" width="61.8" height="61.8"/>
	
		<rect x="1298" y="1394" transform="matrix(0.9911 0.1332 -0.1332 0.9911 201.6553 -164.3337)" class="st10" width="61.8" height="61.8"/>
	<rect x="1390" y="1490.2" transform="matrix(0.866 -0.5 0.5 0.866 -570.2052 914.2732)" class="st10" width="61.8" height="61.8"/>
	
		<rect x="985.5" y="1492.4" transform="matrix(0.9684 -0.2493 0.2493 0.9684 -347.6871 301.5006)" class="st15" width="61.8" height="61.8"/>
	
		<rect x="481.8" y="563.3" transform="matrix(0.795 -0.6066 0.6066 0.795 -255.35 432.8683)" class="st10" width="61.8" height="61.8"/>
	
		<rect x="422.6" y="1133.8" transform="matrix(0.795 -0.6066 0.6066 0.795 -613.564 513.8631)" class="st16" width="61.8" height="61.8"/>
	
		<rect x="1964.4" y="1339.4" transform="matrix(0.795 -0.6066 0.6066 0.795 -422.2399 1491.2931)" class="st16" width="61.8" height="61.8"/>
	
		<rect x="613.4" y="846.3" transform="matrix(0.7071 -0.7071 0.7071 0.7071 -438.6182 693.2864)" class="st10" width="8.2" height="59.6"/>
	
		<rect x="1034.9" y="520.3" transform="matrix(0.7071 -0.7071 0.7071 0.7071 -63.0891 896.4874)" class="st10" width="31.5" height="8.2"/>
	
		<rect x="1712.8" y="1353.8" transform="matrix(0.7071 -0.7071 0.7071 0.7071 -452.8249 1622.5499)" class="st10" width="38.8" height="8.2"/>
	
		<rect x="1706.2" y="1417.4" transform="matrix(0.7071 -0.7071 0.7071 0.7071 -519.3321 1631.8568)" class="st10" width="8.2" height="50.9"/>
</g>
</svg>
