<?xml version="1.0" encoding="utf-8"?>
<!-- Generator: Adobe Illustrator 21.0.2, SVG Export Plug-In . SVG Version: 6.00 Build 0)  -->
<svg version="1.1" id="Слой_1" xmlns="http://www.w3.org/2000/svg" xmlns:xlink="http://www.w3.org/1999/xlink" x="0px" y="0px"
	 viewBox="0 0 2500 2000" style="enable-background:new 0 0 2500 2000;" xml:space="preserve">
<style type="text/css">
	.st0{fill:#7C7C7C;}
	.st1{fill:#E2C796;}
	.st2{fill:#F2E5CE;}
	.st3{fill:#B2A372;}
	.st4{fill:#AAAAA1;}
	.st5{fill:#93845A;}
	.st6{fill:#FCE8BE;}
	.st7{fill:#32312E;}
	.st8{fill:#FFFFFF;}
	.st9{fill:#56A4FF;}
	.st10{fill:#5656FF;}
	.st11{fill:#EA56FF;}
	.st12{fill:#56DEFF;}
</style>
<g id="Mouse">
	<polygon class="st0" points="1517.6,1132.4 1348.3,1132.4 1348.3,1117.3 1502.6,1117.3 1502.6,475.8 1770.3,475.8 1770.3,969.3 
		1755.2,969.3 1755.2,490.8 1517.6,490.8 	"/>
	<rect x="1609.6" y="930.4" class="st1" width="191.3" height="269.4"/>
	<rect x="1667.1" y="930.4" class="st2" width="191.3" height="269.4"/>
	<rect x="1709.9" y="930.4" class="st3" width="105.7" height="77.7"/>
</g>
<g id="Keyboard">
	<polygon class="st0" points="849.8,1366.7 744.5,1366.7 744.5,1335.4 732,1335.4 732,1366.7 688.8,1366.7 688.8,1335.4 
		678.4,1335.4 678.4,1366.7 623.2,1366.7 623.2,1335.4 596.3,1335.4 596.3,1366.7 483.8,1366.7 483.8,1188.8 696.3,1188.8 
		696.3,1203.8 498.8,1203.8 498.8,1351.7 581.2,1351.7 581.2,1320.4 638.3,1320.4 638.3,1351.7 663.4,1351.7 663.4,1320.4 
		703.8,1320.4 703.8,1351.7 716.9,1351.7 716.9,1320.4 759.5,1320.4 759.5,1351.7 849.8,1351.7 	"/>
	<rect x="826.1" y="1316.6" class="st3" width="787.1" height="278.2"/>
	<rect x="872.3" y="1316.6" class="st2" width="787.1" height="278.2"/>
	<rect x="1112.4" y="1470.8" class="st3" width="328" height="52.6"/>
	<rect x="1016.2" y="1470.8" class="st4" width="60" height="52.6"/>
	<rect x="1016.2" y="1391.8" class="st4" width="60" height="52.6"/>
	<rect x="1112.4" y="1391.8" class="st4" width="60" height="52.6"/>
	<rect x="1200.4" y="1391.8" class="st4" width="60" height="52.6"/>
	<rect x="1288.4" y="1391.8" class="st4" width="60" height="52.6"/>
	<rect x="1376.4" y="1391.8" class="st4" width="60" height="52.6"/>
	<rect x="920.1" y="1391.8" class="st4" width="60" height="52.6"/>
	<rect x="1482.2" y="1470.8" class="st4" width="60" height="52.6"/>
	<rect x="1482.2" y="1391.8" class="st4" width="119.9" height="52.6"/>
</g>
<g id="Computer">
	<rect x="574.7" y="1153" class="st5" width="192.3" height="118.4"/>
	<rect x="767.1" y="1153" class="st3" width="623.5" height="118.4"/>
	<rect x="574.7" y="412.9" class="st3" width="192.3" height="783.3"/>
	<rect x="767.1" y="412.9" class="st6" width="669.3" height="783.3"/>
	<rect x="872.3" y="518.2" width="458.7" height="383.5"/>
	<rect x="872.3" y="562.5" class="st7" width="414.5" height="339.2"/>
	<rect x="1108.4" y="1029.6" class="st7" width="222.7" height="27.6"/>
	<rect x="1269.3" y="1021.4" class="st7" width="61.7" height="43.9"/>
	<rect x="588.8" y="1216" class="st4" width="25.4" height="7.5"/>
	<rect x="588.8" y="1243.3" class="st4" width="25.4" height="7.5"/>
	<rect x="630.7" y="1216" class="st4" width="25.4" height="7.5"/>
	<rect x="630.7" y="1243.3" class="st4" width="25.4" height="7.5"/>
	<rect x="670.9" y="1216" class="st4" width="25.4" height="7.5"/>
	<rect x="670.9" y="1243.3" class="st4" width="25.4" height="7.5"/>
	<rect x="904.9" y="826.1" class="st8" width="343.4" height="7.5"/>
	
		<rect x="925.1" y="623.3" transform="matrix(0.7071 -0.7071 0.7071 0.7071 -192.6032 849.1864)" class="st8" width="7.5" height="67.6"/>
	
		<rect x="895" y="653.3" transform="matrix(0.7071 -0.7071 0.7071 0.7071 -192.5958 849.2295)" class="st8" width="67.6" height="7.5"/>
	
		<rect x="1220.7" y="623.3" transform="matrix(0.7071 -0.7071 0.7071 0.7071 -106.0221 1058.2231)" class="st8" width="7.5" height="67.6"/>
	
		<rect x="1190.7" y="653.3" transform="matrix(0.7071 -0.7071 0.7071 0.7071 -106.0067 1058.2743)" class="st8" width="67.6" height="7.5"/>
</g>
<g id="Objects">
	<path class="st9" d="M450.1,808c-7.1,16.9-22.5,14.2-37.3,18.3c-13.4,3.7-19.9,13.7-22.9,26.9c-1.1,4.7,6.2,6.7,7.3,2
		c4.5-20.1,16.6-21.1,34-24.3c12.8-2.4,21.1-8.7,26.2-20.8C459.2,805.5,451.9,803.6,450.1,808z"/>
	<path class="st9" d="M470.1,834.1c-7.1,16.9-22.5,14.2-37.3,18.3c-13.4,3.7-19.9,13.7-22.9,26.9c-1.1,4.7,6.2,6.7,7.3,2
		c4.5-20.1,16.6-21.1,34-24.3c12.8-2.4,21.1-8.7,26.2-20.8C479.2,831.7,472,829.7,470.1,834.1z"/>
	<path class="st10" d="M1571.2,295.6c-14.4,0.6-26.7-1.1-37.7-11.1c-8.7-8-14.7-18.5-23.4-26.4c-13-11.7-27.5-10.2-44.2-10.1
		c-4.8,0-4.8,7.5,0,7.5c10.4,0,23-1.9,32.6,3.2c10.7,5.6,17.3,18,25.3,26.6c13.6,14.5,27.6,18.7,47.4,17.9
		C1576,302.9,1576,295.4,1571.2,295.6z"/>
	<path class="st10" d="M1558.5,323.3c-14.4,0.6-26.7-1.1-37.7-11.1c-8.7-8-14.7-18.5-23.4-26.4c-13-11.7-27.5-10.2-44.2-10.1
		c-4.8,0-4.8,7.5,0,7.5c10.4,0,23-1.9,32.6,3.2c10.7,5.6,17.3,18,25.3,26.6c13.6,14.5,27.6,18.7,47.4,17.9
		C1563.3,330.6,1563.3,323,1558.5,323.3z"/>
	<path class="st11" d="M729.2,1442.6c-15.8-4.5-31.3,0.9-47.4,0c-1.7-0.1-2.8,0.8-3.3,2c-2.1,0.1-4.5,1.9-4.1,4.7
		c1.1,7.8,6.1,15.5,9.9,22.3c4.7,8.3,9.7,16.5,15.6,24c1.8,2.3,5.6,0.8,6.3-1.7c5.2-17.3,20.9-29,25.6-46.6
		C732.4,1445.2,731.2,1443.1,729.2,1442.6z M701.7,1485c-3.9-5.6-7.5-11.4-10.9-17.3c-3-5.4-6.7-11.4-8.4-17.6
		c13.7,0.7,27.3-3.5,40.8-1.1C718.3,1462.1,707.7,1472.3,701.7,1485z"/>
	<path class="st12" d="M1903.9,778c-22.3-4.9-45.1-6.5-66.7-14c-1.2-0.4-2.3-0.2-3.1,0.4c-2.2-1-5.5,0-5.5,3.2
		c0,20-0.4,39.9,0.6,59.9c0.1,2.9,3.1,4.6,5.7,3.2c24.9-12.7,46.7-30.4,69.9-45.8C1907.3,783.2,1907.2,778.8,1903.9,778z
		 M1893.4,783.6c-18.7,12.9-36.9,26.8-56.9,37.7c-0.6-16.6-0.4-33.1-0.4-49.7C1854.8,777.9,1874.2,779.9,1893.4,783.6z"/>
</g>
</svg>
