<?xml version="1.0" encoding="utf-8"?>
<!-- Generator: Adobe Illustrator 21.0.2, SVG Export Plug-In . SVG Version: 6.00 Build 0)  -->
<svg version="1.1" id="Слой_1" xmlns="http://www.w3.org/2000/svg" xmlns:xlink="http://www.w3.org/1999/xlink" x="0px" y="0px"
	 viewBox="0 0 2500 2000" style="enable-background:new 0 0 2500 2000;" xml:space="preserve">
<style type="text/css">
	.st0{fill:#0029FA;}
	.st1{fill:#FFFFFF;}
	.st2{fill:#D1D1D1;}
	.st3{fill:#FAFAFA;}
	.st4{fill:#C0C0C0;}
	.st5{fill:#8D00A1;}
	.st6{fill:#0F0F0F;}
	.st7{fill:#FF00BA;}
	.st8{fill:#66FF33;}
</style>
<g id="Window_2">
	<g>
		<path class="st0" d="M1600,1083.2H956.5l-0.7-1.2L637,529.8h643.6l0.7,1.2L1600,1083.2z M959.3,1078.2h632.2l-313.8-543.5H645.5
			L959.3,1078.2z"/>
	</g>
	<polygon class="st0" points="1325.3,612.2 687.4,612.2 641.3,532.3 1279.1,532.3 	"/>
	<g>
		<polygon class="st0" points="963.1,765.3 951.2,744.7 939.3,724.1 927.4,703.5 903.4,703.5 915.3,724.1 927.2,744.7 903.2,744.7 
			879.3,744.7 867.4,724.1 855.5,703.5 831.5,703.5 843.4,724.1 855.3,744.7 867.2,765.3 879.1,785.9 891,806.5 914.9,806.5 
			903.1,785.9 891.2,765.3 915.1,765.3 939.1,765.3 951,785.9 962.9,806.5 986.8,806.5 975,785.9 		"/>
		<path class="st0" d="M1106.7,806.5l-11.9-20.6l-11.9-20.6l-11.9-20.6l-11.9-20.6l-11.9-20.6h-24h-24h-24h-24l11.9,20.6l11.9,20.6
			l11.9,20.6l11.9,20.6l11.9,20.6h24h24h24H1106.7z M1046.8,785.9h-24l-11.9-20.6l-11.9-20.6l-11.9-20.6h24h24l11.9,20.6l11.9,20.6
			l11.9,20.6H1046.8z"/>
		<path class="st0" d="M1334.4,785.9l-11.9-20.6l-11.9-20.6l-11.9-20.6l-11.9-20.6h-24h-24h-24h-24l11.9,20.6l11.9,20.6l11.9,20.6
			l11.9,20.6l11.9,20.6h24l-11.9-20.6l-11.9-20.6h24h24l11.9,20.6l11.9,20.6h24L1334.4,785.9z M1262.7,744.7h-24l-11.9-20.6h24h24
			l11.9,20.6H1262.7z"/>
		<polygon class="st0" points="1285.8,909.5 1273.9,888.9 1262,868.3 1238.1,868.3 1214.1,868.3 1190.1,868.3 1166.2,868.3 
			1178.1,888.9 1202,888.9 1226,888.9 1250,888.9 1261.9,909.5 1273.8,930.1 1249.8,930.1 1225.8,930.1 1237.7,950.7 1249.6,971.3 
			1273.6,971.3 1261.7,950.7 1285.7,950.7 1309.6,950.7 1297.7,930.1 		"/>
		<polygon class="st0" points="1261.5,992 1273.4,1012.6 1297.4,1012.6 1285.5,992 		"/>
		<polygon class="st0" points="1189.6,992 1165.7,992 1141.7,992 1129.8,971.3 1117.9,950.7 1141.9,950.7 1165.8,950.7 
			1153.9,930.1 1142,909.5 1118.1,909.5 1130,930.1 1106,930.1 1082,930.1 1093.9,950.7 1105.8,971.3 1117.7,992 1129.6,1012.6 
			1153.6,1012.6 1177.6,1012.6 1201.5,1012.6 1225.5,1012.6 1213.6,992 		"/>
		<polygon class="st0" points="1094.3,868.3 1106.2,888.9 1130.1,888.9 1118.3,868.3 		"/>
		<polygon class="st0" points="1095,744.7 1106.9,765.3 1118.7,785.9 1130.6,806.5 1154.6,806.5 1178.6,806.5 1202.5,806.5 
			1226.5,806.5 1214.6,785.9 1190.6,785.9 1166.7,785.9 1142.7,785.9 1130.8,765.3 1118.9,744.7 1107,724.1 1095.1,703.5 
			1071.2,703.5 1083.1,724.1 		"/>
	</g>
	<g>
		<path class="st1" d="M1169.1,592.7h-47.5l-23.6-40.9h47.5L1169.1,592.7z M1124.4,587.7h36.1l-17.9-31h-36.1L1124.4,587.7z"/>
	</g>
	<g>
		<path class="st1" d="M1228.4,592.7h-47.5l-23.6-40.9h47.5L1228.4,592.7z M1183.7,587.7h36.1l-17.9-31h-36.1L1183.7,587.7z"/>
	</g>
	<g>
		<path class="st1" d="M1210.2,582.2H1187l-11.5-20h23.2L1210.2,582.2z M1189.9,577.3h11.8l-5.9-10.1H1184L1189.9,577.3z"/>
	</g>
	<g>
		<path class="st1" d="M1287.7,592.7h-47.5l-23.6-40.9h47.5L1287.7,592.7z M1243.1,587.7h36.1l-17.9-31h-36.1L1243.1,587.7z"/>
	</g>
	<g>
		<rect x="1128.3" y="577.6" class="st1" width="19.6" height="4.9"/>
	</g>
	<g>
		<line class="st2" x1="1181.2" y1="567.3" x2="1198.8" y2="567.3"/>
		<rect x="1181.2" y="564.8" class="st1" width="17.5" height="4.9"/>
	</g>
	<g>
		<g>
			<line class="st2" x1="1240.3" y1="565.4" x2="1264" y2="579.1"/>
			
				<rect x="1249.7" y="558.6" transform="matrix(0.4981 -0.8671 0.8671 0.4981 132.2727 1373.0021)" class="st1" width="4.9" height="27.3"/>
		</g>
		<g>
			<line class="st2" x1="1256.2" y1="565.4" x2="1248.2" y2="579.1"/>
			
				<rect x="1244.3" y="569.8" transform="matrix(0.506 -0.8625 0.8625 0.506 125.0022 1362.7352)" class="st1" width="15.8" height="4.9"/>
		</g>
	</g>
</g>
<g id="Window_4">
	<g>
		<polygon class="st1" points="2191.2,1256.8 1553.3,1256.8 1359.3,920.8 1997.2,920.8 		"/>
		<path class="st0" d="M2195.5,1259.3h-643.6l-196.9-341h643.6L2195.5,1259.3z M1554.7,1254.3h632.2l-191.2-331.1h-632.2
			L1554.7,1254.3z"/>
	</g>
	<polygon class="st0" points="2043.3,1000.7 1405.4,1000.7 1359.3,920.8 1997.2,920.8 	"/>
	<g>
		<path class="st1" d="M1887.1,981.1h-47.5l-23.6-40.9h47.5L1887.1,981.1z M1842.5,976.2h36.1l-17.9-31h-36.1L1842.5,976.2z"/>
	</g>
	<g>
		<path class="st1" d="M1946.4,981.1h-47.5l-23.6-40.9h47.5L1946.4,981.1z M1901.8,976.2h36.1l-17.9-31h-36.1L1901.8,976.2z"/>
	</g>
	<g>
		<path class="st1" d="M1928.3,970.7h-23.2l-11.5-20h23.2L1928.3,970.7z M1907.9,965.8h11.8l-5.9-10.1H1902L1907.9,965.8z"/>
	</g>
	<g>
		<path class="st1" d="M2005.8,981.1h-47.5l-23.6-40.9h47.5L2005.8,981.1z M1961.1,976.2h36.1l-17.9-31h-36.1L1961.1,976.2z"/>
	</g>
	<g>
		<rect x="1846.3" y="966.1" class="st1" width="19.6" height="4.9"/>
	</g>
	<g>
		<line class="st2" x1="1899.3" y1="955.8" x2="1916.8" y2="955.8"/>
		<rect x="1899.3" y="953.3" class="st1" width="17.5" height="4.9"/>
	</g>
	<g>
		<g>
			<line class="st2" x1="1958.4" y1="953.9" x2="1982.1" y2="967.5"/>
			
				<rect x="1967.7" y="947" transform="matrix(0.4983 -0.867 0.867 0.4983 155.5737 2190.2515)" class="st1" width="4.9" height="27.3"/>
		</g>
		<g>
			<line class="st2" x1="1974.2" y1="953.9" x2="1966.2" y2="967.5"/>
			
				<rect x="1962.3" y="958.2" transform="matrix(0.5056 -0.8628 0.8628 0.5056 145.2522 2174.8789)" class="st1" width="15.8" height="4.9"/>
		</g>
	</g>
	<g>
		<polygon class="st3" points="1908.5,1077.3 1953.8,1155.7 1674,1155.7 1628.7,1077.3 		"/>
		<polygon points="1908.5,1077.3 1953.8,1155.7 1674,1155.7 1678.5,1148 1642,1084.9 1904,1084.9 		"/>
		<polygon class="st4" points="1940.5,1148 1678.5,1148 1642,1084.9 1904,1084.9 		"/>
		<g>
			<polygon class="st5" points="1793.9,1125.9 1793.6,1125.5 1797.9,1123 			"/>
		</g>
		<g>
			<rect x="1796.1" y="1100" transform="matrix(0.866 -0.5 0.5 0.866 -317.2883 1048.8018)" width="4.9" height="33"/>
		</g>
		<g>
			<polygon points="1823.9,1131.4 1795.5,1116.5 1803.8,1101.9 1808.1,1104.3 1802.3,1114.5 1826.1,1127 			"/>
		</g>
		<g>
			<path class="st6" d="M1782.8,1132.2c-6.6,0-14.8-5.1-18.5-11.6l-3.9-6.7c-2.2-3.8-2.5-7.6-0.9-10.3c1.4-2.4,4.1-3.8,7.5-3.8
				c6.6,0,14.8,5.1,18.5,11.6l3.9,6.7c2.2,3.8,2.5,7.6,0.9,10.3C1788.9,1130.8,1786.3,1132.2,1782.8,1132.2z M1767,1104.7
				c-0.9,0-2.5,0.2-3.2,1.3c-0.7,1.2-0.3,3.2,0.9,5.4l3.9,6.7c2.9,5,9.4,9.1,14.2,9.1c0.9,0,2.5-0.2,3.2-1.3
				c0.7-1.2,0.3-3.2-0.9-5.4l-3.9-6.7C1778.4,1108.9,1771.8,1104.7,1767,1104.7z"/>
		</g>
	</g>
</g>
<g id="Window_1">
	<polygon points="1216.7,1252.7 465.4,1252.7 231.6,847.8 982.9,847.8 	"/>
	<g>
		<path class="st0" d="M1221,1255.2H464l-0.7-1.2L227.3,845.3h757l0.7,1.2L1221,1255.2z M466.9,1250.3h745.6l-231-400H235.9
			L466.9,1250.3z"/>
	</g>
	<polygon class="st0" points="1029,927.7 277.7,927.7 231.6,847.8 982.9,847.8 	"/>
	<g>
		<path class="st1" d="M872.8,908.1h-47.5l-23.6-40.9h47.5L872.8,908.1z M828.2,903.2h36.1l-17.9-31h-36.1L828.2,903.2z"/>
	</g>
	<g>
		<path class="st1" d="M932.1,908.1h-47.5l-23.6-40.9h47.5L932.1,908.1z M887.5,903.2h36.1l-17.9-31h-36.1L887.5,903.2z"/>
	</g>
	<g>
		<path class="st1" d="M914,897.7h-23.2l-11.5-20h23.2L914,897.7z M893.6,892.8h11.8l-5.9-10.1h-11.8L893.6,892.8z"/>
	</g>
	<g>
		<path class="st1" d="M991.5,908.1H944l-23.6-40.9h47.5L991.5,908.1z M946.8,903.2h36.1l-17.9-31h-36.1L946.8,903.2z"/>
	</g>
	<g>
		<rect x="832" y="893.1" class="st1" width="19.6" height="4.9"/>
	</g>
	<g>
		<line class="st2" x1="885" y1="882.8" x2="902.5" y2="882.8"/>
		<rect x="885" y="880.3" class="st1" width="17.5" height="4.9"/>
	</g>
	<g>
		<g>
			<line class="st2" x1="944.1" y1="880.9" x2="967.8" y2="894.5"/>
			
				<rect x="953.5" y="874" transform="matrix(0.4983 -0.867 0.867 0.4983 -290.0416 1274.2056)" class="st1" width="4.9" height="27.3"/>
		</g>
		<g>
			<line class="st2" x1="959.9" y1="880.9" x2="951.9" y2="894.5"/>
			
				<rect x="948" y="885.2" transform="matrix(0.5056 -0.8628 0.8628 0.5056 -293.2621 1263.6663)" class="st1" width="15.8" height="4.9"/>
		</g>
	</g>
	<g>
		<rect x="438" y="1096" class="st1" width="45.2" height="4.9"/>
	</g>
	<g>
		<rect x="508.2" y="1096" class="st1" width="45.2" height="4.9"/>
	</g>
	<g>
		<rect x="578.4" y="1096" class="st1" width="45.2" height="4.9"/>
	</g>
	<g>
		<rect x="648.6" y="1096" class="st1" width="45.2" height="4.9"/>
	</g>
	<g>
		<rect x="687.1" y="996.2" transform="matrix(0.866 -0.5 0.5 0.866 -433.117 485.6012)" class="st1" width="4.9" height="109.7"/>
	</g>
	<g>
		<rect x="736.3" y="996.2" transform="matrix(0.866 -0.5 0.5 0.866 -426.5303 510.1828)" class="st1" width="4.9" height="109.7"/>
	</g>
	<g>
		<rect x="810.8" y="998.1" transform="matrix(0.866 -0.5 0.5 0.866 -410.1243 545.7232)" class="st1" width="4.9" height="80"/>
	</g>
	<g>
		<rect x="687.3" y="1044.7" class="st1" width="49.2" height="4.9"/>
	</g>
	<g>
		<rect x="784.2" y="1043.1" transform="matrix(0.866 -0.5 0.5 0.866 -431.02 537.0505)" class="st1" width="4.9" height="59.3"/>
	</g>
	<g>
		<polygon class="st1" points="932.9,1097.5 905.2,1049.6 892.8,1049.6 892.8,1044.7 908.1,1044.7 937.2,1095.1 		"/>
	</g>
	<g>
		
			<rect x="760.7" y="1024.8" transform="matrix(0.866 -0.5001 0.5001 0.866 -413.8902 519.967)" class="st1" width="4.9" height="14.8"/>
	</g>
	<g>
		
			<rect x="841.9" y="1084.7" transform="matrix(0.866 -0.5001 0.5001 0.866 -432.95 568.6031)" class="st1" width="4.9" height="14.8"/>
	</g>
	<g>
		<rect x="836" y="998.1" transform="matrix(0.866 -0.5 0.5 0.866 -406.7465 558.329)" class="st1" width="4.9" height="80"/>
	</g>
	<g>
		
			<rect x="867.1" y="1084.7" transform="matrix(0.866 -0.5001 0.5001 0.866 -429.5714 581.2104)" class="st1" width="4.9" height="14.8"/>
	</g>
	<g>
		<rect x="863.1" y="998.1" transform="matrix(0.866 -0.5 0.5 0.866 -403.1154 571.8801)" class="st1" width="4.9" height="80"/>
	</g>
	<g>
		
			<rect x="894.2" y="1084.7" transform="matrix(0.866 -0.5001 0.5001 0.866 -425.9393 594.7632)" class="st1" width="4.9" height="14.8"/>
	</g>
	<g>
		<polygon class="st1" points="984.2,1098.8 954.4,1098.8 938,1070.3 966.4,1070.3 954.4,1049.6 927.5,1049.6 927.5,1044.7 
			957.3,1044.7 974.9,1075.3 946.6,1075.3 957.3,1093.8 984.2,1093.8 		"/>
	</g>
	<g>
		<polygon class="st1" points="1022.2,1075.3 989.6,1075.3 989.6,1070.3 1013.7,1070.3 1001.7,1049.6 974.7,1049.6 974.7,1044.7 
			1004.5,1044.7 		"/>
	</g>
	<g>
		<polygon class="st1" points="1035.8,1098.8 1003.1,1098.8 1003.1,1093.8 1027.2,1093.8 1015.8,1074 1020.1,1071.6 		"/>
	</g>
	<g>
		<rect x="793" y="1096" class="st1" width="16.9" height="4.9"/>
	</g>
	<g>
		<rect x="926.6" y="1093.8" class="st1" width="16.9" height="4.9"/>
	</g>
	<g>
		<rect x="764.3" y="1046.2" class="st1" width="16.9" height="4.9"/>
	</g>
	<g>
		<rect x="757.7" y="1096" class="st1" width="16.9" height="4.9"/>
	</g>
	<g>
		<rect x="708.6" y="1096" class="st1" width="16.9" height="4.9"/>
	</g>
	<g>
		<rect x="702.9" y="1001" class="st1" width="16.9" height="4.9"/>
	</g>
	<g>
		<rect x="653.7" y="1001" class="st1" width="16.9" height="4.9"/>
	</g>
</g>
<g id="Window_3">
	<g>
		<polygon class="st1" points="1637.3,1577.4 1100.9,1577.4 867,1172.4 1403.5,1172.4 		"/>
		<path class="st0" d="M1641.6,1579.9h-542.2l-0.7-1.2L862.8,1170h542.2l0.7,1.2L1641.6,1579.9z M1102.3,1574.9H1633l-231-400H871.3
			L1102.3,1574.9z"/>
	</g>
	<polygon class="st7" points="1266.3,1373.2 1013.3,1373.2 958.1,1277.6 1211.1,1277.6 	"/>
	<polygon class="st0" points="1449.6,1252.3 913.2,1252.3 867,1172.4 1403.5,1172.4 	"/>
	<g>
		<path class="st1" d="M1293.4,1232.8h-47.5l-23.6-40.9h47.5L1293.4,1232.8z M1248.8,1227.9h36.1l-17.9-31h-36.1L1248.8,1227.9z"/>
	</g>
	<g>
		<path class="st1" d="M1352.8,1232.8h-47.5l-23.6-40.9h47.5L1352.8,1232.8z M1308.1,1227.9h36.1l-17.9-31h-36.1L1308.1,1227.9z"/>
	</g>
	<g>
		<path class="st1" d="M1334.6,1222.4h-23.2l-11.5-20h23.2L1334.6,1222.4z M1314.2,1217.5h11.8l-5.9-10.1h-11.8L1314.2,1217.5z"/>
	</g>
	<g>
		<path class="st1" d="M1412.1,1232.8h-47.5L1341,1192h47.5L1412.1,1232.8z M1367.4,1227.9h36.1l-17.9-31h-36.1L1367.4,1227.9z"/>
	</g>
	<g>
		<rect x="1252.6" y="1217.7" class="st1" width="19.6" height="4.9"/>
	</g>
	<g>
		<line class="st2" x1="1305.6" y1="1207.5" x2="1323.1" y2="1207.5"/>
		<rect x="1305.6" y="1205" class="st1" width="17.5" height="4.9"/>
	</g>
	<g>
		<g>
			<line class="st2" x1="1364.7" y1="1205.6" x2="1388.4" y2="1219.2"/>
			
				<rect x="1374.1" y="1198.7" transform="matrix(0.4981 -0.8671 0.8671 0.4981 -360.4216 1802.0569)" class="st1" width="4.9" height="27.3"/>
		</g>
		<g>
			<line class="st2" x1="1380.5" y1="1205.6" x2="1372.5" y2="1219.2"/>
			
				<rect x="1368.6" y="1209.9" transform="matrix(0.5056 -0.8628 0.8628 0.5056 -365.4289 1787.0963)" class="st1" width="15.8" height="4.9"/>
		</g>
	</g>
	<g>
		<path d="M1051.6,1356.6h-17.7c-3.1,0-6.3-0.8-9.4-2.4l-11.5-6c-3.6-1.8-6.3-4.3-8.2-7.5l-5.4-9.3c-1.9-3-2-5.7-0.2-7.9l4.1-5.4
			c1.4-1.6,3.4-2.5,6.1-2.5h18.6c1.2,0,2.3,0.3,3.5,1c1.2,0.7,2.1,1.5,2.7,2.5c0.6,1,0.7,1.9,0.3,2.5c-0.4,0.7-1.2,1-2.3,1h-17.8
			c-1.1,0-2,0.4-2.5,1.1l-3.8,4.9c-0.6,0.8-0.6,1.9,0.2,3.2l5,8.7c0.5,0.9,1.4,1.7,2.7,2.4l10.4,5.4c1.3,0.7,2.8,1.1,4.3,1.1h17
			c1.1,0,2.3,0.3,3.5,1c1.2,0.7,2.1,1.5,2.7,2.5s0.7,1.8,0.2,2.5C1053.6,1356.2,1052.8,1356.6,1051.6,1356.6z"/>
		<path d="M1108.4,1356.5h-25.3c-1.2,0-2.3-0.3-3.5-1c-1.2-0.7-2.1-1.5-2.7-2.5c-0.6-1-0.6-1.8-0.2-2.5c0.4-0.7,1.2-1.1,2.3-1.1h8.5
			l-15.4-26.6h-8.4c-1.2,0-2.3-0.4-3.6-1.1c-1.2-0.7-2.1-1.5-2.7-2.5c-0.6-1-0.7-1.8-0.3-2.6c0.4-0.7,1.2-1.1,2.3-1.1h12.6
			c1.2,0,2.3,0.4,3.6,1.1c1.2,0.7,2.1,1.6,2.7,2.6l17.4,30.2h8.3c1.2,0,2.3,0.3,3.6,1c1.2,0.7,2.1,1.5,2.7,2.5
			c0.6,1,0.6,1.8,0.2,2.5C1110.3,1356.1,1109.5,1356.5,1108.4,1356.5z M1057.2,1297h4.3c1.2,0,2.3,0.3,3.5,1
			c1.2,0.7,2.1,1.5,2.7,2.5l1.8,3.1c0.6,1,0.7,1.8,0.3,2.6c-0.4,0.7-1.2,1.1-2.3,1.1h-4.4c-1.2,0-2.4-0.4-3.6-1.1
			c-1.2-0.7-2.1-1.6-2.6-2.5l-1.7-3.1c-0.6-1-0.7-1.8-0.2-2.5C1055.3,1297.4,1056,1297,1057.2,1297z"/>
		<path d="M1133.6,1330.9h16.3c0.9,0,2.3,0.2,4.2,0.5l-3-5.1c-0.6-1-1.5-1.8-2.7-2.5s-2.4-1-3.5-1H1129c-1.1,0-2.3-0.4-3.5-1.1
			c-1.2-0.7-2.1-1.5-2.7-2.5c-0.6-1-0.7-1.8-0.2-2.5c0.4-0.7,1.2-1,2.3-1h15.8c3.4,0,6.9,1,10.6,3.1c3.6,2.1,6.3,4.6,8.2,7.6
			l16.5,26.7c0.6,1,0.6,1.8,0.2,2.5c-0.4,0.7-1.2,1-2.3,1c-1.2,0-2.4-0.3-3.6-1c-1.2-0.7-2.1-1.5-2.7-2.5l-5,3.6h-14
			c-3.5,0-7.1-1-10.7-3.1c-3.6-2.1-6.3-4.6-8.1-7.6l-2.4-4.2c-1.7-3-2-5.5-0.7-7.6C1127.8,1331.9,1130.1,1330.9,1133.6,1330.9z
			 M1162.3,1344.7l-2-3c-0.6-1-1.5-1.9-2.7-2.5c-1.2-0.7-2.4-1-3.5-1h-16.4c-1.2,0-1.9,0.3-2.3,1c-0.4,0.7-0.3,1.5,0.2,2.5l2.3,4
			c0.6,1,1.4,1.8,2.7,2.5c1.2,0.7,2.4,1.1,3.5,1.1h11.7L1162.3,1344.7z"/>
		<path d="M1222.7,1328.5l8.7,15.1c1.8,3.2,1.8,6.2-0.1,8.9c-1.9,2.7-4.8,4.1-8.5,4.1h-9.7c-3.8,0-8.2-1.4-13.3-4.1
			c-5-2.8-8.5-5.7-10.3-8.8l-8.7-15.1c-1.8-3.1-1.8-6,0-8.8c1.8-2.8,4.6-4.1,8.6-4.1h9.7c3.7-0.1,8.1,1.3,13.1,4
			C1217.3,1322.2,1220.8,1325.2,1222.7,1328.5z M1189.4,1328.8l8.3,14.4c0.8,1.3,1.9,2.3,3.4,3.1l4.4,2.3c1,0.5,2.1,0.8,3.4,0.8h9.6
			c1.4,0,2.4-0.4,3.1-1.3l1.4-1.9c0.6-0.7,0.6-1.6-0.1-2.8l-8.3-14.4c-0.8-1.4-1.9-2.5-3.3-3.1l-4.1-2c-1.4-0.7-2.8-1.1-4.1-1.1
			h-8.6c-1.9,0-3.1,0.4-3.7,1.1l-1.6,2.1C1188.7,1326.6,1188.7,1327.6,1189.4,1328.8z"/>
	</g>
	<rect x="1011.7" y="1354.1" class="st8" width="299.5" height="4.9"/>
</g>
<g id="Objects">
	
		<rect x="523.7" y="694.6" transform="matrix(0.7071 -0.7071 0.7071 0.7071 -337.3296 584.5808)" class="st8" width="26.5" height="9.9"/>
	
		<rect x="1508.2" y="1483.2" transform="matrix(0.7071 -0.7071 0.7071 0.7071 -617.4125 1509.399)" class="st8" width="9.9" height="33.4"/>
	
		<rect x="1508.2" y="769.2" transform="matrix(0.7071 -0.7071 0.7071 0.7071 -112.5431 1300.0726)" class="st8" width="9.9" height="33.4"/>
	<rect x="1851.2" y="1309.8" class="st8" width="9.9" height="31.1"/>
	<rect x="1569.3" y="1090.3" class="st8" width="28" height="9.9"/>
	<rect x="1785.4" y="796.2" class="st8" width="9.9" height="22.1"/>
	<rect x="798.5" y="1310.7" class="st8" width="25" height="9.9"/>
	<rect x="946.1" y="1421.8" class="st8" width="9.9" height="24.7"/>
	
		<rect x="482" y="1189.5" transform="matrix(0.7071 -0.7071 0.7071 0.7071 -700.0865 698.6825)" class="st8" width="22.6" height="9.9"/>
	<rect x="262.4" y="976.7" class="st8" width="23" height="9.9"/>
	<rect x="786.6" y="433.4" class="st8" width="9.9" height="24.7"/>
	<rect x="2145.1" y="1028.9" class="st8" width="9.9" height="21.4"/>
	<rect x="1365.9" y="485.8" class="st8" width="21.2" height="9.9"/>
	<rect x="443.2" y="1472" class="st8" width="9.9" height="27.9"/>
	
		<rect x="2094.1" y="1507.7" transform="matrix(0.7071 -0.7071 0.7071 0.7071 -461.0995 1929.861)" class="st8" width="9.9" height="27.7"/>
	<rect x="218.9" y="665.8" class="st8" width="35.9" height="9.9"/>
	<path class="st8" d="M330.3,733.2h-45v-45h45V733.2z M295.2,723.3h25.2v-25.2h-25.2V723.3z"/>
	<path class="st8" d="M1593.6,450.7h-71.9v-71.9h71.9V450.7z M1531.5,440.8h52.2v-52.2h-52.2V440.8z"/>
	<path class="st8" d="M1635.8,495.7h-22.9v-22.9h22.9V495.7z M1622.7,485.8h3.2v-3.2h-3.2V485.8z"/>
	<path class="st8" d="M2281.1,1135.7h-38.4v-38.4h38.4V1135.7z M2252.5,1125.9h18.7v-18.7h-18.7V1125.9z"/>
	<path class="st8" d="M1622.7,1336.2h-41.3V1295h41.3V1336.2z M1591.3,1326.4h21.5v-21.5h-21.5V1326.4z"/>
	<path class="st8" d="M617.1,1379.9h-61.9v-61.9h61.9V1379.9z M565,1370h42.2v-42.2H565V1370z"/>
	<path class="st8" d="M1940.4,656h-32.8v-32.8h32.8V656z M1917.5,646.1h13v-13h-13V646.1z"/>
</g>
</svg>
