<?xml version="1.0" encoding="utf-8"?>
<!-- Generator: Adobe Illustrator 21.0.2, SVG Export Plug-In . SVG Version: 6.00 Build 0)  -->
<svg version="1.1" id="Слой_1" xmlns="http://www.w3.org/2000/svg" xmlns:xlink="http://www.w3.org/1999/xlink" x="0px" y="0px"
	 viewBox="0 0 2500 2000" style="enable-background:new 0 0 2500 2000;" xml:space="preserve">
<style type="text/css">
	.st0{fill:#ED00FF;}
	.st1{fill:#FFFF01;}
	.st2{fill:#AB00FF;}
	.st3{fill:#FFFFFF;}
	.st4{fill:#ECA0FF;}
	.st5{fill:#DFFF49;}
	.st6{fill:#54A149;}
	.st7{opacity:0.3;fill:#F2D900;}
	.st8{fill:#66FF33;}
	.st9{fill:#583BFF;}
	.st10{fill:#F98500;}
	.st11{fill:#45E033;}
</style>
<g>
	<rect x="556.4" y="558.9" class="st0" width="37.7" height="37.7"/>
	<rect x="556.4" y="709.5" class="st0" width="37.7" height="37.7"/>
	<rect x="556.4" y="634.2" class="st0" width="37.7" height="37.7"/>
	<rect x="481.1" y="634.2" class="st0" width="37.7" height="37.7"/>
	<rect x="631.7" y="634.2" class="st0" width="37.7" height="37.7"/>
	<rect x="877.4" y="182.9" class="st1" width="37.7" height="37.7"/>
	<rect x="802.1" y="258.2" class="st1" width="37.7" height="37.7"/>
	<rect x="802.1" y="333.5" class="st1" width="37.7" height="37.7"/>
	<rect x="802.1" y="408.8" class="st1" width="37.7" height="37.7"/>
	<rect x="802.1" y="295.8" class="st1" width="37.7" height="37.7"/>
	<rect x="764.5" y="295.8" class="st1" width="37.7" height="37.7"/>
	<rect x="839.8" y="295.8" class="st1" width="37.7" height="37.7"/>
	<rect x="1710.3" y="725.7" class="st1" width="37.7" height="37.7"/>
	<rect x="1710.3" y="801" class="st1" width="37.7" height="37.7"/>
	<rect x="1710.3" y="763.4" class="st1" width="37.7" height="37.7"/>
	<rect x="1672.7" y="763.4" class="st1" width="37.7" height="37.7"/>
	<rect x="1748" y="763.4" class="st1" width="37.7" height="37.7"/>
</g>
<g id="Tamagotchi">
	<path class="st2" d="M1528.1,1590.9c-45.1,81.1-141.9,143.1-268.6,115.9c-6.3-1.4-12.8-2.9-19.2-4.8
		c-193.4-54.1-238.1-209.2-219.7-294.5c0,0,358.1-37,488.5,20.1c26.2,11.4,43.2,26.7,46.2,46.8c0.2,1.3,0.4,2.7,0.5,4.1
		C1557.9,1515.7,1548,1555.2,1528.1,1590.9z"/>
	<path class="st0" d="M1480.8,1375.9c98,56.6,97.4,148.6-1.3,205.6c-98.7,57-258.1,57.3-356.1,0.7c-39.9-23.1-73.1-76.5-98.5-131.7
		c-36.4-79.3,90.2-152.5,227.7-131.4C1348.3,1333.6,1440.9,1352.8,1480.8,1375.9z"/>
	<path class="st3" d="M1298.6,1616.1c-60.2,0-120.3-13.2-166-39.6c-32.5-18.8-63.7-60.4-92.8-123.9c-10.6-23-7.6-46.5,8.6-67.9
		c35.3-46.8,122.1-71.5,206.3-58.6c109.2,16.7,181,34.6,213.2,53.2c44.8,25.9,69.5,60.5,69.5,97.6c0,37.4-25.1,72.5-70.7,98.9
		C1420.4,1602.7,1359.4,1616.1,1298.6,1616.1z M1208.8,1328.7c-72.7,0-131.1,27.4-155.4,59.7c-14.7,19.6-17.5,40.9-7.9,61.7
		c28.6,62.3,58.9,103,90.3,121.1c90.1,52,237.3,51.7,328.1-0.7c43.6-25.2,67.7-58.4,67.7-93.6c0-34.8-23.6-67.6-66.5-92.3l0,0
		c-31.6-18.2-102.6-35.9-211.1-52.5C1238.4,1329.8,1223.3,1328.7,1208.8,1328.7z"/>
	<path class="st4" d="M1453.7,1482.2l-146.1,84.3c-17.5,10.1-48.2,8.9-68.4-2.8l-134.7-77.8c-20.3-11.7-22.5-29.4-4.9-39.5
		l146.1-84.3c17.5-10.1,48.2-8.9,68.4,2.8l134.7,77.8C1469,1454.3,1471.2,1472,1453.7,1482.2z"/>
	
		<rect x="1067.8" y="1392.7" transform="matrix(0.8658 -0.5003 0.5003 0.8658 -546.8135 752.4509)" class="st3" width="123.6" height="6.1"/>
	<path d="M1420.1,1463.1l-5.9,3.4l-139.7,80.7c-5.1,3-14,2.6-19.9-0.8l-115.7-66.9l-4.5-2.6c-5.8-3.3-6.5-8.5-1.4-11.5l145.7-84.1
		c5.1-3,14-2.6,19.9,0.8l120.1,69.4C1424.6,1455,1425.2,1460.1,1420.1,1463.1z"/>
	<path class="st5" d="M1414.2,1466.5l-139.7,80.7c-5.1,3-14,2.6-19.9-0.8l-115.7-66.9l139.8-80.7c5.1-3,14-2.6,19.9,0.8
		L1414.2,1466.5z"/>
	<path class="st3" d="M1361.1,1564.1c5.8,3.3,5.8,8.8-0.1,12.1s-15.2,3.4-21,0c-5.8-3.3-5.8-8.8,0.1-12.1
		S1355.3,1560.8,1361.1,1564.1z"/>
	<path class="st3" d="M1414.3,1533.4c5.8,3.3,5.8,8.8-0.1,12.1s-15.2,3.4-21,0c-5.8-3.3-5.8-8.8,0.1-12.1
		C1399.1,1530.1,1408.5,1530.1,1414.3,1533.4z"/>
	<path class="st3" d="M1467.5,1502.7c5.8,3.3,5.8,8.8-0.1,12.1s-15.2,3.4-21,0c-5.8-3.3-5.8-8.8,0.1-12.1
		S1461.8,1499.4,1467.5,1502.7z"/>
	<polygon class="st6" points="1227.4,1487.7 1215.7,1494.4 1204.1,1487.7 1215.8,1481 	"/>
	<polygon class="st6" points="1182,1474.8 1170.3,1481.5 1158.7,1474.8 1170.4,1468.1 	"/>
	<polygon class="st6" points="1226.8,1513.9 1215.1,1520.7 1203.6,1514 1215.2,1507.2 	"/>
	<polygon class="st6" points="1227.3,1500.7 1215.6,1507.4 1204,1500.8 1215.7,1494 	"/>
	<polygon class="st6" points="1250.1,1513.9 1238.4,1520.6 1226.8,1513.9 1238.5,1507.2 	"/>
	<polygon class="st6" points="1249.1,1487.6 1237.5,1494.4 1225.9,1487.7 1237.6,1481 	"/>
	<polygon class="st6" points="1272.4,1487.6 1260.7,1494.3 1249.1,1487.6 1260.8,1480.9 	"/>
	<polygon class="st6" points="1295.7,1487.6 1284,1494.3 1272.4,1487.6 1284.1,1480.9 	"/>
	<polygon class="st6" points="1295.8,1475 1284.1,1481.7 1272.5,1475 1284.2,1468.3 	"/>
	<polygon class="st6" points="1318.3,1474.9 1306.6,1481.7 1295.1,1475 1306.7,1468.2 	"/>
	<polygon class="st6" points="1341.6,1474.9 1329.9,1481.6 1318.3,1474.9 1330,1468.2 	"/>
	<polygon class="st6" points="1364.5,1488.1 1352.8,1494.8 1341.2,1488.1 1352.9,1481.4 	"/>
	<polygon class="st6" points="1364.7,1474.8 1353.1,1481.6 1341.5,1474.9 1353.1,1468.1 	"/>
	<polygon class="st6" points="1364.9,1447.7 1353.2,1454.4 1341.6,1447.7 1353.3,1441 	"/>
	<polygon class="st6" points="1388.5,1447.6 1376.8,1454.4 1365.2,1447.7 1376.9,1441 	"/>
	<polygon class="st6" points="1341.7,1461.2 1330,1468 1318.4,1461.3 1330.1,1454.5 	"/>
	<polygon class="st6" points="1341.2,1488.1 1329.5,1494.9 1317.9,1488.2 1329.6,1481.4 	"/>
	<polygon class="st6" points="1284.7,1520.8 1273,1527.5 1261.4,1520.8 1273.1,1514.1 	"/>
	<polygon class="st6" points="1284.4,1441.7 1272.8,1448.4 1261.2,1441.7 1272.9,1435 	"/>
</g>
<polygon id="Light" class="st7" points="1607.6,1030.5 1423.4,1459.3 1138.9,1479.5 481.1,1030.5 "/>
<g id="Dinosaur">
	<polygon class="st8" points="1532.8,389.4 1532.8,314.6 1457.5,314.6 1457.5,314.6 1382.2,314.6 1382.2,314.6 1308.5,314.6 
		1308.5,389.4 1046.9,389.4 1046.9,841.2 896.3,841.2 896.3,910.4 745.7,910.4 745.7,955.2 556.4,955.2 556.4,1030.5 745.7,1030.5 
		896.3,1030.5 1046.9,1030.5 1418.3,1030.5 1512.9,1030.5 1607.6,1030.5 1607.6,955.2 1512.9,955.2 1512.9,706.9 1607.6,706.9 
		1607.6,631.6 1512.9,631.6 1512.9,540 1607.6,540 1607.6,464.7 1607.6,389.4 	"/>
	<polygon class="st9" points="1503.8,338.5 1503.8,413.8 1428.5,413.8 1428.5,389.9 1457.5,389.9 1457.5,338.5 	"/>
	<rect x="1046.9" y="389.4" class="st10" width="75.3" height="75.3"/>
	<rect x="1121.9" y="314.4" class="st10" width="75.3" height="75.3"/>
	<rect x="1232.6" y="314.4" class="st10" width="75.3" height="75.3"/>
	<rect x="971.6" y="464.7" class="st10" width="75.3" height="75.3"/>
	<rect x="971.6" y="615.3" class="st10" width="75.3" height="75.3"/>
	<rect x="971.6" y="765.9" class="st10" width="75.3" height="75.3"/>
	<polygon class="st11" points="1437.6,706.9 1362.3,706.9 1362.3,631.6 1287,631.6 1287,706.9 1287,782.2 1362.3,782.2 
		1437.6,782.2 1512.9,782.2 1512.9,706.9 	"/>
	<rect x="1287" y="955.2" class="st11" width="75.3" height="75.3"/>
	<rect x="1211.7" y="879.9" class="st11" width="75.3" height="75.3"/>
	<rect x="821" y="841.2" class="st10" width="75.3" height="69.2"/>
	<rect x="670.3" y="879.9" class="st10" width="75.3" height="75.3"/>
	<rect x="481.1" y="955.2" class="st10" width="75.3" height="75.3"/>
</g>
</svg>
