<?xml version="1.0" encoding="utf-8"?>
<!-- Generator: Adobe Illustrator 21.0.2, SVG Export Plug-In . SVG Version: 6.00 Build 0)  -->
<svg version="1.1" id="Слой_1" xmlns="http://www.w3.org/2000/svg" xmlns:xlink="http://www.w3.org/1999/xlink" x="0px" y="0px"
	 viewBox="0 0 2500 2000" style="enable-background:new 0 0 2500 2000;" xml:space="preserve">
<style type="text/css">
	.st0{fill:#E9EEFF;}
	.st1{fill:#E0E57C;}
	.st2{fill:#82805A;}
	.st3{fill:#9B9978;}
	.st4{fill:#F4FF95;}
	.st5{fill:#3A3938;}
	.st6{fill:#222222;}
	.st7{fill:#585756;}
	.st8{fill:#32312E;}
	.st9{fill:#D1D1D1;}
	.st10{fill:#C1BDB4;}
	.st11{fill:#FFFFFF;}
	.st12{fill:#7C7C7C;}
	.st13{fill:#4A494D;}
	.st14{fill:#4C5B72;}
	.st15{fill:#F6FFE9;}
	.st16{fill:#6B6356;}
	.st17{fill:#676155;}
	.st18{fill:#DDDBD7;}
	.st19{fill:#D1D184;}
	.st20{fill:#BAB874;}
	.st21{fill:#FBFFA6;}
	.st22{fill:#FF5548;}
</style>
<g id="Grid">
	<g>
		<rect x="479.5" y="504.7" class="st0" width="1500.4" height="3.9"/>
	</g>
	<g>
		<rect x="479.5" y="329.3" class="st0" width="1500.4" height="3.9"/>
	</g>
	<g>
		<rect x="479.5" y="679.7" class="st0" width="1500.4" height="3.9"/>
	</g>
	<g>
		<rect x="479.5" y="854.7" class="st0" width="1500.4" height="3.9"/>
	</g>
	<g>
		<rect x="479.5" y="1029.8" class="st0" width="1500.4" height="3.9"/>
	</g>
	<g>
		<rect x="479.5" y="1204.8" class="st0" width="1500.4" height="3.9"/>
	</g>
	<g>
		<rect x="479.5" y="1379.8" class="st0" width="1500.4" height="3.9"/>
	</g>
	<g>
		<rect x="479.5" y="1554.8" class="st0" width="1500.4" height="3.9"/>
	</g>
	<g>
		<rect x="1840.3" y="194" class="st0" width="3.9" height="1500.4"/>
	</g>
	<g>
		<rect x="1665.3" y="194" class="st0" width="3.9" height="1500.4"/>
	</g>
	<g>
		<rect x="1490.3" y="194" class="st0" width="3.9" height="1500.4"/>
	</g>
	<g>
		<rect x="1315.3" y="194" class="st0" width="3.9" height="1500.4"/>
	</g>
	<g>
		<rect x="1140.2" y="194" class="st0" width="3.9" height="1500.4"/>
	</g>
	<g>
		<rect x="965.2" y="194" class="st0" width="3.9" height="1500.4"/>
	</g>
	<g>
		<rect x="790.2" y="194" class="st0" width="3.9" height="1500.4"/>
	</g>
	<g>
		<rect x="615.2" y="194" class="st0" width="3.9" height="1500.4"/>
	</g>
</g>
<g id="Box_back">
	<polygon class="st1" points="488.3,744.1 488.3,764.2 696.7,884.5 696.7,864.4 	"/>
	<polygon class="st2" points="1791,954.7 1165.7,593.7 696.7,864.4 1322,1225.5 	"/>
	<polygon class="st3" points="1165.7,593.7 1165.7,894.5 1791,1255.6 1791,954.7 	"/>
	<polygon class="st4" points="1791,954.7 1773.6,964.8 1172.2,617.5 1191.7,608.7 	"/>
	<polygon class="st4" points="488.3,744.1 696.7,864.4 1165.7,593.7 957.2,473.3 	"/>
</g>
<g id="Casette_2">
	<g>
		<polygon class="st5" points="1243.7,441.6 1243.7,964.1 995.8,1107.2 995.8,584.7 		"/>
		<g>
			<path class="st6" d="M1243.7,439.4l-3.8,2.2L995.8,582.5l-0.9,0.5l-1,0.6v524.7l1.9,1.1l1.9-1.1l246.9-142.6l1-0.6V440.5
				L1243.7,439.4z M1241.7,963l-244,140.9v-518l244-140.9V963z"/>
		</g>
	</g>
	<g>
		<polygon class="st7" points="1022.9,569.1 1022.9,1091.6 995.8,1107.2 995.8,584.7 		"/>
		<g>
			<path class="st8" d="M993.9,1110.6v-527l30.9-17.9v527L993.9,1110.6z M997.7,585.8v518.1l23.2-13.4V572.4L997.7,585.8z"/>
		</g>
	</g>
	<g>
		<path class="st9" d="M1135.4,514.3c33.7-19.4,61-7.2,61-7.2v446.2c0,0-27.3,43.8-61,63.2c-33.7,19.5-61,7.2-61,7.2V577.5
			C1074.4,577.5,1101.7,533.8,1135.4,514.3z"/>
		<path class="st8" d="M1096.2,1029.5c-13.3,0-21.9-3.7-22.6-4l-1.1-0.5V577l0.3-0.5c1.1-1.8,28-44.4,61.7-63.9l0,0
			c34.1-19.7,61.6-7.8,62.8-7.3l1.1,0.5v448l-0.3,0.5c-1.1,1.8-28,44.4-61.7,63.9C1121,1027,1107,1029.5,1096.2,1029.5z
			 M1076.3,1022.4c5.4,1.9,29.5,8.9,58.1-7.6c31-17.9,57-57.4,60.1-62.1V508.4c-5.4-1.9-29.6-8.9-58.1,7.6l0,0
			c-31.1,17.9-57,57.4-60.1,62.1V1022.4z"/>
	</g>
	<g>
		<path class="st7" d="M1135.4,813.2c25.9-15,48.6-12.2,61,4.5v83.5c-12.4,30.9-35.1,60-61,74.9c-25.9,15-48.6,12.1-61-4.5v-83.5
			C1086.8,857.2,1109.4,828.1,1135.4,813.2z"/>
		<g>
			<path class="st8" d="M1103.5,987.7c-12.5,0-23.2-5-30.6-14.9l-0.4-0.5l0.1-84.9c13.1-32.7,36.2-61.1,61.8-75.9l0,0
				c25.8-14.9,50.1-13,63.5,5l0.4,0.5l-0.1,84.8c-13.1,32.8-36.3,61.1-61.8,75.9C1124.8,984.4,1113.6,987.7,1103.5,987.7z
				 M1076.3,971c12.4,16,34.1,17.3,58.1,3.4c24.4-14.1,47.4-42.3,60.1-73.7v-82.5c-12.4-16.1-34.1-17.4-58.1-3.5l0,0
				c-24.4,14.1-47.4,42.3-60.1,73.6V971z"/>
		</g>
	</g>
	<g>
		<path class="st9" d="M1135.4,859.7c16.8-9.7,30.5-2,30.5,17.3s-13.6,42.8-30.5,52.5c-16.8,9.7-30.5,2-30.5-17.3
			S1118.6,869.4,1135.4,859.7z"/>
		<path class="st8" d="M1121.7,935.7c-3.2,0-6.2-0.8-8.9-2.3c-6.3-3.7-9.8-11.2-9.8-21.2c0-19.9,14.1-44.2,31.4-54.2l0,0
			c8.8-5.1,17.2-5.9,23.6-2.2c6.3,3.7,9.8,11.2,9.8,21.2c0,19.9-14.1,44.2-31.4,54.2C1131.2,934.2,1126.2,935.7,1121.7,935.7z
			 M1136.3,861.3c-16.3,9.4-29.5,32.2-29.5,50.9c0,8.6,2.8,14.9,7.9,17.8c5.1,3,12.1,2.2,19.7-2.2c16.3-9.4,29.5-32.2,29.5-50.9
			c0-8.6-2.8-14.9-7.9-17.8C1150.9,856.2,1143.9,857,1136.3,861.3L1136.3,861.3z"/>
	</g>
	<path class="st10" d="M1135.4,876.7c8.6-5,15.7-1,15.7,8.9s-7,22-15.7,27c-8.6,5-15.7,1-15.7-8.9
		C1119.7,893.7,1126.7,881.7,1135.4,876.7z"/>
	<g>
		<path class="st7" d="M1135.4,556.1c25.9-15,48.6-12.2,61,4.5v83.5c-12.4,30.9-35.1,60-61,74.9c-25.9,15-48.6,12.1-61-4.5v-83.5
			C1086.8,600.1,1109.4,571.1,1135.4,556.1z"/>
		<g>
			<path class="st8" d="M1103.5,730.7c-12.5,0-23.2-5-30.6-14.9l-0.4-0.5l0.1-84.9c13.1-32.7,36.2-61.1,61.8-75.9
				c25.8-14.9,50.1-13,63.5,5l0.4,0.5l-0.1,84.8c-13.1,32.8-36.3,61.1-61.8,75.9C1124.8,727.4,1113.6,730.7,1103.5,730.7z
				 M1076.3,713.9c12.4,16,34.1,17.3,58.1,3.4c24.4-14.1,47.4-42.3,60.1-73.7v-82.5c-12.4-16.1-34.1-17.4-58.1-3.5l0,0
				c-24.4,14.1-47.4,42.3-60.1,73.6V713.9z"/>
		</g>
	</g>
	<g>
		<path class="st9" d="M1135.4,602.7c16.8-9.7,30.5-2,30.5,17.3s-13.6,42.8-30.5,52.5c-16.8,9.7-30.5,2-30.5-17.3
			S1118.6,612.4,1135.4,602.7z"/>
		<path class="st8" d="M1121.7,678.7c-3.2,0-6.2-0.8-8.9-2.3c-6.3-3.7-9.8-11.2-9.8-21.2c0-19.9,14.1-44.2,31.4-54.2
			c8.8-5.1,17.2-5.9,23.6-2.2c6.3,3.7,9.8,11.2,9.8,21.2c0,19.9-14.1,44.2-31.4,54.2C1131.2,677.2,1126.2,678.7,1121.7,678.7z
			 M1149.1,600.4c-3.8,0-8.2,1.3-12.7,3.9c-16.3,9.4-29.5,32.2-29.5,50.9c0,8.6,2.8,14.9,7.9,17.8c5.1,3,12.1,2.2,19.7-2.2
			c16.3-9.4,29.5-32.2,29.5-50.9c0-8.6-2.8-14.9-7.9-17.8C1154,601,1151.6,600.4,1149.1,600.4z"/>
	</g>
	<path class="st10" d="M1135.4,619.6c8.6-5,15.7-1,15.7,8.9c0,9.9-7,22-15.7,27c-8.6,5-15.7,1-15.7-8.9
		C1119.7,636.7,1126.7,624.6,1135.4,619.6z"/>
	<g>
		<polygon class="st11" points="1196.4,602.4 1196.4,858 1074.4,928.4 1074.4,672.8 		"/>
		<path class="st8" d="M1072.4,931.7v-260l1-0.6l124.9-72.1v260l-1,0.6L1072.4,931.7z M1076.3,673.9v251.1l118.2-68.2V605.7
			L1076.3,673.9z"/>
	</g>
	<g>
		<rect x="1097.6" y="658.3" class="st8" width="3.9" height="255.6"/>
	</g>
	<g>
		<rect x="1128.3" y="686.1" class="st7" width="3.9" height="164.4"/>
	</g>
	<g>
		<rect x="1147.9" y="674.8" class="st7" width="3.9" height="164.4"/>
	</g>
	<g>
		<rect x="1167.4" y="663.6" class="st7" width="3.9" height="164.4"/>
	</g>
	<g>
		<polygon class="st12" points="995.8,1107.2 931.4,1070 931.4,549.9 995.8,584.7 		"/>
		<g>
			<path class="st8" d="M995.8,582.5l-60.4-32.7l-4-2.1l-0.9,0.5l-1,0.5v522.4l64.4,37.2l1.9,1.1l1.9-1.1V583.6L995.8,582.5z
				 M993.9,1103.9l-60.6-35V553.1l21.7,11.7l38.9,21V1103.9z"/>
		</g>
	</g>
	<g>
		<polygon class="st9" points="931.4,549.9 1181,405.2 1243.7,441.6 995.8,584.7 		"/>
		<path class="st8" d="M1243.7,439.4L1181,403L931.3,547.7l-0.9,0.5l-1,0.5v2.3l3.9,2.1l21.7,11.7l38.9,21l2,1l1.9-1.1l244-140.9
			l3.9-2.2v-2.2L1243.7,439.4z M995.8,582.5l-60.4-32.7L1181,407.4l58.8,34.2L995.8,582.5z"/>
	</g>
</g>
<g id="Disc_2">
	<g>
		<polygon class="st13" points="1562,740.2 1538.8,1074.9 1220.9,1052.9 1242.2,746.5 1264.7,726.9 1316.1,730.5 1316.6,723.2 		"/>
		<g>
			<path class="st8" d="M1540.6,1077l-1.9-0.1l-319.8-22.2l0.1-1.9l21.3-307.1l23.8-20.7l50.3,3.5l0.5-7.3l249.3,17.3l-0.1,1.9
				L1540.6,1077z M1223,1051.1l314.1,21.8l23-330.9l-241.6-16.8l-0.5,7.3l-52.5-3.6l-21.4,18.6L1223,1051.1z"/>
		</g>
	</g>
	<g>
		<path class="st9" d="M1489.6,735.1l-172.9-12l-6.6,94.7c-0.4,5.9,2,11.4,6.1,15c2.9,2.6,6.7,4.3,10.9,4.6l136.2,9.5
			c5,0.3,9.7-1.4,13.3-4.4c3.6-3.1,6-7.6,6.3-12.6L1489.6,735.1z"/>
		<path class="st8" d="M1464.7,848.8c-0.5,0-1,0-1.4,0l-136.2-9.5c-5.4-0.4-10.4-2.8-13.9-6.9c-3.6-4.1-5.3-9.3-4.9-14.7l6.7-96.6
			l176.7,12.3l-6.7,96.6c-0.4,5.4-2.8,10.4-6.9,13.9C1474.2,847.1,1469.6,848.8,1464.7,848.8z M1318.4,725.1l-6.4,92.8
			c-0.3,4.4,1.1,8.6,4,11.9s6.9,5.3,11.3,5.6l136.2,9.5c4.4,0.3,8.6-1.1,11.9-4c3.3-2.9,5.3-6.9,5.6-11.3l6.4-92.8L1318.4,725.1z"/>
	</g>
	<g>
		
			<rect x="1316.1" y="762.5" transform="matrix(6.921687e-02 -0.9976 0.9976 6.921687e-02 482.977 2086.781)" class="st7" width="87.4" height="44.1"/>
		<g>
			<path class="st8" d="M1380.6,831.7l-47.9-3.3l6.3-91l47.9,3.3L1380.6,831.7z M1336.8,824.8l40.2,2.8l5.8-83.3l-40.2-2.8
				L1336.8,824.8z"/>
		</g>
	</g>
	<g>
		
			<ellipse transform="matrix(6.921687e-02 -0.9976 0.9976 6.921687e-02 380.0811 2239.4172)" class="st9" cx="1390.1" cy="916" rx="46.5" ry="46.5"/>
		<path class="st8" d="M1390.2,964.4c-1.1,0-2.3,0-3.4-0.1c-26.6-1.8-46.8-25-44.9-51.6c1.8-26.6,25-46.8,51.6-44.9
			c12.9,0.9,24.7,6.8,33.2,16.5c8.5,9.7,12.7,22.2,11.8,35.1l0,0c-0.9,12.9-6.8,24.7-16.5,33.2
			C1413,960.3,1401.9,964.4,1390.2,964.4z M1390.1,871.5c-23.2,0-42.8,18-44.4,41.5c-1.7,24.5,16.8,45.8,41.3,47.5
			c11.9,0.9,23.3-3,32.3-10.8c9-7.8,14.4-18.6,15.2-30.5l0,0c0.8-11.9-3-23.3-10.8-32.3c-7.8-9-18.6-14.4-30.5-15.2
			C1392.2,871.5,1391.1,871.5,1390.1,871.5z"/>
	</g>
	<g>
		
			<ellipse transform="matrix(6.921687e-02 -0.9976 0.9976 6.921687e-02 380.0811 2239.4172)" class="st7" cx="1390.1" cy="916" rx="12.4" ry="12.4"/>
		<g>
			<path class="st8" d="M1390.1,930.4c-0.3,0-0.7,0-1,0c-7.9-0.6-13.9-7.4-13.3-15.3c0.5-7.9,7.5-13.9,15.3-13.3
				c7.9,0.6,13.9,7.4,13.3,15.3C1403.9,924.6,1397.6,930.4,1390.1,930.4z M1390.1,905.5c-5.5,0-10.1,4.3-10.5,9.8
				c-0.4,5.8,4,10.8,9.8,11.2c5.8,0.4,10.8-4,11.2-9.8c0.4-5.8-4-10.8-9.8-11.2C1390.6,905.5,1390.4,905.5,1390.1,905.5z"/>
		</g>
	</g>
	<g>
		<path class="st8" d="M1494.9,1073.8l-230.2-16l3-42.7l230.2,16L1494.9,1073.8z M1268.7,1054.3l222.6,15.4l2.4-35l-222.6-15.4
			L1268.7,1054.3z"/>
	</g>
	
		<ellipse transform="matrix(6.921687e-02 -0.9976 0.9976 6.921687e-02 395.2112 1978.5789)" class="st8" cx="1257.9" cy="777.5" rx="8.6" ry="8.6"/>
	
		<ellipse transform="matrix(6.921687e-02 -0.9976 0.9976 6.921687e-02 638.022 2277.9282)" class="st8" cx="1539.7" cy="797.1" rx="8.6" ry="8.6"/>
	
		<rect x="1236.5" y="1018.9" transform="matrix(0.9976 6.921687e-02 -6.921687e-02 0.9976 73.9664 -83.5884)" class="st8" width="13.3" height="13.3"/>
	
		<rect x="1513.1" y="1038.1" transform="matrix(0.9976 6.921687e-02 -6.921687e-02 0.9976 75.9581 -102.6866)" class="st8" width="13.3" height="13.3"/>
	<g>
		
			<rect x="1356.5" y="925.2" transform="matrix(0.7544 -0.6565 0.6565 0.7544 -280.7751 1124.9893)" class="st7" width="12.6" height="25"/>
		<g>
			<path class="st8" d="M1366.1,953.9l-18.9-21.7l12.4-10.8l18.9,21.7L1366.1,953.9z M1352.6,932.6l13.9,15.9l6.6-5.7l-13.9-15.9
				L1352.6,932.6z"/>
		</g>
	</g>
</g>
<g id="Disc_1">
	<g>
		<polyline class="st8" points="1049.3,1080.1 1175.4,1336.9 1327.8,1109.6 1202.2,873.4 1194.4,873.4 1175.2,902 1167,904.6 
			1049.3,1080.1 		"/>
		<path class="st8" d="M1175.2,1340.7L1047.1,1080l0.6-0.9l118-176l8.2-2.6l19.4-28.9h10l126.7,238.2L1175.2,1340.7z M1051.5,1080.3
			l124.1,252.8l149.9-223.6L1201,875.4h-5.7l-19,28.3l-8.2,2.6L1051.5,1080.3z"/>
	</g>
	<g>
		<polygon class="st14" points="1202.2,873.4 1177.5,910.2 1174.8,904.6 1057.1,1080.1 1183.2,1336.9 1335.7,1109.6 1220.3,874.5 		
			"/>
		<path class="st8" d="M1183,1340.7L1054.9,1080l0.6-0.9l119.5-178.2l2.7,5.6l23.4-34.9l20.3,1.2l0.5,1l115.9,236l-0.6,0.9
			L1183,1340.7z M1059.4,1080.3l124.1,252.8l150-223.6l-114.4-233l-15.8-1l-25.9,38.6l-2.7-5.6L1059.4,1080.3z"/>
	</g>
	<g>
		<path class="st9" d="M1319,1134.4L1199.9,1312l-67.4-137.2c-5.2-10.5-4.8-25.9,0.9-34.3l98.6-147c5.7-8.4,14.4-6.7,19.6,3.8
			L1319,1134.4z"/>
		<path class="st8" d="M1199.7,1315.9l-68.8-140.2c-5.4-11.1-5-27.3,1-36.3l98.6-147.1c2.9-4.3,6.7-6.5,10.7-6.2
			c4.7,0.3,9.2,4,12.2,10.2l67.8,138.2l-0.6,0.9L1199.7,1315.9z M1240.5,990.1c-2.5,0-4.9,1.6-6.8,4.5l-98.6,147.1
			c-5.3,7.9-5.6,22.4-0.7,32.4l65.9,134.2l116.6-173.9l-66.9-136.2c-2.4-4.9-5.7-7.8-9-8.1C1240.8,990.1,1240.6,990.1,1240.5,990.1z
			"/>
	</g>
	<path class="st8" d="M1091.9,1028.2l82.9-123.6l33.2,67.7c5.2,10.5,4.8,25.9-0.9,34.3l-62.4,93.1c-5.7,8.4-14.4,6.7-19.6-3.8
		L1091.9,1028.2z"/>
	<g>
		<path class="st15" d="M1178.4,1315.4l-7.7-15.8l9.8-14.7l7.7,15.8L1178.4,1315.4z M1175.1,1299.9l3.8,7.8l4.9-7.3l-3.8-7.8
			L1175.1,1299.9z"/>
	</g>
	<g>
		<path class="st15" d="M1315,1111.7l-7.7-15.8l9.8-14.7l7.7,15.8L1315,1111.7z M1311.7,1096.2l3.8,7.8l4.9-7.3l-3.8-7.8
			L1311.7,1096.2z"/>
	</g>
	<g>
		<polygon class="st16" points="1201.1,1000.6 1180,1032.1 1147.1,965.2 1168.2,933.8 		"/>
		<g>
			<path class="st9" d="M1179.7,1036l-34.8-70.9l23.6-35.2l34.8,70.9L1179.7,1036z M1149.3,965.4l30.9,62.9l18.6-27.8l-30.9-62.9
				L1149.3,965.4z"/>
		</g>
	</g>
	<g>
		
			<rect x="1162.9" y="1193.6" transform="matrix(0.557 -0.8305 0.8305 0.557 -464.2552 1520.7028)" class="st15" width="60.7" height="3.9"/>
	</g>
	<g>
		
			<rect x="1170.7" y="1209.5" transform="matrix(0.557 -0.8305 0.8305 0.557 -474.0103 1534.243)" class="st15" width="60.7" height="3.9"/>
	</g>
	<g>
		<polygon class="st17" points="1237,1230.8 1204.8,1278.7 1195.6,1259.9 1227.7,1212 		"/>
		<g>
			<path class="st8" d="M1204.6,1282.6l-11.2-22.8l34.6-51.6l11.2,22.8L1204.6,1282.6z M1197.8,1260.1l7.3,14.8l29.6-44.2l-7.3-14.8
				L1197.8,1260.1z"/>
		</g>
	</g>
	<g>
		<path class="st8" d="M1114.7,1139.4c-0.2,0-0.3,0-0.5,0c-2.9-0.2-5.3-2.1-7-5.5l-36.7-75.5l3.5-1.7l36.7,75.5c1,2,2.4,3.3,3.8,3.4
			c1.4,0,3-1,4.3-2.9l18.9-28.2l3.2,2.1l-18.9,28.2C1119.9,1137.8,1117.4,1139.4,1114.7,1139.4z"/>
	</g>
</g>
<g id="Casette_1">
	<g>
		<polygon class="st12" points="1454.3,1274.9 1477.5,1271.3 1653.8,924.3 1446.3,819.6 1416.4,821.9 1242.8,1169.3 		"/>
		<g>
			<path class="st8" d="M1454,1276.9l-0.6-0.3l-213.2-106.5L1415.1,820l31.6-2.3l209.7,105.8l-0.9,1.7L1478.8,1273L1454,1276.9z
				 M1245.4,1168.4l209.2,104.5l21.6-3.4l175-344.3l-205.3-103.6l-28.3,2.1L1245.4,1168.4z"/>
		</g>
	</g>
	<polygon class="st9" points="1653.8,924.3 1627.5,929.2 1416.4,821.9 1446.3,819.6 	"/>
	<polygon class="st7" points="1454.3,1274.9 1477.5,1271.3 1653.8,924.3 1627.5,929.2 	"/>
	<g>
		
			<rect x="1283.9" y="987" transform="matrix(-0.4469 0.8946 -0.8946 -0.4469 3051.8079 229.5899)" class="st11" width="342.1" height="142.5"/>
		
			<rect x="1283.9" y="1030.6" transform="matrix(-0.4469 0.8946 -0.8946 -0.4469 3051.8079 229.5899)" class="st10" width="342.1" height="55.1"/>
		
			<rect x="1399.5" y="1030.6" transform="matrix(-0.4469 0.8946 -0.8946 -0.4469 3051.8079 229.5899)" class="st18" width="110.8" height="55.1"/>
		<g>
			<g>
				<path class="st11" d="M1481.8,965.6c1.2-2.3,2.8-4.3,4.8-5.8c5.1-4,12.3-5,18.5-2c8,4,11.6,13.3,8.6,21.5
					c-0.2,0.6-0.5,1.2-0.8,1.8c-4.3,8.6-14.7,12-23.3,7.8C1481,984.6,1477.5,974.2,1481.8,965.6z"/>
				<path class="st8" d="M1497.3,992.6c-2.9,0-5.8-0.6-8.5-2c-9.5-4.8-13.4-16.4-8.7-25.9l0,0c1.3-2.6,3.1-4.8,5.3-6.5
					c5.8-4.6,13.9-5.5,20.6-2.2c8.8,4.4,12.9,14.7,9.5,23.9c-0.2,0.7-0.5,1.3-0.9,2C1511.2,988.7,1504.4,992.6,1497.3,992.6z
					 M1483.5,966.4c-3.8,7.6-0.7,16.9,6.9,20.7c7.6,3.8,16.9,0.7,20.7-6.9c0.3-0.5,0.5-1,0.7-1.6c2.7-7.4-0.6-15.6-7.6-19.2
					c-5.4-2.6-11.8-2-16.5,1.7C1486,962.6,1484.5,964.4,1483.5,966.4z"/>
			</g>
			<g>
				<path class="st11" d="M1397,1135.3c1.2-2.3,2.8-4.3,4.7-5.8c5.1-4.1,12.3-5.2,18.6-2c8,4,11.6,13.3,8.5,21.6
					c-0.2,0.6-0.4,1.2-0.7,1.7c-4.3,8.6-14.7,12.1-23.3,7.8C1396.2,1154.3,1392.7,1143.9,1397,1135.3z"/>
				<path class="st8" d="M1412.5,1162.3c-2.9,0-5.8-0.7-8.6-2c-4.6-2.3-8-6.3-9.7-11.2c-1.6-4.9-1.3-10.1,1.1-14.7
					c1.3-2.5,3.1-4.8,5.3-6.4c5.8-4.7,13.9-5.6,20.6-2.2c8.9,4.4,12.9,14.7,9.5,24c-0.3,0.7-0.5,1.4-0.9,2
					C1426.4,1158.4,1419.6,1162.3,1412.5,1162.3z M1412.6,1127.6c-3.4,0-6.9,1.2-9.6,3.4c-1.7,1.3-3.2,3.1-4.2,5.1l0,0
					c-3.8,7.6-0.7,16.9,6.9,20.7c7.6,3.8,16.9,0.7,20.7-6.9c0.3-0.5,0.5-1,0.6-1.5c2.8-7.5-0.4-15.7-7.5-19.2
					C1417.3,1128.2,1414.9,1127.6,1412.6,1127.6z"/>
			</g>
		</g>
		<g>
			<g>
				<path class="st11" d="M1486.5,959.7c5.1-4,12.3-5,18.5-2c8,4,11.6,13.3,8.6,21.5c-5.1,4.1-12.3,5.2-18.6,2
					C1487,977.3,1483.5,968,1486.5,959.7z"/>
				<path class="st8" d="M1502.8,985.1c-2.9,0-5.9-0.7-8.6-2c-8.9-4.4-12.9-14.7-9.5-24l0.2-0.5l0.4-0.3c5.8-4.6,13.9-5.5,20.6-2.2
					c8.8,4.4,12.9,14.7,9.5,23.9l-0.2,0.5l-0.4,0.3C1511.4,983.6,1507.1,985.1,1502.8,985.1z M1488.2,960.9
					c-2.4,7.3,0.8,15.2,7.8,18.7c5.2,2.6,11.4,2,16.1-1.4c2.4-7.2-0.9-15.2-7.8-18.6C1499,957,1492.8,957.5,1488.2,960.9z"/>
			</g>
			<g>
				<path class="st11" d="M1401.7,1129.5c5.1-4.1,12.3-5.2,18.6-2c8,4,11.6,13.3,8.5,21.6c-5.1,4.1-12.3,5-18.5,1.9
					C1402.3,1147,1398.7,1137.7,1401.7,1129.5z"/>
				<path class="st8" d="M1418,1154.7c-2.9,0-5.9-0.7-8.6-2c-8.8-4.4-12.9-14.6-9.5-23.9l0.2-0.5l0.4-0.3c5.9-4.7,14-5.6,20.7-2.2
					c8.9,4.4,12.9,14.7,9.5,24l-0.2,0.5l-0.4,0.3C1426.5,1153.3,1422.3,1154.7,1418,1154.7z M1403.4,1130.7
					c-2.4,7.3,0.9,15.2,7.8,18.6c5.2,2.6,11.4,2,16.1-1.4c2.4-7.3-0.8-15.2-7.8-18.6C1414.3,1126.6,1408,1127.2,1403.4,1130.7z"/>
			</g>
		</g>
		<g>
			
				<rect x="1398" y="1105.4" transform="matrix(0.4472 -0.8944 0.8944 0.4472 -170.053 1939.6008)" class="st10" width="172.3" height="3.9"/>
		</g>
		<g>
			
				<ellipse transform="matrix(0.4469 -0.8946 0.8946 0.4469 57.1772 1956.2)" class="st6" cx="1610.6" cy="931.9" rx="5.8" ry="5.8"/>
			
				<ellipse transform="matrix(0.4469 -0.8946 0.8946 0.4469 -325.3416 1990.8785)" class="st6" cx="1447.4" cy="1258.6" rx="5.8" ry="5.8"/>
		</g>
		<g>
			
				<ellipse transform="matrix(0.4469 -0.8946 0.8946 0.4469 37.3478 1737.4735)" class="st6" cx="1423.8" cy="838.5" rx="5.8" ry="5.8"/>
			
				<ellipse transform="matrix(0.4469 -0.8946 0.8946 0.4469 -345.171 1772.1522)" class="st6" cx="1260.6" cy="1165.2" rx="5.8" ry="5.8"/>
		</g>
		
			<ellipse transform="matrix(0.4469 -0.8946 0.8946 0.4469 -46.9299 1753.9664)" class="st6" cx="1395" cy="914.9" rx="8.4" ry="8.4"/>
		
			<ellipse transform="matrix(0.4469 -0.8946 0.8946 0.4469 -86.3081 1757.5364)" class="st6" cx="1378.2" cy="948.6" rx="8.4" ry="8.4"/>
		
			<ellipse transform="matrix(0.4469 -0.8946 0.8946 0.4469 -223.9952 1770.0189)" class="st6" cx="1319.5" cy="1066.2" rx="8.4" ry="8.4"/>
		
			<ellipse transform="matrix(0.4469 -0.8946 0.8946 0.4469 -263.3734 1773.5889)" class="st6" cx="1302.7" cy="1099.8" rx="8.4" ry="8.4"/>
		<g>
			<path class="st8" d="M1443.1,1245.6l-130.9-65.4l154.6-309.5l130.9,65.4L1443.1,1245.6z M1317.3,1178.5l124,62l151.2-302.6
				l-124-62L1317.3,1178.5z"/>
		</g>
	</g>
	<g>
		<path class="st8" d="M1454,1276.9l-0.6-0.3l-213.2-106.5L1415.1,820l31.6-2.3l209.7,105.8l-0.9,1.7L1478.8,1273L1454,1276.9z
			 M1245.4,1168.4l209.2,104.5l21.6-3.4l175-344.3l-205.3-103.6l-28.3,2.1L1245.4,1168.4z"/>
	</g>
</g>
<g id="Box_front">
	<polygon class="st19" points="1791,1255.6 1322,1526.4 1322,1225.5 1791,954.7 	"/>
	<polygon class="st20" points="1322,1225.5 1469.6,1441.2 1791,1255.6 1791,954.7 	"/>
	<polygon class="st21" points="1322,1225.5 1530.4,1345.9 1999.4,1075.1 1791,954.7 	"/>
	<polygon class="st1" points="1322,1386 1391.5,1345.9 1391.5,1426.1 1322,1466.2 	"/>
	<polygon class="st1" points="1322,1225.5 1322,1245.4 1531.4,1366.5 1530.4,1345.9 	"/>
	<polygon class="st19" points="1531.4,1366.5 1530.4,1345.9 1999.4,1075.1 1999.4,1095.1 	"/>
	<polygon class="st1" points="1322,1526.4 696.7,1165.3 696.7,864.4 1322,1225.5 	"/>
	<path class="st15" d="M1061.5,1157.7v120.5c0,4.6,2.5,8.9,6.5,11.2l130.4,75.3c8.7,5,19.5-1.2,19.5-11.2l0-120.5
		c0-4.6-2.5-8.9-6.5-11.3l-130.4-75.3C1072.3,1141.5,1061.5,1147.7,1061.5,1157.7z"/>
	
		<rect x="1129" y="1155.3" transform="matrix(0.5 -0.866 0.866 0.5 -487.1913 1587.0989)" class="st22" width="3.9" height="120.3"/>
	
		<rect x="1129" y="1195.4" transform="matrix(0.5 -0.866 0.866 0.5 -521.9332 1607.1563)" class="st22" width="3.9" height="120.3"/>
	
		<rect x="1111.9" y="1245.7" transform="matrix(0.4871 -0.8733 0.8733 0.4871 -551.1157 1631.8937)" class="st22" width="3.9" height="79"/>
	<polygon class="st4" points="696.7,1004.9 766.2,1045 766.2,1125.2 696.7,1085.1 	"/>
	<polygon class="st4" points="1322,1386 1269,1355.9 1269.9,1436.1 1322,1466.2 	"/>
	<polygon class="st21" points="1322,1225.5 1339.4,1215.5 714,854.4 696.7,864.4 	"/>
</g>
</svg>
