<?xml version="1.0" encoding="utf-8"?>
<!-- Generator: Adobe Illustrator 21.0.2, SVG Export Plug-In . SVG Version: 6.00 Build 0)  -->
<svg version="1.1" id="Слой_1" xmlns="http://www.w3.org/2000/svg" xmlns:xlink="http://www.w3.org/1999/xlink" x="0px" y="0px"
	 viewBox="0 0 2500 2000" style="enable-background:new 0 0 2500 2000;" xml:space="preserve">
<style type="text/css">
	.st0{fill:#BABABA;}
	.st1{fill:#D1D1D1;}
	.st2{fill:#999999;}
	.st3{fill:#E8E8E8;}
	.st4{fill:#00FFC0;}
	.st5{fill:#4C5B72;}
	.st6{fill:#333E4F;}
	.st7{fill:#32312E;}
	.st8{fill:#FF1B5D;}
	.st9{fill:#59687C;}
	.st10{fill:#C1BDB4;}
	.st11{fill:#585756;}
	.st12{fill:#3A3938;}
	.st13{fill:#7F9BFF;}
	.st14{fill:#7783A5;}
	.st15{fill:#CAFFF1;}
	.st16{fill:#009292;}
	.st17{fill:#7F4FFF;}
</style>
<g id="Keyboard">
	<path class="st0" d="M1449.3,1513.6h-5.4v-20.8c0-10.3-8.3-18.6-18.6-18.6H502.8c-13.2,0-24-10.8-24-24V1421
		c0-10.3-8.3-18.6-18.6-18.6h-2.7c-13.2,0-24-10.8-24-24c0-13.2,10.8-24,24-24h205.9v5.4H457.5c-10.3,0-18.6,8.3-18.6,18.6
		c0,10.3,8.3,18.6,18.6,18.6h2.7c13.2,0,24,10.8,24,24v29.2c0,10.3,8.3,18.6,18.6,18.6h922.5c13.2,0,24,10.8,24,24V1513.6z"/>
	<rect x="1174.5" y="1516.9" class="st0" width="544.3" height="184.8"/>
	<rect x="1174.5" y="1501.5" class="st1" width="544.3" height="184.8"/>
	<rect x="1200.7" y="1528.6" class="st2" width="22.8" height="22.8"/>
	<rect x="1200.7" y="1636.4" class="st2" width="22.8" height="22.8"/>
	
		<rect x="1212.1" y="1586.5" transform="matrix(-1.836970e-16 1 -1 -1.836970e-16 2832.761 385.7696)" class="st2" width="22.8" height="45.6"/>
	
		<rect x="1496.8" y="1579.8" transform="matrix(-1.836970e-16 1 -1 -1.836970e-16 3117.4731 101.0575)" class="st2" width="22.8" height="58.9"/>
	
		<rect x="1503.5" y="1586.5" transform="matrix(-1.836970e-16 1 -1 -1.836970e-16 3124.1394 94.3911)" class="st2" width="22.8" height="45.6"/>
	
		<rect x="1503.5" y="1548" transform="matrix(-1.836970e-16 1 -1 -1.836970e-16 3085.6477 55.8993)" class="st2" width="22.8" height="45.6"/>
	<rect x="1414" y="1528.6" class="st2" width="22.8" height="22.8"/>
	<rect x="1456" y="1528.6" class="st2" width="22.8" height="22.8"/>
	<rect x="1584.3" y="1528.6" class="st3" width="107.8" height="22.8"/>
	<rect x="1334" y="1636.4" class="st3" width="144.7" height="22.8"/>
	<rect x="1252.1" y="1528.6" class="st3" width="22.8" height="22.8"/>
	<rect x="1293.1" y="1528.6" class="st3" width="22.8" height="22.8"/>
	<rect x="1293.1" y="1597.9" class="st3" width="22.8" height="22.8"/>
	<rect x="1334" y="1567.7" class="st3" width="22.8" height="22.8"/>
	<rect x="1372.1" y="1567.7" class="st3" width="22.8" height="22.8"/>
	<rect x="1252.1" y="1567.7" class="st3" width="22.8" height="22.8"/>
	<rect x="1334" y="1597.9" class="st3" width="22.8" height="22.8"/>
	<rect x="1293.1" y="1636.4" class="st2" width="22.8" height="22.8"/>
	<rect x="1556.6" y="1636.4" class="st2" width="22.8" height="22.8"/>
	<rect x="1588.2" y="1636.4" class="st2" width="22.8" height="22.8"/>
	<rect x="1588.2" y="1597.9" class="st2" width="22.8" height="22.8"/>
	<rect x="1619.9" y="1636.4" class="st2" width="22.8" height="22.8"/>
	<rect x="1669.3" y="1613.6" class="st2" width="22.8" height="45.6"/>
	<rect x="1334" y="1528.6" class="st3" width="22.8" height="22.8"/>
</g>
<g id="Glitch">
	<rect x="1822.4" y="909.9" class="st4" width="119.8" height="31.8"/>
	<rect x="461.9" y="1129.9" class="st4" width="145.2" height="66.2"/>
	<rect x="480.3" y="826.4" class="st4" width="119.8" height="6.5"/>
	<rect x="1649.7" y="344" class="st4" width="220.4" height="6.5"/>
	<rect x="1538.1" y="282.2" class="st4" width="119.8" height="6.5"/>
	<rect x="547.3" y="848" class="st4" width="65.6" height="6.5"/>
</g>
<g id="TV_2">
	<path class="st5" d="M1515.1,847.5h-473.5v-535c0-4.1,1.5-7.8,4.1-10.6c2.9-3.2,7.1-5.2,11.8-5.2h441.8c4.4,0,8.3,1.8,11.2,4.6
		c2.9,2.9,4.6,6.8,4.6,11.2V847.5z"/>
	<rect x="1041.6" y="818.9" class="st6" width="473.5" height="28.6"/>
	<path class="st6" d="M1455,660.7h-353.3c-6.9,0-12.8-4.2-15.3-10.1c-0.9-2-1.3-4.2-1.3-6.6V363.9c0-5.5,2.7-10.4,6.8-13.4
		c2.8-2,6.2-3.2,9.9-3.2H1455c4.6,0,8.8,1.9,11.8,4.9c3,3,4.9,7.2,4.9,11.8v280.2c0,2.3-0.5,4.5-1.3,6.5
		C1467.8,656.5,1461.9,660.7,1455,660.7z"/>
	<path class="st7" d="M1439.8,648.4h-322.9c-6.3,0-11.8-3.5-14.6-8.6c-1.3-2.4-2.1-5.1-2.1-8V376.2c0-4.6,1.9-8.8,4.9-11.8
		s7.2-4.9,11.8-4.9h322.9c6.3,0,11.7,3.5,14.6,8.6c1.3,2.4,2.1,5.1,2.1,8.1v255.5c0,4.6-1.9,8.8-4.9,11.8S1444.4,648.4,1439.8,648.4
		z"/>
	<path class="st4" d="M1430.7,642.7c-102.5,7.6-202.2,7.6-304.7,0c-9.2-0.9-17.9-9.1-19.2-18.3c-8.5-82.2-8.5-158.6,0-240.8
		c1.3-9.2,10-17.5,19.2-18.3c102.5-7.6,202.2-7.6,304.7,0c9.2,0.9,17.9,9.1,19.2,18.3c8.5,82.2,8.5,158.6,0,240.8
		C1448.6,633.6,1439.9,641.8,1430.7,642.7z"/>
	<g>
		<rect x="1170" y="490.5" class="st8" width="27" height="27"/>
		<rect x="1359.7" y="490.5" class="st8" width="27" height="27"/>
		<rect x="1196.9" y="517.4" class="st8" width="27" height="27"/>
		<rect x="1196.9" y="463.5" class="st8" width="27" height="27"/>
		<polygon class="st8" points="1332.8,544.1 1225,544.1 1225,571 1332.8,571 1332.8,544.4 1359.7,544.4 1359.7,517.4 1332.8,517.4 
					"/>
		<polygon class="st8" points="1332.8,463.5 1332.8,437 1225,437 1225,463.9 1251.4,463.9 1251.4,490.5 1251.4,517.4 1278.3,517.4 
			1305.3,517.4 1305.3,490.5 1305.3,463.9 1332.8,463.9 1332.8,490.5 1359.7,490.5 1359.7,463.5 		"/>
	</g>
	<rect x="1102.3" y="689.5" class="st9" width="361.6" height="41.8"/>
	<rect x="1330.3" y="689.5" class="st5" width="5.4" height="41.8"/>
	<path class="st6" d="M1156.7,828.3h-58.9v-53h58.9V828.3z M1103.2,822.9h48.1v-42.2h-48.1V822.9z"/>
	<rect x="1235.9" y="765" class="st6" width="69" height="18"/>
	<rect x="1267.7" y="765" class="st5" width="5.4" height="22"/>
	<rect x="1322.8" y="765" class="st6" width="69" height="18"/>
	<rect x="1354.6" y="765" class="st5" width="5.4" height="22"/>
	<circle class="st6" cx="1422.3" cy="774" r="8.2"/>
	<path class="st10" d="M1449.8,811c-6,0-10.9-4.9-10.9-10.9s4.9-10.9,10.9-10.9c6,0,10.9,4.9,10.9,10.9S1455.8,811,1449.8,811z
		 M1449.8,794.5c-3.1,0-5.5,2.5-5.5,5.5c0,3.1,2.5,5.6,5.5,5.6c3.1,0,5.5-2.5,5.5-5.6C1455.3,797,1452.8,794.5,1449.8,794.5z"/>
	<path class="st10" d="M1479.9,811c-6,0-10.9-4.9-10.9-10.9s4.9-10.9,10.9-10.9c6,0,10.9,4.9,10.9,10.9S1485.9,811,1479.9,811z
		 M1479.9,794.5c-3.1,0-5.5,2.5-5.5,5.5c0,3.1,2.5,5.6,5.5,5.6c3.1,0,5.5-2.5,5.5-5.6C1485.4,797,1482.9,794.5,1479.9,794.5z"/>
</g>
<g id="TV_1">
	<rect x="573.9" y="908.2" class="st11" width="461.4" height="539.9"/>
	<rect x="604.3" y="953.3" class="st12" width="400.6" height="308"/>
	<rect x="632.1" y="974.9" class="st13" width="344.8" height="265.1"/>
	<rect x="573.9" y="1337.3" class="st7" width="461.4" height="5.4"/>
	<polygon class="st7" points="604.3,953.3 632.2,974.8 977,974.8 1004.9,953.3 	"/>
	<polygon class="st14" points="604.3,1261.3 632.2,1239.9 977,1239.9 1004.9,1261.3 	"/>
	<rect x="788.4" y="1301.3" class="st12" width="55.7" height="5.4"/>
	<rect x="683.2" y="921.3" class="st10" width="37.8" height="14.4"/>
	<rect x="605.6" y="1365.6" class="st10" width="15.3" height="15.3"/>
	<rect x="605.6" y="1394.3" class="st10" width="15.3" height="15.3"/>
	<rect x="632.2" y="1365.6" class="st10" width="15.3" height="15.3"/>
	<rect x="632.2" y="1394.3" class="st10" width="15.3" height="15.3"/>
	<rect x="660.4" y="1365.6" class="st10" width="15.3" height="15.3"/>
	<rect x="660.4" y="1394.3" class="st10" width="15.3" height="15.3"/>
	<rect x="987.8" y="1374.1" class="st10" width="26.9" height="26.9"/>
	<path class="st12" d="M771.6,1385.9c0,7.1-20.1,12.8-12.8,12.8c-2.3,0,0,4.3-1.9,3.2c-3.8-2.2-10.9-11.3-10.9-16
		c0-7.1,5.7-12.8,12.8-12.8c4.8,0,14.5,8.2,16.7,12.1C776.6,1387.1,771.6,1383.6,771.6,1385.9z"/>
	<circle class="st7" cx="764.3" cy="1391.4" r="12.8"/>
	<path class="st12" d="M821.6,1385.9c0,7.1-20.1,12.8-12.8,12.8c-2.3,0,0,4.3-1.9,3.2c-3.8-2.2-10.9-11.3-10.9-16
		c0-7.1,5.7-12.8,12.8-12.8c4.8,0,14.5,8.2,16.7,12.1C826.5,1387.1,821.6,1383.6,821.6,1385.9z"/>
	<circle class="st7" cx="814.3" cy="1391.4" r="12.8"/>
	<path class="st12" d="M871.6,1385.9c0,7.1-20.1,12.8-12.8,12.8c-2.3,0,0,4.3-1.9,3.2c-3.8-2.2-10.9-11.3-10.9-16
		c0-7.1,5.7-12.8,12.8-12.8c4.8,0,14.5,8.2,16.7,12.1C876.5,1387.1,871.6,1383.6,871.6,1385.9z"/>
	<circle class="st7" cx="864.3" cy="1391.4" r="12.8"/>
	<path class="st12" d="M921.5,1385.9c0,7.1-20.1,12.8-12.8,12.8c-2.3,0,0,4.3-1.9,3.2c-3.8-2.2-10.9-11.3-10.9-16
		c0-7.1,5.7-12.8,12.8-12.8c4.8,0,14.5,8.2,16.7,12.1C926.5,1387.1,921.5,1383.6,921.5,1385.9z"/>
	<circle class="st7" cx="914.2" cy="1391.4" r="12.8"/>
	<path class="st12" d="M971.5,1385.9c0,7.1-20.1,12.8-12.8,12.8c-2.3,0,0,4.3-1.9,3.2c-3.8-2.2-10.9-11.3-10.9-16
		c0-7.1,5.7-12.8,12.8-12.8c4.8,0,14.5,8.2,16.7,12.1C976.4,1387.1,971.5,1383.6,971.5,1385.9z"/>
	<circle class="st7" cx="964.2" cy="1391.4" r="12.8"/>
	<rect x="699" y="1370.5" class="st7" width="16.2" height="8.1"/>
	<rect x="699" y="1383.5" class="st7" width="16.2" height="8.1"/>
	<rect x="710.1" y="1068.5" class="st15" width="16.6" height="16.6"/>
	<rect x="693.5" y="1051.9" class="st15" width="16.6" height="16.6"/>
	<rect x="726.7" y="1085" class="st15" width="16.6" height="16.6"/>
	<rect x="743.2" y="1101.6" class="st15" width="16.6" height="16.6"/>
	<rect x="693.5" y="1118.2" class="st15" width="16.6" height="16.6"/>
	<rect x="677" y="1134.7" class="st15" width="16.6" height="16.6"/>
	
		<rect x="908.9" y="1134.7" transform="matrix(-1.836970e-16 1 -1 -1.836970e-16 2060.2053 225.8442)" class="st15" width="16.6" height="16.6"/>
	
		<rect x="892.3" y="1118.2" transform="matrix(-1.836970e-16 1 -1 -1.836970e-16 2027.0704 225.8442)" class="st15" width="16.6" height="16.6"/>
	<rect x="759.8" y="1101.6" class="st15" width="16.6" height="16.6"/>
	<rect x="792.9" y="1101.6" class="st15" width="16.6" height="16.6"/>
	<rect x="776.4" y="1101.6" class="st15" width="16.6" height="16.6"/>
	<rect x="809.5" y="1101.6" class="st15" width="16.6" height="16.6"/>
	<rect x="792.9" y="1167.9" class="st15" width="16.6" height="16.6"/>
	<rect x="792.9" y="1151.3" class="st15" width="16.6" height="16.6"/>
	<rect x="826.1" y="1101.6" class="st15" width="16.6" height="16.6"/>
	<rect x="842.6" y="1101.6" class="st15" width="16.6" height="16.6"/>
	<rect x="859.2" y="1085" class="st15" width="16.6" height="16.6"/>
	<rect x="875.8" y="1068.5" class="st15" width="16.6" height="16.6"/>
	<rect x="892.3" y="1051.9" class="st15" width="16.6" height="16.6"/>
</g>
<g id="TV_3">
	<path class="st0" d="M639.8,549.2V827c0,18.5,4.4,36.7,12.7,53.2l7.4,14.6c4.2,8.2,12.6,13.4,21.8,13.4h291
		c9.2,0,17.7-5.2,21.8-13.4l7.4-14.6c8.4-16.5,12.7-34.7,12.7-53.2V549.2c0-13.5-11-24.5-24.5-24.5h-326
		C650.8,524.7,639.8,535.6,639.8,549.2z"/>
	<rect x="668.6" y="560.7" class="st3" width="317.3" height="252.4"/>
	<polygon class="st1" points="668.6,813.1 795.4,686.3 668.6,560.7 	"/>
	<polygon class="st1" points="985.9,560.1 859.2,686.9 985.9,813.1 	"/>
	<path class="st12" d="M954.7,798.3H699.9c-2.6,0-5-0.8-7-2.1c-3.4-2.3-5.7-6.2-5.7-10.6V588.2c0-3.5,1.4-6.7,3.7-9
		c2.3-2.3,5.5-3.7,9-3.7h254.8c3.1,0,6,1.1,8.2,3c2.7,2.3,4.4,5.8,4.4,9.6v197.5c0,1.8-0.4,3.4-1,4.9
		C964.5,795.2,959.9,798.3,954.7,798.3z"/>
	<path class="st11" d="M969.1,876.9h-47.4c-4.3,0-7.8-3.5-7.8-7.8v-10.4c0-4.3,3.5-7.8,7.8-7.8h47.4c4.3,0,7.8,3.5,7.8,7.8V869
		C977,873.3,973.5,876.9,969.1,876.9z"/>
	<rect x="947.6" y="850.8" class="st0" width="5.4" height="32.4"/>
	<circle class="st3" cx="841" cy="845.9" r="7.4"/>
	<circle class="st3" cx="817.2" cy="869.7" r="7.4"/>
	<circle class="st3" cx="884.3" cy="845.9" r="7.4"/>
	<circle class="st3" cx="860.5" cy="869.7" r="7.4"/>
	<circle class="st12" cx="684" cy="867" r="10"/>
	<path class="st11" d="M684,879.7c-7,0-12.7-5.7-12.7-12.7c0-7,5.7-12.7,12.7-12.7c7,0,12.7,5.7,12.7,12.7
		C696.7,874,691,879.7,684,879.7z M684,859.7c-4,0-7.3,3.3-7.3,7.3s3.3,7.3,7.3,7.3s7.3-3.3,7.3-7.3S688,859.7,684,859.7z"/>
	<rect x="809.6" y="601.9" class="st4" width="7.4" height="7.4"/>
	<rect x="809.6" y="609.3" class="st4" width="7.4" height="7.4"/>
	<rect x="809.6" y="616.8" class="st4" width="7.4" height="7.4"/>
	<rect x="824.8" y="601.9" class="st4" width="7.4" height="7.4"/>
	<rect x="824.8" y="609.3" class="st4" width="7.4" height="7.4"/>
	<rect x="824.8" y="616.8" class="st4" width="7.4" height="7.4"/>
	<rect x="817" y="624.3" class="st4" width="7.4" height="7.4"/>
	<rect x="866.3" y="601.9" class="st4" width="7.4" height="7.4"/>
	<rect x="897.7" y="601.9" class="st4" width="7.4" height="7.4"/>
	<rect x="873.7" y="609.3" class="st4" width="7.4" height="7.4"/>
	<rect x="905.1" y="601.9" class="st4" width="7.4" height="7.4"/>
	<rect x="897.7" y="624.2" class="st4" width="7.4" height="7.4"/>
	<rect x="905.1" y="624.2" class="st4" width="7.4" height="7.4"/>
	<rect x="897.7" y="613.1" class="st4" width="7.4" height="7.4"/>
	<rect x="905.1" y="613.1" class="st4" width="7.4" height="7.4"/>
	<rect x="873.7" y="616.8" class="st4" width="7.4" height="7.4"/>
	<rect x="866.3" y="624.2" class="st4" width="7.4" height="7.4"/>
	<rect x="842" y="601.9" class="st4" width="7.4" height="29.8"/>
	<rect x="890.2" y="601.9" class="st4" width="7.4" height="29.8"/>
	<rect x="858.8" y="601.9" class="st4" width="7.4" height="29.8"/>
	<rect x="930.5" y="601.9" class="st4" width="7.4" height="7.4"/>
	<rect x="930.5" y="624.2" class="st4" width="7.4" height="7.4"/>
	<rect x="923" y="601.9" class="st4" width="7.4" height="29.8"/>
	<rect x="937.9" y="601.9" class="st4" width="7.4" height="29.8"/>
</g>
<g id="TV_4">
	<path class="st12" d="M1842.8,818.9h-303.2c-13.5,0-24.5-11-24.5-24.5V464c0-25.8,20.9-46.7,46.7-46.7h258.7
		c25.8,0,46.7,20.9,46.7,46.7v330.3C1867.3,807.9,1856.3,818.9,1842.8,818.9z"/>
	<rect x="1538.2" y="818.9" class="st5" width="306.1" height="28.6"/>
	<path class="st11" d="M1800.9,675.6h-219.4c-16.6,0-30-13.4-30-30V482.1c0-16.6,13.4-30,30-30h219.4c16.6,0,30,13.4,30,30v163.5
		C1830.9,662.2,1817.4,675.6,1800.9,675.6z"/>
	<g>
		<path class="st10" d="M1800.9,678.3h-219.4c-18,0-32.7-14.7-32.7-32.7V482.1c0-18,14.7-32.7,32.7-32.7h219.4
			c18,0,32.7,14.7,32.7,32.7v163.5C1833.6,663.6,1818.9,678.3,1800.9,678.3z M1581.5,454.8c-15,0-27.3,12.2-27.3,27.3v163.5
			c0,15,12.2,27.3,27.3,27.3h219.4c15,0,27.3-12.2,27.3-27.3V482.1c0-15-12.2-27.3-27.3-27.3H1581.5z"/>
	</g>
	<circle class="st11" cx="1590.6" cy="765" r="22"/>
	<circle class="st10" cx="1590.6" cy="765" r="15.7"/>
	<circle class="st11" cx="1673" cy="765" r="29.5"/>
	<circle class="st10" cx="1673" cy="765" r="15.7"/>
	<rect x="1740.2" y="743" class="st10" width="90.7" height="12.6"/>
	<path class="st12" d="M1776.8,648.4h-164.2c-16.6,0-30-13.4-30-30V499.9c0-16.6,13.4-30,30-30h164.2c16.6,0,30,13.4,30,30v118.5
		C1806.8,635,1793.4,648.4,1776.8,648.4z"/>
	<path class="st16" d="M1769.7,650.7h-157.1c-7.4,0-14.2-2.7-19.4-7.1c-6.5-5.5-10.6-13.7-10.6-22.8V507c0-7.8,3-14.9,7.9-20.2
		c5.5-6,13.4-9.7,22.1-9.7h157.1c8.3,0,15.8,3.4,21.2,8.8c5.4,5.4,8.8,12.9,8.8,21.2v113.7c0,9.1-4.1,17.3-10.5,22.8
		C1783.9,648,1777.2,650.7,1769.7,650.7z"/>
	
		<rect x="1668.7" y="751.9" transform="matrix(0.7071 -0.7071 0.7071 0.7071 -40.4957 1411.3661)" class="st10" width="29.5" height="5.4"/>
	<rect x="1568.6" y="762.3" class="st10" width="22" height="5.4"/>
	<rect x="1740.2" y="722.5" class="st11" width="90.7" height="5.4"/>
	<rect x="1740.2" y="769.4" class="st11" width="90.7" height="5.4"/>
	<rect x="1740.2" y="789.1" class="st11" width="90.7" height="5.4"/>
	<rect x="1515.1" y="700.7" class="st10" width="352.2" height="5.4"/>
	<rect x="1582.2" y="517.4" class="st4" width="22" height="7"/>
	<rect x="1605.1" y="524.4" class="st4" width="22" height="7"/>
	<rect x="1624.1" y="524.4" class="st4" width="22" height="7"/>
	<rect x="1712.2" y="517.4" class="st4" width="22" height="7"/>
	<rect x="1646.1" y="517.4" class="st4" width="22" height="7"/>
	<rect x="1668.1" y="510.4" class="st4" width="22" height="7"/>
	<rect x="1734.2" y="504" class="st4" width="22" height="13.5"/>
	<rect x="1756.2" y="510.4" class="st4" width="22" height="7"/>
	<rect x="1756.2" y="517.4" class="st4" width="22" height="7"/>
	<rect x="1778.2" y="517.4" class="st4" width="22" height="7"/>
	<rect x="1690.1" y="517.4" class="st4" width="22" height="7"/>
	<rect x="1605.1" y="530.9" class="st4" width="22" height="7"/>
	<rect x="1582.2" y="585.6" class="st4" width="22" height="7"/>
	<rect x="1582.2" y="578.6" class="st4" width="22" height="7"/>
	<rect x="1605.1" y="592.6" class="st4" width="22" height="7"/>
	<rect x="1624.1" y="592.6" class="st4" width="22" height="7"/>
	<rect x="1712.2" y="585.6" class="st4" width="22" height="7"/>
	<rect x="1646.1" y="585.6" class="st4" width="22" height="7"/>
	<rect x="1668.1" y="578.6" class="st4" width="22" height="7"/>
	<rect x="1734.2" y="578.6" class="st4" width="22" height="7"/>
	<rect x="1712.2" y="572.1" class="st4" width="22" height="7"/>
	<rect x="1756.2" y="585.6" class="st4" width="22" height="7"/>
	<rect x="1756.2" y="592.6" class="st4" width="22" height="7"/>
	<rect x="1778.2" y="578.6" class="st4" width="22" height="7"/>
	<rect x="1690.1" y="585.6" class="st4" width="22" height="7"/>
	<rect x="1690.1" y="592.6" class="st4" width="22" height="7"/>
</g>
<g id="TV_5">
	<rect x="1033.4" y="847.5" class="st12" width="821.8" height="576.7"/>
	<g>
		<path class="st17" d="M1577.7,1361.7c-143.7,9-285.4,9-429.1,0c-32.9-2.4-63.3-31.7-66.6-64.6c-9.3-114.6-9.3-226.5,0-341.2
			c3.3-32.9,33.6-62.2,66.6-64.6c143.7-9,285.4-9,429.1,0c32.9,2.4,63.3,31.7,66.6,64.6c9.3,114.7,9.3,226.6,0,341.2
			C1641,1330,1610.6,1359.2,1577.7,1361.7z"/>
		<g>
			<path class="st0" d="M1363.2,1371.1c-71.3,0-142.5-2.3-214.7-6.8c-34.1-2.5-65.7-33.2-69.1-67.1c-9.3-115-9.3-226.7,0-341.7
				c3.4-33.9,35-64.6,69-67.1c144.5-9,285-9,429.5,0c34.1,2.5,65.7,33.2,69.1,67.1c9.3,115,9.3,226.8,0,341.7
				c-3.4,33.9-35,64.6-69,67.1h0C1505.7,1368.9,1434.4,1371.1,1363.2,1371.1z M1363.2,887.2c-71.1,0-142.3,2.2-214.4,6.7
				c-31.6,2.3-60.9,30.8-64,62.2c-9.3,114.6-9.3,226.1,0,340.7c3.1,31.3,32.5,59.8,64.1,62.2c144.2,9,284.5,9,428.7,0
				c31.6-2.4,60.9-30.8,64.1-62.2c9.3-114.6,9.3-226.1,0-340.7c-3.1-31.3-32.5-59.8-64.1-62.2
				C1505.4,889.4,1434.3,887.2,1363.2,887.2z"/>
		</g>
	</g>
	<g>
		<path class="st11" d="M1363.2,1385.3c-73.4,0-146.8-2.6-221.3-7.9c-38.3-3.1-74.1-37.8-78.3-75.8c-10.5-117.9-10.5-232.5,0-350.3
			c4.2-38,40-72.7,78.2-75.8c148.9-10.5,293.7-10.5,442.6,0c38.3,3.1,74.1,37.8,78.3,75.8c10.5,117.9,10.5,232.5,0,350.3
			c-4.2,38-40,72.7-78.2,75.8l0,0C1510,1382.6,1436.6,1385.3,1363.2,1385.3z M1363.2,873c-73.3,0-146.6,2.6-220.9,7.9
			c-35.8,2.9-69.4,35.4-73.3,71c-10.5,117.5-10.5,231.7,0,349.2c3.9,35.5,37.5,68,73.3,70.9c148.6,10.5,293.1,10.5,441.7,0
			c35.9-3,69.4-35.5,73.3-71c10.5-117.5,10.5-231.7,0-349.2c-3.9-35.5-37.5-68-73.3-70.9C1509.7,875.6,1436.4,873,1363.2,873z"/>
	</g>
	<path class="st11" d="M1738.8,1422.6h-589.1v8.4c0,9.5,7.7,17.1,17.1,17.1h554.8c9.5,0,17.1-7.7,17.1-17.1V1422.6z"/>
	<rect x="1691" y="902.2" class="st11" width="133.6" height="65.2"/>
	<rect x="1691" y="1004.1" class="st11" width="133.6" height="374.5"/>
	<rect x="1716.6" y="1032.4" class="st12" width="82.4" height="5.4"/>
	<rect x="1698.6" y="1158.6" class="st12" width="118.3" height="5.4"/>
	<rect x="1698.6" y="1189.3" class="st12" width="118.3" height="5.4"/>
	<rect x="1698.6" y="1220" class="st12" width="118.3" height="5.4"/>
	<rect x="1698.6" y="1250.6" class="st12" width="118.3" height="5.4"/>
	<rect x="1698.6" y="1281.3" class="st12" width="118.3" height="5.4"/>
	<rect x="1698.6" y="1312" class="st12" width="118.3" height="5.4"/>
	<rect x="1721.4" y="1022.6" class="st0" width="25" height="25"/>
	<rect x="1716.6" y="1067.8" class="st12" width="82.4" height="5.4"/>
	<rect x="1751.4" y="1057.9" class="st0" width="25" height="25"/>
	<rect x="1716.6" y="1104.1" class="st12" width="82.4" height="5.4"/>
	<rect x="1738.9" y="1094.3" class="st0" width="25" height="25"/>
	<rect x="1704.7" y="915" class="st12" width="29.2" height="16.2"/>
	<rect x="1704.7" y="939.3" class="st12" width="29.2" height="16.2"/>
	<rect x="1743.2" y="915" class="st12" width="29.2" height="16.2"/>
	<rect x="1743.2" y="939.3" class="st12" width="29.2" height="16.2"/>
	<rect x="1778.9" y="915" class="st12" width="29.2" height="16.2"/>
	<rect x="1778.9" y="939.3" class="st12" width="29.2" height="16.2"/>
	<rect x="1684.9" y="880.5" class="st10" width="87.5" height="5.4"/>
	<rect x="1684.7" y="1335.2" class="st12" width="152.9" height="5.4"/>
	<rect x="1709.6" y="1347.4" class="st12" width="29.2" height="21.1"/>
	<path class="st12" d="M1799,1371.1c-7.3,0-13.2-5.9-13.2-13.2c0-7.3,5.9-13.2,13.2-13.2s13.2,5.9,13.2,13.2
		C1812.2,1365.2,1806.3,1371.1,1799,1371.1z M1799,1350.1c-4.3,0-7.8,3.5-7.8,7.8c0,4.3,3.5,7.8,7.8,7.8c4.3,0,7.8-3.5,7.8-7.8
		C1806.9,1353.6,1803.3,1350.1,1799,1350.1z"/>
	<g>
		<polygon class="st4" points="1287,1034.9 1312.2,1034.9 1312.2,1016.4 1261.8,1016.4 1261.8,1034.9 1236.5,1034.9 1236.5,1053.4 
			1287,1053.4 		"/>
		<polygon class="st4" points="1211.3,1127.5 1211.3,1127.3 1211.3,1109 1211.3,1090.5 1236.5,1090.5 1236.5,1072 1236.5,1053.4 
			1186,1053.4 1186,1072 1186,1090.5 1160.8,1090.5 1160.8,1109 1160.8,1127.3 1160.8,1127.5 1160.8,1145.8 1211.3,1145.8 		"/>
		<polygon class="st4" points="1540.3,1090.5 1540.3,1072 1540.3,1053.4 1489.8,1053.4 1489.8,1072 1489.8,1090.5 1515.1,1090.5 
			1515.1,1109 1515.1,1127.3 1515.1,1127.5 1515.1,1145.8 1565.6,1145.8 1565.6,1127.5 1565.6,1127.3 1565.6,1109 1565.6,1090.5 		
			"/>
		<polygon class="st4" points="1363.6,997.9 1313.1,997.9 1313.1,1016.4 1363.6,1016.4 1414.1,1016.4 1414.1,997.9 		"/>
		<polygon class="st4" points="1337.5,1182.9 1388.8,1182.9 1388.8,1164.4 1414.1,1164.4 1414.1,1109 1388.8,1109 1388.8,1090.5 
			1414.1,1090.5 1414.1,1071.9 1388.8,1071.9 1388.8,1053.4 1337.5,1053.4 1337.5,1071.9 1313.1,1071.9 1313.1,1164.4 
			1337.5,1164.4 		"/>
		<polygon class="st4" points="1464.6,1034.9 1464.6,1016.4 1414.1,1016.4 1414.1,1034.9 1439.3,1034.9 1439.3,1053.4 
			1489.8,1053.4 1489.8,1034.9 		"/>
		<polygon class="st4" points="1439.3,1201.4 1414.1,1201.4 1414.1,1219.9 1464.6,1219.9 1464.6,1201.4 1489.8,1201.4 
			1489.8,1182.9 1439.3,1182.9 		"/>
		<polygon class="st4" points="1489.8,1164.4 1489.8,1182.9 1540.3,1182.9 1540.3,1164.4 1540.3,1145.9 1489.8,1145.9 		"/>
		<polygon class="st4" points="1312.2,1219.9 1312.2,1238.5 1362.7,1238.5 1413.2,1238.5 1413.2,1219.9 1362.7,1219.9 		"/>
		<polygon class="st4" points="1287,1201.4 1287,1182.9 1236.5,1182.9 1236.5,1201.4 1261.8,1201.4 1261.8,1219.9 1312.2,1219.9 
			1312.2,1201.4 		"/>
		<polygon class="st4" points="1236.5,1145.9 1186,1145.9 1186,1164.4 1186,1182.9 1236.5,1182.9 1236.5,1164.4 		"/>
	</g>
	<rect x="1107.2" y="930.1" class="st15" width="50.5" height="18.5"/>
	<rect x="1132.5" y="912.1" class="st15" width="50.5" height="18.5"/>
	<rect x="1561.7" y="1294.8" class="st15" width="50.5" height="18.5"/>
</g>
</svg>
