<?xml version="1.0" encoding="utf-8"?>
<!-- Generator: Adobe Illustrator 21.0.2, SVG Export Plug-In . SVG Version: 6.00 Build 0)  -->
<svg version="1.1" id="Слой_1" xmlns="http://www.w3.org/2000/svg" xmlns:xlink="http://www.w3.org/1999/xlink" x="0px" y="0px"
	 viewBox="0 0 2500 2000" style="enable-background:new 0 0 2500 2000;" xml:space="preserve">
<style type="text/css">
	.st0{fill:#C0C0C0;}
	.st1{fill:#5E5E5E;}
	.st2{fill:#3A3A3A;}
	.st3{fill:#808080;}
	.st4{fill:#DCE0DF;}
	.st5{fill:#FFFFFF;}
	.st6{fill:#24FFF9;}
	.st7{fill:#39D3FF;}
	.st8{fill:#FF5548;}
	.st9{fill:#FF3127;}
	.st10{fill:#EDEDED;}
	.st11{fill:#EA281F;}
	.st12{fill:#F79B24;}
	.st13{fill:#FFE12D;}
	.st14{fill:#FFFF57;}
</style>
<g id="Headphones">
	<path d="M1211.9,1645.5c-174.4,0-322.3-3.5-362.5-19.9c-61.8-25.1-78.8-63.2-90.1-88.4c-2.8-6.3-5.2-11.7-7.9-16.2l6-3.6
		c2.9,4.9,5.6,10.8,8.3,17c11.5,25.6,27.1,60.7,86.3,84.7c54.3,22.1,326.8,20.1,567.2,18.3c91.2-0.7,177.4-1.3,249.9-0.7
		c171.2,1.4,206.7-33.4,212.8-54.3c6.3-21.9-13.9-46-36.8-60.2c-14-8.7-29.3-16-42.8-22.5c-26.2-12.5-45.1-21.6-44.6-34.3
		c0.4-9.6,12.3-18.5,38.6-28.8c59.3-23.2,77.6-105.9,54.2-245.7c-5.4-32.6,3.6-72.7,12.4-111.6c9.8-43.6,19.1-84.8,4.2-104
		c-6-7.7-15.7-11.6-29.6-12c-19.8-0.5-36.9-1.9-51.9-3.2c-53-4.3-82.2-6.7-130.7,36.3l-4.7-5.3c50.7-45.1,82.8-42.4,135.9-38.1
		c15,1.2,31.9,2.6,51.5,3.1c16.2,0.4,27.6,5.2,35,14.7c17,21.8,7.3,64.6-2.9,109.9c-8.6,38.2-17.5,77.7-12.3,108.9
		c24,143.6,4.3,228.8-58.6,253.4c-27.9,10.9-34,18.3-34.1,22.5c-0.3,8.1,19.6,17.6,40.6,27.7c13.7,6.6,29.2,14,43.4,22.9
		c23.3,14.5,47.8,41,39.9,68.2c-8.1,27.9-52.8,60.9-219.6,59.4c-72.5-0.6-158.6,0-249.8,0.7
		C1349.3,1645,1278.7,1645.5,1211.9,1645.5z"/>
	<polygon points="961.8,788.4 980.1,786 1000.1,742.9 987.4,746.7 	"/>
	<path class="st0" d="M1160.8,1015.1c7.8-10,16.2-19.6,25.2-28.6C1081,832.7,984.2,705,807.6,602.4c-51.4-29.9-94-18.8-29.4,18.8
		c50.4,29.3,90.2,59.7,135.6,96c92.4,86.7,172.5,177.9,237.9,282.2C1155,1005,1158,1010.2,1160.8,1015.1z"/>
	<polygon points="536.7,1070.8 557,1079.2 603.2,1046.5 587.8,1042.9 	"/>
	<path d="M878.9,1414c0,79.8-64.7,144.5-144.5,144.5s-131.2-64.7-131.2-144.5c0-79.8,51.4-144.5,131.2-144.5
		S878.9,1334.2,878.9,1414z"/>
	<path class="st1" d="M1187.6,1000.7C974.4,678.6,794.8,555.9,638.3,625.5l2.4,6.6c147.1-44,315.5,80.9,514.8,382.1l1.5,2.3
		l32.9-12.2L1187.6,1000.7z"/>
	<polygon class="st2" points="726.5,1505.6 773.2,1576.6 790.8,1571.8 768.7,1494.1 	"/>
	<path class="st3" d="M535.2,769c6.3-48.1,26.6-84.7,60.3-108.9c27.5-19.7,50.9-31.1,68.1-38.8l-2.7-6.5
		c-48.8,18.2-70.5,30.9-95.7,49.3c-47.7,34.9-70.6,92.4-68,170.9l0,1.1l0.7,0.9c0.3,0.4,0.6,0.9,0.7,1.6c5.7,26.7,11.5,53.3,17.3,80
		l5.3,24.7l0.3,0.9c17.4,34,30,70.8,42.3,106.4c11.3,32.8,22.9,66.6,38.3,98.4l1.2,2.5l2.7-0.5c1.9-0.4,3.1,0.1,3.8,1.5
		c6.4,14,12.5,28.4,18.4,42.3l0.5,1c4,6.2,8,12.3,12.1,18.4c11.6,17.5,23.6,35.6,33.3,54.6c6.5,12.7,12.6,25.9,18.6,38.6
		c3.5,7.5,7.1,14.9,10.7,22.4c-43.1,6.3-70.3,41.5-70.3,84.2c0,47.1,38.2,91.6,89.4,91.6s92.6-38.2,92.7-85.3
		c0-15.4-8.9-45.3-34.3-71.7c-34.5-35.8-70.7-79.3-94-120.4C600.4,1075.3,520,884.7,535.2,769z"/>
	<path d="M1312.8,1104.7c0,74.2-60.1,134.3-134.3,134.3c-74.2,0-122-60.1-122-134.3s47.8-134.3,122-134.3
		C1252.6,970.4,1312.8,1030.5,1312.8,1104.7z"/>
	<path class="st0" d="M785.6,1365.8c-1-1.5-2.4-3.3-4.4-5.5c-0.4-0.5-0.8-0.9-1.3-1.4c-1.1-1.2-2.1-2.4-3.2-3.4
		c-25.6-27.6-43.6-45.8-72.3-87.4c-67.4-103.1-116.8-214-156.9-334.2c-14.1-56.4-25-105.3-30.5-163.3c-7.1-74.5-35-40.3-29.4,18.8
		c20.8,218.3,106.3,365.1,212.1,540c-44.5,5.3-72.6,41.1-72.6,84.6c0,47.1,33,85.3,84.1,85.3c51.2,0,95.5-38.3,92.7-85.3
		C802.7,1394,794.8,1378,785.6,1365.8z"/>
	<path class="st3" d="M776.1,1417.9c0,32.9-28.9,59.5-64.6,59.5s-58.6-26.6-58.6-59.5s23-59.5,58.6-59.5S776.1,1385.1,776.1,1417.9z
		"/>
	<path class="st4" d="M768.7,1414c0,32.9-28.9,59.5-64.6,59.5s-58.6-26.6-58.6-59.5s23-59.5,58.6-59.5S768.7,1381.1,768.7,1414z"/>
	<polygon class="st3" points="587.8,1042.9 536.7,1070.8 510.7,962.8 552,940.3 568.5,944.1 603.2,1046.5 	"/>
	<polygon class="st0" points="573.2,1029 541.3,1046.3 525.2,979.1 550.9,965.1 	"/>
	<polygon class="st3" points="987.4,746.7 961.8,788.4 897.7,720.6 920.2,684 932,682.8 1000.1,742.9 	"/>
	<rect x="686.8" y="1365.9" class="st5" width="7" height="96"/>
	
		<rect x="530.1" y="1023.4" transform="matrix(0.909 -0.4169 0.4169 0.909 -377.613 324.7953)" class="st3" width="49.5" height="7.1"/>
	<path class="st3" d="M492.6,742.9c-9,1.4-13.6,26.7-3.2,28.6c0.8,0.2,6.7,0.1,7.7,0c12.4-1.6,14.5-26.5,0.3-28.6
		C495.7,742.7,494.3,742.6,492.6,742.9z"/>
	<path class="st4" d="M488.4,743.8c-9.2,3.5-9.9,29.4,3.4,27.7S506.6,736.9,488.4,743.8z"/>
</g>
<g id="Flash">
	<polygon class="st6" points="766.5,1062.4 874,1206.9 925.1,1150.5 978,1185.7 919.9,1087 891.7,1134.6 	"/>
	<polygon class="st7" points="1365,784.1 1315.6,451 1461.9,526.8 1590.6,259 1527.1,662.5 1409,632.6 	"/>
	<path class="st8" d="M873.8,1162.3l-120.2-161.6l136.9,79l29.5-49.7l69,117.1l-63.1-42.1L873.8,1162.3z M779.5,1023.8l94.8,127.4
		l50.3-55.5l42.6,28.4l-47.3-80.3l-26.9,45.4L779.5,1023.8z"/>
	<path class="st8" d="M1363.9,750.5l-52.7-355.8l149.2,77.3l137.5-286.2L1530,616.7l-118.5-30.1L1363.9,750.5z M1320.1,407.2
		l46,310.3l40.5-139.3l117.6,29.8l59.1-376l-119.8,249.5L1320.1,407.2z"/>
</g>
<g id="Player">
	<polygon class="st0" points="1337,973 1439.7,1084.3 1333.2,1003.5 1303.9,971.6 	"/>
	<polygon class="st9" points="1350.2,1000.8 1423.6,1080.4 1390.5,1079 1317.1,999.5 	"/>
	
		<rect x="1163.4" y="1026.5" transform="matrix(0.735 -0.6781 0.6781 0.735 -409.8119 1155.9277)" class="st10" width="221.1" height="151.5"/>
	<polygon class="st0" points="1503.4,921 1812.9,1256.4 1492.2,1012.8 1403.8,917 	"/>
	<polygon class="st11" points="1713.3,1252.4 1812.9,1256.4 1323.3,1708.1 1223.6,1704.1 	"/>
	<polygon class="st9" points="1591.8,1016.8 1812.9,1256.4 1713.3,1252.4 1492.2,1012.8 	"/>
	
		<rect x="980.7" y="1082.3" transform="matrix(0.735 -0.6781 0.6781 0.735 -540.4884 1238.0393)" class="st4" width="666.1" height="456.4"/>
	
		<rect x="1024.9" y="1195.4" transform="matrix(0.735 -0.6781 0.6781 0.735 -561.2686 1280.7159)" class="st8" width="666.1" height="326"/>
	<polygon class="st12" points="1728.4,1158 1755.7,1159.1 1721.9,1190.2 1694.6,1189.1 	"/>
	<polygon class="st13" points="1643.6,1066.1 1667.8,1092.4 1728.4,1158 1755.7,1159.1 1695.1,1093.5 1670.9,1067.2 	"/>
	
		<rect x="1646.2" y="1065.1" transform="matrix(0.735 -0.6781 0.6781 0.735 -322.2825 1430.5646)" class="st14" width="45.9" height="125"/>
	<rect x="1130.9" y="1320.4" transform="matrix(0.735 -0.6781 0.6781 0.735 -600.2546 1261.7328)" width="366.5" height="156.8"/>
	
		<rect x="1220.4" y="1343.3" transform="matrix(0.735 -0.6781 0.6781 0.735 -588.6008 1237.7993)" class="st4" width="137.9" height="57.3"/>
	
		<rect x="1492.6" y="1068" transform="matrix(0.735 -0.678 0.678 0.735 -438.2373 1340.6134)" class="st11" width="7" height="326"/>
	
		<ellipse transform="matrix(0.735 -0.6781 0.6781 0.735 -684.6785 1230.837)" class="st3" cx="1232.4" cy="1491.4" rx="27.8" ry="27.8"/>
	
		<ellipse transform="matrix(0.735 -0.6781 0.6781 0.735 -515.7983 1313.0686)" class="st3" cx="1422.1" cy="1316.5" rx="27.8" ry="27.8"/>
	<path class="st0" d="M1214.6,1522c-0.4,0-0.9,0-1.3,0c-8.3-0.3-16.1-3.9-21.7-10c-5.7-6.1-8.6-14.1-8.3-22.5
		c0.3-8.3,3.9-16.1,10-21.7c12.7-11.7,32.5-10.9,44.2,1.8c5.7,6.1,8.6,14.1,8.3,22.5c-0.3,8.3-3.9,16.1-10,21.7
		C1230,1519,1222.5,1522,1214.6,1522z M1214.6,1466.5c-5.9,0-11.8,2.1-16.4,6.4c-9.8,9.1-10.4,24.4-1.4,34.2
		c4.4,4.8,10.4,7.5,16.8,7.8c6.4,0.3,12.7-2,17.4-6.4c9.8-9.1,10.4-24.4,1.4-34.2l0,0C1227.6,1469.1,1221.1,1466.5,1214.6,1466.5z"
		/>
	<path class="st0" d="M1404.3,1347c-0.4,0-0.9,0-1.3,0c-8.3-0.3-16.1-3.9-21.7-10c-11.7-12.7-10.9-32.5,1.8-44.2
		c6.1-5.7,14.2-8.6,22.5-8.3c8.3,0.3,16.1,3.9,21.7,10c11.7,12.7,10.9,32.5-1.8,44.2C1419.6,1344.1,1412.1,1347,1404.3,1347z
		 M1404.2,1291.5c-6.1,0-11.9,2.3-16.4,6.4c-9.8,9.1-10.4,24.4-1.4,34.2c9.1,9.8,24.4,10.4,34.2,1.4c9.8-9.1,10.4-24.4,1.4-34.2l0,0
		c-4.4-4.8-10.4-7.5-16.8-7.8C1404.9,1291.5,1404.5,1291.5,1404.2,1291.5z"/>
	<path class="st0" d="M1579.7,1040.2c1.4,0,2.9,0.3,4.5,1c7.3,3,14,11.8,15.1,19.6c0.5,3.2-0.1,5.8-1.5,7.5
		c-0.4,0.5-0.9,0.9-1.5,1.3c-1,0.6-2.2,1-3.7,1c-1.4,0-2.9-0.3-4.6-1c-7.3-3-14-11.8-15.1-19.6
		C1572.2,1043.9,1575,1040.2,1579.7,1040.2 M1579.7,1033.1L1579.7,1033.1c-4.1,0-7.8,1.6-10.3,4.5c-2.9,3.3-4.1,8-3.3,13.3
		c1.4,10.4,9.8,21.2,19.4,25.2c2.5,1,5,1.5,7.3,1.5c2.7,0,5.3-0.7,7.4-2.1l0.2-0.2l0.2-0.2c1-0.7,1.8-1.5,2.5-2.3
		c2.1-2.6,4.1-6.8,3.2-13.2c-1.4-10.3-9.8-21.2-19.4-25.1C1584.5,1033.6,1582,1033.1,1579.7,1033.1L1579.7,1033.1z"/>
	
		<ellipse transform="matrix(0.735 -0.6781 0.6781 0.735 -681.6909 1041.578)" class="st0" cx="991.8" cy="1392.9" rx="10.6" ry="10.6"/>
	
		<ellipse transform="matrix(0.735 -0.6781 0.6781 0.735 -304.5219 1225.23)" class="st0" cx="1415.3" cy="1002.2" rx="10.6" ry="10.6"/>
	
		<rect x="1145.3" y="1458.4" transform="matrix(0.735 -0.6781 0.6781 0.735 -755.5168 1193.1935)" class="st5" width="7" height="209.5"/>
	
		<rect x="840.3" y="1154.8" transform="matrix(0.7353 -0.6777 0.6777 0.7353 -474.4718 1101.7488)" class="st0" width="666.1" height="7"/>
	
		<rect x="1584.4" y="1277.7" transform="matrix(0.7351 -0.678 0.678 0.7351 -455.961 1419.1382)" class="st0" width="7" height="30.6"/>
	
		<rect x="1601.6" y="1261.8" transform="matrix(0.735 -0.6781 0.6781 0.735 -440.6248 1426.9194)" class="st0" width="7" height="30.6"/>
	<rect x="1339.1" y="1277.1" class="st5" width="7" height="186.5"/>
</g>
<g id="Plug">
	<path d="M1599.4,1060.8c0.5,3.2-0.1,5.8-1.5,7.5l-1.5,1.3c-2,1.3-4.9,1.3-8.3,0c-7.3-3-14-11.8-15.1-19.6c-1.1-7.8,4-11.8,11.2-8.8
		C1591.5,1044.1,1598.3,1052.9,1599.4,1060.8z"/>
	<path d="M1656.5,990.4c3.3,3.6,4.8,8.1,4.6,12.6c-0.2,4.3-1.9,8.6-5.2,11.8l-58.6,54.1l-22.1-27.1l56.7-52.3
		C1638.9,983,1649.9,983.4,1656.5,990.4z"/>
	<polygon class="st0" points="1655.8,1014.8 1648.5,1021.6 1642.5,1021.3 1623.2,1000.4 1623.3,997.3 1630.7,990.6 1630.3,997.8 
		1645.7,1014.4 	"/>
	<rect x="1660.1" y="972.9" transform="matrix(0.7715 -0.6362 0.6362 0.7715 -246.6792 1283.5939)" width="7.1" height="24.6"/>
	<rect x="1652.3" y="979.4" transform="matrix(0.7715 -0.6362 0.6362 0.7715 -252.5565 1280.0951)" width="7.1" height="24.6"/>
	<rect x="1667.9" y="964.3" transform="matrix(0.7716 -0.6361 0.6361 0.7716 -239.4314 1286.3829)" width="7" height="24.6"/>
	<rect x="1676.6" y="959.4" transform="matrix(0.7715 -0.6362 0.6362 0.7715 -234.281 1290.9586)" width="7.1" height="24.6"/>
</g>
</svg>
