<?xml version="1.0" encoding="utf-8"?>
<!-- Generator: Adobe Illustrator 21.0.2, SVG Export Plug-In . SVG Version: 6.00 Build 0)  -->
<svg version="1.1" id="Слой_1" xmlns="http://www.w3.org/2000/svg" xmlns:xlink="http://www.w3.org/1999/xlink" x="0px" y="0px"
	 viewBox="0 0 2500 2000" style="enable-background:new 0 0 2500 2000;" xml:space="preserve">
<style type="text/css">
	.st0{fill:#FFA8D8;}
	.st1{fill:#FFBD8A;}
	.st2{fill:#7F9BFF;}
	.st3{fill:#FEEA3B;}
	.st4{fill:#FFFFFF;}
	.st5{fill:#FF5548;}
	.st6{fill:#00AF04;}
	.st7{fill:#FDAF40;}
	.st8{fill:#B23600;}
	.st9{fill:#373634;}
	.st10{fill:#BABABA;}
	.st11{fill:#6D665C;}
	.st12{fill:#939393;}
	.st13{fill:#FFF9CC;}
	.st14{fill:#E8E2BF;}
	.st15{fill:#FF5EFB;}
	.st16{fill:#E4DA29;}
	.st17{fill:#25BFA1;}
</style>
<g id="Princess">
	<polygon class="st0" points="1385.3,1018.9 1386.1,999.2 1386.9,979.4 1387.7,959.6 1367.9,958.8 1369.4,919.3 1366.6,919.2 
		1367.4,899.4 1368.2,879.6 1368.9,859.9 1388.7,860.6 1389.5,840.9 1390.2,821.1 1391,801.3 1371.2,800.6 1351.5,799.8 1331.7,799 
		1311.9,798.2 1292.2,797.5 1292.9,777.7 1312.7,778.5 1332.5,779.2 1352.2,780 1353,760.2 1333.2,759.5 1334,739.7 1334.8,719.9 
		1335.5,700.2 1336.3,680.4 1316.5,679.6 1317.3,659.8 1297.5,659.1 1277.8,658.3 1277,678.1 1257.2,677.3 1237.5,676.5 
		1217.7,675.8 1216.9,695.5 1216.1,715.3 1215.4,735.1 1214.6,754.8 1213.8,774.6 1233.6,775.4 1253.4,776.2 1252.6,795.9 
		1232.8,795.2 1213.1,794.4 1193.3,793.6 1173.6,792.9 1173.5,792.9 1153.8,792.1 1153,811.9 1152.3,831.6 1151.5,851.4 
		1171.2,852.2 1170.4,871.9 1169.7,891.7 1168.9,911.5 1167.4,951 1147.6,950.3 1146.8,970 1146,989.8 1145.3,1009.6 1126.4,1008.8 
		1125.6,1028.6 1124.9,1048.4 1124.1,1068.2 1123.3,1087.9 1122.5,1107.7 1121.8,1127.5 1121,1147.2 1120.2,1167 1119.5,1186.8 
		1118.7,1206.6 1137.6,1207.3 1138.5,1207.3 1157.3,1208.1 1177.1,1208.8 1196.9,1209.6 1216.7,1210.4 1276.9,1212.7 1296.7,1213.5 
		1316.5,1214.3 1357.9,1215.9 1376.7,1216.6 1377.6,1216.6 1396.5,1217.4 1397.3,1197.6 1398.1,1177.8 1398.8,1158.1 1399.6,1138.3 
		1400.4,1118.5 1401.1,1098.7 1401.9,1079 1402.7,1059.2 1403.5,1039.4 1404.2,1019.7 	"/>
	<g>
		<path d="M1416.7,1239.2l-319.8-12.5l9.3-239.7l18.9,0.7l2.3-59.3l19.8,0.8l2.2-56.9l-19.7-0.8l3.9-101.3l59.3,2.3l4.6-118.6
			l59.3,2.3l0.8-19.8l81.5,3.2l-0.8,19.8l19.8,0.8l-3.1,79.1l19.8,0.8l-1.5,39.5l39.5,1.5l-3.9,101.3l-19.8-0.8l-0.7,17.4l2.8,0.1
			l-1.5,39.6l19.8,0.8l-2.3,59.3l18.9,0.7L1416.7,1239.2z"/>
	</g>
	
		<rect x="1367.5" y="959.2" transform="matrix(3.892692e-02 -0.9992 0.9992 3.892692e-02 355.3914 2307.7283)" class="st1" width="19.8" height="19.8"/>
	
		<rect x="1147.2" y="950.6" transform="matrix(3.892578e-02 -0.9992 0.9992 3.892578e-02 152.2446 2079.3455)" class="st1" width="19.8" height="19.8"/>
	<polygon class="st1" points="1368.2,879.6 1368.9,859.9 1349.2,859.1 1329.4,858.3 1328.6,878.1 1327.8,897.9 1327.1,917.6 
		1346.8,918.4 1366.6,919.2 1367.4,899.4 	"/>
	<polygon class="st1" points="1171.2,852.2 1170.4,871.9 1169.7,891.7 1168.9,911.5 1188.7,912.3 1208.4,913 1209.2,893.3 
		1210,873.5 1210.8,853.7 1191,852.9 	"/>
	<polygon class="st1" points="1296,698.6 1276.2,697.8 1256.5,697.1 1236.7,696.3 1216.9,695.5 1216.1,715.3 1215.4,735.1 
		1214.6,754.8 1213.8,774.6 1233.6,775.4 1253.4,776.2 1252.6,795.9 1232.8,795.2 1232.1,814.9 1251.8,815.7 1271.6,816.5 
		1291.4,817.2 1311.2,818 1311.9,798.2 1292.1,797.5 1292.9,777.7 1293.7,757.9 1294.5,738.2 1314.2,738.9 1315,719.2 1295.2,718.4 
			"/>
	<path class="st2" d="M1385.3,1018.9L1385.3,1018.9l0.8-19.8l0.8-19.8l-19.8-0.8l2.3-59.3l-42.4-1.7l0.8-19.8l-19.8-0.8l-19.8-0.8
		l-19.8-0.8l-19.8-0.8L1229,894l-19.8-0.8l-0.8,19.8l-39.5-1.5l-2.3,59.3l-19.8-0.8l-0.8,19.8l-0.8,19.8l0,0l-18.9-0.7l-0.8,19.8
		l-0.8,19.8l-0.8,19.8l-0.8,19.8l-0.8,19.8l-0.8,19.8l-0.8,19.8l-0.8,19.8l-0.8,19.8l-0.8,19.8l18.9,0.7v0l19.8,0.8l200.5,7.8l0,0
		l19.8,0.8l0,0l18.9,0.7l0.8-19.8l0.8-19.8l0.8-19.8l0.8-19.8l0.8-19.8l0.8-19.8l0.8-19.8l0.8-19.8l0.8-19.8l0.8-19.8L1385.3,1018.9
		z"/>
	<polygon class="st2" points="1171.2,852.2 1191,852.9 1210.8,853.7 1210,873.5 1229.8,874.3 1249.5,875 1269.3,875.8 1289.1,876.6 
		1308.8,877.3 1328.6,878.1 1329.4,858.3 1349.2,859.1 1368.9,859.9 1388.7,860.6 1389.5,840.9 1390.2,821.1 1391,801.3 
		1371.2,800.6 1351.5,799.8 1331.7,799 1311.9,798.2 1311.2,818 1291.4,817.2 1271.6,816.5 1251.8,815.7 1232.1,814.9 1232.8,795.2 
		1213.1,794.4 1193.3,793.6 1173.6,792.9 1173.6,792.9 1153.8,792.1 1153,811.9 1152.3,831.6 1151.5,851.4 1171.2,852.2 	"/>
	<polygon class="st3" points="1333.2,759.5 1334,739.7 1334.8,719.9 1335.5,700.2 1336.3,680.4 1316.5,679.6 1317.3,659.8 
		1297.5,659.1 1277.8,658.3 1277,678.1 1257.2,677.3 1237.5,676.5 1217.7,675.8 1216.9,695.5 1236.7,696.3 1256.5,697.1 
		1276.2,697.8 1296,698.6 1295.2,718.4 1315,719.2 1314.2,738.9 1294.5,738.2 1293.7,757.9 1292.9,777.7 1312.7,778.5 1332.5,779.2 
		1352.2,780 1353,760.2 	"/>
	
		<rect x="1321.3" y="1056.4" transform="matrix(-0.9992 -3.893438e-02 3.893438e-02 -0.9992 2619.8328 2183.6609)" class="st0" width="19.8" height="19.8"/>
	
		<rect x="1340.3" y="1077" transform="matrix(-0.9992 -3.893438e-02 3.893438e-02 -0.9992 2657.0215 2225.4697)" class="st0" width="19.8" height="19.8"/>
	
		<rect x="1302.3" y="1035.9" transform="matrix(-0.9992 -3.893438e-02 3.893438e-02 -0.9992 2582.644 2141.8521)" class="st0" width="19.8" height="19.8"/>
	
		<rect x="1183.7" y="1031.3" transform="matrix(3.893438e-02 -0.9992 0.9992 3.893438e-02 106.7102 2193.2605)" class="st0" width="19.8" height="19.8"/>
	
		<rect x="1163.1" y="1050.3" transform="matrix(3.893438e-02 -0.9992 0.9992 3.893438e-02 67.9806 2190.9956)" class="st0" width="19.8" height="19.8"/>
	
		<rect x="1224.7" y="993.3" transform="matrix(3.893438e-02 -0.9992 0.9992 3.893438e-02 184.1693 2197.7905)" class="st0" width="19.8" height="19.8"/>
	
		<rect x="1264.3" y="994.8" transform="matrix(-0.9992 -3.893438e-02 3.893438e-02 -0.9992 2508.2664 2058.2346)" class="st0" width="19.8" height="19.8"/>
	<polygon class="st0" points="1247.2,934.3 1246.4,954.1 1245.7,973.9 1244.9,993.7 1264.7,994.4 1265.4,974.7 1266.2,954.9 
		1267,935.1 	"/>
	
		<rect x="1142.6" y="1069.2" transform="matrix(3.893438e-02 -0.9992 0.9992 3.893438e-02 29.3405 2188.7358)" class="st0" width="19.8" height="19.8"/>
	<polygon class="st4" points="1248.8,894.8 1268.5,895.6 1288.3,896.3 1308.1,897.1 1327.8,897.9 1328.6,878.1 1308.8,877.3 
		1289.1,876.6 1269.3,875.8 1249.5,875 1229.8,874.3 1210,873.5 1209.2,893.3 1229,894 	"/>
	
		<rect x="1301.5" y="1055.7" transform="matrix(3.892806e-02 -0.9992 0.9992 3.892806e-02 195.6145 2334.4836)" class="st4" width="19.8" height="19.8"/>
	
		<rect x="1282.5" y="1035.1" transform="matrix(3.892806e-02 -0.9992 0.9992 3.892806e-02 197.8794 2295.7539)" class="st4" width="19.8" height="19.8"/>
	
		<rect x="1182.9" y="1051" transform="matrix(3.893398e-02 -0.9992 0.9992 3.893398e-02 86.2133 2211.4932)" class="st4" width="19.8" height="19.8"/>
	
		<rect x="1203.4" y="1032" transform="matrix(3.893398e-02 -0.9992 0.9992 3.893398e-02 124.9429 2213.7583)" class="st4" width="19.8" height="19.8"/>
	<polygon class="st4" points="1177.9,1189.1 1177.1,1208.8 1196.9,1209.6 1216.7,1210.4 1217.4,1190.6 1197.7,1189.8 	"/>
	<polygon class="st4" points="1277.7,1192.9 1276.9,1212.7 1296.7,1213.5 1316.5,1214.3 1317.2,1194.5 1297.5,1193.7 	"/>
	
		<rect x="1224" y="1013" transform="matrix(3.893422e-02 -0.9992 0.9992 3.893422e-02 163.6722 2216.0229)" class="st4" width="19.8" height="19.8"/>
	
		<rect x="1263.5" y="1014.6" transform="matrix(3.892806e-02 -0.9992 0.9992 3.892806e-02 200.1443 2257.0242)" class="st4" width="19.8" height="19.8"/>
	
		<rect x="1244.5" y="994" transform="matrix(3.893410e-02 -0.9992 0.9992 3.893410e-02 202.4019 2218.2881)" class="st4" width="19.8" height="19.8"/>
</g>
<g id="Arrow">
	<polygon class="st4" points="1480.2,1292.8 1460.3,1250.4 1450.7,1218.7 1514.8,1221.2 1504.7,1190.4 1343.4,1016.1 1333.6,1015.7 
		1322.5,1300.2 1391.3,1236.5 1417.2,1290.3 1436.6,1333.4 1455.8,1377.9 1497.9,1379.5 1513.4,1344.1 1500.2,1335.9 	"/>
	
		<rect x="1318.2" y="987.8" transform="matrix(0.9992 3.893438e-02 -3.893438e-02 0.9992 45.7892 -50.8465)" width="20.3" height="324.7"/>
	
		<rect x="1482.9" y="1167.1" transform="matrix(-3.893438e-02 0.9992 -0.9992 -3.893438e-02 2770.6118 -224.1064)" width="20.3" height="106.4"/>
	
		<rect x="1343" y="1016.5" transform="matrix(0.9992 3.893438e-02 -3.893438e-02 0.9992 40.996 -51.9052)" width="20.3" height="20.3"/>
	
		<rect x="1363.2" y="1038.1" transform="matrix(0.9992 3.893438e-02 -3.893438e-02 0.9992 41.8523 -52.6739)" width="20.3" height="20.3"/>
	
		<rect x="1383.3" y="1059.7" transform="matrix(0.9992 3.893438e-02 -3.893438e-02 0.9992 42.7087 -53.4426)" width="20.3" height="20.3"/>
	
		<rect x="1403.5" y="1081" transform="matrix(0.9992 3.893438e-02 -3.893438e-02 0.9992 43.5552 -54.2119)" width="20.3" height="20.3"/>
	
		<rect x="1423.6" y="1103.1" transform="matrix(0.9992 3.893438e-02 -3.893438e-02 0.9992 44.4312 -54.9795)" width="20.3" height="20.3"/>
	
		<rect x="1443.8" y="1125.2" transform="matrix(0.9992 3.893438e-02 -3.893438e-02 0.9992 45.3073 -55.747)" width="20.3" height="20.3"/>
	
		<rect x="1463.9" y="1146.8" transform="matrix(0.9992 3.893438e-02 -3.893438e-02 0.9992 46.1636 -56.5158)" width="20.3" height="20.3"/>
	
		<rect x="1484.1" y="1168.9" transform="matrix(0.9992 3.893438e-02 -3.893438e-02 0.9992 47.0397 -57.2833)" width="20.3" height="20.3"/>
	
		<rect x="1377.1" y="1226.2" transform="matrix(0.9992 3.893438e-02 -3.893438e-02 0.9992 49.1863 -53.0727)" width="20.3" height="20.3"/>
	
		<rect x="1355.1" y="1246.6" transform="matrix(0.9992 3.893438e-02 -3.893438e-02 0.9992 49.965 -52.2039)" width="20.3" height="20.3"/>
	
		<rect x="1333.2" y="1266.5" transform="matrix(0.9992 3.893438e-02 -3.893438e-02 0.9992 50.7257 -51.3362)" width="20.3" height="20.3"/>
	
		<rect x="1504.2" y="1190.8" transform="matrix(0.9992 3.893438e-02 -3.893438e-02 0.9992 47.9059 -58.0515)" width="20.3" height="20.3"/>
	
		<rect x="1439.1" y="1228.6" transform="matrix(0.9992 3.893438e-02 -3.893438e-02 0.9992 49.3276 -55.488)" width="20.3" height="20.3"/>
	
		<rect x="1459.5" y="1250.7" transform="matrix(0.9992 3.893438e-02 -3.893438e-02 0.9992 50.6307 -56.254)" width="20.3" height="42.1"/>
	
		<rect x="1396.9" y="1248.3" transform="matrix(0.9992 3.893438e-02 -3.893438e-02 0.9992 50.4883 -53.8198)" width="20.3" height="42.1"/>
	
		<rect x="1479.4" y="1293.1" transform="matrix(0.9992 3.893438e-02 -3.893438e-02 0.9992 52.297 -56.9987)" width="20.3" height="42.1"/>
	
		<rect x="1416.4" y="1290.7" transform="matrix(0.9992 3.893438e-02 -3.893438e-02 0.9992 52.1535 -54.5457)" width="20.3" height="42.1"/>
	
		<rect x="1499.3" y="1336.2" transform="matrix(0.9992 3.893438e-02 -3.893438e-02 0.9992 53.9896 -57.7419)" width="20.3" height="42.1"/>
	
		<rect x="1435.8" y="1333.8" transform="matrix(0.9992 3.893438e-02 -3.893438e-02 0.9992 53.845 -55.27)" width="20.3" height="42.1"/>
	
		<rect x="1466.3" y="1367.8" transform="matrix(-3.893438e-02 0.9992 -0.9992 -3.893438e-02 2921.7041 -32.4206)" width="20.3" height="42.1"/>
</g>
<g id="Prince">
	<path class="st5" d="M769.5,406.1l-14.3-13.6L687,464.2l-13.6,14.3l-14.3-13.6l-13.6,14.3l-13.6,14.3l-13.6,14.3l-13.6,14.3
		l-13.6,14.3l14.3,13.6l14.3,13.6l-27.3,28.7l157.8,149.9L968.2,513L810.4,363.1L769.5,406.1z"/>
	
		<rect x="955.8" y="405.2" transform="matrix(0.6888 -0.725 0.725 0.6888 -0.3771 829.2635)" class="st5" width="19.8" height="19.8"/>
	
		<rect x="998.8" y="446.1" transform="matrix(0.6888 -0.725 0.725 0.6888 -16.6264 873.1854)" class="st5" width="19.8" height="19.8"/>
	<polygon class="st1" points="854.9,459.9 841.3,474.2 827.6,488.6 814,502.9 828.3,516.6 842,502.2 856.3,515.8 869.9,501.5 
		883.6,487.2 869.2,473.5 	"/>
	<polygon class="st1" points="1076.5,370.2 1062.2,356.6 1047.8,343 1034.2,357.3 1020.6,371.7 1006.2,358.1 992.6,372.4 979,386.7 
		993.3,400.4 979.7,414.7 966.1,429.1 980.4,442.7 966.8,457 981.1,470.7 994.8,456.3 1008.4,442 1022,427.6 1036.4,441.3 
		1050.7,454.9 1064.3,440.5 1078,426.2 1091.6,411.9 1105.2,397.5 1090.9,383.9 	"/>
	<polygon class="st2" points="1022.7,455.6 1009.1,469.9 994.8,456.3 980.4,442.7 966.1,429.1 951.7,415.4 965.3,401.1 951,387.5 
		936.7,373.8 922.3,360.2 908.7,374.5 894.3,360.9 880.7,375.3 866.4,361.6 852.7,376 838.4,362.3 824.8,376.7 810.4,363.1 
		796.8,377.4 783.2,391.7 769.5,406.1 783.9,419.7 770.2,434.1 784.6,447.7 771,462 785.3,475.7 799.7,489.3 814,502.9 827.6,488.6 
		841.3,474.2 854.9,459.9 840.5,446.3 826.2,432.6 839.8,418.3 854.2,431.9 867.8,417.6 882.1,431.2 868.5,445.5 854.9,459.9 
		869.2,473.5 883.6,487.2 897.9,500.8 912.3,514.4 926.6,528 941,541.7 955.3,555.3 969.6,568.9 983.3,554.6 996.9,540.2 
		1010.5,525.9 1024.2,511.5 1037.8,497.2 1051.4,482.9 1037.1,469.2 	"/>
	<polygon class="st6" points="941.7,569.6 927.3,556 913,542.4 898.6,528.8 884.3,515.1 869.9,501.5 856.3,515.8 842,502.2 
		828.3,516.6 814,502.9 800.4,517.3 786.7,531.6 773.1,546 759.5,560.3 745.8,574.7 732.2,589 718.6,603.3 732.9,617 747.3,630.6 
		761.6,644.2 775.3,629.9 788.9,615.5 802.5,601.2 816.1,586.8 829.8,572.5 844.1,586.1 858.5,599.8 844.8,614.1 831.2,628.5 
		817.6,642.8 803.9,657.1 790.3,671.5 804.7,685.1 819,698.7 833.3,712.4 847,698 860.6,683.7 874.2,669.3 887.9,655 901.5,640.6 
		915.1,626.3 928.8,612 942.4,597.6 956,583.3 	"/>
	<polygon class="st7" points="1131.8,340.8 1118.1,355.2 1111,348.4 1124.6,334 1110.2,320.4 1096.6,334.7 1089.4,327.9 
		1103.1,313.6 1088.7,300 1075.1,314.3 1061.5,328.6 1075.8,342.3 1090.2,355.9 1104.5,369.5 1118.8,383.2 1132.5,368.8 
		1146.1,354.5 	"/>
	<polygon class="st8" points="720.7,687.3 734.4,672.9 748,658.6 761.6,644.2 747.3,630.6 732.9,617 718.6,603.3 705,617.7 
		691.3,632 677.7,646.4 664.1,660.7 650.4,675.1 664.8,688.7 679.1,702.3 693.5,716 707.8,729.6 721.5,715.2 707.1,701.6 	"/>
	<polygon class="st8" points="804.7,685.1 790.3,671.5 776.7,685.8 763.1,700.2 749.4,714.5 735.8,728.9 722.2,743.2 736.5,756.8 
		750.9,770.5 765.2,784.1 779.5,797.7 793.2,783.4 778.8,769.8 792.5,755.4 806.1,741.1 819.7,726.7 833.3,712.4 819,698.7 	"/>
	<polygon class="st8" points="883.6,487.2 869.9,501.5 884.3,515.1 898.6,528.8 912.3,514.4 897.9,500.8 	"/>
	<polygon class="st8" points="955.3,555.3 941,541.7 927.3,556 941.7,569.6 956,583.3 969.6,568.9 	"/>
	<polygon class="st3" points="1104.5,369.5 1090.2,355.9 1075.8,342.3 1061.5,328.6 1047.1,315 1033.5,329.4 1019.9,343.7 
		1006.2,358.1 1020.6,371.7 1034.2,357.3 1047.8,343 1062.2,356.6 1076.5,370.2 1090.9,383.9 1105.2,397.5 1091.6,411.9 
		1105.9,425.5 1119.6,411.1 1133.2,396.8 1118.8,383.2 	"/>
	<polygon class="st9" points="912.3,514.4 898.6,528.8 913,542.4 927.3,556 941,541.7 926.6,528 	"/>
</g>
<g id="Shepherd">
	<polygon class="st1" points="726.5,1313.9 706.9,1316.1 709.1,1335.7 711.3,1355.4 730.9,1353.2 728.7,1333.6 	"/>
	<polygon class="st1" points="429.4,1147.8 409.7,1150 390,1152.2 370.4,1154.4 372.6,1174 374.7,1193.7 376.9,1213.4 396.6,1211.2 
		416.3,1209 414.1,1189.3 411.9,1169.7 431.6,1167.5 	"/>
	<polygon class="st1" points="606.4,1128.2 586.7,1130.3 588.9,1150 608.6,1147.8 628.2,1145.6 626,1126 	"/>
	<polygon class="st1" points="637,1045.1 617.3,1047.3 597.6,1049.5 578,1051.7 580.1,1071.3 582.3,1091 602,1088.8 599.8,1069.2 
		619.5,1067 639.1,1064.8 658.8,1062.6 656.6,1042.9 	"/>
	<polygon class="st8" points="451.2,1523.7 449,1504 446.9,1484.3 444.7,1464.7 442.5,1445 440.3,1425.3 438.1,1405.7 435.9,1386 
		433.7,1366.3 431.6,1346.7 429.4,1327 427.2,1307.3 425,1287.7 422.8,1268 420.6,1248.3 418.4,1228.7 398.8,1230.9 401,1250.5 
		403.2,1270.2 405.3,1289.9 407.5,1309.5 409.7,1329.2 411.9,1348.9 414.1,1368.5 416.3,1388.2 418.4,1407.9 420.6,1427.5 
		422.8,1447.2 425,1466.9 427.2,1486.5 429.4,1506.2 431.6,1525.8 433.7,1545.5 435.9,1565.2 455.6,1563 453.4,1543.3 	"/>
	<polygon class="st8" points="403.2,1091 401.1,1072.2 401.1,1072.2 398.9,1052.5 379.2,1054.7 381.4,1074.4 381.4,1074.4 
		383.5,1093.2 	"/>
	<polygon class="st10" points="663.2,1101.9 661,1082.3 658.8,1062.6 639.1,1064.8 619.5,1067 599.8,1069.2 602,1088.8 582.3,1091 
		580.1,1071.3 578,1051.7 558.3,1053.9 560.5,1073.5 562.7,1093.2 564.9,1112.9 567,1132.5 586.7,1130.3 606.4,1128.2 626,1126 
		645.7,1123.8 665.4,1121.6 	"/>
	<polygon class="st3" points="674.1,1021.1 654.4,1023.3 652.3,1003.6 632.6,1005.8 630.4,986.1 610.7,988.3 591.1,990.5 
		571.4,992.7 551.7,994.9 553.9,1014.5 556.1,1034.2 536.4,1036.4 516.8,1038.6 497.1,1040.8 499.3,1060.4 519,1058.2 538.6,1056.1 
		558.3,1053.9 578,1051.7 597.6,1049.5 617.3,1047.3 637,1045.1 656.6,1042.9 676.3,1040.8 696,1038.6 693.8,1018.9 	"/>
	<polygon class="st11" points="720,1434.1 717.8,1414.4 715.6,1394.7 713.4,1375.1 711.3,1355.4 709.1,1335.7 706.9,1316.1 
		704.7,1296.4 702.5,1276.7 700.3,1257.1 698.1,1237.4 678.5,1239.6 658.8,1241.8 639.1,1244 619.5,1246.2 599.8,1248.3 
		580.1,1250.5 560.5,1252.7 540.8,1254.9 543,1274.6 545.2,1294.2 547.4,1313.9 549.6,1333.6 551.7,1353.2 553.9,1372.9 
		556.1,1392.6 558.3,1412.2 560.5,1431.9 562.7,1451.6 564.8,1471.2 567,1490.9 586.7,1488.7 606.4,1486.5 626,1484.3 623.8,1464.7 
		621.7,1445 619.5,1425.3 617.3,1405.7 615.1,1386 612.9,1366.3 610.7,1346.7 630.4,1344.5 650.1,1342.3 652.3,1362 654.4,1381.6 
		656.6,1401.3 658.8,1421 661,1440.6 663.2,1460.3 665.4,1480 685,1477.8 704.7,1475.6 724.4,1473.4 722.2,1453.7 	"/>
	
		<rect x="397.6" y="1210" transform="matrix(0.9939 -0.1104 0.1104 0.9939 -132.1869 52.4466)" class="st11" width="19.8" height="19.8"/>
	<polygon class="st11" points="407.5,1130.3 405.3,1110.7 403.2,1091 383.5,1093.2 385.7,1112.9 387.9,1132.5 390,1152.2 
		409.7,1150 	"/>
	<polygon class="st12" points="693.8,1198.1 691.6,1178.4 689.4,1158.8 687.2,1139.1 685,1119.4 665.4,1121.6 645.7,1123.8 
		647.9,1143.5 628.2,1145.6 608.6,1147.8 588.9,1150 569.2,1152.2 567,1132.5 547.4,1134.7 527.7,1136.9 529.9,1156.6 532.1,1176.2 
		534.3,1195.9 536.4,1215.6 538.6,1235.2 540.8,1254.9 560.5,1252.7 580.1,1250.5 599.8,1248.3 619.5,1246.2 617.3,1226.5 
		615.1,1206.8 612.9,1187.2 610.7,1167.5 630.4,1165.3 632.6,1185 634.8,1204.6 637,1224.3 639.1,1244 658.8,1241.8 678.5,1239.6 
		698.1,1237.4 696,1217.8 	"/>
	<polygon class="st9" points="630.4,1523.7 628.2,1504 626,1484.3 606.4,1486.5 586.7,1488.7 567,1490.9 569.2,1510.6 571.4,1530.2 
		573.6,1549.9 593.3,1547.7 612.9,1545.5 632.6,1543.3 652.3,1541.1 650.1,1521.5 	"/>
	<polygon class="st9" points="728.7,1512.7 726.5,1493.1 724.4,1473.4 704.7,1475.6 685,1477.8 665.4,1480 667.5,1499.6 
		669.7,1519.3 671.9,1539 691.6,1536.8 711.3,1534.6 730.9,1532.4 750.6,1530.2 748.4,1510.6 	"/>
	<polygon class="st9" points="536.4,1215.6 534.3,1195.9 532.1,1176.2 529.9,1156.6 527.7,1136.9 508,1139.1 510.2,1158.8 
		490.6,1160.9 492.7,1180.6 473.1,1182.8 475.3,1202.5 455.6,1204.6 453.4,1185 451.2,1165.3 431.6,1167.5 411.9,1169.7 
		414.1,1189.3 416.3,1209 418.5,1228.7 420.6,1248.3 422.8,1268 425,1287.7 444.7,1285.5 464.3,1283.3 484,1281.1 503.7,1278.9 
		501.5,1259.3 521.1,1257.1 519,1237.4 538.6,1235.2 	"/>
	
		<rect x="568.1" y="1131.4" transform="matrix(0.9939 -0.1104 0.1104 0.9939 -122.4592 70.7805)" class="st9" width="19.8" height="19.8"/>
	
		<rect x="627.1" y="1124.8" transform="matrix(0.9939 -0.1104 0.1104 0.9939 -121.4093 77.2782)" class="st9" width="19.8" height="19.8"/>
	<polygon class="st9" points="610.7,1167.5 612.9,1187.2 615.1,1206.8 617.3,1226.5 619.5,1246.2 639.1,1244 637,1224.3 
		634.8,1204.6 632.6,1185 630.4,1165.3 628.2,1145.6 608.6,1147.8 	"/>
	<polygon class="st9" points="689.4,1158.8 691.6,1178.4 693.8,1198.1 696,1217.8 698.1,1237.4 700.3,1257.1 702.5,1276.7 
		704.7,1296.4 706.9,1316.1 726.5,1313.9 724.4,1294.2 722.2,1274.6 720,1254.9 717.8,1235.2 715.6,1215.6 713.4,1195.9 
		711.3,1176.2 709.1,1156.6 706.9,1136.9 704.7,1117.2 685,1119.4 687.2,1139.1 	"/>
</g>
<g id="Sheep">
	<polygon class="st11" points="1755.2,1157.3 1736.4,1157.8 1736.9,1177.5 1737.4,1197.3 1756.2,1196.8 1755.7,1177.1 	"/>
	<polygon class="st11" points="1811.6,1155.8 1792.8,1156.3 1774,1156.8 1774.5,1176.6 1775,1196.4 1793.8,1195.9 1812.7,1195.4 
		1812.1,1175.6 	"/>
	<polygon class="st11" points="1968.7,1151.8 1948.9,1152.3 1949.4,1172.1 1950,1191.9 1969.7,1191.4 1969.2,1171.6 	"/>
	<polygon class="st11" points="2028.6,1170.1 2028.1,1150.3 2008.3,1150.8 1988.5,1151.3 1989,1171.1 1989.5,1190.9 2009.3,1190.4 
		2029.1,1189.9 	"/>
	<polygon class="st12" points="1736.4,1157.8 1717.6,1158.2 1718.1,1178 1718.6,1197.8 1737.4,1197.3 1736.9,1177.5 	"/>
	<polygon class="st12" points="1948.9,1152.3 1929.2,1152.9 1929.7,1172.6 1930.2,1192.4 1950,1191.9 1949.4,1172.1 	"/>
	<polygon class="st9" points="1754.2,1117.7 1753.7,1097.9 1753.2,1078.2 1734.4,1078.6 1715.5,1079.1 1716,1098.9 1716.5,1118.7 
		1717.1,1138.5 1717.6,1158.2 1736.4,1157.8 1755.2,1157.3 1754.7,1137.5 	"/>
	<polygon class="st9" points="1810.6,1116.3 1810.1,1096.5 1809.6,1076.7 1790.8,1077.2 1772,1077.7 1772.5,1097.5 1773,1117.2 
		1773.5,1137 1774,1156.8 1792.8,1156.3 1811.6,1155.8 1811.1,1136.1 	"/>
	<polygon class="st9" points="1967.7,1112.3 1967.2,1092.5 1966.7,1072.7 1946.9,1073.2 1927.1,1073.7 1927.6,1093.5 1928.2,1113.3 
		1928.7,1133.1 1929.2,1152.9 1948.9,1152.3 1968.7,1151.8 1968.2,1132.1 	"/>
	<polygon class="st9" points="2027.1,1110.8 2026.6,1091 2026,1071.2 2006.3,1071.7 1986.5,1072.2 1987,1092 1987.5,1111.8 
		1988,1131.6 1988.5,1151.3 2008.3,1150.8 2028.1,1150.3 2027.6,1130.5 	"/>
	<polygon class="st12" points="2123.8,1025.5 2123.3,1005.7 2103.6,1006.2 2083.8,1006.8 2064,1007.3 2064.5,1027 2084.3,1026.5 
		2084.8,1046.3 2104.6,1045.8 2104.1,1026 	"/>
	<polygon class="st13" points="2121.3,926.6 2120.8,906.8 2101,907.3 2081.3,907.8 2061.5,908.4 2061,888.6 2041.2,889.1 
		2039.5,823.4 1709.2,831.9 1709.7,851.7 1692.6,852.1 1698.1,1069.7 1715.3,1069.3 1715.8,1089 2046.1,1080.6 2042.2,928.6 
		2062,928.1 2062.5,947.9 2082.3,947.4 2102.1,946.9 2121.8,946.4 	"/>
	
		<rect x="1674.9" y="951.3" transform="matrix(0.9997 -2.550065e-02 2.550065e-02 0.9997 -23.9625 43.2629)" class="st9" width="18.8" height="19.8"/>
	<polygon class="st9" points="1656.8,991.6 1657.3,1011.3 1676.1,1010.9 1675.6,991.1 1675.1,971.3 1656.3,971.8 	"/>
	<polygon class="st9" points="2082.3,947.4 2062.5,947.9 2062,928.1 2042.2,928.6 2022.4,929.1 2022.9,948.9 2042.7,948.4 
		2043.2,968.2 2043.7,988 2044.2,1007.8 2044.7,1027.5 2045.2,1047.3 2065,1046.8 2084.8,1046.3 2084.3,1026.5 2064.5,1027 
		2064,1007.3 2083.8,1006.8 2103.6,1006.2 2123.3,1005.7 2122.8,986 2122.3,966.2 2121.8,946.4 2102.1,946.9 	"/>
	
		<rect x="2104.3" y="1025.8" transform="matrix(0.9997 -2.550971e-02 2.550971e-02 0.9997 -25.7315 54.2699)" class="st9" width="19.8" height="19.8"/>
	
		<rect x="2121.6" y="926.4" transform="matrix(0.9997 -2.550971e-02 2.550971e-02 0.9997 -23.19 54.6778)" class="st9" width="19.8" height="19.8"/>
	
		<rect x="2141.9" y="945.6" transform="matrix(0.9997 -2.549501e-02 2.549501e-02 0.9997 -23.6619 55.1696)" class="st9" width="19.8" height="19.8"/>
	
		<rect x="2003.4" y="949.2" transform="matrix(0.9997 -2.549576e-02 2.549576e-02 0.9997 -23.7976 51.6421)" class="st9" width="19.8" height="19.8"/>
	<polygon class="st14" points="1769.3,935.6 1768.8,915.8 1749,916.3 1748.5,896.5 1728.8,897 1729.3,916.8 1729.8,936.6 
		1730.3,956.4 1750.1,955.9 1769.8,955.4 1789.6,954.9 1789.1,935.1 	"/>
	<polygon class="st14" points="1980.7,844.7 1960.9,845.2 1941.1,845.7 1941.6,865.5 1961.4,865 1981.2,864.5 	"/>
</g>
<g id="Objects">
	
		<rect x="872.9" y="1441.1" transform="matrix(0.4112 -0.9115 0.9115 0.4112 -775.3087 1704.5892)" class="st2" width="118" height="22.7"/>
	
		<rect x="1541.1" y="626" transform="matrix(0.9924 0.1227 -0.1227 0.9924 95.8203 -185.3803)" class="st15" width="22.7" height="118"/>
	
		<rect x="1718.5" y="492.1" transform="matrix(0.9924 0.1227 -0.1227 0.9924 80.7272 -208.1645)" class="st16" width="22.7" height="118"/>
	
		<rect x="1269.8" y="358.9" transform="matrix(0.4972 0.8676 -0.8676 0.4972 1006.7866 -901.4973)" class="st17" width="22.7" height="118"/>
	
		<rect x="1548.8" y="1528" transform="matrix(0.5972 0.8021 -0.8021 0.5972 1901.4049 -612.075)" class="st15" width="22.7" height="118"/>
	
		<rect x="818.7" y="881.4" transform="matrix(-0.8676 0.4972 -0.4972 -0.8676 2017.8464 1343.7063)" class="st16" width="22.7" height="118"/>
</g>
</svg>
