<?xml version="1.0" encoding="utf-8"?>
<!-- Generator: Adobe Illustrator 21.0.2, SVG Export Plug-In . SVG Version: 6.00 Build 0)  -->
<svg version="1.1" id="Слой_1" xmlns="http://www.w3.org/2000/svg" xmlns:xlink="http://www.w3.org/1999/xlink" x="0px" y="0px"
	 viewBox="0 0 2500 2000" style="enable-background:new 0 0 2500 2000;" xml:space="preserve">
<style type="text/css">
	.st0{fill:#1DFFE9;}
	.st1{fill:#FFE428;}
	.st2{fill:#FF64F7;}
	.st3{fill:#010001;}
	.st4{fill:url(#SVGID_1_);}
	.st5{fill:url(#SVGID_2_);}
	.st6{fill:#FFFF05;}
	.st7{fill:#9400F4;}
	.st8{fill:#00FFC0;}
	.st9{fill:#34332F;}
	.st10{fill:#585756;}
	.st11{fill:#494949;}
	.st12{fill:#9AD605;}
	.st13{fill:#938E7C;}
	.st14{fill:#777777;}
	.st15{fill:#FFFFFF;}
	.st16{fill:url(#SVGID_3_);}
</style>
<g id="Light">
	<polygon class="st0" points="1017.3,550.1 1829.7,1423.5 1982.7,1423.5 	"/>
	<polygon class="st0" points="1664.7,1620.3 1866.4,1620.3 1017.3,550.1 	"/>
	<polygon class="st1" points="845.2,1620.3 724.1,1620.3 924.4,574 	"/>
	<polygon class="st2" points="924.4,574 845.2,1620.3 1664.7,1620.3 1017.3,550.1 	"/>
	<path class="st1" d="M924.4,574c0,0-298,686.2-296,679.5c2-6.8,95.1,0,95.1,0L924.4,574z"/>
	<ellipse class="st3" cx="1294.7" cy="1620.3" rx="570.7" ry="48.1"/>
</g>
<g id="UFO">
	
		<ellipse transform="matrix(0.9685 -0.2488 0.2488 0.9685 -26.0654 226.3502)" class="st1" cx="882.3" cy="216.3" rx="10.6" ry="10.6"/>
	
		<rect x="884.5" y="215.7" transform="matrix(0.9686 -0.2488 0.2488 0.9686 -30.7211 228.1465)" class="st1" width="5.6" height="39.9"/>
	<radialGradient id="SVGID_1_" cx="988.4678" cy="291.6023" r="276.4197" gradientUnits="userSpaceOnUse">
		<stop  offset="0" style="stop-color:#FFFFFF"/>
		<stop  offset="2.049065e-02" style="stop-color:#FEF4F9"/>
		<stop  offset="0.1353" style="stop-color:#F8BCD7"/>
		<stop  offset="0.2536" style="stop-color:#F28ABA"/>
		<stop  offset="0.3728" style="stop-color:#ED5FA1"/>
		<stop  offset="0.493" style="stop-color:#EA3D8D"/>
		<stop  offset="0.6147" style="stop-color:#E7227D"/>
		<stop  offset="0.7382" style="stop-color:#E50F72"/>
		<stop  offset="0.865" style="stop-color:#E3046B"/>
		<stop  offset="1" style="stop-color:#E30069"/>
	</radialGradient>
	<path class="st4" d="M1097.9,372.6c8.6,33.6,6.6,67.4-3.9,97.8c-23.9-9.3-80.6-5.8-144,10.5c-63.4,16.3-114.7,40.5-131.3,60.2
		c-23.9-21.6-42-50.2-50.6-83.8c-23.4-91.1,31.4-183.9,122.5-207.3S1074.5,281.5,1097.9,372.6z"/>
	<path class="st3" d="M850.8,374.8c-23.1,10.5-45.1,21.5-65.8,32.8c4.1-60.3,40.3-116,98-142.9C860.2,296.3,848.4,335.2,850.8,374.8
		z"/>
	<path class="st0" d="M1306.2,377.6L565.7,567.9c-11.7-45.7,78.1-117.3,215.7-171.5c22-8.6,45.2-16.9,69.4-24.4
		c17.9-5.6,36.3-10.9,55.2-15.7C1110.5,303.7,1291.2,319.3,1306.2,377.6z"/>
	
		<ellipse transform="matrix(0.9685 -0.2488 0.2488 0.9685 -88.1973 247.748)" class="st1" cx="935.9" cy="472.8" rx="382.3" ry="97.9"/>
	
		<ellipse transform="matrix(0.9685 -0.2488 0.2488 0.9685 -89.5991 248.3033)" class="st3" cx="937.4" cy="478.6" rx="382.3" ry="91.9"/>
	<radialGradient id="SVGID_2_" cx="988.4678" cy="291.6023" r="276.4197" gradientUnits="userSpaceOnUse">
		<stop  offset="0" style="stop-color:#FFFFFF"/>
		<stop  offset="2.049065e-02" style="stop-color:#FEF4F9"/>
		<stop  offset="0.1353" style="stop-color:#F8BCD7"/>
		<stop  offset="0.2536" style="stop-color:#F28ABA"/>
		<stop  offset="0.3728" style="stop-color:#ED5FA1"/>
		<stop  offset="0.493" style="stop-color:#EA3D8D"/>
		<stop  offset="0.6147" style="stop-color:#E7227D"/>
		<stop  offset="0.7382" style="stop-color:#E50F72"/>
		<stop  offset="0.865" style="stop-color:#E3046B"/>
		<stop  offset="1" style="stop-color:#E30069"/>
	</radialGradient>
	<path class="st5" d="M1094,470.5c-6.1,17.7-15.2,34.4-26.7,49.2c-22.4,28.7-54,50.5-91.9,60.3c-37.9,9.7-76.2,5.9-109.6-8.5
		c-17.2-7.4-33.1-17.6-47.1-30.2c2.7-3.1,6.1-6.4,10.4-9.7c9.9-7.7,24-15.6,41.3-23.3c22.2-10,49.5-19.5,79.6-27.2
		C1013.4,464.7,1070.1,461.1,1094,470.5z"/>
	
		<ellipse transform="matrix(0.9685 -0.2488 0.2488 0.9685 -74.1788 242.1942)" class="st6" cx="920.9" cy="414.5" rx="11.4" ry="11.4"/>
	
		<ellipse transform="matrix(0.9685 -0.2488 0.2488 0.9685 -65.7677 266.9341)" class="st6" cx="1023" cy="393.6" rx="11.4" ry="11.4"/>
	
		<ellipse transform="matrix(0.9685 -0.2488 0.2488 0.9685 -58.8064 292.2484)" class="st6" cx="1126.6" cy="378.7" rx="11.4" ry="11.4"/>
	
		<ellipse transform="matrix(0.9685 -0.2488 0.2488 0.9685 -84.9932 218.4064)" class="st6" cx="821.4" cy="445.4" rx="11.4" ry="11.4"/>
	
		<ellipse transform="matrix(0.9685 -0.2488 0.2488 0.9685 -97.2575 195.193)" class="st6" cx="723.5" cy="482.3" rx="11.4" ry="11.4"/>
	
		<ellipse transform="matrix(0.9685 -0.2488 0.2488 0.9685 -112.1732 173.03)" class="st6" cx="628.4" cy="530.2" rx="11.4" ry="11.4"/>
	
		<ellipse transform="matrix(0.9685 -0.2488 0.2488 0.9685 -54.4967 318.6132)" class="st6" cx="1233.1" cy="374.9" rx="11.4" ry="11.4"/>
	<path class="st3" d="M947.6,564.3c-43.7,8.5-87.2-4.8-118.4-32.8c9.9-7.7,24-15.6,41.3-23.3c1.2-0.3,2.4-0.5,3.7-0.7
		C891.4,534.5,917.6,554.5,947.6,564.3z"/>
	<path class="st3" d="M1019.6,553.2c2,7.9-17.8,19.9-44.2,26.7c-26.5,6.8-49.6,5.9-51.6-2.1c-0.3-1.2-0.1-2.5,0.6-3.9
		c3.6-7.6,21.2-17,43.7-22.8c22.5-5.8,42.5-6,49.3-1.1C1018.5,551,1019.3,552,1019.6,553.2z"/>
	<path class="st6" d="M1017.3,550.1c-3.6,7.6-21.2,17-43.7,22.8s-42.5,6-49.3,1.1c3.6-7.6,21.2-17,43.7-22.8
		C990.5,545.4,1010.5,545.2,1017.3,550.1z"/>
</g>
<g id="Glitch">
	<rect x="874.8" y="898.1" class="st7" width="128.6" height="44"/>
	<rect x="1490.4" y="1416" class="st1" width="128.6" height="44"/>
	<rect x="491" y="642.9" class="st8" width="128.6" height="44"/>
	<rect x="1785" y="801.1" class="st7" width="128.6" height="44"/>
	<rect x="541.4" y="1231.5" class="st3" width="128.6" height="44"/>
	<rect x="1335.3" y="1448.9" class="st3" width="255.4" height="36.5"/>
	<rect x="1703.7" y="848.1" class="st7" width="128.6" height="22"/>
	<rect x="1644.7" y="1645.4" class="st7" width="128.6" height="22"/>
	<rect x="1538.2" y="875.1" class="st9" width="128.6" height="22"/>
	<rect x="1785" y="913.6" class="st1" width="128.6" height="22"/>
	<rect x="1438" y="619.2" class="st8" width="128.6" height="22"/>
	<rect x="591.8" y="718.2" class="st2" width="128.6" height="22"/>
	<rect x="670.6" y="1590.7" class="st2" width="128.6" height="22"/>
	<rect x="717.9" y="1609.3" class="st0" width="170.5" height="44.8"/>
	<rect x="1185" y="414.9" class="st2" width="128.6" height="22"/>
	<rect x="1348.2" y="1281.4" class="st7" width="128.6" height="22"/>
	<rect x="793.5" y="1056.3" class="st3" width="128.6" height="11"/>
	<rect x="909.2" y="1685.1" class="st10" width="128.6" height="11"/>
	<rect x="1499.5" y="864.2" class="st10" width="128.6" height="11"/>
	<rect x="744.4" y="1044.4" class="st10" width="96.3" height="11"/>
	<rect x="1472" y="597.2" class="st7" width="128.6" height="22"/>
	<rect x="950.6" y="864.1" class="st7" width="128.6" height="22"/>
	<rect x="1351.5" y="1519.9" class="st10" width="128.6" height="11"/>
</g>
<g id="Phone">
	<path class="st9" d="M1603.1,687.5c-15-2.2-29,0.5-46.8,20.8l-120.9,152.4l30.5,4.5l-19.2,24.2l54.2,8L1621.9,745
		C1640.6,721.9,1628.4,691.2,1603.1,687.5z"/>
	<path class="st11" d="M1554.4,859.6c-1.5,15.9-9,14-17.9,3.8c-1.2-1.4-2.5-2.9-3.7-4.6c-14.7-19.7-31.2-57.2-30.4-72.8
		c1.3-26.6,11.4-29,11.4-29c9.5,8.8,30.4,38.3,38.1,71.1c0.6,2.7,1.2,5.3,1.6,8C1554.7,843.9,1555.1,851.8,1554.4,859.6z"/>
	<path class="st11" d="M856.7,1421.5c-0.6,1.8-1.3,3.6-2.1,5.3c-6.3,13.5-17,21.5-26.1,13.3c-5-4.4-10-11.3-14.5-19.3
		c-1.1-2-2.2-4-3.3-6.1c-11-21.8-18.3-49.9-14.4-65.8c0,0,36.3,2.7,56.3,29.7C861.6,1390.8,861.4,1407.9,856.7,1421.5z"/>
	<path class="st11" d="M1505.2,810.4l-80.7-12c-43.2-6.4-99.6,12.5-133.6,44.9l-71.6,68.1c-4.1,3.9-7.7,7.9-11,11.9l-374.4,471.9
		c-21.9,27.6-11.2,54.2,23.9,59.4l163.2,24.2c35.1,5.2,81.3-13,103.2-40.6l374.4-471.9c3.2-4.1,6-8.2,8.3-12.3l40.1-72.7
		C1566.1,846.7,1548.5,816.8,1505.2,810.4z"/>
	<path class="st10" d="M1478.3,742.4l-80.7-12c-43.2-6.4-99.6,12.5-133.6,44.9l-71.6,68.1c-4.1,3.9-7.7,7.9-11,11.9L807,1327.3
		c-21.9,27.6-11.2,54.2,23.9,59.4l163.2,24.2c35.1,5.2,81.3-13,103.2-40.6l374.4-471.9c3.2-4.1,6-8.2,8.3-12.3l40.1-72.7
		C1539.2,778.7,1521.6,748.8,1478.3,742.4z"/>
	<path class="st3" d="M1293.1,1063.4l-204.9-30.4c-16.1-2.4-21-14.6-11-27.2l92.8-117c9-11.4,27.3-19.5,42.9-19l223.7,6.6
		c19.2,0.6,26.5,13.6,15.4,27.6l-111.7,140.8C1330.4,1057.4,1309.2,1065.7,1293.1,1063.4z"/>
	<path class="st12" d="M1371.9,964.2l-49.5,62.5c-9.6,12-27.9,20.2-41.1,18.2l-157.5-23.3c-1-0.1-1.8-0.3-2.6-0.6
		c-10.9-3-12.8-13.5-3.9-24.7l49.6-62.5c9.5-12,27.9-20.2,41-18.2l157.5,23.3c7.1,1.1,11.2,4.8,12,9.9
		C1378.1,953.2,1376.4,958.6,1371.9,964.2z"/>
	<path class="st6" d="M1371.9,964.2l-49.5,62.5c-9.6,12-27.9,20.2-41.1,18.2l-157.5-23.3c-1-0.1-1.8-0.3-2.6-0.6
		c-0.7-4.4,1-9.8,5.4-15.4l49.6-62.5c9.5-12,27.9-20.2,41-18.2l157.5,23.3c1,0.1,1.8,0.3,2.6,0.6
		C1378.1,953.2,1376.4,958.6,1371.9,964.2z"/>
	<path class="st9" d="M981.8,1390.7c-1.1,0-2.2-0.1-3.2-0.2l-103.2-15.3c-4.9-0.7-8.4-3.2-9.9-6.9c-1.7-4.3-0.4-9.7,3.7-14.8
		c7.1-9,20.5-14.9,30.5-13.4l103.2,15.3c4.9,0.7,8.4,3.2,9.9,6.9c1.7,4.3,0.4,9.7-3.7,14.8C1002.6,1385.1,991.2,1390.7,981.8,1390.7
		z M896.5,1345.5c-7.7,0-17.7,4.9-22.9,11.5c-2.7,3.4-3.8,6.9-2.9,9.2c0.9,2.3,3.5,3.1,5.5,3.4l103.2,15.3c7.9,1.2,19.4-4,25.3-11.3
		c2.7-3.4,3.8-6.9,2.9-9.2c-0.9-2.3-3.5-3.1-5.5-3.4l-103.2-15.3C898.1,1345.5,897.3,1345.5,896.5,1345.5z"/>
	<polygon class="st13" points="1179.4,1117 1101.8,1105.5 1136.5,1061.8 1214.1,1073.3 	"/>
	<path class="st14" d="M1424.8,821.3c-22.6,28.5-70.4,47.3-106.7,41.9s-47.3-32.9-24.7-61.4c22.6-28.5,70.4-47.3,106.7-41.9
		S1447.4,792.7,1424.8,821.3z"/>
	<path class="st10" d="M1365.5,812.5c-2.2,2.8-6.9,4.6-10.5,4.1c-3.6-0.5-4.6-3.2-2.4-6c2.2-2.8,6.9-4.6,10.5-4.1
		C1366.6,807,1367.7,809.7,1365.5,812.5z"/>
	<path class="st9" d="M1492,818.3c-8.7,11-27.2,18.3-41.2,16.2c-14-2.1-18.3-12.7-9.5-23.7c8.7-11,27.2-18.3,41.2-16.2
		C1496.5,796.7,1500.7,807.3,1492,818.3z"/>
	<path class="st14" d="M1477.3,816.1c-3.7,4.6-11.5,7.7-17.4,6.8c-5.9-0.9-7.7-5.3-4-10c3.7-4.6,11.5-7.7,17.4-6.8
		C1479.2,807,1481,811.5,1477.3,816.1z"/>
	<polygon class="st13" points="1401.5,920 1303.8,905.6 1314.5,892.1 1412.2,906.5 	"/>
	<path class="st9" d="M1121.5,1179.6c-7,8.9-26.8,14-44.1,11.4c-17.3-2.6-25.7-11.8-18.6-20.7c7-8.9,26.8-14,44.1-11.4
		C1120.2,1161.4,1128.5,1170.7,1121.5,1179.6z"/>
	<path class="st9" d="M1208,1192.4c-7,8.9-26.8,14-44.1,11.4c-17.3-2.6-25.7-11.8-18.6-20.7s26.8-14,44.1-11.4
		S1215,1183.5,1208,1192.4z"/>
	<path class="st9" d="M1035,1166.7c-7,8.9-26.8,14-44.1,11.4s-25.7-11.8-18.6-20.7c7-8.9,26.8-14,44.1-11.4
		S1042.1,1157.9,1035,1166.7z"/>
	<path class="st9" d="M1097,1086.7c-11.7,6.8-29,5.1-38.6-4s-7.9-21.9,3.8-28.7c11.7-6.8,29-5.1,38.6,4
		C1110.4,1067,1108.7,1079.9,1097,1086.7z"/>
	<path class="st9" d="M1082.6,1228.5c-7,8.9-26.8,14-44.1,11.4c-17.3-2.6-25.7-11.8-18.6-20.7s26.8-14,44.1-11.4
		C1081.3,1210.4,1089.7,1219.7,1082.6,1228.5z"/>
	<path class="st9" d="M1169.1,1241.4c-7,8.9-26.8,14-44.1,11.4c-17.3-2.6-25.7-11.8-18.6-20.7c7-8.9,26.8-14,44.1-11.4
		C1167.8,1223.2,1176.1,1232.5,1169.1,1241.4z"/>
	<path class="st9" d="M996.2,1215.7c-7,8.9-26.8,14-44.1,11.4s-25.7-11.8-18.6-20.7c7-8.9,26.8-14,44.1-11.4
		S1003.2,1206.9,996.2,1215.7z"/>
	<path class="st9" d="M1043.8,1277.5c-7,8.9-26.8,14-44.1,11.4c-17.3-2.6-25.7-11.8-18.6-20.7c7-8.9,26.8-14,44.1-11.4
		C1042.5,1259.4,1050.8,1268.7,1043.8,1277.5z"/>
	<path class="st9" d="M1130.3,1290.3c-7,8.9-26.8,14-44.1,11.4c-17.3-2.6-25.7-11.8-18.6-20.7s26.8-14,44.1-11.4
		S1137.3,1281.5,1130.3,1290.3z"/>
	<path class="st9" d="M957.3,1264.7c-7,8.9-26.8,14-44.1,11.4s-25.7-11.8-18.6-20.7c7-8.9,26.8-14,44.1-11.4
		S964.4,1255.9,957.3,1264.7z"/>
	<path class="st9" d="M1004.9,1326.5c-7,8.9-26.8,14-44.1,11.4c-17.3-2.6-25.7-11.8-18.6-20.7c7-8.9,26.8-14,44.1-11.4
		S1012,1317.7,1004.9,1326.5z"/>
	<path class="st9" d="M1091.4,1339.3c-7,8.9-26.8,14-44.1,11.4c-17.3-2.6-25.7-11.8-18.6-20.7c7-8.9,26.8-14,44.1-11.4
		C1090.1,1321.2,1098.4,1330.5,1091.4,1339.3z"/>
	<path class="st9" d="M918.5,1313.7c-7,8.9-26.8,14-44.1,11.4s-25.7-11.8-18.6-20.7c7-8.9,26.8-14,44.1-11.4
		S925.5,1304.9,918.5,1313.7z"/>
	
		<rect x="1157.7" y="1066" transform="matrix(0.1465 -0.9892 0.9892 0.1465 -81.879 2073.208)" class="st15" width="5.6" height="36.2"/>
	<path class="st13" d="M1284.2,1079.4l-23.1,29.1c-5.8-0.5-12.5,1.5-17.6,4.8l-37.9-5.6C1224.4,1088.3,1257.8,1076.1,1284.2,1079.4z
		"/>
	<path class="st13" d="M1242.5,1132l-23.1,29.1c-25.6-4.4-34.5-22.9-21.9-43.2l37.9,5.6C1234.8,1127.5,1237.3,1130.8,1242.5,1132z"
		/>
	<path class="st9" d="M1553.4,836.1l-17,27.3l-37.5,60.3c-2.3,4.1-5.2,8.4-8.5,12.6l-374.4,471.9c-19.8,25-59.3,42.5-93,42.5
		c-4.4,0-8.7-0.3-12.8-0.9l-155.8-23.1l-40.6-6c-1.1-2-2.2-4-3.3-6.1l46,6.8l154.5,22.8c34.2,5.1,79.3-12.7,100.6-39.5l374.4-471.9
		c3.1-3.9,5.8-8,8-12l38.6-62.2l19.1-30.8C1552.5,830.7,1553,833.4,1553.4,836.1z"/>
	<linearGradient id="SVGID_3_" gradientUnits="userSpaceOnUse" x1="1205.1527" y1="1080.0415" x2="1220.0753" y2="787.1866">
		<stop  offset="0" style="stop-color:#CCE0F4;stop-opacity:0"/>
		<stop  offset="0.1066" style="stop-color:#C8DEDA;stop-opacity:0.1347"/>
		<stop  offset="0.3355" style="stop-color:#BDD896;stop-opacity:0.4238"/>
		<stop  offset="0.6661" style="stop-color:#ADCE2B;stop-opacity:0.8414"/>
		<stop  offset="0.7917" style="stop-color:#A6CA00"/>
	</linearGradient>
	<path class="st16" d="M1207.9,915.5c-3.5-0.5-7.4-0.2-11.4,0.6v116.2l28,4.1V918L1207.9,915.5z"/>
</g>
</svg>
