<?xml version="1.0" encoding="utf-8"?>
<!-- Generator: Adobe Illustrator 21.0.2, SVG Export Plug-In . SVG Version: 6.00 Build 0)  -->
<svg version="1.1" id="Слой_1" xmlns="http://www.w3.org/2000/svg" xmlns:xlink="http://www.w3.org/1999/xlink" x="0px" y="0px"
	 viewBox="0 0 2500 2000" style="enable-background:new 0 0 2500 2000;" xml:space="preserve">
<style type="text/css">
	.st0{fill:#D3CD00;}
	.st1{fill:#0029FA;}
	.st2{fill:#27FFA2;}
	.st3{fill:#FAFAFA;}
	.st4{fill:#C0C0C0;}
	.st5{fill:#0F0F0F;}
	.st6{fill:url(#SVGID_1_);}
	.st7{fill:#FFFFFF;}
	.st8{fill:#1B1B19;}
</style>
<g id="Folder_Back">
	<polygon points="1372.1,1077.2 1258.1,963.2 1010.9,963.2 896.9,1077.2 896.9,1725 1718.5,1725 1718.5,1077.2 	"/>
	<polygon class="st0" points="1337.1,1031.3 1223.1,917.3 969.5,917.3 851,1035.8 851,1694.7 1688.2,1694.7 1688.2,1031.3 	"/>
</g>
<g id="Windows">
	<g>
		<rect x="781.5" y="293.9" class="st1" width="679.4" height="292.5"/>
		<path class="st2" d="M1468.6,594.2H773.7v-308h694.9V594.2z M789.2,578.7h663.8v-277H789.2V578.7z"/>
		<rect x="781.5" y="241" width="679.4" height="52.9"/>
		<path class="st2" d="M1468.6,301.7H773.7v-68.4h694.9V301.7z M789.2,286.2h663.8v-37.4H789.2V286.2z"/>
	</g>
	<g>
		<rect x="836" y="321.9" width="679.4" height="52.9"/>
		<path class="st2" d="M1523.1,382.5H828.2v-68.4h694.9V382.5z M843.8,367h663.8v-37.4H843.8V367z"/>
		<rect x="836" y="374.7" class="st1" width="679.4" height="292.5"/>
		<path class="st2" d="M1523.1,675H828.2V367h694.9V675z M843.8,659.5h663.8v-277H843.8V659.5z"/>
	</g>
	<g>
		<rect x="1029.9" y="408.4" class="st1" width="679.4" height="292.5"/>
		<path class="st2" d="M1717,708.7h-694.9v-308H1717V708.7z M1037.6,693.2h663.9v-277h-663.9V693.2z"/>
		<rect x="1029.9" y="355.6" width="679.4" height="52.9"/>
		<path class="st2" d="M1717,416.2h-694.9v-68.4H1717V416.2z M1037.6,400.7h663.9v-37.4h-663.9V400.7z"/>
	</g>
	<g>
		<rect x="874.8" y="511.2" class="st1" width="679.4" height="292.5"/>
		<path class="st2" d="M1561.9,811.5H867.1v-308h694.9V811.5z M882.6,796h663.8V519H882.6V796z"/>
		<rect x="874.8" y="458.3" width="679.4" height="52.9"/>
		<path class="st2" d="M1561.9,519H867.1v-68.4h694.9V519z M882.6,503.5h663.8v-37.4H882.6V503.5z"/>
		<rect x="1021.5" y="587.8" class="st3" width="385.9" height="108.1"/>
		<polygon points="1407.5,587.8 1407.5,695.8 1021.5,695.8 1033.8,685.3 1033.8,598.3 1395.2,598.3 		"/>
		<rect x="1033.8" y="598.3" class="st4" width="361.4" height="87"/>
		<rect x="1220.7" y="622.1" width="7.8" height="39.4"/>
		<polygon points="1248.6,662.4 1219.6,640.7 1242.8,620.4 1247.9,626.3 1232,640.2 1253.3,656.2 		"/>
		<path class="st5" d="M1192.4,663.9c-10,0-18.2-8.2-18.2-18.2v-9.2c0-10,8.2-18.2,18.2-18.2c10,0,18.2,8.2,18.2,18.2v9.2
			C1210.6,655.7,1202.4,663.9,1192.4,663.9z M1192.4,626c-5.8,0-10.4,4.7-10.4,10.4v9.2c0,5.8,4.7,10.4,10.4,10.4
			c5.8,0,10.4-4.7,10.4-10.4v-9.2C1202.8,630.7,1198.1,626,1192.4,626z"/>
	</g>
	<g>
		<rect x="617.5" y="639.7" class="st1" width="679.4" height="292.5"/>
		<path class="st2" d="M1304.6,940H609.8V632h694.9V940z M625.3,924.5h663.8v-277H625.3V924.5z"/>
		<rect x="617.5" y="586.8" width="679.4" height="52.9"/>
		<path class="st2" d="M1304.6,647.5H609.8v-68.4h694.9V647.5z M625.3,632h663.8v-37.4H625.3V632z"/>
		<rect x="764.2" y="716.3" class="st3" width="385.9" height="108.1"/>
		<polygon points="1150.2,716.3 1150.2,824.3 764.2,824.3 776.5,813.8 776.5,726.8 1137.9,726.8 		"/>
		<rect x="776.5" y="726.8" class="st4" width="361.4" height="87"/>
		<rect x="963.4" y="750.6" width="7.8" height="39.4"/>
		<polygon points="991.3,790.9 962.4,769.2 985.5,748.9 990.6,754.8 974.7,768.7 996,784.7 		"/>
		<path class="st5" d="M935.1,792.4c-10,0-18.2-8.2-18.2-18.2v-9.2c0-10,8.2-18.2,18.2-18.2c10,0,18.2,8.2,18.2,18.2v9.2
			C953.3,784.2,945.1,792.4,935.1,792.4z M935.1,754.5c-5.8,0-10.4,4.7-10.4,10.4v9.2c0,5.8,4.7,10.4,10.4,10.4
			c5.8,0,10.4-4.7,10.4-10.4v-9.2C945.5,759.2,940.9,754.5,935.1,754.5z"/>
	</g>
	<g>
		<rect x="962.3" y="883" class="st1" width="679.4" height="476.7"/>
		<path class="st2" d="M1649.4,1367.5H954.5V875.2h694.9V1367.5z M970,1351.9h663.8V890.7H970V1351.9z"/>
		<rect x="962.3" y="830.1" width="679.4" height="52.9"/>
		<path class="st2" d="M1649.4,890.7H954.5v-68.4h694.9V890.7z M970,875.2h663.8v-37.4H970V875.2z"/>
	</g>
	<g>
		<rect x="924.1" y="787.3" class="st1" width="679.4" height="292.5"/>
		<path class="st2" d="M1611.2,1087.6H916.4v-308h694.9V1087.6z M931.9,1072.1h663.9v-277H931.9V1072.1z"/>
		<rect x="924.1" y="734.4" width="679.4" height="52.9"/>
		<path class="st2" d="M1611.2,795.1H916.4v-68.4h694.9V795.1z M931.9,779.6h663.9v-37.4H931.9V779.6z"/>
		<rect x="1070.8" y="863.9" class="st3" width="385.9" height="108.1"/>
		<polygon points="1456.8,863.9 1456.8,972 1070.8,972 1083.1,961.4 1083.1,874.4 1444.5,874.4 		"/>
		<rect x="1083.1" y="874.4" class="st4" width="361.4" height="87"/>
		<rect x="1270" y="898.2" width="7.8" height="39.4"/>
		<polygon points="1297.9,938.5 1269,916.8 1292.1,896.5 1297.2,902.4 1281.3,916.3 1302.6,932.3 		"/>
		<path class="st5" d="M1241.7,940c-10,0-18.2-8.2-18.2-18.2v-9.2c0-10,8.2-18.2,18.2-18.2s18.2,8.2,18.2,18.2v9.2
			C1259.9,931.8,1251.7,940,1241.7,940z M1241.7,902.1c-5.8,0-10.4,4.7-10.4,10.4v9.2c0,5.8,4.7,10.4,10.4,10.4s10.4-4.7,10.4-10.4
			v-9.2C1252.1,906.8,1247.5,902.1,1241.7,902.1z"/>
	</g>
	<g>
		
			<rect x="1551.4" y="754.6" transform="matrix(0.7071 -0.7071 0.7071 0.7071 -79.1897 1325.8579)" class="st2" width="18.9" height="7.8"/>
		<line class="st1" x1="620.4" y1="1009.3" x2="642.5" y2="1031.4"/>
		
			<rect x="627.6" y="1004.8" transform="matrix(0.7071 -0.7071 0.7071 0.7071 -536.5739 745.3623)" class="st2" width="7.8" height="31.2"/>
		<line class="st1" x1="710.1" y1="1031.4" x2="728.6" y2="1049.8"/>
		
			<rect x="715.5" y="1027.6" transform="matrix(0.7071 -0.7071 0.7071 0.7071 -525.1426 813.4544)" class="st2" width="7.8" height="26.1"/>
		<line class="st1" x1="631.4" y1="1049.8" x2="645" y2="1063.4"/>
		
			<rect x="634.3" y="1047" transform="matrix(0.7071 -0.7071 0.7071 0.7071 -560.2108 760.7609)" class="st2" width="7.8" height="19.2"/>
		<line class="st1" x1="1824.8" y1="663.9" x2="1793.3" y2="695.4"/>
		
			<rect x="1786.8" y="675.7" transform="matrix(0.7071 -0.7071 0.7071 0.7071 49.2997 1478.2673)" class="st2" width="44.6" height="7.8"/>
		<line class="st1" x1="1809.1" y1="708.5" x2="1789.7" y2="727.8"/>
		
			<rect x="1785.7" y="714.3" transform="matrix(0.7071 -0.7071 0.7071 0.7071 19.2176 1482.7173)" class="st2" width="27.4" height="7.8"/>
		<line class="st1" x1="705.3" y1="229.3" x2="721.8" y2="245.7"/>
		
			<rect x="709.7" y="225.8" transform="matrix(0.7071 -0.7071 0.7071 0.7071 41.0806 574.0995)" class="st2" width="7.8" height="23.2"/>
	</g>
</g>
<g id="Folder_Front">
	<linearGradient id="SVGID_1_" gradientUnits="userSpaceOnUse" x1="624.2496" y1="1042.4187" x2="1617.3589" y2="1657.8667">
		<stop  offset="0" style="stop-color:#FFFFFF"/>
		<stop  offset="9.688431e-02" style="stop-color:#FEFFF6"/>
		<stop  offset="0.2581" style="stop-color:#FCFFDC"/>
		<stop  offset="0.4637" style="stop-color:#F9FFB3"/>
		<stop  offset="0.7058" style="stop-color:#F5FF79"/>
		<stop  offset="0.9758" style="stop-color:#EFFF30"/>
		<stop  offset="0.9944" style="stop-color:#EFFF2B"/>
	</linearGradient>
	<polygon class="st6" points="743.6,1126.4 858.8,1686.9 1671.4,1686.9 1565.3,1126.4 	"/>
	<path class="st0" d="M1680.7,1694.7H852.4l-118.3-576h837.6L1680.7,1694.7z M865.1,1679.1H1662l-103.2-544.9H753.2L865.1,1679.1z"
		/>
	
		<rect x="1222.6" y="1556.6" transform="matrix(0.7071 -0.7071 0.7071 0.7071 -740.0146 1342.1547)" class="st0" width="55" height="15.5"/>
	
		<rect x="1326.9" y="1614.9" transform="matrix(0.7071 -0.7071 0.7071 0.7071 -749.611 1435.5796)" class="st0" width="62.4" height="15.5"/>
	
		<rect x="1239.4" y="1614.9" transform="matrix(0.7071 -0.7071 0.7071 0.7071 -778.7883 1365.1467)" class="st0" width="38.3" height="15.5"/>
	
		<rect x="1424.9" y="1556.6" transform="matrix(0.7071 -0.7071 0.7071 0.7071 -681.4988 1483.4242)" class="st0" width="49.9" height="15.5"/>
	
		<rect x="1433.1" y="1614.9" transform="matrix(0.7071 -0.7071 0.7071 0.7071 -722.644 1500.6835)" class="st0" width="34.1" height="15.5"/>
	
		<rect x="1316.4" y="1556.6" transform="matrix(0.7071 -0.7071 0.7071 0.7071 -713.4502 1406.2869)" class="st0" width="48.9" height="15.5"/>
</g>
<g id="Hand">
	<polygon class="st7" points="1272.4,1076 1283.1,1128.4 1305.6,1149.7 1327,1191.5 1348.3,1233.2 1369.7,1274.8 1391,1316.5 
		1540.3,1316.5 1561.7,1274.8 1583,1212.3 1583,1070.1 1561.7,1049.5 1463.7,1006.4 1430.5,986.8 1409.2,908.8 1366.2,908.8 
		1346.3,1108.1 1326,1086.7 	"/>
	<rect x="1283.1" y="1128.4" class="st8" width="21.4" height="21.4"/>
	<rect x="1261.8" y="1086.7" class="st8" width="21.4" height="41.7"/>
	<rect x="1305.6" y="1149.7" class="st8" width="21.4" height="41.7"/>
	<rect x="1518.7" y="1049.3" class="st8" width="21.4" height="58.8"/>
	<rect x="1369.7" y="1316.5" class="st8" width="192" height="21.4"/>
	<rect x="1327" y="1191.5" class="st8" width="21.4" height="41.7"/>
	<rect x="1348.3" y="1233.2" class="st8" width="21.4" height="41.7"/>
	<rect x="1369.7" y="1274.8" class="st8" width="21.4" height="41.7"/>
	<rect x="1540.3" y="1274.8" class="st8" width="21.4" height="41.7"/>
	<rect x="1561.7" y="1212.3" class="st8" width="21.4" height="62.5"/>
	<rect x="1583" y="1070.1" class="st8" width="21.4" height="142.2"/>
	<rect x="1325" y="1086.7" class="st8" width="21.4" height="21.4"/>
	<rect x="1561.7" y="1048.8" class="st8" width="21.4" height="21.4"/>
	<rect x="1518.7" y="1028.2" class="st8" width="42.9" height="21.4"/>
	<rect x="1366.2" y="887.4" class="st8" width="42.9" height="21.4"/>
	<rect x="1464.1" y="1027.9" class="st8" width="21.4" height="58.8"/>
	<rect x="1464.1" y="1006.8" class="st8" width="54.6" height="21.4"/>
	<rect x="1409.2" y="908.8" class="st8" width="21.4" height="177.9"/>
	<rect x="1344.9" y="908.8" class="st8" width="21.4" height="260.2"/>
	<rect x="1409.2" y="985" class="st8" width="54.6" height="21.4"/>
	<rect x="1261.8" y="1065.4" class="st8" width="64.3" height="21.4"/>
</g>
</svg>
