<?xml version="1.0" encoding="utf-8"?>
<!-- Generator: Adobe Illustrator 21.0.2, SVG Export Plug-In . SVG Version: 6.00 Build 0)  -->
<svg version="1.1" id="Слой_1" xmlns="http://www.w3.org/2000/svg" xmlns:xlink="http://www.w3.org/1999/xlink" x="0px" y="0px"
	 viewBox="0 0 2500 2000" style="enable-background:new 0 0 2500 2000;" xml:space="preserve">
<style type="text/css">
	.st0{fill:#7F9BFF;}
	.st1{fill:#FFFF05;}
	.st2{fill:none;}
	.st3{fill:#0029FA;}
	.st4{fill:#E9EEFF;}
</style>
<g id="Film">
	<path class="st0" d="M1777.3,1148.3c4.3-10.7,6.7-22.5,7.1-34.2c6.1-17.6,5.7-37-1-55.9c-9.2-25.8-30.2-48.3-59.3-47.9
		c-29,0.5-49.3,22.6-55.5,49.5c-6.2,26.6-2.9,58.3,10.4,82.4c5.6,10.2,14.1,20.1,24.3,27.4c1.8,1.4,3.7,2.7,5.6,3.8
		c2,1.5,4,2.9,6.1,4.1c17.9,10,36.7,5.8,49.5-7.9C1770.6,1163.9,1774.7,1156.6,1777.3,1148.3z M1741.4,1070.1
		c-1.9-0.1-3.8,0.4-5.4,1.2c-4.5,0.5-8.9,2.7-12.4,7c0.4-2.2,0.8-4.3,1.3-6.3c3.9-4,8.7-6.4,14.5-6
		C1740,1067.3,1740.7,1068.7,1741.4,1070.1z"/>
	<path class="st0" d="M1980.7,918.4c4.2-2.8,6.4-8.7,3.3-13.3c-0.2-0.3-0.4-0.6-0.6-1c0-19.3-12.4-31.8-27.5-41.2
		c-4.2-9.4-8.6-18.7-15.8-24.7c-20.9-17.7-49.9-20.7-73.7-33.5c-3-1.8-5.9-3.6-8.9-5.4c-4.5-2.9-8.7-1.6-11.4,1.3
		c-0.1,0-0.2-0.1-0.3-0.1c-3.2-1.3-7.4,0.2-10,2.9c-29.4-0.2-58.1,8.9-85.2,19.9c-1.2-0.1-2.4-0.2-3.6-0.3
		c-9.8-0.6-11.9,10.7-6.8,16.5c1.7,3.5,5.6,5.9,11,4.8c1.2-0.2,2.3-0.5,3.4-0.7c0.3,0,0.6,0.1,0.9,0.1c1.1,0.2,2.2,0.3,3.4,0.6
		c-0.4,2,0,4.3,1.4,6.5c2.9,4.3,4.3,9.2,4.8,14.5c-7,11.6-11.7,24.9-15.2,38.3c-2.5,3-4.9,6.1-7.2,9.3c-5.2-1.6-10.2,2.3-11.8,7
		c-8.8,24.9,11.9,41.9,29.7,56.3c0.3,5,4.2,9.8,9.8,9.5c3.4-0.2,6.7-0.5,10-0.9c0.1,0.1,0.1,0.2,0.2,0.3c3.7,3.6,7.9,3.6,11.2,1.7
		c-5.7-2-8.1-8.3-6.4-14c1.5-5.1,6.4-7.9,11.4-7.2c4.1-0.9,8.7,1.2,11,4.8c1.7,2.6,1.7,5.6,0.7,8.3c10.8-3.2,21.3-7.2,31.8-11.6
		c1,0.1,2.1,0.2,3.2,0c7.7-1.3,15.3-2.9,22.9-4.5c37.6-2.4,75.3-7.8,111.4-18.6c8-2.4,8.9-12.3,3.9-17
		C1982.5,924,1982.2,920.9,1980.7,918.4z M1774.4,921.2c-0.3,1.8-0.2,3.6,0.3,5.2c-0.7-0.2-1.5-0.4-2.3-0.4c-0.4,0-0.7,0-1.1,0
		C1772.4,924.5,1773.5,922.9,1774.4,921.2z M1778.2,949.3c-2.5,1.3-5.1,1.4-7.8,1.4c-4.8,0-8.1-3.2-9.7-7.4c-2.3-6,2-12.3,7.7-14
		c4.9-1.5,10.9,1.1,13.1,5.7C1784.4,939.7,1783.5,946.5,1778.2,949.3z M1796.6,933.7c-0.9,1.2-1.9,2.3-2.9,3.5
		c0.8-2.3,1.7-4.4,2.9-6.2C1796.5,931.8,1796.5,932.8,1796.6,933.7z M1845.8,811c2.4-4.6,9.4-6.6,13.8-3.6c1.3,0.9,2.5,1.8,3.7,2.7
		c0.6,0.4,1.2,0.9,1.9,1.2c0.2,0.1,0.6,0.3,0.9,0.4c0.5,0.2,0.4,0.1,0,0c-0.2-0.1-0.5-0.2-0.9-0.3c5.3,1.9,8.3,6.7,7,12.4
		c-1.1,5-7.4,8.9-12.4,7c-4-1.5-6.9-3.6-10.3-6C1844.7,821.6,1843.1,816.1,1845.8,811z M1809.3,828.4c-0.4-0.9-0.9-1.6-1.6-2.4
		c2.8-0.5,5.7-1,8.6-1.4C1814,825.9,1811.6,827.1,1809.3,828.4z M1841.1,854.9c-2.2,0.8-4.5,1.7-6.7,2.4c-2.5,0.8-5.1,1.8-7.8,2.7
		c7-2.9,14.1-5.7,21-9c0.2,0.2,0.3,0.5,0.5,0.7C1845.8,852.8,1843.4,853.8,1841.1,854.9z M1865.6,895c-6.5,2.1-13.1,4.1-19.7,5.9
		c1.6-0.9,3.3-1.8,4.9-2.7c7.5-2.8,15.2-5.4,22.9-8.1c0,0.5,0,1.1,0,1.6C1871.1,892.7,1868.4,893.8,1865.6,895z M1903.8,849.4
		c-1.2,5.3-7.3,8.4-12.4,7c-5-1.3-9.6-3.9-13.3-7.5c-4-3.9-3.6-10.3,0-14.3c3.7-4.1,10.5-3.7,14.3,0c0.2,0.2,0.3,0.3,0.5,0.5
		c0.4,0.3,0.8,0.6,1.2,0.8c0.3,0.2,0.5,0.3,0.8,0.4c1,0.5,0.7,0.4-0.7-0.2c0.1,0.3,2.3,0.8,2.6,0.8
		C1902.2,838.4,1905,844.1,1903.8,849.4z M1945.3,882.4c-2.7,5-8.9,5.9-13.7,3.7c-0.4-0.1-0.8-0.3-1.2-0.4c-0.4-0.1-0.8-0.2-1.3-0.3
		c-5.4-0.4-9.4-4.5-9.6-10c-0.2-5.3,4.8-10.3,10.1-10.1c4.3,0.2,8.1,1.5,12,3.4C1946.7,871.1,1947.6,877.9,1945.3,882.4z
		 M1966.9,939.5c-4.9,1.6-11.4-1.8-12.4-7c-0.5-3-0.9-6-1.2-9c-0.1-1.2-0.2-2.4-0.4-3.7c0,0-0.4-2.3-0.4-2.2c-1-5.6,1.5-10.6,7-12.4
		c4.9-1.6,11.4,1.8,12.4,7c0.5,3,0.9,6,1.2,9c0.1,1.2,0.2,2.4,0.4,3.7c0,0,0.4,2.3,0.4,2.2C1975,932.7,1972.5,937.7,1966.9,939.5z"
		/>
	<path class="st1" d="M1779.2,1064.8c1,2.4,1.9,4.8,2.7,7.2c5.3,15.5,6.4,32,1.5,46.9c0.3,20.1-4.5,40.1-14.8,57.9
		c-0.1,0.4-0.2,0.8-0.3,1.2c4.5-0.7,8.9-1.7,13.3-3.1c8-2.5,15.9-6,23.5-10.1c2.1,0.1,4.2,0.1,6.4-0.1c38-4.4,73.9-13.2,109.6-26.9
		c8.5-3.2,16.9-6.6,25.2-10.1c6-1.4,11.9-2.7,17.9-4.1c11.3-2.5,19.8-7.9,25.8-14.9c1.6-0.7,3.2-1.4,4.8-2.1
		c-0.2,0.2,14-5.4,17.6-7.4c40.8-22.5,40.8-62.2,24.4-98C1952.1,1026.2,1864.2,1040.6,1779.2,1064.8z"/>
	<path class="st2" d="M1693.1,1024.8c0,0.9-0.4,1.9-1.3,2.7c-0.7,0.6-1.4,1.3-2.1,2c-5,8-7.8,17.9-9.2,27.2
		c-0.5,3.6-4.7,4.3-6.7,2.6c-6.5,29.8,5.6,66,19.4,90.7c8.1,14.6,22.2,26.5,38.6,30.7c22.5,5.7,38.6-6.8,48.5-26.1
		c18.4-35.8,12.3-81.4-13.2-112.2c-12.1-14.6-31.9-29.7-51.9-28.6C1705.5,1014.2,1698.4,1018.5,1693.1,1024.8z"/>
	<g>
		<path class="st2" d="M1693.1,1024.8c0,0.9-0.4,1.9-1.3,2.7c-0.7,0.6-1.4,1.3-2.1,2c-5,8-7.8,17.9-9.2,27.2
			c-0.5,3.6-4.7,4.3-6.7,2.6c-6.5,29.8,5.6,66,19.4,90.7c8.1,14.6,22.2,26.5,38.6,30.7c22.5,5.7,38.6-6.8,48.5-26.1
			c18.4-35.8,12.3-81.4-13.2-112.2c-12.1-14.6-31.9-29.7-51.9-28.6C1705.5,1014.2,1698.4,1018.5,1693.1,1024.8z"/>
		<g>
			<path class="st2" d="M1774.8,1071.4c1.2-3.2,3.2-5.7,5.7-7.8c-3.6-7.6-8.1-14.8-13.4-21.3c-12.1-14.6-31.9-29.7-51.9-28.6
				c-9.6,0.5-16.8,4.9-22,11.1c0,0.9-0.4,1.9-1.3,2.7c-0.7,0.6-1.4,1.3-2.1,2c-5,8-7.8,17.9-9.2,27.2c-0.5,3.6-4.7,4.3-6.7,2.6
				c-6.5,29.8,5.6,66,19.4,90.7c8.1,14.6,22.2,26.5,38.6,30.7c22.5,5.7,38.6-6.8,48.5-26.1c13.2-25.7,13.7-56.4,3.6-83.1
				c-0.7,0.8-1.2,1.7-1.6,2.6C1780.4,1078.7,1772.9,1076.1,1774.8,1071.4z"/>
			<g>
				<path class="st2" d="M1693.1,1024.8c0,0.9-0.4,1.9-1.3,2.7c-0.7,0.6-1.4,1.3-2.1,2c-5,8-7.8,17.9-9.2,27.2
					c-0.5,3.6-4.7,4.3-6.7,2.6c-6.5,29.8,5.6,66,19.4,90.7c8.1,14.6,22.2,26.5,38.6,30.7c22.5,5.7,38.6-6.8,48.5-26.1
					c13.2-25.7,13.7-56.4,3.6-83.1c-0.7,0.8-1.2,1.7-1.6,2.6c-1.9,4.7-9.3,2.1-7.5-2.6c1.2-3.2,3.2-5.7,5.7-7.8
					c-3.6-7.6-8.1-14.8-13.4-21.3c-12.1-14.6-31.9-29.7-51.9-28.6C1705.5,1014.2,1698.4,1018.5,1693.1,1024.8z"/>
				<path class="st2" d="M2042.7,1029.3c0,7.3-0.5,14.5-1.5,21.7C2042.7,1043.8,2043.1,1036.6,2042.7,1029.3z"/>
				<g>
					<path class="st2" d="M1693.1,1024.8c0,0.9-0.4,1.9-1.3,2.7c-0.7,0.6-1.4,1.3-2.1,2c-5,8-7.8,17.9-9.2,27.2
						c-0.5,3.6-4.7,4.3-6.7,2.6c-6.5,29.8,5.6,66,19.4,90.7c8.1,14.6,22.2,26.5,38.6,30.7c22.5,5.7,38.6-6.8,48.5-26.1
						c13.2-25.7,13.7-56.4,3.6-83.1c-0.7,0.8-1.2,1.7-1.6,2.6c-1.9,4.7-9.3,2.1-7.5-2.6c1.2-3.2,3.2-5.7,5.7-7.8
						c-3.6-7.6-8.1-14.8-13.4-21.3c-12.1-14.6-31.9-29.7-51.9-28.6C1705.5,1014.2,1698.4,1018.5,1693.1,1024.8z"/>
					<path class="st2" d="M2041.2,1051c1.4-7.2,1.9-14.4,1.5-21.7C2042.7,1036.7,2042.2,1043.9,2041.2,1051z"/>
					<g>
						<path class="st2" d="M1693.1,1024.8c0,0.9-0.4,1.9-1.3,2.7c-0.7,0.6-1.4,1.3-2.1,2c-5,8-7.8,17.9-9.2,27.2
							c-0.5,3.6-4.7,4.3-6.7,2.6c-6.5,29.8,5.6,66,19.4,90.7c1.7,3.1,3.7,6,5.9,8.7c1.4-2.5,6.4-2.6,7.6,1.2
							c1.5,4.7,3.7,8.7,6.4,12.1c5.7,3.9,12,7,18.7,8.7c15.6,3.9,28-0.8,37.5-10.5c1.7-2.5,3.2-5.2,4.4-8.3c0.7-1.9,2.3-2.6,3.8-2.5
							c1-1.6,1.9-3.2,2.8-4.9c13.2-25.7,13.7-56.4,3.6-83.1c-0.7,0.8-1.2,1.7-1.6,2.6c-1.9,4.7-9.3,2.1-7.5-2.6
							c1.2-3.2,3.2-5.7,5.7-7.8c-3.6-7.6-8.1-14.8-13.4-21.3c-12.1-14.6-31.9-29.7-51.9-28.6
							C1705.5,1014.2,1698.4,1018.5,1693.1,1024.8z"/>
						<path class="st2" d="M2041.2,1051c1.4-7.2,1.9-14.4,1.5-21.7C2042.7,1036.7,2042.2,1043.9,2041.2,1051z"/>
						<g>
							<path class="st2" d="M1720.3,840.3c-26,2.3-47.3,27.1-56.6,50.9c14.5-4.3,27.7-11.3,42.2-15.9c17.3-5.5,35.3-4.6,53-7.3
								C1757.6,850.6,1738.4,838.7,1720.3,840.3z"/>
							<path class="st2" d="M1693.1,1024.8c0,0.9-0.4,1.9-1.3,2.7c-0.7,0.6-1.4,1.3-2.1,2c-5,8-7.8,17.9-9.2,27.2
								c-0.5,3.6-4.7,4.3-6.7,2.6c-6.5,29.8,5.6,66,19.4,90.7c1.7,3.1,3.7,6,5.9,8.7c1.4-2.5,6.4-2.6,7.6,1.2
								c1.5,4.7,3.7,8.7,6.4,12.1c5.7,3.9,12,7,18.7,8.7c15.6,3.9,28-0.8,37.5-10.5c1.7-2.5,3.2-5.2,4.4-8.3
								c0.7-1.9,2.3-2.6,3.8-2.5c1-1.6,1.9-3.2,2.8-4.9c13.2-25.7,13.7-56.4,3.6-83.1c-0.7,0.8-1.2,1.7-1.6,2.6
								c-1.9,4.7-9.3,2.1-7.5-2.6c1.2-3.2,3.2-5.7,5.7-7.8c-3.6-7.6-8.1-14.8-13.4-21.3c-12.1-14.6-31.9-29.7-51.9-28.6
								C1705.5,1014.2,1698.4,1018.5,1693.1,1024.8z"/>
							<path class="st2" d="M2041.2,1051c1.4-7.2,1.9-14.4,1.5-21.7C2042.7,1036.7,2042.2,1043.9,2041.2,1051z"/>
							<g>
								<path class="st2" d="M1693.1,1024.8c0,0.9-0.4,1.9-1.3,2.7c-0.7,0.6-1.4,1.3-2.1,2c-5,8-7.8,17.9-9.2,27.2
									c-0.5,3.6-4.7,4.3-6.7,2.6c-6.5,29.8,5.6,66,19.4,90.7c1.7,3.1,3.7,6,5.9,8.7c1.4-2.5,6.4-2.6,7.6,1.2
									c1.5,4.7,3.7,8.7,6.4,12.1c5.7,3.9,12,7,18.7,8.7c15.6,3.9,28-0.8,37.5-10.5c1.7-2.5,3.2-5.2,4.4-8.3
									c0.7-1.9,2.3-2.6,3.8-2.5c1-1.6,1.9-3.2,2.8-4.9c13.2-25.7,13.7-56.4,3.6-83.1c-0.7,0.8-1.2,1.7-1.6,2.6
									c-1.9,4.7-9.3,2.1-7.5-2.6c1.2-3.2,3.2-5.7,5.7-7.8c-3.6-7.6-8.1-14.8-13.4-21.3c-12.1-14.6-31.9-29.7-51.9-28.6
									C1705.5,1014.2,1698.4,1018.5,1693.1,1024.8z"/>
								<path class="st2" d="M1945.6,849.5c-19.6-16.7-44.1-26.1-66.1-39.1c-18.6-11-32.8-13.7-53.5-8.5c-15.8,4-31.2,9.5-46.6,14.8
									c-16.2,5.6-35.7,9-52.7,15.5c3.3,0.3,6.7,0.9,10.1,1.9c16.9,5.1,32,18.6,30.5,37.5c-1.8,22.7-22.4,35.4-38.2,48.7
									c7.4,10.6,16.3,20.2,23,31.4c6.3,10.6,9.3,22.8,18.1,31.8c1.1,1.1,1.2,2.4,0.8,3.5c31.7-8.1,62-20.7,92.9-31.4
									c26.5-9.2,53.6-15.6,80.7-22.6c14.4-3.7,29.2-9.2,44.2-11.2C1984,894.7,1966.2,867.1,1945.6,849.5z"/>
								<path class="st2" d="M1720.3,840.3c-26,2.3-47.3,27.1-56.6,50.9c14.5-4.3,27.7-11.3,42.2-15.9c17.3-5.5,35.3-4.6,53-7.3
									C1757.6,850.6,1738.4,838.7,1720.3,840.3z"/>
								<path class="st2" d="M2041.2,1051c1.4-7.2,1.9-14.4,1.5-21.7C2042.7,1036.7,2042.2,1043.9,2041.2,1051z"/>
								<g>
									<path class="st2" d="M1945.6,849.5c-19.6-16.7-44.1-26.1-66.1-39.1c-18.6-11-32.8-13.7-53.5-8.5
										c-15.8,4-31.2,9.5-46.6,14.8c-16.2,5.6-35.7,9-52.7,15.5c3.3,0.3,6.7,0.9,10.1,1.9c16.9,5.1,32,18.6,30.5,37.5
										c-1.8,22.7-22.4,35.4-38.2,48.7c7.4,10.6,16.3,20.2,23,31.4c6.3,10.6,9.3,22.8,18.1,31.8c1.1,1.1,1.2,2.4,0.8,3.5
										c31.7-8.1,62-20.7,92.9-31.4c26.5-9.2,53.6-15.6,80.7-22.6c2.6-0.7,5.2-1.4,7.8-2.1c-1.3-0.6-2.2-1.8-2.2-3.6
										c0.3-5.8-5.5-11.3-7.3-16.7c-0.9-2.6,1.9-4.7,4.2-4.7c5.4-0.1,10.3-2,14.9-4.8c2.4-1.5,4.9,0.6,5.6,2.8
										c1.2,3.8,2.8,7.5,4.4,11.1c0.4,0.4,0.7,1,0.8,1.7c0,0.1,0.1,0.2,0.1,0.3c0.3,0.6,0.5,1.2,0.8,1.8c1.9,4-3.8,7.8-6.6,4.3
										c-1-1.2-1.4-2.3-1.8-3.6c-1.4-3-2.7-6.1-3.8-9.2c-2.9,1.4-5.9,2.3-9,2.9c2.5,4.7,5.9,8.7,5.6,14.7c0,0.6-0.2,1.1-0.4,1.5
										c10.2-3,20.6-6.1,31.1-7.5C1984,894.7,1966.2,867.1,1945.6,849.5z"/>
									<path class="st2" d="M1693.1,1024.8c0,0.9-0.4,1.9-1.3,2.7c-0.7,0.6-1.4,1.3-2.1,2c-5,8-7.8,17.9-9.2,27.2
										c-0.5,3.6-4.7,4.3-6.7,2.6c-6.5,29.8,5.6,66,19.4,90.7c1.7,3.1,3.7,6,5.9,8.7c1.4-2.5,6.4-2.6,7.6,1.2
										c1.5,4.7,3.7,8.7,6.4,12.1c5.7,3.9,12,7,18.7,8.7c15.6,3.9,28-0.8,37.5-10.5c1.7-2.5,3.2-5.2,4.4-8.3
										c0.7-1.9,2.3-2.6,3.8-2.5c1-1.6,1.9-3.2,2.8-4.9c13.2-25.7,13.7-56.4,3.6-83.1c-0.7,0.8-1.2,1.7-1.6,2.6
										c-1.9,4.7-9.3,2.1-7.5-2.6c1.2-3.2,3.2-5.7,5.7-7.8c-3.6-7.6-8.1-14.8-13.4-21.3c-12.1-14.6-31.9-29.7-51.9-28.6
										C1705.5,1014.2,1698.4,1018.5,1693.1,1024.8z"/>
									<path class="st2" d="M1720.3,840.3c-26,2.3-47.3,27.1-56.6,50.9c14.5-4.3,27.7-11.3,42.2-15.9c17.3-5.5,35.3-4.6,53-7.3
										C1757.6,850.6,1738.4,838.7,1720.3,840.3z"/>
									<path class="st2" d="M2041.2,1051c1.4-7.2,1.9-14.4,1.5-21.7C2042.7,1036.7,2042.2,1043.9,2041.2,1051z"/>
									<g>
										<path class="st2" d="M1693.1,1024.8c0,0.9-0.4,1.9-1.3,2.7c-0.7,0.6-1.4,1.3-2.1,2c-5,8-7.8,17.9-9.2,27.2
											c-0.5,3.6-4.7,4.3-6.7,2.6c-6.5,29.8,5.6,66,19.4,90.7c1.7,3.1,3.7,6,5.9,8.7c1.4-2.5,6.4-2.6,7.6,1.2
											c1.5,4.7,3.7,8.7,6.4,12.1c5.7,3.9,12,7,18.7,8.7c15.6,3.9,28-0.8,37.5-10.5c1.7-2.5,3.2-5.2,4.4-8.3
											c0.7-1.9,2.3-2.6,3.8-2.5c1-1.6,1.9-3.2,2.8-4.9c13.2-25.7,13.7-56.4,3.6-83.1c-0.7,0.8-1.2,1.7-1.6,2.6
											c-1.9,4.7-9.3,2.1-7.5-2.6c1.2-3.2,3.2-5.7,5.7-7.8c-3.6-7.6-8.1-14.8-13.4-21.3c-12.1-14.6-31.9-29.7-51.9-28.6
											C1705.5,1014.2,1698.4,1018.5,1693.1,1024.8z"/>
										<path class="st2" d="M1797.5,969c-4.9,2.6-9.8,5.1-15.1,6.7c0.7,1.8,1.6,3.5,2.7,4.9c0.6,0.8,0.8,1.6,0.8,2.4
											c6-1.8,12-3.7,17.9-5.7C1801.6,974.5,1799.5,971.8,1797.5,969z"/>
										<path class="st2" d="M1720.3,840.3c-26,2.3-47.3,27.1-56.6,50.9c14.5-4.3,27.7-11.3,42.2-15.9c17.3-5.5,35.3-4.6,53-7.3
											C1757.6,850.6,1738.4,838.7,1720.3,840.3z"/>
										<path class="st2" d="M2041.2,1051c1.4-7.2,1.9-14.4,1.5-21.7C2042.7,1036.7,2042.2,1043.9,2041.2,1051z"/>
										<path class="st2" d="M1945.6,849.5c-19.6-16.7-44.1-26.1-66.1-39.1c-18.6-11-32.8-13.7-53.5-8.5
											c-15.8,4-31.2,9.5-46.6,14.8c-16.2,5.6-35.7,9-52.7,15.5c3.3,0.3,6.7,0.9,10.1,1.9c16.9,5.1,32,18.6,30.5,37.5
											c-1.8,22.7-22.4,35.4-38.2,48.7c7.4,10.6,16.3,20.2,23,31.4c6.3,10.6,9.3,22.8,18.1,31.8c1.1,1.1,1.2,2.4,0.8,3.5
											c2.6-0.7,5.2-1.4,7.8-2.1c-2.4-3.3-4.1-7.4-5.2-11.3c-0.6-2.1,1.2-4.2,3.1-4.6c7.4-1.5,13.8-5.2,20.3-8.8
											c1.5-0.8,3.7-0.3,4.7,1c2.9,3.8,5.5,7.7,8.6,11.3c0.6,0.7,0.8,1.4,0.9,2.1c17.6-6.1,35-12.8,52.6-18.9
											c26.5-9.2,53.6-15.6,80.7-22.6c2.6-0.7,5.2-1.4,7.8-2.1c-1.3-0.6-2.2-1.8-2.2-3.6c0.3-5.8-5.5-11.3-7.3-16.7
											c-0.9-2.6,1.9-4.7,4.2-4.7c5.4-0.1,10.3-2,14.9-4.8c2.4-1.5,4.9,0.6,5.6,2.8c1.2,3.8,2.8,7.5,4.4,11.1
											c0.4,0.4,0.7,1,0.8,1.7c0,0.1,0.1,0.2,0.1,0.3c0.3,0.6,0.5,1.2,0.8,1.8c1.9,4-3.8,7.8-6.6,4.3c-1-1.2-1.4-2.3-1.8-3.6
											c-1.4-3-2.7-6.1-3.8-9.2c-2.9,1.4-5.9,2.3-9,2.9c2.5,4.7,5.9,8.7,5.6,14.7c0,0.6-0.2,1.1-0.4,1.5
											c10.2-3,20.6-6.1,31.1-7.5C1984,894.7,1966.2,867.1,1945.6,849.5z"/>
										<g>
											<path class="st2" d="M1720.3,840.3c-26,2.3-47.3,27.1-56.6,50.9c14.5-4.3,27.7-11.3,42.2-15.9c17.3-5.5,35.3-4.6,53-7.3
												C1757.6,850.6,1738.4,838.7,1720.3,840.3z"/>
											<path class="st2" d="M1748.7,907.8c-0.5-0.8-1-1.6-1.5-2.4c-1.5,1.3-2.9,2.6-4.5,3.8c0.3,0.3,0.5,0.6,0.8,0.9
												C1745.3,909.5,1747,908.8,1748.7,907.8z"/>
											<path class="st2" d="M1693.1,1024.8c0,0.9-0.4,1.9-1.3,2.7c-0.7,0.6-1.4,1.3-2.1,2c-5,8-7.8,17.9-9.2,27.2
												c-0.5,3.6-4.7,4.3-6.7,2.6c-6.5,29.8,5.6,66,19.4,90.7c1.7,3.1,3.7,6,5.9,8.7c1.4-2.5,6.4-2.6,7.6,1.2
												c1.5,4.7,3.7,8.7,6.4,12.1c5.7,3.9,12,7,18.7,8.7c15.6,3.9,28-0.8,37.5-10.5c1.7-2.5,3.2-5.2,4.4-8.3
												c0.7-1.9,2.3-2.6,3.8-2.5c1-1.6,1.9-3.2,2.8-4.9c13.2-25.7,13.7-56.4,3.6-83.1c-0.7,0.8-1.2,1.7-1.6,2.6
												c-1.9,4.7-9.3,2.1-7.5-2.6c1.2-3.2,3.2-5.7,5.7-7.8c-3.6-7.6-8.1-14.8-13.4-21.3c-12.1-14.6-31.9-29.7-51.9-28.6
												C1705.5,1014.2,1698.4,1018.5,1693.1,1024.8z"/>
											<path class="st2" d="M1782.4,975.6c0.7,1.8,1.6,3.5,2.7,4.9c0.6,0.8,0.8,1.6,0.8,2.4c6-1.8,12-3.7,17.9-5.7
												c-2.2-2.6-4.3-5.4-6.3-8.2C1792.6,971.6,1787.7,974,1782.4,975.6z"/>
											<path class="st2" d="M2041.2,1051c1.4-7.2,1.9-14.4,1.5-21.7C2042.7,1036.7,2042.2,1043.9,2041.2,1051z"/>
											<path class="st2" d="M1945.6,849.5c-19.6-16.7-44.1-26.1-66.1-39.1c-18.6-11-32.8-13.7-53.5-8.5
												c-15.8,4-31.2,9.5-46.6,14.8c-16.2,5.6-35.7,9-52.7,15.5c3.3,0.3,6.7,0.9,10.1,1.9c16.9,5.1,32,18.6,30.5,37.5
												c-0.9,11.6-6.7,20.6-14.3,28.3c1.6,2.3,3.2,4.7,4.7,7.2c0.9,1.5,0.2,3.7-1,4.7c-4.1,3.4-8.8,5.6-14,6.6
												c-1.8,0.3-3.4-0.6-4.3-2.2c-0.4-0.8-1-1.5-1.5-2.2c-2.6,2.1-5.2,4.2-7.6,6.2c7.4,10.6,16.3,20.2,23,31.4
												c6.3,10.6,9.3,22.8,18.1,31.8c1.1,1.1,1.2,2.4,0.8,3.5c2.6-0.7,5.2-1.4,7.8-2.1c-2.4-3.3-4.1-7.4-5.2-11.3
												c-0.6-2.1,1.2-4.2,3.1-4.6c7.4-1.5,13.8-5.2,20.3-8.8c1.5-0.8,3.7-0.3,4.7,1c2.9,3.8,5.5,7.7,8.6,11.3
												c0.6,0.7,0.8,1.4,0.9,2.1c17.6-6.1,35-12.8,52.6-18.9c26.5-9.2,53.6-15.6,80.7-22.6c2.6-0.7,5.2-1.4,7.8-2.1
												c-1.3-0.6-2.2-1.8-2.2-3.6c0.3-5.8-5.5-11.3-7.3-16.7c-0.9-2.6,1.9-4.7,4.2-4.7c5.4-0.1,10.3-2,14.9-4.8
												c2.4-1.5,4.9,0.6,5.6,2.8c1.2,3.8,2.8,7.5,4.4,11.1c0.4,0.4,0.7,1,0.8,1.7c0,0.1,0.1,0.2,0.1,0.3
												c0.3,0.6,0.5,1.2,0.8,1.8c1.9,4-3.8,7.8-6.6,4.3c-1-1.2-1.4-2.3-1.8-3.6c-1.4-3-2.7-6.1-3.8-9.2c-2.9,1.4-5.9,2.3-9,2.9
												c2.5,4.7,5.9,8.7,5.6,14.7c0,0.6-0.2,1.1-0.4,1.5c10.2-3,20.6-6.1,31.1-7.5C1984,894.7,1966.2,867.1,1945.6,849.5z"/>
											<g>
												<path class="st2" d="M1690.3,879.2c1.2-2.4,2.6-4.6,4-6.8c-5.5,4.3-11.4,7.8-18.8,9.3c-3.7,0.8-5.5-3.3-4-6.1
													c0.5-1,1.1-1.9,1.6-2.8c-3.9,5.9-7.1,12.1-9.6,18.3c9-2.6,17.6-6.3,26.2-9.9C1689.9,880.5,1690,879.9,1690.3,879.2z"/>
												<path class="st2" d="M1719.8,854.2c5.2-4.2,10.5-8.3,16.1-12c-5-1.6-10.4-2.3-15.7-1.9c-1,0.1-1.9,0.3-2.9,0.4
													c-0.1,0.9-0.4,1.7-1.2,2.5c-9.8,8.9-21.3,16.2-30.1,25.9c12.3-7.7,21.5-21.1,34.8-27.6c3.4-1.6,7.6,2.7,5,5.8
													C1723.9,849.6,1721.9,851.9,1719.8,854.2z"/>
												<path class="st2" d="M1697.7,848.2c-7.4,4.6-14.1,11-19.7,18.1C1683.6,859.4,1690.6,853.8,1697.7,848.2z"/>
												<path class="st2" d="M1737.7,856.2c0.9-0.6,1.8-1.3,2.7-1.9c3.1-2,6.4,1.9,5.4,4.9c-0.1,0.4-0.2,0.8-0.4,1.2
													c2.5-2.2,5.1-4.3,8.3-5.8c-2.6-3.6-6.1-6.7-10.2-9C1741.9,849.3,1739.9,852.8,1737.7,856.2z"/>
												<path class="st2" d="M1693.1,1024.8c0,0.9-0.4,1.9-1.3,2.7c-0.7,0.6-1.4,1.3-2.1,2c-5,8-7.8,17.9-9.2,27.2
													c-0.5,3.6-4.7,4.3-6.7,2.6c-6.5,29.8,5.6,66,19.4,90.7c1.7,3.1,3.7,6,5.9,8.7c1.4-2.5,6.4-2.6,7.6,1.2
													c1.5,4.7,3.7,8.7,6.4,12.1c5.7,3.9,12,7,18.7,8.7c15.6,3.9,28-0.8,37.5-10.5c1.7-2.5,3.2-5.2,4.4-8.3
													c0.7-1.9,2.3-2.6,3.8-2.5c1-1.6,1.9-3.2,2.8-4.9c13.2-25.7,13.7-56.4,3.6-83.1c-0.7,0.8-1.2,1.7-1.6,2.6
													c-1.9,4.7-9.3,2.1-7.5-2.6c1.2-3.2,3.2-5.7,5.7-7.8c-3.6-7.6-8.1-14.8-13.4-21.3c-12.1-14.6-31.9-29.7-51.9-28.6
													C1705.5,1014.2,1698.4,1018.5,1693.1,1024.8z"/>
												<path class="st2" d="M1734.5,870.3c0-0.3,0-0.7,0.1-1c0.1-0.5,0.3-1.1,0.5-1.6c-1.3,1-2.5,1.9-3.8,2.9
													C1732.4,870.5,1733.4,870.4,1734.5,870.3z"/>
												<path class="st2" d="M1782.4,975.6c0.7,1.8,1.6,3.5,2.7,4.9c0.6,0.8,0.8,1.6,0.8,2.4c6-1.8,12-3.7,17.9-5.7
													c-2.2-2.6-4.3-5.4-6.3-8.2C1792.6,971.6,1787.7,974,1782.4,975.6z"/>
												<path class="st2" d="M1945.6,849.5c-19.6-16.7-44.1-26.1-66.1-39.1c-18.6-11-32.8-13.7-53.5-8.5
													c-15.8,4-31.2,9.5-46.6,14.8c-16.2,5.6-35.7,9-52.7,15.5c3.3,0.3,6.7,0.9,10.1,1.9c16.9,5.1,32,18.6,30.5,37.5
													c-0.9,11.6-6.7,20.6-14.3,28.3c1.6,2.3,3.2,4.7,4.7,7.2c0.9,1.5,0.2,3.7-1,4.7c-4.1,3.4-8.8,5.6-14,6.6
													c-1.8,0.3-3.4-0.6-4.3-2.2c-0.4-0.8-1-1.5-1.5-2.2c-2.6,2.1-5.2,4.2-7.6,6.2c7.4,10.6,16.3,20.2,23,31.4
													c6.3,10.6,9.3,22.8,18.1,31.8c1.1,1.1,1.2,2.4,0.8,3.5c2.6-0.7,5.2-1.4,7.8-2.1c-2.4-3.3-4.1-7.4-5.2-11.3
													c-0.6-2.1,1.2-4.2,3.1-4.6c7.4-1.5,13.8-5.2,20.3-8.8c1.5-0.8,3.7-0.3,4.7,1c2.9,3.8,5.5,7.7,8.6,11.3
													c0.6,0.7,0.8,1.4,0.9,2.1c17.6-6.1,35-12.8,52.6-18.9c26.5-9.2,53.6-15.6,80.7-22.6c2.6-0.7,5.2-1.4,7.8-2.1
													c-1.3-0.6-2.2-1.8-2.2-3.6c0.3-5.8-5.5-11.3-7.3-16.7c-0.9-2.6,1.9-4.7,4.2-4.7c5.4-0.1,10.3-2,14.9-4.8
													c2.4-1.5,4.9,0.6,5.6,2.8c1.2,3.8,2.8,7.5,4.4,11.1c0.4,0.4,0.7,1,0.8,1.7c0,0.1,0.1,0.2,0.1,0.3
													c0.3,0.6,0.5,1.2,0.8,1.8c1.9,4-3.8,7.8-6.6,4.3c-1-1.2-1.4-2.3-1.8-3.6c-1.4-3-2.7-6.1-3.8-9.2c-2.9,1.4-5.9,2.3-9,2.9
													c2.5,4.7,5.9,8.7,5.6,14.7c0,0.6-0.2,1.1-0.4,1.5c10.2-3,20.6-6.1,31.1-7.5C1984,894.7,1966.2,867.1,1945.6,849.5z"/>
												<path class="st2" d="M2041.2,1051c1.4-7.2,1.9-14.4,1.5-21.7C2042.7,1036.7,2042.2,1043.9,2041.2,1051z"/>
												<path class="st2" d="M1714.9,872.8c3.6-4.4,7.2-8.7,10.7-13.1c-6,4.9-11.9,9.9-17.7,15c2.3-0.7,4.6-1.2,7-1.7
													C1714.9,872.9,1714.9,872.8,1714.9,872.8z"/>
												<path class="st2" d="M1748.7,907.8c-0.5-0.8-1-1.6-1.5-2.4c-1.5,1.3-2.9,2.6-4.5,3.8c0.3,0.3,0.5,0.6,0.8,0.9
													C1745.3,909.5,1747,908.8,1748.7,907.8z"/>
												<path class="st2" d="M1755.4,868.4c1.2-0.2,2.4-0.3,3.5-0.5c-0.1-1.5-0.4-3-0.8-4.4
													C1757.3,865.2,1756.4,866.8,1755.4,868.4z"/>
												<path class="st3" d="M2012,948.4c0.4-0.4,0.7-0.9,1-1.5l4-11.5c0.7-2.3-0.6-4.1-2.3-4.8c0.2-0.8,0.4-1.6,0.7-2.5
													c1-3.3-2-5.5-4.6-5.1c-0.6-0.7-1.4-1.3-2.6-1.5c-3.8-0.5-7.6-0.6-11.3-0.5c-0.1-1.5-0.2-3-0.4-4.5
													c-0.1-1.1-0.5-1.8-1.1-2.3c-13.2-60-71.4-90.2-121.8-116.5c-27.7-14.4-56.4-2.4-84.1,7.1c-17.3,5.9-34.5,11.8-52.2,16.7
													c-12.6,3.5-25,7.2-35.7,14.9c-0.5,0.3-0.8,0.7-1,1.1c-22.4,10.9-40.2,35.9-46.7,57.8c-0.8,2.8,1.4,5.9,4.5,5.2
													c16.4-3.6,31-11.3,46.7-16.8c17.3-6,35.3-5.5,53.2-7.9c-0.4,1.7-0.9,3.3-1.6,5c-2.1,4.9-5.1,9.2-8.7,13.1
													c-2.8-1.1-6.1,1.9-5.1,5c-1.8,1.6-3.6,3.2-5.5,4.7c-0.1-0.1-0.3-0.3-0.4-0.4c-3.7-3.4-9.8,1.7-6,5.1
													c0.1,0.1,0.1,0.1,0.2,0.2c-3.4,2.6-6.7,5.2-9.8,7.9c-1.7,1.6-1.7,3.7-0.5,5.6c8.5,13,19.8,24.3,27,38.1
													c5.1,9.9,8.3,20.2,16.3,28.4c0,0,0.1,0,0.1,0.1c-10.5,2.6-21,5-31.2,8.6c-13,4.5-24.9,10.2-38.8,11.2
													c-4,0.3-3.9,5.1-1.2,7c-1.9,1.6-3.7,3.4-5.4,5.4c-0.3,0.1-0.5,0.2-0.8,0.5c-32.9,29.5-23.4,76.4-8.9,113.2
													c6.5,16.5,16.8,33.1,30.8,43.8c10.6,11.7,26.4,16.4,40.9,13.5c-1.5,2.9,1.9,7.4,5.3,5.4c1-0.6,2-1.1,2.9-1.7
													c0.4-0.2,0.6-0.5,0.9-0.8c17.9-12,39.9-16.7,59.8-24.6c23.9-9.5,47-19.9,71.6-27.4c23.6-7.2,46.9-15,70.5-22.2
													c21.8-6.6,42.6-17.9,65.2-21.5c5-0.8,3.5-8.6-1.5-7.8c-24.8,3.9-48,16.2-71.9,23.5c-24.8,7.6-49.5,15.4-74.2,23.3
													c-23.7,7.6-46.2,18.6-69.5,27.4c-11.9,4.5-24.1,8.1-35.8,12.9c18.2-16.4,26-46.7,25.9-69.3c-0.1-14.6-3-29.2-8.5-42.8
													c12.4-6.6,34.7-9.1,43.7-11.7c21.7-6.4,43.8-11.5,65.6-17.6c18.1-5.1,35.5-12.3,52.8-19.4c10-4.1,20.1-8.3,30.3-12
													c4.5-1.6,25.1-10.6,34.6-11.2c0.8,0.6,1.8,1,3.1,0.8c0.8-0.1,1.6-0.2,2.4-0.3c4.1-0.5,4-6.3,0.6-7.6
													c-6.7-2.6-18.5,2.9-24.8,4.8c-11.7,3.5-23.1,7.8-34.5,12.3c-27.1,10.8-53.4,22.1-81.9,28.9
													c-24.5,5.8-48.3,14.1-72.8,19.9c-6.7,1.6-15.2,3.1-22.2,6.4c-9.3-19.2-23.9-35.7-43-45.9c-4.7-2.5-9.2-4.3-13.6-5.5
													c11.7-4,23.3-8.5,34.9-11.4c27.4-6.8,53.8-16.3,80.4-26c29.3-10.8,59-19.5,89.3-27c22.6-5.6,47.9-16.8,71.4-14
													c-1.1,4.5-1.7,9.1-1.7,13.7c-3.3-0.2-6.5,3.4-3.5,6.2c1.8,1.6,3.5,3.3,5.1,5c-0.4,1.2-0.3,2.7,0.5,3.9
													c13.8,19,25.5,36.9,27.1,60.9c1.6,23.3-2.5,44.2-8.5,66.5c-1.1,4.2,4.3,7.3,7,3.6
													C2066.1,1043.4,2049.4,985.8,2012,948.4z M1767.1,1042.3c5.4,6.5,9.8,13.7,13.4,21.3c-2.5,2.1-4.5,4.6-5.7,7.8
													c-1.9,4.7,5.6,7.4,7.5,2.6c0.4-0.9,0.9-1.8,1.6-2.6c10.2,26.7,9.7,57.4-3.6,83.1c-0.9,1.7-1.8,3.3-2.8,4.9
													c-1.5-0.1-3.1,0.6-3.8,2.5c-1.2,3.1-2.7,5.8-4.4,8.3c-9.5,9.7-22,14.5-37.5,10.5c-6.7-1.7-13-4.7-18.7-8.7
													c-2.7-3.4-4.9-7.4-6.4-12.1c-1.2-3.7-6.2-3.7-7.6-1.2c-2.2-2.8-4.2-5.7-5.9-8.7c-13.8-24.8-25.8-61-19.4-90.7
													c2.1,1.7,6.2,1,6.7-2.6c1.4-9.3,4.2-19.2,9.2-27.2c0.7-0.7,1.3-1.3,2.1-2c0.9-0.8,1.3-1.7,1.3-2.7
													c5.3-6.3,12.4-10.6,22-11.1C1735.1,1012.6,1755,1027.6,1767.1,1042.3z M1735.1,867.7c-0.1,0.5-0.3,1.1-0.5,1.6
													c-0.1,0.3-0.1,0.7-0.1,1c-1.1,0.1-2.2,0.2-3.2,0.3C1732.5,869.6,1733.8,868.7,1735.1,867.7z M1745.5,860.4
													c0.1-0.4,0.2-0.8,0.4-1.2c1-2.9-2.4-6.8-5.4-4.9c-0.9,0.6-1.8,1.3-2.7,1.9c2.2-3.4,4.2-6.9,6-10.6c4,2.4,7.5,5.4,10.2,9
													C1750.6,856.1,1748,858.2,1745.5,860.4z M1720.9,841.5c-13.3,6.4-22.4,19.9-34.8,27.6c8.8-9.8,20.3-17,30.1-25.9
													c0.8-0.7,1.2-1.6,1.2-2.5c1-0.1,1.9-0.3,2.9-0.4c5.3-0.5,10.7,0.3,15.7,1.9c-5.6,3.7-10.9,7.8-16.1,12
													c2-2.3,4-4.5,6-6.9C1728.4,844.2,1724.2,839.8,1720.9,841.5z M1697.7,848.2c-7.1,5.6-14,11.3-19.7,18.1
													C1683.6,859.2,1690.2,852.8,1697.7,848.2z M1673.3,872.8c-0.6,0.9-1.1,1.8-1.6,2.8c-1.6,2.9,0.3,6.9,4,6.1
													c7.4-1.5,13.3-5,18.8-9.3c-1.4,2.2-2.8,4.4-4,6.8c-0.3,0.7-0.4,1.3-0.5,2c-8.6,3.5-17.2,7.3-26.2,9.9
													C1666.1,884.9,1669.4,878.7,1673.3,872.8z M1707.9,874.6c5.9-5,11.7-10.1,17.7-15c-3.5,4.4-7.1,8.7-10.7,13.1
													c0,0,0,0.1-0.1,0.1C1712.5,873.4,1710.2,874,1707.9,874.6z M1755.4,868.4c1.1-1.6,2-3.1,2.7-4.9
													c0.4,1.4,0.7,2.9,0.8,4.4C1757.7,868.1,1756.5,868.2,1755.4,868.4z M1747.2,905.4c0.5,0.8,1,1.6,1.5,2.4
													c-1.6,1-3.4,1.8-5.2,2.3c-0.2-0.3-0.5-0.6-0.8-0.9C1744.2,908,1745.7,906.7,1747.2,905.4z M1785.9,982.9
													c0-0.8-0.2-1.6-0.8-2.4c-1.1-1.3-2-3.1-2.7-4.9c5.3-1.6,10.2-4,15.1-6.7c2,2.8,4.1,5.6,6.3,8.2
													C1797.9,979.2,1791.9,981.1,1785.9,982.9z M1957.6,929.4c0.2-0.4,0.4-0.9,0.4-1.5c0.3-6-3.1-10-5.6-14.7
													c3.1-0.6,6.1-1.5,9-2.9c1.2,3.1,2.4,6.2,3.8,9.2c0.4,1.3,0.8,2.3,1.8,3.6c2.8,3.6,8.5-0.2,6.6-4.3
													c-0.3-0.6-0.5-1.2-0.8-1.8c0-0.1-0.1-0.2-0.1-0.3c-0.2-0.7-0.4-1.2-0.8-1.7c-1.7-3.6-3.2-7.3-4.4-11.1
													c-0.7-2.2-3.2-4.3-5.6-2.8c-4.6,2.8-9.4,4.7-14.9,4.8c-2.2,0-5,2.1-4.2,4.7c1.8,5.4,7.6,10.9,7.3,16.7
													c-0.1,1.8,0.9,3,2.2,3.6c-2.6,0.8-5.2,1.5-7.8,2.1c-27.1,7-54.2,13.4-80.7,22.6c-17.6,6.1-35,12.8-52.6,18.9
													c-0.1-0.7-0.3-1.4-0.9-2.1c-3.1-3.6-5.8-7.5-8.6-11.3c-1-1.3-3.3-1.8-4.7-1c-6.5,3.6-13,7.3-20.3,8.8
													c-2,0.4-3.7,2.6-3.1,4.6c1.1,3.8,2.8,8,5.2,11.3c-2.6,0.7-5.2,1.5-7.8,2.1c0.4-1.1,0.3-2.4-0.8-3.5
													c-8.8-9-11.8-21.3-18.1-31.8c-6.6-11.2-15.5-20.8-23-31.4c2.5-2.1,5-4.1,7.6-6.2c0.6,0.7,1.1,1.4,1.5,2.2
													c0.9,1.5,2.5,2.5,4.3,2.2c5.2-1,10-3.2,14-6.6c1.2-1,1.9-3.2,1-4.7c-1.5-2.5-3-4.8-4.7-7.2c7.6-7.8,13.4-16.7,14.3-28.3
													c1.5-18.9-13.6-32.3-30.5-37.5c-3.4-1-6.8-1.6-10.1-1.9c17.1-6.5,36.5-9.8,52.7-15.5c15.4-5.4,30.8-10.9,46.6-14.8
													c20.8-5.2,34.9-2.6,53.5,8.5c22,13,46.5,22.4,66.1,39.1c20.7,17.7,38.4,45.2,43.1,72.4
													C1978.2,923.3,1967.8,926.4,1957.6,929.4z M2042.7,1029.3c0.4,7.2,0,14.5-1.5,21.7
													C2042.2,1043.9,2042.7,1036.7,2042.7,1029.3z"/>
											</g>
										</g>
									</g>
								</g>
							</g>
						</g>
					</g>
				</g>
			</g>
		</g>
	</g>
	<path class="st3" d="M1766.8,1093.5c-9.1-28.1-48.5-63.1-72.8-30.7c-3.1,4.1,3.5,8.6,6.5,4.5c18.2-24.4,46.6,2.8,56,21.9
		c5.4,11.1,7.4,25.7,4.6,37.8c-3.4,14.5-13.5,14.2-22.8,9.3c10.1-2.7,16.1-13.9,16.2-24.9c0.1-14.5-8.4-27.5-17.9-37.8
		c-5.5-6-15-14.1-23.3-11.9c-1-1.5-2.7-2.4-4.7-1.2c-25,13.9-10.4,59.3,12.2,72.7c9.4,9.4,24.1,20.4,37.1,13.1
		C1774.4,1136.9,1771.7,1108.5,1766.8,1093.5z M1742,1094.4c5.1,9.3,8.3,27.3-3.3,33.5c-2.1,1.1-4.3,1.6-6.5,1.6c0,0,0-0.1,0.1-0.1
		c0.1-0.2,0.1-0.4,0.1-0.5c3.8,0.7,7.3-0.8,9.8-6.4c4.5-10.2,1.3-23.9-4.1-34.5C1739.6,1090.1,1740.9,1092.3,1742,1094.4z
		 M1715.3,1071.4c-0.6,1.2-1.2,2.4-1.8,3.7c-0.8-0.3-1.6-0.4-2.4-0.4c0.8-3.7,2.9-5.9,7-4.9
		C1717,1069.9,1715.9,1070.3,1715.3,1071.4z"/>
	<path class="st3" d="M1871.9,810.6c-5.8-4.2-12.5-5.9-19.2-8.2c-0.3-0.1-0.6-0.1-0.9-0.1c-1-2-3.8-3.4-6.3-1.7
		c-3.6,2.5-7.2,5.1-10.7,7.9c-2.5,1.9-1.4,5.7,1.2,6.7c6.1,2.5,10.1,7.2,14.1,12.3c1,1.2,3.3,1.9,4.7,1c5.9-3.7,12.3-6.7,17.3-11.6
		C1874,815.1,1874,812.2,1871.9,810.6z M1854.1,819.8c-2.8-3.4-5.8-6.4-9.4-8.8c1.2-0.9,2.3-1.7,3.5-2.6c0.4,0.6,1,1.2,1.9,1.5
		c4.2,1.4,8.6,2.6,12.6,4.5C1859.9,816.4,1857,818,1854.1,819.8z"/>
	<path class="st3" d="M1908.5,849.5c-1.2-4-3.3-6.7-6.3-9.5c-3.6-3.3-7-5.4-6-10.7c0.7-3.6-3.3-4.9-5.9-3.4
		c-1.6-1.3-4.1-1.5-5.5,0.8c-3.1,5-8.4,7.4-13.3,10.3c-2.4,1.4-2.8,3.9-1.3,6.1c4.8,6.9,11.3,12.4,17.9,17.4c1,0.8,2.8,1,4,0.3
		c4.5-2.8,9.3-4.9,14.2-6.9C1907.8,853.1,1909,851.1,1908.5,849.5z M1890.8,852.4c-4.2-3.3-8.2-6.8-11.7-10.8c3.4-2,6.6-4,9.2-6.8
		c0.5,2.1,1.5,4,3,5.8c2.2,2.7,5.8,4.7,7.9,7.6C1896.5,849.5,1893.6,850.9,1890.8,852.4z"/>
	<path class="st3" d="M1953.6,882.1c-0.5-4.5-2.7-8.1-5.8-11.3c-3-3-7.5-5.3-9.6-9c-0.7-1.2-1.8-1.8-2.9-2c-1-2.4-4.9-3.8-7.2-1.1
		c-3.7,4.1-9.2,6.2-14.1,8.6c-2.1,1-2.5,3.2-1.9,5.3c5.7,17.1,24.1,21.5,39.3,13.9C1953.1,885.5,1953.8,883.8,1953.6,882.1z
		 M1920.9,872.6c3.9-1.9,7.5-4,10.8-6.7c3.6,5.5,10.9,8.6,13.4,14.6C1935.5,884,1925.7,881.6,1920.9,872.6z"/>
	<path class="st3" d="M1790,947.1c0.1-7-2.2-12.6-7.7-16.9c-1.6-1.2-3.2-1-4.4,0c0.2-2.5-1.5-5-4.4-4c-6,1.9-12.2,3-18.3,4.7
		c-1.9,0.5-3.8,2.5-3.1,4.6c2.3,7,5.5,14.7,12.9,17.7c7.5,3.1,15.8,0.2,22.8-2.7C1789,949.9,1790,948.4,1790,947.1z M1761.1,937.4
		c4.7-1.1,9.3-2.1,13.9-3.6c0.5-0.2,0.9-0.4,1.3-0.7c-0.1,1.2,0.2,2.5,1.5,3.5c2.6,2,3.8,4.6,4.2,7.5c-4.1,1.6-8.9,3.2-13.1,1.9
		C1764.9,944.9,1762.6,941.2,1761.1,937.4z"/>
	<path class="st3" d="M1865.9,1129.8c-14.5,4.9-30.1,5-44.4,10.9c-4.7,2-1.3,9.1,3.4,7.1c14.2-5.9,29.9-6.1,44.4-10.9
		C1874.1,1135.3,1870.6,1128.2,1865.9,1129.8z"/>
	<path class="st3" d="M2005.1,1055.8c-20.3,8-41,14.5-62.2,19.9c-10.8,2.7-24.8,5.1-32,14.5c-3.1,4,3.4,8.5,6.5,4.5
		c8.4-10.7,31.6-12.2,44-15.7c16-4.5,31.7-9.9,47.1-16.1C2013.3,1061.1,2009.9,1054,2005.1,1055.8z"/>
	<path class="st3" d="M1987.5,1086c-15.9,6-31.8,13.6-49.1,13.8c-5.1,0.1-5.7,7.9-0.5,7.9c18.8-0.2,35.9-8,53.1-14.5
		C1995.7,1091.3,1992.3,1084.2,1987.5,1086z"/>
	<path class="st3" d="M1727.6,1184.2c-11-6.7-30.9-15.4-33.8-29.3c-1-5-8.7-2.9-7.6,2.1c0.3,1.4,0.8,2.8,1.3,4.1
		c-2.2-1.3-4.4-2.6-6.6-3.9c-3.5-2-7.3,2-5.4,5.4c0.1,0.3,0.3,0.5,0.4,0.8c-3.4-1.3-6.3,3.8-3.8,6.7c6.8,7.7,15.8,13.4,25.5,17.5
		c0.2,0.1,0.4,0.2,0.6,0.3c7.5,5.4,15.8,9.4,24.4,11.1c3.6,0.7,7.1-3.8,3.8-6.6c-0.2-0.2-0.5-0.4-0.8-0.7c0.3-0.1,0.6-0.2,0.9-0.3
		C1729.8,1190.3,1730.6,1186,1727.6,1184.2z"/>
	<path class="st3" d="M2017.3,978.6c-0.2-0.4-0.4-0.9-0.5-1.3c0.5-0.6,0.8-1.4,0.8-2.3c-0.7-12.7-6.5-23.5-13.3-33.8
		c3-2.5-0.3-8-3.9-6.6l0,0c-0.1-2-1.8-4-3.9-3.8c-5.3,0.6-10.6,1.3-15.8,2.2c-24.4-1.9-49.2,8.5-71,20.6c-5.2,1.5-10.5,3-15.7,4.5
		c-2.6,0.5-5.2,1.1-7.7,1.7c-2.1-1.8-5.6-1.1-6.4,1.4c-1.4,0.3-2.8,0.7-4.2,1.1c-8.8,2-17.5,4.3-26.2,6.7c-1.5-0.4-3.2,0-4.2,1.2
		c-5.7,1.6-11.4,3.3-17.1,5.1c-4.2,1.3-8.3,2.7-12.5,4.2c-1,0.3-2,0.7-3,1c-1.8-0.8-3.9-0.1-4.9,1.7c-3.1,1-6.1,2.1-9.2,3.2
		c-2.5-3.1-6.9-2-7.4,2c0,0.2,0,0.4,0,0.6c-7.7,2.7-15.3,5.5-23.1,8.1c-0.1,0-0.1,0.1-0.2,0.1c-4.5,1.6-8.9,3.5-12.7,6.3
		c-1.3-0.1-2.6-0.2-3.9-0.2c-1.5,0-2.6,0.8-3.2,1.8c-5.1-1.2-10.4-1.7-16.1-1.1c-5,0.5-5.1,8.4,0,7.9c7-0.7,14.1,0.5,20.8,3
		c12,13.6,22.3,28.7,33.6,42.9c1.9,2.4,5.3,1,6.4-1.3c0.2,0.1,0.3,0.3,0.5,0.3c-1.1,0.8-2.2,1.7-3.2,2.7c-2.4,2.2-0.6,7,2.8,6.8
		c25.8-2.2,51.8-16.1,76.3-27.2c1.1,0.1,2.3-0.5,3-1.4c3.8-1.7,7.6-3.3,11.3-4.8c0.7-0.3,1.5-0.6,2.2-0.9
		c20.7,2.1,39.3-7.6,58.4-14.9c14.4-5.5,29.1-10.2,43.8-14.9c6.4-2,14.1-3.1,18.8-8.2c3.4-3.7-2.1-9.4-5.6-5.6
		c-1.7,1.8-4.4,3.2-7.5,4.4c0.6-0.8,0.8-1.9,0.5-3.1c-1.8-6.2-4.5-12-7.2-17.7c3.7,4.1,7.6,8.1,12,11.7c2.6,2.1,6.2,0.6,6.7-2.2
		c0.9,0.7,1.7,1.3,2.6,2c0.9,0.6,1.9,0.6,2.9,0.4C2013.9,984.5,2018.7,982.4,2017.3,978.6z M1955.4,955.9c5.4,8.6,10.6,17.1,14,26.5
		c-3.5-3.5-7-7.2-10.1-11.1c-2-5-4.4-9.9-7-14.6c1-0.3,2-0.6,2.9-1C1955.4,955.8,1955.4,955.9,1955.4,955.9z M1863.4,1015.6
		c0.1-3.3-0.1-6.6-0.5-9.9c0.7-0.3,1.3-0.6,2-0.8c0.9,3.1,2,6.1,3.3,9.1c-0.7,0.3-1.5,0.5-2.3,0.7
		C1865.1,1015,1864.3,1015.3,1863.4,1015.6z M1827.8,1023.4c0.4-0.3,0.9-0.6,1.3-0.9c0.4,0.8,0.9,1.6,1.3,2.4
		c-0.8,1.1-1.6,1.3-2.5,0.8C1827.9,1025,1827.8,1024.2,1827.8,1023.4z M1843,1006.2c-0.3,0.1-0.6,0.3-0.9,0.4
		c-0.5-2.4-0.9-4.8-1.2-7.2C1841.7,1001.7,1842.4,1004,1843,1006.2z M1860.7,993.8c0.5,0.1,1,0.2,1.6,0.3c0.2,1.1,0.5,2.3,0.7,3.4
		c-0.4,0.2-0.9,0.4-1.3,0.5C1861.4,996.6,1861,995.2,1860.7,993.8z M1860,980.2c0,0.2,0.1,0.4,0.1,0.5c-0.9,1-1.8,2-2.6,3
		c-0.3-0.8-0.6-1.5-0.9-2.3C1857.7,981,1858.8,980.6,1860,980.2z M1899.3,990.8c0,2.7,0,5.5-0.2,8.2c-0.8-2.4-1.5-4.8-2.2-7.2
		C1897.7,991.5,1898.5,991.1,1899.3,990.8z M1884.7,1002.3c-0.2-1.7-0.3-3.5-0.6-5.2c1-0.4,2-0.8,3-1.2c0.5,3.8,0.8,7.7,0.8,11.5
		c-0.3,0.1-0.6,0.2-0.9,0.3C1886.2,1005.9,1885.4,1004.2,1884.7,1002.3z M1907.1,989.1c1.6,3.8,3.3,7.4,5.3,10.8
		c-1.9,0.6-3.7,1.1-5.6,1.7C1907.1,997.5,1907.2,993.3,1907.1,989.1z M1913.2,984.2c1.4-0.7,2.8-1.4,4.1-2.2
		c2.1,5,3.7,10.1,4.5,15.1c-0.6,0.2-1.3,0.4-1.9,0.6C1917.2,993.6,1915.1,988.9,1913.2,984.2z M1938.9,991.9c-0.7,0.2-1.3,0.4-2,0.6
		c-3.9-5.1-7.5-10.3-10.9-15.7c1.9-1.2,3.8-2.5,5.6-3.8c1.7,3.7,3.5,7.4,5.6,10.9C1937.9,986.7,1938.5,989.3,1938.9,991.9z
		 M1804.8,1009.7c2.9,5.2,5.5,10.7,7.1,15.6c-0.7,0.5-1.4,1-2,1.6c-3-5.1-5.5-10.9-7.4-16.6
		C1803.3,1010.1,1804,1009.9,1804.8,1009.7z M1863.3,1024.7c1.5-0.5,3-1.1,4.5-1.6c-0.2,1.3-0.5,2.5-0.8,3.7
		c-0.5,0.1-0.9,0.3-1.4,0.4C1864.8,1026.5,1864,1025.6,1863.3,1024.7z M1955.9,987.3c-0.6-0.1-1.1-0.1-1.8,0.1
		c-1.5,0.5-2.9,0.9-4.4,1.3c-1.8-2.2-3.4-4.7-4.9-7.2c-1.6-5.7-3.9-11.3-6.5-16.5c2-0.9,3.9-1.9,5.9-2.8c2.2,4.7,5.2,9,8.5,13.2
		C1954.1,979.3,1955.2,983.3,1955.9,987.3z M1780,1007.7c1.3-0.3,2.6-0.6,3.9-1c0.5,1.6,1,3.2,1.6,5
		C1783.7,1010.3,1781.9,1009,1780,1007.7z M1896.3,1018c-0.4-0.1-0.8,0-1.3,0.1c0.2-1.5,0.4-3,0.5-4.5c0.2,0,0.3-0.1,0.5-0.1
		c0.5,1.3,1,2.6,1.6,3.8c0,0.1,0.1,0.1,0.1,0.1C1897.2,1017.6,1896.7,1017.8,1896.3,1018z M1905.8,1010.9c4.1-1.1,8.2-2.1,12.4-3.2
		c0.2,0.2,0.4,0.4,0.5,0.6c-4.5,2-9,3.9-13.5,5.9C1905.4,1013.1,1905.6,1012,1905.8,1010.9z M1963.1,953.2c0.9-0.3,1.9-0.6,2.8-0.9
		c1.5-0.5,3-0.9,4.5-1.3c2.5,9.7,7.2,18.4,11.2,27.4C1974.3,971.1,1969,961.8,1963.1,953.2z M1773.5,1026.2c4.2,3.7,7.1,8,9.8,12.5
		c0.2,0.6,0.3,1.2,0.5,1.8c-3.9-5.2-7.8-10.4-11.8-15.6C1772.4,1025.4,1773,1025.8,1773.5,1026.2z M1798.8,1047c0.3-1,0.5-2,0.7-2.9
		c0.5,0.3,1,0.6,1.5,0.8c0.4,0.2,0.9,0.3,1.3,0.4c1,1.2,2.1,2.2,3.1,3c-2.2,1-4.3,2.1-6.3,3.3
		C1799.1,1050.1,1799,1048.6,1798.8,1047z"/>
</g>
<g id="Pictures">
	<path class="st3" d="M1642.7,1205.8c-25.3,1.2-44.3-14-66.5-23.3c-21.7-9.1-44.9-15-67.1-22.8c-23.1-8.2-46-17.3-68.7-26.6
		c-14.5-6-29-12.1-43.4-18.6c-4.7-2.1-27.9-9.6-33.5-14.5c-0.5-0.8-1.1-1.7-1.7-2.5c-2.5-3.4-8.6-1.6-7.2,3c0.1,0.3,0.3,0.6,0.4,0.9
		c0,0,0,0,0,0c0.1,0.1,0.1,0.2,0.2,0.2c0.4,0.9,0.9,1.6,1.6,2.3c0.4,0.6,0.8,1.2,1.2,1.8c0.9,1.5,2.4,2,3.8,1.8
		c3.8,1.9,8.2,3.1,11.5,4.6c13.3,6.2,26.7,12.2,40.2,18c26.4,11.3,53.2,22.1,80.1,32.1c27.8,10.4,57.7,17.2,84.7,29.6
		c20,9.2,37.4,21.1,59.5,21.7c-19.3,75.5-79,137-118.2,202.5c-23,38.4-45.4,77-70,114.5c-7.9,12.1-16.1,24-23.4,36.5
		c-6,10.3-12.2,28.5-25.6,28.9c-14.7,0.5-30.8-8.8-43.7-14.7c-13.7-6.2-27-11.1-41.5-15.1c-43.1-11.9-85.7-21.3-127.3-38.2
		c-83.8-34.1-168.8-66.9-257.8-84.5c-48-9.5-97.3-15.5-143.1-33.7c-39.3-15.7-74.1-43-117.1-46.4c18.2-27.1,35.2-55.3,55.5-80.9
		c14.1-17.7,31.1-34.6,38.5-56.4c1.7-4.8-6-6.9-7.6-2.1c-8.3,24-28.8,42.2-43.7,62.2c-18.9,25.4-35.4,52.6-53.2,78.8
		c-1.7,2.6,0.6,5.9,3.4,6c46.3,0.7,83.7,31.7,125.5,47.7c42.7,16.4,88.2,22.6,132.9,31.1c92.8,17.7,181,51.7,268.1,87.3
		c43.7,17.8,89.2,26.4,134.3,39.8c24.8,7.4,53.8,30,80.6,27c17.8-2,25.5-27.6,33.6-40.8c23.1-37.4,48-73.5,70.2-111.5
		c24.8-42.5,52.1-82.8,79.7-123.5c24.5-36.1,49.2-74.3,59-117.4C1647.1,1208.4,1645.4,1205.6,1642.7,1205.8z"/>
	<path class="st3" d="M1608.6,1127.7c-2.5-14.4-14.8-17.4-27.7-19.9c-28.3-5.5-55.9-10.9-84-17.5c-26.9-6.3-57.7-4.7-83.4-13.9
		c-4.8-1.7-6.9,5.9-2.1,7.6c21,7.6,44.7,6.2,66.5,10.4c23.8,4.5,46.7,12.8,70.7,16.6c11,1.7,22.6,2.4,33.4,5.2
		c14.6,3.8,19.3,8.6,18.7,23.4c-0.4,11.6-1.2,23.2-2.3,34.8c-0.5,5.7-1.9,12.1-1.7,17.8c-0.2,2.4-0.3,4.8-0.5,7.2
		c0.1,0.1,0.1,0.1,0.1,0.2c-3.1-1.9-7.8,1.5-5.5,5.3c2.8,4.6,3.6,6,9.1,5.7c2.2-0.1,3.9-1.7,4-4
		C1604.9,1181.3,1613,1152.6,1608.6,1127.7z"/>
	<path class="st3" d="M1588.5,1319.4c-0.1-5.1-8-5.1-7.9,0c1.5,67.2-21.7,130.9-30.7,196.9c-1,7-1.8,14-2.3,21.1
		c-0.4,5.6,1.9,23.8-1,28c-7.5,10.8-34.2,0.2-46.2-1.3c-14-1.8-28-0.8-42.1-1.1c-6.1-0.1-18.1,1.5-24.9-0.4
		c-0.8-1.4-2.2-2.3-4.2-1.6c-0.4,0.1-0.7,0.3-1.1,0.4c-3.1,1-4.1,5.5-0.9,7.2c9.8,5.3,31.6,2.4,41.8,2.3c27.3-0.3,54.7,8.9,81.8,5.5
		c2.1-0.3,4-1.6,4-4C1552.1,1486.3,1590.4,1405.3,1588.5,1319.4z"/>
	<path class="st3" d="M1178.5,1517.2c-42.2-4.6-83.6-15.5-125.6-22.1c-43.9-6.8-87.6-14.5-131.4-21.5c-39.8-6.4-80-11.7-120.3-12.5
		c-5.8-0.1-23.1,3.1-27.6,0.5c-3.3-1.9-3-12.3-3.5-17.7c-1.3-14.6-4.9-33.4,1.1-47.3c2-4.6-4.8-8.7-6.8-4
		c-9.5,21.8-1.7,50.1-0.2,72.9c0.1,2.1,1.7,4,4,4c72.2-2.9,143.3,10.3,214.1,22.4c35.6,6.1,71.4,10.7,106.9,17.2
		c26.8,4.9,53.3,11.3,80.3,14.9c0.8,2.4,4.1,4.2,6.7,2c0.8-0.3,1.7-0.5,2.5-0.8C1183.6,1524.6,1183.5,1517.7,1178.5,1517.2z"/>
	<path class="st3" d="M1459,1511.4c-35.2-11.5-67.6-29.5-102.2-42.7c-16.3-6.2-33-11.4-50.3-13.7c-5.1-0.7-17,0.8-21-2
		c-2.2-1.5-1.9-4.5-4.1-6.5c-6-5.4-13.1-3.4-20.5-4c-20.3-1.6-19.3-13.8-22.5-30.4c-5.6-28.6-27.6-31-51.8-33.5
		c11.4-23.9-10.5-31.4-32.7-24.5c0.6-24.7,3.6-56.4-31.5-43.5c-13,4.8-27.3,12.3-33.8,25c-1.5,3-2,6.7-3.5,9.7
		c-0.6,7.1-4.7,10.6-12.2,10.5c-4.7,3.7-9.5,4.4-14.4,1.9c-9.7-1.9-19.2-7.9-28.9-10.6c-27.9-7.8-56.6-12.3-84.5-20.3
		c-27.6-7.9-57.8-11.7-83.1-25.8c-21.2-11.8-37.9-24.4-62.6-28.2c-26.9-4-53.9,0.8-80.1,7.1c-5,1.2-2.9,8.8,2.1,7.6
		c27.2-6.5,55.8-11.6,83.5-5.7c24.8,5.3,42.4,22.3,65.1,32.1c19.9,8.7,41.9,11.4,62.6,17.4c24.5,7,49.1,12.5,73.8,18.2
		c18.7,4.3,36.2,13.2,54.7,17.2c9.6,2.1,19,1.3,25.6-6.7c4.2-5,4.8-11.3,7.3-17c5.3-12.4,15-18,26.6-23.1c2.5-1.1,9.4-4.9,12.2-4.3
		c8.7,1.8,13.3,12.7,14.1,19.8c0.9,7.8-1.2,16.4-1.2,24.2c0,2.3,2.6,4.8,5,3.8c12.9-5.3,41.6-8.9,26,16.4c-1.7,2.8,0.6,5.6,3.4,6
		c20.9,2.3,43.9,0.7,50.2,26c2.2,8.9,1.3,20,6.2,28.1c7,11.6,39.1,6.9,40,17.5c0.2,2.1,1.7,4,4,4c63.9-1.1,117.7,38.3,176.4,57.5
		C1461.7,1520.6,1463.8,1513,1459,1511.4z"/>
	<path class="st3" d="M1588.2,1218.9c-17.6-3-37.4,6.9-45.3,22.7c-9.3-5.1-18.1-1-22.8,8.4c-23.6-23.7-61.4-16.7-92.3-17.7
		c-10.9-0.4-45.8-7.1-51.1,7.3c-19.8-11.8-54.1-11.4-73.4-5c-8,2.6-16.5,7.5-16.3,17c0.3,12.9,16.3,18.6,26.1,22.3
		c18.2,6.8,37.8,11.1,56.6,15.7c12.7,3.1,25.6,5.5,37.9,10c10.2,3.8,20.7,8.4,25.5,19.4c1.8,4.1,1.3,9.3,2.9,13.7
		c6,16.6,25.8,26.7,40.2,34.7c20.1,11.1,43.8,17.3,66.8,17.2c5.1,0,5.1-7.9,0-7.9c-34.8,0.1-92.6-18.3-101.6-56.2
		c-7.2-30.3-49.9-33.4-74.6-39.8c-12.8-3.3-25.7-6.4-38.3-10.1c-9.6-2.8-47.1-14.1-27.4-26.7c16.6-10.6,62-7.5,76.4,6.1
		c2.9,2.7,7.6,0,6.6-3.8c-3-12,45-5.9,53-6.1c26.8-0.6,62.6-4.6,80.9,19.4c1.9,2.5,6.3,2.7,7.2-0.9c5.5-2.7,11-5.5,16.6-8.2
		c2.3,2,5.7,1.2,6.6-1.7c4.4-13.8,21.1-23.4,35.5-22.3c20.4,1.5,27.6,22.2,28.3,39.6c0.2,5.1,8.1,5.1,7.9,0
		C1619.3,1245.7,1610.7,1222.8,1588.2,1218.9z"/>
	<path class="st3" d="M1394.6,1289.2c-0.6-0.3-1.3-0.6-1.9-1c-2-1.2-3.8-0.4-4.9,1c-7.8-2.7-28.1-9.9-29.6-10.4
		c-12-3.9-23.9-7.8-35.8-11.9c-25.1-8.5-50.1-17.4-75-26.5c-23.1-8.4-46-17.2-67.7-28.7c-18.9-10-36.1-22.7-56.8-28.8
		c-4.5-1.3-6.5,4.9-3.2,7.1c-43,48.8-87.4,97-118,155c-2.4,4.5,4.5,8.5,6.8,4c27.5-52.3,66.5-96.6,105.4-140.6
		c-4.2,7.3-9.1,14.4-13.1,21.1c-11.8,19.4-24,38.6-35.6,58.3c-7.8,13.2-41.6,59.9-25.4,75.9c3.6,3.6,9.2-2,5.6-5.6
		c-7.3-7.2,8.2-32.7,11.3-38.8c8.6-16.9,18.5-33.1,28.4-49.3c13.9-22.7,35.7-48.3,43.4-74.6c0.4-0.4,0.8-0.9,1-1.6c0,0,0-0.1,0-0.1
		c19.2,7.6,36.3,20.3,54.9,29.4c19.7,9.7,40.2,17.5,60.8,25c48.5,17.6,97.3,34.6,146.7,49.5c1.3,0.4,3,0,3.8-1l0.7-0.8
		C1398.3,1293.6,1397.6,1290.2,1394.6,1289.2z"/>
	<path class="st3" d="M1402.4,1334.2c-5.1-12.4-19.8-15.7-31.7-18.5c-28.7-6.7-56.2-14.8-83-27.6c-30-14.3-59.1-30.7-88.1-47
		c-22.7-12.8-43.5-31.1-68.9-38.3c-4.9-1.4-7,6.2-2.1,7.6c24.5,7,45.1,25.1,67,37.5c25.7,14.5,51.5,28.8,77.9,42
		c22.4,11.2,45.4,20.5,69.4,27.4c13,3.7,46.1,5,51.8,18.9C1396.7,1340.9,1404.3,1338.9,1402.4,1334.2z"/>
	<path class="st3" d="M1422.5,1308.5c-0.1,0.7-0.2,1.3-0.3,2c-0.9-3.3-6.4-4.1-7.6,0c-7.1,23.8-10,48.5-15.4,72.7
		c-5.8,26.2-16.1,51-20.2,77.6c-0.8,5,6.8,7.1,7.6,2.1c4.1-26.6,14.3-51.5,20.2-77.6c5.3-23.6,8.2-47.5,14.8-70.8
		c-3.8,28.3-6.5,56.7-11.9,84.8c-4.5,23.4-5.7,47.5-10.3,70.8c-1.6,0.4-2.9,1.6-2.9,3.7c0,2.5,0.1,5,0.4,7.5
		c0.4,4.2,6.6,5.7,7.8,1.1c6.7-26.5,7.4-54.1,12.6-80.9c5.8-30,8.4-60.5,12.7-90.7C1430.8,1305.6,1423.2,1303.4,1422.5,1308.5z"/>
	<path class="st3" d="M1559.8,1331.4c-20.9-6.6-43.3-4.1-64.6-8.4c-23.2-4.7-41.3-21-63.9-27.2c-4.9-1.3-7,6.3-2.1,7.6
		c22.6,6.2,40.7,22.6,63.9,27.2c21.3,4.2,43.8,1.8,64.6,8.4C1562.6,1340.6,1564.7,1332.9,1559.8,1331.4z"/>
	<path class="st3" d="M1128.7,1187c-21-4.1-42.3-2.3-63.5-4.8c-13.5-1.6-27.8-5.2-41.4-3.1c-5,0.8-2.9,8.4,2.1,7.6
		c12.6-2,26.8,1.9,39.3,3.4c20.4,2.4,41.1,0.6,61.4,4.5C1131.5,1195.6,1133.7,1188,1128.7,1187z"/>
	<path class="st3" d="M1105.9,1211.2c-27.9-13.2-60.6-8.7-87-25.7c-4.3-2.8-8.3,4.1-4,6.8c26.6,17.1,59,12.4,87,25.7
		C1106.5,1220.2,1110.5,1213.3,1105.9,1211.2z"/>
	<path class="st3" d="M1529.4,1236.8c-0.2-0.6-0.5-1.1-0.8-1.5c-0.2-13.5-0.6-27-2.4-40.4c-0.3-2.5-3.1-3.3-5.2-2.5
		c-2.8-6.7-6.5-12.8-11.5-18.2c0,0,0,0,0,0c0.1-2.2-2-3.8-4-3.9c-6.6-5.9-15-10.7-25.7-14.3c-1-0.4-1.7-0.6-2.1-0.7
		c-0.2,0-0.3,0-0.5,0c-4.3-4.3-9.1-7.8-14.3-9.7c-4.8-1.8-6.8,5.9-2.1,7.6c15.7,5.8,31.2,32,36.1,47c8.1,24.7,4.6,53.9,4.5,79.5
		c-0.1,28.2,0.9,56.6-1.3,84.8c-2.1,27-8.9,53.5-6.6,80.7c0.3,3.4,3.9,4.5,6.1,3.3c0.2,0.1,0.5,0.2,0.7,0.3c-3.7,5-7.9,7.6-11.9,4.3
		c-3.9-3.2-9.6,2.4-5.6,5.6c20.5,16.6,31.8-20.4,37.7-34c0.7-1.6,0.4-3-0.3-4.1c0.3-0.4,0.6-0.8,0.9-1.2c1.9-2.5,0.1-4.8-2.3-5.4
		c1.3-2.3,2.5-4.6,3.6-6.9c1.1-2.2,0.1-4.3-1.5-5.3c0.7-2.8,1.4-5.5,2.1-8.3c0.1,5.1,0.2,10.3,0.2,15.4c0,5.1,7.9,5.1,7.9,0
		c0.1-21.3,1.1-42.8,1-64.2C1536.7,1308.3,1540.3,1270.7,1529.4,1236.8z M1509.9,1288.5c0.7,3.8,1.4,7.6,2.2,11.3
		c-0.3,8.9-0.4,17.9-0.5,26.8c0,0,0,0.1,0,0.1c-0.8,3.1-1.6,6.2-2.2,9.3C1509.8,1320.2,1509.9,1304.3,1509.9,1288.5z M1528.1,1287.8
		c0-5.1,0-10.2-0.1-15.3c0-0.2,0-0.5,0-0.7c0.5,6.4,0.7,12.9,0.7,19.4C1528.5,1290,1528.3,1288.9,1528.1,1287.8z M1515.5,1197.3
		c-1.3,0.5-2.4,1.6-2.2,3.6c0.1,1.7,0.2,3.4,0.3,5c-0.7,1.8-1.3,3.5-1.8,5.3c-1.2-8.4-2.1-16.9-2.3-25.5
		C1511.9,1189.2,1513.9,1193,1515.5,1197.3z M1495.6,1180c-2.4-3.8-5-8-8-12.2c4.9,2.9,9.1,6.7,13.1,11.4c0.2,0.2,0.5,0.4,0.8,0.5
		c0,4.2,0.1,8.4,0.3,12.6C1500.1,1188.1,1498.1,1184,1495.6,1180z"/>
	<path class="st3" d="M935.7,1252.5c6.5-8,15.3-19.7,11.7-28.7c-4.4-10.9-22.5-9.4-31.4-9.2c-5.1,0.1-5.1,8,0,7.9
		c10.6-0.1,25-1.3,21.7,12.5c-1.5,6.3-8.9,13.4-12.7,18.4c-1.4,1.9,0,5.5,2.4,5.8c17.2,2.5,49.1,6,42,31.1
		c-5.9,21.1-33.8,24.3-49.4,35.6c-4.1,3-0.1,9.8,4,6.8c19.6-14.2,55.8-18.8,54.4-50.3C977.3,1260.6,954,1255.3,935.7,1252.5z"/>
	<path class="st3" d="M856,1230.7c-15.1,8.4-32,12.7-47.1,21.2c-13.6,7.8-25.4,17.4-40.2,22.1c6.7-14.1,20.3-24.8,30.8-36.1
		c3.2-3.4-0.8-8-4.8-6.2c-14.2,6.3-26.9,15.2-40.7,22.1c5.3-5.7,10.8-11.2,16.4-16.6c3.6-3.6-2-9.2-5.6-5.6
		c-9.9,9.7-19.6,19.2-27.9,30.4c-2.1,2.8,1.4,6.9,4.5,5.8c12.4-4.2,23.5-10.8,34.7-17.3c-7.7,8.3-14.5,17.2-17.7,28.2
		c-0.9,3.1,2,5.4,4.9,4.9c17-3.1,30.3-12.8,44.7-21.7c7.2-4.4,14.8-7.8,22.5-11c-15.1,13.4-29.5,29.8-22.8,39c2.9,4.1,9.8,0.2,6.8-4
		c-5.6-7.9,38.9-43.7,45.4-48.2C864.1,1234.7,860.5,1228.2,856,1230.7z"/>
	<path class="st3" d="M904.1,1230.9c-22.2,15.4-45.5,32.1-60.8,54.8c-2.8,4.2,4,8.2,6.8,4c14.4-21.5,36.9-37.4,57.9-52
		C912.3,1234.9,908.3,1228,904.1,1230.9z"/>
	<path class="st3" d="M939.7,1280.4c-5.5,3.7-10.8,7.6-16.1,11.6c0.1-2.9-2.7-5.8-5.7-3.7c-7.6,5.5-15.5,9.7-24.1,13.3
		c1.1-4.3,4.7-8.6,9.6-12.8c13.7-7.6,26.9-16.5,39.1-23.1c4.5-2.4,0.5-9.2-4-6.8c-9,4.7-27.1,13-39.6,23.5
		c-11.1,6.1-22.6,11.1-34,12.8c14-19.8,34.4-35.3,55-47.6c4.4-2.6,0.4-9.5-4-6.8c-24,14.4-47.6,32.9-62.3,57.1c-1.6,2.6,0.4,6,3.4,6
		c10.2-0.1,20.3-2.9,30.2-7.1c-1.6,3.7-2.2,7.7-1.2,11.7c0.5,1.9,2.9,3.5,4.9,2.8c7.1-2.7,13.9-5.8,20.4-9.5
		c-6.7,5.5-13.3,11.2-20,16.8c-3.9,3.3,1.7,8.9,5.6,5.6c15.1-12.9,30.1-25.9,46.7-37C947.9,1284.4,944,1277.6,939.7,1280.4z"/>
	<path class="st3" d="M1077.3,1258.2c-5.9-1.4-11.8-2.7-17.8-4c-5-1-7.1,6.6-2.1,7.6c6,1.2,11.9,2.5,17.8,4
		C1080.1,1267.1,1082.2,1259.4,1077.3,1258.2z"/>
	<path class="st3" d="M1060.4,1294.2c-0.8,0.6-1.6,1.1-2.3,1.6c-1.5-7.2-3.2-14.5-3.6-21.9c-0.3-5.1-8.2-5.1-7.9,0
		c0.5,8.9,2.8,17.6,4.4,26.4c-11.1,6.4-23.1,11.1-34.1,17.7c-4.4,2.6-0.4,9.5,4,6.8c10.1-6,21-10.5,31.3-16.1
		c0.3,2.9,0.4,5.8,0.3,8.7c-0.2,5.1,7.7,5.1,7.9,0c0.2-4.4-0.2-8.8-0.8-13.1c1.6-1.1,3.2-2.1,4.8-3.3
		C1068.4,1298.1,1064.5,1291.2,1060.4,1294.2z"/>
	<path class="st3" d="M1041.4,1352.2c-7.1-8.1-15.2-15-24.5-20.4c-4.4-2.6-8.4,4.3-4,6.8c8.8,5.1,16.3,11.6,22.9,19.2
		C1039.2,1361.6,1044.8,1356,1041.4,1352.2z"/>
	<path class="st3" d="M1418.9,1364.9c-3.9,7.2-11.2,11-18.4,14.4c-4.6,2.2-0.6,9,4,6.8c8.4-4,16.7-8.8,21.2-17.2
		C1428.2,1364.4,1421.3,1360.4,1418.9,1364.9z"/>
	<path class="st3" d="M1404.5,1387.2c-1.7-1.3-4.4-0.2-5.4,1.4c-1.2,2-0.3,4.1,1.4,5.4c4.3,3.3,7.2,8.1,8.1,13.5
		c0.8,5,8.4,2.9,7.6-2.1C1415.1,1397.8,1410.4,1391.7,1404.5,1387.2z"/>
	<path class="st3" d="M1409.9,1440c-5.3-7.3-10.9-14.3-15.8-21.8c-2.8-4.2-9.6-0.3-6.8,4c4.9,7.5,10.5,14.5,15.8,21.8
		C1406.1,1448.1,1412.9,1444.2,1409.9,1440z"/>
	<path class="st3" d="M1412.4,1450.5c-9.4,4-18.7,7.7-26.5,14.5c-3.9,3.3,1.8,8.9,5.6,5.6c7.2-6.2,16.3-9.5,24.9-13.2
		C1421.1,1455.3,1417.1,1448.5,1412.4,1450.5z"/>
	<path class="st3" d="M1421.4,1578.6c-2.6-1-5.3-1.7-8-2.2c0-0.1,0.1-0.1,0.1-0.2c2.4-0.3,4.8-0.7,7.2-1.2c3.9-0.9,3.6-6.5,0-7.6
		c-3.1-0.9-6.2-1.8-9.3-2.5c0.4-1.5,0-3.1-1.8-4c-0.5-0.2-1.1-0.4-1.6-0.7c2.2,0.2,4.4,0.4,6.5,0.6c5.1,0.4,5-7.5,0-7.9
		c-28.8-2.6-55.9-14.5-84-20.7c-30.1-6.6-60.9-8.8-91.7-9.2c-1.5,0-2.6,0.7-3.2,1.6c-19.6-1.9-39.2-3.5-58.5-7.4
		c-2-0.4-3.5,0.5-4.3,1.9c-5.5,0-11,0.6-16.6,2.2c-4.9,1.4-2.8,9,2.1,7.6c8.6-2.4,17.2-2.5,25.8-1.3c8.8,2.7,17.7,5.1,26.7,7.2
		c17.2,6.2,34.4,14.2,51.4,16.4c1.1,0.1,2.2,0.3,3.4,0.4c0.4,0.7,1.1,1.4,2.1,1.7c5.6,2,11.4,3.7,17.3,5c0.3,0.3,0.6,0.6,1,0.8
		c18,8.5,34.8,16.9,54.7,18.6c10.6,5.6,21.8,9.1,33.2,12.2c0.6,0.4,1.2,0.7,1.7,1.1c1.1,0.8,2.4,0.8,3.4,0.3
		c7.4,1.9,15,3.8,22.5,5.9c4.5,1.3,6.7-4.8,3-7.2c-1-0.7-2-1.2-3-1.8c0.4-0.3,0.7-0.7,1.1-1.1c0.5,0.5,1.1,0.9,1.7,1
		c7.4,1.2,11.2,0.7,17.8-2.6C1425.7,1584.2,1424.3,1579.7,1421.4,1578.6z M1334.8,1565.4c-1.4-0.6-2.8-1.2-4.3-1.8c0,0,0,0,0,0
		c6.3,0.5,12.6,1.6,18.8,3C1344.5,1566.1,1339.7,1565.7,1334.8,1565.4z M1245.5,1533.4c2,0.7,4,1.3,6,1.9c-4.9-0.9-9.9-1.8-14.8-2.8
		C1239.7,1532.8,1242.6,1533.1,1245.5,1533.4z M1340.3,1542.7c-8.4-1.2-16.8-2.3-25.2-3.4c-5.4-1.6-10.9-3.1-16.4-4.5
		C1312.7,1536.6,1326.6,1539.1,1340.3,1542.7z"/>
	<path class="st3" d="M960.9,1380.7c-6.5-13-18.5-22.5-31.1-29.1c-4.5-2.4-8.5,4.4-4,6.8c11.5,6.1,22.4,14.4,28.2,26.3
		C956.4,1389.2,963.2,1385.2,960.9,1380.7z"/>
	<path class="st3" d="M936.6,1391.8c-9.4-8.7-19-16.9-31.4-20.8c-4.9-1.5-7,6.1-2.1,7.6c11.1,3.4,19.6,11,27.9,18.8
		C934.7,1400.8,940.3,1395.2,936.6,1391.8z"/>
	<path class="st3" d="M817.9,1366c-6.6-5.3-13.2-10.5-19.8-15.8c-3.9-3.2-9.6,2.4-5.6,5.6c6.6,5.3,13.2,10.5,19.8,15.8
		C816.3,1374.8,821.9,1369.2,817.9,1366z"/>
	<path class="st3" d="M1140.9,1444c-4.9-6.4-9.2-13.2-13.8-19.8c-2.9-4.1-9.7-0.2-6.8,4c4.6,6.6,8.9,13.4,13.8,19.8
		C1137.2,1452,1144,1448,1140.9,1444z"/>
	<path class="st3" d="M1168,1441.2c-4-3.2-8.3-6-12.7-8.5c-4.4-2.5-8.4,4.3-4,6.8c3.8,2.2,7.6,4.5,11.1,7.3c1.7,1.3,4,1.6,5.6,0
		C1169.4,1445.4,1169.7,1442.5,1168,1441.2z"/>
	<path class="st3" d="M1400.4,1120.6c-0.8-5-8.5-2.9-7.6,2.1c4.2,25.6-24.5,12.7-38.7,13.9c-8.4,0.7-2.5,4.2-14.8,1.4
		c-16.3-3.7-31.2-9.3-45.6-17.8c-4.4-2.6-8.4,4.2-4,6.8c18.8,11.1,38.7,18.4,60.6,20.1c1.4,0.1,2.7-0.9,3.4-2
		c3.2-4.8,29.8,3.2,36.7,0.7C1401.9,1141.8,1402.2,1131.1,1400.4,1120.6z"/>
	<path class="st3" d="M1559.7,1477.8c-19,7.1-37.4,4.3-57,6.9c-6.5,0.9-21.2,2.8-16.6,12.7c2.2,4.6,9,0.6,6.8-4c0.7,1.5,23.7-2,29-2
		c14.5,0,26.1-0.9,39.9-6.1C1566.6,1483.6,1564.5,1476,1559.7,1477.8z"/>
	<path class="st3" d="M1545,1507.8c-11.6-7.2-26.6-4.6-39.6-4.5c-5.1,0-5.1,8,0,7.9c11.4-0.1,25.4-2.8,35.6,3.4
		C1545.3,1517.3,1549.3,1510.5,1545,1507.8z"/>
	<path class="st3" d="M821.1,1438.1c-11.3-0.7-21.8-4.8-32.6-7.8c-4.9-1.4-7,6.3-2.1,7.6c11.5,3.2,22.6,7.3,34.7,8.1
		C826.1,1446.3,826.1,1438.4,821.1,1438.1z"/>
	<path class="st3" d="M1092,1155.1c-11.5,5.3-23.4,9.1-35.5,12.5c-0.9-1.5-2.5-2.5-4.4-2.1c-4,1-7.9,2.1-11.8,3.2
		c-1-1.8-3.1-2.9-5.4-1.6c-1.4,0.7-2.7,1.5-4.1,2.3c-8,4.2-16.6,7-24.9,10.3c-1.1-1-2.7-1.4-4.4-0.5c-14.4,7.2-29.4,12.9-44.1,19.3
		c-11.8,4.2-23.2,9.2-34.5,14.7c-0.6-0.2-1.3-0.3-2.1-0.2c-9.6,1.6-18.4,5.4-26.8,10.4c-0.7-0.3-1.5-0.4-2.4-0.3
		c-11.8,2.2-23.2,5.4-34.4,9.2c-13.8,1.8-27.3,5.7-40.8,9.8c-15.7-0.8-31.5-0.2-47.5-0.6c-3-0.7-6-1.5-8.9-2.4
		c-4.9-1.5-7,6.1-2.1,7.6c1,0.3,2.1,0.6,3.1,0.9c0,0,0,0,0,0c-2.6,0.3-5.2,0.7-7.7,1.3c-3.1,0.7-4.1,5.8-0.9,7.2
		c26.7,12.3,58.7,10.1,86.8,3c0.9,0.9,2.2,1.4,3.8,1.1c5.7-1.2,11.4-2.5,17-4c0.9,0.8,2.2,1.2,3.5,0.8c7.3-2.5,14.6-5.1,21.9-7.9
		c0.5,0,1.1-0.2,1.7-0.5c0.3-0.2,0.6-0.3,0.9-0.5c3.2-1.2,6.3-2.5,9.5-3.8c7.6-2.8,15.2-5.8,22.7-9c19.2-8.1,39.9-17.4,55.7-31.6
		c2.6-0.7,5.2-1.5,7.8-2.4c0.2-0.1,0.5-0.1,0.7-0.2c0.4-0.2,0.8-0.3,1.2-0.5c3.9-1.4,7.8-3,11.6-4.7c12.4-4.9,24.9-9.5,37.2-14.4
		c20.7-5.8,41.8-10.6,61.5-19.7C1100.6,1159.8,1096.6,1153,1092,1155.1z M772.9,1254.8c1,0,2.1,0,3.1,0.1c7.6,1.4,15.3,2.1,23,2.2
		c0,0,0.1,0,0.1,0C790.3,1257.3,781.4,1256.6,772.9,1254.8z"/>
	<path class="st3" d="M1107.2,1502.7c-9.1-0.5-17.9-2.4-26.5-5.1c-14.7-14.9-36-24.7-58.1-30.5c-0.3-0.4-0.7-0.8-1.2-1.2
		c-18.8-11.9-42.7-14.8-65.4-14.2c-5.1-0.8-10.3-1.5-15.4-2.1c-0.2-0.6-0.5-1.2-1-1.7c-13.7-12.5-36.5-13.4-54-15.1
		c-1.4-0.1-2.8-0.2-4.2-0.3c-20-7.8-42.1-11-64.1-12.5c-1.2-0.2-2.4-0.4-3.6-0.6c-0.6-0.8-1.6-1.3-2.9-1.2c-1.6,0-3.1,0.1-4.7,0.1
		c-10.3-1.5-20.7-2.5-31.1-2.8c-2.6-0.9-5.1-2.1-7.6-3.7c-3-1.9-6,0.9-5.9,3.7c-1.2,0-2.5,0-3.7,0.1c-5.1,0.3-5.1,7.9,0,7.9
		c3.6,0,7.2,0.2,10.8,0.4c0.4,0.3,0.7,0.7,1.1,1.1c2,1.9,4.5,1.1,5.8-0.5c0,0,0,0,0.1,0c0.6,0.9,1.6,1.5,2.9,1.7
		c10.6,1.3,21.1,2.7,31.6,3.8c-1.8,2.1-1.5,6.2,1.7,6.6c7.1,1,14.2,2.1,21.3,3.1c-3.7,1.4-3.3,7.8,1.3,7.6c2.5-0.1,4.9-0.2,7.4-0.2
		c13.8-0.1,27.4,1.6,41,3.4c-0.3,2.1,0.9,4.4,3.7,4.7c25.2,2.8,49,11.4,73.8,16.3c28,10.8,57.8,19.2,87.2,20.2
		c18.7,9.9,38.4,17.7,59.8,18.9C1112.3,1510.9,1112.3,1503,1107.2,1502.7z M972.3,1464.8c-3.4-1.4-6.9-2.7-10.3-4
		c3.5,0.6,7.1,1.2,10.6,1.9C972.3,1463.3,972.2,1464,972.3,1464.8z M909.7,1445.8c-5.4-1.1-10.8-2.1-16.3-2.9
		c0.4-0.6,0.6-1.2,0.7-1.9c9.8,0.8,19.9,2.3,28.3,5.7C918.1,1446.6,913.9,1446.2,909.7,1445.8z M978,1469.6c0-0.3-0.1-0.5-0.2-0.7
		c15.4,4,31.4,5.8,46.7,9.7c0,0,0,0,0.1,0.1c2.1,1.2,4.1,2.5,6.2,3.7C1013.1,1480.1,995.3,1475.5,978,1469.6z"/>
	<path class="st3" d="M1409.5,1083.2c-5.7,0.3-11.9,1.2-18.2,2.6c-7.4,0.6-14.6,2.6-21.6,6.1c-1.3,0.6-1.8,1.7-1.9,2.9
		c-2.1,1.2-4.1,2.5-5.9,3.9c-11.3,3.9-22.8,7-34.5,9.6c-9.5,1.4-18.9,3.7-28.3,5.7c-6.6,1.3-13.3,2.5-19.9,3.8
		c-1,0.2-1.6,0.7-2.1,1.3c-11.4,1.2-22.8,4.7-33.9,9.1c-29.2,1.8-57.2,11.6-85.3,20.2c-13.7-0.3-27.2-0.8-39.6,6.7
		c-4.4,2.6-0.4,9.5,4,6.8c8.7-5.2,18.9-6.4,29.5-6.5c0.6,1.2,1.7,2.1,3.4,1.9c4.9-0.5,9.9-1,14.8-1.6c5.1,0.1,10.2-0.1,14.9-0.7
		c7.5-1,14.9-2.3,22.3-3.8c0.2,0,0.5,0.1,0.7,0.1c44.5,1.6,95.4-11.8,133.8-35c8.7-2.2,17.1-5.4,25.3-9.1
		c13.7,0.2,26.7-2.9,39.2-8.7c1.7-0.8,2.2-2.5,1.8-4.1c0.9-0.4,1.8-0.8,2.8-1.3c1.5-0.7,2-2.2,1.9-3.6
		C1414.5,1087.3,1412.6,1083.1,1409.5,1083.2z M1262.5,1130.6c-0.1-0.3-0.2-0.5-0.4-0.7c3.6-1,7.2-1.8,10.7-2.4
		C1269.4,1128.6,1266,1129.6,1262.5,1130.6z M1297.1,1127.3c2-0.8,3.2-3.3,2.7-5.3c0.4-0.1,0.7-0.2,1.1-0.3c3.5-0.7,7-1.4,10.5-2.1
		c0.5,0.3,1.2,0.6,2,0.6c1.4,0,2.8,0,4.1,0c-15.4,7.2-32.2,12.9-49.2,16.9C1278,1134.3,1287.6,1131,1297.1,1127.3z M1210.3,1142.2
		c-3.1,0.5-6.2,1-9.3,1.5c4.6-1.2,9.1-2.4,13.7-3.4C1213.2,1141,1211.8,1141.6,1210.3,1142.2z"/>
	<path class="st3" d="M1161.3,1268c-5.1,0-5.1,7.9,0,7.9C1166.3,1275.9,1166.3,1268,1161.3,1268z"/>
</g>
<g id="Objects">
	<path class="st3" d="M1786.2,677.1c-5.9,3.7-11.5,7.8-16.6,12.5c-3.8,3.4,1.8,9,5.6,5.6c4.7-4.2,9.7-7.9,15-11.2
		C1794.5,681.3,1790.6,674.5,1786.2,677.1z"/>
	<path class="st3" d="M1797.3,572.9c-4.7,6-8.3,12.4-10.9,19.5c-1.7,4.8,5.9,6.9,7.6,2.1c2.1-5.8,5.1-11.2,8.9-16.1
		C1806,574.6,1800.4,568.9,1797.3,572.9z"/>
	<path class="st3" d="M616.2,458.2c-5.9-6.4-10.9-13.4-15.2-21c-2.5-4.4-9.3-0.5-6.8,4c4.6,8.2,10.1,15.7,16.4,22.6
		C614,467.6,619.6,462,616.2,458.2z"/>
	<path class="st3" d="M387.9,757.7c-12.4,0.6-23.1,6.2-34.7,10c-4.8,1.6-2.7,9.2,2.1,7.6c10.8-3.6,21.1-9.1,32.6-9.7
		C393,765.3,393,757.4,387.9,757.7z"/>
	<path class="st3" d="M1956.3,1195.3c-5.4,3.1-10.7,6.4-15.8,9.9c-4.2,2.8-0.2,9.7,4,6.8c5.1-3.5,10.4-6.8,15.8-9.9
		C1964.7,1199.6,1960.7,1192.8,1956.3,1195.3z"/>
	<path class="st3" d="M569.9,1349.6c-6.9,4.1-14.5,6.6-21.8,9.9c-4.6,2.1-0.6,8.9,4,6.8c7.2-3.3,14.9-5.8,21.8-9.9
		C578.2,1353.8,574.3,1347,569.9,1349.6z"/>
	<path class="st3" d="M2093.6,927c-3.4-3.1-6.7-6.5-9.9-9.9c-3.5-3.8-9,1.9-5.6,5.6c3.2,3.4,6.4,6.7,9.9,9.9
		C2091.8,936,2097.4,930.4,2093.6,927z"/>
	<path class="st3" d="M621.4,574.7c-4.6,27.8-8.9,55.7-15.8,83.1c-1.3,4.9,6.4,7,7.6,2.1c7-27.4,11.2-55.2,15.8-83.1
		C629.9,571.8,622.3,569.7,621.4,574.7z"/>
	<path class="st3" d="M1881.7,1224.4c-11.4,16.7-19.1,35.2-27.7,53.4c-2.2,4.6,4.7,8.6,6.8,4c8.6-18.2,16.3-36.7,27.7-53.4
		C1891.4,1224.2,1884.6,1220.3,1881.7,1224.4z"/>
	<path class="st3" d="M1572.4,366.2c-8.6-3-17.4-6.4-24.6-12.2c-3.9-3.1-9.6,2.4-5.6,5.6c8.4,6.7,18.1,10.7,28.1,14.2
		C1575.1,375.6,1577.1,367.9,1572.4,366.2z"/>
</g>
<g id="Camera">
	<path class="st4" d="M1655.3,522.6c-37.4-51.3-92.8-75.3-156-75.3c-22.2,0-44.3,4.4-66.6,5c-9,0.2-17.9,0.3-26.9,0.3
		c-57.4,10.1-114.9,19.3-172.6,26.9c-98.9,13-199.3,22.4-296.2,46.4C831.3,559.9,728.1,607,644.6,681.2
		c-2.5,119.8,13.5,239,16.3,358.7c0.1,4.9-1,8.9-3,12.2c0.4,8,0.9,15.9,1.4,23.9c-0.1,1.8-0.2,3.6-0.2,5.3
		c-0.7,16.9-0.9,33.9,0.1,50.7c14.2,33.5,32.1,66.4,58.4,88.7c10.1-1.3,20.7,3.3,24.2,15.7c12.9,5.6,26.2,10.2,39.7,13.7
		c8.4,1.7,16.8,3.1,25.4,4.3c21.8-5.4,43-13.2,63.8-21.6c85.1-34.3,172-84.4,266.4-72.3c9-2.6,18-5.3,27-8.2
		c9.4,0.6,19.1,0.1,28.9-1.8c55.6-10.9,108.2-31.5,161.9-49.1c59.5-19.5,119.7-32.6,177.1-58.4c21.5-9.7,42.2-20.4,59.3-37.4
		c25.7-25.5,36.9-57.5,40-92.9c2.4-27.7-4.1-55.6-2.9-83.4c0.1-3.2,0.2-6.4,0.3-9.5c3.6-7.4,6.8-14.9,9.6-22.6
		c0.5-23.5,2.1-46.9,5.5-70.1c0.3-6.7,0.5-13.3,0.9-20c-0.3-1.1-0.5-2.2-0.8-3.3c0.5-1.9,0.9-3.9,1.4-5.8c0.3-4.8,0.6-9.6,0.9-14.3
		c0.4-5.7,2.5-10.4,5.6-13.9c0.3-1.1,0.5-2.2,0.8-3.3c6.6-28,15.4-53.7,13-82C1670.1,563.3,1668,540,1655.3,522.6z M891.7,682.1
		c-2.7,1.7-5.6,3.2-8.7,4.7c-24.9,19.5-57.4,32.2-87.4,21.2c-34.1-12.4-35.3-49.5-11.9-73.2c23.6-23.9,64.3-38.8,97.6-31.1
		C921.6,612.9,924.6,661.5,891.7,682.1z M1149.4,1069.5h-9.5c-1.2,6.3-6,11.9-14.3,11.9c-6.2,0-10.4-3.1-12.7-7.3
		c-7,1.9-14.6,2.7-20.9,3.3c-8.2,0.9-15.1-7.6-15.1-15.1c0-8.8,7-14.3,15.1-15.1c3.5-0.4,6.8-1,10.1-1.7c-0.3-0.6-0.6-1.1-0.9-1.7
		c-2.8-5.1-5.7-10.2-8.4-15.3c-9.2-17.2,16.9-32.4,26.1-15.3c2.5,4.6,5.7,9.7,8.7,15c0.3-0.4,0.5-0.8,0.8-1.1
		c4.7-7,13.1-9.5,20.7-5.4c6.4,3.4,9.3,12.4,6.3,19c5.3,2.4,8.8,7.8,9.1,13.9C1164.9,1062.5,1157.3,1069.5,1149.4,1069.5z
		 M1217.9,1105.8c0,5.3-2.9,10.4-7.5,13.1c-4.9,2.9-10.4,2.5-15.3,0l-11.9-5.9c-7.6-3.8-9.1-13.8-5.4-20.7
		c3.3-6.2,10.3-8.2,16.6-6.8c2.4-1.6,5.3-2.5,8.3-2.7c8.2-0.4,15.1,7.2,15.1,15.1V1105.8z M1291.1,888.9c0,8-4.5,15.5-11.4,20.6
		c-0.6,0.5-1.3,0.9-2,1.4c-2.3,2.3-4.9,4.2-7.7,5.7c-3.9,2.1-8.2,3.5-12.6,3.9c-10.5,2.8-21.5,2.2-31.4-3.8
		c-15.2-9.2-20.7-28.8-16.7-45.4c3.3-13.6,13.4-24.6,26.7-28.2c2.6-1.7,5.5-3.2,8.5-4.3c5.5-5.5,13.2-8.2,21.8-5.8
		c3.1,0.9,6.1,2.6,8.7,4.8c9.9,3.4,18.1,10.6,21.5,21.1C1299.8,869.5,1296.7,879.9,1291.1,888.9z M1611.4,560.4
		c-5,4.2-9.3,9.9-15,13.1c-3.6,2-7.5,3.1-11.5,3.6c-10,13.4-25.3,22.7-41.7,26.1c-6,1.2-11.8,0.2-16.7-2.5c-0.3-0.1-0.6-0.1-0.8-0.2
		c-13-3.6-18-16.1-16.1-28.4c0.9-5.8,2.7-10.9,5.2-15.4c0.6-4.5,1.6-9,2.8-13.6c4.3-17,21.5-19.7,33.4-13.2
		c14.6-5,30.7-7.4,44.2-9.1C1614.7,518.5,1625.9,548.3,1611.4,560.4z"/>
	<path class="st0" d="M1376.1,582.2c-17.8-25.2-49.3-21.7-70.6-3.4c-22.1,19-29.7,50.6-15.7,76.5c6.8,12.6,25.4,17.7,37.5,9.8
		c4.4-2.8,7.7-6.6,10-10.8c10.9-2.4,21.2-7.9,29.6-15.1C1383.5,625.2,1389.2,600.8,1376.1,582.2z"/>
	<path class="st4" d="M897,641.4c2.9-13.8-6.5-23.8-21.4-21.8c-3.1,0.4-6.3,1.2-9.5,2.3c-19.2-1-38.7,15.7-48.1,30.8
		c-5.3,8.4-7.5,19.9,0.9,27.2c4.5,4,10.2,5,16.1,4.8c1,0.8,2.1,1.4,3.3,1.7c17.3,4.8,34-2,43.7-15.9
		C893.8,663.9,902.4,653.3,897,641.4z"/>
	<path class="st0" d="M619.1,1235.1c-5.7-4.3-15.8-10-21.9-13.1c-14.4-7.4-29.6-13.2-45-18.2c-20.4-6.7-50.7-17.1-72.3-14.1
		c-7.6,6-13.7,14-17.3,22.8c-0.7,14.5,0.8,28.7,4,42.4c12.3,23.2,33.8,34.8,61.3,37.4c6.3,0.6,12.6,0.6,18.9,0.7
		c1.3,0,2.6,0.1,3.9,0.2c22.8,8.1,51,0.8,62.9-21.7C619.5,1260.3,621.4,1247.3,619.1,1235.1z"/>
	<path class="st0" d="M1016.5,1131.6c-46.2-31.7-61.7-98.7-68.2-150.4c-3.5-28.1-5-63.3,1.6-95.3c0.1-71.9,13-146.8,44.6-210.6
		c-14.8,13.1-30.1,25.7-47.6,34.5c-12.6,6.3-26.2,11.4-39.5,16.1c-30.6,10.9-62.2,19.3-94.4,23.8c-34.6,4.9-72.1,6.9-104.2-9.1
		c-29.4-14.7-44.8-44.4-44.4-76.2c-6.7,5.4-13.3,11-19.8,16.7c-2.5,119.8,13.5,239,16.3,358.7c0.1,4.9-1,8.9-3,12.2
		c0.4,8,0.9,15.9,1.4,23.9c-0.1,1.8-0.2,3.6-0.2,5.3c-0.7,16.9-0.9,33.9,0.1,50.7c14.2,33.5,32.1,66.4,58.4,88.7
		c10.1-1.3,20.7,3.3,24.2,15.7c12.9,5.6,26.2,10.2,39.7,13.7c8.4,1.7,16.8,3.1,25.4,4.3c21.8-5.4,43-13.2,63.8-21.6
		c60.1-24.2,121.1-56.3,185-68.8c-1-0.7-2-1.4-2.9-2.2C1038.7,1153.8,1026.6,1143.7,1016.5,1131.6z"/>
	<path class="st0" d="M1219.7,604.2c-0.2-0.1-0.4-0.2-0.6-0.3c-1.9-2.7-5.3-4.5-8.4-4.5c-5.8,0-9.3,4.6-9.9,9.9
		c-0.1,1.1-0.2,2.3-0.3,3.4c-4.7,6.3-7.3,13.9-7.6,22.3c-0.5,11,14.3,12.5,18.6,4.4c0.1,0.1,0.1,0.1,0.2,0.2
		c4.8,3.1,10.5,0.7,13.5-3.5C1233.4,624.7,1230.9,612.2,1219.7,604.2z"/>
	<path class="st0" d="M1067.3,791.8c-1.5-3.6-4.7-5.8-9-6.2c-45.9-4.3-49,85.7-47.4,115c0.4,6.9,6.4,10.4,11.7,9.5
		c1.7,3.1,3.9,6,6.6,8.5c5.1,4.6,11.6,3.2,15.5-2c15.9-21.2,22.1-53.9,23.7-84.1C1075.8,815.6,1080,797.8,1067.3,791.8z"/>
	<path class="st0" d="M1637.4,686.4c-16,26.5-30.9,54-43.2,82.4c-2.7,7.7-5.3,15.4-6.9,23.2c-4.1,20.3-4.7,41.1-4.8,61.9
		c-10.5,40.4-20.6,80.8-26.7,122c-3.5,9.7-6.8,19.4-8.3,29.6c-0.6,4,1.1,7.6,3.7,9.9c3.9,4.6,12.3,6,16.8-0.5
		c6.5-9.5,14-18.5,20.8-28c1.3-1,2.3-2.3,2.9-4c4.5-6.5,8.5-13.3,11.6-20.6c1.9-4.6,3.4-9.3,4.6-14c2.3-1.6,4-4.1,4.3-7.7
		c0.8-9.1,1.6-18.1,2.4-27.2c8.8-29.2,8.3-60.8,9.6-90.9c1.9-42.1,11.9-83.1,17.4-124.8l0-0.1c0,0,0,0,0,0c0.1-0.9,0.3-1.7,0.4-2.6
		C1642.5,690.7,1640.4,687.9,1637.4,686.4z"/>
	<path class="st0" d="M1023.7,616.6c-25.9,14.3-45.4,35.8-60.2,60.9c-8.9,8.9-18.1,17.5-27.6,25.6c-24.8,16.2-52.6,27.8-79.7,39.8
		c-10.2,4.5-2.9,21.9,7.6,18.1c3-1.1,6.1-2.2,9.1-3.2c2.7,3.5,7.4,5.3,12.4,2.5c5.4-3.1,10.8-6.1,16.2-9.1c1.2-0.2,2.5-0.6,3.8-1.3
		c9.7-5.5,19.4-10.8,28.8-16.6c2.1-1.2,4.3-2.4,6.3-3.7c-7.6,22.9-12.7,46.6-16.2,69c-1.9,12.5,17.1,17.8,19.1,5.3
		c5.8-37.4,15.9-79.4,35.8-114.1c16.1-16.1,31.4-32.9,46.7-49.7c0.8-0.9,1.3-1.8,1.8-2.7c2-1.3,4-2.5,6.1-3.6
		C1044.9,627.6,1034.9,610.5,1023.7,616.6z"/>
	<path class="st3" d="M1649.9,522.3c-2.6-8.4-5.2-16.9-7.6-25.4c-0.7-1.3-1.5-2.5-2.2-3.7c-0.7-0.5-1.3-0.9-1.9-1.4
		c-3.8-4.4-8.2-8.3-12.2-12.4c-2.2-2.1-5-1-6.2,1c-13.1-7.2-26.9-13.4-40.7-19.4c-30.8-13.2-58.7-21.2-92.6-19
		c-79.7,5.2-160.2,22.3-238.9,35.6c-82.7,14-165.3,29.2-247.7,44.7c-80.5,15.1-159.5,34.9-235.2,66.9c-33.2,14-62.5,32.6-87.9,58.3
		c-12.1,12.3-23.6,25-30.1,41.2c-6.8,17-8.9,35.5-12.3,53.3c-0.5,2.8,1.7,4.6,3.8,4.9c0.1,77.5,10.6,154.4,11.8,231.9
		c0.5,36.9,6.1,71.9,10.1,108.4c3.3,30.6,0,62.2,14.2,90.6c21.6,43.1,69.8,59,114.9,62.8c68.2,5.6,125.1-24.6,187.4-46.9
		c68.2-24.4,140.8-29.5,211.5-43c75.5-14.4,148.2-41.2,221.4-64c31.4-9.8,60.8-23.3,90-38.4c27.8-14.4,60-24.4,85-43.6
		c36.1-27.7,39-85.8,42.3-127.2c2.8-34.3,4.9-68.7,7.7-103.1c1.8-22.5,4.4-45,9.5-67c4.3-18.7,11-36.4,13.4-55.5
		c4.3-34.7,0-69.9-4.6-104.4C1651.6,539.7,1651.1,530.9,1649.9,522.3z M1648.8,656.2c-4.7,30.2-15.7,58.8-19.4,89.4
		c-4,32.6-5.1,65.4-7.9,98.1c-3.9,45.2-2.1,99.6-27.8,139c-16.1,24.7-48.6,35.1-74.2,47c-29.8,13.9-58.2,30.1-89.1,41.6
		c-64,23.7-131.4,44.3-197.5,61.3c-65.1,16.7-132.4,21.9-197.9,36.4c-61.8,13.6-117.1,45.8-178.5,59.7
		c-50.1,11.3-119.8,7.5-158.4-30.9c-28.8-28.6-26.3-66.2-29.6-103.6c-3.3-37.4-10.3-73.7-10.7-111.4c-0.8-80-12-159.5-11.8-239.5
		c0-2.2-1.5-3.4-3.2-3.7c2.2-12.2,4-24.7,7.5-36.6c5.8-20.1,17.6-35,32.1-49.7c24.6-24.9,52.8-42.9,84.9-56.5
		c68-28.9,139.4-48.6,211.8-62.4c150.9-28.8,302.1-56.2,454.2-77.8c44.4-6.3,85.4-12.2,128,5.5c24,10,48.8,20.2,70.5,34.8
		c3.5,4.2,6.3,8.9,7.8,14.9c3.8,14.9,4.7,31.4,6.6,46.6C1650.3,590.5,1653.8,623.9,1648.8,656.2z"/>
	<path class="st3" d="M1345.3,460.6c-47.7-12.9-93.7-2.6-141.6,3.2c-19.3,2.3-40.5,3.1-58.7,10.7c-16.9,7-28.5,21.7-40.9,34.6
		c-3.5,3.7,2,9.3,5.6,5.6c14.5-15,26.7-30.1,47.7-35.9c18.6-5.1,38.2-5.9,57.3-8.5c43.6-5.8,85-13.8,128.4-2.1
		C1348.1,469.5,1350.2,461.9,1345.3,460.6z"/>
	<path class="st3" d="M1635,494.1c-29-1.3-58.5,10.3-87.4,12.8c-38.5,3.4-76.8,8.6-114.8,15.7c-79.6,15-157.3,39-237.1,52.9
		c-62,10.8-129.1,12.2-182.5,49.7c-28.5,20.1-52,47-79.8,68.1c-31.2,23.6-66.5,42.5-104.7,51.8c-35.7,8.7-80.2,10.9-115.6-0.9
		c-22.7-7.6-43.2-25.1-46.9-49.7c-1.8-11.8,2.9-25.2-2.7-36.2c-2.3-4.5-9.1-0.5-6.8,4c5.9,11.5-0.5,28.6,3.4,41.4
		c3.8,12.2,11.2,23.2,20.8,31.6c21.4,18.7,51.3,23.1,78.7,24c70.9,2.3,134.6-23.8,189.3-68.1c29.5-23.9,55.1-54.1,89.2-71.7
		c31.9-16.5,67.8-22.8,103-27.9c79.6-11.6,156.7-30.8,235-48.7c48.2-11,96.7-20,145.9-25.4c19.6-2.1,39.3-3,58.7-6.7
		c17.9-3.5,36.2-9.4,54.5-8.6C1640.1,502.2,1640,494.3,1635,494.1z"/>
	<path class="st3" d="M899.9,601.3c-36.1-9.3-74,0.4-105.1,19.7c-0.2,0.1-0.3,0.1-0.5,0.2c-1.9,1.1-3.8,2.4-5.6,3.8
		c-8.2,5.6-15.9,11.8-22.9,18.6c-2.4,2.3-0.9,5.4,1.4,6.4c-13.9,24.2-16.2,54.8,11.6,70.2c36.7,20.5,90.8-7.5,118.1-32
		C922.1,665.7,947.5,613.5,899.9,601.3z M895.5,678.8c-22.4,21.9-56.9,40.2-89,39.7c-57.4-0.7-45.4-68.1-8.1-90.5c0,0,0,0,0,0
		c22.3-13.9,47.3-21.2,75.3-21.3c14.2-0.1,35.2,0.4,42.8,14.6C926.9,640.5,908.9,665.7,895.5,678.8z"/>
	<path class="st3" d="M870.8,614.9c-0.1,0-0.2,0-0.3,0c-0.1,0-0.2,0-0.3,0.1c-2.6,0.4-5.2,1-7.7,1.9c0,0,0,0,0,0
		c-22.2,6.4-46.6,21.5-48.9,45.9c-2.2,23.9,23.4,31.8,42.8,28.9c22.9-3.5,52.2-23.4,52.2-49.2C908.7,621.6,888.8,612.4,870.8,614.9z
		 M896.6,656.4c-8.5,15.1-26.8,26-43.8,27.7c-22.6,2.3-40.2-13.8-25.2-35.9c8.3-12.2,22.8-19.6,37.1-23.6c0,0,0,0,0,0
		c0.7-0.2,1.4-0.4,2-0.6c1.2-0.3,2.3-0.6,3.5-0.8C890,619.5,908.8,634.7,896.6,656.4z"/>
	<path class="st3" d="M953.8,560c-3.6-2.3-10.1-2.5-14.3-2.7c-3-0.2-6.1-0.2-9.1-0.1c-0.4-0.8-1.2-1.4-2.5-1.6
		c-9.4-1.5-27.7,0.2-29,12.9c-1.3,12.6,18,15.7,27,16.2c9.8,0.5,24.9-0.5,29.7-10.8C957.6,569.8,958,562.6,953.8,560z M922.6,576.4
		c-0.7-0.1-1.6-0.2-2.6-0.4c4.1-1.3,8.3-0.7,12.4,0.7C928.6,576.9,925,576.7,922.6,576.4z M942.7,574.9c0.1-1.2-0.4-2.5-2-3.2
		c-9.7-4.6-20.5-6.9-29.7,0c-0.5,0.4-0.9,0.8-1.1,1.3c-2-1.1-3.3-2.6-2.9-4.5c0.7-3.6,5.7-5,10.5-5.5c0.5,1.3,1.7,2.3,3.5,2.2
		c9.4-0.1,18.7-0.9,27.9,1.5C949.2,570.9,946.5,573.5,942.7,574.9z"/>
	<path class="st3" d="M985.1,549.9c-1.2-0.3-2.4-0.6-3.7-0.9c-0.3-0.5-0.8-0.9-1.4-1.1c-0.4-1.5-1.6-2.6-3.6-2.4
		c-3.7,0.4-8.1,0.3-11.1,3c-3.4,3-3,7.6-2.4,11.7c0.2,1.3,1.6,2.5,2.8,2.8c8.7,2.2,18.7,1.6,22.1-8.1
		C988.5,552.8,987,550.4,985.1,549.9z M970.3,555.8c0-0.6,0.1-1.2,0.3-1.5c0.6,0.5,1.4,0.9,2.4,1c1.2,0.1,2.3,0.3,3.4,0.6
		C974.6,556.4,972.3,556.2,970.3,555.8z"/>
	<path class="st3" d="M1105.8,533.1c-0.6-0.8-1.6-1.4-2.9-1.4c-4.5-0.2-9.2-0.3-13.9,0c-0.8,0-1.4,0-2,0c-0.6,0-1.1,0.1-1.6,0.3
		c-11.4,1.1-22.7,4.5-30.8,12.7c-1.6,1.6-1.4,3.9,0,5.6c14.1,17.1,51.2,15.9,66,0.4C1131.2,539.7,1118.7,535,1105.8,533.1z
		 M1107.3,550.5c-0.7,0.4-1.4,0.7-2.2,1c0-2-1.2-4.1-3.8-4.1c-3.8,0-7.6-0.1-11.3,0h-22.6c-1.1,0-2,0.4-2.6,1.1
		c-0.4-0.3-0.9-0.6-1.3-0.9c7.1-5.4,16.2-7.4,25.3-8c5.9,0.1,11.8,0.2,17.6,1.1c1.8,0.3,7.6,0.5,8.7,2.1
		C1116.8,545.5,1110.2,549.1,1107.3,550.5z"/>
	<path class="st2" d="M1296.7,651.9c17.5-7.3,36-11.6,53.8-18c4-1.5,13.2-3.6,15.8-5.9c4.7-4.3,6.3-11.5,7.3-17.7
		c-0.2-1.6-0.5-3.1-0.7-4.5c-1.8-13.1,3.3-28.2-12.6-33c-2.9-0.9-6.1-1.1-9.6-0.9c-3.2,0.8-6.5,1.5-9.7,2.3c-2.5,0.6-5.4,1-8.5,1.3
		c-4.4,1.3-8.6,2.6-12.1,3.6c-9.3,2.6-18.5,5.7-28,7.7c-0.5,8.4-1.3,16.8-1.8,25.2c-0.5,9.6-3.4,29.4,3.1,37.6
		C1294.6,650.5,1295.6,651.3,1296.7,651.9z"/>
	<path class="st3" d="M1385.2,572.2c-3.3-16.5-18.8-12.1-31.4-9.2c-9.3,0.1-19.7,2.6-29.7,5.5c-5.7,0.9-11.5,1.7-17.4,2.4
		c-6.2,0.7-11.9,1.7-17.2,4.5c-1.9-0.3-4,0.7-4.5,2.9l0,0c-1.9,1.5-1.6,3.5-0.4,4.9c-1.7,21.1-11.8,66,8.6,76.5
		c9.2,4.7,24,0.4,33.3-1.6c14.7-3.2,30.9-7.2,44.1-14.7c11.4-6.5,12.8-16.8,11.5-29.4c-0.1-0.5-0.1-1-0.2-1.6
		c0.4-5.2,0.3-10.4,1-15.3C1384.2,589.1,1386.8,580.4,1385.2,572.2z M1290.7,611.9c0.5-8.4,1.3-16.8,1.8-25.2
		c9.4-2.1,18.7-5.2,28-7.7c3.5-1,7.7-2.3,12.1-3.6c3.1-0.3,6-0.7,8.5-1.3c3.2-0.7,6.5-1.5,9.7-2.3c3.4-0.2,6.7,0,9.6,0.9
		c15.9,4.8,10.8,19.9,12.6,33c0.2,1.4,0.4,3,0.7,4.5c-1,6.2-2.6,13.5-7.3,17.7c-2.6,2.4-11.8,4.5-15.8,5.9
		c-17.8,6.4-36.3,10.7-53.8,18c-1.1-0.7-2.1-1.4-2.9-2.4C1287.3,641.3,1290.1,621.5,1290.7,611.9z"/>
	<path class="st3" d="M1122.9,645.3c-3.1-1.2-6.5-1.1-9.3,0c-1.2-0.4-2.5-0.1-3.5,1.2c-5.8,7.3-9.6,18.1-0.6,24.6
		c5.8,4.2,15.3,4.5,20.5-0.9C1137.3,662.6,1131.9,648.7,1122.9,645.3z M1123.4,665.4c-1.1,0.7-2.5,1-4,1c1.2-0.6,2.3-1.4,3.1-2.4
		c1.6-1.8,2.2-3.9,2.2-5.9c0.5,1.5,0.7,3,0.6,4.2C1125.1,663.9,1124.4,664.7,1123.4,665.4z"/>
	<path class="st3" d="M1619.5,508.8c-13.5-5.4-36.3,8.1-49,11.1c-20.3,4.8-44.8,4.6-63.7,14.7c-1.8-2.9-7.3-2.2-7.3,2
		c-0.3,18.7-14.3,88.8,19.5,86.6c21.8-1.4,43.6-14.3,64.3-20.2c12.1-3.4,29-4.2,35.7-16.5c7.2-13.1,6.1-35.8,8.2-50.4
		C1628.6,526.5,1630.5,513.2,1619.5,508.8z M1505.5,583.6c-0.2-13.4,1.1-26.7,1.6-40.1c13.8-8.8,31.8-9.4,47.6-12.4
		c14.8-2.8,28.9-6.5,43.1-11.4c0.8-0.3,1.7-0.6,2.6-0.8c-0.2,0.9-0.1,1.8,0.5,2.8c3.7,5.9-0.2,20.2-0.9,26.5
		c-1.9,17.7-1.2,31.8-20.2,41.5c-21.4,11-47.4,8.1-69.5,18.3c-0.3,0.1-0.5,0.3-0.7,0.5c-0.7-1-1.3-2-2-3.2
		C1504.9,599.8,1505.6,589.7,1505.5,583.6z"/>
	<path class="st3" d="M1651.8,593.9c-1.2,21.6-46.9,30-63.1,37c-27.6,12-54.3,26-81.9,38.1c-31.3,13.6-64.7,22.7-97.4,32.6
		c-32.3,9.8-64.7,19.4-97.7,26.8c-34.4,7.7-70.7,14.2-106.1,11.3c-16.3-1.4-32.2-4.9-48.2-8.3c-14.6-3.1-30.1-4.7-44.2-9.8
		c-38.6-13.9-49.9-55.4-20.7-85.1c21.9-22.3,52.5-28.2,76.6-46.1c4-3,0.1-9.9-4-6.8c-21.1,15.6-47.5,22.5-68.7,39.1
		c-15.9,12.5-29.4,29.4-29.6,50.5c-0.7,54.5,62.7,60.8,102.4,68.8c62.6,12.7,124.1,0.5,184.9-16.1c61.3-16.7,123.4-34.2,181-61.4
		c30.5-14.4,60.8-28.4,92.5-40.2c14.9-5.5,31-12.7,32-30.5C1660,588.9,1652.1,588.9,1651.8,593.9z"/>
	<path class="st3" d="M1643.9,591c0.9,17.3-35.2,27.8-47.9,32.2c-23.6,8.1-48.2,13.4-72,21.2c-51.4,16.9-105.8,23.2-158.5,34.9
		c-25.8,5.7-52.1,8.7-78.2,12.5c-27.7,4.1-55.4,8.2-83.5,6.9c-13.6-0.6-27-3.1-40.6-3.7c-12.3-0.5-25.3,0.9-37.3-2.4
		c-21.7-5.9-29.8-25.7-23.3-46c4.4-13.6,16.2-23.5,26-33.2c3.6-3.6-2-9.2-5.6-5.6c-16.7,16.5-33.6,33.7-30.2,59.2
		c2.8,20.6,18.8,31.4,38.2,34.5c17,2.7,34.7,1.3,51.9,3.2c16.2,1.8,32.4,2.4,48.6,1.5c33.7-1.9,67.3-8.5,100.7-13.3
		c35.5-5,70.5-14,105.8-20.4c36-6.5,70.7-14.9,105.2-26.8c25.9-8.9,52.6-13.3,77.8-24.5c12.8-5.7,31.7-13.9,30.8-30.5
		C1651.5,585.9,1643.6,585.9,1643.9,591z"/>
	<path class="st3" d="M1335.5,817.2c-8-13.4-27.4-12.8-43.5-11.6c-0.6-0.2-1.3-0.2-2.1,0.1c-0.1,0-0.3,0.1-0.4,0.1
		c-4.2,0.3-8.1,0.7-11.4,0.7c-2.2,0-3.4,1.6-3.7,3.3c-25.5,5.4-56.5,8.1-67.7,33.2c-5.2,11.7-4.7,26.4-6.1,39
		c-1.9,16.5-4,33.8-1.4,50.3c6.8,43.1,52.5,18,80.7,13.2c17.7-3,37.7-4.8,48.4-21.1c9.3-14.1,10-32.9,10.2-49.3
		C1338.6,858.1,1344.5,832.4,1335.5,817.2z M1228.8,836.4c17.3-11.8,46.7-8.4,58.1,10c9.1,14.7,6.8,35.8-1.2,50.5
		c-10.3,19-32.9,27.9-53.1,17.6c-25.6-13-18.9-54.8-4.2-73.4C1229.6,839.5,1229.5,837.7,1228.8,836.4z M1217.4,842.3
		c0.2,0.1,0.3,0.2,0.5,0.4c-2.7,4.7-5,9.9-6.8,15.5C1212.3,851.7,1214.4,846.6,1217.4,842.3z M1207.4,883.3
		c0.3,13,4.5,25.3,14.3,33.4c20.4,17,52.2,11,67.1-9.9c13.4-18.8,17.2-48.9,2.5-68c-7.9-10.3-20.9-16-34.2-17.1
		c0.6-0.1,1.2-0.2,1.7-0.4c0.1,0,0.3,0.1,0.4,0.1c44.9-0.6,58.5,50.8,40,84.6c-18.1,33-80.3,41.9-92.5,0.4c-0.4-1.2-1.1-2-2-2.4
		C1205.3,897,1206.3,890,1207.4,883.3z M1331,846.5c-0.9,17.1,0.6,34.5-2.1,51.5c-4.5,28.1-22.2,35-48.1,39.4
		c-17,2.9-60.3,22.5-70.8,5.2c-3.1-5-4.7-11.3-5.4-18.1c1.1,1.7,2.4,3.3,4.2,4.9c8.8,7.5,25,11,36,12.3c23.2,2.7,45.8-7.7,58.6-27.3
		c21.7-33.4,12.5-84.1-23.8-97.5c4-1,8-2,11.7-3.3c7.4-0.6,14.9-1,21.6,0.6C1330.4,818.6,1331.7,831,1331,846.5z"/>
	<path class="st3" d="M1075.8,795.2c-7.1-11.3-21.4-9.7-30.8-2.6c-0.9-1.2-2.7-1.9-4.3-1.6c-1.6,0-3.2,0.8-3.9,2.6
		c-0.3,0.8-0.7,1.7-1,2.5c-3,4.4-6.4,9.6-8.4,15c-1.2,0.2-2.3,1.1-2.7,2.7c-1.2,5.2-2.3,10.4-3.2,15.6c-3.8,9.8-6.9,19.9-8,30.5
		c-1.5,14.5-5.5,39.3,3.8,52.2c7.1,9.8,23.1,10.8,32.5,3.3c3.8-3.1,4.6-5.5,5.8-9.7c0.7-1.5,1.3-3.1,1.8-4.8c4-13.4,6.7-29.4,7-44.1
		c4.6-0.4,4.9-7,1-7.8c2.7-8.5,4.9-17.2,8.5-25.5C1077.8,814.9,1081.5,804.2,1075.8,795.2z M1024.4,858.2c9.1,0.9,18,2.7,27.1,2.8
		c-1.8,2.3-4.1,4.1-7.4,5.3c-3.2,1.2-8,2.1-11.4,1.4C1026,866.3,1023.9,862.4,1024.4,858.2z M1021.3,901.2c-0.8-4.5-1.2-9-1.1-13.5
		c-0.1-4.7,0.4-9.4,0.6-14.1c0-0.5,0.1-0.9,0.1-1.4c0.5,0.4,1.1,0.8,1.7,1.1c6.6,3.8,15,3.8,22.5,1.2c-1.5,10.5-4.2,20.9-5.3,31.5
		C1035.2,906.2,1029.1,904.6,1021.3,901.2z M1049.3,895.2c1.5-8.1,3.3-16.1,4.2-24.3c0-0.3-0.1-0.5-0.1-0.7c0.2-0.2,0.5-0.3,0.7-0.5
		C1053.1,878.6,1052.2,887.9,1049.3,895.2z M1057.9,843.4c-0.2,0.7-0.3,1.3-0.5,2c-0.6,0.6-1,1.5-1,2.7c0,0.3,0,0.6,0,0.9
		c-5.6-0.5-11.2-1.6-16.8-2.3c3.6-8.2,4.8-13.2,3.8-18.7c6,0.2,12.5,2.3,18.5,3.6C1060.4,835.3,1059,839.1,1057.9,843.4z
		 M1066.1,821.9c-0.4,0.8-0.7,1.5-1,2.3c-7.9-1.1-16-4.2-24.1-4c-0.8-1.8-1.7-3.8-2.7-6c-0.3-0.5-0.6-0.9-0.9-1.2c1.2-3,2.5-6,3.7-9
		c1.6,0.7,3.7,0.5,4.9-1.4c4.2-6.2,10.8-9,17.8-6.4C1075,800.5,1069.7,813.8,1066.1,821.9z"/>
	<path class="st3" d="M1127.7,1159.6c-27,0.3-54.7,4.6-81.6,0.2c-31.6-5.2-52.1-25.4-62.7-54.9c-7.8-21.8-10.9-45-15.6-67.5
		c-6.8-32.6-11.7-65.4-14.1-98.6c-4.4-60.8-4-124.3,14.3-182.9c9.3-29.7,22.6-59.6,38.2-86.5c7.6-13.1,16.1-26.9,27.5-37.1
		c11.7-10.5,26.9-16.7,39.6-25.9c4.1-3,0.1-9.8-4-6.8c-11.7,8.5-25,14.5-36.4,23.3c-12.7,9.8-21.8,23.3-30.1,36.8
		c-16.6,27.1-30.3,57.5-40.3,87.6c-22,65.7-21.7,138.2-15.4,206.5c3.2,34.1,9.7,67.3,16.2,100.9c4.8,24.7,9,50.6,21.6,72.7
		c30.1,52.7,91.7,40.9,142.9,40.3C1132.7,1167.5,1132.8,1159.5,1127.7,1159.6z"/>
	<path class="st3" d="M1654.7,651.3c-0.7-5-8.6-5-7.9,0c2.4,18.1-15.7,38.5-23.7,54.2c-6.9,13.5-14.8,26.5-21.5,40
		c-14.8,29.7-16.4,63.1-22.7,95.1c-6.6,33.7-16.8,67.3-20,101.5c-3.8,40.2-12.8,78.4-53.6,95c-4.7,1.9-2.6,9.6,2.1,7.6
		c25-10.2,41.5-27.7,51-53.2c7.1-19.1,7-39.4,9.5-59.4c2.9-22.8,10-44.9,14.3-67.4c7.7-39.9,9.7-84.3,29-120.6
		c8.9-16.6,17.4-33.6,26.7-50C1646,680.1,1657,668.4,1654.7,651.3z"/>
	<path class="st3" d="M1373.5,911.1c-16.2,3.8-22.6,45.2-6,52.2c17.4,7.3,26.9-16.4,27.2-29.6C1395,924.1,1385.7,896.3,1373.5,911.1
		z M1372.6,920.2c0.2,0.1,0.3,0.3,0.5,0.4c0.6,8.8,2.9,26.1-6.2,28.4c-0.1,0-0.2,0.1-0.2,0.1
		C1365.5,941.1,1367.3,925.1,1372.6,920.2z M1371.1,956c1.7-0.7,3.2-1.7,4.4-2.8c0.5,0.9,1.3,1.5,2.2,1.8c-0.8,0.5-1.7,0.8-2.7,1
		C1373.4,956.4,1372.2,956.3,1371.1,956z"/>
	<path class="st3" d="M1337.3,572.2c-5.1,0.3-5.1,8.2,0,7.9c4.6-0.3,4.9,8.7,4.9,11.4c0,3.9-0.7,7.9-1.8,11.6
		c-3.4,10.9-11.7,18.3-23.3,18.6c-7.4,0.2-19.4-0.8-23.4-8c-3.4-6.1-1.3-14.5-0.3-21.8c3.7-0.8,4.8-6.8,0.4-7.6
		c-0.6-0.2-1.2-0.3-1.8-0.5c-2.8-1.3-5.8,0.3-6,3.4c-0.6,12-6.2,27.7,5.7,36.2c9.5,6.8,25.9,8.4,36.7,4.3
		c13.6-5.1,20.6-19.6,21.6-33.3C1350.6,585.5,1348.9,571.4,1337.3,572.2z"/>
	<path class="st3" d="M1355.1,567.8c-4.2-3-8.1,3.9-4,6.8c10.5,7.5,6.2,25.5,3.3,35.8c-4.4,15.5-14.1,30.3-31.9,30
		c-5.1-0.1-5.1,7.8,0,7.9c21.3,0.3,34.3-16.7,39.6-35.8C1366.1,597.8,1369.3,577.9,1355.1,567.8z"/>
	<path class="st3" d="M1227.8,596.6c-7.7-3.2-15.4-1.8-21.8,2.2c-1.7-1-4.2-1-5.7,1.1c-8.9,12.4-11.4,31.7,5.3,38.9
		c13.6,5.8,27.9-3.8,32.8-16.6C1242.4,611.9,1238.2,600.8,1227.8,596.6z M1210.2,632.1c-10-2.9-10.3-11.9-7.4-19.8
		c0.2-0.2,0.3-0.3,0.4-0.5c2.7-3.7,6.4-6.7,10.6-8.1c-0.1,0.8-0.1,1.6,0.4,2.4c5.1,8.6,7.4,15.4,5.4,25.4
		C1216.7,632.7,1213.5,633,1210.2,632.1z"/>
	<path class="st3" d="M1450.4,558.5c-5.8-9.1-18.6-17.9-28.1-8.9c-1.5,1.4-1.4,3.4-0.4,4.9c-0.1,0.1-0.3,0.2-0.4,0.4
		c-9.1,11.2-17.9,26.4-5.7,39.1c9.6,9.9,23,8,30.3-3C1452.1,581.8,1456.8,568.5,1450.4,558.5z M1422.1,589.2
		c-8.5-7.7-3.5-17.6,2.1-25.3c1.3-0.3,2.4-1,2.9-2.6c0.3-0.9,0.6-1.8,0.8-2.6c0.1-0.2,0.1-0.5,0.1-0.7c2.9,0.6,5.9,0.5,8.7,2
		c2.5,1.3,3.8,3.7,4.2,6.5c-1.7-2.7-4.3-5.2-8-7.3c-3.7-2.2-8.4,3.4-4.8,6.2c6.4,5,10.4,15.6,3.2,21.8c-1.9,1.6-1.5,3.8-0.1,5.2
		C1428.5,593,1425.3,592.2,1422.1,589.2z"/>
	<path class="st3" d="M1285.8,873.6c0.6-4.1-5-7.4-7.2-3c-1.3,2.6-2.5,5.2-3.7,7.9c-3.8,4.7-10.3,8.2-16.5,10.2
		c4.7-6.7,9.5-13.3,14.1-20.1c2.9-4.2-4-8.2-6.8-4c-6.5,9.4-13.2,18.6-19.6,27.9c-1.6,2.4,0.5,6.2,3.4,6c5.3-0.4,11.8-2.1,17.8-5
		c-2.1,3.5-4.5,6.8-7.6,9.8c-3.6,3.6,2,9.2,5.6,5.6c7.5-7.3,11.7-16.4,16-25.6C1283.6,880.4,1285.3,877.2,1285.8,873.6z"/>
	<path class="st3" d="M1326.8,597.3c-8.2,6.4-11.5,16.8-17.4,24.9c5.4-12.5,15.7-23.6,21.1-35.8c2-4.6-4.8-8.6-6.8-4
		c-7.8,17.7-23.3,31.9-25.5,51.7c-0.3,3.1,3.6,4.7,6,3.4c8.3-4.5,12.3-12.2,16.6-19.7c-3.6,8.4-8.5,16.4-12,24.8
		c-2,4.7,5.7,6.7,7.6,2.1c6.4-15.2,15.8-27.9,17.2-44.7C1333.9,596.3,1329.2,595.4,1326.8,597.3z"/>
	<path class="st3" d="M1560.8,534.1c2.6-3.9-2.7-9-5.8-5.2c-13,15.9-31.5,31.1-36.2,52c-0.5,2,0.6,4.3,2.8,4.9
		c5.6,1.4,10.3,0.6,14.3-1.5c1.2,0.4,2.5,0.2,3.7-1c12-12.5,19.7-28.2,26.8-43.8C1568,535.9,1564,531.7,1560.8,534.1z M1557.7,537.9
		c-7.9,12.3-15.8,39.1-30,40.5C1533.1,562.7,1546.9,550.3,1557.7,537.9z"/>
	<path class="st3" d="M1598,569.6c-7.1,5.5-13,12.5-19.6,18.4c7-11.4,19.2-20.3,25.6-32c2.1-3.9-3-8.1-6.2-4.8
		c-7.9,8-13.9,18.6-22.5,26c7-12.3,18.3-22.3,25.5-34.4c2.6-4.4-4.2-8.4-6.8-4c-9.7,16.1-25.7,28.5-31,47c-0.8,2.6,2,6,4.9,4.9
		c0.1-0.1,0.3-0.1,0.4-0.2c-1,2.4-1.8,4.9-2.3,7.6c-0.6,3.3,2.6,6.2,5.8,4.5c5.8-3.2,10.7-7.5,15.4-12c1.8,0.3,3.9-0.4,4.8-2.5
		c2.2-5.3,7.9-8.7,11.6-12.9C1607.1,571.3,1602,566.5,1598,569.6z"/>
	<path class="st3" d="M1246.3,613.4c-2-10.5-7.1-17.1-17.8-19.4c-9.6-2.1-22.8-2.2-28.8,6.8c-2.8,4.3,4,8.2,6.8,4
		c4-6.1,17.4-4.5,23.2-2.4c7.5,2.7,9.1,10.6,9.6,18c-2.2-2.4-7.4-1.4-6.9,2.5c0.9,7.8-9.2,13.3-18.1,16.6c-4.8-0.1-8.8-1.7-8.9-5
		c-0.1-2.9-3.3-5.1-6-3.4c-0.3,0.2-0.6,0.4-0.9,0.5c-1.9,1.2-2.4,3.4-1.4,5.4c0.3,0.7,0.7,1.4,1.2,2c0.1,0.1,0.2,0.2,0.3,0.4
		c0.9,2,2.3,3.6,4.1,4.9c-1.3,2.3,0,5.9,3.3,6c9.8,0.2,23.1-0.4,31.7-5.5C1248.8,638.4,1248.4,624.4,1246.3,613.4z"/>
	<path class="st3" d="M1458.8,543.7c-0.2-2.3-1.6-3.8-4-4c-10.2-0.9-17.8,5.7-27.6,6.4c-5.1,0.4-5.1,8.3,0,7.9c5-0.3,9.6-2.3,14.3-4
		c0.4,0.5,1,1,1.8,1.2c5.8,1.7,2.6,18.7,2.3,23.1c-0.4,7.5-1.3,12.8-5.9,16.1c-3.1,1-6.3,1.9-8.9,3.5c-4,2.4-1.3,8.1,3,7.2
		c4.3-0.8,7.7-2.2,10.4-4.1c6-1.8,11.9-3.4,15.1-9.7C1466.2,574.4,1460.1,557.2,1458.8,543.7z M1453.4,580.9
		c-0.2,0.4-0.4,0.8-0.6,1.2c0.4-2.4,0.7-5,0.8-7.8c0.1-2.6,0.5-5.9,0.8-9.3C1455.1,570.6,1455.1,576.1,1453.4,580.9z"/>
	<path class="st3" d="M1332.4,872c0.6-3-1.8-5.6-4.9-4.9c-2.3,0.5-4.5,1.2-6.7,1.9c1.9-3.2,3.6-6.4,4.5-10.5
		c0.7-3.1-1.9-5.4-4.9-4.9c-2,0.5-4,0.8-6,1c5-5.8,10.5-10.7,12.5-18.5c0.7-2.8-1.9-5.9-4.9-4.9c-1.5,0.5-2.9,1.1-4.4,1.7
		c3-4.8,5.8-9.6,7.6-15.1c1.3-3.8-3.9-6.6-6.6-3.8c-3.5,3.6-6.9,7.8-10.8,11.3c2.2-4.3,4.5-8.5,6.2-13c1.4-3.7-4.1-6.7-6.6-3.8
		c-2.4,2.7-4.8,5-7.2,7.3c0.4-1.1,0.8-2.2,1.3-3.4c1.2-3.1-3.1-6.5-5.8-4.5c-1.9,1.5-3.7,2.7-5.6,4c1-3.5-4.8-6.3-7.5-2.7
		c-4.1,5.4-3.8,4.5-3.3,11.1c0.3,3.1,3.1,4.7,6,3.4c1.7-0.8,3.3-1.7,4.9-2.5c-0.3,1.4-0.6,2.8-0.9,4.4c-0.4,2.9,2.7,6.8,5.8,4.5
		c1-0.7,1.9-1.5,2.8-2.2c-0.9,1.9-1.7,3.8-2.4,5.8c-1,2.9,2.1,5.7,4.9,4.9c2.2-0.6,4.2-1.6,6-2.6c-0.9,1.4-1.8,2.9-2.7,4.4
		c-2.1,3.7,2,7,5.4,5.4c1.7-0.8,3.3-1.6,4.9-2.4c-3.7,4.6-8.2,8.8-11.1,13.4c-1.7,2.8,0.6,5.6,3.4,6c3.3,0.4,6.1,0.2,8.9-0.2
		c-2,4.1-4.6,8-6.3,12.1c-1.2,2.8,2.2,5.7,4.9,4.9c2.2-0.7,4.3-1.4,6.4-2.1c-1.8,2.4-3.9,4.5-6.4,6.2c-2.4,2-0.9,5.8,1.7,6.6
		c0.6,0.2,1.3,0.5,1.9,0.7c-2.7,1.7-5.3,3.6-7.9,5.8c-1.6,1.3-1.5,4.3,0,5.6c1.2,1.1,2.2,1.9,3.1,2.6c-3.4,1.8-5.9,4.3-7.6,8.8
		c-0.5,0.1-0.9,0.2-1.5,0.4c-2.6,0.6-3.4,3.6-2.4,5.8c0.5,1.1,0.9,1.9,1.2,2.5c-4,1.1-7.4,2.8-10.8,5.8c-11.6-1.5-23.7,0-32.3,8.4
		c-6.2,1.2-12.2,3-18.3,4.9c0-2-1.4-3.9-3.8-3.9c-5.7,0.1-9.7,1.8-13.9,4c0.1-0.8,0.3-1.5,0.4-2.3c0.4-3-2.6-6.7-5.8-4.5
		c-1,0.7-1.8,1.2-2.5,1.8c-0.1-0.9-0.3-2-0.6-3.4c-0.6-3.2-4.5-3.4-6.6-1.7c-0.9,0.7-1.8,1.5-2.7,2.2c-2.6,2.2-1,5.3,1.6,6.2
		c0,1.3-0.1,2.7-0.1,4c-19.3-7.3-13.9-35.6-13.2-55c0.6-15.5,2.7-61.5,26.7-56.7c5,1,7.1-6.6,2.1-7.6c-30.4-6.1-35.7,39.6-36.7,60.5
		c-1.2,28-6.9,67.2,29.7,68.5c0.1,0,0.2,0,0.2,0c1,0,2,0.1,3,0c2,0,3.2-1.4,3.6-2.9c2.4-1.2,4.9-2.5,7.3-3.5c-0.4,2.6,2.2,5.2,5,4.4
		c9.1-2.6,17.6-5.8,26.6-7.4c6.2,1.8,6.4,1.5,13.2-1.5c2.7-1.2,2.3-4.3,0.7-6.1c4.2-1.1,8.8-1.3,13.3-0.8c0.7,1,1.8,1.8,3.2,1.8
		c2.3,0,4.6-0.1,6.9-0.1c2.7,0,4.2-2.7,3.8-4.9c2.5-1.2,5-2.4,7.5-3.6c3.3-0.4,5.4-4.1,2.8-6.8c-0.3-0.4-0.6-0.8-0.9-1.2
		c1-0.1,2.1-0.2,3.1-0.4c3.9,0,5.2-5.6,2.2-7.3l4.8-3.3c3.5-1,3.6-5.3,0.9-7.2c-1-5.1,1-8.1,5.9-9.1c2.4-1.3,2.7-5.6,0-6.8
		c-1.8-0.8-3.1-1.4-4.2-1.9C1328.4,881.4,1331.2,878,1332.4,872z"/>
	<path class="st3" d="M1323.4,970.9c-18.6,7.6-38.5,9.5-57.6,15.4c-20.9,6.5-40.3,16.1-62.7,16.1c-5.1,0-5.1,7.9,0,7.9
		c20.8,0,39.3-7.7,58.8-14.4c20.9-7.1,43.1-9.1,63.6-17.4C1330.2,976.6,1328.1,968.9,1323.4,970.9z"/>
	<path class="st3" d="M1533.2,720.2c-7.3-0.1-16.1,0.4-21.6,5.8c-4.7,4.5-6.3,13.5-3,19.3c4.9,8.9,12.8,2.3,18.4-5.1
		c0.3,5.3-0.3,10.5-2.9,14.9c-4.3,7.2-13.1,9.2-20.8,10.4c-2.9,0.5-3.8,4.8-1.7,6.6c2.2,2,3.7,2.1,6.7,2.2c1.9,0.1,3.1-1.1,3.6-2.5
		c7.7-2,14.9-5.6,19.1-12.7c5.5-9.3,4.3-20.8,2.4-31C1538.3,728.2,1538.3,720.3,1533.2,720.2z M1521.1,735.2c-0.5,0.7-3,4.3-4.1,4.6
		c-2.5,0.9-0.7,2.1-1.9-0.7c-3-6.5,3.4-9.2,9.7-10.3C1523.8,731.1,1522.6,733.2,1521.1,735.2z"/>
	<path class="st3" d="M1566.7,711.4c-6.7-9.7-16.8-7.4-22.9,1.5c-1.5,2.1-0.4,4.2,1.4,5.2c-0.6,5.5-0.7,11.2-0.3,16.7
		c0.4,5.9,1.1,15.6,7.8,18.1c7.6,2.8,14.9-7.3,17.3-13.1C1573.6,730.9,1572.2,719.3,1566.7,711.4z M1562.5,737.4
		c-0.7,1.6-4.8,8.5-7.2,8.1c-2.1-0.4-2.5-10.8-2.6-12.7c-0.3-6-0.2-12.3,1-18.1c0.1-0.4,0-0.7,0-1.1c1.4-1,3.1-1.2,4.9,0.4
		c2.7,2.3,4,6.4,4.8,9.7C1564.4,728.1,1564.4,733.2,1562.5,737.4z"/>
	<path class="st3" d="M1586.6,705.6c1.3-2.5,3.8-4.3,6.2-5.8c4.4-2.6,0.4-9.5-4-6.8c-5.9,3.6-10.1,8.3-11,15.3
		c-0.2,1.5,1.4,3.6,2.9,3.8c1.9,0.3,5.6,1.1,6.2,3.3c0.1,0.4,0.2,0.6,0.4,0.3c-0.5,0.8-3.7,0.4-4.4,0.4c-5.1-0.3-5.1,7.6,0,7.9
		c5.6,0.3,12.7-1.8,12.1-8.7C1594.5,710.8,1590.8,707.3,1586.6,705.6z"/>
	<path class="st3" d="M963.3,1196c-43.6-40.9-88.6-13.6-137.2,1.2c-52.8,16-124.5,5.5-152.2-47.9c-2.3-4.5-9.2-0.5-6.8,4
		c21.9,42.2,71.4,59.6,116.7,58.8c58.7-1.1,122.1-59.2,174-10.5C961.4,1205.1,967.1,1199.5,963.3,1196z"/>
	<path class="st3" d="M742.4,1176.6c-0.6-0.3-1.2-0.7-1.8-1c-4.8-7.7-11.8-16.2-20.6-17.9c-1.8-1.2-3.6-2.5-5.4-3.7
		c-3.1-2-6.6,1.5-5.8,4.5c0,0-0.1,0-0.1,0c-1.1-0.4-2.3-0.4-3.4,0.2c-3.6,0.5-7.3,2.3-11.3,5.7c-1.9,1.7-1.4,4,0,5.4
		c-6.2,7.7-10.9,16.3-15.4,25.4c-6.1,12.3-16,18.3-28.4,23.8c-20,8.8-42.7,15.7-46,40.2c-0.3,2.5,2.8,4.6,5,3.8
		c25.9-9.3,61.2-4.7,83.2-22.8c18.8-15.4,12.1-44.9,35.4-56.5c4.6-2.3,0.6-9.1-4-6.8c-19.3,9.6-19.1,25.8-27.1,43.6
		c-13,28.8-54.9,25.6-83.1,32.9c8.2-22,43.9-26,61-39.6c15.4-12.4,18.5-33.6,33.6-47.4c0.3,0,0.7-0.1,1,0c5.2,4.1,10.3,7.4,17,9
		c0,0,0,0,0,0c2.9,2.1,5.8,4.3,8.9,6.2c0.1,0.1,0.1,0.1,0.2,0.2c0.7,0.8,1.5,1.2,2.4,1.2c0.3,0.1,0.5,0.3,0.8,0.4
		C743,1185.7,747,1178.9,742.4,1176.6z"/>
	<path class="st3" d="M610.9,1234.9c-1.4-16.9-12.8-21.4-27.5-27.3c-16-6.5-32.2-12.4-48.8-17.2c-11-3.2-30.3-10.6-41.6-4.2
		c-1.5,0.8-1.9,2.2-1.8,3.5c-0.4,0-0.7,0-1.2,0.1c-7.7,2.3-13.4,5.8-17.2,10.6c-2,0.5-2.9,2.4-2.6,4.2c-2.2,4.6-3.1,10-2.6,16.7
		c1.1,13.9,7.1,39.6,17.1,50.1c14.2,14.9,48.7,16.7,67.2,19.7c7.4,1.2,17.4,3.9,27,4.7c0.5,0.3,1.1,0.6,1.8,0.7
		c2.3,0.3,4.3,0,6.1-0.6c7.1-0.5,13.5-2.8,17.7-8.6C613.3,1275.4,612.1,1248.9,610.9,1234.9z M506.4,1273
		c-18.2-5.5-21.2-17.2-26.4-33.8c-3.5-11-6.4-22.5-2.1-31.1c14.8,0.2,29.5,0.8,44.2,2.4c16.6,1.9,41.5,4.4,56.2,13.6
		c13.2,8.2,11.7,22.6,11.8,36.3c0,6.2,1.8,23.1-4.9,27.2c-7.8,1.7-18.4-2.2-26.2-3.4C541.2,1281.3,523.6,1278.2,506.4,1273z
		 M602.2,1258.5c-0.6,9,0.5,17.2-4.9,23c4.3-16.1,1.4-40.4-1.6-48.6c-5.8-16.1-23.4-20.2-38.4-24c-23.5-5.9-47.8-8-72-8.5
		c1.9-1.1,4.2-2.1,6.9-2.9c2-0.6,2.8-2.2,2.7-3.9c0.7,0,1.4,0,2.2-0.5c8-4.6,23.1,1.5,31.2,3.7c11,3.1,21.9,6.7,32.7,10.7
		c9.3,3.4,19,6.8,28,11C606.1,1226.5,603.2,1242.7,602.2,1258.5z"/>
	<path class="st3" d="M682.8,1231c-7.3,8.5-16.8,14.3-27.2,18.2c-9.2-1.7-18.7-1-28.1,0.7c1.3-4,3.1-7.7,6.6-11.1
		c1.1-1.1,1.2-2.7,0.8-4.1c2.1-1.5,4.1-3.1,6.1-4.6c0,0,0,0,0,0l0,0c0.3-0.2,0.5-0.4,0.8-0.6c3.7-3-1-8-4.8-6.2
		c-6.2,3-11.2,6.9-15.2,11.5c-0.3,0.2-0.5,0.4-0.8,0.6c-1.2-1-2.9-1.1-4.3-0.4c-1.7-1.5-4.5-1.8-5.8,0.9c-0.3,0.7-0.6,1.3-0.9,2
		c-0.7,0-1.3,0.1-2,0.5c-7.5,4.5-10.3,11.4-9.5,18.9c-0.7,0.2-1.5,0.4-2.2,0.6c-4.2,1.2-3.5,7.9,1.1,7.8c1.1,0,2.3-0.1,3.4-0.1
		c0.2,0.5,0.4,1,0.6,1.4c1.1,2.2,4.6,2.6,6.2,0.8c0.8-0.9,1.5-1.7,2.1-2.6c28.3-1.4,59.8-6.6,78.6-28.5
		C691.7,1232.7,686.1,1227.1,682.8,1231z"/>
	<path class="st3" d="M650,943.6c-13.8,9.6-28.4,18.4-38.7,32c-14.5,19-24.6,35-45.2,48.6c-31.5,20.8-66.2,36-98.9,54.6
		c-21.6,12.4-40.3,29.4-40.6,56.1c-0.4,33.5,23.8,49.9,44.7,72c3.5,3.7,9.1-1.9,5.6-5.6c-21.4-22.8-51.6-43.4-40.4-79.8
		c8.5-27.7,41.2-38.9,64.3-51.4c28.1-15.2,58-29.3,83.3-49c12-9.3,19.3-19.6,27.6-32c11.4-17.1,25.7-27.2,42.4-38.7
		C658.1,947.5,654.2,940.7,650,943.6z"/>
	<path class="st3" d="M652.9,913.5c-47.7,15.5-71.2,54.2-107.5,85.1c-21.2,18-45.3,31.9-71.2,41.9c-17.2,6.6-35.4,12.6-50.4,23.5
		c-34.5,25.2-20.8,67-7.1,100.5c10.5,25.7,23.3,59.4,52.5,66.1c0.6,0.7,1.6,1.2,2.8,1.2h5.4c5.1,0,5.1-7.7,0-7.9
		c-36.8-1.8-53.6-57.8-62.5-86.8c-6.6-21.5-9.7-45.6,8.3-62.3c13.3-12.4,32.1-18.6,48.7-24.9c30.9-11.8,59.4-27.7,84-49.9
		c32.7-29.5,55.1-64.5,99.1-78.8C659.8,919.6,657.8,911.9,652.9,913.5z"/>
	<path class="st3" d="M639.1,800.8c-54.8,7.8-97.3,43.7-146,66.8c-36.4,17.2-74.2,32.4-107.3,55.5c-25.4,17.7-50.6,42.1-53.4,74.8
		c-1.6,18.4,4.3,36.2,13.1,52.1c14.7,26.7,40.5,41.4,46.3,73.1c10.2,55.2,18.5,104.2,79.2,120.5c4.9,1.3,7-6.3,2.1-7.6
		c-32.3-8.6-51.7-27.1-62.6-58.6c-10.1-29.2-5.4-64.8-24.7-90.3c-17.8-23.5-39.6-40.5-44.8-71.4c-4-23.9,5.7-45.6,21.8-62.9
		c30.4-32.7,74.9-51,114.7-69.3c54-24.7,103.9-66.5,163.7-75C646.2,807.7,644.1,800.1,639.1,800.8z"/>
	<path class="st3" d="M648,812.5c-15.6,0.7-27.9,9.5-40.1,18.5c-16.6,12.3-33.7,22-51.7,32.2c-38.1,21.6-68.8,52.5-106.9,74.4
		c-25.9,14.8-60.8,30.8-71.6,61.2c-12.3,34.9,24,49.5,29.1,79.8c0.9,5,8.5,2.9,7.6-2.1c-4.9-29.1-41.5-44.6-28.1-77.5
		c13-32,56-47.5,83.4-64.2c30-18.3,54.3-43.7,84.6-61.4c15.4-9,31.7-16.5,46.2-27c14.2-10.3,29-25.3,47.4-26.1
		C653.1,820.2,653.1,812.3,648,812.5z"/>
	<path class="st3" d="M645.2,829.5c-18,19.9-39.7,34.2-61.5,49.4C568,889.8,551.9,900.5,543,918c-13.9,27.4-7,58.3,18,75.9
		c4.2,2.9,8.1-3.9,4-6.8c-34.5-24.3-22.3-67.2,6.6-89.7c26.8-20.8,56.2-36.9,79.2-62.3C654.2,831.3,648.7,825.7,645.2,829.5z"/>
	<path class="st3" d="M639.3,851.2c-20.5,24.8-46.5,46.2-65,72.4c-11.7,16.7-17.8,36.6-4.3,53.8c3.2,4,8.7-1.6,5.6-5.6
		c-18.6-23.6,11-51.3,25.9-67.2c14.7-15.7,29.6-31.3,43.3-47.9C648.1,852.9,642.6,847.3,639.3,851.2z"/>
	<path class="st3" d="M646.6,1030c-11.3,16.2-53.6-8.4-66.7-13.7c-4.7-1.9-6.8,5.7-2.1,7.6c18.4,7.4,59.8,32.7,75.7,10
		C656.3,1029.9,649.5,1025.9,646.6,1030z"/>
	<path class="st3" d="M650,1006.9c-16.4,8.9-39.5,0.1-56.3-4.4c-4.9-1.3-7,6.3-2.1,7.6c19,5.1,43.7,13.7,62.4,3.6
		C658.5,1011.3,654.5,1004.4,650,1006.9z"/>
	<path class="st3" d="M639.6,850.9c-2.1-0.3-4-0.2-5.9-0.1c-0.1-2.9-4.1-4.7-6.8-2.6c-10.5,8.3-19.9,17.8-30.2,26.3
		c-4,3.3,1.7,8.6,5.6,5.6c1-0.8,1.9-1.6,2.9-2.4c0,0,0,0,0,0c-0.3,0.4-0.4,0.7-0.5,1.1c-3.3,3.3-6.6,6.6-9.8,10
		c0.6-1.9,1.1-3.9,1.4-5.9c0.7-4.1-3.5-6.3-6.6-3.8c-5.5,4.3-9.5,9.6-12.9,15.4c-0.9-0.9-2.2-1.4-3.6-0.9
		c-12,4.8-22.5,19.4-24.6,33.5c-1.3,1.5-2.6,3.1-3.9,4.6c-2.9,3.4,0.8,7.9,4.2,6.5c0.3,1.4,0.7,2.8,1.3,4.2c0.2,0.4,0.4,0.7,0.6,0.9
		c-2.9,6.3-5.7,12.6-8.7,18.9c-2.1,4.5,4.2,8.5,6.8,4c3.4-6,6.5-12.3,11.2-17.2c0.3,12-5.4,24.8-10.2,35.2c-2.2,4.7,3.8,8.1,6.8,4
		c1-1.4,2-2.8,3-4.2c1,2.5,4.2,3.1,6.4,1.3c3.8-3,5.9-6.2,8.1-10.5c2.3-4.4-4-8.2-6.5-4.4c0.3-2.6,0.6-5.2,1-7.9
		c0.3-1.8-0.5-3.1-1.6-4c1.1-6.1,1.2-12.3-0.2-18.3c-0.5-1.9-2.7-3.2-4.6-2.8c0.3-0.5,0.5-1,0.8-1.6c3.7-4.9,6.6-10.3,9.3-15.8
		c1.3,1.1,3.3,1.4,4.9-0.4c6.5-7,12.8-14.2,19.3-21.1c16.8-11.9,32.1-25.3,45.8-40.7C644.8,854.9,643,851.3,639.6,850.9z"/>
	<path class="st3" d="M657.8,1031c-1.6-3.9-2.9-7.3-3.4-11c0-1.6-0.1-3.2-0.4-4.8c0-0.1,0-0.2,0-0.3c0,0,0,0,0,0
		c0-0.4-0.1-0.7-0.1-1.1c-0.7-4.5-7.7-3.3-7.8,1.1c0,0.2,0,0.3,0,0.5c-1.8-1-4.4-0.8-5.3,1.3c-0.4,0.9-0.9,1.8-1.3,2.7
		c-1-2.5-4.3-3.3-6.4-1.4c-2.1,1.9-4.3,3.6-6.6,5.2c0.9-3.9,2.2-7.7,3.3-11.7c1.1-3.9-3.8-6.4-6.6-3.8c-4.1,3.7-7.7,7.6-12,10.8
		c0.1-2.4,0.3-4.7,0.8-7c0.8-4.1-3.5-6.2-6.6-3.8c-2.5,1.9-4.9,3.9-7.3,5.9c0.8-2.7,1.6-5.5,2.5-8.2c1.5-4.9-6.1-7-7.6-2.1
		c-2,6.5-3.9,13-5.6,19.6c-0.8,3.1,2.9,6.5,5.8,4.5c3.5-2.5,6.9-5.2,10.2-7.9c-0.1,2.2-0.2,4.3-0.5,6.5c-0.4,3.3,3.6,4.5,6,3.4
		c3.7-1.7,6.9-4,9.8-6.6c-0.7,3-1.2,6-1.3,9.1c-0.1,2.8,3.6,5.2,6,3.4c3.1-2.3,6.2-4.4,9.3-6.7c0.1,1.6,0.2,3.2,0.2,4.8
		c-0.1,3.8,5.6,5.5,7.4,2c0.1-0.2,0.3-0.5,0.4-0.7c0,0.7,0,1.5,0,2.2c0,3.2,4.4,5.5,6.8,2.8c1.5-1.8,2.8-3.6,3.8-5.4
		C653.6,1037.2,659.6,1035.2,657.8,1031z"/>
	<path class="st3" d="M722.9,1169.4c-2.2,1.6-4.1,3.4-6,5.3c-0.9-0.2-1.8-0.1-2.7,0.4c-0.7,0.3-1.3,0.7-1.9,1.1
		c0.2-0.7,0.4-1.3,0.5-2c0.3-1.5-0.3-2.9-1.3-3.8c-0.4-2.6-4.1-4.9-6.9-2.6c-14,11.3-25.9,23.5-32,40.7c-0.4,1.2-0.1,2.3,0.5,3.2
		c-0.1,0.1-0.3,0.2-0.4,0.3c-11.1,4.3-22.1,8.5-32.3,14.9c-1.8,1.1-2.2,3.3-1.5,5c-2.2,0.9-4.3,1.9-6.4,3c-4.9,1.7-9.5,3.9-13.5,6.8
		c-1.3,0.9-1.8,2.1-1.8,3.2c-0.1,0-0.1,0-0.2,0.1c-1.4-1.4-3.7-1.9-5.4,0c-1.1,1.2-2.2,2.5-3.4,3.7c-2.4,2.7-0.1,8.1,3.8,6.6
		c11.3-4.2,21.7-8.9,31.3-16c21.2-6.1,44.8-7.1,56.8-28c0.9-0.2,1.8-0.8,2.4-1.6c0.8-0.1,1.6-0.4,2.3-1.2
		c8.8-10.7,17.1-21.2,23.4-33.6C729.9,1171.6,726.3,1166.8,722.9,1169.4z M667.5,1225c4.2-1.7,8.4-3.5,12.6-5.2
		c0.1,0.1,0.2,0.1,0.2,0.2c-4.3,2.5-9,4.4-14,5.9C666.8,1225.6,667.1,1225.3,667.5,1225z"/>
	<path class="st3" d="M630.6,806.5c-1.3,0.5-2.7,1-4,1.5c-1-0.4-2.1-0.4-3.2,0.1c-6.1,3.2-12.5,5.9-19,8.1c-1.9,0.7-2.7,2.3-2.7,3.9
		c-4.1,1.9-8.2,3.8-12.3,5.6c-0.9-2-3.4-3.5-5.7-2.1c-6.2,3.9-12,8.1-17.7,12.5c-0.8-0.2-1.8-0.1-2.7,0.4
		c-11.6,6.5-21.7,15.2-31.7,24.1c3-3.3,5.9-6.8,8.5-10.3c2.2-2.9-1.4-6.6-4.5-5.8c-24.7,6.2-45.2,23.7-64.5,39.6
		c-16.2,6.3-32.1,15.6-45.4,25.9c-15.7,5.2-31,11.2-44.8,20.3c-8.9,5.9-14.7,12.9-18.6,20.5c-4.5,5.3-8.2,11.8-11,18.8
		c-1.5,0.3-2.8,1.3-3.3,2.8c-5.3,15.5-4.1,31.9,2.4,46.7c0,1.3-0.1,2.6,0,3.9c-2,0.9-3.4,3.3-1.9,5.5c1,1.5,1.9,3,2.9,4.5
		c0.5,3.1,1.1,6.1,2,9.1c0.1,0.4,0.3,0.7,0.5,1c-0.2,27,12.9,57.6,29.3,77c-0.4,1-0.5,2.2,0,3.4c5.8,12,11.9,23.9,18,35.8
		c-3.6,24.2,14.5,52.2,30,68.7c1.8,1.9,5.3,1.1,6.4-1.1c7.3,6.2,16.4,10.1,27.9,10.5c3.2,0.1,5.5-4.6,2.8-6.8
		c-11-8.9-22.5-17-32.6-26.8c-0.8-0.8-1.7-1.1-2.6-1.1c-2.7-7.7-6.4-15-10.9-21.9c-0.3-0.5-0.8-0.9-1.3-1.2c-0.4-1.5-0.7-2.9-1-4.4
		c0.4-0.7,0.6-1.6,0.4-2.5c-1.1-6.7-2.4-13.2-4.1-19.8c-0.5-2.1-2.6-2.9-4.5-2.7c0-7.2-0.8-14.6-2.2-22c2.7-19.3-2.3-37.8-6.4-56.6
		c1-1,1.5-2.5,1.3-3.9c-3.8-20.7-16.2-39.2-28.2-56.6c-0.3-0.5-0.7-1.1-1.1-1.6c15.5-0.3,23.6-18.6,27.2-37.1
		c3-4.8,6.2-9.4,9.6-13.8c1.8-1.7,3.6-3.4,5.3-5.2c2.8-2.3,5.6-4.6,8.4-6.8c10.7-4.9,21.5-9.6,31.9-14.9c8.9-3.2,17-8.3,24.2-14.6
		c2.8-2.1,5.6-4.3,8.2-6.7c1-0.9,1.3-1.9,1.2-2.8c2.1-2.4,4.1-5,6-7.6c12.1-4.6,22.9-11.3,33.1-19.1c25.8-10.4,54.3-24.3,74.9-44.3
		c8.4-5.4,15.9-12.1,21.2-19.6c2.4-1.1,4.7-2.2,7.1-3.2C637.7,812,634.8,805.1,630.6,806.5z M393.5,1057.2L393.5,1057.2
		c-1.4-2.8-2.9-5.3-4.6-7.7c0.4-0.1,0.9-0.2,1.3-0.5C391.3,1051.7,392.5,1054.4,393.5,1057.2z M421.4,929c2.1-0.7,4.2-1.4,6.3-2.1
		c-1.2,1.5-2.4,3-3.7,4.4c-0.2,0.1-0.5,0.3-0.7,0.4C423.2,930.5,422.4,929.5,421.4,929z M382.6,1062.3c-0.6-1.6-1.3-3.2-2-4.7
		c-0.4-2.1-0.9-4.1-1.5-6.1c0.1,0.2,0.3,0.4,0.4,0.6c1.9,4.6,3.6,9.2,5,13.9C384,1064.8,383.3,1063.5,382.6,1062.3z M382.4,1092.6
		c0.7,3.9,1.6,7.7,2.9,11.3c-1.7-3-3.3-6.1-4.8-9.2C381.4,1094.3,382,1093.6,382.4,1092.6z M369.3,964.2c0.1-0.1,0.1-0.1,0.2-0.2
		c-3.5,7.4-6,15.6-7.7,23.7c-0.1-0.3-0.2-0.7-0.3-1c0.7-5.3,1.5-10.5,2.7-15.4C365.5,968.8,367.2,966.4,369.3,964.2z M601.4,829.6
		c-0.1,0.1-0.2,0.2-0.3,0.3c-6.5,4.2-13.7,7.6-21,10.1C586.9,835.9,593.9,832.2,601.4,829.6z M524.6,856.7
		c-5,5.5-10.5,10.8-16.5,15.8c-5.3,1.8-10.5,3.5-15.6,5.2c-0.4,0.1-0.9,0.2-1.3,0.3C501.6,869.8,512.7,862,524.6,856.7z
		 M470.9,892.7c0.6,0.1,1.2,0.2,1.8-0.1c0.3-0.1,0.6-0.2,0.9-0.3c-3.5,1.8-6.9,3.8-10.3,6c-3.5,1.2-7.1,2.3-10.6,3.4
		C458.6,898.3,464.8,895.3,470.9,892.7z M409.5,924.7c-1.7,2.8,0.9,6.9,4.4,5.8c1.1-0.3,2.2-0.7,3.2-1c-0.1,0.1-0.1,0.1-0.2,0.1
		c-2.9,2.7-5.8,5.5-8.7,8.2c0.6-3-3.2-5.4-6-4c-3.2,1.6-6.6,3.3-10,5c-0.7-0.6-1.5-1-2.5-1.1c-1.6-0.2-3.1-0.2-4.7-0.1
		c2.8-2.1,6-4.2,9.7-6.1C399.5,929,404.5,926.7,409.5,924.7z M551.2,863.3c4.1-3.8,8.2-7.6,12.3-11.4c4.3-0.5,8.7-1.3,13.1-2.5
		C568.5,854.5,559.8,859.1,551.2,863.3z"/>
	<path class="st3" d="M449.2,1075.7c-1.1,0.3-2.2,0.5-3.3,0.7c0.6-0.9,1.3-1.8,1.8-2.8c2.5-4.5-4.3-8.4-6.8-4
		c-1.7,3-3.7,5.7-5.9,8.2c-3.9,0.2-7.8,0.1-11.7-0.3c4.9-5.7,13.2-7.9,20.2-10c4.9-1.5,2.8-9.1-2.1-7.6
		c-11.8,3.5-23.3,7.6-28.4,19.7c-0.8,1.8,0.8,4.6,2.8,4.9c3.8,0.6,7.6,1,11.5,1.2c-6.5,6-13.3,11.8-17.7,19.7
		c-1.3,2.3-0.1,5.1,2.4,5.8c3.8,1.1,7.4,1.2,10.9,0.7c-4.4,4.6-8.1,9.7-9.8,16c-1.3,4.9,6.3,7,7.6,2.1c3-11.1,14.1-18.2,22.1-25.6
		c3.6-3.3-1-7.9-4.8-6.2c-5.9,2.6-11.8,5.9-18.1,6.1c5.4-7,12.4-12.5,18.7-18.7c4.4-0.4,8.7-1.1,13-2.2
		C456.2,1082,454.1,1074.4,449.2,1075.7z"/>
	<path class="st3" d="M429,1154.6c-3.9,7.2-6.6,14.7-8.3,22.7c-1.1,5,6.5,7.1,7.6,2.1c1.6-7.3,3.9-14.2,7.5-20.8
		C438.3,1154.2,431.5,1150.2,429,1154.6z"/>
	<path class="st3" d="M440.9,1166.5c-4.5,9.5-7.8,19.2-8.5,29.7c-0.3,5.1,7.6,5.1,7.9,0c0.6-9.1,3.5-17.5,7.4-25.7
		C449.9,1165.9,443.1,1161.9,440.9,1166.5z"/>
	<path class="st3" d="M450.8,1190.2c-2.7,6-4.9,12.3-6.3,18.7c-1.1,5,6.5,7.1,7.6,2.1c1.3-5.8,3.1-11.4,5.5-16.9
		C459.7,1189.6,452.9,1185.6,450.8,1190.2z"/>
	<path class="st3" d="M553.1,1002c0.8-5-5.8-7-7.6-2.1c-5.3,14.5-8.6,29.9-19.4,40.9c0.2-5.4,0.8-10.6,1.5-16.1
		c0.5-3.9-5.7-5.4-7.4-2c-4.5,9.1-8.4,20.8-15.6,28.7c1.2-2.3,2.4-4.6,3.9-6.9c2.8-4.3-4-8.2-6.8-4c-5.7,8.4-10.6,18.2-19,24.1
		c0.3-4.7,0.6-9.4,1-14.1c0.3-4.3-5.3-4.9-7.4-2c-6,8.4-10.1,19.4-17.6,26.7c0.2-6.5,0.5-12.9-0.3-19.4c-0.6-5-8.6-5-7.9,0
		c1.2,9.2,0,18.2,0.3,27.5c0.1,3,3.3,4.9,6,3.4c8.4-4.7,13.4-12.3,18-20.3c-0.1,1.7-0.2,3.3-0.3,5c-0.1,2.3,2.6,4.8,5,3.8
		c5.9-2.4,10.5-6,14.3-10.1c0.9,0.8,2.2,1.2,3.5,0.7c10.2-4.1,16.3-12,21.1-20.9c0,1.4,0,2.8,0.2,4.3c0.2,2.7,3.3,5.3,6,3.4
		c9.3-6.5,14.8-14.9,19-24.1c0,0.5,0,1,0,1.5c0.1,5.1,8.1,5.1,7.9,0C550.8,1020.3,551.6,1011.9,553.1,1002z"/>
	<path class="st3" d="M574.9,972.7c0-5.1-7.9-5.1-7.9,0c0,11.2,1,22.9-0.5,33.9c-0.5,3.9-2.1,7.8-2.3,11.7c-0.1,3.2,4.6,5.6,6.8,2.8
		c1-1.2,1.3-2.4,1.8-3.9c0.3-1,0.2-1.8-0.1-2.5c0.6-2.7,1.4-5.4,1.8-8.1C575.7,995.5,574.9,983.9,574.9,972.7z"/>
	<path class="st3" d="M598.5,988.7c0.1-11.3,0.1-22.6,0.1-33.8c0-5.1-7.9-5.1-7.9,0c0,13.6,0.1,27.3-0.1,40.9
		c-0.1,3.7,5.7,5.7,7.4,2c0.6-1.3,1.3-1.3,2.7-1.9C604.6,994.1,602.2,988.9,598.5,988.7z"/>
	<path class="st3" d="M642.9,922.6c-2.9,3.3-5.3,6.9-7.4,10.7c-1.5-2-5-2-6.6,0.4c-3.6,5.5-5.6,12.2-8.8,17.9
		c-0.1-2.9,0-5.7,0.2-8.6c0.5-5.1-7.4-5-7.9,0c-0.6,6.4-0.1,12.7,0.3,19.1c0.3,3.6,4.1,5,6.8,2.8c4-3.2,6.5-7.4,8.7-11.8
		c0,0.3,0,0.5,0,0.8c-0.3,4.5,6.7,5.3,7.8,1.1c0.7-2.7,1.5-5.4,2.4-8.1c1.3,2.4,6.1,2.8,7.6-0.7c2.8-6.6,4-13.5,3.8-20.7
		C649.5,922.2,645.3,919.9,642.9,922.6z"/>
	<path class="st3" d="M1316.5,462.3c-7.1-5.7-14.9-6.6-22.4-4.5c-1-0.9-2.6-1.3-3.8-0.9c-3,1-6,1.8-9,2.4c0.1-0.1,0.2-0.2,0.4-0.3
		c3-2.4-0.2-8-3.8-6.6c-3.7,1.4-7.4,2.9-11,4.4c-0.6-2.3-3.4-4.4-5.9-2.8c-4,2.6-8.2,5-12.4,7.2c0.3-2.8-2.8-5.4-5.9-3.9
		c-5.7,2.7-11.3,5.5-16.9,8.4c-0.6-2.6-3.8-4.3-6.4-1.9c-2.6,2.3-5.1,4.3-7.8,6.2c0.5-3-3.7-6-6.8-3.5c-8.3,6.8-16.7,13.4-26.7,16.6
		c1.9-2,3.9-4,6-5.8c3.9-3.4-1.7-8.9-5.6-5.6c-6.6,5.7-13.2,10-20.5,13.7c0-2.6-2.4-5.4-5.1-4.2c-0.4-0.3-0.8-0.6-1.4-0.8
		c-2,0.2-3-0.6-3-2.2c-0.5-2.5-3.7-3.6-5.8-2.4c-10.3,6.3-16.9,14.3-21.9,25.3c-1.4,3.1,0.9,6.7,4.5,5.8c9.5-2.4,16.8-7.8,24.3-13.5
		c0.8,2.2,3.7,2.8,5.7,2c2.9-1.2,5.7-2.6,8.5-4.1c0.7,1,1.7,1.8,3.2,1.7c9-0.3,16.8-3.1,24-7.1c0.8,0.4,1.7,0.6,2.7,0.4
		c7.1-1.5,13.3-4.2,19.1-7.8c1.3,0.8,2.9,1.1,4.2,0.4c4.1-2,8.1-4,12.1-6.1c-0.2,1.3,0.3,2.6,1.2,3.4c-11.3,3.4-22.5,7.3-33.4,12
		c-3.7,1.6-1.7,7.6,2,7.4c24.2-1.3,47.5-6.9,70.6-13.5c1.4,1.2,3.4,1.4,4.9-0.4c0.3-0.4,0.7-0.8,1-1.3c13.1-3.8,26.1-7.8,39.2-11.5
		C1317.4,468.2,1318.9,464.3,1316.5,462.3z M1266.7,474.8c-9.4,2.7-18.8,5.1-28.2,7.2C1247.8,479.3,1257.2,477,1266.7,474.8z
		 M1142.5,485.5c0.5,0.6,1.2,1.1,1.9,1.3c0.3,0,0.5,0.1,0.7,0.1c-3.9,3-7.8,5.9-12,8.2C1135.8,491.5,1138.8,488.3,1142.5,485.5z"/>
	<path class="st3" d="M848.5,688.5c-3.1,4.7-5.9,9.2-9.4,13.2c0.9-4.4,2.3-8.6,4.3-13.1c2.1-4.6-3.9-8.2-6.8-4
		c-4.6,6.6-9.6,12.6-15.7,17.3c3-4.8,6.9-8.8,11.2-13c3.8-3.6-1.7-8.6-5.6-5.6c-4,3.2-7.9,6.2-11.9,9c0,0,0,0,0,0
		c2.7-2.1,5.3-4.4,7.7-7c3.5-3.8-1.7-8.7-5.6-5.6c-2.6,2.1-5,4.3-7.3,6.6c-3.7,2.8-7.7,5.2-11.9,7.2c4.1-5.4,9.4-10.1,15.1-13.8
		c2.1-1.3,4.2-2.6,6.3-3.9c4.3-2.7,0.5-9.3-4-6.8c-2.4,1.3-4.7,2.8-7,4.3c-8.8,5.4-17.7,10.4-27.8,12.8c4.9-7.4,14.9-14.6,24.1-18.8
		c4.3-1.4,8.6-2.8,13-3.9c4.2-1,3.5-8.3-1.1-7.8c-0.3,0-0.7,0.1-1,0.2c0,0,0,0,0,0c-0.1,0-0.1,0-0.2,0.1c-4.2,0.6-8.9,2.1-13.8,4.2
		c-9.8,3.4-19.4,7.3-29.7,9c6.7-10.6,24.9-15.6,38.2-16.6c2.4-0.1,4.7-0.2,7.1-0.2c5.1,0,5.1-7.7,0-7.9c-3.3-0.1-7.1,0-11.1,0.5
		c-8.8,0.7-17.4,1.8-26.2,1.1c11.8-6.5,28.5-4.9,41.2-7.8c4.3-1,3.4-7.9-1.1-7.8c-0.5,0-0.9,0-1.4,0.1c4.9-0.1,4.9-7.8-0.2-7.9
		c-14.5-0.4-28.4-2.4-41.5,5c-2.6,1.5-2.5,5.3,0,6.8c1.4,0.9,2.9,1.6,4.5,2.2c-5.2,1.8-10,4.6-13.9,9c-1.9,2.1-1.3,5.9,1.7,6.6
		c2.8,0.7,5.5,1.1,8.3,1.3c-8,4.5-14.1,10.8-15.8,19.2c-0.5,2.3,1.1,5.2,3.8,5c4.5-0.3,8.8-1.1,13-2.1c-4.3,4.5-7.5,9.5-8.6,14.5
		c-0.5,2.3,1.1,5.3,3.8,5c5.7-0.6,10.9-2,16-3.9c-1.9,2.9-3.6,6-4.8,9.2c-1.1,2.7,2.2,5.9,4.9,4.9c1.9-0.7,3.8-1.5,5.6-2.2
		c-0.1,0.1-0.1,0.2-0.2,0.2c-2,2.7,1.3,7,4.5,5.8c4-1.5,7.8-3.3,11.4-5.4c-0.9,2.1-1.7,4.2-2.3,6.5c-0.9,3.6,2.7,5.8,5.8,4.5
		c6.2-2.6,11.5-6.4,16.1-10.8c-0.3,2.4-0.4,4.8-0.3,7.4c0.1,2.7,3.4,5.4,6,3.4c4.7-3.6,8.3-7.5,11.6-11.8c0,2.2,0,4.3,0,6.5
		c0,5.1,7.9,5.1,7.9,0c0-6.4,0-12.8,0.1-19.2C855.9,686.4,850.5,685.3,848.5,688.5z M817.9,630.5c-8.9,0.5-19.2,2.3-28.3,0.5
		C798.8,629,808.5,630.3,817.9,630.5z"/>
	<path class="st3" d="M1155.8,1041.1c7-9.9,12.6-23.6,2.6-32.1c-10.6-9.1-23,1.4-31,10.9c-6.6-13.4-24.8-27.2-37.5-15.3
		c-10.2,9.6-4.1,25.6,4.5,35.9c-13.8,2-30.3,9.8-25.6,25.1c4.7,15.2,25.3,11.3,38.6,7.9c0.2,10.6,4.5,23,17.4,20.5
		c12.2-2.4,15.2-14.8,14.5-25.8c12.5,4.6,28.6,3.7,34-10.5C1178.5,1044.1,1166.7,1040.8,1155.8,1041.1z M1163.6,1058.2
		c-7.3,8.4-19.5,4.7-27.4-0.3c-3-1.9-6.6,1.2-5.8,4.5c1.7,6.6,3.4,20.3-5.6,23.2c-10.4,3.4-10-11-9.3-17.3c0.3-2.6-2.7-4.4-5-3.8
		c-7.6,2-20.5,6.8-28.1,3.5c-10.7-4.6-2.3-15.3,5.6-18.1c5-1.8,10.5-2.3,15.7-1.9c4.2,0.3,4.9-5.3,2-7.4c-3.2-2.2-5.6-5.3-7.7-8.5
		c-4.9-7.5-5.9-10-1.2-17.6c1.5-6.9,5.2-8.3,11-4.2c2.3,1.2,4.4,2.7,6.2,4.6c3.8,3.6,6.5,7.6,7.7,12.7c-1.5,3.8,4.6,7,7.3,3.1
		c4-5.7,19-25.7,25.9-12.8c4.4,8.2-6.6,20.6-11.3,25.6c-2.7,2.9,0,7.6,3.8,6.6C1153.8,1048.5,1173.8,1046.5,1163.6,1058.2z"/>
	<path class="st3" d="M1227.4,1080.6c-5.3-7.7-14.3-5.4-21.6-1.2c-5.8-5.4-15.2-8.9-21.4-2c-3.9,4.3-3.3,8.9-0.7,12.7
		c-6.9,1.4-12.7,5.8-11.8,14.3c1.2,11.8,13.6,4.4,20.2,5.9c7.1,1.7,13.8,12.6,21.7,10.9c9.7-2.1,7.8-13.2,3.9-20.4
		C1225.3,1096.8,1233.2,1089.2,1227.4,1080.6z M1210.7,1095.5c-2.8,1-3.9,4.4-1.7,6.6c2.2,2.2,4.1,5.5,4.1,8.7
		c0,4.1-1.3,2.3-3.9,0.8c-4.3-2.5-8.5-6-13.1-8c-4.4-1.9-8.5-0.5-13,0c-3.4,0.4-4.9,0.8-2.2-3.2c2.6-3.7,8.4-3.3,12.4-2.5
		c4.2,0.9,7.3-5.1,3-7.2c-2.7-1.4-9.4-4.9-5.4-8.4c2.5-2.2,5.8-0.3,8.4,1.9c-0.4,0.4-0.8,0.7-1.2,1.1c-3.8,3.5,1.9,9,5.6,5.6
		c2.8-2.6,12.8-11.1,17-6C1224.6,1089.6,1213.4,1094.5,1210.7,1095.5z"/>
	<path class="st3" d="M795.8,1144.5c-13.7-1.6-26.8-6-40.2-9c-4.3-1-6.1,5.6-1.8,6.6c14,3.2,27.7,7.6,42,9.3
		C800.2,1151.9,800.2,1145,795.8,1144.5z"/>
	<path class="st3" d="M787.5,1125.4c-13.2-6.6-28-8.7-41.8-14c-3.3-1.3-4.7,4-1.5,5.3c13.3,5.1,27.7,7,40.5,13.4
		C787.9,1131.8,790.6,1127,787.5,1125.4z"/>
	<path class="st3" d="M762.3,1085.8c-9.6,0-19.1,0.3-28.5-1.7c-3.4-0.7-4.9,4.5-1.5,5.3c9.9,2.1,19.9,2,30,1.9
		C765.9,1091.2,765.9,1085.8,762.3,1085.8z"/>
	<path class="st3" d="M813.3,1069.4c-5.4-1.9-10.9-3.3-16.5-4.6c-3.4-0.8-4.9,4.5-1.5,5.3c5.6,1.3,11.1,2.7,16.5,4.6
		C815.2,1075.9,816.6,1070.6,813.3,1069.4z"/>
	<path class="st3" d="M707.9,1130c-6.7-3.9-14-6.9-20-11.9c-2.7-2.2-6.6,1.6-3.9,3.9c6.4,5.4,13.9,8.6,21.1,12.8
		C708.2,1136.5,711,1131.8,707.9,1130z"/>
	<path class="st3" d="M705.9,1109.2c-5.5-1-10.1-3.5-13.9-7.5c-2.4-2.6-6.3,1.3-3.9,3.9c4.4,4.7,10,7.8,16.3,8.9
		C707.9,1115.1,709.4,1109.8,705.9,1109.2z"/>
	<path class="st3" d="M850.5,1125.9c-6.7,3.8-14,6.2-19.8,11.4c-2.6,2.4,1.3,6.2,3.9,3.9c5.4-4.8,12.4-7,18.6-10.5
		C856.4,1128.9,853.6,1124.2,850.5,1125.9z"/>
	<path class="st3" d="M821,1113.3c-5.6,1.3-10.5,3.9-14.9,7.6c-2.7,2.2,1.2,6.1,3.9,3.9c3.7-3,7.9-5,12.5-6.2
		C825.9,1117.8,824.5,1112.5,821,1113.3z"/>
	<path class="st3" d="M803.9,1106.3h-16.5c-3.5,0-3.5,5.5,0,5.5h16.5C807.4,1111.8,807.5,1106.3,803.9,1106.3z"/>
	<path class="st3" d="M876,1105.8c-0.9,0.9-1.8,1.8-2.7,2.7c-2.5,2.5,1.4,6.4,3.9,3.9l2.7-2.7C882.4,1107.1,878.5,1103.3,876,1105.8
		z"/>
	<path class="st3" d="M695,1081.8c-7.7-2.8-15.6-5-22.7-9.3c-3-1.8-5.8,2.9-2.8,4.7c7.5,4.5,15.8,6.9,24,9.9
		C696.8,1088.3,698.2,1083,695,1081.8z"/>
	<path class="st3" d="M858.8,768.9c-6,4.3-12.2,8.5-18.3,12.8c-2.9,2-0.1,6.8,2.8,4.7c6.1-4.3,12.2-8.5,18.3-12.8
		C864.4,771.6,861.6,766.9,858.8,768.9z"/>
	<path class="st3" d="M846.6,801.6c-6.7,1.2-13.4,2.7-20.1,3.7c-3.5,0.5-2,5.8,1.5,5.3c6.8-1,13.4-2.5,20.1-3.7
		C851.5,806.2,850.1,801,846.6,801.6z"/>
	<path class="st3" d="M800.5,796.1c-7.3-3-14.8-4.2-22.7-3.8c-3.5,0.2-3.5,5.7,0,5.5c7.4-0.4,14.4,0.7,21.2,3.6
		C802.3,802.7,803.7,797.4,800.5,796.1z"/>
	<path class="st3" d="M873.4,790.9c-3.7,2.8-7.8,5.3-12.1,7c-3.2,1.3-1.8,6.6,1.5,5.3c4.8-1.9,9.3-4.4,13.5-7.6
		C878.9,793.5,876.2,788.7,873.4,790.9z"/>
	<path class="st3" d="M823.5,776.7c-3.1,2.8-6.6,5.1-10.4,6.9c-3.2,1.5-0.4,6.3,2.8,4.7c4.2-2,8-4.6,11.5-7.7
		C830,778.2,826.1,774.3,823.5,776.7z"/>
	<path class="st3" d="M827.1,826c-10.9,8.5-22.1,15.3-35.4,19.4c-3.4,1-1.9,6.3,1.5,5.3c14.2-4.4,26.1-11.7,37.8-20.8
		C833.8,827.8,829.9,823.9,827.1,826z"/>
	<path class="st3" d="M676.2,761.3c-8.7-2.7-15.1-8.9-20.7-15.7c-2.3-2.7-6.1,1.2-3.9,3.9c6.3,7.6,13.5,14.2,23.1,17.2
		C678.1,767.7,679.6,762.4,676.2,761.3z"/>
	<path class="st3" d="M676.9,794.5c-9.1-4.2-16.4-10.6-23.2-17.9c-2.4-2.6-6.3,1.3-3.9,3.9c7.1,7.6,14.8,14.3,24.3,18.7
		C677.3,800.7,680.1,796,676.9,794.5z"/>
	<path class="st3" d="M663.2,735.2c-2.1-3.9-3.8-7.9-5.2-12.1c-1.1-3.3-6.4-1.9-5.3,1.5c1.6,4.6,3.5,9.1,5.8,13.5
		C660.2,741.1,664.9,738.3,663.2,735.2z"/>
	<path class="st3" d="M677.4,789.5c-1.8-1.8-3.7-3.7-5.5-5.5c-2.5-2.5-6.4,1.4-3.9,3.9l5.5,5.5C676,795.9,679.9,792,677.4,789.5z"/>
	<path class="st3" d="M937.8,1019.9c-0.1-3.5-5.6-3.5-5.5,0c0.3,14.6,5,28.5,7.4,42.8c0.6,3.5,5.9,2,5.3-1.5
		C942.7,1047.4,938.1,1034.1,937.8,1019.9z"/>
</g>
</svg>
