<?xml version="1.0" encoding="utf-8"?>
<!-- Generator: Adobe Illustrator 21.0.2, SVG Export Plug-In . SVG Version: 6.00 Build 0)  -->
<svg version="1.1" id="Слой_1" xmlns="http://www.w3.org/2000/svg" xmlns:xlink="http://www.w3.org/1999/xlink" x="0px" y="0px"
	 viewBox="0 0 2500 2000" style="enable-background:new 0 0 2500 2000;" xml:space="preserve">
<style type="text/css">
	.st0{fill:#FDAF40;}
	.st1{fill:#FEEA3B;}
	.st2{fill:#FFFFFF;}
	.st3{fill:#FFF5A9;}
	.st4{fill:#00E80B;}
	.st5{fill:#6EE4FF;}
	.st6{fill:#28CAFF;}
	.st7{fill:#00FF12;}
	.st8{fill:#F249F2;}
	.st9{fill:#FF64F7;}
	.st10{fill:#7C2900;}
	.st11{fill:#5B1C00;}
	.st12{fill:#212121;}
	.st13{fill:#383838;}
	.st14{fill:#878787;}
	.st15{fill:#D80919;}
	.st16{fill:#EE1D25;}
</style>
<g id="Coin">
	<polygon class="st0" points="1550.3,708.2 1550.3,596.1 1456.8,596.1 1456.8,577.4 1456.8,558.7 1438.1,558.7 1438.1,577.4 
		1419.5,577.4 1419.5,596.1 1400.8,596.1 1400.8,614.8 1400.8,633.4 1400.8,652.1 1400.8,670.8 1400.8,689.5 1419.5,689.5 
		1419.5,726.9 1456.8,726.9 1456.8,745.6 1475.5,745.6 1494.2,745.6 1512.9,745.6 1531.6,745.6 1531.6,726.9 1550.3,726.9 
		1569,726.9 1569,708.2 	"/>
	<polygon class="st1" points="1569,577.4 1550.3,577.4 1550.3,558.7 1531.6,558.7 1512.9,558.7 1494.2,558.7 1475.5,558.7 
		1456.8,558.7 1456.8,577.4 1438.1,577.4 1438.1,596.1 1419.5,596.1 1419.5,614.8 1419.5,633.4 1419.5,652.1 1419.5,670.8 
		1419.5,689.5 1438.1,689.5 1438.1,708.2 1456.8,708.2 1456.8,726.9 1475.5,726.9 1494.2,726.9 1512.9,726.9 1531.6,726.9 
		1550.3,726.9 1550.3,708.2 1569,708.2 1569,689.5 1587.7,689.5 1587.7,670.8 1587.7,652.1 1587.7,633.4 1587.7,614.8 1587.7,596.1 
		1569,596.1 	"/>
	<rect x="1494.2" y="633.4" class="st2" width="18.7" height="18.7"/>
	<rect x="1512.9" y="614.8" class="st2" width="18.7" height="18.7"/>
	<rect x="1475.5" y="652.1" class="st2" width="18.7" height="18.7"/>
	<g>
		<rect x="1531.6" y="596.1" class="st3" width="18.7" height="18.7"/>
		<polygon class="st3" points="1550.3,614.8 1550.3,633.4 1550.3,652.1 1550.3,670.8 1569,670.8 1569,652.1 1569,633.4 1569,614.8 
					"/>
		<rect x="1531.6" y="670.8" class="st3" width="18.7" height="18.7"/>
		<polygon class="st3" points="1494.2,689.5 1475.5,689.5 1475.5,708.2 1494.2,708.2 1512.9,708.2 1531.6,708.2 1531.6,689.5 
			1512.9,689.5 		"/>
		<rect x="1456.8" y="670.8" class="st3" width="18.7" height="18.7"/>
		<polygon class="st3" points="1456.8,633.4 1456.8,614.8 1438.1,614.8 1438.1,633.4 1438.1,652.1 1438.1,670.8 1456.8,670.8 
			1456.8,652.1 		"/>
		<rect x="1456.8" y="596.1" class="st3" width="18.7" height="18.7"/>
		<polygon class="st3" points="1512.9,596.1 1531.6,596.1 1531.6,577.4 1512.9,577.4 1494.2,577.4 1475.5,577.4 1475.5,596.1 
			1494.2,596.1 		"/>
	</g>
</g>
<g id="Liquid">
	<rect x="1129.2" y="1387.6" class="st4" width="18.7" height="18.7"/>
	<rect x="1147.9" y="1387.6" class="st4" width="18.7" height="18.7"/>
	<rect x="1129.2" y="1238.1" class="st5" width="18.7" height="18.7"/>
	<rect x="1147.9" y="1238.1" class="st5" width="18.7" height="18.7"/>
	<rect x="1166.6" y="1238.1" class="st5" width="18.7" height="18.7"/>
	<rect x="1185.3" y="1238.1" class="st5" width="18.7" height="18.7"/>
	<rect x="1129.2" y="1219.4" class="st5" width="18.7" height="18.7"/>
	<rect x="1147.9" y="1219.4" class="st5" width="18.7" height="18.7"/>
	<rect x="1166.6" y="1219.4" class="st5" width="18.7" height="18.7"/>
	<rect x="1185.3" y="1219.4" class="st5" width="18.7" height="18.7"/>
	<rect x="1129.2" y="1200.7" class="st5" width="18.7" height="18.7"/>
	<rect x="1147.9" y="1200.7" class="st5" width="18.7" height="18.7"/>
	<rect x="1166.6" y="1200.7" class="st5" width="18.7" height="18.7"/>
	<rect x="1185.3" y="1200.7" class="st5" width="18.7" height="18.7"/>
	<rect x="1129.2" y="1182" class="st6" width="18.7" height="18.7"/>
	<rect x="1147.9" y="1182" class="st5" width="18.7" height="18.7"/>
	<rect x="1166.6" y="1182" class="st5" width="18.7" height="18.7"/>
	<rect x="1185.3" y="1182" class="st5" width="18.7" height="18.7"/>
	<rect x="1129.2" y="1163.4" class="st6" width="18.7" height="18.7"/>
	<rect x="1147.9" y="1163.4" class="st6" width="18.7" height="18.7"/>
	<rect x="1166.6" y="1163.4" class="st5" width="18.7" height="18.7"/>
	<rect x="1185.3" y="1163.4" class="st6" width="18.7" height="18.7"/>
	<rect x="1129.2" y="1144.7" class="st5" width="18.7" height="18.7"/>
	<rect x="1110.5" y="1144.7" class="st5" width="18.7" height="18.7"/>
	<rect x="1147.9" y="1144.7" class="st5" width="18.7" height="18.7"/>
	<rect x="1166.6" y="1144.7" class="st5" width="18.7" height="18.7"/>
	<rect x="1185.3" y="1144.7" class="st5" width="18.7" height="18.7"/>
	<rect x="1203.9" y="1144.7" class="st5" width="18.7" height="18.7"/>
	<rect x="1222.6" y="1275.5" class="st5" width="18.7" height="18.7"/>
	<rect x="1091.8" y="1275.5" class="st5" width="18.7" height="18.7"/>
	<polygon class="st7" points="1222.6,1312.9 1222.6,1256.8 1110.5,1256.8 1110.5,1294.2 1091.8,1294.2 1091.8,1312.9 1091.8,1331.6 
		1091.8,1350.3 1091.8,1369 1110.5,1369 1110.5,1387.6 1166.6,1387.6 1166.6,1406.3 1185.3,1406.3 1203.9,1406.3 1203.9,1387.6 
		1222.6,1387.6 1222.6,1369 1241.3,1369 1241.3,1350.3 1241.3,1331.6 1241.3,1312.9 	"/>
	<rect x="1110.5" y="1256.8" class="st5" width="112.1" height="37.4"/>
	<rect x="1185.3" y="1275.5" class="st2" width="18.7" height="18.7"/>
	<rect x="1167.4" y="1238.9" class="st2" width="18.7" height="18.7"/>
	<rect x="1167.4" y="1220.2" class="st2" width="18.7" height="18.7"/>
	<rect x="1203.9" y="1294.2" class="st2" width="18.7" height="18.7"/>
	<rect x="1185.3" y="1312.9" class="st2" width="18.7" height="18.7"/>
	<rect x="1147.9" y="1294.2" class="st5" width="18.7" height="18.7"/>
	<rect x="1166.6" y="1294.2" class="st2" width="18.7" height="18.7"/>
	<rect x="1185.3" y="1294.2" class="st5" width="18.7" height="18.7"/>
	<rect x="1222.6" y="1294.2" class="st5" width="18.7" height="18.7"/>
	<rect x="1110.5" y="1369" class="st4" width="18.7" height="18.7"/>
</g>
<g id="Heart">
	<rect x="1499.6" y="1238.1" class="st8" width="18.7" height="18.7"/>
	<rect x="1462.2" y="1369" class="st8" width="18.7" height="18.7"/>
	<rect x="1443.5" y="1350.3" class="st8" width="18.7" height="18.7"/>
	<rect x="1480.9" y="1387.6" class="st8" width="18.7" height="18.7"/>
	<rect x="1555.6" y="1275.5" class="st2" width="18.7" height="18.7"/>
	<rect x="1536.9" y="1256.8" class="st2" width="18.7" height="18.7"/>
	<path class="st9" d="M1574.3,1256.8v-18.7h-18.7v-18.7h-18.7h-18.7v18.7v18.7h-37.4v-18.7h-18.7v-18.7h-18.7h-18.7v18.7h-18.7v18.7
		h-18.7v18.7v18.7v18.7h18.7v18.7h18.7v18.7h37.4v18.7h18.7v18.7h18.7h18.7V1369h18.7v-18.7h18.7v-18.7h18.7v-18.7h18.7v-18.7v-18.7
		v-18.7H1574.3z M1574.3,1294.2h-18.7v-18.7h18.7V1294.2z"/>
</g>
<g id="Sword">
	<rect x="919.5" y="869.8" class="st2" width="18.7" height="18.7"/>
	<rect x="919.5" y="851.1" class="st2" width="18.7" height="18.7"/>
	<rect x="807.4" y="982" class="st10" width="18.7" height="18.7"/>
	<rect x="788.7" y="1000.6" class="st10" width="18.7" height="18.7"/>
	<rect x="770" y="1019.3" class="st10" width="18.7" height="18.7"/>
	<rect x="788.7" y="982" class="st10" width="18.7" height="18.7"/>
	<rect x="770" y="1000.6" class="st10" width="18.7" height="18.7"/>
	<rect x="751.3" y="1019.3" class="st10" width="18.7" height="18.7"/>
	<rect x="732.6" y="1019.3" class="st10" width="18.7" height="18.7"/>
	<rect x="732.6" y="1038" class="st10" width="18.7" height="18.7"/>
	<rect x="732.6" y="1056.7" class="st10" width="18.7" height="18.7"/>
	<rect x="788.7" y="963.3" class="st10" width="18.7" height="18.7"/>
	<rect x="770" y="944.6" class="st10" width="18.7" height="18.7"/>
	<rect x="826.1" y="1000.6" class="st10" width="18.7" height="18.7"/>
	<rect x="844.8" y="1019.3" class="st10" width="18.7" height="18.7"/>
	<g>
		<polygon class="st5" points="994.3,795 975.6,795 975.6,813.7 975.6,832.4 994.3,832.4 994.3,813.7 1013,813.7 1013,795 		"/>
		<rect x="844.8" y="944.6" class="st5" width="18.7" height="18.7"/>
		<rect x="826.1" y="963.3" class="st5" width="18.7" height="18.7"/>
		<rect x="863.4" y="925.9" class="st5" width="18.7" height="18.7"/>
		<polygon class="st5" points="956.9,813.7 938.2,813.7 938.2,832.4 938.2,851.1 938.2,869.8 938.2,888.5 956.9,888.5 956.9,869.8 
			956.9,851.1 975.6,851.1 975.6,832.4 956.9,832.4 		"/>
		<polygon class="st5" points="900.8,869.8 900.8,888.5 900.8,907.2 882.1,907.2 882.1,925.9 900.8,925.9 900.8,944.6 919.5,944.6 
			919.5,925.9 919.5,907.2 919.5,888.5 919.5,869.8 919.5,851.1 900.8,851.1 		"/>
	</g>
	<g>
		<polygon class="st6" points="994.3,813.7 994.3,832.4 975.6,832.4 975.6,851.1 956.9,851.1 956.9,869.8 956.9,888.5 975.6,888.5 
			975.6,869.8 994.3,869.8 994.3,851.1 1013,851.1 1013,832.4 1013,813.7 		"/>
		<polygon class="st6" points="919.5,888.5 919.5,907.2 919.5,925.9 938.2,925.9 938.2,907.2 956.9,907.2 956.9,888.5 938.2,888.5 
					"/>
		<polygon class="st6" points="863.4,944.6 863.4,963.3 844.8,963.3 844.8,982 826.1,982 826.1,1000.6 844.8,1000.6 863.4,1000.6 
			863.4,982 882.1,982 882.1,963.3 900.8,963.3 900.8,944.6 900.8,925.9 882.1,925.9 882.1,944.6 		"/>
		<polygon class="st6" points="975.6,795 956.9,795 956.9,813.7 956.9,832.4 975.6,832.4 975.6,813.7 		"/>
		<rect x="919.5" y="832.4" class="st6" width="18.7" height="18.7"/>
		<polygon class="st6" points="882.1,888.5 863.4,888.5 863.4,907.2 844.8,907.2 844.8,925.9 826.1,925.9 826.1,944.6 807.4,944.6 
			807.4,963.3 807.4,982 826.1,982 826.1,963.3 844.8,963.3 844.8,944.6 863.4,944.6 863.4,925.9 882.1,925.9 882.1,907.2 
			900.8,907.2 900.8,888.5 900.8,869.8 882.1,869.8 		"/>
	</g>
	<rect x="751.3" y="1038" class="st7" width="18.7" height="18.7"/>
	<rect x="807.4" y="1000.6" class="st11" width="18.7" height="18.7"/>
	<rect x="788.7" y="1019.3" class="st11" width="18.7" height="18.7"/>
	<polygon class="st11" points="770,1056.7 751.3,1056.7 751.3,1075.4 770,1075.4 788.7,1075.4 788.7,1056.7 788.7,1038 770,1038 	
		"/>
</g>
<g id="Gun">
	<polygon points="990.3,1228.8 971.6,1228.8 952.9,1228.8 934.2,1228.8 915.5,1228.8 896.8,1228.8 896.8,1247.5 896.8,1266.2 
		878.1,1266.2 859.4,1266.2 840.8,1266.2 822.1,1266.2 803.4,1266.2 784.7,1266.2 766,1266.2 766,1284.8 766,1303.5 766,1322.2 
		747.3,1322.2 747.3,1340.9 747.3,1359.6 747.3,1378.3 766,1378.3 784.7,1378.3 784.7,1359.6 784.7,1340.9 784.7,1322.2 
		784.7,1303.5 784.7,1284.8 803.4,1284.8 803.4,1303.5 803.4,1322.2 822.1,1322.2 840.8,1322.2 840.8,1303.5 822.1,1303.5 
		822.1,1284.8 840.8,1284.8 840.8,1303.5 859.4,1303.5 859.4,1284.8 878.1,1284.8 896.8,1284.8 915.5,1284.8 934.2,1284.8 
		952.9,1284.8 971.6,1284.8 990.3,1284.8 1009,1284.8 1009,1266.2 1009,1247.5 1009,1228.8 	"/>
	<rect x="803.4" y="1340.9" class="st10" width="18.7" height="18.7"/>
	
		<rect x="822.1" y="1228.8" transform="matrix(-1.836970e-16 1 -1 -1.836970e-16 2069.5281 406.7071)" class="st12" width="18.7" height="18.7"/>
	
		<rect x="784.7" y="1228.8" transform="matrix(-1.836970e-16 1 -1 -1.836970e-16 2032.1466 444.0886)" class="st12" width="18.7" height="18.7"/>
	<polygon class="st11" points="803.4,1303.5 803.4,1284.8 784.7,1284.8 784.7,1303.5 784.7,1322.2 784.7,1340.9 784.7,1359.6 
		784.7,1378.3 803.4,1378.3 822.1,1378.3 822.1,1359.6 803.4,1359.6 803.4,1340.9 822.1,1340.9 822.1,1322.2 803.4,1322.2 	"/>
	<polygon class="st13" points="766,1266.2 784.7,1266.2 803.4,1266.2 822.1,1266.2 840.8,1266.2 859.4,1266.2 878.1,1266.2 
		896.8,1266.2 896.8,1247.5 896.8,1228.8 878.1,1228.8 859.4,1228.8 840.8,1228.8 840.8,1247.5 822.1,1247.5 822.1,1228.8 
		803.4,1228.8 803.4,1247.5 784.7,1247.5 784.7,1228.8 766,1228.8 747.3,1228.8 747.3,1247.5 728.6,1247.5 728.6,1266.2 
		747.3,1266.2 	"/>
</g>
<g id="Bow">
	<polygon class="st13" points="1578.2,869.6 1559.6,869.6 1559.6,888.3 1578.3,888.3 1578.3,869.7 1595.4,869.7 1596.9,869.7 
		1596.9,869.7 1596.9,888.3 1615.6,888.3 1615.6,869.7 1615.6,869.6 1615.6,851 1615.6,851 1615.6,832.3 1596.8,832.3 1578.2,832.3 
		1559.3,832.3 1559.3,851 1578.2,851 	"/>
	<rect x="1372.8" y="832.3" class="st10" width="18.7" height="18.7"/>
	
		<rect x="1559.3" y="1019.5" transform="matrix(6.123234e-17 -1 1 6.123234e-17 539.8298 2597.4551)" class="st14" width="18.7" height="18.7"/>
	<rect x="1428.8" y="832.3" class="st10" width="93.3" height="18.7"/>
	<rect x="1522.2" y="850.8" class="st10" width="18.7" height="57.6"/>
	<rect x="1522.2" y="907.1" class="st10" width="74.6" height="18.7"/>
	
		<rect x="1540.8" y="1000.6" transform="matrix(6.123234e-17 -1 1 6.123234e-17 540.1868 2560.0947)" class="st14" width="18.7" height="18.7"/>
	
		<rect x="1522.1" y="981.9" transform="matrix(6.123234e-17 -1 1 6.123234e-17 540.2578 2522.7134)" class="st14" width="18.7" height="18.7"/>
	
		<rect x="1503.5" y="963.2" transform="matrix(6.123234e-17 -1 1 6.123234e-17 540.3287 2485.3318)" class="st14" width="18.7" height="18.7"/>
	
		<rect x="1466.2" y="925.7" transform="matrix(6.123234e-17 -1 1 6.123234e-17 540.4705 2410.5688)" class="st14" width="18.7" height="18.7"/>
	
		<rect x="1447.5" y="907" transform="matrix(6.123234e-17 -1 1 6.123234e-17 540.5414 2373.1873)" class="st14" width="18.7" height="18.7"/>
	
		<rect x="1428.9" y="888.3" transform="matrix(6.123234e-17 -1 1 6.123234e-17 540.6124 2335.8059)" class="st14" width="18.7" height="18.7"/>
	
		<rect x="1410.4" y="869.7" transform="matrix(6.123234e-17 -1 1 6.123234e-17 540.6124 2298.8003)" class="st14" width="18.7" height="18.7"/>
	<rect x="1410.4" y="832.2" class="st10" width="18.7" height="18.7"/>
	
		<rect x="1587.4" y="822.8" transform="matrix(6.123234e-17 -1 1 6.123234e-17 755.1941 2438.439)" class="st14" width="18.8" height="37.6"/>
	
		<rect x="1559.4" y="832.1" transform="matrix(6.123234e-17 -1 1 6.123234e-17 727.1866 2410.4314)" class="st14" width="18.8" height="19"/>
	<rect x="1372.8" y="851" class="st11" width="37.5" height="18.7"/>
	<polygon class="st11" points="1596.7,1038.3 1578,1038.3 1578,1056.7 1578,1057 1578,1075.4 1596.7,1075.4 1615.4,1075.4 
		1615.4,1056.7 1596.7,1056.7 	"/>
	<rect x="1596.9" y="925.5" class="st11" width="18.7" height="112.8"/>
	<rect x="1484.8" y="944.4" class="st13" width="18.7" height="18.7"/>
	<polygon class="st13" points="1522.2,925.7 1540.9,925.7 1540.9,907.1 1559.5,907.1 1559.5,888.4 1540.8,888.4 1540.8,907 
		1522.2,907 1522.2,925.7 1503.5,925.7 1503.5,944.4 1522.2,944.4 	"/>
	<rect x="1466.1" y="963.1" class="st13" width="18.7" height="18.7"/>
	<rect x="1447.4" y="981.8" class="st13" width="18.7" height="18.7"/>
	<polygon class="st13" points="1409.9,1056.5 1428.6,1056.5 1428.6,1037.8 1447.3,1037.8 1447.3,1019.3 1447.3,1019.3 
		1447.3,1000.6 1409.9,1000.6 1409.9,1019.1 1409.9,1019.1 1409.9,1019.6 1391.7,1019.6 1391.7,1038.3 1409.9,1038.3 	"/>
</g>
<g id="Apple">
	<rect x="1161.2" y="907.2" class="st10" width="18.7" height="18.7"/>
	<rect x="1161.2" y="888.5" class="st10" width="18.7" height="18.7"/>
	<rect x="1161.2" y="869.8" class="st10" width="18.7" height="18.7"/>
	<rect x="1179.9" y="888.5" class="st4" width="18.7" height="18.7"/>
	<rect x="1161.2" y="851.1" class="st10" width="18.7" height="18.7"/>
	<rect x="1142.5" y="1056.7" class="st15" width="18.7" height="18.7"/>
	<rect x="1123.8" y="1056.7" class="st15" width="18.7" height="18.7"/>
	<polygon class="st7" points="1198.6,907.2 1217.3,907.2 1217.3,888.5 1236,888.5 1236,869.8 1236,851.1 1217.3,851.1 1198.6,851.1 
		1198.6,869.8 1179.9,869.8 1179.9,888.5 1198.6,888.5 	"/>
	<polygon class="st16" points="1236,925.9 1236,907.2 1217.3,907.2 1198.6,907.2 1179.9,907.2 1179.9,925.9 1161.2,925.9 
		1161.2,907.2 1142.5,907.2 1123.8,907.2 1105.1,907.2 1105.1,925.9 1086.5,925.9 1086.5,944.6 1086.5,963.3 1086.5,982 
		1086.5,1000.6 1086.5,1019.3 1086.5,1038 1105.1,1038 1105.1,1056.7 1161.2,1056.7 1161.2,1075.4 1179.9,1075.4 1198.6,1075.4 
		1217.3,1075.4 1217.3,1056.7 1236,1056.7 1236,1038 1254.7,1038 1254.7,1019.3 1254.7,1000.6 1254.7,982 1254.7,963.3 
		1254.7,944.6 1254.7,925.9 	"/>
	<rect x="1198.6" y="944.6" class="st2" width="18.7" height="18.7"/>
	<rect x="1217.3" y="963.3" class="st2" width="18.7" height="18.7"/>
</g>
<g id="Bomb">
	<polygon points="882.1,540 900.8,540 900.8,521.3 882.1,521.3 863.4,521.3 844.8,521.3 844.8,540 863.4,540 	"/>
	<polygon points="770,726.9 788.7,726.9 788.7,745.6 807.4,745.6 826.1,745.6 844.8,745.6 863.4,745.6 882.1,745.6 882.1,726.9 
		900.8,726.9 900.8,708.2 919.5,708.2 919.5,689.5 919.5,670.8 919.5,652.1 919.5,633.4 919.5,614.8 900.8,614.8 900.8,596.1 
		882.1,596.1 882.1,577.4 863.4,577.4 844.8,577.4 844.8,558.7 844.8,540 826.1,540 826.1,558.7 826.1,577.4 807.4,577.4 
		788.7,577.4 788.7,596.1 770,596.1 770,614.8 751.3,614.8 751.3,633.4 751.3,652.1 751.3,670.8 751.3,689.5 751.3,708.2 770,708.2 
			"/>
	<rect x="900.8" y="521.3" class="st16" width="18.7" height="18.7"/>
	<rect x="919.5" y="540" class="st16" width="18.7" height="18.7"/>
	<rect x="919.5" y="502.6" class="st16" width="18.7" height="18.7"/>
	<rect x="938.2" y="521.3" class="st16" width="18.7" height="18.7"/>
	<rect x="863.4" y="614.8" class="st2" width="18.7" height="18.7"/>
	<rect x="882.1" y="633.4" class="st2" width="18.7" height="18.7"/>
	<rect x="882.1" y="540" class="st0" width="18.7" height="18.7"/>
	<rect x="919.5" y="577.4" class="st0" width="18.7" height="18.7"/>
	<rect x="919.5" y="465.2" class="st0" width="18.7" height="18.7"/>
	<rect x="975.6" y="521.3" class="st0" width="18.7" height="18.7"/>
	<rect x="919.5" y="521.3" class="st1" width="18.7" height="18.7"/>
</g>
<g id="Chest">
	<rect x="1086.9" y="577.4" class="st10" width="186.1" height="149.5"/>
	<polygon class="st0" points="1273,577.4 1254.3,577.4 1254.3,596.1 1254.3,614.8 1254.3,633.4 1235.6,633.4 1216.9,633.4 
		1216.9,652.1 1198.2,652.1 1198.2,633.4 1216.9,633.4 1216.9,577.4 1198.2,577.4 1198.2,614.8 1179.5,614.8 1179.5,633.4 
		1161.6,633.4 1160.8,633.4 1142.9,633.4 1142.9,614.8 1142.9,596.1 1142.9,577.4 1105.3,577.4 1105.3,596.1 1124.2,596.1 
		1124.2,614.8 1124.2,633.4 1124.2,652.1 1142.9,652.1 1160.8,652.1 1161.6,652.1 1178.7,652.1 1178.7,670.8 1235.6,670.8 
		1235.6,652.1 1273,652.1 1273,670.8 1273,689.5 1273,708.2 1273,726.9 1291.6,726.9 1291.6,708.2 1291.6,689.5 1291.6,670.8 
		1291.6,652.1 1291.6,633.4 1291.6,614.8 1291.6,596.1 1273,596.1 	"/>
	<polygon class="st0" points="1086.7,633.4 1086.7,652.1 1086.7,670.8 1086.7,689.5 1086.7,726.9 1105.3,726.9 1105.3,689.5 
		1105.3,670.8 1105.3,652.1 1105.3,633.4 1105.3,596.1 1086.7,596.1 	"/>
	<polygon class="st11" points="1068.2,596.1 1049.5,596.1 1049.5,633.4 1049.5,652.1 1049.5,670.8 1049.5,689.5 1049.5,726.9 
		1068.2,726.9 1086.9,726.9 1086.9,689.5 1086.9,670.8 1086.9,652.1 1086.9,633.4 1086.9,577.4 1068.2,577.4 	"/>
	<polygon class="st11" points="1124,670.8 1105.3,670.8 1105.3,689.5 1123.5,689.5 1123.5,707.6 1142.2,707.6 1142.2,689 1124,689 	
		"/>
	<rect x="1198.2" y="633.4" class="st1" width="18.7" height="18.7"/>
	<rect x="1216.9" y="614.8" class="st1" width="18.7" height="18.7"/>
</g>
<g id="Frame">
	<path class="st13" d="M565.8,352.7v1246.2h1246.2V352.7H565.8z M1794,1581H583.7V370.7H1794V1581z"/>
	<polygon class="st1" points="484,521.3 502,521.3 502,294 716.6,294 716.6,276 484,276 	"/>
	<polygon class="st1" points="1870.6,1442 1870.6,1669.3 1655.9,1669.3 1655.9,1687.2 1888.6,1687.2 1888.6,1442 	"/>
</g>
</svg>
