<?xml version="1.0" encoding="utf-8"?>
<!-- Generator: Adobe Illustrator 21.0.2, SVG Export Plug-In . SVG Version: 6.00 Build 0)  -->
<svg version="1.1" id="Слой_1" xmlns="http://www.w3.org/2000/svg" xmlns:xlink="http://www.w3.org/1999/xlink" x="0px" y="0px"
	 viewBox="0 0 2500 2000" style="enable-background:new 0 0 2500 2000;" xml:space="preserve">
<style type="text/css">
	.st0{fill:#F7F6E4;}
	.st1{fill:#B23600;}
	.st2{fill:#7C2900;}
	.st3{fill:#55FF59;}
	.st4{fill:#00E80B;}
	.st5{fill:#00AF04;}
	.st6{fill:#373634;}
	.st7{fill:#FDAF40;}
	.st8{fill:#FEEA3B;}
	.st9{fill:#FFFFFF;}
	.st10{fill:#FFBD8A;}
	.st11{fill:#F4A773;}
	.st12{fill:#939393;}
	.st13{fill:#DDDDDD;}
</style>
<rect id="BG" x="349.6" y="233.1" class="st0" width="1701" height="1464.6"/>
<g id="Tree">
	<path class="st1" d="M710.8,724.8V820h-24c-3.8,0-6.8-3-6.8-6.8v-40c0-7.5-6.1-13.6-13.6-13.6h-2c-7.5,0-13.6,6.1-13.6,13.6V820
		c0,15,12.2,27.2,27.2,27.2h32.8V1120h55.3V724.8H710.8z"/>
	<path class="st2" d="M678,847.2h32.8v42.8c18.4-18.4,36.9-36.9,55.3-55.3v-110h-55.3V820h-24c-3.8,0-6.8-3-6.8-6.8v-40
		c0-7.5-6.1-13.6-13.6-13.6h-2c-7.5,0-13.6,6.1-13.6,13.6V820C650.8,835,663,847.2,678,847.2z"/>
	<path class="st3" d="M911.8,482v257.5c0,13.4-5.4,25.5-14.2,34.2c-8.8,8.8-20.9,14.2-34.2,14.2H605.9c-15.2,0-28.8-7-37.7-18
		c-6.7-8.3-10.7-18.9-10.7-30.4V482c0-11.7,4.2-22.5,11.1-30.9c8.9-10.7,22.3-17.5,37.3-17.5h257.5c12.6,0,24,4.8,32.6,12.7
		C905.8,455.2,911.8,467.9,911.8,482z"/>
	<path class="st3" d="M676.2,635.2H529.4c-27.1,0-49.2-22-49.2-49.2v-35.5c0-27.1,22-49.2,49.2-49.2h146.9c27.1,0,49.2,22,49.2,49.2
		v35.5C725.4,613.2,703.4,635.2,676.2,635.2z"/>
	<path class="st4" d="M911.8,635.1v104.5c0,26.7-21.7,48.4-48.4,48.4H748.8c-17.4-10.3-29-29.2-29-51v-42.5
		c0-32.8,26.5-59.3,59.3-59.3H911.8z"/>
	<path class="st3" d="M937.7,738.3H779.1c-17.7,0-33.6-7.8-44.5-20c-9.2-10.5-14.9-24.2-14.9-39.3v-42.6c0-15.1,5.6-28.8,14.9-39.3
		c10.9-12.3,26.8-20,44.4-20h158.6c19.1,0,36.1,9,47,23.1c7.7,10,12.4,22.6,12.4,36.2V679c0,12-3.6,23.2-9.7,32.6
		C976.7,727.7,958.5,738.3,937.7,738.3z"/>
	<path class="st4" d="M686.7,605.8v35.5c0,27.1-22,49.2-49.2,49.2h-80V556.7h80C664.7,556.7,686.7,578.7,686.7,605.8z"/>
	<path class="st3" d="M676.2,635.2H529.4c-12.1,0-23.2-4.4-31.8-11.7c-10.6-9-17.4-22.5-17.4-37.5v-35.5c0-13.6,5.5-25.9,14.4-34.8
		c8.9-8.9,21.2-14.4,34.8-14.4h146.9c6.8,0,13.3,1.4,19.1,3.9c17.6,7.5,30,24.9,30,45.3v35.5c0,15-6.8,28.5-17.4,37.5
		C699.4,630.9,688.3,635.2,676.2,635.2z"/>
</g>
<g id="Loading">
	<path class="st5" d="M1751.9,1358.5H604.7c-17.9,0-34.3-6.2-47.2-16.6c-17.1-13.8-28.1-34.9-28.1-58.7V1146h1297.8v137.2
		c0,20.8-8.4,39.6-22,53.2C1791.5,1350.1,1772.7,1358.5,1751.9,1358.5z"/>
	<rect x="585.4" y="1179.7" class="st0" width="101.3" height="145"/>
	<rect x="723.3" y="1179.7" class="st0" width="101.3" height="145"/>
	<rect x="861.1" y="1179.7" class="st0" width="101.3" height="145"/>
	<rect x="998.9" y="1179.7" class="st0" width="101.3" height="145"/>
	<rect x="1136.8" y="1179.7" class="st0" width="101.3" height="145"/>
	<rect x="1274.6" y="1179.7" class="st0" width="101.3" height="145"/>
</g>
<g id="Text_1_">
	<polygon class="st6" points="717.3,1518.6 717.3,1416.3 699.2,1416.3 699.2,1518.6 699.2,1536.7 717.3,1536.7 819.6,1536.7 
		819.6,1518.6 	"/>
	<rect x="1309.4" y="1416.3" class="st6" width="18.1" height="120.4"/>
	<path class="st6" d="M1117.4,1467.5L1117.4,1467.5v-9c0-23.3-18.9-42.1-42.1-42.1h-36.1c-23.3,0-42.1,18.9-42.1,42.1v78.2h18.1
		v-51.1h84.2v51.1h18.1v-51.1l0,0V1467.5z M1015.1,1467.5v-9c0-13.3,10.8-24.1,24.1-24.1h36.1c13.3,0,24.1,10.8,24.1,24.1v9H1015.1z
		"/>
	<path class="st6" d="M1230.9,1416.3h-60.2h-18.1v18.1v84.2v18.1h18.1h60.2c23.3,0,42.1-18.9,42.1-42.1v-36.1
		C1273,1435.2,1254.2,1416.3,1230.9,1416.3z M1255,1494.5c0,13.3-10.8,24.1-24.1,24.1h-60.2v-84.2h60.2c13.3,0,24.1,10.8,24.1,24.1
		V1494.5z"/>
	<path class="st6" d="M1657.4,1476.5c0,3.1-0.2,6.1-0.7,9c-4.3,32.7-32.4,57.8-66.3,57.8c-36.9,0-66.9-29.9-66.9-66.9
		c0-36.9,29.9-66.9,66.9-66.9c27.3,0,50.8,16.4,61.1,39.8h-21.8c-8.6-12.5-23-20.7-39.3-20.7c-26.4,0-47.7,21.4-47.7,47.8
		c0,26.4,21.4,47.8,47.7,47.8c23.3,0,42.7-16.7,46.9-38.8h-62.9v-18.1h82.2C1657.2,1470.4,1657.4,1473.4,1657.4,1476.5z"/>
	<polygon class="st6" points="1471,1416.3 1471,1509.7 1386.5,1416.4 1386.4,1416.6 1386.4,1416.3 1368.3,1416.3 1368.3,1536.7 
		1386.4,1536.7 1386.4,1443.2 1470.9,1536.5 1471,1536.4 1471,1536.7 1489,1536.7 1489,1416.3 	"/>
	<path class="st6" d="M896,1409.6c-36.9,0-66.9,29.9-66.9,66.9c0,36.9,29.9,66.9,66.9,66.9s66.9-29.9,66.9-66.9
		C962.9,1439.5,933,1409.6,896,1409.6z M896,1524.3c-26.4,0-47.8-21.4-47.8-47.8c0-26.4,21.4-47.8,47.8-47.8s47.8,21.4,47.8,47.8
		C943.8,1502.9,922.4,1524.3,896,1524.3z"/>
</g>
<g id="Coin_2">
	<path class="st7" d="M1562.4,956.5c0,43.9-8.8,79.6-41.6,80.2c-0.3,0-18.1,0-18.4,0c-33.1,0-60-35.9-60-80.2
		c0-44.3,26.9-80.2,60-80.2c0.3,0,18.1,0,18.4,0C1553.5,876.9,1562.4,912.6,1562.4,956.5z"/>
	<ellipse class="st8" cx="1520.8" cy="956.5" rx="60" ry="80.2"/>
	<path class="st7" d="M1563.2,956.5c0,27.4-16.6,49.6-37.1,49.6c-6.7,0-13-2.3-18.4-6.5c-6.3-4.9-11.4-12.1-14.6-20.8
		c-2.6-6.7-4.1-14.3-4.1-22.4c0-27.4,16.6-49.6,37.1-49.6c9.8,0,18.8,5.1,25.5,13.5c5.2,6.6,9,15.2,10.6,24.9
		C1562.9,948.8,1563.2,952.6,1563.2,956.5z"/>
	<path class="st9" d="M1562.1,945.2l-54.5,54.4c-6.3-4.9-11.4-12.1-14.6-20.8l58.5-58.5C1556.7,926.9,1560.5,935.6,1562.1,945.2z"/>
</g>
<g id="Coin_1">
	<path class="st7" d="M1789.4,956.5c0,43.9-8.8,79.6-41.6,80.2c-0.3,0-18.1,0-18.4,0c-33.1,0-60-35.9-60-80.2
		c0-44.3,26.9-80.2,60-80.2c0.3,0,18.1,0,18.4,0C1780.5,876.9,1789.4,912.6,1789.4,956.5z"/>
	<ellipse class="st8" cx="1747.8" cy="956.5" rx="60" ry="80.2"/>
	<path class="st7" d="M1790.1,956.5c0,27.4-16.6,49.6-37.1,49.6c-6.7,0-13-2.3-18.4-6.5c-6.3-4.9-11.4-12.1-14.6-20.8
		c-2.6-6.7-4.1-14.3-4.1-22.4c0-27.4,16.6-49.6,37.1-49.6c9.8,0,18.8,5.1,25.5,13.5c5.2,6.6,9,15.2,10.6,24.9
		C1789.8,948.8,1790.1,952.6,1790.1,956.5z"/>
	<path class="st9" d="M1789.1,945.2l-54.5,54.4c-6.3-4.9-11.4-12.1-14.6-20.8l58.5-58.5C1783.7,926.9,1787.5,935.6,1789.1,945.2z"/>
</g>
<g id="Grass">
	<rect x="529.4" y="1111.8" class="st4" width="1297.8" height="34.3"/>
	<rect x="789.5" y="1067.2" class="st4" width="6" height="43.4"/>
	<rect x="591.9" y="1090.1" class="st4" width="6" height="43.4"/>
	<rect x="619.7" y="1074.1" class="st4" width="6" height="43.4"/>
	<rect x="808.2" y="1077.5" class="st4" width="6" height="43.4"/>
	<rect x="994" y="1078.6" class="st4" width="6" height="43.4"/>
	<rect x="970.6" y="1090.1" class="st4" width="6" height="43.4"/>
	<rect x="1010.5" y="1090.1" class="st4" width="6" height="43.4"/>
	<rect x="1026.5" y="1074.1" class="st4" width="6" height="43.4"/>
	<rect x="1046.6" y="1085.5" class="st4" width="6" height="43.4"/>
	<rect x="1752" y="1076.7" class="st4" width="6" height="43.4"/>
	<rect x="1775.5" y="1088.1" class="st4" width="6" height="43.4"/>
	<rect x="1735.6" y="1088.1" class="st4" width="6" height="43.4"/>
	<g>
		<rect x="1642.3" y="1078.9" class="st4" width="6" height="43.4"/>
	</g>
	<rect x="1699.5" y="1083.5" class="st4" width="6" height="43.4"/>
</g>
<g>
	<g id="Leg_2">
		<path class="st6" d="M1288.1,1010.8l2-1.3c4.9-3,10.5-3.8,15.7-2.7c5.5,1.2,10.6,4.5,13.8,9.7l24.8,40.2l12.6,20.4
			c5.7,9.2,3.6,21-4.4,27.7c-0.8,0.6-1.6,1.2-2.5,1.8l-2,1.3c-0.9,0.6-1.9,1.1-2.9,1.5c-9.6,4.2-21,0.8-26.7-8.4l-12.7-20.5
			l-24.8-40.2c-2.8-4.6-3.7-9.8-2.9-14.8C1279.2,1019.7,1282.6,1014.2,1288.1,1010.8z"/>
		<path class="st6" d="M1250.5,949.6l2-1.3c3.8-2.3,8-3.4,12.1-3.2c6.9,0.3,13.5,3.9,17.4,10.2l24.8,40.2l12.6,20.4
			c4,6.5,4.2,14.4,1,20.8c-1.3,2.6-3.1,5-5.4,6.9c-0.8,0.6-1.6,1.2-2.5,1.8l-2,1.3c-0.9,0.6-1.9,1.1-2.9,1.5c-3,1.3-6.2,1.9-9.3,1.7
			c-6.9-0.3-13.5-3.8-17.4-10.1l-12.7-20.5l-24.8-40.2c-3-4.8-3.8-10.3-2.8-15.4C1241.9,958,1245.3,952.9,1250.5,949.6z"/>
		<path class="st6" d="M1305.9,1080.5l38.5-23.7l1.5-1c10.1-6.2,23.2-3.1,29.5,7l1.3,2c6.2,10.1,3.1,23.3-7,29.5l-17.1,10.6
			l-7.4,4.5c-9.6,4.2-21,0.8-26.7-8.4L1305.9,1080.5z"/>
	</g>
	<g id="Leg_1">
		<path class="st6" d="M1214.7,1048v2.3c-0.1,11.9-9.9,21.4-21.7,21.2l-47.2-0.5l-24-0.2c-10.8-0.1-19.7-8.2-21-18.5
			c-0.1-1-0.2-2-0.2-3.1v-2.3c0-1.1,0.1-2.2,0.3-3.2c0.9-5.9,4.3-11,9-14.3c3.5-2.4,7.8-3.8,12.4-3.8l24.1,0.2l47.2,0.5
			c6.9,0.1,13,3.4,16.9,8.5C1213.1,1038.5,1214.7,1043,1214.7,1048z"/>
		<path class="st6" d="M1146.2,1025.8l-0.5,45.3v1.8c-0.1,11.9-9.8,21.3-21.7,21.2h-2.3c-11.9-0.1-21.4-9.8-21.2-21.7l0.2-20.1
			l0.1-8.7c1.6-10.4,10.6-18.2,21.4-18.1L1146.2,1025.8z"/>
		<path class="st6" d="M1235.3,988.2l-21.7,67.9c-1.2,3.7-3.3,6.8-5.9,9.3c-5.5,5-13.4,7.1-21,4.6l-2.2-0.7
			c-5.6-1.8-10-5.7-12.5-10.5c-2.5-4.9-3.2-10.8-1.4-16.4l21.7-67.9c2-6.4,6.8-11.1,12.5-13.4c4.5-1.8,9.5-2.1,14.5-0.5l2.2,0.7
			c5.3,1.7,9.4,5.2,12,9.6C1236.3,976,1237.2,982.2,1235.3,988.2z"/>
	</g>
	<g id="Hand_1">
		<path class="st6" d="M1212.3,913.4l-71.3-0.7c-4.2,0-8.1-1.3-11.3-3.4c-6-3.9-10-10.6-9.9-18.3l0-2.3c0.1-6.7,3.2-12.7,8.1-16.6
			c3.7-2.9,8.4-4.7,13.5-4.6l71.3,0.7c7.3,0.1,13.7,3.8,17.5,9.4c2.4,3.5,3.7,7.7,3.7,12.2l0,2.3c-0.1,5.7-2.3,10.9-6,14.7
			C1224,910.9,1218.4,913.5,1212.3,913.4z"/>
		<path class="st6" d="M1118.2,958.5l0.7-68.9c0.1-7.3,3.6-13.7,8.9-17.8c3.9-2.9,8.7-4.7,13.9-4.6l0,0c7.3,0.1,13.7,3.6,17.8,9
			c2.9,3.9,4.6,8.7,4.6,13.9l-0.7,68.9c-0.1,6.7-3,12.6-7.6,16.7c-4,3.6-9.4,5.7-15.2,5.7h0c-5.4-0.1-10.3-2-14.2-5.2
			C1121.3,972,1118.1,965.6,1118.2,958.5z"/>
		<path class="st10" d="M1118.3,949.5l-0.1,7.6c-0.9,14.5,9,23.6,21.3,24.3c13,0.7,24-8.4,23.9-22.4l0.1-8.3c0-0.1-0.1-0.2-0.2-0.2
			l-44.8-1.2C1118.4,949.3,1118.3,949.4,1118.3,949.5z"/>
	</g>
	<g id="Hand_2">
		<path class="st6" d="M1317.7,873.1l71.3,0c7,0,13.1,3.3,17.1,8.4c2.8,3.6,4.4,8.1,4.4,13l0,2.3c0,5.6-2.2,10.7-5.7,14.6
			c-3.9,4.2-9.5,6.9-15.7,6.9l-71.3,0c-6.6,0-12.5-3-16.5-7.7c-3.1-3.7-5-8.5-5-13.7l0-2.3c0-6.9,3.3-13.1,8.3-17
			C1308.2,874.8,1312.8,873.1,1317.7,873.1z"/>
		<path class="st6" d="M1411.3,826.9l0,68.9c0,6.1-2.4,11.7-6.4,15.8c-4.1,4.2-9.8,6.8-16.2,6.8l0,0c-6.1,0-11.6-2.4-15.7-6.3
			c-4.3-4.1-6.9-9.9-6.9-16.3l0-68.9c0-6.8,3-13,7.8-17.1c4-3.4,9.1-5.5,14.8-5.5l0,0c6.2,0,11.9,2.5,16,6.6
			C1408.8,815,1411.3,820.7,1411.3,826.9z"/>
		<path class="st10" d="M1411.3,836l0-7.6c0.8-14.5-9.3-23.5-21.6-24.1c-13-0.6-23.9,8.7-23.6,22.6l0,8.3c0,0.1,0.1,0.2,0.2,0.2
			l44.8,0.7C1411.2,836.2,1411.3,836.1,1411.3,836z"/>
	</g>
	<g id="Body">
		<polygon class="st6" points="1281.9,986.5 1188.2,986.5 1224.7,871.9 1318.4,877.6 		"/>
	</g>
	<g id="Head">
		<path class="st6" d="M1318.4,826.8v50.8h-93.7v-50.8c0.1-5.5,1.6-10.6,4-15.1c5.5-9.8,16-16.5,28.1-16.5h29.4
			c12.1,0,22.6,6.7,28.1,16.5C1316.8,816.2,1318.4,821.3,1318.4,826.8z"/>
		<rect x="1252.2" y="826.8" class="st10" width="66.3" height="30.3"/>
		<rect x="1252.2" y="826.8" class="st11" width="66.3" height="18.4"/>
		<path class="st12" d="M1318.4,826.8h-93.7c0.1-5.5,1.6-10.6,4-15.1h85.6C1316.8,816.2,1318.4,821.3,1318.4,826.8z"/>
		<polygon class="st12" points="1224.7,826.8 1193.9,826.8 1175.5,845.2 1207.5,845.2 		"/>
		<polygon class="st12" points="1226.3,826.6 1208.6,801.3 1183,796.8 1201.4,823 		"/>
		<rect x="1282.5" y="811.7" class="st13" width="27.5" height="14.9"/>
	</g>
</g>
<g id="Frame">
	<rect x="1432.4" y="287.5" class="st9" width="449.9" height="437.3"/>
	<rect x="1500.6" y="403.9" class="st12" width="319.8" height="17"/>
	<rect x="1500.6" y="478.1" class="st12" width="319.8" height="17"/>
	<rect x="1500.6" y="552.2" class="st12" width="222.1" height="17"/>
</g>
</svg>
