<?xml version="1.0" encoding="utf-8"?>
<!-- Generator: Adobe Illustrator 21.0.2, SVG Export Plug-In . SVG Version: 6.00 Build 0)  -->
<svg version="1.1" id="Слой_1" xmlns="http://www.w3.org/2000/svg" xmlns:xlink="http://www.w3.org/1999/xlink" x="0px" y="0px"
	 viewBox="0 0 2500 2000" style="enable-background:new 0 0 2500 2000;" xml:space="preserve">
<style type="text/css">
	.st0{fill:#373634;}
	.st1{fill:#4C5B72;}
	.st2{fill:#7F4FFF;}
	.st3{fill:#5F37EF;}
	.st4{fill:#FFFFFF;}
	.st5{fill:#FF5548;}
	.st6{fill:#AAA7A5;}
	.st7{fill:#C5BCB7;}
	.st8{fill:#EA281F;}
</style>
<g id="Wire">
	<path class="st0" d="M969.7,1384.8l-0.2-1.9c-10.9-96.1-11.8-104-224.5-95.4c-61.2,2.5-101.7-0.9-127.2-25.3
		c-39.2-37.5-39.5-120.8-40.3-303.4c-0.1-24-0.2-49.7-0.4-77.3c-19.5,22.1-43.7,34-67.7,35.2c-35.3,1.5-61.3-21.8-64.9-58.4
		c-2.6-26.3,7.4-49.2,27.4-62.7c22.1-14.9,52.5-16,77.4-2.9c16.7,8.8,29.2,23.1,36.8,41.2c9.5-22,15.3-49.3,15.5-81.4
		c0.2-39.1-0.1-71.4-0.4-99.9c-1-85.9-1.3-121.4,17.7-139.8c15.4-14.9,39.4-14.5,84.1-12.4l-0.8,17.3c-38.7-1.8-61-2.3-71.3,7.6
		c-13.7,13.2-13.2,51.3-12.4,127.2c0.3,27.1,0.7,60.9,0.4,100.2c-0.3,44.3-10.3,80-25.9,106.8c0.9,5.8,1.3,11.8,1.4,18
		c0.2,29.1,0.3,56.2,0.5,81.3c0.8,177.6,1.1,258.6,35,291c21.1,20.2,58,22.8,114.6,20.5c221.3-8.8,230.1,2.7,242.3,110.8l0.2,1.9
		L969.7,1384.8z M512.5,801c-11.2,0-22.1,3-31,9c-14.8,10-21.9,26.5-19.8,46.6c2.8,27.7,20.6,44,46.9,42.9
		c23.7-1.1,48.2-16.3,66.2-44.1c-4.7-21.7-16.2-38.2-33.5-47.3C532.3,803.3,522.3,801,512.5,801z"/>
	<rect x="689.9" y="439.7" class="st0" width="109.6" height="126.9"/>
	<rect x="661.1" y="477.2" class="st0" width="109.6" height="51.9"/>
</g>
<g id="Screen">
	<rect x="741.9" y="306.7" class="st1" width="1051.2" height="891.8"/>
	<polygon class="st0" points="1709.4,390.5 1793.2,306.7 741.9,306.7 741.9,390.5 	"/>
	<rect x="741.9" y="390.5" class="st2" width="967.5" height="808"/>
	<g>
		<rect x="1047.2" y="1115.2" class="st3" width="27.8" height="27.8"/>
		<path class="st3" d="M1074.9,1170.7h-1.7h-26V1143h-27.8h-27.8v27.8h-27.8V1143h27.8v-27.8h-27.8v-27.8v-27.8h-27.8v-27.8v-27.8
			v-27.8h-27.8v27.8h-27.8v-27.8h27.8v-27.8h-27.8v-27.8v-27.8h-27.8v-27.8h-27.8v27.8h-27.8v27.8h-27.8v-27.8h-27.8v27.8v27.8h27.8
			h27.8v27.8v27.8v27.8h27.8h27.8h27.8h27.8v27.8h-27.8v27.8h-27.8v-27.8h-27.8v27.8v27.8h-27.8h-27.8v27.8h-27.8v27.8v27.8h27.8
			h27.8h27.8h27.8h27.8h27.8h27.8h27.8h27.8h27.8h27.8h26h1.7h26h27.8v-27.8H1101H1074.9z M825.1,1170.7V1143h27.8v-27.8h27.8v27.8
			h-27.8v27.8H825.1z"/>
		<rect x="963.9" y="1031.9" class="st3" width="27.8" height="27.8"/>
		<path class="st3" d="M1681.3,1143v-27.8h-27.8v-27.8h-27.8v27.8H1598v27.8h-27.8v27.8h27.8v27.8h27.8h27.8h27.8h27.8v-27.8V1143
			H1681.3z M1625.8,1170.7V1143h27.8v27.8H1625.8z"/>
		<rect x="880.6" y="865.4" class="st3" width="27.8" height="27.8"/>
		<rect x="741.8" y="683.2" class="st3" width="27.8" height="27.8"/>
		<rect x="769.6" y="655.4" class="st3" width="27.8" height="27.8"/>
	</g>
	<rect x="857.2" y="439.7" class="st4" width="27.8" height="27.8"/>
	<rect x="857.2" y="495.2" class="st4" width="27.8" height="27.8"/>
	<rect x="884.9" y="467.4" class="st4" width="27.8" height="27.8"/>
	<rect x="1517.3" y="390.5" class="st4" width="27.8" height="27.8"/>
	<rect x="1489.6" y="418.2" class="st4" width="27.8" height="27.8"/>
	<rect x="829.4" y="467.4" class="st4" width="27.8" height="27.8"/>
	<polygon class="st4" points="1483.2,1042.2 1455.4,1042.2 1455.4,1070 1427.7,1070 1427.7,1097.7 1455.4,1097.7 1455.4,1125.5 
		1483.2,1125.5 1483.2,1097.7 1510.9,1097.7 1510.9,1070 1483.2,1070 	"/>
</g>
<g id="Text">
	<g>
		<polygon class="st5" points="962.2,641.6 962.2,613.8 962.2,586 934.4,586 934.4,613.8 934.4,641.6 934.4,669.3 934.4,697.1 
			962.2,697.1 962.2,669.3 		"/>
		<polygon class="st5" points="1017.7,586 1045.4,586 1045.4,558.3 1017.7,558.3 989.9,558.3 962.2,558.3 962.2,586 989.9,586 		"/>
		<polygon class="st5" points="989.9,697.1 962.2,697.1 962.2,724.8 989.9,724.8 1017.7,724.8 1045.4,724.8 1045.4,697.1 
			1017.7,697.1 		"/>
		<polygon class="st5" points="1489.6,586 1517.3,586 1545.1,586 1572.9,586 1572.9,558.3 1545.1,558.3 1517.3,558.3 1489.6,558.3 
			1461.8,558.3 1434.1,558.3 1434.1,586 1434.1,613.8 1434.1,641.6 1434.1,669.3 1434.1,697.1 1434.1,724.8 1461.8,724.8 
			1489.6,724.8 1517.3,724.8 1545.1,724.8 1572.9,724.8 1572.9,697.1 1545.1,697.1 1517.3,697.1 1489.6,697.1 1461.8,697.1 
			1461.8,669.3 1461.8,641.6 1489.6,641.6 1517.3,641.6 1545.1,641.6 1545.1,613.8 1517.3,613.8 1489.6,613.8 1461.8,613.8 
			1461.8,586 		"/>
		<polygon class="st5" points="1295.3,558.3 1267.5,558.3 1267.5,586 1267.5,613.8 1267.5,641.6 1267.5,669.3 1267.5,697.1 
			1267.5,724.8 1295.3,724.8 1295.3,697.1 1295.3,669.3 1295.3,641.6 1295.3,613.8 1295.3,586 1323,586 1323,558.3 		"/>
		<polygon class="st5" points="1323,613.8 1323,641.6 1323,669.3 1323,697.1 1323,724.8 1350.8,724.8 1350.8,697.1 1350.8,669.3 
			1350.8,641.6 1350.8,613.8 1350.8,586 1323,586 		"/>
		<polygon class="st5" points="1350.8,808.1 1323,808.1 1295.3,808.1 1267.5,808.1 1267.5,835.9 1267.5,863.6 1267.5,891.4 
			1267.5,919.1 1267.5,946.9 1267.5,974.7 1295.3,974.7 1323,974.7 1350.8,974.7 1378.5,974.7 1406.3,974.7 1406.3,946.9 
			1378.5,946.9 1350.8,946.9 1323,946.9 1295.3,946.9 1295.3,919.1 1295.3,891.4 1323,891.4 1350.8,891.4 1378.5,891.4 
			1378.5,863.6 1350.8,863.6 1323,863.6 1295.3,863.6 1295.3,835.9 1323,835.9 1350.8,835.9 1378.5,835.9 1406.3,835.9 
			1406.3,808.1 1378.5,808.1 		"/>
		<rect x="1350.8" y="558.3" class="st5" width="27.8" height="27.8"/>
		<polygon class="st5" points="1378.5,613.8 1378.5,641.6 1378.5,669.3 1378.5,697.1 1378.5,724.8 1406.3,724.8 1406.3,697.1 
			1406.3,669.3 1406.3,641.6 1406.3,613.8 1406.3,586 1378.5,586 		"/>
		<polygon class="st5" points="1184.2,586 1212,586 1212,558.3 1184.2,558.3 1156.5,558.3 1128.7,558.3 1128.7,586 1156.5,586 		"/>
		<polygon class="st5" points="1212,613.8 1212,641.6 1184.2,641.6 1156.5,641.6 1128.7,641.6 1128.7,613.8 1128.7,586 1101,586 
			1101,613.8 1101,641.6 1101,669.3 1101,697.1 1101,724.8 1128.7,724.8 1128.7,697.1 1128.7,669.3 1156.5,669.3 1184.2,669.3 
			1212,669.3 1212,697.1 1212,724.8 1239.8,724.8 1239.8,697.1 1239.8,669.3 1239.8,641.6 1239.8,613.8 1239.8,586 1212,586 		"/>
		<polygon class="st5" points="1545.1,974.7 1572.9,974.7 1572.9,946.9 1572.9,919.1 1545.1,919.1 1545.1,946.9 		"/>
		<polygon class="st5" points="1489.6,891.4 1461.8,891.4 1461.8,863.6 1461.8,835.9 1489.6,835.9 1517.3,835.9 1545.1,835.9 
			1545.1,808.1 1517.3,808.1 1489.6,808.1 1461.8,808.1 1434.1,808.1 1434.1,835.9 1434.1,863.6 1434.1,891.4 1434.1,919.1 
			1434.1,946.9 1434.1,974.7 1461.8,974.7 1461.8,946.9 1461.8,919.1 1489.6,919.1 1517.3,919.1 1545.1,919.1 1545.1,891.4 
			1517.3,891.4 		"/>
		<polygon class="st5" points="1545.1,863.6 1545.1,891.4 1572.9,891.4 1572.9,863.6 1572.9,835.9 1545.1,835.9 		"/>
		<polygon class="st5" points="1212,835.9 1212,863.6 1212,891.4 1212,919.1 1212,946.9 1239.8,946.9 1239.8,919.1 1239.8,891.4 
			1239.8,863.6 1239.8,835.9 1239.8,808.1 1212,808.1 		"/>
		<polygon class="st5" points="1128.7,891.4 1128.7,863.6 1128.7,835.9 1128.7,808.1 1101,808.1 1101,835.9 1101,863.6 1101,891.4 
			1101,919.1 1101,946.9 1128.7,946.9 1128.7,919.1 		"/>
		<polygon class="st5" points="1156.5,946.9 1128.7,946.9 1128.7,974.7 1156.5,974.7 1184.2,974.7 1212,974.7 1212,946.9 
			1184.2,946.9 		"/>
		<polygon class="st5" points="1017.7,641.6 1017.7,669.3 1045.4,669.3 1045.4,697.1 1073.2,697.1 1073.2,669.3 1073.2,641.6 
			1045.4,641.6 		"/>
		<polygon class="st5" points="962.2,891.4 962.2,863.6 962.2,835.9 934.4,835.9 934.4,863.6 934.4,891.4 934.4,919.1 934.4,946.9 
			962.2,946.9 962.2,919.1 		"/>
		<polygon class="st5" points="1045.4,863.6 1045.4,891.4 1045.4,919.1 1045.4,946.9 1073.2,946.9 1073.2,919.1 1073.2,891.4 
			1073.2,863.6 1073.2,835.9 1045.4,835.9 		"/>
		<polygon class="st5" points="1017.7,835.9 1045.4,835.9 1045.4,808.1 1017.7,808.1 989.9,808.1 962.2,808.1 962.2,835.9 
			989.9,835.9 		"/>
		<polygon class="st5" points="989.9,946.9 962.2,946.9 962.2,974.7 989.9,974.7 1017.7,974.7 1045.4,974.7 1045.4,946.9 
			1017.7,946.9 		"/>
	</g>
	<polygon class="st4" points="976,627.7 976,599.9 976,572.2 948.3,572.2 948.3,599.9 948.3,627.7 948.3,655.4 948.3,683.2 
		976,683.2 976,655.4 	"/>
	<polygon class="st4" points="1031.6,572.2 1059.3,572.2 1059.3,544.4 1031.6,544.4 1003.8,544.4 976,544.4 976,572.2 1003.8,572.2 
			"/>
	<polygon class="st4" points="1003.8,683.2 976,683.2 976,711 1003.8,711 1031.6,711 1059.3,711 1059.3,683.2 1031.6,683.2 	"/>
	<polygon class="st4" points="1503.5,572.2 1531.2,572.2 1559,572.2 1586.7,572.2 1586.7,544.4 1559,544.4 1531.2,544.4 
		1503.5,544.4 1475.7,544.4 1447.9,544.4 1447.9,572.2 1447.9,599.9 1447.9,627.7 1447.9,655.4 1447.9,683.2 1447.9,711 1475.7,711 
		1503.5,711 1531.2,711 1559,711 1586.7,711 1586.7,683.2 1559,683.2 1531.2,683.2 1503.5,683.2 1475.7,683.2 1475.7,655.4 
		1475.7,627.7 1503.5,627.7 1531.2,627.7 1559,627.7 1559,599.9 1531.2,599.9 1503.5,599.9 1475.7,599.9 1475.7,572.2 	"/>
	<polygon class="st4" points="1309.2,544.4 1281.4,544.4 1281.4,572.2 1281.4,599.9 1281.4,627.7 1281.4,655.4 1281.4,683.2 
		1281.4,711 1309.2,711 1309.2,683.2 1309.2,655.4 1309.2,627.7 1309.2,599.9 1309.2,572.2 1336.9,572.2 1336.9,544.4 	"/>
	<polygon class="st4" points="1336.9,599.9 1336.9,627.7 1336.9,655.4 1336.9,683.2 1336.9,711 1364.7,711 1364.7,683.2 
		1364.7,655.4 1364.7,627.7 1364.7,599.9 1364.7,572.2 1336.9,572.2 	"/>
	<polygon class="st4" points="1364.7,794.2 1336.9,794.2 1309.2,794.2 1281.4,794.2 1281.4,822 1281.4,849.8 1281.4,877.5 
		1281.4,905.3 1281.4,933 1281.4,960.8 1309.2,960.8 1336.9,960.8 1364.7,960.8 1392.4,960.8 1420.2,960.8 1420.2,933 1392.4,933 
		1364.7,933 1336.9,933 1309.2,933 1309.2,905.3 1309.2,877.5 1336.9,877.5 1364.7,877.5 1392.4,877.5 1392.4,849.8 1364.7,849.8 
		1336.9,849.8 1309.2,849.8 1309.2,822 1336.9,822 1364.7,822 1392.4,822 1420.2,822 1420.2,794.2 1392.4,794.2 	"/>
	<rect x="1364.7" y="544.4" class="st4" width="27.8" height="27.8"/>
	<polygon class="st4" points="1392.4,599.9 1392.4,627.7 1392.4,655.4 1392.4,683.2 1392.4,711 1420.2,711 1420.2,683.2 
		1420.2,655.4 1420.2,627.7 1420.2,599.9 1420.2,572.2 1392.4,572.2 	"/>
	<polygon class="st4" points="1198.1,572.2 1225.9,572.2 1225.9,544.4 1198.1,544.4 1170.4,544.4 1142.6,544.4 1142.6,572.2 
		1170.4,572.2 	"/>
	<polygon class="st4" points="1225.9,599.9 1225.9,627.7 1198.1,627.7 1170.4,627.7 1142.6,627.7 1142.6,599.9 1142.6,572.2 
		1114.8,572.2 1114.8,599.9 1114.8,627.7 1114.8,655.4 1114.8,683.2 1114.8,711 1142.6,711 1142.6,683.2 1142.6,655.4 1170.4,655.4 
		1198.1,655.4 1225.9,655.4 1225.9,683.2 1225.9,711 1253.6,711 1253.6,683.2 1253.6,655.4 1253.6,627.7 1253.6,599.9 1253.6,572.2 
		1225.9,572.2 	"/>
	<polygon class="st4" points="1559,960.8 1586.7,960.8 1586.7,933 1586.7,905.3 1559,905.3 1559,933 	"/>
	<polygon class="st4" points="1503.5,877.5 1475.7,877.5 1475.7,849.8 1475.7,822 1503.5,822 1531.2,822 1559,822 1559,794.2 
		1531.2,794.2 1503.5,794.2 1475.7,794.2 1447.9,794.2 1447.9,822 1447.9,849.8 1447.9,877.5 1447.9,905.3 1447.9,933 1447.9,960.8 
		1475.7,960.8 1475.7,933 1475.7,905.3 1503.5,905.3 1531.2,905.3 1559,905.3 1559,877.5 1531.2,877.5 	"/>
	<polygon class="st4" points="1559,849.8 1559,877.5 1586.7,877.5 1586.7,849.8 1586.7,822 1559,822 	"/>
	<polygon class="st4" points="1225.9,822 1225.9,849.8 1225.9,877.5 1225.9,905.3 1225.9,933 1253.6,933 1253.6,905.3 1253.6,877.5 
		1253.6,849.8 1253.6,822 1253.6,794.2 1225.9,794.2 	"/>
	<polygon class="st4" points="1142.6,877.5 1142.6,849.8 1142.6,822 1142.6,794.2 1114.8,794.2 1114.8,822 1114.8,849.8 
		1114.8,877.5 1114.8,905.3 1114.8,933 1142.6,933 1142.6,905.3 	"/>
	<polygon class="st4" points="1170.4,933 1142.6,933 1142.6,960.8 1170.4,960.8 1198.1,960.8 1225.9,960.8 1225.9,933 1198.1,933 	
		"/>
	<polygon class="st4" points="1031.6,627.7 1031.6,655.4 1059.3,655.4 1059.3,683.2 1087.1,683.2 1087.1,655.4 1087.1,627.7 
		1059.3,627.7 	"/>
	<polygon class="st4" points="976,877.5 976,849.8 976,822 948.3,822 948.3,849.8 948.3,877.5 948.3,905.3 948.3,933 976,933 
		976,905.3 	"/>
	<polygon class="st4" points="1059.3,849.8 1059.3,877.5 1059.3,905.3 1059.3,933 1087.1,933 1087.1,905.3 1087.1,877.5 
		1087.1,849.8 1087.1,822 1059.3,822 	"/>
	<polygon class="st4" points="1031.6,822 1059.3,822 1059.3,794.2 1031.6,794.2 1003.8,794.2 976,794.2 976,822 1003.8,822 	"/>
	<polygon class="st4" points="1003.8,933 976,933 976,960.8 1003.8,960.8 1031.6,960.8 1059.3,960.8 1059.3,933 1031.6,933 	"/>
</g>
<g id="Gamepad">
	<polygon class="st6" points="1384.4,1683.2 666.3,1683.2 666.3,1389 715.9,1339.5 1384.4,1389 1434,1633.6 	"/>
	<rect x="715.9" y="1339.5" class="st7" width="718.1" height="294.2"/>
	<rect x="741.8" y="1359.7" class="st0" width="666.2" height="253.8"/>
	<path class="st8" d="M1196.5,1405.2c0.3-0.3,10.9-10.9,11.2-11.2c15-14.1,28.3-3.5,42.9,11.2c14.7,14.7,25.4,27.9,11.2,42.9
		c-0.2,0.3-11,11-11.2,11.2c-15,15-39.2,15-54.2,0C1181.6,1444.4,1181.6,1420.2,1196.5,1405.2z"/>
	<rect x="1175.1" y="1486.6" class="st7" width="209.8" height="100.2"/>
	<rect x="956.7" y="1500.2" class="st7" width="197.9" height="73"/>
	<rect x="956.7" y="1433.7" class="st7" width="197.9" height="25"/>
	<rect x="956.7" y="1383.9" class="st7" width="197.9" height="25"/>
	<rect x="830.1" y="1424.6" class="st7" width="54.1" height="134.1"/>
	
		<rect x="830.1" y="1424.6" transform="matrix(-1.836970e-16 1 -1 -1.836970e-16 2348.7905 634.4231)" class="st7" width="54.1" height="134.1"/>
	<path class="st0" d="M1036.1,1547.7h-48.6c-5.1,0-9.2-4.1-9.2-9.2l0,0c0-5.1,4.1-9.2,9.2-9.2h48.6c5.1,0,9.2,4.1,9.2,9.2l0,0
		C1045.4,1543.6,1041.2,1547.7,1036.1,1547.7z"/>
	<path class="st0" d="M1121.6,1547.7H1073c-5.1,0-9.2-4.1-9.2-9.2l0,0c0-5.1,4.1-9.2,9.2-9.2h48.6c5.1,0,9.2,4.1,9.2,9.2l0,0
		C1130.8,1543.6,1126.7,1547.7,1121.6,1547.7z"/>
	<circle class="st0" cx="857.2" cy="1491.6" r="19.7"/>
	
		<ellipse transform="matrix(0.7071 -0.7071 0.7071 0.7071 -643.2028 1289.3884)" class="st5" cx="1234.8" cy="1421.1" rx="38.3" ry="38.3"/>
	<path class="st8" d="M1304,1405.2c0.3-0.3,10.9-10.9,11.2-11.2c15-14.1,28.3-3.5,42.9,11.2c14.7,14.7,25.4,27.9,11.2,42.9
		c-0.2,0.3-11,11-11.2,11.2c-15,15-39.2,15-54.2,0C1289,1444.4,1289,1420.2,1304,1405.2z"/>
	
		<ellipse transform="matrix(0.7071 -0.7071 0.7071 0.7071 -611.7375 1365.3523)" class="st5" cx="1342.3" cy="1421.1" rx="38.3" ry="38.3"/>
	<path class="st8" d="M1196.5,1507.8c0.3-0.3,10.9-10.9,11.2-11.2c15-14.1,28.3-3.5,42.9,11.2c14.7,14.7,25.4,27.9,11.2,42.9
		c-0.2,0.3-11,11-11.2,11.2c-15,15-39.2,15-54.2,0S1181.6,1522.7,1196.5,1507.8z"/>
	
		<ellipse transform="matrix(0.7071 -0.7071 0.7071 0.7071 -715.6971 1319.4165)" class="st5" cx="1234.8" cy="1523.6" rx="38.3" ry="38.3"/>
	<path class="st8" d="M1304,1507.8c0.3-0.3,10.9-10.9,11.2-11.2c15-14.1,28.3-3.5,42.9,11.2c14.7,14.7,25.4,27.9,11.2,42.9
		c-0.2,0.3-11,11-11.2,11.2c-15,15-39.2,15-54.2,0S1289,1522.7,1304,1507.8z"/>
	
		<ellipse transform="matrix(0.7071 -0.7071 0.7071 0.7071 -684.2319 1395.3804)" class="st5" cx="1342.3" cy="1523.6" rx="38.3" ry="38.3"/>
</g>
</svg>
