<?xml version="1.0" encoding="utf-8"?>
<!-- Generator: Adobe Illustrator 21.0.2, SVG Export Plug-In . SVG Version: 6.00 Build 0)  -->
<svg version="1.1" id="Слой_1" xmlns="http://www.w3.org/2000/svg" xmlns:xlink="http://www.w3.org/1999/xlink" x="0px" y="0px"
	 viewBox="0 0 2500 2000" style="enable-background:new 0 0 2500 2000;" xml:space="preserve">
<style type="text/css">
	.st0{fill:#E9EEFF;}
	.st1{fill:#FFFFFF;}
	.st2{fill:#FFE428;}
	.st3{fill:#FF5548;}
	.st4{fill:#7F9BFF;}
	.st5{fill:#010001;}
	.st6{fill:#373634;}
	.st7{fill:#FFFF05;}
	.st8{fill:#FF8748;}
	.st9{fill:#59FF6D;}
	.st10{fill:#59B66D;}
</style>
<g id="Clouds">
	<g>
		<polygon class="st0" points="591.9,1244.6 537.9,1244.6 537.9,1311.2 591.9,1311.2 667,1311.2 721,1311.2 721,1244.6 721,1178 
			591.9,1178 		"/>
		<polygon class="st0" points="685.5,875.7 631.6,875.7 631.6,813.4 567.1,813.4 567.1,746.8 437.9,746.8 437.9,813.4 300.4,813.4 
			300.4,880 373.4,880 373.4,942.3 437.9,942.3 437.9,1002.2 567.1,1002.2 696.2,1002.2 696.2,942.3 727.8,942.3 727.8,933.4 
			814.6,933.4 814.6,866.8 685.5,866.8 		"/>
		<rect x="1676.6" y="856.7" class="st0" width="129.1" height="66.6"/>
		<polygon class="st0" points="1923.9,601.3 1869.9,601.3 1869.9,538 1740.8,538 1740.8,601.3 1665.7,601.3 1665.7,667.9 
			1665.7,734.5 1794.8,734.5 1859.4,734.5 1923.9,734.5 1988.5,734.5 1988.5,667.9 2053.1,667.9 2053.1,601.3 		"/>
	</g>
	<polygon class="st1" points="505.8,853 499.2,853 499.2,816.6 437.9,816.6 437.9,810.1 505.8,810.1 	"/>
	<polygon class="st1" points="473.5,900.1 466.9,900.1 466.9,849.7 546.9,849.7 546.9,856.3 473.5,856.3 	"/>
	<polygon class="st1" points="1837.8,635.6 1831.3,635.6 1831.3,601.4 1869.9,601.4 1869.9,607.9 1837.8,607.9 	"/>
	<rect x="1880.3" y="664.6" class="st1" width="43.6" height="6.5"/>
</g>
<g id="Duck">
	<path class="st2" d="M964.2,360.8v17.7h-17.7v88.6h-123v17.7h16.6v70.9h17.7v17.7h36v70.9h34.4v-17.7h-16.6v-53.2H947v70.9h34.4
		v-17.7h-16.6v-53.2h34.9v-17.7h17.7v-195H964.2z M946.4,538.1h-70.9v-35.4h70.9V538.1z"/>
	<rect x="911" y="502.6" class="st3" width="35.4" height="35.4"/>
	<rect x="875.5" y="502.6" class="st3" width="35.4" height="35.4"/>
	<rect x="1017.3" y="396.3" class="st3" width="17.7" height="17.7"/>
	<rect x="981.3" y="378.6" class="st4" width="17.7" height="17.7"/>
	<rect x="857.8" y="502.6" class="st3" width="17.7" height="17.7"/>
	<rect x="1035.1" y="396.3" class="st3" width="17.7" height="17.7"/>
</g>
<g id="Screen">
	<g id="Screen_1_">
		<rect x="687.4" y="644.4" class="st5" width="1097.3" height="859.8"/>
		<rect x="687.4" y="726.9" class="st4" width="1021.2" height="777.3"/>
		<polygon class="st6" points="1784.7,644.4 1708.6,726.9 1708.6,1504.2 1784.7,1504.2 		"/>
	</g>
	<g id="Text_2">
		<polygon class="st1" points="974.1,985.2 956.4,985.2 956.4,1002.9 956.4,1020.6 956.4,1038.3 974.1,1038.3 974.1,1020.6 
			991.8,1020.6 991.8,1002.9 974.1,1002.9 		"/>
		<polygon class="st1" points="1071.6,985.2 1089.3,985.2 1089.3,967.5 1071.6,967.5 1053.9,967.5 1053.9,985.2 1053.9,1002.9 
			1053.9,1020.6 1053.9,1038.3 1071.6,1038.3 1071.6,1020.6 1089.3,1020.6 1089.3,1002.9 1071.6,1002.9 		"/>
		<rect x="1089.3" y="985.2" class="st1" width="17.7" height="17.7"/>
		<polygon class="st1" points="1142.5,1020.6 1142.5,1002.9 1142.5,985.2 1142.5,967.5 1124.8,967.5 1124.8,985.2 1124.8,1002.9 
			1124.8,1020.6 1124.8,1038.3 1142.5,1038.3 1160.2,1038.3 1177.9,1038.3 1177.9,1020.6 1160.2,1020.6 		"/>
		<polygon class="st1" points="1231.1,1002.9 1213.4,1002.9 1213.4,985.2 1195.7,985.2 1195.7,1002.9 1195.7,1020.6 1195.7,1038.3 
			1213.4,1038.3 1213.4,1020.6 1231.1,1020.6 1231.1,1038.3 1248.8,1038.3 1248.8,1020.6 1248.8,1002.9 1248.8,985.2 1231.1,985.2 
					"/>
		<rect x="1213.4" y="967.5" class="st1" width="17.7" height="17.7"/>
		<rect x="1443.8" y="1020.6" class="st1" width="17.7" height="17.7"/>
		<polygon class="st1" points="1426.1,985.2 1443.8,985.2 1443.8,967.5 1426.1,967.5 1408.4,967.5 1408.4,985.2 1408.4,1002.9 
			1408.4,1020.6 1408.4,1038.3 1426.1,1038.3 1426.1,1020.6 1443.8,1020.6 1443.8,1002.9 1426.1,1002.9 		"/>
		<rect x="1443.8" y="985.2" class="st1" width="17.7" height="17.7"/>
		<polygon class="st1" points="1355.2,967.5 1337.5,967.5 1337.5,985.2 1337.5,1002.9 1337.5,1020.6 1337.5,1038.3 1355.2,1038.3 
			1372.9,1038.3 1390.6,1038.3 1390.6,1020.6 1372.9,1020.6 1355.2,1020.6 1355.2,1002.9 1372.9,1002.9 1390.6,1002.9 1390.6,985.2 
			1390.6,967.5 1372.9,967.5 		"/>
		<polygon class="st1" points="1071.6,1091.5 1089.3,1091.5 1089.3,1073.8 1071.6,1073.8 1053.9,1073.8 1053.9,1091.5 
			1053.9,1109.2 1053.9,1127 1053.9,1144.7 1071.6,1144.7 1071.6,1127 1089.3,1127 1089.3,1109.2 1071.6,1109.2 		"/>
		<rect x="1089.3" y="1091.5" class="st1" width="17.7" height="17.7"/>
		<polygon class="st1" points="1142.5,1127 1142.5,1109.2 1142.5,1091.5 1142.5,1073.8 1124.8,1073.8 1124.8,1091.5 1124.8,1109.2 
			1124.8,1127 1124.8,1144.7 1142.5,1144.7 1160.2,1144.7 1177.9,1144.7 1177.9,1127 1160.2,1127 		"/>
		<polygon class="st1" points="1231.1,1109.2 1213.4,1109.2 1213.4,1091.5 1195.7,1091.5 1195.7,1109.2 1195.7,1127 1195.7,1144.7 
			1213.4,1144.7 1213.4,1127 1231.1,1127 1231.1,1144.7 1248.8,1144.7 1248.8,1127 1248.8,1109.2 1248.8,1091.5 1231.1,1091.5 		"/>
		<rect x="1213.4" y="1073.8" class="st1" width="17.7" height="17.7"/>
		<polygon class="st1" points="1302,1091.5 1284.3,1091.5 1284.3,1073.8 1266.6,1073.8 1266.6,1091.5 1266.6,1109.2 1284.3,1109.2 
			1284.3,1127 1284.3,1144.7 1302,1144.7 1302,1127 1302,1109.2 1319.7,1109.2 1319.7,1091.5 1319.7,1073.8 1302,1073.8 		"/>
		<polygon class="st1" points="1302,985.2 1284.3,985.2 1284.3,967.5 1266.6,967.5 1266.6,985.2 1266.6,1002.9 1284.3,1002.9 
			1284.3,1020.6 1284.3,1038.3 1302,1038.3 1302,1020.6 1302,1002.9 1319.7,1002.9 1319.7,985.2 1319.7,967.5 1302,967.5 		"/>
		<rect x="1443.8" y="1127" class="st1" width="17.7" height="17.7"/>
		<polygon class="st1" points="1426.1,1091.5 1443.8,1091.5 1443.8,1073.8 1426.1,1073.8 1408.4,1073.8 1408.4,1091.5 
			1408.4,1109.2 1408.4,1127 1408.4,1144.7 1426.1,1144.7 1426.1,1127 1443.8,1127 1443.8,1109.2 1426.1,1109.2 		"/>
		<rect x="1443.8" y="1091.5" class="st1" width="17.7" height="17.7"/>
		<polygon class="st1" points="1355.2,1073.8 1337.5,1073.8 1337.5,1091.5 1337.5,1109.2 1337.5,1127 1337.5,1144.7 1355.2,1144.7 
			1372.9,1144.7 1390.6,1144.7 1390.6,1127 1372.9,1127 1355.2,1127 1355.2,1109.2 1372.9,1109.2 1390.6,1109.2 1390.6,1091.5 
			1390.6,1073.8 1372.9,1073.8 		"/>
		<polygon class="st1" points="1479.3,1127 1479.3,1144.7 1497,1144.7 1514.7,1144.7 1532.4,1144.7 1532.4,1127 1532.4,1109.2 
			1514.7,1109.2 1497,1109.2 1497,1127 		"/>
		<polygon class="st1" points="1514.7,1091.5 1532.4,1091.5 1532.4,1073.8 1514.7,1073.8 1497,1073.8 1479.3,1073.8 1479.3,1091.5 
			1479.3,1109.2 1497,1109.2 1497,1091.5 		"/>
	</g>
	<g id="Text_1">
		<polygon class="st7" points="832.3,785.8 814.6,785.8 814.6,803.6 814.6,821.3 814.6,839 832.3,839 850,839 850,856.7 
			832.3,856.7 814.6,856.7 814.6,874.5 832.3,874.5 850,874.5 867.8,874.5 867.8,856.7 867.8,839 867.8,821.3 850,821.3 
			832.3,821.3 832.3,803.6 850,803.6 867.8,803.6 867.8,785.8 850,785.8 		"/>
		<polygon class="st7" points="903.2,785.8 885.5,785.8 885.5,803.6 903.2,803.6 903.2,821.3 903.2,839 903.2,856.7 903.2,874.5 
			920.9,874.5 920.9,856.7 920.9,839 920.9,821.3 920.9,803.6 938.7,803.6 938.7,785.8 920.9,785.8 		"/>
		<polygon class="st7" points="1115.9,785.8 1098.2,785.8 1098.2,803.6 1115.9,803.6 1115.9,821.3 1115.9,839 1115.9,856.7 
			1115.9,874.5 1133.6,874.5 1133.6,856.7 1133.6,839 1133.6,821.3 1133.6,803.6 1151.4,803.6 1151.4,785.8 1133.6,785.8 		"/>
		<polygon class="st7" points="1257.7,785.8 1240,785.8 1222.3,785.8 1222.3,803.6 1222.3,821.3 1222.3,839 1222.3,856.7 
			1222.3,874.5 1240,874.5 1257.7,874.5 1275.4,874.5 1293.1,874.5 1293.1,856.7 1293.1,839 1293.1,821.3 1275.4,821.3 
			1257.7,821.3 1257.7,839 1275.4,839 1275.4,856.7 1257.7,856.7 1240,856.7 1240,839 1240,821.3 1240,803.6 1257.7,803.6 
			1275.4,803.6 1293.1,803.6 1293.1,785.8 1275.4,785.8 		"/>
		<polygon class="st7" points="1523.6,803.6 1541.3,803.6 1541.3,785.8 1523.6,785.8 1505.8,785.8 1488.1,785.8 1488.1,803.6 
			1488.1,821.3 1488.1,839 1488.1,856.7 1488.1,874.5 1505.8,874.5 1523.6,874.5 1541.3,874.5 1541.3,856.7 1523.6,856.7 
			1505.8,856.7 1505.8,839 1523.6,839 1541.3,839 1541.3,821.3 1523.6,821.3 1505.8,821.3 1505.8,803.6 		"/>
		<rect x="974.1" y="785.8" class="st7" width="17.7" height="17.7"/>
		<polygon class="st7" points="991.8,821.3 974.1,821.3 974.1,803.6 956.4,803.6 956.4,821.3 956.4,839 956.4,856.7 956.4,874.5 
			974.1,874.5 974.1,856.7 974.1,839 991.8,839 991.8,856.7 991.8,874.5 1009.6,874.5 1009.6,856.7 1009.6,839 1009.6,821.3 
			1009.6,803.6 991.8,803.6 		"/>
		<rect x="1328.6" y="785.8" class="st7" width="17.7" height="17.7"/>
		<polygon class="st7" points="1346.3,821.3 1328.6,821.3 1328.6,803.6 1310.9,803.6 1310.9,821.3 1310.9,839 1310.9,856.7 
			1310.9,874.5 1328.6,874.5 1328.6,856.7 1328.6,839 1346.3,839 1346.3,856.7 1346.3,874.5 1364,874.5 1364,856.7 1364,839 
			1364,821.3 1364,803.6 1346.3,803.6 		"/>
		<rect x="1399.5" y="785.8" class="st7" width="17.7" height="17.7"/>
		<polygon class="st7" points="1381.8,821.3 1381.8,839 1381.8,856.7 1381.8,874.5 1399.5,874.5 1399.5,856.7 1399.5,839 
			1399.5,821.3 1399.5,803.6 1381.8,803.6 		"/>
		<polygon class="st7" points="1417.2,821.3 1417.2,839 1417.2,856.7 1417.2,874.5 1434.9,874.5 1434.9,856.7 1434.9,839 
			1434.9,821.3 1434.9,803.6 1417.2,803.6 		"/>
		<rect x="1434.9" y="785.8" class="st7" width="17.7" height="17.7"/>
		<polygon class="st7" points="1452.7,821.3 1452.7,839 1452.7,856.7 1452.7,874.5 1470.4,874.5 1470.4,856.7 1470.4,839 
			1470.4,821.3 1470.4,803.6 1452.7,803.6 		"/>
		<polygon class="st7" points="1045,803.6 1062.7,803.6 1062.7,785.8 1045,785.8 1027.3,785.8 1027.3,803.6 1027.3,821.3 
			1027.3,839 1027.3,856.7 1027.3,874.5 1045,874.5 1045,856.7 1045,839 1062.7,839 1062.7,821.3 1045,821.3 		"/>
		<polygon class="st7" points="1062.7,874.5 1080.5,874.5 1080.5,856.7 1080.5,839 1062.7,839 1062.7,856.7 		"/>
		<rect x="1062.7" y="803.6" class="st7" width="17.7" height="17.7"/>
	</g>
	<g id="Bricks">
		<rect x="690.7" y="1436.6" class="st3" width="206.1" height="64.4"/>
		<path class="st8" d="M893.5,1439.9v57.8H693.9v-57.8H893.5 M900.1,1433.3H687.4v70.9h212.7V1433.3L900.1,1433.3z"/>
		<rect x="903.4" y="1436.6" class="st3" width="206.1" height="64.4"/>
		<path class="st8" d="M1106.2,1439.9v57.8H906.6v-57.8H1106.2 M1112.8,1433.3H900.1v70.9h212.7V1433.3L1112.8,1433.3z"/>
		<rect x="797" y="1365.7" class="st3" width="206.1" height="64.4"/>
		<path class="st8" d="M999.9,1369v57.8H800.3V1369H999.9 M1006.4,1362.4H793.7v70.9h212.7V1362.4L1006.4,1362.4z"/>
		<rect x="690.7" y="1365.7" class="st3" width="99.8" height="64.4"/>
		<path class="st8" d="M787.2,1368.9v57.9h-93.3v-57.9H787.2 M793.7,1362.4H687.4v70.9h106.3V1362.4L793.7,1362.4z"/>
		<rect x="1009.7" y="1365.7" class="st3" width="206.1" height="64.4"/>
		<path class="st8" d="M1212.6,1369v57.8H1013V1369H1212.6 M1219.1,1362.4h-212.7v70.9h212.7V1362.4L1219.1,1362.4z"/>
		<rect x="1116" y="1436.6" class="st3" width="206.1" height="64.4"/>
		<path class="st8" d="M1318.9,1439.9v57.8h-199.6v-57.8H1318.9 M1325.5,1433.3h-212.7v70.9h212.7V1433.3L1325.5,1433.3z"/>
		<rect x="1222.4" y="1365.7" class="st3" width="206.1" height="64.4"/>
		<path class="st8" d="M1425.3,1369v57.8h-199.6V1369H1425.3 M1431.8,1362.4h-212.7v70.9h212.7V1362.4L1431.8,1362.4z"/>
		<rect x="1328.7" y="1436.6" class="st3" width="206.1" height="64.4"/>
		<path class="st8" d="M1531.6,1439.9v57.8H1332v-57.8H1531.6 M1538.2,1433.3h-212.7v70.9h212.7V1433.3L1538.2,1433.3z"/>
		<rect x="1435.1" y="1365.7" class="st3" width="206.1" height="64.4"/>
		<path class="st8" d="M1638,1369v57.8h-199.6V1369H1638 M1644.5,1362.4h-212.7v70.9h212.7V1362.4L1644.5,1362.4z"/>
		<rect x="1541.4" y="1436.6" class="st3" width="163.9" height="64.3"/>
		<path class="st8" d="M1702.1,1439.9v57.8h-157.4v-57.8H1702.1 M1708.6,1433.3h-170.5v70.9h170.5V1433.3L1708.6,1433.3z"/>
		<rect x="1647.8" y="1365.7" class="st3" width="57.6" height="64.4"/>
		<path class="st8" d="M1702.1,1368.9v57.9h-51v-57.9H1702.1 M1708.6,1362.4h-64.1v70.9h64.1V1362.4L1708.6,1362.4z"/>
	</g>
	<g id="Bushes">
		<g>
			<polygon class="st9" points="829.2,1291.5 829.2,1220.6 758.3,1220.6 758.3,1291.5 687.4,1291.5 687.4,1362.4 758.3,1362.4 
				829.2,1362.4 900.1,1362.4 971,1362.4 971,1291.5 900.1,1291.5 			"/>
			<polygon class="st9" points="1573.6,1291.5 1573.6,1220.6 1502.7,1220.6 1502.7,1291.5 1431.8,1291.5 1431.8,1220.6 
				1360.9,1220.6 1290,1220.6 1290,1291.5 1219.1,1291.5 1219.1,1362.4 1290,1362.4 1360.9,1362.4 1431.8,1362.4 1502.7,1362.4 
				1573.6,1362.4 1644.5,1362.4 1644.5,1291.5 			"/>
		</g>
		<polygon class="st10" points="853.5,1322.5 825.9,1322.5 825.9,1291.5 832.5,1291.5 832.5,1316 853.5,1316 		"/>
		<polygon class="st10" points="1350.8,1322.5 1316.5,1322.5 1316.5,1294.8 1290,1294.8 1290,1288.3 1323,1288.3 1323,1316 
			1350.8,1316 		"/>
		<polygon class="st10" points="1538.2,1319.3 1499.4,1319.3 1499.4,1291.5 1506,1291.5 1506,1312.7 1538.2,1312.7 		"/>
		<rect x="1570.3" y="1291.5" class="st10" width="6.5" height="27.7"/>
		<rect x="755" y="1291.5" class="st10" width="6.5" height="27.7"/>
	</g>
</g>
</svg>
