<?xml version="1.0" encoding="utf-8"?>
<!-- Generator: Adobe Illustrator 21.0.2, SVG Export Plug-In . SVG Version: 6.00 Build 0)  -->
<svg version="1.1" id="Слой_1" xmlns="http://www.w3.org/2000/svg" xmlns:xlink="http://www.w3.org/1999/xlink" x="0px" y="0px"
	 viewBox="0 0 2500 2000" style="enable-background:new 0 0 2500 2000;" xml:space="preserve">
<style type="text/css">
	.st0{fill:url(#BG_1_);}
	.st1{fill:#000054;}
	.st2{fill:#00001C;}
	.st3{fill:#1408FF;}
	.st4{fill:#0000DD;}
	.st5{fill:#0000C4;}
	.st6{fill:#00006D;}
	.st7{fill:#000044;}
	.st8{fill:#FFFFFF;}
	.st9{fill:#96A391;}
	.st10{fill:#B8C6B3;}
	.st11{fill:#32312E;}
	.st12{fill:#373634;}
	.st13{fill:#FF8D0A;}
</style>
<linearGradient id="BG_1_" gradientUnits="userSpaceOnUse" x1="1188.7346" y1="1623.22" x2="1281.7612" y2="214.9483">
	<stop  offset="0.1935" style="stop-color:#FFFFFF"/>
	<stop  offset="1" style="stop-color:#00FF00"/>
</linearGradient>
<polygon id="BG" class="st0" points="2053,1492.6 382,1349.9 382,882.7 2048.7,546.4 "/>
<g id="Pager">
	<path class="st1" d="M745.6,1059.4l-8.9,3.7c-11.5,4.8-16.9,18-12.1,29.5l16.7,40.1l40.5-33.8L745.6,1059.4z"/>
	<path class="st2" d="M741.7,1073.6L741.7,1073.6c-9,3.8-12.4,16.1-7.6,27.6l16.7,40.1l30.6-29.6l-26.8-33.6
		C751.1,1073.6,745.9,1071.9,741.7,1073.6z"/>
	<path class="st3" d="M1472,1315.4l-534.2,223.2c-27.8,11.6-57.4,12.7-84.2,5c-36.1-10.3-67.3-36.3-82.9-73.6l-89.2-213.6
		c-13.3-31.9-12.7-66.2-1-96.1c12.2-31,36.4-57.2,69.6-71l534.2-223.2c31.1-13,64.5-12.8,93.7-1.9c32,11.9,59.2,36.5,73.4,70.5
		l89.2,213.6c10.6,25.4,12.4,52.3,6.8,77.2C1538.6,1264.5,1511.7,1298.8,1472,1315.4z"/>
	<path class="st4" d="M1502.9,1269.9c-47.8,31.9-103.2,52.4-161.2,48.5c-64.6-4.3-127.8-31.9-192.9-15.9
		c-74.2,18.3-136.4,66.7-209.2,89c-19.4,5.9-42,9.7-60.8,0.1c-15.4-7.8-24.7-23.2-31.5-38.4c-9.4-21-15.2-43.7-20.1-66.2
		c-5.1-23.3-3.9-48.4-3.8-72.7c0.2-51.7,196.9-102.5,234.6-135.5c40.9-35.8,52.8-83.3,34.3-132.7l-342.3,143
		c-65.1,27.2-95.8,102-68.6,167.1l89.2,213.6c27.2,65.1,102,95.8,167.1,68.6l534.2-223.2c35.5-14.8,60.6-43.8,71.9-77.6
		C1531.1,1249.4,1517.5,1260.2,1502.9,1269.9z"/>
	<path class="st5" d="M1333.3,1322.7l105-43.9c54.2-22.6,79.8-84.9,57.1-139.1l0,0c-4-9.7-15.1-14.2-24.8-10.2l-74.2,31
		c-24.4,10.2-43.8,29.7-53.8,54.1l-34.2,83.3C1302.1,1313.6,1317.7,1329.2,1333.3,1322.7z"/>
	<path class="st1" d="M1071.8,1066L867,1151.6c-19,7.9-39.4,7.6-57.2,0.7c-18.7-7.3-34.5-21.8-42.8-41.8l-21.4-51.2l294.7-123.1
		c14.9-6.2,30.9-5.5,44.5,0.7c12.3,5.6,22.5,15.7,28.1,29.1v0c7.3,17.6,7.6,36.3,2.1,53.1C1108.4,1039.6,1093.2,1057.1,1071.8,1066z
		"/>
	<path class="st6" d="M810.8,1058c16.5,12.2,35.3,13.7,55,10.1c44.1-7.9,82.7-31.8,125.5-43.7c28.5-7.9,79-17.5,104.3-21.8
		c8.6-1.5,13.6-10.4,10.7-18.7c-0.5-1.4-1-2.7-1.6-4.1l0,0c-11.8-28.3-44.3-41.6-72.6-29.8l-219.4,91.7c-6.7,2.8-7.8,11.8-2,16.2
		L810.8,1058z"/>
	<path class="st7" d="M1280.8,1338.7l20.2,48.3c9.9,23.8-1.3,51.1-25.1,61l-348.1,145.4c-9.2,3.8-18.6,6.2-28,7.1
		c-12.6,1.2-25.1,0-36.9-3.5c-27.2-8-50.6-27.7-62.4-55.9l-28.9-69.1l413.4-172.7C1222.4,1283.9,1265.2,1301.5,1280.8,1338.7z"/>
	<path class="st6" d="M998.9,1457.2c42-16,79.5-42.3,122.9-55.1c16.2-4.7,32.1-6.3,48.9-4.8c20.4,1.8,39.9,6.4,60.5,3.6
		c11.3-1.5,23.6-4.1,35.1-8.4c8.9-3.3,13-13.5,9.4-22.2l-4.3-10.4c-15.6-37.3-58.4-54.9-95.7-39.3l-250.1,104.5
		c-10.9,4.6-14.1,19-5.6,27.2C939.1,1471.1,971.3,1467.7,998.9,1457.2z"/>
	<path class="st8" d="M860.5,1350.7c-3.7,0-7.4-0.7-11-2.2c-7.2-2.9-12.7-8.5-15.7-15.6l-37.2-89.1c-6.2-14.7,0.8-31.7,15.6-37.9
		l522.5-218.3c7.1-3,15-3,22.2-0.1c7.2,2.9,12.7,8.5,15.7,15.6l37.2,89.1c6.2,14.7-0.8,31.7-15.6,37.9l-522.5,218.3
		C868,1349.9,864.2,1350.7,860.5,1350.7z M1345.8,991.8c-2.9,0-5.9,0.6-8.7,1.8l-522.5,218.3c-11.5,4.8-16.9,18-12.1,29.5l37.2,89.1
		c2.3,5.5,6.7,9.9,12.2,12.1c5.6,2.3,11.7,2.3,17.2-0.1l522.5-218.3c5.5-2.3,9.9-6.7,12.2-12.2c2.3-5.6,2.3-11.7-0.1-17.2
		l-37.2-89.1c-2.3-5.5-6.7-9.9-12.2-12.1C1351.6,992.4,1348.7,991.8,1345.8,991.8z"/>
	
		<rect x="856.7" y="1121.4" transform="matrix(0.9227 -0.3855 0.3855 0.9227 -365.0161 515.528)" class="st9" width="492.8" height="93.3"/>
	<path class="st10" d="M1049.8,1139.8l-51,21.3l-50.1,122.1l51-21.3C1016.3,1221.2,1033.1,1180.5,1049.8,1139.8z"/>
	<path class="st10" d="M1217.5,1069.7l-141.5,59.1l-50.1,122.1l141.5-59.1C1184.1,1151.1,1200.8,1110.4,1217.5,1069.7z"/>
	<path class="st5" d="M1041.9,1347.1l-57.9,24.2c-5.9,2.5-12.4,1.5-17.2-2c-2.5-1.8-4.6-4.4-5.9-7.5h0c-1.5-3.6-1.7-7.5-0.9-11
		c1.3-5.3,5-9.9,10.4-12.1l57.9-24.2c4.5-1.9,9.4-1.8,13.5,0c4.2,1.7,7.7,5,9.6,9.5v0c2.4,5.7,1.6,11.9-1.6,16.7
		C1047.9,1343.4,1045.2,1345.7,1041.9,1347.1z"/>
	<path class="st5" d="M1181.2,1288.9l-57.9,24.2c-4.5,1.9-9.4,1.8-13.5,0c-4.2-1.7-7.7-5-9.6-9.5l0,0c-1.3-3.2-1.7-6.6-1.1-9.8
		c1-5.8,4.8-11,10.6-13.4l57.9-24.2c6.8-2.8,14.3-1.1,19.2,3.7c1.6,1.6,3,3.6,3.9,5.8l0,0c1.9,4.5,1.8,9.4,0,13.5
		C1189,1283.4,1185.7,1287,1181.2,1288.9z"/>
	<path class="st2" d="M923.9,1528.1c1.7,4.2,1.9,9,0,13.5l-24.2,59c-12.6,1.2-25.1,0-36.9-3.5l28.3-68.9c3.8-9,14.1-13.3,23.1-9.6
		C918.8,1520.4,922.2,1523.9,923.9,1528.1z"/>
	<path class="st2" d="M1016.7,1489.3c1.7,4.2,1.9,9,0.1,13.5l-26.5,64.6l-46.2,19.3l40-97.3c3.7-9,14-13.3,23.1-9.7
		C1011.6,1481.6,1014.9,1485.1,1016.7,1489.3z"/>
	<path class="st2" d="M1109.5,1450.6c1.7,4.2,1.9,9,0,13.5l-26.5,64.6l-46.2,19.3l40-97.3c3.8-9,14.1-13.3,23.1-9.6
		C1104.4,1442.9,1107.7,1446.3,1109.5,1450.6z"/>
	<path class="st8" d="M1419.1,1260.1c-5.3,0-10.6-1-15.6-3.1c-10.1-4.2-18-12-22.3-22.1c-4.2-10.1-4.3-21.3-0.1-31.4
		c4.2-10.1,12-18,22.1-22.3c10.1-4.2,21.3-4.3,31.4-0.1c10.1,4.2,18,12,22.3,22.1c4.2,10.1,4.3,21.3,0.1,31.4
		c-4.2,10.1-12,18-22.1,22.3C1429.8,1259,1424.4,1260.1,1419.1,1260.1z M1419.1,1184.4c-4.5,0-9,0.9-13.3,2.7
		c-8.5,3.6-15.2,10.2-18.7,18.8c-3.5,8.5-3.5,17.9,0.1,26.5c3.6,8.5,10.2,15.2,18.8,18.7c8.6,3.5,17.9,3.5,26.5-0.1
		c8.5-3.6,15.2-10.2,18.7-18.8c3.5-8.5,3.5-17.9-0.1-26.5c-3.6-8.5-10.2-15.2-18.8-18.7C1428,1185.3,1423.5,1184.4,1419.1,1184.4z"
		/>
	
		<rect x="1408.5" y="1175.5" transform="matrix(0.9227 -0.3855 0.3855 0.9227 -353.9807 637.0316)" class="st8" width="6.4" height="51.5"/>
	<path class="st11" d="M892,1310.3l-38.5-92l3-1.2l457.7-191.2l38.4,92l-3,1.2L892,1310.3z M862,1221.7l33.5,80.2l448.8-187.5
		l-33.5-80.2L862,1221.7z"/>
</g>
<g>
	<path class="st12" d="M1454.8,1443.8L1454.8,1443.8c-4.6,0-8.3-3.7-8.3-8.3v-26.7c0-4.6,3.7-8.3,8.3-8.3l0,0c4.6,0,8.3,3.7,8.3,8.3
		v26.7C1463.1,1440.1,1459.4,1443.8,1454.8,1443.8z"/>
	<path class="st12" d="M1464.9,1447.4L1464.9,1447.4c0-4.6,3.7-8.3,8.3-8.3h26.7c4.6,0,8.3,3.7,8.3,8.3l0,0c0,4.6-3.7,8.3-8.3,8.3
		h-26.7C1468.6,1455.8,1464.9,1452,1464.9,1447.4z"/>
	<path class="st12" d="M1567.8,1447.4L1567.8,1447.4c0-4.6,3.7-8.3,8.3-8.3h26.7c4.6,0,8.3,3.7,8.3,8.3l0,0c0,4.6-3.7,8.3-8.3,8.3
		h-26.7C1571.6,1455.8,1567.8,1452,1567.8,1447.4z"/>
	<path class="st12" d="M1567.8,1496.1L1567.8,1496.1c0-4.6,3.7-8.3,8.3-8.3h26.7c4.6,0,8.3,3.7,8.3,8.3l0,0c0,4.6-3.7,8.3-8.3,8.3
		h-26.7C1571.6,1504.4,1567.8,1500.7,1567.8,1496.1z"/>
	<path class="st12" d="M1645.3,1496.1L1645.3,1496.1c0-4.6,3.7-8.3,8.3-8.3h26.7c4.6,0,8.3,3.7,8.3,8.3l0,0c0,4.6-3.7,8.3-8.3,8.3
		h-26.7C1649.1,1504.4,1645.3,1500.7,1645.3,1496.1z"/>
	<path class="st12" d="M1567.8,1398.7L1567.8,1398.7c0-4.6,3.7-8.3,8.3-8.3h26.7c4.6,0,8.3,3.7,8.3,8.3l0,0c0,4.6-3.7,8.3-8.3,8.3
		h-26.7C1571.6,1407.1,1567.8,1403.3,1567.8,1398.7z"/>
	<path class="st12" d="M1454.8,1494.9L1454.8,1494.9c-4.6,0-8.3-3.7-8.3-8.3v-26.7c0-4.6,3.7-8.3,8.3-8.3l0,0c4.6,0,8.3,3.7,8.3,8.3
		v26.7C1463.1,1491.2,1459.4,1494.9,1454.8,1494.9z"/>
	<path class="st12" d="M1518.8,1443.8L1518.8,1443.8c-4.6,0-8.3-3.7-8.3-8.3v-26.7c0-4.6,3.7-8.3,8.3-8.3h0c4.6,0,8.3,3.7,8.3,8.3
		v26.7C1527.2,1440.1,1523.5,1443.8,1518.8,1443.8z"/>
	<path class="st12" d="M1518.8,1494.9L1518.8,1494.9c-4.6,0-8.3-3.7-8.3-8.3v-26.7c0-4.6,3.7-8.3,8.3-8.3h0c4.6,0,8.3,3.7,8.3,8.3
		v26.7C1527.2,1491.2,1523.5,1494.9,1518.8,1494.9z"/>
	<path class="st12" d="M1635.5,1443.8L1635.5,1443.8c-4.6,0-8.3-3.7-8.3-8.3v-26.7c0-4.6,3.7-8.3,8.3-8.3l0,0c4.6,0,8.3,3.7,8.3,8.3
		v26.7C1643.8,1440.1,1640.1,1443.8,1635.5,1443.8z"/>
	<path class="st12" d="M1635.5,1494.9L1635.5,1494.9c-4.6,0-8.3-3.7-8.3-8.3v-26.7c0-4.6,3.7-8.3,8.3-8.3l0,0c4.6,0,8.3,3.7,8.3,8.3
		v26.7C1643.8,1491.2,1640.1,1494.9,1635.5,1494.9z"/>
	<path class="st12" d="M1719,1496.1L1719,1496.1c0-4.6,3.7-8.3,8.3-8.3h26.7c4.6,0,8.3,3.7,8.3,8.3l0,0c0,4.6-3.7,8.3-8.3,8.3h-26.7
		C1722.7,1504.4,1719,1500.7,1719,1496.1z"/>
	<path class="st12" d="M1709.1,1443.8L1709.1,1443.8c-4.6,0-8.3-3.7-8.3-8.3v-26.7c0-4.6,3.7-8.3,8.3-8.3l0,0c4.6,0,8.3,3.7,8.3,8.3
		v26.7C1717.5,1440.1,1713.8,1443.8,1709.1,1443.8z"/>
	<path class="st12" d="M1709.1,1494.9L1709.1,1494.9c-4.6,0-8.3-3.7-8.3-8.3v-26.7c0-4.6,3.7-8.3,8.3-8.3l0,0c4.6,0,8.3,3.7,8.3,8.3
		v26.7C1717.5,1491.2,1713.8,1494.9,1709.1,1494.9z"/>
	<path class="st12" d="M1557.7,1443.8L1557.7,1443.8c-4.6,0-8.3-3.7-8.3-8.3v-26.7c0-4.6,3.7-8.3,8.3-8.3l0,0c4.6,0,8.3,3.7,8.3,8.3
		v26.7C1566.1,1440.1,1562.3,1443.8,1557.7,1443.8z"/>
	<path class="st12" d="M1557.7,1494.9L1557.7,1494.9c-4.6,0-8.3-3.7-8.3-8.3v-26.7c0-4.6,3.7-8.3,8.3-8.3l0,0c4.6,0,8.3,3.7,8.3,8.3
		v26.7C1566.1,1491.2,1562.3,1494.9,1557.7,1494.9z"/>
	<path class="st12" d="M1795.2,1496.1L1795.2,1496.1c0-4.6,3.7-8.3,8.3-8.3h26.7c4.6,0,8.3,3.7,8.3,8.3l0,0c0,4.6-3.7,8.3-8.3,8.3
		h-26.7C1798.9,1504.4,1795.2,1500.7,1795.2,1496.1z"/>
	<path class="st12" d="M1795.2,1398.7L1795.2,1398.7c0-4.6,3.7-8.3,8.3-8.3h26.7c4.6,0,8.3,3.7,8.3,8.3l0,0c0,4.6-3.7,8.3-8.3,8.3
		h-26.7C1798.9,1407.1,1795.2,1403.3,1795.2,1398.7z"/>
	<path class="st12" d="M1785.1,1443.8L1785.1,1443.8c-4.6,0-8.3-3.7-8.3-8.3v-26.7c0-4.6,3.7-8.3,8.3-8.3h0c4.6,0,8.3,3.7,8.3,8.3
		v26.7C1793.4,1440.1,1789.7,1443.8,1785.1,1443.8z"/>
	<path class="st12" d="M1785.1,1494.9L1785.1,1494.9c-4.6,0-8.3-3.7-8.3-8.3v-26.7c0-4.6,3.7-8.3,8.3-8.3h0c4.6,0,8.3,3.7,8.3,8.3
		v26.7C1793.4,1491.2,1789.7,1494.9,1785.1,1494.9z"/>
	<path class="st12" d="M1849.3,1443.8L1849.3,1443.8c-4.6,0-8.3-3.7-8.3-8.3v-26.7c0-4.6,3.7-8.3,8.3-8.3l0,0c4.6,0,8.3,3.7,8.3,8.3
		v26.7C1857.7,1440.1,1853.9,1443.8,1849.3,1443.8z"/>
	<path class="st12" d="M1849.3,1494.9L1849.3,1494.9c-4.6,0-8.3-3.7-8.3-8.3v-26.7c0-4.6,3.7-8.3,8.3-8.3l0,0c4.6,0,8.3,3.7,8.3,8.3
		v26.7C1857.7,1491.2,1853.9,1494.9,1849.3,1494.9z"/>
</g>
<g id="Vibration">
	<path class="st12" d="M580.9,1136.1l-12.9-0.6c3.1-65.2,56.6-116.2,121.8-116.2c0.5,0,1,0,1.5,0.1l0.2,12.9l-1.2-0.1c0,0,0,0-0.1,0
		C631.5,1032.1,583.7,1077.8,580.9,1136.1z"/>
	<path class="st12" d="M624.9,1136.2l-12.8-1c3.1-40.4,37.3-72,77.7-72c0.5,0,1,0,1.5,0.1l0.1,12.9l-1-0.1c0,0,0,0-0.1,0
		C656,1076.2,627.5,1102.6,624.9,1136.2z"/>
	<path class="st12" d="M526.1,1136l-12.9-0.4c3.1-95.9,80.7-171,176.6-171l1.9,0l-0.1,12.9l-1.7,0
		C600.9,977.4,529,1047.1,526.1,1136z"/>
</g>
<g id="Message">
	<path class="st13" d="M1506.5,604.3h-381.8V336.2h381.8V604.3z M1137.6,591.4h356.1V349h-356.1V591.4z"/>
	<polygon class="st13" points="1315.6,506.5 1127,347.5 1135.3,337.7 1315.6,489.7 1496,337.7 1504.3,347.5 	"/>
	<polygon class="st13" points="1093.6,509.9 1080.8,509.9 1080.8,440.2 1053.9,440.2 1053.9,427.3 1093.6,427.3 	"/>
	
		<rect x="1066.2" y="813.5" transform="matrix(0.1552 -0.9879 0.9879 0.1552 251.433 1933.8096)" class="st13" width="380.5" height="12.9"/>
	<path class="st13" d="M1464.5,571.1L1464.5,571.1c0-4.6,3.7-8.3,8.3-8.3h0.2c4.6,0,8.3,3.7,8.3,8.3v0c0,4.6-3.7,8.3-8.3,8.3h-0.2
		C1468.3,579.4,1464.5,575.7,1464.5,571.1z"/>
	<path class="st13" d="M1438.7,544.6L1438.7,544.6c0-4.6,3.7-8.3,8.3-8.3h0.2c4.6,0,8.3,3.7,8.3,8.3l0,0c0,4.6-3.7,8.3-8.3,8.3h-0.2
		C1442.4,553,1438.7,549.3,1438.7,544.6z"/>
	<path class="st13" d="M1438.7,571.1L1438.7,571.1c0-4.6,3.7-8.3,8.3-8.3h0.2c4.6,0,8.3,3.7,8.3,8.3v0c0,4.6-3.7,8.3-8.3,8.3h-0.2
		C1442.4,579.4,1438.7,575.7,1438.7,571.1z"/>
	<path class="st13" d="M1464.5,544.6L1464.5,544.6c0-4.6,3.7-8.3,8.3-8.3h0.2c4.6,0,8.3,3.7,8.3,8.3l0,0c0,4.6-3.7,8.3-8.3,8.3h-0.2
		C1468.3,553,1464.5,549.3,1464.5,544.6z"/>
	<path class="st13" d="M1464.5,517.1L1464.5,517.1c0-4.6,3.7-8.3,8.3-8.3h0.2c4.6,0,8.3,3.7,8.3,8.3l0,0c0,4.6-3.7,8.3-8.3,8.3
		l-0.2,0C1468.3,525.4,1464.5,521.7,1464.5,517.1z"/>
	<path class="st13" d="M1464.5,490.1L1464.5,490.1c0-4.6,3.7-8.3,8.3-8.3h0.2c4.6,0,8.3,3.7,8.3,8.3l0,0c0,4.6-3.7,8.3-8.3,8.3h-0.2
		C1468.3,498.4,1464.5,494.7,1464.5,490.1z"/>
	<path class="st13" d="M1387.1,544.6L1387.1,544.6c0-4.6,3.7-8.3,8.3-8.3h0.2c4.6,0,8.3,3.7,8.3,8.3l0,0c0,4.6-3.7,8.3-8.3,8.3h-0.2
		C1390.8,553,1387.1,549.3,1387.1,544.6z"/>
	<path class="st13" d="M1412.9,571.1L1412.9,571.1c0-4.6,3.7-8.3,8.3-8.3h0.2c4.6,0,8.3,3.7,8.3,8.3v0c0,4.6-3.7,8.3-8.3,8.3h-0.2
		C1416.6,579.4,1412.9,575.7,1412.9,571.1z"/>
	<path class="st13" d="M1438.7,517.1L1438.7,517.1c0-4.6,3.7-8.3,8.3-8.3h0.2c4.6,0,8.3,3.7,8.3,8.3l0,0c0,4.6-3.7,8.3-8.3,8.3
		l-0.2,0C1442.4,525.4,1438.7,521.7,1438.7,517.1z"/>
	<path class="st13" d="M1412.9,544.6L1412.9,544.6c0-4.6,3.7-8.3,8.3-8.3h0.2c4.6,0,8.3,3.7,8.3,8.3l0,0c0,4.6-3.7,8.3-8.3,8.3h-0.2
		C1416.6,553,1412.9,549.3,1412.9,544.6z"/>
</g>
<g id="Clock">
	<path class="st13" d="M618.7,736.8c-43.8,0-79.4-35.6-79.4-79.4s35.6-79.4,79.4-79.4s79.4,35.6,79.4,79.4c0,1.7-0.1,3.3-0.1,5
		l-0.1,3.2l-2.7,1.8c-3.2,2.2-6.3,4.8-9.3,7.8c-11.7,11.7-19.1,27.3-20.7,43.8l-0.3,3.1l-2.6,1.7
		C649.4,732.3,634.3,736.8,618.7,736.8z M618.7,590.9c-36.7,0-66.5,29.9-66.5,66.5c0,36.7,29.9,66.5,66.5,66.5
		c12,0,23.8-3.2,34.1-9.4c2.5-18.3,10.9-35.3,24-48.4c2.7-2.7,5.6-5.2,8.5-7.4c0-0.4,0-0.9,0-1.3
		C685.3,620.7,655.4,590.9,618.7,590.9z"/>
	<polygon class="st13" points="656.3,663.9 612.3,663.9 612.3,618.8 625.2,618.8 625.2,651 656.3,651 	"/>
	<path class="st8" d="M772.5,853.7c-3,17.1-17.9,30-35.8,30c-18,0-32.8-12.9-35.8-30H772.5z"/>
	<path class="st13" d="M736.7,890.1c-20.8,0-38.6-14.8-42.2-35.3l-1.3-7.6h87l-1.3,7.5C775.3,875.3,757.6,890.1,736.7,890.1z
		 M709.6,860.1c4.8,10.3,15.3,17.1,27.1,17.1c11.9,0,22.3-6.9,27.1-17.1H709.6z"/>
	<path class="st8" d="M854.7,853.7h-236c6.9-15.4,20.9-28.8,39.7-38.7V726c0-2.6,0.1-5.1,0.4-7.7c1.8-18.6,10-35.2,22.5-47.7
		c3.2-3.2,6.6-6,10.2-8.6c12.7-9.1,28.3-14.4,45.1-14.4c43.2,0,78.3,35,78.3,78.3V815C833.7,824.9,847.8,838.3,854.7,853.7z"/>
	<path class="st13" d="M864.6,860.1H608.8l4.1-9.1c7-15.6,20.5-29.4,39.1-39.9V726c0-2.8,0.1-5.6,0.4-8.3
		c1.9-19.4,10.5-37.7,24.4-51.6c3.6-3.6,7.3-6.7,11.1-9.3c14.2-10.1,31.1-15.5,48.7-15.5c46.7,0,84.8,38,84.8,84.7v85.1
		c18.7,10.6,32.2,24.3,39.1,39.9L864.6,860.1z M629.7,847.3h214c-7-10.2-17.8-19.3-31.7-26.6l-3.4-1.8V726
		c0-39.6-32.2-71.8-71.9-71.8c-15,0-29.3,4.5-41.4,13.2c-3.3,2.2-6.4,4.9-9.4,7.9c-11.7,11.7-19.1,27.3-20.7,43.8
		c-0.2,2.3-0.4,4.7-0.4,7v92.8l-3.4,1.8C647.6,828,636.8,837,629.7,847.3z"/>
	<polygon class="st13" points="994.7,933 927.4,865.7 896.5,865.7 896.5,852.9 932.7,852.9 1003.8,923.9 	"/>
	<path class="st13" d="M781.6,819L781.6,819c0-4.6,3.7-8.3,8.3-8.3h0.2c4.6,0,8.3,3.7,8.3,8.3l0,0c0,4.6-3.7,8.3-8.3,8.3H790
		C785.4,827.3,781.6,823.6,781.6,819z"/>
	<path class="st13" d="M755.8,792.6L755.8,792.6c0-4.6,3.7-8.3,8.3-8.3h0.2c4.6,0,8.3,3.7,8.3,8.3v0c0,4.6-3.7,8.3-8.3,8.3h-0.2
		C759.5,800.9,755.8,797.2,755.8,792.6z"/>
	<path class="st13" d="M755.8,819L755.8,819c0-4.6,3.7-8.3,8.3-8.3h0.2c4.6,0,8.3,3.7,8.3,8.3l0,0c0,4.6-3.7,8.3-8.3,8.3h-0.2
		C759.5,827.3,755.8,823.6,755.8,819z"/>
	<path class="st13" d="M781.6,792.6L781.6,792.6c0-4.6,3.7-8.3,8.3-8.3h0.2c4.6,0,8.3,3.7,8.3,8.3v0c0,4.6-3.7,8.3-8.3,8.3H790
		C785.4,800.9,781.6,797.2,781.6,792.6z"/>
	<path class="st13" d="M781.6,765L781.6,765c0-4.6,3.7-8.3,8.3-8.3h0.2c4.6,0,8.3,3.7,8.3,8.3v0c0,4.6-3.7,8.3-8.3,8.3H790
		C785.4,773.3,781.6,769.6,781.6,765z"/>
	<path class="st13" d="M781.6,738L781.6,738c0-4.6,3.7-8.3,8.3-8.3h0.2c4.6,0,8.3,3.7,8.3,8.3l0,0c0,4.6-3.7,8.3-8.3,8.3H790
		C785.4,746.3,781.6,742.6,781.6,738z"/>
	<path class="st13" d="M730,819L730,819c0-4.6,3.7-8.3,8.3-8.3h0.2c4.6,0,8.3,3.7,8.3,8.3l0,0c0,4.6-3.7,8.3-8.3,8.3h-0.2
		C733.7,827.3,730,823.6,730,819z"/>
</g>
<g id="Info">
	<polygon class="st8" points="1912.8,920.1 1983.6,892.2 1983.6,1049.8 1912.8,1049.8 	"/>
	<path class="st13" d="M1990.1,1056.3h-83.7V915.7l83.7-33V1056.3z M1919.3,1043.4h57.9V901.6l-57.9,22.8V1043.4z"/>
	<rect x="1896.8" y="1043.4" class="st13" width="103" height="12.9"/>
	<circle class="st8" cx="1948.2" cy="837.5" r="32.2"/>
	<path class="st13" d="M1948.2,876.1c-21.3,0-38.6-17.3-38.6-38.6s17.3-38.6,38.6-38.6c21.3,0,38.6,17.3,38.6,38.6
		S1969.5,876.1,1948.2,876.1z M1948.2,811.7c-14.2,0-25.7,11.5-25.7,25.7c0,14.2,11.5,25.7,25.7,25.7c14.2,0,25.7-11.5,25.7-25.7
		C1974,823.3,1962.4,811.7,1948.2,811.7z"/>
	<polygon class="st13" points="1543.7,1047.6 1540.2,1035.2 1777.8,968.3 1859.6,967.8 1859.7,980.7 1779.7,981.1 	"/>
	<path class="st13" d="M1952.7,1027.8L1952.7,1027.8c0-4.6,3.7-8.3,8.3-8.3h0.2c4.6,0,8.3,3.7,8.3,8.3l0,0c0,4.6-3.7,8.3-8.3,8.3
		h-0.2C1956.4,1036.2,1952.7,1032.4,1952.7,1027.8z"/>
	<path class="st13" d="M1926.9,1027.8L1926.9,1027.8c0-4.6,3.7-8.3,8.3-8.3h0.2c4.6,0,8.3,3.7,8.3,8.3l0,0c0,4.6-3.7,8.3-8.3,8.3
		h-0.2C1930.6,1036.2,1926.9,1032.4,1926.9,1027.8z"/>
	<path class="st13" d="M1952.7,1001.4L1952.7,1001.4c0-4.6,3.7-8.3,8.3-8.3h0.2c4.6,0,8.3,3.7,8.3,8.3v0c0,4.6-3.7,8.3-8.3,8.3h-0.2
		C1956.4,1009.8,1952.7,1006,1952.7,1001.4z"/>
</g>
</svg>
