<?xml version="1.0" encoding="utf-8"?>
<!-- Generator: Adobe Illustrator 21.0.2, SVG Export Plug-In . SVG Version: 6.00 Build 0)  -->
<svg version="1.1" id="Слой_1" xmlns="http://www.w3.org/2000/svg" xmlns:xlink="http://www.w3.org/1999/xlink" x="0px" y="0px"
	 viewBox="0 0 2500 2000" style="enable-background:new 0 0 2500 2000;" xml:space="preserve">
<style type="text/css">
	.st0{fill:#51FF7F;}
	.st1{fill:#FF5EFB;}
	.st2{fill:#000BEC;}
	.st3{fill:#6D665C;}
	.st4{fill:#C3BFBC;}
	.st5{fill:#A09F9D;}
	.st6{fill:#DDDFD1;}
	.st7{fill:#030303;}
	.st8{fill:#B2AFA6;}
	.st9{fill:#ECECE2;}
	.st10{fill:#E96443;}
	.st11{fill:#D3D3D3;}
	.st12{fill:#3A434A;}
	.st13{fill:#505960;}
	.st14{fill:#CACBC5;}
	.st15{fill:#8C8863;}
	.st16{fill:#24282B;}
	.st17{fill:#363A3D;}
	.st18{fill:#0F1012;}
	.st19{fill:#434B58;}
	.st20{fill:#DDDCD8;}
	.st21{fill:#FFFFFF;}
</style>
<g id="Connections">
	<polygon class="st0" points="1510.1,1526.7 753.7,1526.7 753.7,1286.7 770.4,1286.7 770.4,1510 1510.1,1510 	"/>
	<polygon class="st0" points="1130.4,769.1 1113.7,769.1 1113.7,556.2 981.8,556.2 981.8,616.8 965.1,616.8 965.1,539.4 
		1130.4,539.4 	"/>
	<polygon class="st0" points="1130.4,1162.7 1034.5,1162.7 1034.5,1146 1113.7,1146 1113.7,760.7 1384.8,760.7 1384.8,777.4 
		1130.4,777.4 	"/>
	<polygon class="st0" points="1811.6,1259.2 1794.9,1259.2 1794.9,1065.7 1602.7,1065.7 1602.7,1212.5 1586,1212.5 1586,1049 
		1811.6,1049 	"/>
	<rect x="1690.4" y="920.2" class="st0" width="16.7" height="131.6"/>
	<rect x="1229.1" y="1483.1" class="st0" width="133.8" height="60.3"/>
</g>
<g id="Blocks">
	<rect x="1461.5" y="1197.9" class="st0" width="393.9" height="393.9"/>
	<rect x="1345.9" y="273.2" class="st1" width="437.9" height="673.5"/>
	<rect x="662.4" y="590.5" class="st2" width="418.4" height="723.5"/>
</g>
<g id="Phone_1">
	<polygon class="st3" points="801,1396.2 976.1,1497.3 976.1,1429.9 917.8,1328.7 917.8,1014.1 937.2,913 937.2,755.7 801,699.5 	
		"/>
	<polygon class="st4" points="937.2,755.7 1034.5,699.5 1034.5,856.8 937.2,913 	"/>
	<polygon class="st5" points="1020.8,729.5 1020.8,842.6 950.9,882.9 950.9,769.9 1010.4,735.6 1011.3,735 	"/>
	<polygon class="st6" points="1010.4,735.6 1010.4,828.8 950.9,863.2 950.9,769.9 	"/>
	<polygon class="st5" points="1034.5,856.8 1015.1,957.9 917.8,1014.1 937.2,913 	"/>
	<polygon class="st7" points="1016.1,890.5 1006.4,941.1 938.3,980.4 948,929.8 	"/>
	<path class="st5" d="M1015.1,957.9l-97.3,56.2L1015.1,957.9z"/>
	<polygon class="st8" points="1015.1,957.9 917.8,1014.1 917.8,1328.7 1015.1,1272.6 	"/>
	
		<rect x="939.4" y="1292.8" transform="matrix(0.866 -0.5 0.5 0.866 -542.2462 678.8853)" class="st9" width="112.4" height="116.8"/>
	<polygon class="st8" points="1073.4,1373.7 1073.4,1441.1 976.1,1497.3 976.1,1429.9 	"/>
	<polygon class="st6" points="801,699.5 898.3,643.3 1034.5,699.5 937.2,755.7 	"/>
	<polygon class="st6" points="848.9,547.7 865.7,538 889.3,547.7 872.5,557.5 	"/>
	<polygon class="st3" points="1006.7,1367.3 985.9,1379.4 995.4,1396.2 1016.3,1384.1 	"/>
	<polygon class="st3" points="1027.4,1355.4 1006.6,1367.4 1016.1,1384.2 1037,1372.2 	"/>
	<polygon class="st6" points="930.2,1051.7 930.2,1074.2 949.6,1062.9 949.6,1040.5 	"/>
	<polygon class="st6" points="956.7,1036.6 956.7,1059.1 976.1,1047.8 976.1,1025.4 	"/>
	<polygon class="st6" points="983.2,1021.5 983.2,1043.9 1002.6,1032.7 1002.6,1010.2 	"/>
	<polygon class="st3" points="963.7,788.2 963.7,799.5 973.4,793.8 973.4,782.6 	"/>
	<polygon class="st3" points="990.7,772.6 990.7,783.8 1000.5,778.2 1000.5,767 	"/>
	<polygon class="st3" points="963.7,823 963.7,834.2 973.4,828.6 973.4,817.4 	"/>
	<polygon class="st3" points="990.7,807.4 990.7,818.6 1000.5,813 1000.5,801.7 	"/>
	<polygon class="st3" points="978.3,796.6 978.3,807.9 988,802.3 988,791 	"/>
	<polygon class="st6" points="930.2,1096.7 930.2,1119.1 949.6,1107.9 949.6,1085.4 	"/>
	<polygon class="st6" points="956.7,1081.5 956.7,1104 976.1,1092.8 976.1,1070.3 	"/>
	<polygon class="st6" points="983.2,1066.4 983.2,1088.9 1002.6,1077.6 1002.6,1055.2 	"/>
	<polygon class="st6" points="930.2,1141.6 930.2,1164.1 949.6,1152.8 949.6,1130.4 	"/>
	<polygon class="st6" points="956.7,1126.5 956.7,1149 976.1,1137.7 976.1,1115.2 	"/>
	<polygon class="st6" points="983.2,1111.4 983.2,1133.8 1002.6,1122.6 1002.6,1100.1 	"/>
	<polygon class="st10" points="930.2,1209 930.2,1231.5 949.6,1220.3 949.6,1197.8 	"/>
	<polygon class="st6" points="956.7,1193.9 956.7,1216.4 976.1,1205.1 976.1,1182.7 	"/>
	<polygon class="st6" points="983.2,1178.8 983.2,1201.3 1002.6,1190 1002.6,1167.5 	"/>
	<polygon class="st6" points="930.2,1254 930.2,1276.4 949.6,1265.2 949.6,1242.7 	"/>
	<polygon class="st6" points="983.2,1223.7 983.2,1246.2 1002.6,1235 1002.6,1212.5 	"/>
	<polygon class="st11" points="1020.8,842.6 1010.4,828.8 950.9,863.2 950.9,882.9 	"/>
	<polygon class="st5" points="872.5,717.6 872.5,557.5 889.3,547.7 889.3,707.8 	"/>
	<polygon class="st3" points="848.9,547.7 872.5,557.5 872.5,717.6 848.9,707.8 	"/>
	<polygon class="st6" points="853.9,384.9 866.6,377.6 884.3,384.9 871.6,392.2 	"/>
	<polygon class="st5" points="871.6,552.8 871.6,392.2 884.3,384.9 884.3,545.5 	"/>
	<polygon class="st3" points="853.9,384.9 871.6,392.2 871.6,552.8 853.9,545.5 	"/>
</g>
<g id="Phone_2_1_">
	<path class="st12" d="M1700.4,1483.7l-162.7-93.9v-201.6c0-19.4,11.8-28.3,26.3-19.9l110,63.5c14.5,8.4,26.3,30.9,26.3,50.3V1483.7
		z"/>
	<polygon class="st12" points="1700.4,1483.7 1537.7,1389.8 1537.7,1432.6 1700.4,1526.5 	"/>
	<polygon class="st12" points="1685.8,1678.3 1675.7,1684.1 1671.3,1686.6 1646.7,1700.8 1652.4,1657.5 1672.9,1659.2 
		1677.1,1659.5 1683.5,1660.1 	"/>
	<polygon class="st12" points="1556.8,1294.4 1504.3,1190.6 1533.7,1174.3 1538,1172 1546.7,1167 1549.4,1178.5 1549.7,1183.5 	"/>
	<path class="st12" d="M1670.8,1676.6l-103.9-64.1c-11.4-6.6-20.8-22.2-21.6-35.7l-7.6-144.2l162.7,93.9l-8,139.3
		C1691.6,1678.4,1682.2,1683.2,1670.8,1676.6z"/>
	<path class="st13" d="M1660.1,1510.6l-162.7-93.9v-201.6c0-19.4,11.8-28.3,26.3-19.9l110,63.5c14.5,8.4,26.3,30.9,26.3,50.3V1510.6
		z"/>
	<polygon class="st13" points="1660.1,1510.6 1497.4,1416.7 1497.4,1459.5 1660.1,1553.4 	"/>
	<path class="st13" d="M1630.9,1699.6l-104.3-60.2c-11.4-6.6-20.8-22.2-21.6-35.7l-7.6-144.2l162.7,93.9l-7.6,135.4
		C1651.7,1701.4,1642.3,1706.2,1630.9,1699.6z"/>
	<path class="st14" d="M1510.2,1202.2c0.6,0.2,1.4,0.5,2.5,1.1l119.5,69c8,4.6,15.3,17.2,15.3,26.4v122.5c0,19.8-6.7,41-25.6,41
		c-6.1,0-13.2-2.2-20.4-6.4l-32.9-19c-31.8-18.3-58.6-68.5-58.6-109.5v-122.5C1509.9,1203.6,1510.1,1202.8,1510.2,1202.2
		 M1509.3,1189.5c-7.1,0-11.9,5.6-11.9,15.3v122.5c0,45.8,29,99.6,64.9,120.3l32.9,19c9.5,5.5,18.6,8.1,26.7,8.1
		c22.5,0,38.2-19.9,38.2-53.5v-122.5c0-13.7-9.7-30.3-21.6-37.2l-119.5-69C1515.5,1190.4,1512.2,1189.5,1509.3,1189.5L1509.3,1189.5
		z"/>
	<polygon class="st12" points="1635.6,1434.8 1521.9,1369 1521.9,1284.7 1635.6,1350.6 	"/>
	<polygon class="st12" points="1613.1,1327 1549.9,1290.4 1549.9,1278.2 1613.1,1314.9 	"/>
	<polygon class="st15" points="1635.6,1434.8 1529,1373 1529,1296.9 1635.6,1358.7 	"/>
	<path class="st14" d="M1548.6,1489c0,5.6-7,6.1-15.7,1.1c-8.7-5-15.7-13.6-15.7-19.3s7-6.1,15.7-1.1
		C1541.6,1474.8,1548.6,1483.4,1548.6,1489z"/>
	<path class="st14" d="M1594.4,1515.5c0,5.6-7,6.1-15.7,1.1c-8.7-5-15.7-13.6-15.7-19.3c0-5.6,7-6.1,15.7-1.1
		C1587.4,1501.3,1594.4,1509.9,1594.4,1515.5z"/>
	<path class="st14" d="M1640.3,1542c0,5.6-7,6.1-15.7,1.1c-8.7-5-15.7-13.6-15.7-19.3s7-6.1,15.7-1.1
		C1633.3,1527.7,1640.3,1536.3,1640.3,1542z"/>
	<path class="st14" d="M1600.7,1438.5c0,5.6-9.8,4.5-22-2.5c-12.1-7-22-17.2-22-22.9s9.8-4.5,22,2.5
		C1590.9,1422.7,1600.7,1432.9,1600.7,1438.5z"/>
	<path class="st14" d="M1548.6,1529.8c0,5.6-7,6.1-15.7,1.1c-8.7-5-15.7-13.6-15.7-19.3s7-6.1,15.7-1.1
		C1541.6,1515.5,1548.6,1524.2,1548.6,1529.8z"/>
	<path class="st14" d="M1594.4,1556.3c0,5.6-7,6.1-15.7,1.1c-8.7-5-15.7-13.6-15.7-19.3s7-6.1,15.7-1.1
		C1587.4,1542,1594.4,1550.6,1594.4,1556.3z"/>
	<path class="st14" d="M1640.3,1582.7c0,5.6-7,6.1-15.7,1.1c-8.7-5-15.7-13.6-15.7-19.3s7-6.1,15.7-1.1
		C1633.3,1568.5,1640.3,1577.1,1640.3,1582.7z"/>
	<path class="st14" d="M1548.6,1570.5c0,5.6-7,6.1-15.7,1.1c-8.7-5-15.7-13.6-15.7-19.3s7-6.1,15.7-1.1
		C1541.6,1556.3,1548.6,1564.9,1548.6,1570.5z"/>
	<path class="st14" d="M1594.4,1597c0,5.6-7,6.1-15.7,1.1c-8.7-5-15.7-13.6-15.7-19.3c0-5.6,7-6.1,15.7-1.1
		C1587.4,1582.8,1594.4,1591.4,1594.4,1597z"/>
	<path class="st14" d="M1640.3,1623.5c0,5.6-7,6.1-15.7,1.1c-8.7-5-15.7-13.6-15.7-19.3s7-6.1,15.7-1.1
		C1633.3,1609.2,1640.3,1617.9,1640.3,1623.5z"/>
	<path class="st14" d="M1548.6,1611.3c0,5.6-7,6.1-15.7,1.1c-8.7-5-15.7-13.6-15.7-19.3s7-6.1,15.7-1.1
		C1541.6,1597.1,1548.6,1605.7,1548.6,1611.3z"/>
	<path class="st14" d="M1594.4,1637.8c0,5.6-7,6.1-15.7,1.1c-8.7-5-15.7-13.6-15.7-19.3s7-6.1,15.7-1.1
		C1587.4,1623.5,1594.4,1632.2,1594.4,1637.8z"/>
	<path class="st14" d="M1640.3,1664.3c0,5.6-7,6.1-15.7,1.1c-8.7-5-15.7-13.6-15.7-19.3s7-6.1,15.7-1.1
		C1633.3,1650,1640.3,1658.6,1640.3,1664.3z"/>
	
		<rect x="1504.3" y="1381.1" transform="matrix(0.9965 -8.401563e-02 8.401563e-02 0.9965 -110.8569 132.1374)" class="st13" width="20.6" height="4.2"/>
	
		<rect x="1530" y="1421.9" transform="matrix(0.5407 -0.8412 0.8412 0.5407 -490.4873 1949.7681)" class="st13" width="20.3" height="4.2"/>
	<polygon class="st13" points="1651.9,1471.6 1634.3,1449.8 1637.6,1447.1 1655.2,1469 	"/>
	
		<rect x="1616.6" y="1458.6" transform="matrix(0.9382 -0.346 0.346 0.9382 -409.1748 650.9859)" class="st13" width="4.2" height="25.9"/>
	<path class="st16" d="M1684.1,1292.1v244.4l-7.1,123l-1.4,24.6l-4.3,2.5l1.6-27.5l7-122.8v-244.3c0-18.7-11.3-40.5-25.3-48.5
		l-105-60.1l-16-9.2l4.3-2.4l11.4,6.5l107.4,61.5C1671.8,1248.7,1684.1,1272.1,1684.1,1292.1z"/>
</g>
<g id="Phone_2">
	<polygon class="st16" points="1443.9,980.4 1302.8,898.9 1497.3,786.6 1638.4,868.1 	"/>
	<polygon class="st16" points="1657.2,834.1 1516.1,752.6 1646.7,677.2 1787.8,758.7 	"/>
	<path class="st17" d="M1722.5,756.5l-2.8,1.6c-22.9,13.2-57.7,14.7-77.6,3.2c-1.1-0.7-2.2-1.3-3.2-2l0,0
		c-16.3-11.7-12.8-30.2,8.8-42.7l2.8-1.6c10.5-6.1,26.4-6.7,35.5-1.5l39,22.5c3,1.7,4.8,3.8,5.6,6.1
		C1732.4,746.9,1729.6,752.4,1722.5,756.5z"/>
	<polygon class="st17" points="1656.3,819.9 1540.6,753.1 1578.6,731.2 1694.3,798 	"/>
	<polygon class="st18" points="1650.9,810.7 1556.5,756.3 1584,740.4 1678.3,794.9 	"/>
	<polygon class="st19" points="1448.8,962.6 1333.7,896.1 1492.4,804.4 1607.6,870.9 	"/>
	<path class="st20" d="M1492,841l-13.9-8c-3.8-2.2-3.3-6,1.1-8.5l0,0c4.4-2.5,11-2.8,14.8-0.6l13.9,8c3.8,2.2,3.3,6-1.1,8.5l0,0
		C1502.4,842.9,1495.8,843.2,1492,841z"/>
	<path class="st20" d="M1526.5,860.9l-13.9-8c-3.8-2.2-3.3-6,1.1-8.5h0c4.4-2.5,11-2.8,14.8-0.6l13.9,8c3.8,2.2,3.3,6-1.1,8.5l0,0
		C1537,862.8,1530.3,863.1,1526.5,860.9z"/>
	<path class="st20" d="M1561.1,880.9l-13.9-8c-3.8-2.2-3.3-6,1.1-8.5v0c4.4-2.5,11-2.8,14.8-0.6l13.9,8c3.8,2.2,3.3,6-1.1,8.5h0
		C1571.5,882.8,1564.9,883,1561.1,880.9z"/>
	<path class="st20" d="M1460.3,859.3l-13.9-8c-3.8-2.2-3.3-6,1.1-8.5l0,0c4.4-2.5,11-2.8,14.8-0.6l13.9,8c3.8,2.2,3.3,6-1.1,8.5v0
		C1470.7,861.2,1464.1,861.4,1460.3,859.3z"/>
	<path class="st20" d="M1494.9,879.2l-13.9-8c-3.8-2.2-3.3-6,1.1-8.5l0,0c4.4-2.5,11-2.8,14.8-0.6l13.9,8c3.8,2.2,3.3,6-1.1,8.5l0,0
		C1505.3,881.1,1498.7,881.4,1494.9,879.2z"/>
	<path class="st20" d="M1529.4,899.2l-13.9-8c-3.8-2.2-3.3-6,1.1-8.5l0,0c4.4-2.5,11-2.8,14.8-0.6l13.9,8c3.8,2.2,3.3,6-1.1,8.5l0,0
		C1539.8,901.1,1533.2,901.3,1529.4,899.2z"/>
	<path class="st20" d="M1428.6,877.6l-13.9-8c-3.8-2.2-3.3-6,1.1-8.5h0c4.4-2.5,11-2.8,14.8-0.6l13.9,8c3.8,2.2,3.3,6-1.1,8.5l0,0
		C1439,879.5,1432.4,879.7,1428.6,877.6z"/>
	<path class="st20" d="M1463.2,897.5l-13.9-8c-3.8-2.2-3.3-6,1.1-8.5l0,0c4.4-2.5,11-2.8,14.8-0.6l13.9,8c3.8,2.2,3.3,6-1.1,8.5l0,0
		C1473.6,899.4,1467,899.7,1463.2,897.5z"/>
	<path class="st20" d="M1497.7,917.4l-13.9-8c-3.8-2.2-3.3-6,1.1-8.5l0,0c4.4-2.5,11-2.8,14.8-0.6l13.9,8c3.8,2.2,3.3,6-1.1,8.5l0,0
		C1508.1,919.4,1501.5,919.6,1497.7,917.4z"/>
	<path class="st20" d="M1392.5,897.9c-4.4,2.5-11.5,2.5-15.9,0c-4.4-2.5-4.4-6.7-0.1-9.2c4.4-2.5,11.5-2.5,15.9,0
		C1396.9,891.2,1396.9,895.4,1392.5,897.9z"/>
	<path class="st20" d="M1416.1,911.5c-4.4,2.5-11.5,2.5-15.9,0c-4.4-2.5-4.4-6.7-0.1-9.2c4.4-2.5,11.5-2.5,15.9,0
		S1420.4,908.9,1416.1,911.5z"/>
	<path class="st18" d="M1661.6,726.2c-1.3,0.8-3.5,0.8-4.9,0c-1.3-0.8-1.4-2,0-2.8c1.3-0.8,3.5-0.8,4.9,0
		C1663,724.2,1663,725.5,1661.6,726.2z"/>
	<path class="st18" d="M1681.1,737.5c-1.3,0.8-3.5,0.8-4.9,0c-1.3-0.8-1.4-2,0-2.8c1.3-0.8,3.5-0.8,4.9,0
		C1682.4,735.4,1682.4,736.7,1681.1,737.5z"/>
	<path class="st18" d="M1700.6,748.7c-1.3,0.8-3.5,0.8-4.9,0s-1.4-2,0-2.8c1.3-0.8,3.5-0.8,4.9,0
		C1701.9,746.7,1701.9,747.9,1700.6,748.7z"/>
	<path class="st18" d="M1680.2,748.7c-1.3,0.8-3.5,0.8-4.9,0c-1.3-0.8-1.4-2,0-2.8c1.3-0.8,3.5-0.8,4.9,0
		C1681.5,746.7,1681.5,747.9,1680.2,748.7z"/>
	<path class="st18" d="M1660.9,737.5c-1.3,0.8-3.5,0.8-4.9,0c-1.3-0.8-1.4-2,0-2.8c1.3-0.8,3.5-0.8,4.9,0
		C1662.3,735.4,1662.3,736.7,1660.9,737.5z"/>
	<path class="st20" d="M1439.6,925c-4.4,2.5-11.5,2.5-15.9,0s-4.4-6.7-0.1-9.2c4.4-2.5,11.5-2.5,15.9,0S1444,922.5,1439.6,925z"/>
	<path class="st20" d="M1463.1,938.6c-4.4,2.5-11.5,2.5-15.9,0s-4.4-6.7-0.1-9.2c4.4-2.5,11.5-2.5,15.9,0S1467.5,936.1,1463.1,938.6
		z"/>
	<polygon class="st16" points="1787.8,758.7 1815.7,742.6 1788,726.6 1756.3,744.9 	"/>
	<polygon class="st17" points="1638.4,868.1 1657.2,834.1 1516.1,752.6 1497.3,786.6 	"/>
	<polygon class="st18" points="1443.9,980.4 1443.9,1002.8 1302.8,921.4 1302.8,898.9 	"/>
	<polygon class="st18" points="1443.9,1002.8 1502.2,991.6 1794.1,823 1815.7,765.3 1815.7,742.6 1657.2,834.1 1638.4,868.1 
		1443.9,980.4 	"/>
	
		<rect x="1782.2" y="708.6" transform="matrix(0.8658 -0.5003 0.5003 0.8658 -104.4407 1031.995)" class="st18" width="179.6" height="4.2"/>
	<path class="st18" d="M1944.1,673.5l-3.2-1.8c-5.4-3.1-5.4-11,0-14.1l22.7-13.1c2.5-1.5,5.6-1.5,8.1,0l3.2,1.8
		c5.4,3.1,5.4,11,0,14.1l-22.7,13.1C1949.7,674.9,1946.6,674.9,1944.1,673.5z"/>
	<polygon class="st18" points="1443.9,1002.9 1443.9,980.5 1307.6,1059.1 1307.6,1081.6 	"/>
	<polygon class="st16" points="1443.9,980.5 1302.8,899 1165.2,977.3 1307.6,1059.1 	"/>
	<polygon class="st18" points="1165.2,977.3 1165.2,999.7 1307.6,1081.6 1307.6,1059.1 	"/>
	
		<rect x="1360.8" y="863.8" transform="matrix(0.5 -0.866 0.866 0.5 -137.2024 1652.9222)" class="st18" width="4.2" height="162.9"/>
	<polygon class="st16" points="1326.4,913 1307,924.2 1326.4,935.4 1345.9,924.2 	"/>
	<path class="st18" d="M1326.4,937.9l-23.6-13.6l23.6-13.7l23.6,13.7L1326.4,937.9z M1311.1,924.2l15.2,8.8l15.3-8.8l-15.3-8.8
		L1311.1,924.2z"/>
	<polygon class="st16" points="1384.8,946.7 1365.4,957.9 1384.9,969.4 1404,958.1 	"/>
	<path class="st18" d="M1384.9,971.8l-23.7-13.9l23.6-13.6l23.3,13.9L1384.9,971.8z M1369.5,957.9l15.4,9l15-8.8l-15.1-9
		L1369.5,957.9z"/>
	<rect x="1287.5" y="1040.1" class="st18" width="38.9" height="4.2"/>
	<rect x="1268" y="1028.9" class="st18" width="77.8" height="4.2"/>
</g>
<g id="Objects">
	<polygon class="st1" points="559.3,938.1 486.6,957.5 539.8,1010.8 	"/>
	<polygon class="st0" points="1168.1,234 1182.6,288.3 1222.4,248.6 	"/>
	<polygon class="st1" points="1951.8,877.4 1966.3,931.7 2006.1,891.9 	"/>
	<circle class="st0" cx="625.8" cy="755.6" r="107.6"/>
	<circle class="st2" cx="1333.7" cy="384.9" r="65.7"/>
	<circle class="st2" cx="1404" cy="1164.1" r="20.3"/>
	<rect x="1679.9" y="366.6" class="st21" width="18.8" height="84"/>
	
		<rect x="1679.9" y="366.6" transform="matrix(-1.836970e-16 1 -1 -1.836970e-16 2097.9023 -1280.7914)" class="st21" width="18.8" height="84"/>
	
		<rect x="625.8" y="1002.8" transform="matrix(0.7071 0.7071 -0.7071 0.7071 982.5342 -139.8885)" class="st21" width="68.6" height="226.5"/>
	
		<rect x="625.8" y="1002.8" transform="matrix(-0.7071 0.7071 -0.7071 -0.7071 1916.0956 1438.4863)" class="st21" width="68.6" height="226.5"/>
	<rect x="1774.5" y="1316.6" class="st21" width="116.8" height="22.5"/>
</g>
</svg>
