<?xml version="1.0" encoding="utf-8"?>
<!-- Generator: Adobe Illustrator 21.0.2, SVG Export Plug-In . SVG Version: 6.00 Build 0)  -->
<svg version="1.1" id="Слой_1" xmlns="http://www.w3.org/2000/svg" xmlns:xlink="http://www.w3.org/1999/xlink" x="0px" y="0px"
	 viewBox="0 0 2500 2000" style="enable-background:new 0 0 2500 2000;" xml:space="preserve">
<style type="text/css">
	.st0{fill:#E4DA29;}
	.st1{fill:#0071B7;}
	.st2{fill:#E7871A;}
	.st3{fill:#25BFA1;}
	.st4{fill:#C2098B;}
	.st5{fill:#201D1E;}
</style>
<g id="Wires">
	<path class="st0" d="M806.4,761.3c-35.1-4.7-70.2,3.1-105.6,1c-19.1-1.1-36.4-6.7-55-9.7c-8.8-1.4-19-1.9-26.1,4.6
		c-6.1,5.6-6.3,14.1-6.5,21.8c-0.5,18.4-0.7,36.7-0.4,55c0.3,21.6-1.8,43.1-3.7,64.6c2.3-0.4,4.5-0.7,6.8-1c1.3-13.5,2.6-27,3-40.6
		c0.5-17.3-0.5-34.6-0.3-52c0.1-10.8-2.7-32.2,4.3-41.2c9.4-12.1,30.2-3.5,42.7-0.4c13.4,3.3,27.3,4.8,41.1,5.2
		c33.4,1,66.5-5.9,99.7-1.1V761.3z"/>
	<path class="st0" d="M1133.6,927.3c0.6-40.5,1.7-81.1,2-121.6c-2,0.2-4.1,0.4-6.2,0.6c-0.4,40.4-1.4,80.9-2,121.3
		C1129.6,926.7,1131.5,926.8,1133.6,927.3z"/>
	<path class="st1" d="M1871.8,1422.7c-0.1-4-6.2-4-6.1,0c0.2,10.2,1.5,20.4,1.6,30.6c0.1,5.4,0.8,12.8-1.4,17.8
		c-3.8,8.5-11.1,7.7-19,7.2c-33.3-2.2-68.2,0.6-101.6,1.9c-37.5,1.4-74.8,2.6-112.3,1.1c-37.2-1.5-73.6,1.9-110.7,2.3
		c-4,0-4,6.2,0,6.1c21.2-0.2,42.2-2.3,63.4-3.1c21.9-0.9,43.8,0.9,65.7,1.4c43.2,1.1,86.1-1.9,129.3-2.6c19.5-0.3,39.3-1.5,58.7-1.3
		c8.1,0.1,19.9,3.8,27.1-1.7C1880.6,1471.5,1872.1,1437.5,1871.8,1422.7z"/>
	<path class="st2" d="M1653.7,819.1c1.8-0.4,3.6,0.1,4.8,1.2c0.6,0.1,1.1,0.3,1.7,0.4c-3.6-14.6,6.9-32.7-7.8-43.9
		c-13-9.8-33.7-6.6-48.7-5.9c-11.7,0.5-23.4,0.1-35.1,1c-13.8,1.1-27.8,3.8-41.7,3.9c-16.5,0.1-32.8-5-49.4-4.4
		c-29.9,1.1-25,45.9-23.7,65.3c1.7,25.2,0,70.4,0.3,136.2c0.4,86.9,2.3,198,0.8,231.3c0,0.1,0,0.3,0,0.4c0.8-0.5,1.7-0.9,2.7-0.8
		c1.3,0.1,2.3,0.3,3.3,0.6c1.4-38.4,0.6-349.1-1.2-370.5c-1.1-12.5,0.1-38.9,6.3-50.8c6.3-12,37-3.5,47.6-2.2
		c19.3,2.3,38.4-1.7,57.7-3c19.8-1.3,42.6-3.3,62.3-0.9C1661,780.3,1651.2,801.2,1653.7,819.1z"/>
	<path class="st1" d="M1880.8,1089.2c0.1-4-6.1-4.1-6.1-0.2c-0.3,20.1,2.2,40.2,0.6,60.3c-0.3,3.9,5.8,4.1,6.1,0.2
		C1883,1129.4,1880.5,1109.3,1880.8,1089.2z"/>
	<path class="st3" d="M1616.8,1601c-36.7-1.2-73.3,2-110,1.1c-38.8-1-77.4-3.9-116.2-4.1c-76.3-0.4-152.5,5.5-228.8,2.9
		c-76-2.5-151.8,0.2-227.8,0.1c-37.8,0-75.5-1.6-113.2-3.1c-9.8-0.4-19.6-0.6-29.4-0.8c-1.9,2.3-4.1,4.4-6.5,6.1c4-0.1,8.1-0.2,12,0
		c21.7,0.8,43.4,1.8,65.1,2.6c79.9,3.2,159.7-0.5,239.6,0c40.1,0.3,80.1,2.4,120.2,2c40.2-0.4,80.4-2.2,120.6-3
		c46.7-1,93.2,0.8,139.9,2.8c44.9,1.8,89.6-1.7,134.4-0.2C1620.5,1607.3,1620.8,1601.2,1616.8,1601z"/>
	<path class="st3" d="M740.9,1315.6l-6.2-0.1c0.9,24.6,2.5,117.5,4.1,142.2c2,31.3,2,62.5,3,93.8c1.9-1,3.8-1.8,5.7-2.6
		c-1.2-27.3-0.3-55-2-82.2C743.8,1439,741.8,1343.1,740.9,1315.6z"/>
	<path class="st3" d="M1669.2,1400c-0.7-21.6-0.5-43.6-2.2-65.2c-0.9-11.5-2.5-24.1-13.9-29.7c-14.2-6.9-34.8-5.6-50.1-6.4
		c-22.3-1.1-44.6-0.4-66.9,0.2c-0.2,2.1-0.4,4.1-0.6,6.2c32.6-0.8,65.3-1.7,97.8,1.9c8.5,0.9,19.2,1.8,23.8,10.1
		c4,7.1,3.8,17.3,4.1,25.1c0.6,17.1,1,34.3,1.6,51.4c1.6,43.3,2.3,86.7,0.4,130.1c-0.7,17.1-3.8,34.4-3.5,51.5
		c0.3,17.6-29.5,26.8-46.8,25.6c0,2.1-0.1,4.2-0.1,6.3c19.8,0.5,53.4-1.2,53.9-40.9C1667.5,1510.8,1671.1,1455.4,1669.2,1400z"/>
	<path class="st3" d="M793.6,1543.7c-0.8-2.6-3.8-2.6-5.3-1.2c-0.5-0.6-1.1-1-2-1.1c-18.1-2.4-36-0.1-54.2,0
		c-6.6,0-16.8-2.3-21.1,4.7c-5,8-1.5,25.5-1.5,34.4c0.1,14.5-1.4,30.2,2.2,44.3c0.4,1.4,1.6,2.2,3,2.3c26.5,2,52.9,0.7,79.3-2.5
		c1.7-0.2,3-1.2,3.1-3.1C798.3,1595.6,801.4,1568.8,793.6,1543.7z M791.2,1616.9c-4.5,5.7-21.6,3.9-28.6,4.3
		c-11.1,0.6-26.5,3-37.5,0.3c-7.6-1.9-8.1-3-9.2-11.1c-0.7-5.3,0.2-11.2,0.1-16.6c-0.1-11.4-2.1-24.6,0-35.9
		c2.7-14.5,18.4-10.3,30.5-10.9c13.4-0.6,26.6-1.2,39.9,0.6c0.8,0.1,1.4-0.1,1.8-0.4c3.3,11.5,4.3,23.3,4.3,35.3
		c0,5.1-0.2,10.2-0.4,15.2C792,1601.3,793.4,1614.1,791.2,1616.9z"/>
	<path class="st3" d="M795.3,1599.2c0-1.1-0.7-2.1-1.6-2.6c0.7-2.2,1.1-4.5,1.2-6.9c0.1-2.1-2.7-4.1-4.6-2.7c-0.5,0.4-1,0.9-1.5,1.3
		c0.4-1.2,0.8-2.4,1-3.7c0.4-2.1-0.9-3.5-2.5-3.7c0.9-3,1.7-6,2.1-9.1c0.4-2.9-3.5-3.8-5.2-2.2c-0.2,0.2-0.5,0.5-0.7,0.7
		c1.4-2.2,2.8-4.4,4.2-6.6c1.9-3-2.4-6.2-4.8-3.7c-2.4,2.5-4.7,5-7.1,7.6c1.7-3,3.4-6,5.1-9c2-3.4-3.1-6.4-5.3-3.1
		c-6.1,9.1-12.9,17.6-20,25.9c6.9-10.3,13.7-20.6,21.1-30.6c2.1-2.8-2.6-6.4-4.8-3.7c-0.2,0.2-0.3,0.4-0.5,0.6l0,0c0,0,0,0,0,0
		c-1.5,1.9-3,3.9-4.5,5.8c0.3-0.7,0.7-1.3,1-2c1.7-3.6-2.9-6.3-5.3-3.1c-1.8,2.4-3.6,4.6-5.4,6.9c1.6-3.1,3.2-6.3,4.6-9.6
		c1.3-3.1-2.1-6.1-4.8-3.7c-3.8,3.3-7.3,7-10.7,10.8c0.5-1,1-2.1,1.4-3.1c1.1-3-3.1-5-5.1-3c-7.2,7.3-13.2,20.7-22.2,26.8
		c2.7-4.9,5.8-9.5,9.3-14c3.6-3.7,7-7.5,10.2-11.6c2.4-3-1.4-7.2-4.3-4.3c-4,4-7.6,8.2-11,12.6c-1.5,1.5-3,2.9-4.5,4.3
		c2.5-4.6,5.7-8.8,8.5-13.4c2.1-3.4-3.2-6.5-5.3-3.1c-5.2,8.6-11.3,15.5-13.2,25.6c-0.4,2,1.5,4.5,3.6,3.9c-0.8,1.5-1.6,2.9-2.3,4.4
		c-1.2,2.6,0.7,4.9,3.5,4.5c2.6-0.4,4.9-1.3,7.1-2.6c-1.9,2.7-3.7,5.4-5.4,8.3c-1.8,3.1,2.3,6.1,4.8,3.7c9.2-8.7,16.6-19,24.5-28.8
		c-7.5,12.1-16.4,23.3-25.6,34.3c-1.3,1.6-0.8,3.5,0.4,4.5c-2.3,3.5-4.4,7.2-6,11.1c-0.9,2.1,1.7,4.6,3.8,3.8
		c2.7-1.1,5.2-2.5,7.6-4.1c-1.3,1.6-2.6,3.3-3.9,4.9c-2.5,3,1.5,7.2,4.3,4.3c9.4-9.5,18.7-19.1,27.5-29
		c-7.9,9.8-15.5,19.7-23.2,29.7c-2.2,2.9,2.4,5.9,4.8,3.7c10.8-9.5,18.8-21,26-33.2c0.5-0.6,1-1.2,1.5-1.7
		c-6.4,10.3-12.7,20.7-19.1,31c-2.1,3.4,3.1,6.3,5.3,3.1c9.4-13.9,19.6-30.2,31.3-43.3c-1.8,4.9-4.3,9.6-7.3,14.1
		c-6.5,8-13.1,15.9-19.4,24c-2.4,3,1.6,7.4,4.3,4.3c2.6-2.8,5.2-5.8,7.8-8.8c-0.8,1.3-1.5,2.6-2.2,3.9c-1.5,3,2.3,6.4,4.8,3.7
		c6.7-7.3,11.2-16.4,17.5-24c-2.9,6.1-7.5,11.5-10.6,17.3c-1.9,3.6,3,6.2,5.3,3.1c1.1-1.4,2.1-2.9,3.1-4.4c-0.2,0.3-0.3,0.5-0.5,0.8
		c-1.8,3,2.4,6.2,4.8,3.7c3.6-3.6,5.5-5.5,5.4-10.6c0-0.1-0.1-0.2-0.1-0.3C794.6,1606,795.2,1602.9,795.3,1599.2z M747.3,1579.3
		c-0.7,0.9-1.4,1.9-2.1,2.8c-6.1,7.9-12.1,17.4-20.2,23.7C731,1596.1,739.3,1587.8,747.3,1579.3z"/>
	<path class="st4" d="M1655.2,532.6c-2.4-2-11.5-1.4-13.8-1.6c-10.6-0.7-21.2-0.1-31.8,0.2c-22.6,0.6-45.2-0.4-67.8-0.9
		c-18-0.4-36.3-3.5-54,1.2c-1.7,0.5-2.3,2-2.1,3.3c-0.1,0.2-0.2,0.5-0.2,0.7c-0.2,8.7-3.1,23.9,4.3,30.8c7,6.6,20.5,1.7,28.9,1.3
		c45.6-2.5,91.2-1.3,136.9-1.2c0,0,0,0,0.1,0c0.3,0.1,0.5,0.2,0.7,0.2c0.1,0,0.2,0,0.3,0c1.7-0.1,3.1-1.3,3.1-3.1
		C1659.9,556.1,1661.9,538.1,1655.2,532.6z M1546.3,560.6c-12.7,0.6-25.3,0.8-37.9,2c-9.1,0.9-14.7,0.9-16.8-9.7
		c-1-5-0.1-10.7,0.1-15.9c14.5-3.3,29.2-1.3,43.9-0.7c17.4,0.7,34.8,0.9,52.2,1.2c16.1,0.3,32.3-1.1,48.4-0.6
		c3.4,0.1,13.3-0.2,15.6,1.6c0.6,0.5,0.8,4.9,0.9,5.7c0.7,3.9,1,7.8,1,11.8c-0.4,1.7,0,2.9,1,3.7c-0.5,0.2-0.9,0.4-1.2,0.7
		C1617.8,560.3,1582,559,1546.3,560.6z"/>
	<path class="st4" d="M1380.5,551.6c37.8,0.6,75.6,1.1,113.4,1.9c-0.4-2-0.8-4-1-6.2c-37.4-0.8-74.7-1.3-112.1-1.9
		C1380.7,547.5,1380.6,549.6,1380.5,551.6z"/>
	<path class="st3" d="M636.8,1254.1c-11.7,1.5-22.7,5.7-33.7,9.5c-3.7,1.3-2.3,7.3,1.5,6c11-3.8,22.1-8,33.7-9.5
		C642.2,1259.6,640.7,1253.6,636.8,1254.1z"/>
	<path class="st4" d="M1764.4,678.5c-1.1-25.1-1.1-50.1-2-75.2c-0.5-13.4-2-27.4-12.7-36.7c-13.8-12-33.7-12.8-52.8-12.3
		c0,0.1,0,0.2,0,0.3c-13.4-0.3-26.7-0.7-40.1-0.8c-4,0-4,6.1,0,6.1c12.8,0,25.7,0.4,38.5,0.7c0,0,0,0,0,0.1c0.5,0,0.9,0,1.4,0
		c6.6,0.2,13.3,0.3,19.9,0.3c10,0.8,19.7,3.1,27.3,8.8c21,15.8,11.2,55.5,12.6,78.3c1.9,31,3,61.7,1.1,92.7
		c-1.7,27.3-4.1,54.4-3,81.7c0.7-0.4,1.5-0.6,2.5-0.6l3.6,0.1C1758.8,774.1,1766.6,726.4,1764.4,678.5z"/>
</g>
<g id="Gamepade_1">
	<path class="st4" d="M828.2,707.3c0.1-16.1,0.9-32.3,1.4-48.4c0.9-32.3,1.8-64.7,2.8-97c1.8-64.7,3.7-129.4,5.5-194.1
		c0.1-4-6-4.1-6.1-0.2c-1.8,64.7-3.7,129.4-5.5,194.1c-0.9,32.3-1.8,64.7-2.8,97c-0.5,16.1-1.3,32.3-1.4,48.4
		c-0.1,14.6,1.8,29.1,1.6,43.7c-0.1,4,6.1,4.1,6.1,0.2C830,736.4,828.1,721.9,828.2,707.3z"/>
	<path class="st4" d="M1380.3,682.9c0.7-36,1.1-72.1,2.5-108.1c1.4-35.1,4.1-70.1,4.7-105.2c0.3-16,0.2-32.1,0.5-48.1
		c0.3-14,2.4-28.4-2.7-41.8c-1.4-3.6-7.4-2.2-6,1.5c5.5,14.3,2.7,30.7,2.4,45.8c-0.3,16-0.2,32.1-0.5,48.1
		c-0.8,35.2-3.6,70.4-4.8,105.6c-1.2,34-1.6,68-2.3,102.1c-0.3,17-0.7,34-1.2,51c-0.2,7.8-0.5,15.5-0.5,23.3c0,4.7,0,9.5,0.2,14.2
		c0,1.9,0.1,3.8,0.2,5.7c-0.4,2.1,0.3,3.6,1.8,4.7c-1.7,0.6-2.9,2.3-1.8,4.2c1,1.6,1.6,2.5,3.6,2.7c1.5,0.2,3.3-1.4,3.2-3
		C1377.2,751.5,1379.6,717,1380.3,682.9z"/>
	<path class="st4" d="M1379.1,373.4c-10.5-9-27.1-6.1-39.9-7c-25.8-1.7-51.3-5.3-77.1-7.3c-52.9-4-105.9-3.1-158.9-3.1
		c-53.1,0.1-106.3-1.5-159.4-2.6c-24.8-0.5-49.6-0.6-74.4-1.1c-10.6-0.2-27.1-5.2-34.2,5.3c-2.2,3.3,3,6.5,5.2,3.3
		c4.3-6.4,16.8-2.8,23.3-2.5c11,0.5,22.1,0.2,33.1,0.2c22.7,0.1,45.4,1,68.1,1.4c47.1,0.8,94.1,2.3,141.2,2.2
		c46-0.1,92.1-0.7,138,1.9c23.8,1.4,47.4,4.5,71.2,6.6c10.8,1,21.7,2,32.6,2.4c8.6,0.3,19.9-1.5,26.8,4.5
		C1377.6,380.2,1382.1,376,1379.1,373.4z"/>
	<path class="st4" d="M1371.1,780.3c-26,6-52.2,0.5-78.4-1.4c-25.9-1.9-52-2.7-78-3.3c-55-1.3-110.1-0.9-165.1-1.9
		c-50.9-0.9-102.4-4.1-153.3-2.3c-7.2,0.3-68.9,6.1-65.3-4.6c1.3-3.8-4.6-5.5-5.9-1.8c-6.8,20.2,41.1,14.8,49.8,14.3
		c46-3,92.5-1.4,138.6-0.3c62,1.5,124,1.3,186,2.4c31,0.6,62.1,1.3,93,3.6c26.7,2,53.5,7.4,80,1.2
		C1376.4,785.4,1375,779.4,1371.1,780.3z"/>
	<path class="st4" d="M1367.8,378.6c-2.8,5.2-8.6,8.7-12.5,13.2c-3.9,4.6-7.2,9.6-10.7,14.6c-9.2,13.2-19.8,25.3-29.4,38.1
		c-15.4,20.5-36.5,37.4-49.7,59.6c-1.5,0.6-2.8,2.4-2,4.4c0.1,0.4,0.3,0.7,0.4,1.1c0.8,2.2,4.3,2,5.3,0.2
		c13.1-23.3,35.2-40.7,51.2-62c9.1-12.2,19.2-23.6,28-36c4.7-6.6,9-13.8,14.8-19.6c3.6-3.5,7.4-5.9,9.8-10.3
		C1374.9,378.4,1369.7,375.1,1367.8,378.6z"/>
	<path class="st4" d="M1175.1,525.5c6-11.3,19.9-17.1,33.7-19.7c-0.1-2.4-0.1-4.7-0.1-7.1c-16.8,2.9-31.9,10.5-38.8,23.5
		C1168,525.7,1173.2,529,1175.1,525.5z"/>
	<path class="st4" d="M1265.9,508c-10.5-7.3-27-11.1-43.5-10.7c-0.2,2.3-0.4,4.6-0.5,7c3.2-0.2,6.3-0.2,9.1-0.1
		c15.6,0.6,30.3,4.8,40.5,17.2c17.1,20.7,16.3,53.5,4.4,76.5c-17.2,33.2-64.3,43.7-94.9,23c-30-20.2-46.1-71.2-12.8-96
		c3.2-2.4-1.1-6.8-4.2-4.5c-25.4,19-24.6,54.6-10,80.3c3.6,6.4,8,12,13,16.7c-22,29.4-45.1,58-68,86.8
		c-18.8,23.6-42.1,44.9-55.2,72.5c-1.6,3.5,3.3,6.8,5.2,3.3c0.1-0.2,0.3-0.3,0.4-0.5c1.3-0.7,1.7-1.9,1.5-3.1
		c13.3-25.9,35.3-46.3,53.3-68.9c22.7-28.5,45.5-56.8,67.4-85.9c20.5,16.6,48.9,20.4,74.9,9.9C1291.7,613.2,1310.1,538.7,1265.9,508
		z"/>
	<path class="st4" d="M1235.2,531c-4-0.2-4.1,6-0.2,6.1c18.9,0.9,18.9,23.8,13.8,36.4c-6.1,15.3-19.5,21.9-35.3,19.4
		c-10.6-1.7-21.6-6.6-27.7-15.7c-10.9-16.3,0.8-34.2,17.1-40.1c3.7-1.3,2.3-7.3-1.5-6c-17,6.2-30.5,22.2-24.8,41.3
		c5.1,17.1,24.9,26.4,41.5,27.3c20.2,1.1,34.6-12.7,38.8-31.9C1260.5,551.7,1254,531.9,1235.2,531z"/>
	<path class="st4" d="M1210.6,513.6c0.3-15.1,0.1-30.3,0-45.4c-2.2-0.3-4.2-1-6.2-1.8c0.1,17.6,0.4,35.3-0.1,52.9
		c-0.5,16-0.9,32.1,0.6,48c-0.1,0.5-0.2,1,0,1.5c0.1,0.3,0.1,0.6,0.2,0.9c1,4,6.4,2.3,6-1.5C1209.1,550.2,1210.2,531.7,1210.6,513.6
		z"/>
	<path class="st4" d="M1241.3,394c-18.2-13.4-49.5-9-59.7,12c-0.4,0.9-0.4,1.8-0.1,2.6c-1.3-0.7-2.9-0.6-3.7,1.1
		c-12.1,23.4-8.4,47.5,16.7,59.4c8.2,3.9,17.1,6,25.7,6.1c0.1,9.2,0.8,18.4,1.1,27.7c0.7,19.8-1.3,39.8-2.1,59.7
		c-0.6,0.5-1,1.2-1.1,2.1c-0.4,4.3-6.7,6.8-8.1,1.8c-1-3.8-7-2.4-6,1.5c2.6,9.6,13.5,9,18.1,2.6c1.5,0,2.9-1,3-2.9
		c0.6-19.9,2.7-39.8,2.5-59.7c-0.1-11.1-1.3-22.2-1.3-33.2c13-1.6,24.3-8.8,29.8-23.5C1263.1,432.3,1258.2,406.4,1241.3,394z
		 M1252.1,442.4c-1.6,8.2-10.8,19.9-21,24.6c-8.5,3.9-18.4,1.5-19.7,1.2c-2.1-0.3-4.2-0.7-6.1-1.5c-25.8-8.3-34.7-29.6-22.2-53.8
		c0.5-0.9,0.5-1.8,0.2-2.5c1.3,0.7,2.9,0.6,3.7-1.1c8.5-17.5,34.4-21.6,50.1-11C1250.5,407.5,1255.1,427.1,1252.1,442.4z"/>
	<path class="st4" d="M1003.7,592.9c-12.5-12.1-33.6-12.5-42.4,2.6c-0.6-0.1-1.3,0-2,0.4c-13.9,9.4-13.7,32.5-0.1,41.9
		c14,9.7,38.2,13.1,49.7-2.1C1018.5,623,1014.7,603.6,1003.7,592.9z M1004.7,630.9c-7.3,11.2-22.3,10.2-33.4,6.2
		c-6.5-2.3-13.4-6.1-15.6-13.2c-2-6.7,0-16.9,5.5-21.7c1.5,0.6,3.5,0.2,4.3-1.7c7.1-17.2,29.7-11,37.9,1.7
		C1008.7,610.5,1010.3,622.4,1004.7,630.9z"/>
	<path class="st4" d="M1016.7,555.5c-0.1,0.2-0.2,0.4-0.3,0.6c-1.2-0.5-2.7-0.4-3.5,1.2c-2.8,5.1-5.1,10.9-2.8,16.6
		c2,5,6.9,8.6,11.8,10.6c9.9,4,22.3,1.3,26.3-9.5C1054.2,558.3,1028,539.9,1016.7,555.5z M1026.4,579.5c-3.7-1-8.1-3.3-10-6.7
		c-2.4-4.1-0.4-8.4,1.7-12.3c0.1-0.2,0.1-0.5,0.2-0.7c1.2,0.4,2.6,0.2,3.6-1.1c6.6-9.2,22.3,3.2,21,12.1
		C1041.8,578.8,1033.2,581.3,1026.4,579.5z"/>
	<path class="st4" d="M964.6,457.9c-5.1,12.4-16.5,20.8-24.9,30.9c-8.5,10.2-16.6,20.9-24.5,31.6c-17,23-35.4,45.3-51.4,69
		c-1.4,2,0.3,4.5,2.5,4.7c2.3,0.2,3,0,5-1.1c2.1-1,1.9-3.3,0.7-4.7c16.3-23.5,34.4-46.2,51.6-69c9-11.9,17.9-24.2,28.2-35
		c7.4-7.7,14.6-14.8,18.7-24.8C972,456.1,966.1,454.3,964.6,457.9z"/>
	<path class="st4" d="M1083.7,579c-5.6,10.2-15.8,17.6-23.3,26.4c-8.4,9.8-16.7,19.5-25.6,28.9c-7.4,7.9-14.6,15.9-21.4,24.3
		c-4.2,5.2-8.3,10.5-12.6,15.6c-2.1,2.5-6.1,8.9-9.7,12.4c0-0.1-0.1-0.2-0.1-0.2c-0.6-1.2-1.6-1.6-2.6-1.5
		c-22.6-12.4-44.8-30.2-63-48.1c-15.8-15.5-32.1-36.4-52.9-45.4c-3.6-1.6-5.4,4.3-1.8,5.9c24.5,10.6,42.6,38.1,62.6,55.1
		c16.2,13.8,33.9,28,52.7,38.2c-0.1,0.2-0.1,0.3-0.2,0.5c-0.8,2.1,1.5,4.6,3.7,3.9c7.1-2.4,14.3-14.5,18.9-20.2
		c9.4-11.5,18.5-23.1,28.8-33.9c10.2-10.7,19.6-21.9,29.3-33.1c7.4-8.6,17-15.4,22.5-25.5C1090.8,578.8,1085.6,575.5,1083.7,579z"/>
	<path class="st4" d="M1092.1,563.9c0.6-8.9-17.3-18.9-24.3-23.9c-9.8-7.1-20-13.9-29.5-21.4c-11.3-8.9-21.3-19.2-31.8-29.1
		c-9.9-9.4-21-17.1-31.3-26c-3-2.6-7.5,1.6-4.5,4.2c10.3,8.9,21.5,16.6,31.3,26c9.2,8.8,18.2,18,28.1,26.1
		c20.2,16.7,43,29.7,61.9,48c0.9,0.9,2.5,1.3,3.7,0.6c1.9-1.2,2.4-2.1,2.5-4.4C1098.5,560.1,1092.4,559.9,1092.1,563.9z"/>
	<path class="st4" d="M928.4,575.2c-3.6-4.5-15.6-6.5-16.4,1.4c-0.1,0.8,0,1.7,0.2,2.6c-0.9,2.4-1.3,5,0.1,7.2
		c1.4,2.2,4,2.7,6.4,2.3c0.4,0.3,0.9,0.5,1.4,0.7c3.2,1.2,6.1-0.5,6.9-3.8c0.1-0.4,0.1-0.9,0.1-1.4
		C929.6,581.7,930.9,578.4,928.4,575.2z"/>
	<path class="st4" d="M976.6,512.8c-3.5-2.1-9.5-3.1-11.8,0.9c-1.3,2.2-2.5,5-2.3,7.7c-0.7,3.2-0.3,6.5,2.2,8.9
		c2.5,2.4,6.2,2.7,9.4,1.5C982,528.7,984.2,517.6,976.6,512.8z"/>
	<path class="st4" d="M1261.8,593.3c-7.2,8.6-15.5,15.7-26,19.9c-3.7,1.5-0.7,6.8,3,5.4c10.9-4.3,19.9-11.8,27.3-20.8
		C1268.6,594.8,1264.3,590.3,1261.8,593.3z"/>
	<path class="st4" d="M1294.5,555.7c-0.7-3.4-6-2.8-6.1,0.7c0,5.7-0.1,11.4-0.4,17c-0.9,3.7-2.2,7.4-3.7,11.3c-1,0.4-1.8,1.2-2,2.5
		c0,0.2-0.1,0.4-0.1,0.7c-0.4,0.3-0.8,0.8-1.1,1.4c-2.3,6.2-4.7,12.3-7.3,18.4c-0.8,1.3-1.7,2.6-2.7,3.9c-0.8,0.1-1.6,0.5-2.2,1.3
		c-1.1,1.5-2.2,3-3.3,4.6c-0.9-0.6-2-0.7-3,0c-20.2,13.3-46.1,20.2-69.8,12.9c-32.7-10.2-42.9-41.2-42.4-72.7c0-2.6-2.5-3.5-4.3-2.8
		c1.2-3.4,2.8-6.7,5.1-9.9c2.3-3.2-3-6.4-5.2-3.2c-28.5,40,15.7,99.1,58.4,103.9c3.5,0.4,7,0.5,10.6,0.5c0.5,0.3,1,0.6,1.8,0.6
		c3.8-0.1,7.9-0.7,12-1.7c14.7-2.3,28.9-8,40.6-16.8c18.4-14,23.2-32.6,24.6-53.3C1295.5,568.8,1296,562.7,1294.5,555.7z
		 M1144.5,561.4c0.1,10.1,1.3,20.1,3.9,29.4C1144.7,581.2,1142.8,571.1,1144.5,561.4z M1211.9,639.9c-7.8-0.2-15-1.7-21.6-4.2
		c11,3.5,22.5,4.3,33.8,2.8c-1.7,0.4-3.4,0.8-5.1,1.3C1216.6,639.9,1214.2,639.9,1211.9,639.9z"/>
	<path class="st4" d="M1090,571.1c-0.1,1.9-0.4,3.7-0.8,5.5c-1.3-0.7-3.1-0.5-4.2,0.9c-1.5,1.9-2.7,3.9-4,6
		c-0.6,0.2-1.1,0.6-1.5,1.3c-3.9,7.5-8.2,14.7-12.3,22c-0.1,0.1-0.2,0.1-0.3,0.2c-5.1,4.3-9.2,9.3-12.9,14.6
		c-5.9,4.3-11,9.5-15.5,15.1c-6.1,5.2-11,11.4-15.4,17.9c-5.1,5.5-9.8,11.4-14.2,17.4c-7.4,2.9-13.1,7.8-16.1,15.2
		c-1.3,1.3-2.6,2.6-3.9,3.9c-0.2-0.3-0.4-0.5-0.5-0.8c1.6-0.7,2.7-2.7,1.7-4.4c-6.2-10.7-24.4-20.2-34.1-27.2
		c-6.6-4.7-13.3-9.4-20-14c-20.7-16.7-39.6-34.5-63-47.9c-0.2-0.1-0.5-0.2-0.7-0.3c-0.8-1-1.5-1.6-1.9-1.7c4,0.2,4.1-5.9,0.1-6.1
		c-0.6,0-1.2-0.1-1.8-0.1c-1.4-0.1-2.6,0.9-3,2.2c-1.9,5.7,2.1,12,5.5,16.3c9.9,12.4,23.4,23.1,35.4,33.4c0.7,0.6,1.5,1.2,2.2,1.9
		c3.1,3.2,6.2,6.3,9.7,9.2c0.1,0.5,0.3,1.1,0.8,1.6c2.4,2.3,4.8,4.5,7.3,6.6c15,13.9,34.9,24.4,51.1,35.3c3.7,3.9,7.2,6,11.9,6.8
		c4.8,1.5,9.8,1.3,15.3-2c7.3-4.4,12.6-13,17.9-19.4c6.1-7.5,12.5-14.9,18.6-22.4c20.7-25.5,52.5-51.9,54.9-86.9
		C1096.3,567.3,1090.3,567.2,1090,571.1z"/>
	<path class="st4" d="M1004,630.9c-2,1.9-4.2,3.8-6.6,5.6c-0.4,0-0.9,0.1-1.3,0.3c-8.7,4.2-19.6,8.5-28.8,3.2
		c-0.1-0.1-0.2-0.1-0.3-0.1c-8.9-6.1-14.2-17.1-11.4-28.1c1-3.8-4.9-5.6-5.9-1.8c-4.6,18,7.7,36.3,25.8,40.2
		c13.3,2.9,31-0.8,33.6-16.2C1009.5,631.2,1006.4,628.5,1004,630.9z"/>
	<path class="st4" d="M1048.3,572.9c-1.1-2.8-4.7-1.5-5.6,0.6c-3.8,8.9-13.6,7.7-21.6,7.3c-0.9,0-1.6,0.3-2.2,0.9
		c-4.1-5-5.3-12.2-5.1-18.8c0.1-4-6-4.1-6.1-0.1c-0.4,13.7,5.6,29.6,21.3,30.8C1041,594.5,1053.5,585.8,1048.3,572.9z"/>
	<path class="st4" d="M1371.8,786.7c-1.8,23.9-60.9,18.8-77.6,19.1c-52.3,1-103.7-0.5-155.9-3.1c-51.7-2.5-103.3-0.1-155-0.5
		c-25-0.2-49.8-2-74.7-2.9c-21.8-0.8-43.8,0.4-65.2-3.8c-0.3-0.5-0.8-0.9-1.5-1.2c-8.9-3.3-18.3-3.3-23.5-10.8c1.5,1.6,4.5,1.7,5-1
		c0.9-5.4,2.7-13,7.2-16.5c3.1-2.4-1.1-6.9-4.2-4.4c-5.3,4.2-7.7,12.8-8.8,19.2c-0.1,0.8,0.1,1.6,0.4,2.2c-0.8-1.3-1.6-2.9-2.2-4.7
		c-2.8-9.1-2.5-19.8-3-29.3c-1-18.5-0.7-37-0.1-55.5c1.1-37,0.3-74,2-110.9c1.7-36,2.5-71.7,2.3-107.7c-0.1-19.4-1.2-39.2,2.8-58.3
		c3.6-16.9,7.4-37.4,15.7-52.6c1.9-3.5-3.3-6.7-5.2-3.2c-8.4,15.3-11.7,34.6-15.7,51.5c-4.4,18.7-3.8,37.6-3.8,56.6
		c0.2,43.8-1.4,87.2-3.1,130.9c-1.6,42.7-2.3,86.1-1.8,128.9c0.2,16.8-1.5,38.9,4.9,54.9c4,10,10.8,12,18.7,13.9
		c0.3,0.8,0.9,1.4,1.9,1.7c23.4,6.6,47.6,5.7,71.7,6.2c28.6,0.7,57,2.9,85.6,3.1c60,0.3,119.4-1.4,179.4,2.1
		c49.9,3,99.7,2.8,149.7,1.1c17.4-0.6,58.1-0.3,59.9-24.8C1378.3,782.9,1372.1,782.7,1371.8,786.7z"/>
	<path class="st4" d="M823.2,619.4c-5.8,17.8-11.7,35.6-16.4,53.7c-1,3.8,4.9,5.6,5.9,1.8c4.7-18.2,10.6-35.9,16.4-53.7
		C830.3,617.4,824.4,615.7,823.2,619.4z"/>
	<path class="st4" d="M1041.7,775.3c1,11.1-9.7,18.9-9.2,30.2c0.2,3.9,6.3,4.1,6.1,0.1c-0.5-11.1,10.3-18.7,9.2-30.2
		C1047.5,771.5,1041.3,771.4,1041.7,775.3z"/>
	<path class="st4" d="M1349.6,683.7c-1.8,5.6-4.9,9.6-9,13.6c-2.9,2.7,1.4,7.2,4.2,4.4c4.9-4.7,8.6-9.8,10.7-16.3
		C1356.7,681.7,1350.8,680,1349.6,683.7z"/>
	<path class="st4" d="M1353.5,694.5c-3,4.3-5.3,9-7.3,13.9c-1.5,3.7,4.4,5.4,5.9,1.8c1.8-4.4,4-8.5,6.6-12.4
		C1361,694.4,1355.7,691.2,1353.5,694.5z"/>
	<path class="st4" d="M1184.4,429.1c-0.6,4.4-1.8,8.8-2.2,13.2c-0.3,3.9,5.8,4.1,6.1,0.1c0.4-4.5,1.6-8.8,2.2-13.2
		C1191.1,425.4,1185,425.3,1184.4,429.1z"/>
	<path class="st4" d="M1190.8,440.7l-0.1,5.7c-0.1,4,6.1,4.1,6.1,0.1l0.1-5.7C1197.1,436.9,1190.9,436.7,1190.8,440.7z"/>
	<path class="st4" d="M856.8,375.9c-0.6,6.1-3.6,11.7-4,17.9c-0.3,4,5.9,4.1,6.1,0.1c0.4-6.2,3.4-11.8,4-17.9
		C863.3,372.1,857.2,372,856.8,375.9z"/>
	<path class="st4" d="M864.9,388.1l-0.1,2.4c-0.1,4,6.1,4.1,6.1,0.1l0.1-2.4C871.2,384.3,865,384.2,864.9,388.1z"/>
</g>
<g id="Gamepad_2">
	<path class="st2" d="M1907.5,1056.8c-25.6,7.4-54.9,4.9-81.3,5.1c-25.7,0.2-51.4-1-77.1-1.5c-28-0.5-56.1-1.1-84.1-0.2
		c-27,0.9-53.5,3.2-80.5,2.4c-10.4-0.3-20.8-1-31.1-0.4c-11,0.7-19.9,5.2-21.4-9.9c-0.8-8,1.3-17.2,1.7-25.2
		c0.7-13.2,1-26.4,1.8-39.6c3.6-54.9,4.3-109.9,5.8-164.9c0.1-4-6-4.1-6.1-0.2c-1.7,62.1-4.4,124.1-6.9,186.2
		c-0.5,10.9-1,21.8-1.8,32.7c-0.5,6.5-2.2,15.5,0.6,21.8c5.1,11.3,21.5,5.3,31.1,4.9c29.6-1.3,59,1.1,88.7-0.7
		c30-1.8,60.1-1.4,90.1-0.9c29.7,0.5,59.4,1.9,89.1,1.7c27-0.2,56.8,2.4,83-5.2C1912.7,1061.7,1911.3,1055.7,1907.5,1056.8z"/>
	<path class="st2" d="M1934.8,975.7l3.7-128.6c0.1-2-1.4-3-2.9-3c0.9-0.8,1.4-2.2,0.7-3.6c-8.9-17.4-33.7-16.3-50.4-16.9
		c-36.3-1.4-72.4-4.1-108.7-5.2c-37.8-1.2-75.7-3.1-113.5-3.8c-19.8-0.4-39.5,1.7-59.3,1.8c-19.3,0.1-38.5-1.8-57.8-1.6
		c-3.9,0-4.1,6.2-0.2,6.1c16.4-0.2,32.7,1.1,49.1,1.5c17.7,0.4,35.3-1.6,53-1.7c34.9-0.3,69.8,2.1,104.6,3.1
		c33.8,1,67.6,2.1,101.4,4c13.3,0.8,26.6,1.5,39.9,2.2c12.3,0.6,30.1,0.9,36.5,13.4c0.6,1.1,1.4,1.5,2.4,1.5c-0.5,0.5-0.8,1.1-0.9,2
		l-4.7,165.4c-0.5,17.1,2.5,37.2-11.6,49.6c-3,2.6,1.2,7.1,4.2,4.5c9.4-8.2,12.2-17.3,12.8-29.5
		C1934.2,1016.5,1934.3,996.1,1934.8,975.7z"/>
	<path class="st2" d="M1666.2,952.7c-3-9.5,4.3-26.4-4.8-33.6c-6.2-4.9-16.7-2.4-24.4-0.6c-1.6-15.7-3.9-17.7-2.6-33.4
		c0.1-1.3-0.5-2.1-1.4-2.6c0.9-1.8,0.1-4.5-2.5-4.6c-10.1-0.5-19.8,0.7-29.8,2.4c-1.7,0.3-2.5,2.2-2.3,3.7c2.6,16,2.1,18.4,3.7,34.5
		c-12.2-0.5-24.3-2.2-36.4,0.3c-1.2,0.3-2.4,1.6-2.3,2.9c0.5,10.4,2.2,20.5,4,30.8c0.3,1.5,2.2,2.8,3.7,2.3c6.2-2.3,23-4.8,29-0.9
		c5.1,3.3,0.7,28.5,0.7,34.2c0,1.8,1.3,3,3,3.2c8.3,0.8,16.5,1.9,24.9,1.5c1.7-0.1,3.1-1.2,3.2-3c0.4-7.4-2.5-24.7,2.5-29.9
		c3.2-3.4,25.2-3.3,28.7-3.1C1665,956.6,1666.8,954.6,1666.2,952.7z M1629.8,953.7c-1.6,0.1-3.2,1.2-3.2,3c0,5.3,2.6,23.4-0.5,27.3
		c-3.3,4.1-16.3,3.6-19.1-1.5c-4.7-8.4,6.6-21.3,2.5-29.9c-4.4-9.4-26.1-7.7-36.6-5c-0.7-3.9-1.4-7.7-1.9-11.6
		c-1.1-8.2-2.3-11.3,7.3-12.8c8.6-1.3,18.5,1.2,27.2,1.4c2.2,0,3.3-1.8,3.1-3.8c-2.3-16.3-1.6-18.8-3.7-35.1
		c7.8-1.3,15.7-2.1,23.6-1.8c-0.1,0.3-0.2,0.6-0.3,0.9c-1.5,17.3,1.2,20.8,3.1,38.1c0.2,1.7,2.3,2.5,3.7,2.3
		c9.9-1.9,24.7-5.8,24.4,8.5c-0.1,5.8-0.9,11.1,0,16.6C1649.4,950.6,1639.9,953.3,1629.8,953.7z"/>
	<path class="st2" d="M1693.4,1037.9c0.5-23.5,0.6-47,0.4-70.6c-0.2-27.4-0.2-54.8-0.2-82.1c0.1-21-6.4-48.1,0.5-68.1
		c1.3-3.7-4.6-5.5-5.9-1.8c-5.8,16.8-1,34.9-0.7,52.1c0.4,24.5-0.1,49.1-0.1,73.6c0.1,24.2,0.5,48.5,0.2,72.7
		c-0.1,4.4,2.2,43.8-2.3,46c-3.6,1.7-0.6,7.1,2.9,5.4C1695.4,1061.8,1693.2,1044.2,1693.4,1037.9z"/>
	<path class="st2" d="M1831.2,945.7c-0.1-41.8-0.4-83.7,0.7-125.5c0.1-4-6-4.1-6.1-0.2c-1.1,41.8-0.8,83.6-0.7,125.5
		c0.1,40.2-2.1,79.9-3.6,119.9c-0.2,4,6,4.1,6.1,0.2C1829.2,1025.5,1831.3,985.8,1831.2,945.7z"/>
	<path class="st2" d="M1768.4,963.6c-9.9-9.4-24-15.4-35.1-23.2c-1.1-0.8-2.3-0.5-3.2,0.2c-1.2-1.5-3.7-2-4.9,0.2
		c-2.2,4.3-6.4,6.8-5.4,12.2c0.9,4.9,6.1,8.4,9.9,11c7,4.8,14.5,8.8,21.9,12.9c4,2.3,8.7,5.6,13.5,3.6
		C1772.8,977.1,1774.1,969,1768.4,963.6z M1764.2,973.3c-4.4,4.2-20.8-8-24.7-10.3c-3.7-2.2-10-5-12.1-8.8c-1.7-3.2-0.2-5.3,1.5-7.8
		c0,0,0,0,0,0.1c0.8,1.9,2.6,2,4,1.1c6.1,4.1,12.3,8,18.5,11.9C1754.7,961.5,1769.4,968.3,1764.2,973.3z"/>
	<path class="st2" d="M1796,923c-3.2-4.8-11-7.7-15.7-10.7c-5.9-3.7-13.9-10.6-21.1-11.6c-6.4-0.9-12.3,7.6-8.4,11.8
		c0.1,0.5,0.3,1,0.7,1.4c5.1,5.6,11.7,8.8,17.7,13.1c4.8,3.5,9.1,8,14.8,10C1792.4,940,1801.5,931.2,1796,923z M1786.7,931.6
		c-4.3-0.1-9.8-6.3-13-8.7c-5.3-4-11.1-6.9-15.9-11.4c0-1.2-0.5-2.4-2.1-2.9c0.8,0.2,3.8-1.1,4.8-0.8c1.1,0.2,2.5,1.5,3.5,2.1
		c3.9,2.3,7.9,4.5,11.7,6.9c2.9,1.8,5.7,3.6,8.6,5.3C1786.9,923.6,1796.5,931.8,1786.7,931.6z"/>
	<path class="st2" d="M1896.2,875c-6.7-10.4-18.7-14.1-29.9-10.8c-0.9-0.7-2.1-0.9-3.3,0c-12,8.7-19.1,24.8-7.9,37.3
		c9,10,27.4,15.1,38.9,6.6C1904.5,900.2,1902.6,884.8,1896.2,875z M1891.4,902.2c-7.9,7.3-22,3.6-29.4-2.6c-9.9-8.2-6.9-20,1.2-27.7
		c0.2-0.1,0.3-0.1,0.5-0.2c9.7-5.4,21.3-2.9,27.3,6.4C1895.4,884.9,1898.1,896,1891.4,902.2z"/>
	<path class="st2" d="M1894.7,964.4c-10.3-12.7-28.8-9.9-38.7,1.6c-1.2,1.3-0.8,2.8,0.2,3.7c-9,9.5-9,26.7,2.8,33.9
		c11.3,6.9,27.3,6.1,35.6-4.9C1901.8,989,1902.4,973.9,1894.7,964.4z M1890.6,993.6c-5.1,8.3-14.9,9.7-23.6,6.9
		c-11.9-3.8-15.5-18.9-5.7-27.5c1.4-1.2,1.3-3,0.4-4.2c7.9-8.2,22.3-9.8,29.2,0.7C1895.5,976.6,1895,986.6,1890.6,993.6z"/>
	<path class="st2" d="M1603.5,887.6c-1.4-2-4.6-1.9-5.5,0.2c-1.5-0.6-3.4,0.1-4,1.9c-3.5,10.2-2.9,23.5,3.3,32.7
		c1.3,1.9,3.8,1.9,5.1,0.3c1.5-0.1,3.1-1.4,3.3-3c0.2-1.1,0.1-2.3,0.2-3.4c0.1-0.2,0.3-0.4,0.3-0.7
		C1608.8,906.6,1609.2,895.5,1603.5,887.6z"/>
	<path class="st2" d="M1602.2,910c0.6-0.5,1.2-1.2,1.3-2.2c0.4-2.9-5.1-18.9-3-19.5c1.3-0.4,2-1.3,2.2-2.3c0.2-0.1,0.2-0.3,0.4-0.4
		c2.5-1.3,1.7-6.1-1.4-5.8c-3.2,0.3-5.3,1.3-6.8,2.7c-11.6,3,0.7,25.6,2.5,32.8c1,3.8,6.9,2.4,6-1.5
		C1603,912.5,1602.6,911.3,1602.2,910z"/>
	<path class="st2" d="M1628.2,989.1c-4.5-0.1-8.9-0.7-13.3-0.9c-5.8-0.2-10.4,2.5-11.9-5.1c-0.7-3.6,0.7-7.9,0.6-11.5
		c-0.1-5-1.2-9.8-1.1-14.9c0-1.4-0.7-2.3-1.7-2.7c0-1.1,0-2.3,0-3.4c-0.2-3.9-6.3-4.1-6.1-0.1c0.6,14.9-1.6,29.6-1.6,44.5
		c0,1.7,1.3,3,3,3.1c11.2,0.7,21.8-0.9,32.8-3C1632.3,994.6,1631.6,989.3,1628.2,989.1z"/>
	<path class="st2" d="M1658.2,951.5c-0.3-0.1-0.5-0.3-0.8-0.3c-6.7-0.7-16.5,2.1-21.6,6.6c-0.6,0.6-0.9,1.2-0.9,1.9
		c-1,0.1-1.8,0.3-1.5,0.6c-2.4-2.4-6,0.4-5.2,3c-1.7,1.8-0.1,5.6,3.1,5.1c7.1-1.1,14.1-2,20.3-4.7c0.3-0.1,0.6-0.1,0.8-0.2
		c0.6-0.2,1-0.6,1.5-0.9c2.9-1.5,5.7-3.5,8.1-6.3C1664.4,953.5,1660.9,949.5,1658.2,951.5z"/>
	<path class="st2" d="M1601.1,957.9c0.6-0.7,0.9-1.6,0.6-2.6c-2.4-11.2-20.7-5.6-29.9-1.4c-0.7-1.8-1.5-3.6-2.3-5.6
		c-1.9-4.3-2.1-8.9-3.8-13.2c-0.3-0.7-0.8-1.2-1.4-1.6c0.3-3.1,1.4-5.9,3.7-7.8c3.1-2.4-1.2-6.9-4.2-4.4c-10.4,8.2-4.8,25.8,0,35.8
		c1.7,3.6,4.1,5.5,7.7,5.8c7.7,4.2,19.9,0.5,27.8,0.5C1602.5,963.5,1603.1,959.4,1601.1,957.9z"/>
	<path class="st2" d="M1763,974.9c-0.5,1.8-1.5,2.9-2.6,3.5c-0.1,0-0.2-0.1-0.4-0.2c-6.8-1.3-12.6-5-18.6-8.1
		c-0.5-0.3-1.1-0.3-1.6-0.3c-8.8-5.9-24.1-12.3-12.5-24.5c2.7-2.9-1.5-7.3-4.2-4.4c-5.2,5.5-8.8,14.6-4.1,21.5
		c3.9,5.8,12.6,9.2,18.3,13.1c8.8,6.1,26.8,17.5,31.8,1.2C1770,972.9,1764.1,971.1,1763,974.9z"/>
	<path class="st2" d="M1790.3,930.4c-0.5,3.6-2.1,5.2-4.3,5.7c0.5-1.3,0.2-2.8-1.2-3.5c-4.9-2.5-9.8-5.1-14.7-7.7
		c-1.4-1.1-2.8-2.2-4.1-3.5c-3.4-3.2-6.2-6.2-10.6-7.9c-0.4-0.2-0.8-0.2-1.2-0.1c-0.3-1.4-0.2-3,0.5-5c1.3-3.7-4.6-5.5-5.9-1.8
		c-2.2,6.2-1.6,11.2,3.6,15.5c0,0,0,0,0.1,0c3.8,7.1,15.3,14.1,19.8,16.5c10.4,5.5,22.4,5.9,24.2-8.1
		C1797,926.7,1790.8,926.5,1790.3,930.4z"/>
	<path class="st2" d="M1898.6,903.9c0.9-3.9-4.9-5.1-6-1.4c-0.4,1.3-1,2.3-1.5,3.3c-3.3,4.8-10.2,4.9-15.9,3.7
		c-3.3-0.7-6.5-1.8-9.5-3.5c-1.4-0.8-2.8-1.7-4.1-2.7c-0.9-0.7-1.2-1.4-1.5-1.8c0.1-1.5-0.8-3-2.4-3.4c-1.2-0.6-2.6-0.3-3.6,0.6
		c-3.6-9.6-0.2-21.4,9.1-27.9c3.2-2.3,0-7.5-3.3-5.2c-16.4,11.4-18.8,36.4-1.6,48.2c12.7,8.8,30.4,8.4,38-4.8
		C1897.3,907.7,1898.1,906,1898.6,903.9z"/>
	<path class="st2" d="M1899.1,988c0.6-3.3,0.7-6.8,0.1-10.2c-0.7-3.9-6.8-3-6.1,0.9c0.4,1.9,0.4,3.9,0.3,5.8c-0.2,0.5-0.4,1-0.4,1.7
		c0,0.3,0,0.6,0,0.9c-0.6,3.2-2,6.3-3.8,9.1c-6,6.6-17.7,10-24.6,7.3c-8.5-3.4-11.3-10.5-10.8-17.8c0.3-2,0.7-4,1.2-6
		c1.3-4.1,3.6-8,6.5-11.1c2.7-2.9-2.3-6.5-5-3.6c-0.4,0.4-0.8,0.9-1.1,1.3c-1.3-0.2-2.6,0.2-3.2,1.8c-1,2.6-1.9,5.5-2.6,8.5
		c-1.2,3.5-1.9,7.1-1.8,10.7c-0.9,12,2.7,23.2,17.6,25.8c12.5,2.3,24.1-4.9,30.1-15.3C1897.5,994.8,1898.8,991.5,1899.1,988z"/>
	<path class="st2" d="M1505.2,1023.4c-0.3,19.9-2.5,40.2,4.9,59.1c-2.7,1-2.5,5.4,0.6,5.9c2.6-1.9,5.2-3.8,7.7-5.9
		c-0.2,0-0.5,0-0.7,0c6.5-4.5,11.1-12,15.6-18.3c2.3-3.2-3-6.4-5.2-3.2c-3.9,5.5-7.8,12-13.3,16.1c-6.9-20.3-3.4-44.5-3.2-65.4
		c0.2-23.8,0-47.7,0.2-71.5c0.2-22.2-3.2-50,7-70.4c7.7-15.5,20.8-30.7,25.3-47.5c1-3.8-4.9-5.6-5.9-1.8
		c-5.8,21.6-24.8,38.3-29.9,60.4c-4.8,20.7-2.7,43.9-2.8,65.1C1505.3,971.7,1505.6,997.5,1505.2,1023.4z"/>
	<path class="st2" d="M1927.4,1059.9c1.6-4,3.1-8.1,4.8-12.1c-0.8,0.6-1.3,1.6-1.2,2.6c-2.5,2.4-11,8.3-12,9.2
		c-5.5,4.5-11.3,8.6-16.9,13c-9.1,7.2-17,10.1-28.6,10.7c-8.3,0.4-16.5,1.4-24.7,2.3c-34.2,3.8-68.8,3.8-103.2,3.9
		c-67.2,0.3-162.2-7.6-229.3-7.5c-2.2,2.1-4.6,4.2-6.9,6.1c77.2-0.3,182.3,8.2,259.5,7.4c37-0.4,73.4-4.3,110.2-6.3
		c13.9-0.8,20.5-7,31.3-15.3c5.7-4.5,11.4-8.8,16.9-13.4C1927.3,1060.4,1927.4,1060.1,1927.4,1059.9z"/>
	<path class="st2" d="M1687.1,1060.3c-4.8,4-8.1,10-10.7,15.6c-2.4,5-4.9,10.6-5.1,16.3c-0.1,4,6,4.1,6.1,0.1
		c0.3-9.1,7-21.9,13.9-27.6C1694.4,1062.2,1690.1,1057.8,1687.1,1060.3z"/>
	<path class="st2" d="M1823.5,1063.4c-9.1,8.2-15,19.2-21.5,29.4c-2.1,3.3,3.1,6.6,5.2,3.2c6.2-9.8,11.8-20.3,20.5-28.1
		C1830.6,1065.2,1826.4,1060.8,1823.5,1063.4z"/>
	<path class="st2" d="M1566.4,836.7c-0.3,5-2.5,9-6.9,11.5c-3.4,2-0.5,7.3,3,5.4c6.3-3.6,9.7-9.5,10.1-16.8
		C1572.8,832.9,1566.6,832.7,1566.4,836.7z"/>
	<path class="st2" d="M1572.7,849.6c-3.1,3.8-5.4,8.1-6.8,12.9c-1.1,3.8,4.8,5.6,5.9,1.8c1.2-4.3,3.3-8,6.1-11.4
		C1580.4,849.8,1575.1,846.6,1572.7,849.6z"/>
	<path class="st2" d="M1910.2,849.8c-3.3-1.5-6.2-4-8.3-7c-2.3-3.2-7.7-0.3-5.4,3c3.1,4.4,6.9,7.7,11.9,9.9
		C1912.1,857.3,1913.8,851.4,1910.2,849.8z"/>
	<path class="st2" d="M1708.9,1047.1c-1.2-1.6-2.3-3.3-3.5-4.9c-2.3-3.2-7.7-0.2-5.4,3c1.2,1.6,2.3,3.3,3.5,4.9
		C1705.8,1053.2,1711.2,1050.3,1708.9,1047.1z"/>
	<path class="st2" d="M1817.1,874.5c-37-0.9-74-3.2-111-4.1c-4-0.1-4.1,6-0.1,6.1c37,0.9,74,3.2,111,4.1
		C1821,880.7,1821.1,874.6,1817.1,874.5z"/>
	<path class="st2" d="M1814.1,852.2c-16.4-3.1-33.4-1.1-50.1-2.2c-19.4-1.3-38.8-0.1-58.1-0.3c-4-0.1-4.1,6.1-0.1,6.1
		c17.4,0.2,34.9-0.8,52.4,0c17.7,0.9,36.8-1,54.2,2.3C1816.2,858.8,1818,852.9,1814.1,852.2z"/>
	<path class="st2" d="M1808.2,835.4c-33.6-0.8-67.2-2.6-100.8-3.4c-4-0.1-4.1,6-0.1,6.1c33.6,0.8,67.2,2.6,100.8,3.4
		C1812,841.6,1812.2,835.5,1808.2,835.4z"/>
</g>
<g id="Cartridge">
	<path class="st1" d="M1955.8,1399.2c-2.1-3.3-7.5-0.4-5.4,3c0,0-25.7,5-28.7,5.1c-20.7,0.9-41.8-0.6-62.5-0.9
		c-22-0.3-44.1-1.4-66.1-0.2c-11.7,0.6-23.4,1.6-35,2.1c-5.6,0.2-24.6,3.2-26.1-2.7c0.4-0.3,0.7-0.6,1.2-1.1
		c2.2-2.1,0.2-5.2-2.2-5.3c-0.5-8.7-1-17.4-1.3-26.1l-6.2-0.1c0.4,10.2,0.9,20.4,1.6,30.6c0,0.7,0.3,1.2,0.6,1.7
		c-0.2,1.9-0.2,3.9,0,5.8c0.1,1.7,1.2,3,3,3.1c29.4,1.8,58.5-2.7,87.9-2.4c28.4,0.3,56.8,0.8,85.2,1.3
		C1906.8,1413.2,1965.5,1414.2,1955.8,1399.2z"/>
	<path class="st1" d="M1726.3,1373.3c-1.9-0.2-3.6,0.4-5.5,0.2c-5.1-0.4-3.8,1.1-5.9-2.6c-3.4-6.2,0.4-23,0.7-30.4
		c0.9-21.2,1.5-42.2,0.8-63.4c-1.3-40.5-4.4-80.9-3.6-121.4c0.1-4-6.1-4.1-6.1-0.1c-0.7,36.6,1.7,73.1,3.2,109.6
		c1.5,37.3-1.6,74.4-0.9,111.7c0,1.7,1.3,3.1,3,3.1c4.7,0.1,9.6-1.1,14.2-0.5C1730.1,1379.9,1730.2,1373.7,1726.3,1373.3z"/>
	<path class="st1" d="M1972.1,1254.4c-1-34.2,5.7-69.1-2.1-102.8c-0.3-1.4-1.3-2.1-2.5-2.2c-0.3-0.2-0.5-0.4-0.8-0.5
		c-12.3-3.3-27.9-1.3-40.4-1.6c-25-0.5-49.9-0.1-74.8,0.3c-47.1,0.7-94.5-4.3-141.6-1.2c-3.9,0.3-4.1,6.4-0.1,6.1
		c45.1-3,90.4,1.8,135.6,1.2c23.1-0.3,46.2-1,69.3-0.6c3.9,0.1,48.5,0.1,48.4-0.1c0.2,0.9,0.8,1.5,1.4,1.8
		c8,36.8,0.6,76.5,2.1,113.9c0.8,20.4,1.7,40.8,0.7,61.2c-0.4,8.9-1.1,17.8-1.5,26.7c-0.2,4.6,1.2,10.2-3.4,12.8
		c-1.2,0.7-11.1,0.8-12.2,1c-1.4,0.2-2.2,1.7-2.3,2.9c-1,10.3,0,20.4,2.3,30.5c0.9,3.9,6.8,2.4,6-1.5c-1.4-6.1-2.3-12.2-2.5-18.5
		c-0.3-9.8,5.8-8.2,14.4-8.2c1.7,0,3.1-1.3,3.1-3C1973.1,1332.9,1973.3,1294,1972.1,1254.4z"/>
	<path class="st1" d="M1729.5,1408.1c-2.8,2.7-5.8,5.1-8.6,7.7c-1.4-7.5-1.7-15.1-3-22.7c1.6-6.3,6.9-11.1,11.4-15.5
		c2.9-2.7-1.4-7.2-4.2-4.4c-4.9,4.7-9.7,9.7-12.2,15.9c-1,0.6-1.6,1.7-1.3,3.2c0,0,0,0.1,0,0.1c-1.6,0-3.1,0-4.7-0.1
		c3.5-5.4,6.6-10.9,9.6-16.6c1.8-3.5-3.4-6.7-5.2-3.2c-2.3,4.3-4.6,8.6-7.1,12.7c-1.1-40.4-0.3-80.6-2.4-121
		c-1.1-21.1-0.9-42.2-1.6-63.3c-0.3-10.3-3.1-21.9,0.2-31.9c2.2-6.8,6.5-12.7,8.3-19.6c1-3.8-4.9-5.6-5.9-1.8
		c-1.8,6.9-6.2,12.8-8.3,19.6c-2.4,7.4-1.4,14.7-0.9,22.4c1.3,22.8,0.7,45.7,1.8,68.5c2.2,45.6,1.2,91.1,2.9,136.7
		c-0.2,1.7,0.7,3.5,2.8,3.6c3.8,0.1,7.6,0.2,11.5,0.2c1,8.1,1.2,16.4,3.6,24.3c0.8,2.7,4,3,5.6,0.9c3.3-4.4,8-7.3,11.9-11.2
		C1736.5,1409.7,1732.3,1405.3,1729.5,1408.1z"/>
	<path class="st1" d="M1952.4,1404.8c-5.6,5-8.1,14.2-13.9,18.3c-6.1,4.3-16.1,0.8-22.8,0.4c-22.4-1.4-45.2-1.3-67.6-1
		c-44.6,0.8-89.1,6.9-133.8,6.6c-4,0-4.1,6.1-0.1,6.1c49.4,0.4,98.6-6.8,148-6.7c21.7,0,43.3,0.9,65,2.2c18.4,1,17.3-10.5,29.6-21.6
		C1959.6,1406.6,1955.3,1402.2,1952.4,1404.8z"/>
	<path class="st1" d="M1960.3,1371.3c-0.4,0.5-0.7,1.1-1.1,1.6c-0.1,0-0.2,0-0.3,0c1-3.5-4.5-5-5.9-1.5c-1.2,3.1-1.8,6.4-2.2,9.7
		c-0.1,0.4,0,0.8,0.1,1.1c-0.9,1.7-1.7,3.4-2.3,5.2c-0.6,1.6,0.4,3,1.7,3.6c0.9,1,2.4,1.6,3.7,0.7c4.9-3.1,7.6-8.1,9.8-13.3
		c0.3-0.6,0.3-1.1,0.2-1.6c0.5-0.8,1-1.6,1.5-2.4C1967.6,1371.1,1962.6,1368.1,1960.3,1371.3z"/>
	<path class="st1" d="M1731.7,1409.5c0.1-0.2,0.3-0.4,0.4-0.6c1.3-2.4-1-5.6-3.6-4.5c1.2-2,2.3-4.2,3.2-6.5c0.8-2.2-1.3-4.1-3.4-3.9
		c0.2-0.4,0.5-0.8,0.7-1.2c1.3-2.1-0.6-4.9-2.8-4.7c0.2-0.5,0.4-1,0.5-1.6c0.7-2.5-2.1-4.9-4.4-3.6c-1,0.5-2,1.2-2.9,1.9
		c-1.9,1.3-1.6,3.7-0.4,5c-1.2,2.7-2.8,5.2-4.5,7.7c-0.4-3.3-4.9-3.8-5.9-1.4c-0.7,0.5-1.2,1.2-1.2,2.4c-0.1,10.8,1.4,21.5,1.3,32.3
		c0,3.9,5.9,4.1,6.1,0.3c1,0.4,2.2,0.4,3.2-0.5c6-5,10.9-10.3,14.3-17.4C1732.9,1411.8,1732.5,1410.4,1731.7,1409.5z"/>
	<path class="st1" d="M1924.6,1418.6c-5.8-1.2-11.5-1.6-17.2-1.6c-0.5-0.4-1-0.7-1.8-0.7c-28.2-0.5-56.3,2-84.5,2.1
		c-19.9,0.1-39.8-1-59.6,1.5c-6.7-0.6-14.1-0.9-19.6,2.2c-3.4,2-0.5,7.4,3,5.4c0.6-0.3,1.3-0.5,1.9-0.8c0.6,1,1.7,1.6,3.2,1.3
		c3.2-0.7,6.4-1.3,9.6-1.7c1-0.2,2.1-0.2,3.1-0.4c0.6-0.1,1.2-0.1,1.7-0.2c5.3,0.6,10.5,1.5,14.4,1.8c16.9,1.1,34,1,50.9,0.8
		c17.8-0.2,35.6-0.6,53.4-0.3c14.4,0.3,28.3,1.8,41.9-3.8C1927.6,1423.3,1927.1,1419.1,1924.6,1418.6z"/>
	<path class="st1" d="M1954.7,1153c0.2-4-5.9-4.1-6.1-0.1c-1,18.6,2.1,37,1.8,55.6c-0.3,19.7-1,39.5-1.8,59.2
		c-0.4,8.9-0.8,17.7-1.4,26.6c-0.3,5.2,1.1,18.5-2.5,23c-3.4,4.3-18.6,3.7-24.2,4.3c-9.2,0.9-18.5,1.6-27.7,2.2
		c-8.5,0.5-17.3,1.6-25.8,1.5c-12.1-0.2-8.6-7.8-8.5-18.5c0.1-18.8,0.2-37.5-1-56.2c-1.2-19.6-1.4-39.2-1-58.9
		c0.3-13.4,3.1-27.3-0.2-40.5c-1-3.8-6.9-2.4-6,1.5c3.1,12.5,0.4,26.1,0,38.8c-0.4,15.7-0.5,31.4,0.3,47.1
		c1.4,30.2,1.3,60.2,1.8,90.4c0,1.5,1.3,3.3,3,3.1c25.9-2,51.8-3.3,77.7-5.7c11.2-1.1,17.6-0.3,19-12.3c3-26,3-52.7,3.8-78.8
		C1956.7,1207.8,1953.3,1180.2,1954.7,1153z"/>
	<path class="st1" d="M1904.7,1269c-6.2-2-12.8-1.7-19.2-1.7c-1.6,0-2.5,1-2.9,2.1c-1.1-0.2-2.2,0.2-2.9,1.3
		c-4.6,6.9-10,13.6-11.9,21.9c-0.5,2.1,1.3,4.6,3.7,3.9c8.5-2.6,17.7-5.3,26.7-4.4c1.6,0.2,3.2-1.4,3.1-3c-0.1-6,3.8-10.7,5.4-16.2
		C1907.2,1271.2,1906.3,1269.5,1904.7,1269z M1875.6,1288.8c2.4-5.3,6.2-10,9.4-14.9c0.1-0.2,0.1-0.4,0.2-0.6c0.1,0,0.1,0,0.2,0
		c4.8,0,9.7-0.2,14.4,0.7c-1.6,3.9-3.6,7.4-4.3,11.6C1888.8,1285.5,1882,1287,1875.6,1288.8z"/>
	<path class="st1" d="M1925.4,1268.3c-1.5,0.1-3,0.1-4.5,0.2c-1.1-1.5-3.8-2-5.3,0c-4.7,6.2-7.4,13.4-11.2,20.1
		c-1.1,1.9,0.1,4.8,2.5,4.7c4.3-0.2,8.4-1.4,12.7-1.8c1.8-0.2,3-1.2,3.1-3c0.6-5.8,3.6-10.9,5.5-16.2
		C1928.9,1270.5,1927.3,1268.2,1925.4,1268.3z M1918.7,1275c0.7-0.1,1.4-0.2,2.1-0.3c-1.4,3.6-2.8,7.2-3.6,11
		c-1.6,0.2-3.1,0.5-4.7,0.8C1914.4,1282.6,1916.3,1278.6,1918.7,1275z"/>
	<path class="st1" d="M1940.7,1269.3c0.7-3.9-5.2-5.7-5.9-1.8c-1.1,6.1-4.8,11.2-6.4,17.2c-0.6,2.2,1.4,4.5,3.7,3.9
		c7.4-1.9,9.8-10.2,9.7-17C1941.8,1270.6,1941.3,1269.8,1940.7,1269.3z"/>
	<path class="st1" d="M1932.8,1154.1c2.3-3.2-3-6.4-5.2-3.2c-10.9,15.5-29.3,23.7-37.8,41.1c-1.1,2.3,0.6,5.2,3.4,4.6
		c7.8-1.8,15.8-2.6,23.7-3.6c-11,10.9-20.5,22.9-30.6,34.6c-10.2,11.8-22.8,21.4-29.9,35.5c-1.8,3.5,3.5,6.8,5.2,3.2
		c7.5-14.9,21.6-25.5,32.1-38.2c10.9-13.1,21.6-26.1,34.4-37.4c2.4-2.1,0-5.7-2.9-5.2c-8.9,1.7-17.9,2.3-26.7,3.8
		C1907.8,1175.8,1923.3,1167.6,1932.8,1154.1z"/>
	<path class="st1" d="M1754.9,1148.7c-0.9-3.8-6.9-2.4-6,1.5c2.6,11.1,3.4,22.7,3.2,34.1c-0.1,4,6.1,4.1,6.1,0.1
		C1758.5,1172.4,1757.7,1160.3,1754.9,1148.7z"/>
	<path class="st1" d="M1809.3,1150.7c0.1-4-6.1-4.1-6.1-0.1c-0.2,12,0.3,23.9,0.2,35.9c0,4,6.1,4.1,6.1,0.1
		C1809.6,1174.6,1809.1,1162.7,1809.3,1150.7z"/>
	<path class="st1" d="M1762.5,1401.9c-0.6-2.9-1.2-5.7-1.6-8.7c-0.8-6.7-0.8-13.4-2-20c-0.7-3.9-6.7-2.4-6,1.5
		c1.1,5.6,1,11.3,1.7,16.9c0.3,2.7,0.5,5.5,1,8.2c0.1,0.6,0.4,2.8,0.8,3.5c-0.3,1.1,0.1,2.3,1.4,3c0.2,0.1,0.3,0.2,0.5,0.3
		c1.9,1,3.8,0.2,4.6-1.7C1763.3,1403.7,1762.8,1403,1762.5,1401.9z"/>
	<path class="st1" d="M1813.4,1371.2c0.4-3.9-5.8-4.1-6.1-0.1c-1.1,11.8,2.8,23.2,2.3,34.9c-0.2,4,6,4.1,6.1,0.1
		C1816.2,1394.3,1812.4,1382.9,1813.4,1371.2z"/>
	<path class="st1" d="M1804,1194.5c1.6-1.2-5.6,0-7.4,0.2c-4.6,0.3-9.2,0.6-13.8,0.9c-8.6,0.5-17.3,1.1-25.9,1c-4,0-4.1,6.1-0.1,6.1
		c10.4,0.1,20.8-0.7,31.1-1.4c5.3-0.3,15.8,1,20.3-2.5C1811.4,1196.6,1807.2,1192.2,1804,1194.5z"/>
	<path class="st1" d="M1803.7,1215.2c-14-0.2-28,0.3-42,0.1c-4-0.1-4.1,6.1-0.1,6.1c14,0.3,28-0.2,42-0.1
		C1807.5,1221.4,1807.7,1215.2,1803.7,1215.2z"/>
	<path class="st1" d="M1803.6,1233.6c-0.1,0-0.2,0-0.3,0c0,0,0,0,0,0c-15.5-0.4-30.7,0.2-46.1,1c-3.9,0.2-4.1,6.3-0.1,6.1
		c15.6-0.7,30.9-1.4,46.5-1C1807.4,1239.8,1807.6,1233.7,1803.6,1233.6z"/>
	<path class="st1" d="M1804.4,1252.5c-12.5-7.4-28.8-3.3-42.5-3.4c-4,0-4.1,6.1-0.1,6.1c12.2,0.1,28.3-4.1,39.4,2.5
		C1804.6,1259.7,1807.8,1254.5,1804.4,1252.5z"/>
	<path class="st1" d="M1806.5,1270.6l-42-1c-4-0.1-4.1,6.1-0.1,6.1l42,1C1810.3,1276.8,1810.5,1270.7,1806.5,1270.6z"/>
	<path class="st1" d="M1807,1293.1c-14.7-0.2-29.4,0.6-44.1,0c-4-0.2-4.1,6-0.1,6.1c14.7,0.6,29.4-0.2,44.1,0
		C1810.8,1299.3,1811,1293.2,1807,1293.1z"/>
	<path class="st1" d="M1804.4,1319.7l-43-1c-4-0.1-4.1,6.1-0.1,6.1l43,1C1808.2,1325.9,1808.3,1319.8,1804.4,1319.7z"/>
	<path class="st1" d="M1803.9,1339.2c-15-0.3-30.1,0.3-45.1,0c-4-0.1-4.1,6.1-0.1,6.1c15,0.3,30.1-0.3,45.1,0
		C1807.7,1345.4,1807.9,1339.2,1803.9,1339.2z"/>
	<path class="st1" d="M1807.6,1356.7c-14.7-0.2-30,6.3-44.3,1.1c-3.7-1.3-5.5,4.5-1.8,5.9c15,5.4,30.6-1.1,45.9-0.9
		C1811.4,1362.9,1811.6,1356.7,1807.6,1356.7z"/>
	<path class="st1" d="M1804.8,1166.2c-16.4-1.1-33.2,2.4-49.3-2.3c-3.8-1.1-5.6,4.8-1.8,5.9c15.2,4.4,30.8,2,46.3,2.3
		c0.6,1.7,2.3,2.9,4.1,1.6c1.1-0.8,1.8-1.3,2.7-2.3C1808.6,1169.5,1807.5,1166.4,1804.8,1166.2z"/>
	<path class="st1" d="M1806.6,1178.3l-49.2-1.1c-4-0.1-4.1,6.1-0.1,6.1l49.2,1.1C1810.4,1184.6,1810.5,1178.4,1806.6,1178.3z"/>
	<path class="st1" d="M1885.5,1341.2c-8-0.1-16.1,0.6-23.9,2.5c-1.7,0.4-2.3,2-2.1,3.5c-0.7,1.5-0.3,3.6,1.7,4.5
		c5.2,2.2,8.9,7.6,12,12.1c1.5,2.1,4.8,2.1,5.6-0.6c2.1-6.5,7.1-11.6,9.5-18C1889.1,1343.3,1887.4,1341.2,1885.5,1341.2z"/>
	<path class="st1" d="M1796.7,1393.2c-6.7-6.7-16-9.4-23.9-14.4c-3.4-2.1-6.6,3.1-3.2,5.2c7.3,4.6,16.4,7.2,22.6,13.4
		C1795,1400.2,1799.5,1396,1796.7,1393.2z"/>
</g>
<g id="Cartridge_2">
	<path class="st5" d="M972.2,1513.9c4.5,0.1,2.2-19.8,2.2-22.6c-0.2-14.1,0.6-28.1,1.3-42.2c1.2-26,0.6-51.8,0.7-77.8
		c0.2-53.2,3.1-106.4,6.6-159.5c0.3-4-5.9-4.1-6.1-0.2c-3.5,55.1-6.6,110.2-6.6,165.4c0,28.1,0,56-1.3,84
		c-0.8,18.3-2.7,38.4-0.2,56.6c0.2,1.3,1.6,2.3,2.9,2.3l0.4,0C976,1520.2,976.2,1514,972.2,1513.9z"/>
	<path class="st5" d="M1534.3,1387c4.2-57,1.6-113.6,3-170.7c0.1-2.8-2.9-3.7-4.8-2.6c-0.1-0.8-0.5-1.6-1.3-2.1
		c-16-10.7-39.2-8.3-57.6-8.8c-25.8-0.6-51.5-1.3-77.3-2.3c-56-2.1-111.9-4.8-167.9-6.4c-53.8-1.5-107.6,3.2-161.5,3.8
		c-18.7,0.2-37.3-0.6-56-0.8c-8.7-0.1-23.1-1.5-28.9,6.6c-2.3,3.2,2.9,6.4,5.2,3.3c5.8-8,31.5-3.3,40.2-3
		c20.6,0.8,41.2,0.2,61.8-0.2c49.5-0.9,98.7-4.7,148.2-3.2c48.9,1.5,97.7,3.7,146.5,5.6c24.2,0.9,48.4,1.9,72.6,2.4
		c20.8,0.5,53.5-3.8,71.4,8.2c1.2,0.8,2.3,0.6,3.2,0c-1.3,54.8,1.6,109.3-2.6,164c-2.1,27-3.8,54.1-5.9,81.1
		c-0.9,12-2.3,23.9-2.2,35.9c0.1,10.7,1.1,21.8-2.8,32c-1.4,3.7,4.5,5.5,5.9,1.8c6.6-17.4,2.8-39.2,4.3-57.5
		C1530.3,1445.1,1532.2,1416.1,1534.3,1387z"/>
	<path class="st5" d="M1517.9,1540.2c-18.6,10.8-41.8,6-62.3,5.3c-24.4-0.8-48.7-1.5-73.1-2.4c-47.7-1.6-95.4-3.4-143.1-4.7
		c-47-1.3-94-2.1-141.1-1.5c-23.2,0.3-46.4,0.5-69.5,1.1c-9.5,0.3-19,0.7-28.4,1.4c-11.5,1-29,4.4-28.3-13.1c0.2-4-6-4.1-6.1-0.2
		c-0.2,5.2-1.4,13.5,3.1,17.6c4.8,4.5,18.7,2.6,24.1,2.3c23.4-1.3,46.6-2.3,70.1-2.6c53.7-0.7,107.4-0.7,161.1,0.6
		c54.7,1.4,109.4,3.5,164.1,5.3c25.8,0.9,51.7,1.3,77.5,2.5c18.8,0.9,37.9,3.5,54.9-6.4C1524.2,1543.6,1521.3,1538.2,1517.9,1540.2z
		"/>
	<path class="st5" d="M1004.3,1499.3c-4.9-3.4-10.8-3-14.2,2.2c-2.9,4.4-3.6,10.4-2.9,15.6c0.3,2,2,2.6,3.5,2.1
		c5.5,1,11.8-1,15.7-5.1C1011.1,1509.2,1009.6,1503,1004.3,1499.3z M993.9,1513.4c0.4-0.5,0.9-1,1.4-1.6c1.6-1.8,0.6-4.2-1-5.1
		c1-2.6,2.7-4.4,5.4-3C1007.5,1507.5,999.6,1512.9,993.9,1513.4z"/>
	<path class="st5" d="M1498.9,1501.8c-3.7-2.7-7.7-1.8-10.7,0.9c-0.9,0-1.7,0.4-2.3,1.5c-2.5,4.7-2.5,11.3,1.6,15.1
		c4.6,4.2,11.8,1,14.5-3.8C1504.6,1510.9,1503,1504.8,1498.9,1501.8z M1496.8,1512.2c-0.8,1.7-3.8,4-5.5,2.2c-1.1-1.2-1.2-3.2-0.9-5
		c0.2-0.2,0.5-0.4,0.6-0.7c1-1.7,2.4-3.4,4.3-1.9C1496.9,1508.1,1497.6,1510.5,1496.8,1512.2z"/>
	<path class="st5" d="M1520.9,1542.8c-0.8-3.9-6.8-2.4-6,1.5c0.9,4.3-10.4,13.3-13,15.8c-6.5,6.1-13.1,12-22,14.2
		c-11.7,3-24.9,0.5-36.8,0.2c-13.1-0.4-26.1-0.5-39.2-0.6c-52.4-0.6-104.9-0.3-157.3-1.2c-52-0.9-104-1.8-156,1.1
		c-23.8,1.3-47.5,3.3-71.3,3.9c-15.2,0.4-30.4,0.5-45.6-0.7c-6.1-0.5-28.4-0.6-31.1-8.5c13.5-5.1,17.9-20.8,30.6-26.6
		c3.6-1.6,0.6-7-3-5.4c-11.2,5.1-15.8,18.6-26.1,24.6c-0.3-33,3-65.7,4.5-98.7c1.7-35.5,2-71,1.5-106.5c-0.4-28.1-3.9-56.8-2.2-84.9
		c1.6-27.3,20-48.2,39.2-66.3c2.9-2.7-1.4-7.2-4.2-4.4c-14.9,14.1-33.4,33-38.7,53.5c-6.9,26.7-1,57.2-0.5,84.5
		c0.8,37.4,0.8,74.9-0.6,112.3c-1.5,38.5-5.8,76.8-5,115.3c0,0.1,0.1,0.2,0.1,0.3c-1.1,0.6-2,1.7-1.6,3.3
		c3.6,16.5,42.3,14.1,53.7,14.4c26.9,0.6,53.8-0.9,80.6-2.7c58.5-4.1,117-3.3,175.6-2.3c60.5,1,120.9,0.5,181.4,1.5
		c22.1,0.4,49.5,6.8,68.6-7.5C1503.5,1567.6,1523.2,1553.6,1520.9,1542.8z"/>
	<path class="st5" d="M974.2,1246.9c-6.1,15.6-19.4,28.2-29.5,41.2c-2.4,3.1,2.8,6.3,5.2,3.2c10.5-13.6,23.8-26.5,30.2-42.7
		C981.5,1245,975.6,1243.2,974.2,1246.9z"/>
	<path class="st5" d="M972.5,1276.4c-10.2,15.5-23.7,28.6-28.9,46.8c-1.1,3.8,4.8,5.6,5.9,1.8c5.1-17.7,18.4-30.4,28.2-45.4
		C979.9,1276.3,974.6,1273.1,972.5,1276.4z"/>
	<path class="st5" d="M972.2,1310.2c-11.7,12.3-20,26.9-28.9,41.2c-2.1,3.4,3.1,6.6,5.2,3.2c8.6-13.9,16.7-28.1,28-40
		C979.1,1311.7,974.9,1307.3,972.2,1310.2z"/>
	<path class="st5" d="M970.1,1341.8c-11.1,12.9-20.1,27.4-27.6,42.6c-1.7,3.5,3.5,6.8,5.2,3.2c7.2-14.7,15.8-29,26.6-41.4
		C976.9,1343.2,972.7,1338.8,970.1,1341.8z"/>
	<path class="st5" d="M986.7,1312.3c-3.5,0.3-7.5,0.3-10.8-1.2c-3.6-1.7-6.8,3.6-3.2,5.2c4.3,2,9.1,2.6,13.9,2.1
		C990.4,1318.1,990.6,1312,986.7,1312.3z"/>
	<path class="st5" d="M993,1275.3c-4.9-0.6-9.8-0.3-14.6,1.2c-3.8,1.1-2.3,7.1,1.5,6c4.3-1.3,8.5-1.6,13-1
		C996.8,1282,996.9,1275.9,993,1275.3z"/>
	<path class="st5" d="M993.7,1246.5l-15.1-0.3c-4-0.1-4.1,6.1-0.1,6.1l15.1,0.3C997.5,1252.7,997.6,1246.6,993.7,1246.5z"/>
	<path class="st5" d="M994.3,1340c-6.9-0.7-13.7,0.5-20.7,0.9c-3.9,0.2-4.1,6.4-0.1,6.1c6.9-0.4,13.7-1.6,20.7-0.9
		C998.1,1346.6,998.2,1340.4,994.3,1340z"/>
	<path class="st5" d="M1533,1246.4l-12.4-0.3c-4-0.1-4.1,6.1-0.1,6.1l12.4,0.3C1536.8,1252.7,1536.9,1246.5,1533,1246.4z"/>
	<path class="st5" d="M1533.6,1280.9c-3.9-0.3-7.7-0.8-11.5-1.5c-3.9-0.7-5.7,5.2-1.8,5.9c4.4,0.8,8.7,1.4,13.2,1.8
		C1537.4,1287.4,1537.5,1281.2,1533.6,1280.9z"/>
	<path class="st5" d="M1532.8,1316.6l-13.8-0.3c-4-0.1-4.1,6.1-0.1,6.1l13.8,0.3C1536.6,1322.8,1536.7,1316.7,1532.8,1316.6z"/>
	<path class="st5" d="M1532.8,1349.7c-5.2-1.7-10.5-2.2-15.9-1.9c-3.9,0.2-4.1,6.4-0.1,6.1c4.9-0.3,9.6,0.1,14.3,1.6
		C1534.8,1356.9,1536.6,1351,1532.8,1349.7z"/>
	<path class="st5" d="M1404.9,1371.5c-46.8,3.3-93.9-2.6-140.8-3.1c-51.2-0.6-102.4,0.3-153.5-3.7c-3.9-0.3-4.1,5.8-0.1,6.1
		c51.1,4,102.3,3.1,153.5,3.7c46.9,0.5,93.9,6.4,140.8,3.1C1408.7,1377.3,1408.9,1371.2,1404.9,1371.5z"/>
	<path class="st5" d="M1410.4,1393c-31.4-1.5-60.4-2.4-69.2-2c-25.4,0.9-50.8,1.1-76.2,0.7c-50.3-0.8-100.6,1.2-150.9,0.5
		c-6.2-2-15.9,0.3-20.6-4.3c-3.7-3.6-2.5-11,0.9-14.2c4.2-3.9,10.8-4.3,16.1-4.2c4,0.1,4.1-6.1,0.1-6.1c-13.5-0.2-29,6.6-24.9,22.9
		c2.4,9.4,10.8,9.6,18.8,10.3c0.4,1,1.2,1.7,2.6,1.7c2,0,4,0,6.1,0c0.8,0.3,1.5,0.3,2,0c47.8,0.6,95.7-1.3,143.5-0.6
		c23.6,0.3,47.1,0.5,70.7-0.2c10.9-0.3,45.3,0.4,81,1.8C1410.4,1397.2,1410.4,1395.1,1410.4,1393z"/>
	<path class="st5" d="M1435,1381.2c-3-6-9.7-7.4-15.9-8c-10-1-20.2-0.6-30.2-0.8c-4-0.1-4.1,6.1-0.1,6.1c10.8,0.2,22.8-0.9,33.5,1.3
		c3.4,0.7,11.9,2.8,6.5,9.9c-2.3,3-7.2,2.7-10.5,2.9c-5.4,0.3-10.6-0.2-15.9,1.1c-3.9,0.9-2.4,6.8,1.5,6c8.6-2,19.1,1.3,26.9-3.8
		C1435.9,1392.5,1437.9,1386.8,1435,1381.2z"/>
	<path class="st5" d="M1477,1340.9c-89.9-2.1-179.7,0.1-269.6-1.3c-43.8-0.7-87.6-2.8-131.4-1.7c-6.7,0.2-14.2,1.9-20.8,1.2
		c-13.8-1.5-12.9-18.8-13.8-29.5c-1.7-21.1-1-42.4-0.5-63.5c0-1.1-0.5-1.9-1.1-2.4c1.3-4.7,2.4-3.6,8.6-3.5c9.7,0.1,19.4-0.1,29.1,0
		c18.5,0.2,37.1,0.8,55.6,1.5c38.5,1.4,76.9,2.9,115.4,2.9c73.7,0,147.1,2.8,220.7,4.4c4,0.1,4.1-6.1,0.1-6.1
		c-70.6-1.4-140.9-4.5-211.6-4.4c-73.6,0.1-147.1-5.8-220.7-4.1c-1.6,0-3.1,1.3-3.1,3c0,1.8,0,3.5-0.1,5.3c-0.3,1.4,0.2,2.5,1.1,3.2
		c0,0.1,0,0.1,0,0.2c-0.5,22.9-1.3,45.9,1,68.7c1,9.9,0.9,25.3,12,29.7c4.7,1.9,10.3,0.7,15.2,0.4c11.8-0.9,23.7-0.8,35.5-0.8
		c24.3,0,48.5,0.8,72.8,1.3c101.9,2.1,203.8-0.4,305.7,2C1480.8,1347.1,1481,1341,1477,1340.9z"/>
	<path class="st5" d="M1486.6,1265.8c-0.6-11.3-3.8-24.1-17.4-23.1c-3.9,0.3-4.1,6.4-0.1,6.1c15.4-1.1,11.3,25.8,11.2,35.6
		c-0.1,9.2,6.5,54.3-2.7,55.4c-3.9,0.5-2.4,6.5,1.5,6c2.1-0.1,4.2-0.5,6.1-1.3c1.3-0.4,2.3-1.5,2.3-2.9
		C1488.7,1316.7,1488,1290.6,1486.6,1265.8z"/>
	<path class="st5" d="M1119.6,1333.6c-1.6-31.1-3.1-62.3-4.3-93.5c-0.2-3.9-6.3-4.1-6.1-0.1c1.2,32.1,2.9,64.2,4.5,96.2
		c0.1,2.2,2.4,4.1,4.6,2.8c0.3-0.2,0.6-0.4,0.9-0.5C1121,1337.2,1120.7,1334.9,1119.6,1333.6z"/>
	<path class="st5" d="M1217.1,1239.9c0-4-6.1-4.1-6.1-0.1c-0.1,32.9,8.2,65.3,6.5,98.2c-0.2,4,6,4.1,6.1,0.1
		C1225.3,1305.2,1217,1272.9,1217.1,1239.9z"/>
	<path class="st5" d="M1073.3,1203.9c0.1-4-6-4.1-6.1-0.1c-0.3,10.8-1.2,21.5,0.6,32.3c0.7,3.9,6.6,2.4,6-1.5
		C1072,1224.4,1073,1214.2,1073.3,1203.9z"/>
	<path class="st5" d="M1078.9,1507.2c0.2-18.4-1.9-36.6-3-54.9c-2.2-37.4-3.9-75.1-3.2-112.6c0.1-4-6.1-4.1-6.1-0.1
		c-0.7,35.6,1.2,71.3,2.9,106.8c0.8,17.4,3.1,34.7,3.4,52.1c0,3.1-1.9,35.5,1.2,35.6c-4-0.2-4.1,6-0.1,6.1c0.3,0,0.5,0,0.8,0
		c1.4,0.1,2.5-0.9,3-2.2C1081.1,1529.7,1078.8,1516.1,1078.9,1507.2z"/>
	<path class="st5" d="M1444.1,1204.5c1.3-3.8-4.6-5.5-5.9-1.8c-4.8,13.9,0.5,28.2,0.2,42.3c-0.1,4,6,4.1,6.1,0.1
		C1444.9,1231.6,1439.6,1217.6,1444.1,1204.5z"/>
	<path class="st5" d="M1451.1,1452.5c-0.1-35.6-3.1-71.1-2.5-106.6c0.1-4-6.1-4.1-6.1-0.1c-0.6,35.6,2.5,71.1,2.5,106.6
		c0.1,32.9,8.9,65.6,5.3,98.5c-0.4,3.9,5.7,4.1,6.1,0.1C1460,1518,1451.1,1485.4,1451.1,1452.5z"/>
	<path class="st5" d="M1166.3,1262C1166.3,1262,1166.3,1262,1166.3,1262c4,0,4.1-6.1,0.2-6.1l-35.8-0.8c-2.8-0.1-3.6,2.9-2.5,4.8
		c-1.5,1.3-2,3.7,0.2,4.9c5.1,2.8,11,2.9,16.7,2.7c3.8-0.1,15.2-2.8,18.4-0.1c3,2.6,7.4-1.7,4.4-4.2
		C1167.4,1262.6,1166.9,1262.3,1166.3,1262z"/>
	<path class="st5" d="M1407,1377c0,0-0.1,0-0.1,0c-10.2-1-21.7,0.7-30.7,0.5c-38.3-0.9-76.6-1.8-114.9-3.8
		c-37.2-1.9-74.3-2.8-111.6-4c-17.6-0.5-43.8-8.3-58,5.9c-2.8,2.8,1.4,7.2,4.2,4.4c13.1-13.1,45.4-4.2,62.4-4
		c30.4,0.4,60.6,1.5,91,3.2c29.5,1.6,59.1,2.7,88.7,3.5c14.6,0.4,29.2,0.7,43.8,1.1c11.7,0.3,36.6-4.6,41.2,10
		c0.5,1.8,2.7,3.1,4.5,1.9C1443.7,1385,1415,1377.4,1407,1377z"/>
	<path class="st5" d="M1016.9,1438.5c-4,6.1-7.8,12.4-12.4,18.1c-2.5,3,1.8,7.4,4.3,4.3c5-6.1,9.1-12.7,13.3-19.3
		C1024.4,1438.3,1019,1435.2,1016.9,1438.5z"/>
	<path class="st5" d="M1019.2,1459.6c-0.4,0.8-0.8,1.6-1.2,2.3c-1.8,3.5,3.5,6.6,5.3,3.1c0.4-0.8,0.8-1.6,1.2-2.3
		C1026.3,1459.1,1021,1456,1019.2,1459.6z"/>
	<path class="st5" d="M1440.6,1267.7c-2.3,0.6-4.5,1.5-6.6,2.6c-3.5,1.9-0.4,7.2,3.1,5.3c1.7-0.9,3.3-1.5,5.1-2
		C1446.1,1272.5,1444.4,1266.6,1440.6,1267.7z"/>
</g>
<g id="Blaster">
	<path class="st3" d="M1400.6,986.3c-11.3-9.9-19.5-22.2-29.3-33.5c-7.1-8.2-16.1-20.6-26.4-25c-10.1-4.2-23.5-1.6-34.1-1.9
		c-18.3-0.6-36.5-1.4-54.8-1.2c-71.5,0.6-143,0.1-214.5-1.8c-6.2-12.8-15.2-23.1-31.6-25.7c-19.4-3.2-40.8,0.3-60.3,1.3
		c-23.8,1.3-47.5,2-71.4,1.5c-47.3-1.1-94.7-0.3-142-1.7c-46-1.4-92.1-2.8-138.1-1.6c-3.9,0.1-4.1,6.2-0.2,6.1
		c83.3-2.1,167,2.1,250.4,2.9c11.7,0.1,23.3,0.1,35,0c-0.6,1.3-0.4,2.8,1,3.9c15.3,10.8,21.1,37.6,43.3,36.2
		c18.5-1.1,36.1-2.6,54.7-2.2c18.1,0.4,36.2,0.5,54.3,0.4c2.2,0,4.3,0,6.5-0.1c0.4,1.4,0.8,2.8,1.2,4.2c1.1,3.8,7.1,2.3,6-1.5
		c-0.3-0.9-0.6-1.9-0.9-2.8c67.7-0.7,135.9-3.4,203.4,0.5c-9.1,13.8-21.2,26.2-30.3,40.2c-10.3,15.9-21.1,31.6-31.2,47.6
		c-2.1-0.2-4.4,2-3.2,4.5c0.3,0.6,0.6,1.3,0.9,1.9c1,2.1,4.1,2,5.3,0.2c3.3-5.3,6.7-10.6,10.2-15.8c0,0.5,0.2,1,0.4,1.4l3.1-5.2
		c-0.4,0.1-0.9,0.2-1.3,0.3c3.4-5.1,6.7-10.2,10.1-15.3c0.1,0,0.2,0.1,0.3,0.1c14.2,0.9,28.5-1.9,42.7-2.3c16.5-0.4,33-1.7,49.5-2.4
		c16.6-0.7,79.3-5.6,90-8.2C1401.2,990.9,1402.3,987.9,1400.6,986.3z M948,936.9c-6.1,0.3-12.1,1.7-18.1,2.1
		c-10.6,0.7-16.5-3.7-22.5-11.6c-5.9-7.7-10.8-15.9-18.5-21.9c28-0.2,55.9-0.9,84.1-2.2c17-0.8,39.2-4.8,53.3,7.5
		c3.8,3.3,6.7,7.5,9,12c-3.4,0.4,4.9,11.9,5.8,14.8C1010,937.5,978.8,935.5,948,936.9z M1303.9,993.7c-14.7,0.8-29.4,1.8-44.1,2.1
		c-13,0.3-26.1,2.6-39.1,2.3c2.3-3.5,4.6-6.9,6.9-10.4c10.1-15.6,23.7-28.8,33.1-44.6c1.2-2-0.2-4.5-2.5-4.7
		c-69.6-4.5-140-1.4-209.7-0.8c-0.4,0-0.8,0-1.2,0c-1-2.9-2-5.8-3.1-8.6c64.5,1.7,129.1,2.8,193.7,2c30.9-0.4,61.9,0.1,92.7,1.1
		c26.5,0.9,43.5,35.7,61.5,54.4C1363,992.5,1333.4,992.1,1303.9,993.7z"/>
	<path class="st3" d="M1192,1029.8c-0.9,0-1.8-0.1-2.7-0.1c-0.5,0-0.9,0.1-1.3,0.2c-52.3,1.8-104.1,7.4-156.4,7.3
		c-28-0.1-56.1,0.5-84.1,1.6c-12.5,0.5-25.1,1.8-37.7,1.9c-12,0.1-14.6-5.2-24-11.7c-8.6-6-15.7-12-22.9-19.5
		c-4.8-5-9.8-9.5-16.9-10.9c-11.6-2.3-25.8,0-37.6,0.3c-14.1,0.3-28.2,0.6-42.4,1c-29.3,0.8-58.7,1.7-88,3
		c-13.1,0.6-26.3,1.2-39.4,2c-12,0.7-29.7,5.7-39-3.2c-4.6-4.4-7.8-10.4-11.9-15.2c-4.2-4.9-9.9-9.2-13.5-14.5
		c-3.5-5.2-3.3-5-0.6-12c2.7-7.3,6.8-14,10.7-20.7c5.1-8.8,10.4-16.9,16-25.3c3.2-4.9,6.8-9.9,6.2-15.9c-0.4-3.9-6.4-2.4-6,1.5
		c0.7,6.5-9,15.9-12.4,21c-6.2,9.4-12,19.5-16.9,29.6c-8.6,17.7-7.3,19.9,5.2,33.2c7.4,7.9,13.3,18.6,21.5,25.6
		c5.9,5,11.6,3.7,19.2,3.2c29.3-1.8,58.6-3.2,87.9-4.3c29.3-1.1,58.6-1.9,87.9-2.6c14-0.3,28.3-1.4,42.3-0.9
		c17.2,0.6,21.2,9.2,32.6,19.3c8,7,17.2,12.3,25,19.5c6.9,6.2,12.5,3.8,22.3,3.2c29-1.7,58-2.5,87-2.9c30.8-0.4,61.8,1.3,92.5-1.6
		c32.3-3,64.5-5.1,97-6C1195.7,1035.8,1195.9,1029.9,1192,1029.8z"/>
	<path class="st3" d="M917.4,1044.4c-8.7,6.9-12.6,22.1-17.8,31.7c-9.5,17.4-18.1,35.2-26.9,53c-17,34.6-37.7,66.9-56,100.8
		c-3.9,7.3-8.4,14.3-12.4,21.5c-3.6,6.3-6.4,15.1-12,19.9c-8.3,7-22,5.4-32.2,6c-9.5,0.5-19,1.1-28.6,1.7c-19.8,1.1-39.7,3.6-59.6,3
		c-9.2-0.2-18.3-2.2-27.5-2c-5.7,0.1-11.5,2.5-17.1,3.2c5.2-14,13.2-26.5,20-39.7c7.1-13.7,12.9-28.2,18.9-42.4
		c13.2-31.5,25.5-63.5,38.3-95.2c6.4-15.7,13.7-30.9,20.5-46.4c2.1-4.8,4-8.7,0.9-13.4c-5.4-8.4-22-13.8-30.1-18.4
		c-10.8-6.1-20.1-15.1-32-18.9c-3.8-1.2-5.6,4.7-1.8,5.9c12.7,4.1,24.1,14.7,35.9,21.2c5.1,2.8,11.1,5.5,15.8,9
		c9.2,6.7,7.3,8.6,2.9,18c-11,23.3-20.4,47.3-29.9,71.3c-10.5,26.3-20.8,52.6-32,78.6c-10.6,24.5-26.4,47.4-34.6,72.8
		c-0.6,2,0.9,3.8,2.9,4c6.7,0.6,12.5-2.4,19.2-3c10.7-0.9,21.7,1.6,32.5,1.8c20.8,0.2,41.7-2.3,62.5-3.4c16-0.9,37,1.5,52.2-4.4
		c11-4.3,15-16.3,20.3-25.7c19.6-34.8,40.9-68.8,59.4-104.3c9.2-17.7,17.4-35.9,26.7-53.6c4.6-8.7,9.4-17.3,14.1-25.9
		c3.4-6.3,6.6-17.6,12-21.9C924.7,1046.4,920.5,1042,917.4,1044.4z"/>
	<path class="st3" d="M812.8,1063.4c-5-5.9-28.1-1.4-33.8-1.1c-20.8,1.1-42.5-1.1-62.9,2.5c-3.9,0.7-2.4,6.7,1.5,6
		c19-3.3,39.1-1.2,58.4-2.2c7.3-0.4,14.6-0.8,21.9-1c6.7-0.2,8.7-2,7.4,4.2c-1,5.1-8.6,13.7-11,17.9c-4.5,7.7-9,15.4-13.6,23.1
		c-8.2,13.7-15.5,27.7-21.8,42.4c-6.5,15-12.2,30.4-18.3,45.6c-3.1,7.6-6.3,15.2-9.2,22.8c-3.2,8.6-5.3,21.1-10.8,28.5
		c-8,10.7-31,3.8-42.5,2.9c-15.1-1.2-30.2-1.4-45.1,1.8c-3.4,0.7-2.8,6,0.6,6.1c2.2,0.1,4.5,0.1,6.7,0.2c1.4,0,2.3-0.7,2.7-1.7
		c18.1-2.3,36.3,0.1,54.5,1.6c9.2,0.8,19.9,3,26.5-4.9c4.9-5.8,7-15.4,9.5-22.2c3.4-9.5,7.1-18.8,10.9-28.1
		c8.9-21.6,16.6-43.8,26.8-64.8c9.6-19.9,21.6-38.6,32.8-57.6C806.6,1080.8,817.8,1069.3,812.8,1063.4z"/>
	<path class="st3" d="M703.4,1206.4c-8.6-0.2-17.2-0.8-25.7-0.7c-6.4,0.1-13.4,1.8-19.5-0.5c-3.7-1.4-5.5,4.5-1.8,5.9
		c6.1,2.3,12.6,1.1,18.9,0.8c8.6-0.3,17.2,0.2,25.8,0.5c0,0,0.1,0,0.1,0l2.1,0.1C707.2,1212.6,707.3,1206.5,703.4,1206.4z"/>
	<path class="st3" d="M722.2,1154.4c-0.4,1.6-15.3,1.4-17.7,1.5c-9.9,0.5-19.9,0.7-29.6,2.7c-3.9,0.8-2.4,6.8,1.5,6
		c12.5-2.6,25.3-2.1,38-3c4.2-0.3,12.4-0.1,13.8-5.3C729.1,1152.4,723.2,1150.6,722.2,1154.4z"/>
	<path class="st3" d="M749,1101.6c-7.4,3.8-19.2,2.2-27.4,2.7c-8.9,0.5-18.4,0-26.8,3.5c-3.6,1.5-0.7,6.9,2.9,5.4
		c16.6-6.9,38.1,2,54.2-6.2C755.5,1105.2,752.5,1099.9,749,1101.6z"/>
	<path class="st3" d="M755.1,848.8c-29.7,14.4-55.4,35.8-85.9,48.5c-3.6,1.5-0.7,6.9,3,5.4c28.8-11.9,53.3-31.6,80.9-45.8
		c-1,8.5-3,16.9-4.6,25.4c-0.5,2.6-1,15-3.7,16.5c-3.5,1.9-0.5,7.3,2.9,5.4c4.8-2.6,5.1-11.2,5.9-15.8c2.2-12.2,5.5-24.2,6.1-36.6
		C759.8,849.1,757.2,847.8,755.1,848.8z"/>
	<path class="st3" d="M1366.2,993.3c-4,5.3-8.1,10.5-10.6,16.7c-3.7,9.1-5.9,12.1-16.2,12.6c-13.2,0.6-26.4,1.4-39.5,1.9
		c-35.1,1.3-69.5,4.2-104.7,2.8c-4-0.2-4.1,6-0.2,6.1c41.2,1.7,82.5-0.4,123.5-3.8c10.1-0.8,24.6,1.7,33.9-2.6
		c2.8-1.3,4.1-2.6,5.7-5.3c1.8-2.9,2-6.7,3.4-9.9c2.4-5.6,6.4-10.5,10-15.3C1373.8,993.4,1368.6,990.2,1366.2,993.3z"/>
	<path class="st3" d="M917.3,1013.5c-0.9-1-2.6-1.2-3.7-0.6c-2.6,1.5-4.1,3.4-5.1,5.7c-0.8,0.6-1.4,1.4-1.3,2.4c0,0.4,0,0.9,0,1.3
		c-0.1,0.3-0.2,0.6-0.2,0.9c-0.1,0.5-0.1,0.9,0,1.3c0,0.4,0.2,0.8,0.4,1.2c0,0.5,0,0.9,0.1,1.4c0,1.6,1.3,3.2,3,3.1
		c0.9,0,1.9-0.2,2.8-0.3c0.7,0.3,1.3,0.4,2.1,0.4c3.7-0.1,4.9-4,5.7-7c0.1-0.4,0.1-0.9,0.1-1.3
		C921.2,1018.9,919.5,1015.9,917.3,1013.5z"/>
	<path class="st3" d="M599.1,959.3c-0.2-0.2-0.4-0.3-0.5-0.4c-0.1-0.7-0.3-1.3-0.8-1.8c-1.1-1.2-3-1.1-4.7-0.6
		c-1.3-0.2-2.6-0.3-3.8-0.3c-1.9,0-3.7,1.8-3.1,3.8c0.1,0.3,0.2,0.7,0.3,1c-1.9,0.6-3.3,3.1-1.5,5c3.9,4.1,11.5,6.6,14.9,0.5
		C601.2,964.1,600.9,961.2,599.1,959.3z"/>
	<path class="st3" d="M1228.5,953.1c0.4-1.7-0.7-4.2-2.9-4c-0.4,0-0.9,0.1-1.4,0.2c-0.7-0.5-1.5-0.6-2.4-0.5
		c-0.8-0.3-1.8-0.3-2.7,0.1c-1.1,0.5-1.9,1.2-2.5,2.3c-0.2,0.2-0.5,0.4-0.7,0.7c-0.2,0.3-0.2,0.6-0.3,0.9c-0.2,0.2-0.5,0.4-0.6,0.7
		c-0.5,1-0.6,2-0.5,2.9c-0.1,0.2-0.1,0.4-0.1,0.6c-0.7,1.9,1,3.9,2.9,4c0.2,0,0.4,0.1,0.7,0.1c0.9,0.7,1.9,1.3,2.7,1.7
		c1.6,0.9,3.8,0.3,4.5-1.6c1.1-0.7,1.8-2.2,1.5-3.5c0-0.2-0.1-0.3-0.2-0.5C1227.6,956,1228.2,954.5,1228.5,953.1z"/>
	<path class="st3" d="M1360.7,996.1c-2.4,2.3-4.4,4.8-6.4,7.4c0.1-0.3,0.2-0.6,0.3-0.9c0.9-3-2.8-5.1-5.1-3.1
		c-3.4,3-6.1,6.7-8.8,10.4c1.5-2.9,2.9-5.9,3.9-9.1c1.1-3.5-3.6-5.1-5.6-2.5c-5.1,6.8-10.2,13.5-15.9,19.6
		c3.4-6.6,8.8-12.2,13.1-18.2c2.1-3-2.2-5.9-4.7-3.8c-5.6,4.6-10.8,13-17.1,18.7c3.1-3.7,6.3-7.3,9.4-11c2.5-2.9-1.4-7.3-4.2-4.4
		c-6.2,6-12.3,12.1-19,17.6c3.6-4.4,7.5-8.6,11.6-12.8c2.3-2.4-0.6-7-3.6-4.9c-0.2,0.1-0.4,0.3-0.6,0.5c0,0,0,0,0,0c0,0,0,0,0,0
		c-6.2,4.5-11.7,10.5-18.1,14.6c2.5-3.7,5.3-7.2,8.1-10.7c2.2-2.8-2.3-6.2-4.7-3.8c-2.3,2.2-4.6,4.5-6.8,6.8c0.7-0.9,1.3-1.8,2-2.7
		c2.2-2.8-2.2-6.1-4.7-3.8c-6.9,6.2-12.8,13.4-19.7,19.4c4.1-5.4,8.4-10.8,12.5-16.2c2.3-3-2.2-5.8-4.7-3.8
		c-7.2,5.5-12.8,14.3-20.4,19.5c4.2-6.8,9.2-12.9,14.2-19.3c2.4-3.1-2.8-6.3-5.2-3.2c-0.5,0.7-1.1,1.3-1.6,2
		c-1.2-0.4-2.6-0.1-3.5,1.2c-5.3,7.5-11.2,17.7-19.3,23.1c0.4-0.9,0.9-1.8,1.4-2.7c5-5.2,9.1-11.7,12.6-17c2.2-3.3-3-6.5-5.2-3.2
		c-3.7,5.4-8.2,10.3-11.7,15.8c-1.7,1.7-3.5,3.2-5.5,4.3c0.7-1.4,1.4-2.7,2.2-4c0,0,0.1-0.1,0.1-0.1c0.5-0.4,0.7-0.9,0.9-1.3
		c1.3-1.8,2.6-3.6,4.3-5.2c2.8-2.8-1.4-7.2-4.2-4.4c-2.2,2.1-4,4.5-5.6,6.9c-3.5,3.2-6.8,6.6-10.3,9.9c0.5-1,1.1-2,1.6-2.9
		c4.5-4.1,8.6-8.5,13.1-12.7c2.7-2.5-0.5-6.3-3.6-4.9c-1,0.4-2,1-2.9,1.6c0.9-1.4,1.8-2.8,2.7-4.3c2.1-3.4-3.1-6.6-5.2-3.2
		c-5.7,9.1-11.4,18.2-17.8,26.7c-1.7,2.3,1,5.3,3.5,4.5c-0.4,1.1-0.7,2.2-1,3.3c-0.6,2.5,2,5,4.4,3.6c3.5-2,6.4-4.5,9.3-7.2
		c0.6,1.3,2.2,2.1,3.6,1.9c2-0.3,3.9-0.9,5.7-1.8c-0.1,0.6-0.3,1.2-0.4,1.9c-0.3,1.9,2.1,3.6,3.8,3.1c3.6-1.1,6.8-3.1,9.8-5.4
		c0.3,1.5,1.6,2.8,3.5,2.3c2.6-0.6,4.9-1.6,7-2.9c-0.8,1.2-1.6,2.3-2.4,3.5c-1.8,2.8,1.5,5.4,4.1,4.3c5.5-2.3,10.2-5.6,14.4-9.3
		c0.1,2.1,2.3,4,4.5,2.7c2.4-1.5,4.7-3.2,6.8-5c0.2,1.7,1.6,3.1,3.6,2.6c2.5-0.7,4.8-1.7,6.9-2.8c-1.4,2-2.7,4.1-3.9,6.3
		c-1.4,2.6,1.3,5.9,4.1,4.3c3.7-2.1,7.1-4.4,10.4-6.9c0.5,1.1,1.5,1.9,2.7,1.8c4.8-0.5,8.7-2.5,12.2-5.1c-0.7,2.1-1.2,4.3-1.5,6.6
		c-0.3,2.9,3.3,3.8,5.2,2.3c3.5-2.8,6.6-5.9,9.6-9.2c-0.5,1.1-1,2.2-1.4,3.4c-0.9,2.5,2.2,4.9,4.4,3.6c4.4-2.6,7.6-6.3,10.6-10.2
		c-1,2.3-2.1,4.7-3.2,7c-1.3,2.9,2.2,6.7,4.7,3.8c0,0,0,0,0-0.1c1,0.4,2.1,0.3,3.1-0.6c8.6-8.3,14.9-17.6,18.9-28.9
		C1366.8,996.2,1362.8,994,1360.7,996.1z"/>
	<path class="st3" d="M897.6,1051.6c-17.4,31.1-30.1,66.1-50.6,95.5c-0.9-0.1-1.7,0.2-2.4,1c1.7-3.6,3.5-7.2,5.2-10.8
		c0.6-1.2,0.3-2.4-0.3-3.3c14.5-27,31.6-52.9,40.8-82.4c0.9-3-2.9-5.2-5.1-3.1c-3.4,3.2-6.5,6.6-9.3,10.2c1.4-3,2.7-6,4.1-9.1
		c1.4-2.8,2.6-5.7,3.8-8.7c1.4-3.7-4.4-5.4-5.9-1.8c-1.1,2.8-2.4,5.5-3.6,8.3c-4.6,9.7-10.6,18.8-16.5,27.9
		c5.5-10.9,10.4-22,14.1-33.8c0.9-2.9-2.9-5.2-5.1-3.1c-1.1,1-2,2.1-3,3.2c0.7-1.6,1.5-3.1,2.2-4.7c0.8-1.7-0.4-3.2-2-3.7
		c1.8-4.5,3.3-9.2,4.3-14.2c0.5-2.6-2.9-5.7-5.1-3.1c-1.7,2.1-3.3,4.3-4.9,6.5c1.3-3,2.5-5.9,3.7-8.9c1.1-3-2.9-5-5.1-3.1
		c-18.9,17-26.2,49.6-48.3,62.8c14.4-18.6,28.7-37.4,41.2-57.4c1.8-3-2.2-6.2-4.7-3.8c-1.1,1.1-2.1,2.2-3.2,3.3c1.4-2.5,2.8-5,4-7.6
		c1.8-3.5-3-6.5-5.2-3.2c-11.3,16.4-22.4,37.3-38.7,50c0.5-1,1.1-1.9,1.6-2.8c11.5-13.2,21-28.4,30.7-42.5c2.3-3.3-2.9-6.3-5.2-3.2
		c-4.4,5.7-8.9,11.4-13.3,17.1c3.5-5.3,6.8-10.6,10-16.1c2-3.5-2.9-6.3-5.2-3.2c-11.4,15.2-22.9,30.3-33.2,46.3
		c-2.4,2.3-4.9,4.4-7.6,5.9c13.9-17.5,26.6-36,41.2-53c2.6-3-1.1-6.9-4.2-4.4c-3.7,2.8-7,5.9-10.3,9.1c-0.8-1.7-3.3-2.7-4.9-1.1
		c-1.9,1.9-3.8,3.8-5.5,5.8c-0.1-2.1-2.3-3.9-4.2-2.8c-0.9-0.3-1.9-0.1-2.8,0.7c-1,1-2,2.1-3,3.2c-12.6,13.3-22.9,28.4-33.4,43.4
		c-0.3,0.5-0.4,1-0.5,1.5c-1.2,0.9-2.4,1.7-3.6,2.4c1.5-3.7,3.2-7.3,5.1-10.8c9.9-11.1,16.5-25.2,27.6-35.6c2.9-2.8-1.3-7.1-4.2-4.4
		c-11.2,10.8-21.2,23.2-28.6,36.9c-0.4,0.5-0.9,0.9-1.4,1.3c6.9-14.3,16.1-27.9,26.5-39.6c2.7-3-1.1-6.8-4.2-4.4
		c-11.9,9-18.6,22-26.4,34.2c1-1.9,2-3.9,3.1-5.8c5.9-8.9,11.3-18.1,17.5-26.8c2-2.8-2.5-6.5-4.7-3.8c-0.2,0.2-0.3,0.4-0.5,0.6
		c0,0,0,0,0,0c-0.1,0.1-0.2,0.2-0.2,0.3c-6.5,8.1-11.9,16.8-16.8,25.8c-2.3,3.5-4.7,7-7.3,10.4c4.3-10.3,9.5-20.2,15.9-29.5
		c2.1-3.4-3-6.5-5.2-3.2c-1.6,2.7-3.3,5.3-5.1,7.9c-0.2-0.4-0.6-0.8-1-1.1c-0.1-2.3-2.9-4.3-5.1-2.2c-4.8,4.8-9,10-12.7,15.5
		c-0.7,0.7-1.4,1.3-2.1,1.9c1.6-3.1,3.3-6,5.3-8.7c1.8-2.1,3.7-4.3,5.8-6.3c2.1-2,0.4-4.8-1.7-5.2c1.5-2.8-2.5-5.3-5-3.4
		c-4.4,3.5-7.9,7.4-10.7,11.8c-1.1,1-2.1,2-3.2,3c1.7-2.9,3.6-5.7,6-8.6c2.4-3-1.3-7.3-4.2-4.4c-1.7,1.7-3.2,3.4-4.6,5.2
		c-1.1-0.9-2.8-1.2-4,0.1c-1.6,1.7-2.9,3.4-4.1,5.1c-1.1,1.2-2.2,2.2-3.5,3.2c1.7-4.5,4-8.5,7.1-12.7c2.1-2.8-2.3-6.2-4.7-3.8
		c-3.4,3.2-6.5,6.7-9.7,10.1c0.4-0.9,0.7-1.9,1.1-2.8c0.9-2.2-1.5-4.3-3.6-3.9c-0.6-1.6-2.4-2.7-4.3-1.8c-1.1,0.7-2.3,1.2-3.6,1.6
		c-0.2-0.6-0.4-1.1-0.8-1.9c-0.8-1.3-2-1.7-3.4-1.5l-2.8,0.4c-3.9-0.5-4,5.7-0.1,6.1c0.6,0.1,1,0.1,1.3,0.1
		c-0.1,0.1-0.1,0.3-0.1,0.6c0,2.1,1.9,3.4,3.8,3.1c0.1,0,0.2-0.1,0.4-0.1c-1,2.4,1.6,5.3,4,4c-0.8,2.1-1.7,4.2-2.7,6.3
		c-1.6,3.2,2,5.9,4.7,3.8c2.3-1.7,4.3-3.6,6.4-5.6c-0.3,1.2-0.6,2.4-0.8,3.7c-0.4,2.7,1.8,4.7,4.4,3.6c0.7-0.3,1.3-0.7,1.9-1
		c-0.1,0.6-0.3,1-0.4,1.6c-0.4,2.7,2.7,5.7,5.1,3.1c0.4-0.4,0.7-0.8,1-1.2c0.8,1.8,3.1,2.8,4.9,1.1c1-1,2-1.9,3-2.8
		c0.3,1.5,1.7,2.7,3.2,2.6c-0.3,0.7-0.6,1.5-1,2.2c-0.9,2,1.6,4.7,3.7,3.9c0.5-0.2,0.9-0.4,1.4-0.7c-0.2,0.5-0.5,1-0.8,1.5
		c-1,2.2,0.3,4.2,2.1,4.5c-0.2,0.5-0.5,1.1-0.7,1.6c-1.2,2.9,3,5.2,5.1,3.1c2.2-2.3,4.3-4.7,6.4-7c-1.4,3.5-2.7,7.1-3.9,10.8
		c-0.9,2.9,2.7,5,4.9,3.2c-0.5,0.9-1,1.9-1.5,2.8c-1.7,3.1,2,6,4.7,3.8c2.3-1.8,4.3-3.8,6.3-5.9c-0.1,0.2-0.1,0.3-0.2,0.5
		c-1,2.5,2.2,4.9,4.4,3.6c0.6-0.3,1-0.8,1.6-1.1c-0.8,2-1.6,4-2.2,6.1c-0.7,2.1,1.5,4.6,3.7,3.9c5.4-1.9,9.9-4.7,13.8-8.1
		c0.6,2,3.5,3.1,5.2,1.4c0.8-0.8,1.6-1.7,2.4-2.5c-1.6,3-3.2,5.9-4.8,8.8c-1.6,2.9,2.3,6.5,4.7,3.8c2.6-2.8,5.1-5.6,7.5-8.5
		c2.5-0.3,5-1.1,7.2-2.2c-1,1.7-2.1,3.4-3,5.1c-1.4,2.5,1.4,6.1,4.1,4.3c3.5-2.3,6.8-5,10-7.7c0.5,1.7,2.3,2.8,4.3,1.8
		c3.8-1.9,7.2-4.2,10.6-6.7c-2.6,3.9-5.2,7.7-7.8,11.7c-1.1,1.7-0.1,3.5,1.3,4.3c-0.9,1.2-1.9,2.4-2.8,3.6c-0.5,0.7-0.6,1.5-0.4,2.2
		c-5.4,10.6-8.7,22.3-11.4,34.1c-16,12.8-22.8,34.8-29.1,53.5c-10.8,31.8-24.2,63-37.4,93.9c0,0.1,0,0.1,0,0.2
		c-0.9-1.2-2.6-1.8-3.9-0.9c-1.4,0.9-2.6,2-3.8,3c-0.7-1.4-2.3-2.3-4.1-1.3c-2,1.1-3.8,2.4-5.4,3.8c0.5-1.2,1-2.4,1.6-3.6
		c1.2-2.5-1.2-6.1-4.1-4.3c-4.8,3-8.6,6.9-12.3,11c1.1-3,2-6.1,2.7-9.3c0.6-2.7-2.9-5.7-5.1-3.1c-2.7,3.2-5.2,6.8-7.8,10.3
		c1-2.4,2-4.9,3-7.4c1.2-3.1-2.9-4.8-5.1-3.1c-3,2.4-5.8,5.1-8.4,7.8c0.4-0.8,0.7-1.6,1.1-2.4c1.5-3.1-2-6.3-4.7-3.8
		c-2.3,2-4.4,4.1-6.6,6.3c0.9-1.7,1.9-3.3,2.8-5c1.6-3.1-2.1-6.2-4.7-3.8c-3.4,2.9-6.4,6.1-9.7,9c0-0.1,0.1-0.2,0.1-0.3
		c0.4-0.5,0.7-1,1-1.4c0.6-0.7,0.7-1.4,0.6-2.1c0.7-1.8,1.4-3.6,2-5.5c1.1-3.3-3.8-5.5-5.6-2.5c-3.7,6.6-7.2,13.3-10.9,19.9
		c-1,2,0.3,3.9,1.9,4.5c0.9,0.6,2,0.8,3.2,0.2c2.9-1.5,5.5-3.3,7.9-5.3c-1.2,2.3-2.5,4.5-3.7,6.8c-1.6,3.1,2,6.1,4.7,3.8
		c3.4-2.9,6.6-6.1,9.8-9.2c-0.6,1.5-1.2,2.9-1.8,4.4c-1.1,2.9,3,5.2,5.1,3.1c3.2-3.3,6.2-6.7,9.4-10c-1.5,3.2-3,6.3-4.7,9.4
		c-1.4,2.5,1.4,6,4.1,4.3c4.1-2.6,7.4-5.9,10.3-9.6c-0.9,2.1-1.8,4.1-2.7,6.2c-1.3,3,3,4.9,5.1,3.1c4.5-3.8,8.2-8.4,12.2-12.6
		c-1.8,4.3-3.5,8.6-5.3,12.9c-1.3,3.3,3.8,5.4,5.6,2.5c2.5-4,4.9-7.9,7.8-11.4c-1.2,3-2.3,6-3.2,9.2c-0.9,3.3,3.8,5.6,5.6,2.5
		c1.3-2.3,2.5-4.6,3.7-7c-0.3,0.7-0.6,1.4-0.9,2.1c-1.4,3.4,3.7,5.2,5.6,2.5c3.7-5.2,7.2-10.5,10.9-15.7c0,0.2-0.1,0.4-0.1,0.6
		c-1.4,3.1-2.9,6.2-4.1,9.3c-1.3,3.3,3.8,5.4,5.6,2.5c2.6-4.3,5.4-8.4,8.2-12.6c0.7-0.9,1.4-1.9,2.1-2.9c-1.4,3.6-2.8,7.1-3.9,10.8
		c-1,3.3,3.7,5.5,5.6,2.5c3-4.8,6.3-9.4,9.9-13.6c-1.8,4.2-3.7,8.4-5.6,12.6c-1.6,3.5,3.2,6.7,5.2,3.2c1.7-3,3.5-5.9,5.3-8.8
		c-0.5,1.2-0.9,2.3-1.2,3.6c-1.1,3.9,4.5,5.4,5.9,1.8c0.6-1.6,1.3-3.3,1.9-4.9c2.1-4.5,5.1-8.3,8.6-11.8c-0.9,2.3-1.9,4.6-3.1,6.7
		c-1.6,2.2-3.2,4.5-4.5,7.1c-1.8,3.5,2.9,6.4,5.2,3.2c1.6-2.2,3.1-4.5,4.4-6.8c0.4-0.5,0.8-1.1,1.3-1.6c-0.9,2-1.8,4-2.6,6
		c-1.4,3.4,3.7,5.2,5.6,2.5c1.8-2.6,3.7-5,5.6-7.3c-0.9,1.9-1.9,3.8-2.8,5.7c0,0.1-0.1,0.1-0.1,0.2c0,0,0,0,0,0
		c-0.1,0.2-0.2,0.5-0.3,0.7c-1.4,3.2,3.8,5.5,5.6,2.5c2.8-4.9,5.8-9.3,9.6-13.1c-0.1,0.5-0.2,1-0.3,1.5c-2.3,3.5-4.1,7.3-5.4,11.6
		c-1.1,3.5,3.5,5.1,5.6,2.5c2.6-3.3,4.3-6.5,5.4-9.8c1.1,0.2,2.2-0.2,3-1.3c2.2-3.2,4.2-6.3,6-9.7c1.3-2.4-1.4-6.3-4.1-4.3
		c-1.3,0.9-2.4,2-3.5,3c0-0.1,0-0.3,0-0.4c-0.1-1.1-0.8-2.2-1.8-2.8c0.1-0.2,0.3-0.3,0.4-0.5c1.9-3.9,3.8-7.7,5.7-11.5
		c0.5,0.5,1.3,0.9,2.1,0.9c-0.6,2-1.2,4-1.7,6.1c-0.6,2.8,2.8,5.5,5.1,3.1c20.4-22,30.5-50.7,42.1-78.1
		c25.7-38.2,40.2-82.6,56.4-125.3C904.4,1050.8,899.3,1048.6,897.6,1051.6z M790.9,1056c0.9-1.5,1.9-2.9,2.8-4.4
		c2.3-2.5,4.5-5.1,6.5-7.5c1.4-1.6,2.6-3.3,3.9-5c-2,3-3.9,6.1-5.8,9.2C795.9,1051,793.4,1053.6,790.9,1056z M860.4,1055.1
		c-10.4,25.4-25.6,48.6-39.5,72.4c0.5-2.1,1.1-4.2,1.6-6.2C837.2,1100.7,845.3,1075.5,860.4,1055.1z M816.4,1109.6
		c-0.2-1.1-1-1.9-1.9-2.3c4.8-4.5,9.1-9.5,12.9-14.9C823.8,1098.2,820.1,1103.9,816.4,1109.6z M815.6,1154.7
		c-6.1,15.7-12.9,31.1-20.7,46C801,1185,807.8,1169.6,815.6,1154.7z M802.1,1082.8c23.1-7.4,32.3-30.6,44.8-50.2
		c-8.8,17.5-20,34.1-32.4,49.2c-1.1-0.2-2.2,0.2-2.9,1.4c-1.5,2.4-2.8,4.8-4.2,7.2c-0.3,0.4-0.6,0.7-0.9,1.1
		c-0.5,0.6-0.8,1.3-0.8,1.9c-0.4,0.6-0.7,1.3-1,1.9c-1-0.3-2.1-0.1-2.9,0.6c-2.8,2.3-5.4,4.9-7.8,7.7
		C796,1096.3,798.6,1089.3,802.1,1082.8z M787.6,1167.6c5.6-9.2,11.2-18.3,16.3-27.8c0.6,0,1.2-0.2,1.8-0.5
		c-13.8,29.5-27.6,59.1-36.9,90.3c-2,3.5-4.1,6.9-6.2,10.3c-0.2-2.4-0.1-4.7-0.1-7.1C773.2,1212.2,780.9,1190.1,787.6,1167.6z
		 M781.8,1259.4c-1.3,1-2.6,2.1-3.8,3.2c0.2-0.6,0.5-1.2,0.7-1.8c0.8-2.3-1.1-3.8-3-3.8c2.7-3,5.1-6.2,7.3-9.5
		c-0.9,2.9-1.8,5.7-2.6,8.6C780,1257.5,780.7,1258.7,781.8,1259.4z M773.3,1236.3c0.4-1.4,0.7-2.8,1.2-4.2c2.1-3.6,4.2-7.2,6.3-10.9
		c-0.9,2.7-1.8,5.4-2.7,8.1C776.4,1231.6,774.9,1234,773.3,1236.3z M757.8,1181.2c4.9-14.1,9.2-31.6,17.4-45.6
		c-3.6,8.8-6.6,17.8-9.5,26.3c-1.4,4.1-2.9,8.2-4.3,12.2c-1.2,2.9-2.5,5.9-3.8,8.8c-0.6,1.3-1.2,2.6-1.8,3.9
		C756.4,1185,757.1,1183.1,757.8,1181.2z M760.8,1258.1c0-2.5-3-4.9-5.1-2.5c-0.4,0.5-0.8,0.9-1.2,1.4c0.1-0.3,0.2-0.5,0.2-0.8
		c0.6-2.3-1.5-4.2-3.5-3.9c1.9-3,3.8-6,5.6-9.1c0.2,2.2,0.4,4.4,0.8,6.7c0.5,2.7,4.3,3,5.6,0.9c0.1-0.1,0.2-0.3,0.3-0.4
		c-0.1,1.7,1.1,2.9,2.5,3.1C764.2,1254.9,762.5,1256.5,760.8,1258.1z M786.2,1198.3c6.6-16.6,14.1-32.9,21.7-49.2
		C801.9,1165.9,794.5,1182.3,786.2,1198.3z M794.1,1233.1c5.2-15.5,11-30.7,17.2-45.8c5-10.4,10.1-20.6,14.7-31.1
		c24.4-26.3,31.5-63.9,53.2-91.9c-15,36.9-40.3,69-53.2,107C815.9,1192.2,805.6,1213,794.1,1233.1z M818.8,1210.1
		c-0.2-0.1-0.3-0.2-0.5-0.3c5-9.5,10-19,15.1-28.4C829.1,1191.2,824.2,1200.8,818.8,1210.1z M856.7,1150.6c-1.3-0.7-2.9-0.6-3.8,1.1
		c-2.2,3.7-4.2,7.6-6.1,11.5c0.8-2.6,1.4-5.2,2-7.8c10.3-14,18.7-29.4,26.5-45.2C869.6,1123.9,863.6,1137.5,856.7,1150.6z"/>
	<path class="st3" d="M908.9,1045.7c-9.6-0.5-19.5-6.2-27.4-12.8c-2.4-2.2-4.9-4.5-7.3-6.8c-1.8-1.7-4.2-0.7-5,1
		c-0.1-0.1-0.2-0.2-0.3-0.4c0,0,0,0,0,0c0,0,0,0,0,0c-0.2-0.2-0.3-0.4-0.5-0.6c-0.7-0.9-1.6-1.1-2.4-1c0.2-0.9,0.4-1.8,0.6-2.7
		c1-3.8-4.9-5.6-5.9-1.8c-2.1,8.1-3.1,15.8-2.3,24.2c0.3,2.7,4.1,4.7,5.7,1.7c0-0.1,0.1-0.1,0.1-0.1c0,1.7,0,3.4,0,5.1
		c0.1,2.6,3.2,4.3,5.2,2.3c1.6-1.7,3.1-3.2,4.5-4.7c-0.4,4.5-1.1,9.1-1.8,13.6c-0.5,2.8,1.8,4.6,4.4,3.6c2.1-0.9,3.8-2.1,5.2-3.5
		c0,1.7,0,3.3,0.1,5c0.2,2.4,3.2,4.4,5.2,2.3c1.8-2,3.3-4.1,4.7-6.3c0,1.4,0.1,2.8,0.1,4.3c0,0.4,0.2,0.6,0.3,1
		c-2.3,4.5-4.4,9-6.6,13.5c-1.7,3.5,3.6,6.8,5.2,3.2c0.6-1.2,1.2-2.4,1.7-3.6c1.2,0.4,2.4,0.1,3.2-1.4c3.4-6.7,7.7-12.8,11.2-19.3
		c1-0.6,1.5-1.7,1.5-2.9c1.4-2.8,2.5-5.8,3.4-8.9C912.3,1047.7,910.9,1045.9,908.9,1045.7z"/>
	<path class="st3" d="M785.5,1279.7c-8.3,7.9-15,19.8-25.4,25.1c-16.7,8.4-40.8,4.6-58.6,2.8c-31.7-3.1-64.5-1.2-95.7-8.1
		c8-2.6,15.5-6.5,23.3-10.5c3.5-1.8,0.5-7.2-3-5.4c-9.2,4.8-18.2,9.5-28.2,11.7c12-39.7,31.5-76.4,48.1-114.3
		c16.1-36.7,28.1-75.6,51.3-108.6c1.2-4.2,2.4-8.3,3.7-12.4c-13.1-15.5-29.8-27.8-46.9-39.3c-1.1,1.7-2.2,3.4-3.2,5.2
		c17,11.4,33.8,23.5,46.5,39.2c-1.1-0.3-2.4,0-3.3,1.2c-23.9,32.7-36.1,71.4-51.9,108.3c-17.6,41.1-39.3,80.6-51.6,123.9
		c0,0.1,0,0.1,0,0.2c-0.5,1.5,0,3.3,1.9,3.9c38.1,11.5,80.9,9.4,120.4,12.3c15.4,1.1,34.1,2.5,48.7-3.9
		c12.2-5.3,19.1-17.8,28.4-26.7C792.6,1281.4,788.3,1276.9,785.5,1279.7z"/>
	<path class="st3" d="M1212.9,1020.6c-8.6,1.8-13.6,5.5-19.8,11.7c-12,12-23.7,13.5-40.1,13.9c-30.7,0.7-61.2,2.9-91.8,5
		c-30.7,2.1-61.5-1.9-92.1,0.7c-28.4,2.4-55.8,11.5-84.5,11.1c-4-0.1-4.1,6.1-0.1,6.1c28.7,0.4,56.1-8.7,84.5-11.1
		c32.6-2.8,65.4,1.4,98.1-1.2c31.1-2.4,62-3.7,93.2-4.7c9.5-0.3,18.9-1.3,27.1-6.6c9.9-6.3,14.7-16.3,27.1-19
		C1218.3,1025.7,1216.8,1019.8,1212.9,1020.6z"/>
	<path class="st3" d="M1347.3,1021.8c-20.6,21.7-41.7,22.9-69.9,23.2c-34.9,0.3-69.6,0.7-104.5,0c-4-0.1-4.1,6.1-0.1,6.1
		c38.9,0.9,77.8,0.3,116.7,0c25.4-0.2,44.3-6,62.1-24.9C1354.2,1023.4,1350,1018.9,1347.3,1021.8z"/>
	<path class="st3" d="M663.2,1008.1c-2.9,3.5-6.7,11-10.5,12.7c-3.3,1.5-13.4-1-17.4-0.8c-11.3,0.5-22.7,0.9-34.1,1.1
		c2.6-1.5,5.2-3.1,7.9-4.7c3.4-2,0.4-7.4-3-5.4c-5,2.9-10.4,7.2-16.1,8.8c-8.4,2.4-13.5-3.2-19.4-8.5c-10.5-9.6-21.6-18.9-18.9-34.3
		c2.4-13.5,6.5-29.8,13.9-41.5c8.9-14.2,24.9-24.6,40-31.2c3.6-1.6,0.6-7-3-5.4c-17.9,7.8-36.4,20.7-45.2,38.7
		c-6.5,13.2-15.2,35.5-12.2,50.6c2.7,13.6,18.5,27,29.1,34.4c1.9,1.3,3.7,2.2,5.5,2.8c0.3,1.1,1.2,2.1,2.8,2.1
		c12.9,0.1,25.8-0.2,38.7-0.4c10.5-0.2,21.6-3,31.7,1.3c1.3,0.5,2.8-0.3,3.5-1.3c3.4-5,7-9.7,10.9-14.4
		C670,1009.6,665.8,1005.1,663.2,1008.1z"/>
	<path class="st3" d="M727.5,1039.7c-7.2,4.5-14.1,9.5-21.3,13.9c-5,3-10.6,5.2-13.5,10.6c-1.9,3.5,3.4,6.7,5.2,3.2
		c2.8-5.2,9.9-7.5,14.6-10.7c5.9-4,11.9-7.9,17.9-11.7C733.8,1043,730.9,1037.6,727.5,1039.7z"/>
	<path class="st3" d="M717.2,1064c-11.7,2.4-24.8,7.6-33.9,15.5c-3,2.6,1.3,7,4.2,4.4c8.3-7.2,20.5-11.8,31.2-14
		C722.6,1069.2,721.1,1063.2,717.2,1064z"/>
	<path class="st3" d="M697.7,1106c-10.3,0.1-24.1,5.1-32.1,11.8c-3,2.6,1.2,7,4.2,4.4c6.7-5.6,19-10,27.7-10.1
		C701.5,1112.1,701.7,1106,697.7,1106z"/>
	<path class="st3" d="M676.7,1159.7c-10.1-3.2-22.2,5.2-31.5,8.3c-3.7,1.2-2.3,7.2,1.5,6c4.8-1.6,9.3-3.7,14-5.5
		c4.1-1.6,9.8-4.3,14.2-2.9C678.7,1166.8,680.5,1160.9,676.7,1159.7z"/>
	<path class="st3" d="M658.8,1208.3c-6.4-1.2-13.7,1.7-19.6,3.9c-7.4,2.6-15,5.6-21.7,9.7c-3.4,2.1-0.4,7.5,3,5.4
		c5.7-3.5,12.1-6.1,18.4-8.4c4.9-1.8,12.7-5.6,18.2-4.6C660.9,1214.9,662.7,1209,658.8,1208.3z"/>
	<path class="st3" d="M752.5,849.6c-16.1-0.2-31.3,8-45,15.8c-19.2,11.1-40.1,19.5-58.2,32.5c-3.2,2.3-0.2,7.7,3,5.4
		c15.8-11.4,33.8-18.5,50.7-28c15.2-8.6,31.2-19.7,49.3-19.5C756.4,855.8,756.5,849.7,752.5,849.6z"/>
	<path class="st3" d="M1340.4,957.8c-4-9.8-14-12.6-20.7-20.1c-2.6-3-7,1.4-4.3,4.3c5.6,6.3,15.8,9.2,19.1,17.3
		C1335.9,963,1341.9,961.4,1340.4,957.8z"/>
	<path class="st3" d="M1319.5,956.8c-0.8-0.2-1.4-0.7-1.7-0.2c1.7-3.6-3.6-6.7-5.3-3.1c-2.2,4.8,0.7,8,5.3,9.2
		C1321.8,963.7,1323.4,957.7,1319.5,956.8z"/>
</g>
<g id="Stars">
	<path class="st0" d="M729.1,546.6c-12.7-5.2-25.8-9.2-38.7-13.7c-7-2.5-17.3-4.9-23.1-9.6c-4-3.2-6.1-3.5-4.5-9.9
		c0.9-3.7,4.4-7.6,6.5-10.7c16.5-24.5,33.7-48.4,49.7-73.4c1-1.5,0.3-4.2-1.7-4.6c-14.1-2.9-28.2,4.6-40.7,10.2
		c-3.9,1.8-8,3.3-12.2,4.8c0-1.3-0.1-2.6-0.1-3.9c-0.3-3.9-6.4-4-6.1,0c0.1,2,0.2,4,0.1,5.9c-10.3,3.4-20.6,6.7-29.9,11.9
		c-3.9-23.3-17.9-46.6-28.3-67.2c-0.9-1.8-3.4-2-4.8-0.8c-8.2,7.3-11.6,19.3-15,29.3c-5.2,15.3-10.7,30.6-16.3,45.8
		c-0.6,0.1-1.1,0.4-1.6,0.9c-0.6,0.6-1.1,1.2-1.7,1.9c-2-0.5-4.1-1-6.1-1.5c0.5-3.4-3.6-4.8-5.6-2.1c-0.1,0.1-0.2,0.2-0.3,0.4
		c-15.1-4.9-29.8-11.7-45.1-15.8c0.9-3.6-4.7-5.1-6-1.4c-5.9-1.3-12-2-18.2-2c-2.3,0-4,2.5-2.8,4.5c15.8,27.5,39.6,49.4,58.4,74.8
		c-0.7,1.2-1.5,2.4-2.2,3.5c-1.9,2.9,2.6,6.4,4.8,3.7c0.2-0.2,0.3-0.4,0.5-0.6l0,0c0,0,0,0,0-0.1c0.3-0.4,0.6-0.7,0.9-1.1
		c4.7,6.2,10.1,12.8,4.7,19.4c-4.2,5.1-13,9.2-18.4,13.2c-16.5,12.4-32.6,25.2-50.1,36.4c-1.8,1.2-2.3,4.1-0.2,5.3
		c4.9,2.6,9.8,4.2,14.7,5.1c-0.1,0.4-0.2,0.7-0.3,1.1c-0.9,3.8,5,5.5,5.9,1.6c0.2-0.7,0.4-1.4,0.6-2c4.5,0.2,8.9-0.1,13.4-0.7
		c-0.2,0.8-0.5,1.6-0.7,2.5c-1.1,3.6,3.7,5,5.6,2.4c1.5-2.1,2.9-4.2,4.1-6.5c12.8-2.7,25.8-6.7,39.1-6.8c12-0.1,19.6,6.3,25.8,14.6
		c-1.7,5.1-3.5,10.3-5.2,15.4c-1.3,3.8,4.5,5.2,5.9,1.6c1.4-3.3,2.7-6.7,4-10.1c0.7,1.2,1.5,2.4,2.2,3.6c-0.7,3.2-1.5,6.4-2.2,9.6
		c-0.6,2.9,2.9,5.2,5.1,3c1-1,2-2.1,3-3.2c0.1,0.2,0.2,0.4,0.4,0.5c3.2,4.7,6.6,9.4,10.1,14c-0.8,4.1-1.6,8.3-2.2,12.5
		c-0.5,3.8,5.3,5.6,5.9,1.6c0.4-2.5,0.9-4.9,1.5-7.3c0.2,0.2,0.4,0.4,0.5,0.7c-0.1,3-0.1,6,0,9c0.1,3.4,5.2,4.3,6,0.8
		c0.2-0.7,0.3-1.4,0.5-2.1c3.5,3.9,7.1,7.7,10.9,11.3c1.9,1.8,5.1,0.7,5.3-2c1.2-20.5,0.6-41.1,2.1-61.6c0.9-12.5,3.1-25.3-0.9-37.4
		c4.5-2.2,9.2-3.9,13.9-5.1c-0.2,1-0.3,1.9-0.4,2.9c-0.3,3,4.5,4.2,5.7,1.6c1-2.1,1.9-4.1,2.8-6.2c8.7-1.6,17.6-2.2,26.5-2.8
		c-0.1,2.8,4.1,4.7,5.7,1.7c0.4-0.8,0.9-1.5,1.3-2.2c13-1.1,25.8-3,37.8-8.7C732.3,551,731.3,547.5,729.1,546.6z M667.9,530.1
		c-0.5,0.2-0.9,0.7-1.2,1.3c-0.6,1.3-1.2,2.7-1.8,4c0.5-2,1-4,1.5-6C666.8,529.6,667.3,529.9,667.9,530.1z M672,556.7
		C672,556.7,672,556.7,672,556.7c-1.9,0.2-3.9,0.4-5.8,0.6c2.4-2.7,4.7-5.4,6.9-8.1C672.9,551.7,672.6,554.2,672,556.7z
		 M638.7,563.4c2.6-4.9,5.2-9.8,7.9-14.7c-0.3,4.2-0.9,8.4-1.7,12.6C642.8,561.9,640.7,562.6,638.7,563.4z M641.4,515.2
		c-1,4.1-2,8.2-3.1,12.3c-0.7-2.8-5-3.3-5.9-0.2c-1.3,4.7-2.5,9.3-3.8,14c3.7-20.6,8-41,18-58.8c-0.3,4.5-0.8,8.9-1.5,13.4
		c-1.8,5.3-3.6,10.6-5.1,16C639.6,513.3,640.3,514.5,641.4,515.2z M653.5,519.7c-0.5,1.2,0.2,2.8,1.3,3.5c1.7,1,3.5,2,5.2,2.9
		c-2.5,5.1-4.8,10.2-7,15.4c0-1.8,0-3.5-0.1-5.3c-0.1-2.9-4.2-4.4-5.7-1.6c-0.5,0.8-0.9,1.7-1.4,2.5c0.8-4.1,1.5-8.2,2.3-12.3
		c0.3-1.7-0.7-3-2-3.5c1.3-5.1,2.5-10.2,3.5-15.4c1.2-2.4,2.4-4.9,3.6-7.3c0.1,2.8,4,4.6,5.6,1.6c5.6-9.9,9.9-20.5,14.3-30.9
		c-1.1,6.1-1.8,12.2-1.8,18.5c0,0.4,0.1,0.8,0.2,1.2C664.5,498.7,657.7,508.3,653.5,519.7z M711.1,430.2c-5.5,8.7-11,17.4-16.6,26
		c1.1-4.5,1.7-9.3,2-14.1c0.2-3.2-4.1-3.9-5.7-1.6c-2.4,3.5-4.5,7.1-6.3,10.9c1.9-5.4,4.1-10.7,6.5-15.9c0.1-0.3,0.2-0.5,0.3-0.8
		C697.8,432,704.5,430,711.1,430.2z M681.1,439.4c-3,5-5.6,10.2-8.1,15.4c0.7-2,1.4-4,2.1-6.1c1.2-3.8-4.7-5.4-5.9-1.6
		c-0.7,2.3-1.5,4.6-2.4,6.9c-0.2,0.6-0.4,1.3-0.7,1.9c-2.1,5.6-4.4,11.1-6.9,16.5c2.5-8.4,4.4-16.9,5-25.6c1.9-0.7,3.7-1.4,5.6-2.1
		C673.3,443.2,677.1,441.3,681.1,439.4z M632.1,462c2.8,0.1,3.6-2.8,2.6-4.7c7.4-3.5,15.3-5.8,23.1-8.4c-0.8,7.7-2.6,15.3-4.8,22.8
		c0-0.1,0-0.2,0-0.4c0-3.3-4-3.9-5.7-1.6c-2.3,3.1-4.3,6.3-6.1,9.6c0.6-1.4,1.1-2.9,1.7-4.4c1.3-3.4-3.8-5.1-5.6-2.4
		c-1.6,2.5-3.2,5-4.7,7.5c1.2-3.6,2.4-7.1,3.6-10.7c1.2-3.4-3.8-5.1-5.6-2.4c-11.6,17.4-19.8,36.4-26.7,56
		c6.4-20.8,13.2-41.4,19.8-62.1c0.7,0.8,1.9,0.9,2.9,0.6C628.5,461.8,630.3,462,632.1,462z M583.8,423.8c3.3-9.9,5.9-22.2,12.8-30.6
		c9.1,17.6,20.2,36.9,24.8,56.4c0,0-0.1,0.1-0.1,0.1c-2.7,2.6-4.9,5.5-6.9,8.6c1.1-3.2,2.2-6.4,3.2-9.7c1-3.3-3.9-5.4-5.6-2.4
		c-20.6,36.9-29.8,78.9-48.7,116.5c14.6-47,41.2-90.1,47-139.7c0.4-3.1-4.4-4.1-5.7-1.6c-0.3,0.6-0.5,1.1-0.8,1.7
		c0.4-1.2,0.8-2.3,1.3-3.5c1.2-3.2-4.2-5.5-5.6-2.4c-3.4,7.4-6.9,14.9-10.3,22.4c0.2-2.8-4.1-3.8-5.8-1.4
		c-3.8,5.2-7.2,10.6-10.4,16.1C576.7,444.2,580.4,434.1,583.8,423.8z M602.4,488.6c-1.3,5-2.6,9.9-4.1,14.7
		c-6.7,21.8-15.5,43.3-24.3,64.5C579.4,540.5,591.3,514.6,602.4,488.6z M571.7,510.5c-2.6,7.2-5.4,14.3-8.5,21.2
		c0.3-1.6,0.6-3.2,1-4.7C566.8,521.5,569.3,516.1,571.7,510.5z M583.7,493.9c5-15.6,9.8-31.2,15.8-46.4
		C595.5,463.3,589.9,478.7,583.7,493.9z M553.2,468c1,0.3,2,0.5,3,0.8c-1.9,2.2-3.7,4.5-5.5,6.8C551.6,473.2,552.5,470.6,553.2,468z
		 M525.9,496.9c6.5-6.1,12.2-13,17.7-20c-3.7,8.8-8.4,17.1-12.9,25.7C529.1,500.7,527.5,498.8,525.9,496.9z M517.7,487.6
		c1.6-1.4,3.1-2.9,4.5-4.3c-0.8,2.2-1.6,4.5-2.4,6.7C519.1,489.2,518.4,488.4,517.7,487.6z M507.6,476.3c2.8-2.8,5.5-5.7,8.1-8.6
		c-1.2,4.6-2.4,9.2-3.4,13.9C510.7,479.8,509.1,478,507.6,476.3z M499.8,467.2c0.3-0.1,0.6-0.3,0.8-0.6c0.7-0.9,1.6-1.6,2.4-2.4
		c-0.4,1.8-0.8,3.6-1.2,5.4C501.1,468.8,500.4,468,499.8,467.2z M533.9,461.5c-0.6,0.1-1.1,0.4-1.6,0.9c-4.2,4.9-8.3,9.9-12.7,14.6
		c1.6-6.4,3.4-12.7,4.7-19.2C527.5,459,530.7,460.3,533.9,461.5z M512.1,453.4c2,0.7,4,1.4,6,2.1c-3,3.6-6,7-9.2,10.4
		c0.8-3.7,1.8-7.3,3.1-10.9C512.2,454.4,512.2,453.9,512.1,453.4z M501.8,450.3c1.8,0.5,3.6,1,5.3,1.5c-0.1,0.1-0.2,0.1-0.3,0.2
		c-1.9,1.9-3.9,3.7-5.9,5.5C501,455,501.3,452.6,501.8,450.3z M527.6,486.5c2.6-7,5.8-13.7,9.6-20.3c0.7-1.3,0.3-2.7-0.5-3.6
		c2.7,1,5.5,2,8.2,2.9C539.3,472.6,533.7,479.8,527.6,486.5z M496,448.9c-0.9,4.2-1.3,8.1-0.9,12.5c-3.6-4.6-7-9.2-10-14.1
		C488.7,447.6,492.4,448.2,496,448.9z M534.5,507.3c0.4-0.2,0.8-0.6,1.2-1c6.9-9.5,13.6-19.1,20.9-28.3
		c-4.7,12.3-10.6,24.2-17.4,35.6C537.7,511.5,536.1,509.4,534.5,507.3z M543.6,519.9c8.4-11.7,14.9-24.5,21.4-37.3
		c-6.6,16.8-12,33.8-13.2,51.8C549.4,529.4,546.6,524.6,543.6,519.9z M555.1,542.8c0-0.1,0-0.1,0-0.2c-0.1-0.2-0.2-0.5-0.3-0.7
		c0.1,0,0.3,0,0.4,0C555.2,542.2,555.2,542.5,555.1,542.8z M551.2,547.7c-0.7,1-1.4,2-2,3c-0.3-0.4-0.6-0.7-1.1-0.9
		C549.1,549,550.2,548.4,551.2,547.7z M541.7,554.2c-2.4,4.2-4.5,8.6-6.3,13c-0.1-1.2-0.1-2.4-0.2-3.6c-0.1-1.5-1.2-2.6-2.5-2.9
		C535.7,558.5,538.7,556.3,541.7,554.2z M483.2,597c15.7-10.4,30.5-22.1,45.6-33.3c-3.8,7.6-6.5,15.8-9.6,23.7
		c0.2-2.3,0.3-4.6,0.3-7c0-2.3-2.6-3.8-4.6-2.7c-3,1.8-5.6,3.9-7.8,6.2c-1.1-0.5-2.5-0.4-3.5,0.4c-5.3,4.3-9,9.1-11.5,14.9
		C489,598.8,486.1,598.1,483.2,597z M504.1,599.5c2-5.4,4.8-9.5,8.9-13c-0.3,4-1,8-1.8,12C508.8,598.9,506.5,599.3,504.1,599.5z
		 M522.3,596c2.7-6.3,4.9-12.8,7.4-19.2c0.1,3.6,0.1,7.1,0,10.7c-0.2,3.4,5.4,4.2,6,0.8c0-0.1,0.1-0.3,0.1-0.4
		c0.8-0.1,1.5-0.5,2-1.3c7-10.8,10.2-23.7,17.5-34.1c1.4,1.1,3.8,1,4.7-0.7c0.5-0.9,1-1.9,1.5-2.9c-4.1,11.4-7.6,23-10,34.9
		c-0.7,3.4,3.7,5.4,5.6,2.4c4-6.1,7.6-12.5,10.9-18.9c-1.5,7.6-2.6,15.3-2.9,23.2c0,0,0,0.1,0,0.1
		C551.1,587.5,536.7,592.2,522.3,596z M570.5,592c0.2-0.3,0.4-0.5,0.5-0.9c8.6-21.3,17.3-42.6,25.3-64.2
		c-6.9,22.9-13.1,46.1-17.7,69.7c-1.8-1.5-3.8-2.7-5.9-3.7C572.1,592.6,571.3,592.3,570.5,592z M583.8,601.6
		c0.1-0.1,0.2-0.3,0.2-0.4c12.7-31.9,20.5-66,34.1-97.5c-11,33.4-21.3,67-32.3,100.3C585.2,603.2,584.5,602.4,583.8,601.6z
		 M628.4,513.7c-9,36.6-9.3,77.2-31.5,106.9C605.5,584.4,616,548.7,628.4,513.7z M590.8,611c6.1-17.3,11.2-35.1,16.6-52.7
		c-5.5,18.2-10.6,36.6-15,55.1C591.8,612.6,591.3,611.8,590.8,611z M610.7,609.5c-1.1,4.5-2,9-3,13.4c-0.9,3.5-1.7,7-2.4,10.5
		c-1.7-2.4-3.3-4.8-5-7.2C604.5,620.9,607.9,615.4,610.7,609.5z M623.3,656.2c-0.8-0.9-1.6-1.8-2.5-2.8c0.8-3.1,1.6-6.2,2.4-9.2
		C623.3,648.2,623.3,652.2,623.3,656.2z M630.7,616.8c-0.5,15.3-0.6,30.7-1.3,46c-0.5-0.5-0.9-1-1.3-1.4c0.8-0.5,1.4-1.3,1.4-2.5
		c0-2.1,0-4.2,0-6.3c0,0,0,0,0-0.1c0-8.9,0-17.7-0.6-26.5c-0.2-3.5-4.8-4.1-6-0.8c-0.9,2.5-1.8,5.1-2.6,7.7c0.4-2.7,0.7-5.3,1.2-8
		c0.3-1.7-0.9-3.2-2.3-3.7c4.2-14.8,8.8-29.5,12.6-44.4C634.7,589.5,631.1,604.1,630.7,616.8z M679.3,556.2c1-1.6,2.1-3.2,3.1-4.7
		c0,1.1,0.1,2.1,0.1,3.2c0,0.5,0.1,0.9,0.3,1.2C681.7,556,680.5,556.1,679.3,556.2z M694.5,554.9c0.3-1.7,0.2-3.6-0.6-6.1
		c-0.6-2-2.7-2.8-4.5-1.8c-0.4,0.2-0.7,0.4-1,0.6c-0.2-1.7-0.3-3.5-0.6-5.3c-0.5-2.8-4.3-2.7-5.6-0.7c-0.8,1.1-1.6,2.2-2.3,3.3
		c0.2-1.9,0.4-3.9,0.7-5.8c0.5-3.3-3.6-5.5-5.6-2.4c-1.6,2.6-3.4,5-5.3,7.4c1-3.4,2-6.8,2.8-10.2c0.1-0.6,0.1-1.2-0.1-1.7
		c15.5,6.8,31.8,11.5,47.7,17.5C711.7,552.5,703.1,554,694.5,554.9z"/>
	<path class="st0" d="M1663,428.3c0.7,2.2,3.3,3.1,5.1,1.5c10.2-9.4,13.8-24,17.9-37.6c1.8-2.5,3.5-5,5-7.6
		c7.3,4.9,14.9,9.2,22.8,12.4c-0.1,0.3-0.3,0.7-0.4,1c-1.4,3.5,3.7,4.9,5.6,2.4c0.3-0.4,0.6-0.7,0.9-1.1c1.6,0.5,3.3,1,4.9,1.5
		c0.8,1,2.4,1.3,3.6,0.9c5.4,1.2,11.1,1.9,16.9,1.9c2.1,0,3.4-1.8,3.1-3.8c-2.6-18.2-13-36.2-22.8-51.4c-0.9-1.4-6.1-7-6.2-8.9
		c-0.3-5.6,9-13.4,12.4-17.1c8.9-9.8,19.1-18.3,29.3-26.6c2.3-1.8,0.4-5-2-5.3c-19.2-2.5-38.2,5.8-55.6,15.2c-1-0.1-2.2,0.2-2.9,1.4
		c0,0.1-0.1,0.1-0.1,0.2c-3.5,1.9-7,3.9-10.3,5.8c-0.3-9.8-1.4-19.5-3.1-29.1c0.7-1.3,0.3-2.6-0.7-3.5c-2.6-12.9-6.5-25.4-11.9-37.5
		c-0.9-1.9-3.4-2-4.8-0.8c-19.1,16.2-26.9,43.7-36.2,66.4c-0.9-0.3-1.8-0.6-2.8-0.9c-0.3-0.6-0.9-1.1-1.9-1.3
		c-26.4-5.4-53-8.4-80-8.3c-1.9,0-3.6,1.8-3.1,3.8c1.6,5.8,4.8,10.9,8.8,15.5c-0.5,1.8-1,3.4-1.1,3.7c-0.9,3.1,2.9,4.9,5.1,3
		c0.5-0.4,0.9-0.8,1.4-1.2c0.2,0.2,0.4,0.4,0.6,0.5c-0.3,0.7-0.6,1.4-0.9,2.1c-1.2,2.7,1.3,5.8,4.2,4.2c0.9-0.5,1.8-1,2.6-1.5
		c2,1.5,4.1,2.9,6.3,4.3c-0.3,1.6-0.5,3.2-0.6,4.8c-0.3,2.5,3.6,4.2,5.2,2.2c0.7-0.9,1.5-1.8,2.2-2.7c1.1,0.7,2.3,1.3,3.4,2
		c0,0.1-0.1,0.2-0.1,0.4c-0.9,3.1,3,4.9,5.1,3c0.1-0.1,0.2-0.2,0.3-0.3c4.1,2.3,8,4.5,11.6,6.7c-9.4,18-22.5,33.9-30.8,52.5
		c-0.8,1.8,1,4.1,2.9,4c0.3,0,0.5,0,0.8,0c0.3,2,2.3,3.7,4.5,2.4c1.7-1.1,3.4-2.2,5-3.4c0,0,0.1,0,0.1,0c-0.8,1.5-1.5,3.1-2.2,4.7
		c-1.3,3,3.1,4.8,5.1,3c4.1-3.7,8.1-7.5,12-11.3c5-1.6,10-3.6,14.8-5.8c0.8,0.1,1.7-0.1,2.5-0.8c0.4-0.3,0.7-0.6,1.1-0.9
		c4.5-2.2,8.8-4.6,13-7.1c0.3,0.4,0.6,0.9,0.9,1.3c1.1,1.7,3.3,2,4.8,0.6c2.7-2.4,4.3-5.9,5.8-9.6c1.6-1.2,3.2-2.4,4.7-3.6
		C1653,391.7,1657.5,410.2,1663,428.3z M1631.1,377.1c1.9-2.3,3.7-4.7,5.5-7.2c-0.5,1.4-1.1,3-1.7,4.6
		C1633.6,375.4,1632.3,376.2,1631.1,377.1z M1607.5,389.9c1.1-1.2,2.1-2.3,3.2-3.5c-0.2,0.8-0.5,1.6-0.7,2.4
		C1609.2,389.2,1608.3,389.6,1607.5,389.9z M1648.9,337.6c-0.8,1.9-1.6,3.9-2.3,5.9c-8.3,13.2-16.6,26.4-27.4,37.6
		c2.6-5.9,6-11.5,9.3-17.2c0.8,0.1,1.5-0.2,2.2-0.9C1637.5,355.1,1643.3,346.4,1648.9,337.6z M1636.7,345.2
		c2.8-6.9,6.1-13.6,9.8-20.2c0.3-0.5,0.6-0.9,0.9-1.4c0.5,0.8,1.3,1.4,2.2,1.5C1645.4,331.9,1641.2,338.7,1636.7,345.2z
		 M1626.8,355.1c-0.3,0.2-0.7,0.6-0.9,1c-8.6,13.9-19.2,26.1-30.6,37.5c0.4-0.6,0.7-1.1,1.1-1.7c8-7.9,15-16.9,20.8-26.5
		c0.3-0.5,0.4-1,0.4-1.5c3.6-5,7.3-10,11.1-14.9C1628,351.1,1627.4,353.1,1626.8,355.1z M1607.3,368L1607.3,368
		c-5.2,6.4-10.4,12.8-15.1,19.6c-2.3,2.3-4.7,4.5-7.2,6.6c7.1-12.1,15.2-23.6,22-35.8c1.3-2.3-0.7-4.5-2.7-4.6
		c0.6-1.2,1.3-2.4,1.9-3.6c1,0.5,2.3,0.4,3.2-0.7c5.7-6.3,11.3-12.6,17-18.9C1620.8,343.4,1613.7,355.6,1607.3,368z M1605.2,344.6
		c-1.2-0.8-2.5-1.6-3.9-2.4c0.1,0,0.1-0.1,0.2-0.1c3.6-3,6.9-6.2,10-9.4C1609.5,336.6,1607.4,340.6,1605.2,344.6z M1646.3,366.7
		c0.4-0.4,0.7-0.8,0.9-1.5c5.7-21.7,17.4-41.8,31.6-59.1c-5.6,23.5-15.6,45.8-28,66.4c-0.7-1.4-1.3-2.8-2-4.2
		C1648.3,367.2,1647.3,366.7,1646.3,366.7z M1676.2,264.9c0.5,1.6,1,3.2,1.4,4.8c-0.3,0.2-0.6,0.4-0.8,0.7c-3,4.1-6.6,7.6-10.2,10.9
		C1669.8,276,1673,270.5,1676.2,264.9C1676.2,265,1676.2,264.9,1676.2,264.9z M1684.2,317.3c-1.3,1.9-2.5,3.9-3.8,5.8
		c1.3-4.1,2.5-8.2,3.6-12.3C1684.1,313,1684.2,315.1,1684.2,317.3z M1682.3,292.7c-0.1,0.1-0.2,0.2-0.3,0.3
		c-0.8,0.9-1.5,1.8-2.3,2.6c0.8-1.3,1.7-2.6,2.5-3.8C1682.2,292.1,1682.3,292.4,1682.3,292.7z M1680.6,282.2c-1.5,1.6-3,3.2-4.4,4.8
		c1.3-2.7,2.5-5.4,3.7-8.2C1680.1,280,1680.3,281.1,1680.6,282.2z M1713,324.4c0.6-0.8,1.2-1.5,1.8-2.3c4.1-4.4,8.4-8.6,13.2-12.2
		c-3.1,5.9-7,11.4-11.2,16.6C1716.2,324.9,1714.4,324,1713,324.4z M1728.1,302.2c0.1-0.4,0.1-0.8,0-1.2c1.4-0.5,2.8-1,4.3-1.5
		C1730.9,300.4,1729.5,301.2,1728.1,302.2z M1714.1,308.9c0.3-0.4,0.6-0.8,0.9-1.2c0.3-0.4,0.4-0.9,0.5-1.3c0.6-0.3,1.2-0.6,1.9-0.9
		C1716.2,306.6,1715.2,307.8,1714.1,308.9z M1697.1,331.7c1.4-0.9,2.6-1.9,3.9-2.9c-0.8,1-1.5,1.9-2.3,2.9c-2.4,3,1.6,7.3,4.3,4.3
		c2.7-2.9,5.2-5.8,7.6-8.8c-1.8,4-3.6,8-5.6,12c-1.2-0.9-3.1-1-4.2,0.9c-3.5,5.5-6.6,11.2-9.4,17c0.6-2.2,1.2-4.4,1.6-6.7
		c0.5-2.7-3-5.6-5.1-3c-7.2,9.1-11.7,19.8-17.5,29.7c3.5-9.1,7.4-18,11.6-26.8c1.7-3.3,3.4-6.6,5.1-10c0.9,0.2,1.9,0,2.6-0.8
		c2.1-2.4,4.1-4.9,6.1-7.5C1696.3,332.1,1696.7,332,1697.1,331.7z M1709.3,388.1C1709.3,388.2,1709.3,388.2,1709.3,388.1
		c-0.6-0.2-1.2-0.5-1.8-0.8c0.6-0.8,1.2-1.6,1.8-2.4C1709.3,386,1709.2,387,1709.3,388.1z M1699.6,382.9c0.3-0.1,0.6-0.3,0.9-0.6
		c0.6-0.5,1.1-1.2,1.7-1.7c-0.4,1.1-0.7,2.2-1.1,3.3C1700.6,383.5,1700.1,383.2,1699.6,382.9z M1679.9,372.2
		c-4.8,11.6-10.9,22.7-17.1,33.7c-0.8-2.6-1.6-5.3-2.4-7.9c0.9,0.1,1.8-0.1,2.5-0.8C1670.5,390,1675.2,381.1,1679.9,372.2z
		 M1658.5,392.1c-1.7-5-3.5-9.9-5.5-14.7c1.1,0.1,2.2-0.2,2.9-1.4c0.8-1.3,1.6-2.6,2.4-3.9c-0.1,2.2,2.6,4.2,4.6,2.8
		c1-0.8,1.9-1.6,2.9-2.4C1663.2,378.9,1660.7,385.5,1658.5,392.1z M1667.3,421.4c-0.7-2.5-1.5-5-2.2-7.4c4.6-4.9,8.4-10.1,11.9-15.6
		c0.2,0.2,0.4,0.3,0.6,0.4C1675.2,407,1672.3,415.1,1667.3,421.4z M1697,373.6c-0.5,1.9-1.1,3.8-1.6,5.7c-0.1,0.3-0.1,0.6-0.1,0.9
		c-0.4-0.3-0.9-0.6-1.3-0.9C1695,377.4,1696,375.5,1697,373.6z M1714.3,390.5c0.1-0.1,0.2-0.1,0.2-0.2c1.2-1.3,2.4-2.5,3.6-3.7
		c-0.7,1.6-1.3,3.2-2,4.7C1715.6,391,1714.9,390.8,1714.3,390.5z M1724.5,394.2C1724.5,394.2,1724.5,394.2,1724.5,394.2
		C1724.5,394.2,1724.5,394.2,1724.5,394.2C1724.5,394.2,1724.5,394.2,1724.5,394.2z M1741.7,397.2c-3.6-0.2-7.1-0.7-10.5-1.4
		c0.8-3.8,1.2-7.5,1.6-11.4c0.2-2.7-3.5-4-5.2-2.2c-0.5,0.6-1,1.1-1.6,1.6c1.4-3.3,2.7-6.6,4-9.9c1.1-2.8-3.2-5.3-5.1-3
		c-2.7,3.3-5.8,6.3-8.9,9.2c1-6.2,3.6-11.6,6.8-17.2c0.7-1.2,1.4-2.5,2.2-3.7c0.1-0.2,0.2-0.5,0.3-0.7
		C1732.7,370.6,1739,384,1741.7,397.2z M1722.8,354.8c-1.1-0.3-2.4,0.1-3.2,1.4c-0.8,1.4-1.6,2.8-2.4,4.2c-0.4,0.6-0.7,1.3-1.1,1.9
		c1.2-2.6,2.4-5.1,3.6-7.6c1.7-3.5-3.5-6.7-5.3-3.1c-2.7,5.8-5.6,11.2-9.2,16.2c2.4-7.4,5-14.8,6.6-22.5c0.2-1.1-0.1-2-0.7-2.7
		c0.5-0.6,1.1-1.2,1.6-1.8c0.1,0.3,0.3,0.5,0.5,0.8C1716.4,345.6,1719.7,350.1,1722.8,354.8z M1734.2,311.1c1.4-2.8,2.7-5.7,3.8-8.7
		c0.7-1.8-0.7-3.4-2.4-3.7c5-1.3,10.1-2.2,15.2-2.3C1745.2,301,1739.5,305.9,1734.2,311.1z M1689.9,325.4c-0.9,0-1.8,0.4-2.4,1.4
		c-1.4,2.3-2.6,4.7-3.8,7.1c-3.1,5.6-6,11.3-8.7,17.1c-1.6,2.9-3.4,5.7-5.3,8.4c6-13.4,13.6-26,20.2-39c1.4-0.8,2.8-1.6,4.2-2.4
		C1692.7,320.4,1691.3,322.9,1689.9,325.4z M1674.9,260.9c-1.1-0.5-2.4-0.4-3.5,0.4c-4,3.1-7.1,6.8-9.9,10.7
		c3.1-6.5,6.6-12.8,10.8-18.5C1673.2,255.9,1674,258.4,1674.9,260.9z M1638.2,313.5c3.6-8.5,6.9-17.8,10.6-26.9
		c-1.5,4.2-3,8.4-4.4,12.5c-1.2,3.6,3.7,4.9,5.6,2.4c0.4-0.6,0.8-1.2,1.2-1.8c1.1,0.5,2.5,0.5,3.5-0.4c4.8-4.1,9.8-8,14.5-12.1
		c-3.7,7.4-7.9,14.4-12.7,21.3c0.5-0.9,1.1-1.8,1.5-2.8c1.8-3.5-3.2-6.5-5.3-3.1c-3.9,6.3-7.8,12.7-11.5,19.2
		c-3.6,5.3-7.4,10.4-11.2,15.5c2.9-6.4,5.5-12.8,7.6-19.6c0.3-1,0-2-0.6-2.7C1637.5,314.7,1637.9,314.1,1638.2,313.5z M1626.7,314
		c1.2,1.8,3.4,1.7,4.8,0.6c0.3,0.1,0.5,0.2,0.8,0.3c-4,4.3-7.9,8.6-11.8,12.9c1.8-3.8,3.5-7.6,5.1-11.5c1.2-2.8-3.2-5.2-5.1-3
		c-4.2,4.8-8.3,9.6-12.6,14.2c1.6-3.7,3.1-7.3,4.7-11c1.3-3-2.1-6.4-4.8-3.7c-4.7,4.6-9.1,9.6-13.6,14.5c2.7-5.7,5.7-11.3,9-16.8
		c0.5-0.8,0.6-1.5,0.4-2.1c7.3,1,14.6,2.3,21.8,3.7C1625.8,312.7,1626.3,313.4,1626.7,314z M1597.7,307.5
		c-5.3,6.9-11.6,13-17.5,19.4c1.2-4.7,2.8-9.2,4.9-13.8c1.4-3-2.3-6.4-4.8-3.7c-3.6,3.8-7.5,7.1-11.6,10.1c1.1-2.9,2.3-5.7,3.8-8.4
		c1.6-3-2.4-6.4-4.8-3.7c-2,2.2-4,4.1-6.2,6c0.4-4.7-1-8.6-7.7-7.9c-0.2-0.4-0.4-0.7-0.5-1.1
		C1568.1,304.6,1582.9,305.6,1597.7,307.5z M1572,324.8c1.1-0.7,2.1-1.5,3.1-2.3c-0.4,1.2-0.7,2.5-1,3.8
		C1573.4,325.7,1572.7,325.3,1572,324.8z M1583.7,332.2c1-1.1,2-2.2,3-3.3c-0.6,1.3-1.1,2.7-1.6,4.1
		C1584.6,332.7,1584.1,332.5,1583.7,332.2z M1600.3,329.7c-1.2,2.9-2.4,5.8-3.7,8.6c-0.1,0.3-0.2,0.7-0.3,1
		c-1.1-0.6-2.2-1.3-3.4-1.9C1595.5,334.9,1597.9,332.3,1600.3,329.7z"/>
	<path class="st0" d="M1812.3,1618.5c-12.4-7.8-26.1-15-41-15.3c0.2-1.3,0.5-2.6,0.7-3.9c0.1-0.7-0.1-1.3-0.4-1.7
		c3.5-13.5,8.6-26.7,9.2-40.8c0.1-1.9-2.1-3.6-3.9-3c-7.1,2.6-13,8.9-19.1,13.9c-1.3-1.5-4.2-1.7-5.2,0.3c-0.7,1.5-1.3,2.9-2,4.4
		c-1.4,0.7-2.9,1.3-4.4,1.6c-15.5,3.5-28.9-18.9-40.4-27.6c-2-1.5-4.5,0.6-4.6,2.7c-0.8,19.8,4.9,39.1,4.9,58.8
		c-1.4,0.3-2.7,0.7-4.1,1c-1.1-0.7-2.7-0.7-3.8,0.3c-0.3,0.3-0.5,0.5-0.8,0.8c-18.1,4.7-36,10.8-50.6,22.7c-2.1,1.8-0.3,5.2,2.2,5.2
		c9.6,0.1,19.2,0.7,28.8,1.7c6.4,0.7,24.1-0.2,29.1,3.7c5,3.8,2.2,16.8,1.9,23.1c-0.5,2.2-1.1,4.4-1.6,6.6c-0.4,1.7,0.7,3.1,2.1,3.7
		c0.6,6,1.8,11.7,4.1,17.7c0.9,2.4,4.2,3.1,5.6,0.7c3.7-6,6.9-12.2,10-18.5c4.5-9.1,7-12.7,17.3-6.6c1.5,0.9,3,1.9,4.5,2.8
		c-0.5,3.1,2.9,4.6,4.8,3.1c0.1,0.1,0.3,0.2,0.4,0.2c-0.2,0.7-0.4,1.3-0.5,2c-0.8,3.3,3.9,5.5,5.6,2.4c0.2-0.3,0.4-0.7,0.6-1
		c4.7,2.7,9.6,4.9,15.2,6.2c1.9,0.4,3.9-0.9,3.9-3c-0.5-16.7-5.7-32.3-14.5-46.3c15.7-1.3,30.1-7.7,45.2-12.3
		C1814.1,1623.3,1814.6,1619.9,1812.3,1618.5z M1667.2,1632.2c-0.1,0.2-0.1,0.4-0.1,0.6c-3-0.2-6-0.5-9-0.6
		c4.1-2.6,8.4-4.9,12.8-6.9C1669.3,1627.3,1668.1,1629.4,1667.2,1632.2z M1691.1,1633.9c-0.1,0.4-0.1,0.8-0.1,1.2
		c-5.5-0.7-11.1-1.3-16.6-1.8c2.8-2.5,5.5-5,8.4-7.5c-0.3,1.1-0.6,2.2-0.9,3.2c-0.9,2.8,3.1,5.3,5.1,3c2.5-2.9,4.8-5.9,7.1-8.8
		C1693.1,1626.8,1692.2,1630.4,1691.1,1633.9z M1704.5,1636.8c-2.5-0.3-4.9-0.6-7.4-0.9c4.8-5.1,7.9-11.1,10.9-17.3
		C1706.5,1624.6,1705,1630.6,1704.5,1636.8z M1771.4,1563.8c0.9-0.7,1.9-1.3,2.8-1.9c-0.7,5.4-1.9,10.6-3.3,15.8
		c0.6-3.9,1-7.8,1.3-11.8C1772.2,1565,1771.9,1564.3,1771.4,1563.8z M1757.6,1575.2c1.6-1.2,3.2-2.5,4.8-3.9
		c-2,3.3-3.9,6.7-5.7,10.1C1757,1579.3,1757.3,1577.2,1757.6,1575.2z M1725,1631.8c5-15.6,10.8-30.8,17.8-45.7
		c1.7-3.5-3.3-6.6-5.3-3.1c-3.5,6-6.3,13.6-9.5,20.8c0.5-4.8,1-9.5,1.5-14.3c0-0.4,0-0.8-0.1-1.1c1.1-3.4,1.9-6.8,2.5-10.3
		c2.9,1.6,6,2.7,9.4,3c2,0.2,3.9,0,5.8-0.5c-7.8,17.7-14.8,35.7-22.3,53.5C1724.8,1633.4,1724.9,1632.6,1725,1631.8z M1720.6,1569.4
		c1.3,1.3,2.6,2.5,4,3.7c-1.9,2.1-3.6,4.4-5.2,6.7C1720,1576.3,1720.5,1572.9,1720.6,1569.4z M1724.6,1582.9
		c-0.7,2.7-1.5,5.4-2.5,8.1c-1.4,2.9-2.8,5.8-3.9,8.7c-0.4-1.5-1.8-2.8-3.2-2.7C1718.4,1592.4,1721.3,1587.5,1724.6,1582.9z
		 M1721.1,1610.4c-0.2,2.3-0.5,4.6-0.7,7c-0.8,1.1-1.8,2-2.7,3c0.2-0.8,0.5-1.6,0.7-2.4c0.6-1.7,1.1-3.5,1.7-5.2
		c0.3-0.8,0.6-1.5,0.9-2.3C1721,1610.5,1721,1610.5,1721.1,1610.4z M1709.9,1580.9c1-0.3,1.8-0.9,2.1-2c0.4-2.1,1.1-4,2.1-5.8
		c-0.6,5.1-1.7,10.2-3.3,15.1C1710.6,1585.8,1710.3,1583.3,1709.9,1580.9z M1715.1,1640.9c-0.1-1.8-1.3-2.8-3.1-3.1
		c-0.3,0-0.7-0.1-1-0.1c1-2.2,1.9-4.4,2.8-6.6c0.2-0.1,0.4-0.1,0.6-0.2c0.2-0.1,0.3-0.2,0.4-0.3c0,0.3,0.1,0.7,0.3,1
		c0.7,1.5,1.4,3,2.1,4.5c-0.7,2.3-1.4,4.5-2,6.8C1715.1,1642.2,1715.1,1641.6,1715.1,1640.9z M1716.4,1681.2c-0.6-3.7-0.9-7.3-1-11
		c12-25,21.8-50.9,32.6-76.4c-1.1,4.9-2.4,9.7-3.8,14.5C1734.3,1632.3,1726.5,1657.3,1716.4,1681.2z M1734.3,1657.9
		c-0.5-0.2-1.1-0.1-1.7,0.1c6.4-15.6,12.4-31.3,17.2-47.4c4.3-10.4,9-20.5,14.4-30.4c-1.8,10.4-4.6,20.6-8,30.6
		c-0.7,0.2-1.3,0.6-1.7,1.5c-6.9,14.1-13.8,28.4-17.2,43.8c-0.3,1.5,0.6,2.9,1.8,3.5C1737.5,1659,1735.9,1658.4,1734.3,1657.9z
		 M1745.6,1661.5c0,0.6,0.1,1.1,0.3,1.5c-2.1-1.1-4.1-2.2-6.3-3.1c1.2,0.4,2.5,0.1,3.2-1.4c0.3-0.6,0.6-1.3,0.9-1.9
		c1,0.1,2-0.2,2.7-1.3C1746.1,1657.3,1745.8,1659.4,1745.6,1661.5z M1752.4,1666.8c-1.3-0.8-2.6-1.6-3.9-2.3c1.1,0,2.2-0.4,2.9-1.4
		c1.7-2.6,3.4-5.1,5.1-7.7C1755.2,1659.2,1753.7,1662.9,1752.4,1666.8z M1768.3,1654.9c0.1-0.5,0.1-0.9,0-1.3
		c3.3,7.9,5.4,16.2,6.1,24.9c-1.4-0.5-2.8-1.1-4.2-1.7c0.8-4.2,1.2-8.2,1.5-12.5c0.1-2.7-3.4-4-5.2-2.2c-0.1,0.1-0.1,0.1-0.2,0.2
		C1766.9,1659.8,1767.7,1657.4,1768.3,1654.9z M1760.8,1630.5c-2.2,0-4,2.7-2.7,4.6c1.3,1.9,2.5,3.8,3.7,5.7
		c-0.8-0.1-1.7,0.1-2.3,0.7c-2.1,2.1-3.9,4.4-5.6,6.7c1.2-5.3,2.4-10.7,2.8-16.2c0.1-0.8-0.2-1.5-0.6-2c0.8-2.5,1.5-4.9,2.1-7.4
		c2-5.1,3.8-10.2,5.4-15.4c0.1,0.3,0.2,0.6,0.4,0.9c-1.7,6.4-4.2,12.6-6.8,18.6c-1.5,3.7,4.4,5.2,5.9,1.6c1.7-4.1,3.7-8,6.2-11.7
		c0,0.1-0.1,0.2-0.1,0.4c-1.2,1.8-2.3,3.7-3.2,5.7c-1.6,3.6,3,6.4,5.3,3.1c1.3-1.8,2.3-3.7,3.2-5.6c0.8-1.1,1.6-2.2,2.5-3.2
		c0.3,2.7,0.3,5.3-0.6,8.2c-0.4,1.3,0.2,2.4,1,3.1C1772.1,1629.7,1766.6,1630.5,1760.8,1630.5z M1788.4,1625.4
		c1.8-3.4,2.6-6.1,0.7-10.4c-0.8-1.7-3.7-2.1-4.8-0.6c-0.4,0.5-0.8,1-1.2,1.5c-0.2-1.6-0.5-3.2-0.8-4.9c7.4,2,14.4,5.4,21.1,9.4
		C1798.4,1622,1793.4,1623.8,1788.4,1625.4z"/>
</g>
</svg>
