<?xml version="1.0" encoding="utf-8"?>
<!-- Generator: Adobe Illustrator 21.0.2, SVG Export Plug-In . SVG Version: 6.00 Build 0)  -->
<svg version="1.1" id="Слой_1" xmlns="http://www.w3.org/2000/svg" xmlns:xlink="http://www.w3.org/1999/xlink" x="0px" y="0px"
	 viewBox="0 0 2500 2000" style="enable-background:new 0 0 2500 2000;" xml:space="preserve">
<style type="text/css">
	.st0{fill:#28FF6C;}
	.st1{fill:#00F801;}
	.st2{fill:#0000F7;}
	.st3{fill:#FFFFFF;}
	.st4{fill:#FFFF00;}
	.st5{fill:#818100;}
	.st6{fill:#0000FF;}
	.st7{fill:#D1D1D1;}
	.st8{fill:#F70000;}
	.st9{fill:#FF5EFB;}
	.st10{fill:#008000;}
	.st11{fill:#F4C500;}
	.st12{fill:#808080;}
	.st13{fill:#C0C0C0;}
	.st14{fill:#D6D6D6;}
	.st15{fill:#00FF00;}
</style>
<g id="Frames">
	<g>
		<path class="st0" d="M1143.4,1351.6H586.5V351.9h556.9V1351.6z M591.6,1346.5h546.6V357.1H591.6V1346.5z"/>
	</g>
	<rect x="1156.2" y="465.4" class="st1" width="89" height="11.8"/>
	<rect x="1156.2" y="586.6" class="st1" width="89" height="11.8"/>
	<rect x="1387.4" y="999.9" class="st1" width="18.9" height="163.8"/>
	<rect x="909.7" y="1349" class="st1" width="18.9" height="163.8"/>
	<rect x="913" y="1493.9" class="st1" width="289.5" height="18.9"/>
	<rect x="1577.7" y="999.9" class="st1" width="18.9" height="163.8"/>
	<path class="st1" d="M1468.8,1713.3c-152.2,0-276.1-123.8-276.1-276.1s123.8-276.1,276.1-276.1c152.2,0,276.1,123.9,276.1,276.1
		S1621.1,1713.3,1468.8,1713.3z M1468.8,1166.3c-149.4,0-270.9,121.5-270.9,270.9c0,149.4,121.5,270.9,270.9,270.9
		c149.4,0,270.9-121.5,270.9-270.9C1739.8,1287.8,1618.2,1166.3,1468.8,1166.3z"/>
	<path class="st0" d="M1682.3,1002.5h-440.4V381.3h440.4V1002.5z M1247,997.3h430.1V386.4H1247V997.3z"/>
</g>
<g id="Sign_2">
	<g id="BG_1_">
		<rect x="1292.3" y="336" class="st2" width="435.3" height="616"/>
		<path class="st3" d="M1708,936.2h-396.1V351.9H1708V936.2z M1317,931h385.8v-574H1317V931z"/>
	</g>
	<g id="Folder">
		<polygon class="st4" points="1418.9,585.7 1442,562.6 1534.1,562.6 1534.1,591.4 		"/>
		<rect x="1418.9" y="585.7" class="st5" width="216.6" height="204.6"/>
		<path class="st4" d="M1503.6,585.7h-84.7v84.7C1447.1,642.1,1475.3,613.9,1503.6,585.7z"/>
		<rect x="1418.9" y="712.8" width="216.6" height="77.5"/>
		<g>
			
				<rect x="1443.1" y="556.7" transform="matrix(0.7071 -0.7071 0.7071 0.7071 -12.7257 1269.6644)" class="st3" width="166.3" height="187.1"/>
			
				<rect x="1429.4" y="606" transform="matrix(0.7071 -0.7071 0.7071 0.7071 3.5586 1230.3506)" class="st6" width="115.2" height="9.8"/>
			
				<rect x="1450.6" y="627.2" transform="matrix(0.7071 -0.7071 0.7071 0.7071 -5.242 1251.5972)" class="st6" width="115.2" height="9.8"/>
			
				<rect x="1471.9" y="648.5" transform="matrix(0.7071 -0.7071 0.7071 0.7071 -14.0426 1272.8436)" class="st6" width="115.2" height="9.8"/>
		</g>
		<polygon class="st4" points="1635.5,790.3 1419.7,790.3 1368.6,626.2 1584.4,626.2 		"/>
		<polygon class="st5" points="1415,775.2 1419.7,790.3 1635.5,790.3 1630.8,775.2 		"/>
	</g>
	<g id="Buttons">
		<rect x="1473.7" y="383.9" class="st7" width="53.3" height="53.3"/>
		<g>
			<path d="M1529.6,439.7h-58.4v-58.4h58.4V439.7z M1476.3,434.6h48.1v-48.1h-48.1V434.6z"/>
		</g>
		<rect x="1549.4" y="383.9" class="st7" width="53.3" height="53.3"/>
		<g>
			<path d="M1605.2,439.7h-58.4v-58.4h58.4V439.7z M1552,434.6h48.1v-48.1H1552V434.6z"/>
		</g>
		<rect x="1564.8" y="399.3" class="st7" width="22.3" height="22.3"/>
		<g>
			<path d="M1589.8,424.3h-27.5v-27.5h27.5V424.3z M1567.4,419.1h17.2v-17.2h-17.2V419.1z"/>
		</g>
		<rect x="1625" y="383.9" class="st7" width="53.3" height="53.3"/>
		<g>
			<path d="M1680.9,439.7h-58.4v-58.4h58.4V439.7z M1627.6,434.6h48.1v-48.1h-48.1V434.6z"/>
		</g>
		<rect x="1487.9" y="419.5" width="24.9" height="5.2"/>
		<line class="st7" x1="1564.8" y1="403.2" x2="1587.2" y2="403.2"/>
		<g>
			<rect x="1564.8" y="400.6" width="22.3" height="5.2"/>
		</g>
		<g>
			<line class="st7" x1="1641.6" y1="400.4" x2="1661.7" y2="420.6"/>
			<g>
				<rect x="1649.1" y="396.2" transform="matrix(0.7072 -0.7071 0.7071 0.7072 193.4315 1288.0361)" width="5.2" height="28.6"/>
			</g>
		</g>
		<g>
			<line class="st7" x1="1661.7" y1="400.4" x2="1641.6" y2="420.6"/>
			<g>
				<rect x="1637.4" y="407.9" transform="matrix(0.7071 -0.7071 0.7071 0.7071 193.4862 1288.127)" width="28.6" height="5.2"/>
			</g>
		</g>
	</g>
</g>
<g id="Sign_3">
	<circle class="st8" cx="1507" cy="1399" r="273.5"/>
	<circle class="st1" cx="1507" cy="1399" r="214.7"/>
	<path class="st3" d="M1507.3,1653.2h-0.2c-22.2,0-44.2-2.9-65.5-8.5c-5.5-1.5-8.8-7.1-7.3-12.6c1.5-5.5,7.1-8.8,12.6-7.3
		c19.5,5.2,39.8,7.8,60.2,7.8c5.7,0,10.4,4.6,10.4,10.3C1517.4,1648.6,1513,1653.2,1507.3,1653.2z M1570.3,1644.9
		c-4.6,0-8.7-3-10-7.6c-1.5-5.5,1.8-11.2,7.3-12.6c19.7-5.3,38.6-13.1,56.3-23.4c4.9-2.9,11.2-1.2,14.1,3.8
		c2.9,4.9,1.2,11.2-3.8,14.1c-19.2,11.1-39.8,19.7-61.3,25.5C1572.1,1644.8,1571.2,1644.9,1570.3,1644.9z M1385.3,1620.7
		c-1.7,0-3.5-0.4-5.1-1.4c-19.2-11.1-36.9-24.7-52.6-40.3c-4-4-4-10.6,0-14.6c4-4,10.6-4,14.6,0c14.5,14.4,30.7,26.9,48.4,37.1
		c4.9,2.8,6.6,9.2,3.8,14.1C1392.4,1618.9,1388.9,1620.7,1385.3,1620.7z M1679.6,1581.7c-2.6,0-5.3-1-7.3-3c-4-4-4-10.6,0-14.6
		c14.4-14.5,26.9-30.7,37.1-48.4c2.9-4.9,9.2-6.6,14.1-3.8c4.9,2.9,6.6,9.2,3.8,14.1c-11.1,19.2-24.7,36.9-40.4,52.6
		C1684.8,1580.7,1682.2,1581.7,1679.6,1581.7z M1296,1531.6c-3.6,0-7-1.8-8.9-5.1c-11.2-19.2-19.7-39.8-25.5-61.2
		c-1.5-5.5,1.8-11.2,7.3-12.6c5.5-1.5,11.2,1.8,12.6,7.3c5.3,19.7,13.2,38.6,23.4,56.2c2.9,4.9,1.2,11.2-3.7,14.1
		C1299.5,1531.2,1297.7,1531.6,1296,1531.6z M1742.7,1472.4c-0.9,0-1.8-0.1-2.7-0.4c-5.5-1.5-8.8-7.1-7.3-12.6
		c5.2-19.6,7.9-39.9,7.9-60.4v-1c0-5.7,4.6-10.3,10.3-10.3c5.7,0,10.3,4.6,10.3,10.3v1c0,22.3-2.9,44.4-8.6,65.8
		C1751.4,1469.4,1747.2,1472.4,1742.7,1472.4z M1263.1,1409.6c-5.7,0-10.3-4.4-10.3-10.1c0-0.1,0-0.7,0-0.8
		c0-21.8,2.8-43.8,8.4-64.9c1.5-5.5,7.1-8.8,12.6-7.3c5.5,1.5,8.8,7.1,7.3,12.6c-5.2,19.5-7.8,39.6-7.8,60
		C1273.4,1404.7,1268.8,1409.6,1263.1,1409.6z M1742.4,1345.3c-4.5,0-8.7-3-9.9-7.6c-5.3-19.7-13.3-38.6-23.6-56.2
		c-2.9-4.9-1.2-11.2,3.7-14.1c4.9-2.9,11.2-1.2,14.1,3.7c11.2,19.2,19.8,39.8,25.6,61.2c1.5,5.5-1.8,11.2-7.2,12.7
		C1744.2,1345.1,1743.3,1345.3,1742.4,1345.3z M1295.5,1287.9c-1.7,0-3.5-0.4-5.1-1.4c-4.9-2.8-6.6-9.1-3.8-14.1
		c11.1-19.2,24.6-36.9,40.3-52.7c4-4,10.5-4.1,14.6,0c4,4,4.1,10.5,0,14.6c-14.4,14.5-26.9,30.8-37,48.4
		C1302.5,1286,1299,1287.9,1295.5,1287.9z M1678.9,1236.3c-2.6,0-5.3-1-7.3-3c-14.5-14.4-30.8-26.8-48.5-37
		c-4.9-2.8-6.6-9.1-3.8-14.1c2.8-4.9,9.1-6.6,14.1-3.8c19.2,11,37,24.6,52.7,40.2c4,4,4.1,10.5,0.1,14.6
		C1684.2,1235.2,1681.5,1236.3,1678.9,1236.3z M1384.5,1198.4c-3.6,0-7-1.8-8.9-5.1c-2.9-4.9-1.2-11.2,3.7-14.1
		c19.2-11.2,39.8-19.8,61.2-25.6c5.5-1.5,11.2,1.8,12.6,7.3c1.5,5.5-1.8,11.2-7.3,12.6c-19.7,5.3-38.6,13.2-56.2,23.5
		C1388,1197.9,1386.3,1198.4,1384.5,1198.4z M1569.4,1173.5c-0.9,0-1.8-0.1-2.6-0.3c-19.4-5.1-39.5-7.7-59.7-7.7h-0.8
		c-5.7,0-10.3-4.6-10.3-10.3c0-5.7,4.6-10.3,10.3-10.3h0.8c22,0,43.9,2.8,65,8.4c5.5,1.5,8.8,7.1,7.3,12.6
		C1578.1,1170.4,1574,1173.5,1569.4,1173.5z"/>
	<g>
		<path d="M1572.4,1385.2l41.6-16.1l17.3-17.3c0,0-29-11.9-33.4-18.5c-7.1-10.7,1.4-30.8-8.4-38.5c-0.4-31.5-6.4-49.5-23.6-56.9
			c-21-8.9-65.4,11.7-93.3,44.1c-5,1.3-14.2,4.6-19.2,6.5c-61.2,24.7-90.9,94.4-66.1,155.7c0.8,2.1,1.7,4.1,2.6,6.1
			c-11,55.8-4,100.2,21.3,110.9c21.5,9.2,51.4-8.2,80-42.4c17.1,1,34.7-1.6,51.7-8.5c48.5-19.6,89.6-67,87.1-116.4l-50,4.5
			l-17.3,17.3c-4.6,20.8-8.4,17-4.6,8C1563.8,1410.7,1568.5,1397.8,1572.4,1385.2z M1548.4,1262.3c11.9,5,18.6,19.7,20.4,40.5
			c-19.8-14.4-43.7-22.5-68.4-23C1518.3,1263.8,1535.4,1256.8,1548.4,1262.3z M1473.2,1335.5c14-5.6,28.9-5.1,41.7,0.4
			c10,4.2,18.7,11.4,24.7,21l-99.5,40.1C1435,1371.7,1448.4,1345.5,1473.2,1335.5z M1432.2,1538.7c-17.5-7.5-29.8-24.5-25.5-62.4
			c20.5,24.5,49.9,39.5,81.3,42.3C1465.3,1544.2,1448.5,1545.6,1432.2,1538.7z M1528.5,1458c-1.6,0.8-3.2,1.6-4.8,2.3
			c-18.5,7.5-38.7,4.1-53.5-7.2c-6.6-5-12.1-11.6-16-19.5l100.9-40.7l0.4-0.2c-3.8,11.9-8.3,24.2-13.5,36.6
			C1537.7,1439.4,1533.2,1448.9,1528.5,1458z"/>
	</g>
	<g>
		<path class="st3" d="M1581.6,1371.9l49.8-20.1c-1.3-4.9-2.9-9.7-4.8-14.5c-3.1-7.6-6.9-14.8-11.2-21.4
			c-7.1-10.7-13.4-18.1-23.1-25.8c-0.4-31.5-11.4-56.3-28.6-63.6c-21-8.9-49.9,7.3-77.7,39.7c-5,1.3-10,2.9-14.9,4.9
			c-61.2,24.7-90.9,94.4-66.1,155.7c0.8,2.1,1.7,4.1,2.6,6.1c-11,55.8-4,100.2,21.3,110.9c21.5,9.2,56.6-8,85.2-42.2
			c14.2,0.2,29.5-1.8,46.5-8.7c48.5-19.6,77.2-67.3,74.7-116.8l-55,22.2c-4.6,20.8-10.4,27.5-24.2,36c3.2-6.3,14-31.8,20.8-49.2
			C1578.9,1379.7,1580.6,1374.9,1581.6,1371.9z M1565.8,1245c11.9,5,18.6,19.7,20.4,40.5c-19.8-14.4-43.7-22.5-68.4-23
			C1535.7,1246.4,1552.7,1239.5,1565.8,1245z M1490.6,1318.1c14-5.6,28.9-5.1,41.7,0.4c10,4.2,18.7,11.4,24.7,21l-99.5,40.1
			C1452.3,1354.3,1465.8,1328.1,1490.6,1318.1z M1443.6,1532.6c-17.5-7.5-23.9-35.8-19.5-73.7c20.5,24.5,49.9,39.5,81.3,42.3
			C1482.6,1526.9,1459.9,1539.6,1443.6,1532.6z M1545.8,1440.7c-1.6,0.8-3.2,1.6-4.8,2.3c-18.5,7.5-38.7,4.1-53.5-7.2
			c-6.6-5-12.1-11.6-16-19.5l100.9-40.7l0.4-0.2C1569.1,1387.4,1550.5,1431.6,1545.8,1440.7z"/>
	</g>
</g>
<g id="Sign_1">
	<g id="BG">
		<g>
			<rect x="639.4" y="298.2" width="561.3" height="994.5"/>
		</g>
		<path class="st0" d="M1121.8,1199.5H720.7v-808h401.1V1199.5z M725.8,1194.3h390.8V396.6H725.8V1194.3z"/>
	</g>
	<g id="Connection">
		<g>
			<g>
				
					<rect x="918.6" y="741.3" transform="matrix(0.7071 -0.7071 0.7071 0.7071 -286.928 881.9549)" class="st9" width="5.2" height="92.1"/>
			</g>
		</g>
		<g>
			<g>
				
					<rect x="875.1" y="784.8" transform="matrix(0.7071 -0.7071 0.7071 0.7071 -286.928 881.9549)" class="st9" width="92.1" height="5.2"/>
			</g>
		</g>
		<rect x="918.7" y="839.5" class="st9" width="5.2" height="172.1"/>
		<rect x="918.3" y="624.7" class="st9" width="5.2" height="124.4"/>
	</g>
	<g id="Planet">
		<path class="st6" d="M1007.1,538.5c0,3.2-0.1,6.3-0.5,9.4c-1,9.7-3.7,19-7.7,27.4c-13.8,29.3-43.5,49.4-78,49.4
			c-24.3,0-46.2-10-61.8-26.2c-4-4-7.5-8.5-10.6-13.2c-3.3-5.1-6.1-10.6-8.3-16.3c-2.2-5.8-3.8-11.8-4.7-18.2
			c-0.6-4-0.9-8.2-0.9-12.4c0-19,6-36.5,16.4-50.6c0.2-0.3,0.4-0.6,0.7-1c6.3-8.5,14.1-15.7,23.1-21.3c2.9-1.8,5.8-3.5,8.9-4.9
			c11.2-5.4,24-8.5,37.3-8.5h0.4c18.4,0.1,35.5,6,49.5,15.9c6.7,4.7,12.6,10.4,17.7,16.8C1000.1,499.5,1007.1,518.1,1007.1,538.5z"
			/>
		<path class="st3" d="M896.2,486.9v64h-60.7c-0.6-4-0.9-8.2-0.9-12.4c0-19,6-36.5,16.4-50.6v-1H896.2z"/>
		<path class="st3" d="M896.2,465.6v26.3H851v-5h0.7c6.3-8.5,14.1-15.7,23.1-21.3H896.2z"/>
		<path class="st3" d="M921.3,452.2v13.4h-37.6v-4.9c11.2-5.4,24-8.5,37.3-8.5H921.3z"/>
		<path class="st3" d="M864.2,538.5v30.6h-24c-2.2-5.8-3.8-11.8-4.7-18.2c-0.6-4-0.9-8.2-0.9-12.4H864.2z"/>
		<path class="st10" d="M988.4,484.8v18.4h-76.6v-35.1h58.9C977.4,472.8,983.4,478.5,988.4,484.8z"/>
		<rect x="892.4" y="485.6" class="st10" width="23.2" height="14.4"/>
		<rect x="943.9" y="513.2" class="st10" width="16.9" height="28.2"/>
		<rect x="964.6" y="497.6" class="st10" width="30.1" height="21.3"/>
		<rect x="879.9" y="527.4" class="st10" width="55.2" height="29.2"/>
		<rect x="902.5" y="542" class="st10" width="36.8" height="36.8"/>
		<path class="st10" d="M861.6,575.3v23.2h-2.6c-4-4-7.5-8.5-10.6-13.2v-10.1H861.6z"/>
		<path class="st10" d="M1006.6,542v6c-1,9.7-3.7,19-7.7,27.4h-10.4V542H1006.6z"/>
	</g>
	<g id="Bulbs">
		<path class="st11" d="M697.1,347.2c0,3.6-1,7-2.6,10c-3.5,6.1-10,10.3-17.5,10.3c-11.2,0-20.2-9.1-20.2-20.2
			c0-7.5,4.1-14.1,10.2-17.6c2.9-1.6,6.3-2.6,10-2.6C688.1,327,697.1,336,697.1,347.2z"/>
		<path class="st11" d="M866.6,347.2c0,3.6-1,7-2.6,10c-3.5,6.1-10.1,10.3-17.6,10.3c-11.2,0-20.2-9.1-20.2-20.2
			c0-7.5,4.1-14.1,10.2-17.6c2.9-1.6,6.4-2.6,10-2.6C857.6,327,866.6,336,866.6,347.2z"/>
		<path class="st11" d="M1181.4,347.2c0,3.6-1,7-2.6,10c-3.5,6.1-10.1,10.3-17.6,10.3c-11.1,0-20.2-9.1-20.2-20.2
			c0-7.5,4.1-14.1,10.2-17.6c2.9-1.6,6.3-2.6,10-2.6C1172.4,327,1181.4,336,1181.4,347.2z"/>
		<path class="st11" d="M1016.9,347.2c0,3.6-0.9,7-2.6,9.9c-3.5,6.1-10.1,10.3-17.6,10.3c-11.1,0-20.2-9.1-20.2-20.2
			c0-7.6,4.1-14.1,10.3-17.6c2.9-1.6,6.3-2.6,10-2.6C1007.8,327,1016.9,336,1016.9,347.2z"/>
		<path class="st11" d="M697.1,1245c0,3.6-1,7-2.6,10c-3.5,6.1-10,10.2-17.5,10.2c-11.2,0-20.2-9-20.2-20.2
			c0-7.5,4.1-14.1,10.2-17.6c2.9-1.7,6.3-2.6,10-2.6C688.1,1224.8,697.1,1233.8,697.1,1245z"/>
		<path class="st11" d="M866.6,1245c0,3.6-1,7-2.6,10c-3.5,6.1-10.1,10.2-17.6,10.2c-11.2,0-20.2-9-20.2-20.2
			c0-7.5,4.1-14.1,10.2-17.6c2.9-1.7,6.4-2.6,10-2.6C857.6,1224.8,866.6,1233.8,866.6,1245z"/>
		<path class="st11" d="M1181.4,1245c0,3.6-1,7-2.6,10c-3.5,6.1-10.1,10.2-17.6,10.2c-11.1,0-20.2-9-20.2-20.2
			c0-7.5,4.1-14.1,10.2-17.6c2.9-1.7,6.3-2.6,10-2.6C1172.4,1224.8,1181.4,1233.8,1181.4,1245z"/>
		<path class="st11" d="M1016.9,1245c0,3.6-0.9,7-2.6,9.9c-3.5,6.1-10.1,10.3-17.6,10.3c-11.1,0-20.2-9-20.2-20.2
			c0-7.6,4.1-14.1,10.3-17.6c2.9-1.6,6.3-2.6,10-2.6C1007.8,1224.8,1016.9,1233.8,1016.9,1245z"/>
		<path class="st11" d="M697.1,1065.4c0,3.6-1,7.1-2.7,10c-3.5,6.1-10,10.2-17.5,10.2c-11.2,0-20.2-9-20.2-20.2
			c0-7.5,4.1-14.1,10.2-17.5c2.9-1.7,6.3-2.6,10-2.6C688.1,1045.2,697.1,1054.3,697.1,1065.4z"/>
		<path class="st11" d="M697.1,885.8c0,3.6-1,7.1-2.7,10c-3.5,6.1-10,10.2-17.5,10.2c-11.2,0-20.2-9-20.2-20.2
			c0-7.5,4.1-14.1,10.3-17.6c2.9-1.7,6.3-2.6,10-2.6C688.1,865.6,697.1,874.7,697.1,885.8z"/>
		<path class="st11" d="M697.1,526.7c0,3.6-1,7-2.6,10c-3.5,6.1-10,10.3-17.5,10.3c-11.2,0-20.2-9.1-20.2-20.2
			c0-7.5,4.1-14.1,10.2-17.6c2.9-1.7,6.3-2.6,10-2.6C688.1,506.5,697.1,515.6,697.1,526.7z"/>
		<path class="st11" d="M697.1,706.3c0,3.6-1,7-2.6,10c-3.5,6.1-10,10.3-17.5,10.3c-11.2,0-20.2-9-20.2-20.2
			c0-7.5,4.1-14.1,10.3-17.6c2.9-1.7,6.3-2.6,10-2.6C688.1,686.1,697.1,695.1,697.1,706.3z"/>
		<path class="st11" d="M1181.4,1065.4c0,3.6-1,7.1-2.6,10c-3.5,6.1-10.1,10.2-17.6,10.2c-11.1,0-20.2-9-20.2-20.2
			c0-7.5,4.1-14.1,10.2-17.5c2.9-1.7,6.3-2.6,10-2.6C1172.4,1045.2,1181.4,1054.3,1181.4,1065.4z"/>
		<path class="st11" d="M1181.4,885.8c0,3.6-1,7.1-2.6,10c-3.5,6.1-10.1,10.2-17.6,10.2c-11.1,0-20.2-9-20.2-20.2
			c0-7.5,4.1-14.1,10.3-17.6c2.9-1.7,6.3-2.6,9.9-2.6C1172.4,865.6,1181.4,874.7,1181.4,885.8z"/>
		<path class="st11" d="M1181.4,526.7c0,3.6-1,7-2.6,10c-3.5,6.1-10.1,10.3-17.6,10.3c-11.1,0-20.2-9.1-20.2-20.2
			c0-7.5,4.1-14.1,10.2-17.6c2.9-1.7,6.3-2.6,10-2.6C1172.4,506.5,1181.4,515.6,1181.4,526.7z"/>
		<path class="st11" d="M1181.4,706.3c0,3.6-1,7-2.6,10c-3.5,6.1-10.1,10.3-17.6,10.3c-11.1,0-20.2-9-20.2-20.2
			c0-7.5,4.1-14.1,10.3-17.6c2.9-1.7,6.3-2.6,9.9-2.6C1172.4,686.1,1181.4,695.1,1181.4,706.3z"/>
		<path class="st4" d="M697.1,347.2c0,3.6-1,7-2.6,10c-2.9,1.7-6.3,2.6-9.9,2.6c-11.1,0-20.2-9-20.2-20.2c0-3.6,0.9-7,2.6-9.9
			c2.9-1.6,6.3-2.6,10-2.6C688.1,327,697.1,336,697.1,347.2z"/>
		<path class="st4" d="M866.6,347.2c0,3.6-1,7-2.6,10c-2.9,1.6-6.3,2.6-10,2.6c-11.1,0-20.2-9-20.2-20.2c0-3.6,0.9-7,2.6-9.9
			c2.9-1.6,6.4-2.6,10-2.6C857.6,327,866.6,336,866.6,347.2z"/>
		<path class="st4" d="M1181.4,347.2c0,3.6-1,7-2.6,10c-2.9,1.6-6.3,2.6-10,2.6c-11.1,0-20.2-9-20.2-20.2c0-3.6,0.9-7,2.6-9.9
			c2.9-1.6,6.3-2.6,10-2.6C1172.4,327,1181.4,336,1181.4,347.2z"/>
		<path class="st4" d="M1016.9,347.2c0,3.6-0.9,7-2.6,9.9c-2.9,1.7-6.4,2.6-10,2.6c-11.1,0-20.2-9-20.2-20.2c0-3.6,1-7,2.6-10
			c2.9-1.6,6.3-2.6,10-2.6C1007.8,327,1016.9,336,1016.9,347.2z"/>
		<path class="st4" d="M697.1,1245c0,3.6-1,7-2.6,10c-2.9,1.7-6.3,2.6-9.9,2.6c-11.1,0-20.2-9.1-20.2-20.2c0-3.6,0.9-7,2.6-9.9
			c2.9-1.7,6.3-2.6,10-2.6C688.1,1224.8,697.1,1233.8,697.1,1245z"/>
		<path class="st4" d="M866.6,1245c0,3.6-1,7-2.6,10c-2.9,1.6-6.3,2.6-10,2.6c-11.1,0-20.2-9.1-20.2-20.2c0-3.6,0.9-7,2.6-9.9
			c2.9-1.7,6.4-2.6,10-2.6C857.6,1224.8,866.6,1233.8,866.6,1245z"/>
		<path class="st4" d="M1181.4,1245c0,3.6-1,7-2.6,10c-2.9,1.6-6.3,2.6-10,2.6c-11.1,0-20.2-9.1-20.2-20.2c0-3.6,0.9-7,2.6-9.9
			c2.9-1.7,6.3-2.6,10-2.6C1172.4,1224.8,1181.4,1233.8,1181.4,1245z"/>
		<path class="st4" d="M1016.9,1245c0,3.6-0.9,7-2.6,9.9c-2.9,1.7-6.4,2.6-10,2.6c-11.1,0-20.2-9.1-20.2-20.2c0-3.6,1-7,2.6-10
			c2.9-1.6,6.3-2.6,10-2.6C1007.8,1224.8,1016.9,1233.8,1016.9,1245z"/>
		<path class="st4" d="M697.1,1065.4c0,3.6-1,7.1-2.7,10c-2.9,1.7-6.2,2.6-9.8,2.6c-11.1,0-20.2-9.1-20.2-20.2c0-3.6,0.9-7,2.6-9.9
			c2.9-1.7,6.3-2.6,10-2.6C688.1,1045.2,697.1,1054.3,697.1,1065.4z"/>
		<path class="st4" d="M697.1,885.8c0,3.6-1,7.1-2.7,10c-2.9,1.7-6.2,2.6-9.8,2.6c-11.1,0-20.2-9.1-20.2-20.2c0-3.6,1-7,2.6-10
			c2.9-1.7,6.3-2.6,10-2.6C688.1,865.6,697.1,874.7,697.1,885.8z"/>
		<path class="st4" d="M697.1,526.7c0,3.6-1,7-2.6,10c-2.9,1.7-6.3,2.6-9.9,2.6c-11.1,0-20.2-9-20.2-20.2c0-3.6,0.9-7,2.6-9.9
			c2.9-1.7,6.3-2.6,10-2.6C688.1,506.5,697.1,515.6,697.1,526.7z"/>
		<path class="st4" d="M697.1,706.3c0,3.6-1,7-2.6,10c-2.9,1.7-6.3,2.6-9.9,2.6c-11.1,0-20.2-9-20.2-20.2c0-3.6,1-7,2.6-10
			c2.9-1.7,6.3-2.6,10-2.6C688.1,686.1,697.1,695.1,697.1,706.3z"/>
		<path class="st4" d="M1181.4,1065.4c0,3.6-1,7.1-2.6,10c-2.9,1.7-6.3,2.6-9.9,2.6c-11.1,0-20.2-9.1-20.2-20.2c0-3.6,0.9-7,2.6-9.9
			c2.9-1.7,6.3-2.6,10-2.6C1172.4,1045.2,1181.4,1054.3,1181.4,1065.4z"/>
		<path class="st4" d="M1181.4,885.8c0,3.6-1,7.1-2.6,10c-2.9,1.7-6.3,2.6-9.9,2.6c-11.1,0-20.2-9.1-20.2-20.2c0-3.6,1-7,2.6-10
			c2.9-1.7,6.3-2.6,9.9-2.6C1172.4,865.6,1181.4,874.7,1181.4,885.8z"/>
		<path class="st4" d="M1181.4,526.7c0,3.6-1,7-2.6,10c-2.9,1.6-6.3,2.6-10,2.6c-11.1,0-20.2-9-20.2-20.2c0-3.6,0.9-7,2.6-9.9
			c2.9-1.7,6.3-2.6,10-2.6C1172.4,506.5,1181.4,515.6,1181.4,526.7z"/>
		<path class="st4" d="M1181.4,706.3c0,3.6-1,7-2.6,10c-2.9,1.6-6.3,2.6-10,2.6c-11.1,0-20.2-9-20.2-20.2c0-3.6,1-7,2.6-10
			c2.9-1.7,6.3-2.6,9.9-2.6C1172.4,686.1,1181.4,695.1,1181.4,706.3z"/>
	</g>
	<g id="Computer">
		<polygon class="st12" points="814.5,1076.2 839.6,1051.1 1026.7,1054 1004.5,1076.2 		"/>
		<polygon class="st13" points="1004.5,1053.8 853.1,1053.8 833.8,944.8 853.1,925.5 1004.5,925.5 		"/>
		<rect x="833.8" y="944.8" class="st14" width="151.4" height="128.3"/>
		<rect x="852" y="960.2" class="st6" width="115" height="97.4"/>
		<g>
			<rect x="884.9" y="989.7" class="st3" width="43.9" height="34.2"/>
			<g>
				<path d="M931.4,1026.5h-49v-39.4h49V1026.5z M887.5,1021.3h38.7v-29.1h-38.7V1021.3z"/>
			</g>
		</g>
		<g>
			<rect x="906.9" y="1002.2" class="st3" width="43.9" height="34.2"/>
			<g>
				<path d="M953.3,1039h-49v-39.4h49V1039z M909.4,1033.8h38.7v-29.1h-38.7V1033.8z"/>
			</g>
		</g>
		<rect x="814.5" y="1076.2" class="st13" width="190" height="58.8"/>
		<polygon class="st12" points="1004.5,1135 1027.2,1112.4 1026.7,1054 1004.5,1076.2 		"/>
		<rect x="913.9" y="1094.5" width="71.4" height="11.1"/>
		<rect x="839.6" y="1105.6" class="st15" width="12.4" height="12.4"/>
		<polygon class="st12" points="1004.5,925.5 985.2,944.8 985.2,1073.1 1004.5,1053.8 		"/>
	</g>
</g>
</svg>
