<?xml version="1.0" encoding="utf-8"?>
<!-- Generator: Adobe Illustrator 21.0.2, SVG Export Plug-In . SVG Version: 6.00 Build 0)  -->
<svg version="1.1" id="Слой_1" xmlns="http://www.w3.org/2000/svg" xmlns:xlink="http://www.w3.org/1999/xlink" x="0px" y="0px"
	 viewBox="0 0 2500 2000" style="enable-background:new 0 0 2500 2000;" xml:space="preserve">
<style type="text/css">
	.st0{fill:#30F900;}
	.st1{fill:#00CCAE;}
	.st2{fill:#E20505;}
	.st3{fill:#FF3127;}
	.st4{fill:#FF5548;}
	.st5{fill:#393939;}
	.st6{fill:#E8D0A7;}
	.st7{fill:#00B596;}
	.st8{fill:#6CFFF1;}
	.st9{fill:#3BF4DE;}
	.st10{fill:#00DDC2;}
	.st11{fill:#97FFF2;}
	.st12{fill:#32E200;}
	.st13{fill:#229900;}
	.st14{fill:#FCE8BE;}
	.st15{fill:#B2A372;}
	.st16{fill:#FFFFFF;}
	.st17{fill:#C4C4C4;}
	.st18{fill:#E5E5E5;}
	.st19{fill:#727272;}
</style>
<g id="Grid">
	<g>
		
			<rect x="140.5" y="795.2" transform="matrix(0.8658 -0.5003 0.5003 0.8658 -287.8552 522.5367)" class="st0" width="1379.7" height="5.6"/>
	</g>
	<g>
		
			<rect x="432.9" y="963.4" transform="matrix(0.8658 -0.5003 0.5003 0.8658 -332.8213 691.3968)" class="st0" width="1379.7" height="5.6"/>
	</g>
	<g>
		
			<rect x="763.9" y="1157.2" transform="matrix(0.8658 -0.5003 0.5003 0.8658 -396.6733 840.8716)" class="st0" width="1211.2" height="5.6"/>
	</g>
	<g>
		
			<rect x="1055.3" y="1325.5" transform="matrix(0.8658 -0.5003 0.5003 0.8658 -441.7744 1009.2672)" class="st0" width="1211.2" height="5.6"/>
	</g>
	<g>
		
			<rect x="814.2" y="669.5" transform="matrix(0.5007 -0.8656 0.8656 0.5007 -738.6735 1368.4907)" class="st0" width="5.6" height="1310.2"/>
	</g>
	<g>
		
			<rect x="1105.6" y="501.2" transform="matrix(0.5007 -0.8656 0.8656 0.5007 -447.5183 1536.7642)" class="st0" width="5.6" height="1310.2"/>
	</g>
	<g>
		
			<rect x="1402.4" y="335.4" transform="matrix(0.5007 -0.8656 0.8656 0.5007 -155.788 1710.8296)" class="st0" width="5.6" height="1310.2"/>
	</g>
	<g>
		
			<rect x="1716.8" y="212.1" transform="matrix(0.5007 -0.8656 0.8656 0.5007 136.266 1905.0997)" class="st0" width="5.6" height="1244.7"/>
	</g>
</g>
<g id="Wire">
	<path class="st1" d="M966.1,997.4c-1.2,0-2.4-0.3-3.5-0.9c-3.6-1.9-5.8-6.6-6.3-12.8c-0.7-9.5,3.2-19.4,8.9-22.6l0,0
		c2.5-1.4,5.2-1.5,7.5-0.2c3.6,1.9,5.8,6.6,6.3,12.8c0.7,9.5-3.2,19.4-8.9,22.6C968.8,997,967.4,997.4,966.1,997.4z M967.9,966
		c-3.3,1.8-6.6,9.4-6,17.2c0.3,4.6,1.9,7.5,3.3,8.2c0.4,0.2,1,0.4,2.1-0.2c3.3-1.8,6.6-9.4,6-17.2c-0.3-4.6-1.9-7.5-3.3-8.2
		C969.6,965.6,969,965.5,967.9,966L967.9,966z"/>
	<path class="st1" d="M978.7,990.3c-1.2,0-2.4-0.3-3.5-0.9c-3.6-1.9-5.9-6.6-6.3-12.8c-0.7-9.5,3.2-19.4,8.9-22.6
		c2.5-1.4,5.2-1.5,7.5-0.2c3.6,1.9,5.8,6.6,6.3,12.8c0.7,9.5-3.2,19.4-8.9,22.6C981.4,989.9,980.1,990.3,978.7,990.3z M981.8,958.6
		c-0.3,0-0.7,0.1-1.2,0.4c-3.3,1.8-6.6,9.4-6,17.2c0.3,4.6,1.9,7.5,3.3,8.2c0.4,0.2,1.1,0.4,2.1-0.2c3.3-1.8,6.6-9.4,6-17.2
		c-0.3-4.6-1.9-7.5-3.3-8.2C982.4,958.7,982.2,958.6,981.8,958.6z"/>
	<path class="st1" d="M991.4,983.2c-1.2,0-2.4-0.3-3.5-0.9c-3.6-1.9-5.8-6.6-6.3-12.8c-0.7-9.5,3.2-19.4,8.9-22.6
		c2.5-1.4,5.2-1.5,7.5-0.2c3.6,1.9,5.8,6.6,6.3,12.8c0.7,9.5-3.2,19.4-8.9,22.6C994.1,982.8,992.7,983.2,991.4,983.2z M994.5,951.5
		c-0.3,0-0.7,0.1-1.2,0.4c-3.3,1.8-6.6,9.4-6,17.2c0.3,4.6,1.9,7.5,3.3,8.2c0.4,0.2,1,0.4,2.1-0.2c3.3-1.8,6.6-9.4,6-17.2
		c-0.3-4.6-1.9-7.5-3.3-8.2C995.1,951.6,994.8,951.5,994.5,951.5z"/>
	<path class="st1" d="M1004,976.1c-1.2,0-2.4-0.3-3.5-0.9c-3.6-1.9-5.9-6.6-6.3-12.8c-0.7-9.5,3.2-19.4,8.9-22.6
		c2.5-1.4,5.2-1.5,7.5-0.2c3.6,1.9,5.8,6.6,6.3,12.8c0.7,9.5-3.2,19.4-8.9,22.6C1006.7,975.8,1005.4,976.1,1004,976.1z
		 M1007.1,944.4c-0.3,0-0.7,0.1-1.2,0.4c-3.3,1.8-6.6,9.4-6,17.2c0.3,4.6,1.9,7.5,3.3,8.2c0.4,0.2,1,0.4,2.1-0.2
		c3.3-1.8,6.6-9.4,6-17.2c-0.3-4.6-1.9-7.5-3.3-8.2C1007.7,944.5,1007.5,944.4,1007.1,944.4z"/>
	<path class="st1" d="M1016.7,969.1c-1.2,0-2.4-0.3-3.5-0.9c-3.6-1.9-5.9-6.6-6.3-12.8c-0.7-9.5,3.2-19.4,8.9-22.6
		c2.5-1.4,5.2-1.5,7.5-0.2c3.6,1.9,5.8,6.6,6.3,12.8c0.7,9.5-3.2,19.4-8.9,22.6C1019.4,968.7,1018,969.1,1016.7,969.1z
		 M1019.8,937.3c-0.3,0-0.7,0.1-1.2,0.4c-3.3,1.8-6.6,9.4-6,17.2c0.3,4.6,1.9,7.5,3.3,8.2c0.4,0.2,1,0.4,2.1-0.2
		c3.3-1.8,6.6-9.4,6-17.2c-0.3-4.6-1.9-7.5-3.3-8.2C1020.4,937.4,1020.1,937.3,1019.8,937.3z"/>
	<path class="st1" d="M1029.3,962c-1.2,0-2.4-0.3-3.5-0.9c-3.6-1.9-5.9-6.6-6.3-12.8c-0.7-9.5,3.2-19.4,8.9-22.6l0,0
		c2.5-1.4,5.2-1.5,7.5-0.2c3.6,1.9,5.9,6.6,6.3,12.8c0.7,9.5-3.2,19.4-8.9,22.6C1032,961.6,1030.7,962,1029.3,962z M1032.4,930.3
		c-0.3,0-0.7,0.1-1.2,0.4l0,0c-3.3,1.8-6.6,9.4-6,17.2c0.3,4.6,1.9,7.5,3.3,8.2c0.4,0.2,1,0.4,2.1-0.2c3.3-1.8,6.6-9.4,6-17.2
		c-0.3-4.6-1.9-7.5-3.3-8.2C1033,930.4,1032.8,930.3,1032.4,930.3z"/>
	<path class="st1" d="M1042,954.9c-1.2,0-2.4-0.3-3.5-0.9c-3.6-1.9-5.9-6.6-6.3-12.8c-0.7-9.5,3.2-19.4,8.9-22.6l0,0
		c2.5-1.4,5.2-1.5,7.5-0.2c3.6,1.9,5.9,6.6,6.3,12.8c0.7,9.5-3.2,19.4-8.9,22.6C1044.7,954.5,1043.3,954.9,1042,954.9z
		 M1045.1,923.2c-0.3,0-0.7,0.1-1.2,0.4l0,0c-3.3,1.8-6.6,9.4-6,17.2c0.3,4.6,1.9,7.5,3.3,8.2c0.4,0.2,1,0.4,2.1-0.2
		c3.3-1.8,6.6-9.4,6-17.2c-0.3-4.6-1.9-7.5-3.3-8.2C1045.7,923.3,1045.4,923.2,1045.1,923.2z"/>
	<path class="st1" d="M1054.6,947.8c-1.2,0-2.4-0.3-3.5-0.9c-3.6-1.9-5.9-6.6-6.3-12.8c-0.7-9.5,3.2-19.4,8.9-22.6l0,0
		c2.5-1.4,5.2-1.5,7.5-0.2c3.6,1.9,5.9,6.6,6.3,12.8c0.7,9.5-3.2,19.4-8.9,22.6C1057.3,947.5,1056,947.8,1054.6,947.8z
		 M1057.7,916.1c-0.3,0-0.7,0.1-1.2,0.4l0,0c-3.3,1.8-6.6,9.4-6,17.2c0.3,4.6,1.9,7.5,3.3,8.2c0.4,0.2,1,0.4,2.1-0.2
		c3.3-1.8,6.6-9.4,6-17.2c-0.3-4.6-1.9-7.5-3.3-8.2C1058.3,916.2,1058.1,916.1,1057.7,916.1z"/>
</g>
<g id="Box">
	<polygon class="st2" points="764.2,1153.8 764.2,1052.8 968.2,935 968.2,1036 	"/>
	<polygon class="st3" points="764.2,1052.8 531,918.2 531,1019.2 764.2,1153.8 	"/>
	<polygon class="st4" points="735,800.4 531,918.2 764.2,1052.8 968.2,935 	"/>
	<polygon class="st5" points="531,951.9 764.2,1086.5 764.2,1153.8 531,1019.2 	"/>
	<polygon class="st6" points="601.7,1041 591.4,1035.1 591.4,1005.7 601.7,1011.6 	"/>
	<polygon class="st6" points="579.9,1028.4 569.6,1022.5 569.6,993.1 579.9,999 	"/>
	<polygon class="st6" points="558.1,1015.8 547.8,1009.9 547.8,980.5 558.1,986.4 	"/>
</g>
<g id="Phone">
	<path class="st1" d="M655.8,703.5l-5.5-1.2c2.2-10.2,0-31.9,0-32.1l5.6-0.6C656,670.5,658.2,692.4,655.8,703.5z"/>
	<path class="st1" d="M636,713.6c-11.3,0-19.9-4.6-19.9-10.7c0-6.1,8.5-10.7,19.9-10.7s19.9,4.6,19.9,10.7
		C655.9,709,647.3,713.6,636,713.6z M636,697.9c-8.8,0-14.2,3.3-14.2,5.1c0,1.8,5.4,5.1,14.2,5.1s14.2-3.3,14.2-5.1
		C650.2,701.1,644.8,697.9,636,697.9z"/>
	<path class="st1" d="M636,725.3c-11.3,0-19.9-4.6-19.9-10.7c0-6.1,8.5-10.7,19.9-10.7s19.9,4.6,19.9,10.7
		C655.9,720.7,647.3,725.3,636,725.3z M636,709.5c-8.8,0-14.2,3.3-14.2,5.1s5.4,5.1,14.2,5.1s14.2-3.3,14.2-5.1
		S644.8,709.5,636,709.5z"/>
	<path class="st1" d="M636,737c-11.3,0-19.9-4.6-19.9-10.7c0-6.1,8.5-10.7,19.9-10.7s19.9,4.6,19.9,10.7
		C655.9,732.4,647.3,737,636,737z M636,721.2c-8.8,0-14.2,3.3-14.2,5.1c0,1.8,5.4,5.1,14.2,5.1s14.2-3.3,14.2-5.1
		C650.2,724.5,644.8,721.2,636,721.2z"/>
	<path class="st1" d="M636,748.6c-11.3,0-19.9-4.6-19.9-10.7c0-6.1,8.5-10.7,19.9-10.7s19.9,4.6,19.9,10.7
		C655.9,744,647.3,748.6,636,748.6z M636,732.9c-8.8,0-14.2,3.3-14.2,5.1s5.4,5.1,14.2,5.1s14.2-3.3,14.2-5.1S644.8,732.9,636,732.9
		z"/>
	<path class="st1" d="M636,760.3c-11.3,0-19.9-4.6-19.9-10.7c0-6.1,8.5-10.7,19.9-10.7s19.9,4.6,19.9,10.7
		C655.9,755.7,647.3,760.3,636,760.3z M636,744.6c-8.8,0-14.2,3.3-14.2,5.1c0,1.8,5.4,5.1,14.2,5.1s14.2-3.3,14.2-5.1
		C650.2,747.8,644.8,744.6,636,744.6z"/>
	<path class="st1" d="M636,772c-11.3,0-19.9-4.6-19.9-10.7c0-6.1,8.5-10.7,19.9-10.7s19.9,4.6,19.9,10.7
		C655.9,767.4,647.3,772,636,772z M636,756.2c-8.8,0-14.2,3.3-14.2,5.1s5.4,5.1,14.2,5.1s14.2-3.3,14.2-5.1S644.8,756.2,636,756.2z"
		/>
	<path class="st1" d="M636,783.7c-11.3,0-19.9-4.6-19.9-10.7c0-6.1,8.5-10.7,19.9-10.7s19.9,4.6,19.9,10.7
		C655.9,779.1,647.3,783.7,636,783.7z M636,767.9c-8.8,0-14.2,3.3-14.2,5.1c0,1.8,5.4,5.1,14.2,5.1s14.2-3.3,14.2-5.1
		C650.2,771.2,644.8,767.9,636,767.9z"/>
	<path class="st1" d="M636,795.3c-11.3,0-19.9-4.6-19.9-10.7c0-6.1,8.5-10.7,19.9-10.7s19.9,4.6,19.9,10.7
		C655.9,790.7,647.3,795.3,636,795.3z M636,779.6c-8.8,0-14.2,3.3-14.2,5.1s5.4,5.1,14.2,5.1s14.2-3.3,14.2-5.1
		S644.8,779.6,636,779.6z"/>
	<polygon class="st7" points="676.8,632.2 676.8,699.5 752.4,659.1 	"/>
	<polygon class="st8" points="676.8,598.5 618.5,665.8 676.8,699.5 	"/>
	<polygon class="st9" points="589.3,918.2 793.3,1036 793.3,968.7 589.3,850.9 	"/>
	<polygon class="st7" points="793.3,968.7 880.8,817.3 968.2,766.8 968.2,935 793.3,1036 	"/>
	
		<rect x="647.6" y="716.3" transform="matrix(0.5 -0.866 0.866 0.5 -354.8235 1053.561)" class="st8" width="174.9" height="235.6"/>
	<rect x="710.3" y="781" transform="matrix(0.5 -0.866 0.866 0.5 -326.0853 1025.3013)" class="st10" width="29.1" height="28"/>
	<rect x="688.9" y="818.1" transform="matrix(0.5 -0.866 0.866 0.5 -368.9203 1025.2996)" class="st10" width="29.1" height="28"/>
	<rect x="752.1" y="805.2" transform="matrix(0.5 -0.866 0.866 0.5 -326.1321 1073.5165)" class="st10" width="29.1" height="28"/>
	<rect x="730.6" y="842.3" transform="matrix(0.5 -0.866 0.866 0.5 -368.9671 1073.5146)" class="st10" width="29.1" height="28"/>
	<polygon class="st9" points="968.2,766.8 764.2,649 676.8,699.5 880.8,817.3 	"/>
	<polygon class="st8" points="735,699.5 764.2,716.3 764.2,682.7 735,665.8 	"/>
	<polygon class="st7" points="764.2,716.3 793.3,699.5 793.3,665.8 764.2,682.7 	"/>
	<polygon class="st8" points="851.6,766.8 880.8,783.6 880.8,750 851.6,733.1 	"/>
	<polygon class="st7" points="880.8,783.6 909.9,766.8 909.9,733.1 880.8,750 	"/>
	<polygon class="st8" points="676.8,598.5 968.2,766.8 968.2,800.4 676.8,632.2 	"/>
	<polygon class="st8" points="939.1,783.6 909.9,834.1 968.2,867.7 968.2,800.4 	"/>
	<polygon class="st7" points="968.2,867.7 1026.5,834.1 997.3,749.9 968.2,766.8 	"/>
	<polygon class="st11" points="997.3,749.9 705.9,581.7 676.8,598.5 968.2,766.8 	"/>
</g>
<g id="Wires">
	<path class="st5" d="M1319.2,1307.6l-2.8-4.9l38.7-22.3c3.2-1.9,5.2-5.2,5.2-8.9c0-3.7-1.9-7.1-5.2-8.9l-37.2-21.4l-25.8,14.9
		l-2.8-4.9l28.6-16.5l40,23c5,2.9,8,8,8,13.8c0,5.8-3,10.9-8,13.8L1319.2,1307.6z"/>
	<path class="st5" d="M1539.1,1347.2c-3.8,0-7.5-1-10.9-2.9L1255.7,1187c-5-2.9-11.1-2.9-16.1,0l-19.7,11.3l-2.8-4.9l19.7-11.3
		c6.7-3.9,15-3.9,21.7,0l272.5,157.3c5,2.9,11.1,2.9,16.1,0l282.7-163.2c5-2.9,8-8.1,8-13.9c0-5.8-3-11-8-13.9l-46.4-26.8l2.8-4.9
		l46.4,26.8c6.8,3.9,10.9,11,10.9,18.8c0,7.9-4.1,14.9-10.9,18.8l-282.7,163.3C1546.6,1346.2,1542.8,1347.2,1539.1,1347.2z"/>
</g>
<g id="Keyboard">
	<polygon class="st12" points="822.5,1153.8 822.5,1187.4 1143,1372.5 1143,1338.9 	"/>
	<polygon class="st0" points="997.3,1052.8 822.5,1153.8 1143,1338.9 1317.9,1237.9 	"/>
	<path class="st13" d="M1143,1308.5l-267.9-154.7l122.2-70.6l267.9,154.7L1143,1308.5z M886.5,1153.8L1143,1302l110.9-64.1
		l-256.6-148.2L886.5,1153.8z"/>
	
		<rect x="900.9" y="1134.1" transform="matrix(0.8658 -0.5003 0.5003 0.8658 -438.9713 636.973)" class="st13" width="134.6" height="5.6"/>
	
		<rect x="930" y="1151" transform="matrix(0.8658 -0.5003 0.5003 0.8658 -443.4801 653.8122)" class="st13" width="134.6" height="5.6"/>
	
		<rect x="959.2" y="1167.8" transform="matrix(0.8658 -0.5003 0.5003 0.8658 -447.9893 670.65)" class="st13" width="134.6" height="5.6"/>
	
		<rect x="988.3" y="1184.6" transform="matrix(0.8658 -0.5003 0.5003 0.8658 -452.4978 687.4906)" class="st13" width="134.6" height="5.6"/>
	
		<rect x="1017.4" y="1201.5" transform="matrix(0.8658 -0.5003 0.5003 0.8658 -457.0071 704.3284)" class="st13" width="134.6" height="5.6"/>
	
		<rect x="1046.6" y="1218.3" transform="matrix(0.8658 -0.5003 0.5003 0.8658 -461.5156 721.169)" class="st13" width="134.6" height="5.6"/>
	
		<rect x="1075.7" y="1235.1" transform="matrix(0.8658 -0.5003 0.5003 0.8658 -466.0262 738.0073)" class="st13" width="134.6" height="5.6"/>
	
		<rect x="1104.9" y="1251.9" transform="matrix(0.8658 -0.5003 0.5003 0.8658 -470.5347 754.8478)" class="st13" width="134.6" height="5.6"/>
	
		<rect x="1038.3" y="1061.3" transform="matrix(0.5002 -0.8659 0.8659 0.5002 -529.7377 1507.6349)" class="st13" width="5.6" height="302.8"/>
	
		<rect x="1067.4" y="1044.5" transform="matrix(0.5001 -0.866 0.866 0.5001 -500.5925 1524.5295)" class="st13" width="5.6" height="302.8"/>
	
		<rect x="1096.5" y="1027.7" transform="matrix(0.5003 -0.8659 0.8659 0.5003 -471.5456 1541.0879)" class="st13" width="5.6" height="302.8"/>
	<polygon class="st13" points="1143,1372.5 1317.9,1271.6 1317.9,1237.9 1143,1338.9 	"/>
</g>
<g id="Mouse">
	<path class="st6" d="M1201.3,1372.5v-33.7l87.5,50.5c0,0,4.2,36.1,0,33.7C1284.5,1420.5,1201.3,1372.5,1201.3,1372.5z"/>
	<polygon class="st14" points="1201.3,1338.8 1317.9,1271.5 1405.3,1322 1288.8,1389.3 	"/>
	<polygon class="st15" points="1288.8,1389.3 1288.8,1423 1405.3,1355.7 1405.3,1322 	"/>
	<polygon class="st15" points="1332.5,1279.9 1303.3,1296.8 1361.6,1330.4 1390.8,1313.6 	"/>
</g>
<g id="Computer">
	<polygon class="st16" points="1055.6,1052.8 1055.6,918.2 1492.7,1170.6 1492.7,1305.2 	"/>
	<path class="st5" d="M1492.7,1167.4l-23.4-13.6l-8.5-4.9l-398.6-230.2l-6.3-3.6l-3.1,1.2v138.2l437.1,252.4l2.8,1.6l2.8-1.6V1169
		L1492.7,1167.4z M1489.9,1300.3l-431.4-249.1V923.1l92.7,53.6l309.6,178.8l2.9,1.6l26.2,15.2V1300.3z"/>
	<polygon class="st16" points="1492.7,1170.6 1492.7,1305.2 1784.1,1137 1784.1,1002.4 	"/>
	<path class="st5" d="M1784.1,999.1l-5.6,3.3l-285.8,165l-1.4,0.8l-1.4,0.8v137.8l2.8,1.6l2.8-1.6l290-167.4l1.4-0.8v-137.9
		L1784.1,999.1z M1781.3,1135.3l-285.8,165v-128.1l285.8-165V1135.3z"/>
	<polygon class="st16" points="1784.1,1002.4 1405.3,783.6 1055.6,918.2 1492.7,1170.6 	"/>
	<path class="st5" d="M1784.1,999.1l-26.3-15.2l-297-171.5l-54.1-31.2l-1.1-0.7l-349.6,134.6l-3.1,1.2v3.6l5.6,3.2l92.7,53.6
		l309.6,178.8l2.9,1.6l26.2,15.1l2.8,1.6l2.8-1.6l285.8-165l5.6-3.3v-3.3L1784.1,999.1z M1492.7,1167.4l-23.4-13.6l-8.5-4.9
		l-398.6-230.2l342.9-132l55.8,32.2L1755,988.8l23.4,13.6L1492.7,1167.4z"/>
	<polygon class="st16" points="1084.8,935.1 1084.8,531.2 1463.6,750 1463.6,1153.8 	"/>
	<path class="st5" d="M1463.6,746.7l-373.1-215.5l-5.7-3.2l-2.8,1.6v407.1l384.4,222V748.4L1463.6,746.7z M1460.8,1148.9
		l-373.1-215.5V536.1l373.1,215.5V1148.9z"/>
	<polygon class="st16" points="1463.6,750 1754.9,581.7 1755,985.5 1463.6,1153.8 	"/>
	<path class="st5" d="M1466.4,751.6l285.7-165l0.1,397.3l-285.7,165.1V751.6z M1757.8,583.3V580l-2.8-1.6l-2.8,1.6l-2.9,1.6
		l-285.7,165.1l-1.4,0.8l-1.4,0.8v407.1l2.9,1.6l5.6-3.3l285.8-165l1.4-0.8l1.4-0.8v-3.3L1757.8,583.3z"/>
	<polygon class="st16" points="1463.6,750 1084.8,531.2 1376.2,362.9 1754.9,581.7 	"/>
	<path class="st5" d="M1428.4,763.3l-23.3-13.4l-276.5-158.7c-2.7-1.6-5.7-1.7-8.3-0.9c-4,1.3-7.1,5-7.1,9.8l0.1,6.5v24l0.1,17.3
		v30.4l0.1,17.4v30.4l0.1,17.3V774l0.1,17.3v23.8l0.1,6.6V863l0.1,6.6v9.1c0,1.8,0.5,3.6,1.4,5.2c0.9,1.5,2.2,2.9,3.8,3.8
		l286.4,165.4l13.5,7.8c3.3,1.9,6.9,1.7,9.8,0.2V763.3z"/>
	<polygon class="st5" points="1463.6,1187.4 1463.6,1254.8 1408.1,1222.7 1344.2,1185.8 1288.8,1153.8 1288.8,1086.5 	"/>
	<polygon class="st5" points="1084.8,1036 1079.2,1032.8 1079.2,999.1 1084.8,1002.4 	"/>
	<polygon class="st5" points="1098.4,1043.9 1092.8,1040.6 1092.8,1007 1098.4,1010.2 	"/>
	<polygon class="st5" points="1112,1051.7 1106.4,1048.5 1106.4,1014.8 1112,1018.1 	"/>
	<polygon class="st5" points="1125.6,1059.6 1120,1056.3 1120,1022.7 1125.6,1025.9 	"/>
	<polygon class="st5" points="1139,1067.3 1133.4,1064.1 1133.4,1030.5 1139,1033.7 	"/>
	<polygon class="st5" points="1152.6,1075.2 1147,1072 1147,1038.3 1152.6,1041.5 	"/>
	<polygon class="st17" points="1463.6,1217.8 1463.6,1224.4 1408.1,1192.3 1408.1,1226 1344.2,1189.1 1344.2,1155.4 1288.8,1123.4 
		1288.8,1116.9 1349.9,1152.2 1349.9,1185.8 1402.4,1216.2 1402.4,1182.6 	"/>
	<polygon class="st18" points="1084.9,946.4 1084.8,980 1113.9,996.8 1113.9,963.2 	"/>
	<polygon class="st8" points="1176.3,709.2 1155.1,697 1155.1,672.7 1176.3,684.9 	"/>
	<polygon class="st8" points="1176.3,733.5 1155.1,721.3 1155.1,697 1176.3,709.2 	"/>
	<polygon class="st8" points="1324.4,794.7 1303.2,782.4 1303.2,758.1 1324.4,770.4 	"/>
	<polygon class="st8" points="1260.9,758 1239.7,745.8 1239.7,721.5 1260.9,733.7 	"/>
	<polygon class="st8" points="1324.4,819 1303.2,806.7 1303.2,782.4 1324.4,794.7 	"/>
	<polygon class="st8" points="1197.5,851.6 1176.3,839.4 1176.3,815.1 1197.5,827.3 	"/>
	<polygon class="st8" points="1218.5,887.7 1197.3,875.5 1197.3,851.2 1218.5,863.4 	"/>
	<polygon class="st8" points="1239.7,900 1218.5,887.7 1218.5,863.4 1239.7,875.7 	"/>
	<polygon class="st8" points="1260.9,912.2 1239.7,900 1239.7,875.7 1260.9,887.9 	"/>
	<polygon class="st8" points="1260.9,782.3 1239.7,770.1 1239.7,745.8 1260.9,758 	"/>
	<polygon class="st8" points="1260.9,806.6 1239.7,794.4 1239.7,770.1 1260.9,782.3 	"/>
	<polygon class="st8" points="1260.9,830.9 1239.7,818.7 1239.7,794.4 1260.9,806.6 	"/>
	<polygon class="st8" points="1260.9,854.7 1239.7,842.4 1239.7,818.1 1260.9,830.4 	"/>
	<polygon class="st8" points="1239.7,842.4 1218.5,830.2 1218.5,805.9 1239.7,818.1 	"/>
	<polygon class="st8" points="1282.1,924.4 1260.9,912.2 1260.9,887.9 1282.1,900.1 	"/>
	<polygon class="st8" points="1303.2,912.6 1282,900.4 1282,876.1 1303.2,888.3 	"/>
	<g>
		<g>
			<polygon class="st19" points="1428.4,1020.9 1113.4,839.1 1113.4,845.6 1428.4,1027.4 			"/>
		</g>
	</g>
	<g>
		<g>
			<polygon class="st19" points="1428.4,1044.8 1113.4,863 1113.5,869.5 1428.4,1051.3 			"/>
		</g>
	</g>
	<g>
		<g>
			<polygon class="st19" points="1428.4,925.4 1113.3,743.5 1113.3,750 1428.4,932 			"/>
		</g>
	</g>
	<g>
		<g>
			<polygon class="st19" points="1428.4,949.3 1113.3,767.4 1113.3,774 1428.4,955.9 			"/>
		</g>
	</g>
	<g>
		<g>
			<polygon class="st19" points="1428.4,973.2 1113.4,791.3 1113.4,797.8 1428.4,979.7 			"/>
		</g>
	</g>
	<g>
		<g>
			<polygon class="st19" points="1428.4,997 1113.4,815.2 1113.4,821.7 1428.4,1003.6 			"/>
		</g>
	</g>
	<g>
		<g>
			<polygon class="st19" points="1428.4,830 1113.2,648 1113.2,654.5 1428.4,836.5 			"/>
		</g>
	</g>
	<g>
		<g>
			<polygon class="st19" points="1428.4,853.8 1113.2,671.8 1113.2,678.4 1428.4,860.4 			"/>
		</g>
	</g>
	<g>
		<g>
			<polygon class="st19" points="1428.4,877.7 1113.3,695.8 1113.3,702.3 1428.4,884.2 			"/>
		</g>
	</g>
	<g>
		<g>
			<polygon class="st19" points="1428.4,901.6 1113.3,719.6 1113.3,726.2 1428.4,908.1 			"/>
		</g>
	</g>
	<g>
		<g>
			<polygon class="st19" points="1428.4,782.2 1113.1,600.2 1113.2,606.7 1428.4,788.8 			"/>
		</g>
	</g>
	<g>
		<g>
			<polygon class="st19" points="1428.4,806.1 1113.2,624.1 1113.2,630.7 1428.4,812.7 			"/>
		</g>
	</g>
	<path class="st18" d="M1434.4,771.1l-0.4,285.8c0,3.3-2.1,5.9-4.8,6.9c-2,0.7-4.2,0.7-6.3-0.5l-17.9-10.3V750l25.7,14.7
		c1.2,0.7,2.1,1.6,2.7,2.7C1434.1,768.5,1434.4,769.8,1434.4,771.1z"/>
	<polygon class="st17" points="1536.5,660.7 1535.1,659.8 1223.4,481.5 1403.6,377.1 1406.5,382 1234.7,481.5 1536.5,654.1 
		1709.9,554 1712.7,558.9 	"/>
	<path class="st5" d="M1755,578.4l-378.8-218.8L1084.8,528l-2.8,1.6v3.3l5.6,3.3l373.1,215.5l2.8,1.6l2.8-1.6l285.7-165l2.8-1.6
		l2.8-1.6V580L1755,578.4z M1463.6,746.7l-373.1-215.5l285.7-165l373.1,215.5L1463.6,746.7z"/>
</g>
</svg>
