<?xml version="1.0" encoding="utf-8"?>
<!-- Generator: Adobe Illustrator 21.0.2, SVG Export Plug-In . SVG Version: 6.00 Build 0)  -->
<svg version="1.1" id="Слой_1" xmlns="http://www.w3.org/2000/svg" xmlns:xlink="http://www.w3.org/1999/xlink" x="0px" y="0px"
	 viewBox="0 0 2500 2000" style="enable-background:new 0 0 2500 2000;" xml:space="preserve">
<style type="text/css">
	.st0{fill:#C0C0C0;}
	.st1{fill:#808080;}
	.st2{fill:#0029FA;}
	.st3{fill:#DCE0DF;}
	.st4{fill:url(#SVGID_1_);}
	.st5{fill:#A0A00B;}
	.st6{fill:url(#SVGID_2_);}
	.st7{fill:url(#SVGID_3_);}
	.st8{fill:url(#SVGID_4_);}
	.st9{fill:url(#SVGID_5_);}
	.st10{fill:url(#SVGID_6_);}
	.st11{fill:#FFFFFF;}
	.st12{fill:#8D07F6;}
	.st13{fill:#00EDED;}
	.st14{fill:#FA41FF;}
</style>
<g id="Window_1_">
	<g id="Window">
		<rect x="644.7" y="427.5" class="st0" width="1174.2" height="1182"/>
		<rect x="644.7" y="427.5" class="st1" width="1174.2" height="114.1"/>
		<rect x="1537.1" y="452.8" class="st0" width="68.8" height="68.8"/>
		<rect x="1623.8" y="452.8" class="st0" width="68.8" height="68.8"/>
		<path d="M1681.3,510.3h-46.1v-46.1h46.1V510.3z M1641.9,503.5h32.6v-32.6h-32.6V503.5z"/>
		<rect x="1711.8" y="452.8" class="st0" width="68.8" height="68.8"/>
		<rect x="673.5" y="642.9" class="st2" width="1121.8" height="849.3"/>
		<rect x="1692.6" y="643" class="st3" width="102.7" height="849.3"/>
		<rect x="1704.3" y="654.5" class="st0" width="79.5" height="79.5"/>
		<rect x="1704.3" y="745" class="st0" width="79.5" height="486.6"/>
		<polygon points="1744.1,683.7 1723,704.8 1765,704.8 		"/>
		<rect x="1704.3" y="1401.2" class="st0" width="79.5" height="79.5"/>
		<polygon points="1743.9,1451.5 1765,1430.4 1723,1430.4 		"/>
		<rect x="1555.1" y="500.2" width="31.6" height="6.8"/>
		<rect x="1638.6" y="470.4" width="39.4" height="6.8"/>
		<g>
			<rect x="1742.8" y="464.2" transform="matrix(0.7071 -0.7071 0.7071 0.7071 166.9224 1377.4337)" width="6.8" height="46"/>
		</g>
		<g>
			<rect x="1723.2" y="483.8" transform="matrix(0.7071 -0.7071 0.7071 0.7071 166.9224 1377.4337)" width="46" height="6.8"/>
		</g>
	</g>
	<path id="Frame" class="st1" d="M1798.7,1495.7H670.1V639.6h1128.6V1495.7z M676.9,1488.9H1792V646.3H676.9V1488.9z"/>
	<g id="Folders">
		<polygon points="995,780 954,738.9 865,738.9 823.9,780 823.9,1013.3 1119.8,1013.3 1119.8,780 		"/>
		<g>
			<linearGradient id="SVGID_1_" gradientUnits="userSpaceOnUse" x1="750.485" y1="754.2136" x2="1096.7217" y2="968.7828">
				<stop  offset="0" style="stop-color:#FFFFFF"/>
				<stop  offset="9.688431e-02" style="stop-color:#FEFFF6"/>
				<stop  offset="0.2581" style="stop-color:#FCFFDC"/>
				<stop  offset="0.4637" style="stop-color:#F9FFB3"/>
				<stop  offset="0.7058" style="stop-color:#F5FF79"/>
				<stop  offset="0.9758" style="stop-color:#EFFF30"/>
				<stop  offset="0.9944" style="stop-color:#EFFF2B"/>
			</linearGradient>
			<polygon class="st4" points="981.3,766.2 940.2,725.2 851.2,725.2 810.2,766.2 810.2,999.5 1106,999.5 1106,766.2 			"/>
			<path class="st5" d="M1109.4,1002.9H806.8V764.8l43-43h91.8l41,41h126.7V1002.9z M813.6,996.1h289.1V769.6H979.9l-41-41h-86.2
				l-39.1,39.1V996.1z"/>
		</g>
		<g>
			<linearGradient id="SVGID_2_" gradientUnits="userSpaceOnUse" x1="732.4172" y1="783.3686" x2="1078.6538" y2="997.9378">
				<stop  offset="0" style="stop-color:#FFFFFF"/>
				<stop  offset="9.688431e-02" style="stop-color:#FEFFF6"/>
				<stop  offset="0.2581" style="stop-color:#FCFFDC"/>
				<stop  offset="0.4637" style="stop-color:#F9FFB3"/>
				<stop  offset="0.7058" style="stop-color:#F5FF79"/>
				<stop  offset="0.9758" style="stop-color:#EFFF30"/>
				<stop  offset="0.9944" style="stop-color:#EFFF2B"/>
			</linearGradient>
			<polygon class="st6" points="768.7,821.3 810.2,999.5 1102.8,999.5 1064.6,821.3 			"/>
			<path class="st5" d="M1107,1002.9H807.5l-43-185h302.8L1107,1002.9z M812.9,996.1h285.7l-36.8-171.5H773L812.9,996.1z"/>
		</g>
		<g>
			<polygon class="st5" points="1111.1,1006.3 810.2,1006.3 810.2,992.8 1094.4,992.8 1058,822.7 1071.2,819.8 			"/>
		</g>
		<polygon points="1459.2,790.7 1418.1,751.5 1329.1,751.5 1288.1,790.7 1288.1,1013.3 1583.9,1013.3 1583.9,790.7 		"/>
		<g>
			<linearGradient id="SVGID_3_" gradientUnits="userSpaceOnUse" x1="1220.1663" y1="686.1381" x2="1568.9561" y2="1034.928">
				<stop  offset="0" style="stop-color:#FFFFFF"/>
				<stop  offset="9.688431e-02" style="stop-color:#FEFFF6"/>
				<stop  offset="0.2581" style="stop-color:#FCFFDC"/>
				<stop  offset="0.4637" style="stop-color:#F9FFB3"/>
				<stop  offset="0.7058" style="stop-color:#F5FF79"/>
				<stop  offset="0.9758" style="stop-color:#EFFF30"/>
				<stop  offset="0.9944" style="stop-color:#EFFF2B"/>
			</linearGradient>
			<polygon class="st7" points="1444.5,776 1403.5,736.9 1314.5,736.9 1273.4,776 1273.4,998.6 1569.3,998.6 1569.3,776 			"/>
			<path class="st5" d="M1572.7,1002H1270V774.6l43.1-41.1h91.7l41,39.2h126.8V1002z M1276.8,995.2h289.1V779.4h-122.7l-41-39.2
				h-86.3l-39,37.2V995.2z"/>
		</g>
		<g>
			<linearGradient id="SVGID_4_" gradientUnits="userSpaceOnUse" x1="1297.1694" y1="737.7426" x2="1420.7885" y2="814.3516">
				<stop  offset="0" style="stop-color:#FFFFFF"/>
				<stop  offset="9.688431e-02" style="stop-color:#FEFFF6"/>
				<stop  offset="0.2581" style="stop-color:#FCFFDC"/>
				<stop  offset="0.4637" style="stop-color:#F9FFB3"/>
				<stop  offset="0.7058" style="stop-color:#F5FF79"/>
				<stop  offset="0.9758" style="stop-color:#EFFF30"/>
				<stop  offset="0.9944" style="stop-color:#EFFF2B"/>
			</linearGradient>
			<line class="st8" x1="1444.5" y1="776" x2="1273.4" y2="776"/>
			<rect x="1273.4" y="772.7" class="st5" width="171.1" height="6.8"/>
		</g>
		<polygon points="1583.9,1315.5 1583.9,1492.3 1288.1,1492.3 1288.1,1315.5 1303.4,1300.9 1329.1,1276.4 1418.1,1276.4 
			1443.8,1300.9 1459.1,1315.5 		"/>
		<g>
			<linearGradient id="SVGID_5_" gradientUnits="userSpaceOnUse" x1="1232.3159" y1="1207.5226" x2="1560.0884" y2="1535.295">
				<stop  offset="0" style="stop-color:#FFFFFF"/>
				<stop  offset="9.688431e-02" style="stop-color:#FEFFF6"/>
				<stop  offset="0.2581" style="stop-color:#FCFFDC"/>
				<stop  offset="0.4637" style="stop-color:#F9FFB3"/>
				<stop  offset="0.7058" style="stop-color:#F5FF79"/>
				<stop  offset="0.9758" style="stop-color:#EFFF30"/>
				<stop  offset="0.9944" style="stop-color:#EFFF2B"/>
			</linearGradient>
			<polygon class="st9" points="1569.3,1300.9 1569.3,1492.3 1273.5,1492.3 1273.5,1300.9 1314.5,1261.8 1403.5,1261.8 
				1444.5,1300.9 			"/>
			<path class="st5" d="M1572.7,1495.7h-302.6v-196.2l43-41.1h91.7l41.1,39.2h126.8V1495.7z M1276.8,1488.9h289.1v-184.6h-122.8
				l-41.1-39.2h-86.3l-39,37.2V1488.9z"/>
		</g>
		<g>
			<rect x="1273.4" y="1297.5" class="st5" width="171.1" height="6.8"/>
		</g>
		<polygon points="1113.4,1315.5 1113.4,1492.3 817.5,1492.3 817.5,1315.5 832.8,1300.9 858.5,1276.4 947.5,1276.4 973.3,1300.9 
			988.6,1315.5 		"/>
		<g>
			<linearGradient id="SVGID_6_" gradientUnits="userSpaceOnUse" x1="761.6941" y1="1207.5226" x2="1089.4666" y2="1535.295">
				<stop  offset="0" style="stop-color:#FFFFFF"/>
				<stop  offset="9.688431e-02" style="stop-color:#FEFFF6"/>
				<stop  offset="0.2581" style="stop-color:#FCFFDC"/>
				<stop  offset="0.4637" style="stop-color:#F9FFB3"/>
				<stop  offset="0.7058" style="stop-color:#F5FF79"/>
				<stop  offset="0.9758" style="stop-color:#EFFF30"/>
				<stop  offset="0.9944" style="stop-color:#EFFF2B"/>
			</linearGradient>
			<polygon class="st10" points="1098.7,1300.9 1098.7,1492.3 802.8,1492.3 802.8,1300.9 843.9,1261.8 932.9,1261.8 974,1300.9 			
				"/>
			<path class="st5" d="M1102.1,1495.7H799.5v-196.2l43.1-41.1h91.7l41.1,39.2h126.8V1495.7z M806.2,1488.9h289.1v-184.6H972.6
				l-41.1-39.2h-86.3l-39,37.2V1488.9z"/>
		</g>
		<g>
			<rect x="802.9" y="1297.5" class="st5" width="171.1" height="6.8"/>
		</g>
		<rect x="834.3" y="1036.5" class="st11" width="98.9" height="24.2"/>
		<rect x="1287.5" y="1036.5" class="st11" width="203.6" height="24.2"/>
		<rect x="899" y="1422.9" class="st12" width="24.2" height="24.2"/>
		<rect x="899" y="1398.8" class="st12" width="24.2" height="24.2"/>
		<rect x="922.9" y="1446.8" class="st12" width="24.2" height="24.2"/>
		<rect x="946" y="1446.8" class="st12" width="24.2" height="24.2"/>
		<rect x="970.1" y="1422.7" class="st12" width="24.2" height="24.2"/>
		<rect x="970.1" y="1398.8" class="st12" width="24.2" height="24.2"/>
		<rect x="899" y="1335.8" class="st12" width="24.2" height="24.2"/>
		<rect x="970.1" y="1335.8" class="st12" width="24.2" height="24.2"/>
		
			<rect x="1320.7" y="1340.4" transform="matrix(-1 -4.530299e-11 4.530299e-11 -1 2665.6011 2704.989)" class="st13" width="24.2" height="24.2"/>
		
			<rect x="1375.3" y="1365.3" transform="matrix(1.350050e-10 -1 1 1.350050e-10 -14.1477 2788.9158)" class="st13" width="24.2" height="72.5"/>
		
			<rect x="1428.1" y="1340.4" transform="matrix(-1 -4.530299e-11 4.530299e-11 -1 2880.3503 2704.989)" class="st13" width="24.2" height="24.2"/>
		<rect x="1331" y="856.6" class="st14" width="24.2" height="24.2"/>
		<rect x="1308" y="833.6" class="st14" width="24.2" height="24.2"/>
		
			<rect x="1476.5" y="856.6" transform="matrix(-1 -4.477630e-11 4.477630e-11 -1 2977.2588 1737.408)" class="st14" width="24.2" height="24.2"/>
		
			<rect x="1500.7" y="832.4" transform="matrix(-1 -4.530299e-11 4.530299e-11 -1 3025.6516 1689.015)" class="st14" width="24.2" height="24.2"/>
		
			<rect x="1391.7" y="914.9" transform="matrix(-1 -4.530299e-11 4.530299e-11 -1 2807.5325 1853.988)" class="st14" width="24.2" height="24.2"/>
		
			<rect x="1367.3" y="939.3" transform="matrix(-1 -4.477630e-11 4.477630e-11 -1 2758.7771 1902.7434)" class="st14" width="24.2" height="24.2"/>
		
			<rect x="1415.8" y="914.9" transform="matrix(-1 -4.530299e-11 4.530299e-11 -1 2855.7739 1853.988)" class="st14" width="24.2" height="24.2"/>
		
			<rect x="1440.3" y="939.4" transform="matrix(-1 -4.485136e-11 4.485136e-11 -1 2904.7446 1902.9587)" class="st14" width="24.2" height="24.2"/>
	</g>
</g>
<g id="Stars">
	<rect x="1921.6" y="1625.1" class="st14" width="24.2" height="48.3"/>
	<rect x="1921.6" y="1699.9" class="st14" width="24.2" height="48.3"/>
	
		<rect x="1959" y="1662.5" transform="matrix(-1.836970e-16 1 -1 -1.836970e-16 3657.791 -284.4563)" class="st14" width="24.2" height="48.3"/>
	
		<rect x="1884.2" y="1662.5" transform="matrix(-1.836970e-16 1 -1 -1.836970e-16 3582.9163 -209.5814)" class="st14" width="24.2" height="48.3"/>
	
		<rect x="514.3" y="914.6" transform="matrix(-1.836970e-16 1 -1 -1.836970e-16 1465.1865 412.3953)" class="st12" width="24.2" height="48.3"/>
	<rect x="476.9" y="877.2" class="st12" width="24.2" height="48.3"/>
	<rect x="476.9" y="826.5" class="st12" width="24.2" height="24.2"/>
	<rect x="576.3" y="926.7" class="st12" width="24.2" height="24.2"/>
	
		<rect x="476.9" y="1026.9" transform="matrix(-1 -1.224647e-16 1.224647e-16 -1 977.9163 2078.0352)" class="st12" width="24.2" height="24.2"/>
	
		<rect x="377.4" y="926.7" transform="matrix(-1 -1.224647e-16 1.224647e-16 -1 779.0393 1877.5819)" class="st12" width="24.2" height="24.2"/>
	<rect x="476.9" y="952.1" class="st12" width="24.2" height="48.3"/>
	
		<rect x="439.4" y="914.6" transform="matrix(-1.836970e-16 1 -1 -1.836970e-16 1390.3116 487.2702)" class="st12" width="24.2" height="48.3"/>
</g>
<g id="Arrow">
	<polygon class="st11" points="1026.7,861.6 1026.7,1200.7 1038.4,1183.9 1063.5,1159.1 1088.7,1133.7 1105.7,1121.7 1139,1184.6 
		1164.1,1234.9 1189,1287 1239.1,1287 1256,1244.2 1239.8,1234.9 1214.1,1184.6 1188.4,1135 1175.5,1097.7 1251.9,1097.7 
		1238.4,1061.6 1038.4,861.6 	"/>
	<rect x="1014.6" y="828.5" width="24.2" height="386.7"/>
	
		<rect x="1214" y="1034.4" transform="matrix(-1.836970e-16 1 -1 -1.836970e-16 2323.7815 -128.2972)" width="24.2" height="126.7"/>
	<rect x="1038.4" y="861.6" width="24.2" height="24.2"/>
	<rect x="1063.4" y="886.3" width="24.2" height="24.2"/>
	<rect x="1088.4" y="911.1" width="24.2" height="24.2"/>
	<rect x="1113.4" y="935.6" width="24.2" height="24.2"/>
	<rect x="1138.4" y="961" width="24.2" height="24.2"/>
	<rect x="1163.4" y="986.4" width="24.2" height="24.2"/>
	<rect x="1188.4" y="1011.1" width="24.2" height="24.2"/>
	<rect x="1213.4" y="1036.5" width="24.2" height="24.2"/>
	<rect x="1088.7" y="1109.6" width="24.2" height="24.2"/>
	<rect x="1063.5" y="1134.9" width="24.2" height="24.2"/>
	<rect x="1038.4" y="1159.7" width="24.2" height="24.2"/>
	<rect x="1238.4" y="1061.6" width="24.2" height="24.2"/>
	<rect x="1162.7" y="1109.6" width="24.2" height="24.2"/>
	<rect x="1188.4" y="1135" width="24.2" height="50.2"/>
	<rect x="1113.8" y="1135" width="24.2" height="50.2"/>
	<rect x="1214.1" y="1184.6" width="24.2" height="50.2"/>
	<rect x="1139" y="1184.6" width="24.2" height="50.2"/>
	<rect x="1239.8" y="1234.9" width="24.2" height="50.2"/>
	<rect x="1164.1" y="1234.9" width="24.2" height="50.2"/>
	<rect x="1202" y="1274" transform="matrix(-1.836970e-16 1 -1 -1.836970e-16 2513.124 85.0154)" width="24.2" height="50.2"/>
</g>
</svg>
