<?xml version="1.0" encoding="utf-8"?>
<!-- Generator: Adobe Illustrator 21.0.2, SVG Export Plug-In . SVG Version: 6.00 Build 0)  -->
<svg version="1.1" id="Слой_1" xmlns="http://www.w3.org/2000/svg" xmlns:xlink="http://www.w3.org/1999/xlink" x="0px" y="0px"
	 viewBox="0 0 2500 2000" style="enable-background:new 0 0 2500 2000;" xml:space="preserve">
<style type="text/css">
	.st0{fill:#393939;}
	.st1{fill:#A0A0A0;}
	.st2{fill:#808080;}
	.st3{fill:#8D07F6;}
	.st4{fill:#C0C0C0;}
	.st5{fill:#FFFFFF;}
	.st6{fill:#E6240B;}
	.st7{fill:#17E67E;}
	.st8{fill:#FFFF01;}
	.st9{fill:#6CFFF1;}
</style>
<g id="Wires">
	<rect x="695.1" y="1275" class="st0" width="101.4" height="51.5"/>
	<path class="st0" d="M569.8,1310H281.2v-5.9h288.6c11,0,20-9,20-20c0-14.3,11.6-25.9,25.9-25.9h169.9v5.9H615.7c-11,0-20,9-20,20
		C595.7,1298.4,584.1,1310,569.8,1310z"/>
	<path class="st0" d="M612.9,1350.6H534c-14.2,0-25.8-11.6-25.8-25.8v-112.6c0-11-8.9-19.9-19.9-19.9H358.8v-5.9h129.5
		c14.2,0,25.8,11.6,25.8,25.8v112.6c0,11,8.9,19.9,19.9,19.9h78.9c11,0,19.9-8.9,19.9-19.9c0-14.2,11.6-25.8,25.8-25.8h168.1v5.9
		H658.6c-11,0-19.9,8.9-19.9,19.9C638.7,1339.1,627.1,1350.6,612.9,1350.6z"/>
	<rect x="391" y="1174.7" class="st0" width="80.1" height="31.7"/>
	<rect x="481.5" y="1174.7" class="st0" width="5.9" height="31.7"/>
	<rect x="675.8" y="1281.8" class="st0" width="5.9" height="36.6"/>
	<rect x="664.3" y="1281.8" class="st0" width="5.9" height="36.6"/>
</g>
<g id="Sound_system">
	<rect x="820.7" y="1052.4" class="st1" width="163.2" height="41.5"/>
	<rect x="1601.9" y="1052.4" class="st2" width="163.2" height="41.5"/>
	<rect x="820.7" y="1408.4" class="st1" width="163.2" height="41.5"/>
	<rect x="1601.9" y="1408.4" class="st2" width="163.2" height="41.5"/>
	<rect x="761.8" y="726.1" class="st3" width="1062" height="337.2"/>
	<rect x="761.8" y="1086" class="st3" width="1062" height="337.2"/>
	<circle class="st4" cx="1326.5" cy="1248.2" r="100.9"/>
	<path class="st5" d="M1326.5,1334.3c-22.1,0-44.1-8.4-61-25.2c-33.6-33.6-33.6-88.3,0-121.9l4.2,4.2c-31.3,31.3-31.3,82.2,0,113.5
		c31.3,31.3,82.2,31.3,113.5,0l4.2,4.2C1370.6,1325.9,1348.5,1334.3,1326.5,1334.3z"/>
	<circle class="st4" cx="1006.3" cy="1292.4" r="42.5"/>
	<circle class="st4" cx="1130.2" cy="1292.4" r="42.5"/>
	<circle class="st4" cx="1505" cy="1292.4" r="34.1"/>
	
		<ellipse transform="matrix(0.7071 -0.7071 0.7071 0.7071 -437.2519 1529.1014)" class="st4" cx="1627.2" cy="1292.4" rx="34.1" ry="34.1"/>
	<path class="st0" d="M1774.9,1206.4h-258c-3.3,0-6.2-1.3-8.4-3.5s-3.5-5.1-3.5-8.4v-78.9c0-3,1.1-5.7,2.9-7.8
		c2.2-2.5,5.4-4.1,8.9-4.1h258c3.3,0,6.2,1.3,8.4,3.5c2.1,2.1,3.5,5.1,3.5,8.4v78.9c0,2.5-0.8,4.8-2.1,6.7
		C1782.5,1204.4,1779,1206.4,1774.9,1206.4z"/>
	<path class="st0" d="M826.7,1334.9L826.7,1334.9c-3.3,0-6.3-0.9-8.8-2.6c-4.6-2.9-7.6-8.1-7.6-13.9l0,0c0-5.6,2.8-10.5,7-13.5
		c2.7-1.9,5.9-3,9.4-3l0,0c4.5,0,8.7,1.8,11.6,4.8s4.8,7.1,4.8,11.6l0,0c0,3.4-1,6.6-2.8,9.2C837.4,1332,832.4,1334.9,826.7,1334.9z
		"/>
	<path class="st4" d="M826.7,1337.8c-10.7,0-19.4-8.7-19.4-19.4c0-10.7,8.7-19.4,19.4-19.4c10.7,0,19.4,8.7,19.4,19.4
		C846.1,1329.1,837.4,1337.8,826.7,1337.8z M826.7,1304.9c-7.4,0-13.5,6.1-13.5,13.5c0,7.4,6.1,13.5,13.5,13.5
		c7.4,0,13.5-6.1,13.5-13.5C840.2,1311,834.1,1304.9,826.7,1304.9z"/>
	<path class="st0" d="M885.8,1334.9L885.8,1334.9c-4.2,0-8.1-1.6-11-4.2c-3.3-3-5.4-7.4-5.4-12.2l0,0c0-4.5,1.8-8.5,4.7-11.5
		c3-3.1,7.2-5,11.8-5l0,0c5.6,0,10.5,2.8,13.5,7c1.9,2.7,3,5.9,3,9.4l0,0c0,3.5-1.1,6.8-3,9.5
		C896.2,1332.1,891.3,1334.9,885.8,1334.9z"/>
	<path class="st4" d="M885.8,1337.8c-10.7,0-19.4-8.7-19.4-19.4c0-10.7,8.7-19.4,19.4-19.4c10.7,0,19.4,8.7,19.4,19.4
		C905.2,1329.1,896.5,1337.8,885.8,1337.8z M885.8,1304.9c-7.4,0-13.5,6.1-13.5,13.5c0,7.4,6.1,13.5,13.5,13.5
		c7.4,0,13.5-6.1,13.5-13.5C899.3,1311,893.2,1304.9,885.8,1304.9z"/>
	<rect x="796.4" y="777.5" class="st4" width="334.2" height="229.4"/>
	<path class="st4" d="M1409.5,856.6h-238.3c-2.7,0-5.2-0.9-7.2-2.4c-2.9-2.2-4.7-5.6-4.7-9.5v-55.4c0-3.3,1.3-6.2,3.5-8.4
		c2.1-2.1,5.1-3.5,8.4-3.5h238.3c3.3,0,6.2,1.3,8.3,3.4c2.2,2.2,3.5,5.1,3.5,8.4v55.4c0,2.5-0.8,4.8-2.1,6.7
		C1417.2,854.6,1413.6,856.6,1409.5,856.6z"/>
	<path class="st4" d="M1224.6,915.9h-53.4c-3.1,0-5.9-1.2-8-3.1c-2.4-2.2-3.9-5.3-3.9-8.8l0,0c0-3.2,1.3-6.1,3.3-8.3
		c2.2-2.2,5.2-3.6,8.5-3.6h53.4c3.9,0,7.3,1.9,9.5,4.7c1.5,2,2.4,4.5,2.4,7.1l0,0c0,3.7-1.7,7.1-4.4,9.2
		C1230,914.9,1227.4,915.9,1224.6,915.9z"/>
	<rect x="1159.4" y="960.4" class="st0" width="108.8" height="44.5"/>
	<rect x="1326.5" y="966.9" class="st0" width="31.5" height="31.5"/>
	<path class="st0" d="M1371.5,998.4L1371.5,998.4c-5.1-5.1-7.2-12-6.3-18.7c0.6-4.7,2.7-9.2,6.3-12.8v0c4.3-4.3,10-6.5,15.7-6.5
		c5.7,0,11.4,2.2,15.7,6.5v0c3.6,3.6,5.7,8.1,6.3,12.8c0.9,6.6-1.2,13.6-6.3,18.7v0c-4.8,4.8-11.4,7-17.7,6.4
		C1380.3,1004.4,1375.4,1002.2,1371.5,998.4z"/>
	<path class="st4" d="M1289.6,915.9h-29.2c-3.5,0-6.7-1.5-8.9-4c-1.9-2.1-3-4.9-3-7.9l0,0c0-3.2,1.3-6.1,3.3-8.2
		c2.2-2.2,5.2-3.6,8.5-3.6h29.2c4.1,0,7.8,2.1,9.9,5.3c1.2,1.9,2,4.1,2,6.5l0,0c0,3.1-1.2,5.9-3.1,8
		C1296.2,914.4,1293.1,915.9,1289.6,915.9z"/>
	<path class="st0" d="M1289.6,828.9h-29.2c-3.2,0-6-1.2-8.2-3.3c-2.3-2.2-3.7-5.2-3.7-8.6l0,0c0-3.8,1.8-7.2,4.6-9.4
		c2-1.6,4.5-2.5,7.3-2.5h29.2c3.9,0,7.4,1.9,9.6,4.9c1.4,2,2.3,4.4,2.3,7l0,0c0,3.6-1.6,6.7-4,8.9
		C1295.4,827.8,1292.6,828.9,1289.6,828.9z"/>
	<path class="st0" d="M1382.8,828.9H1324c-4.3,0-8.1-2.3-10.2-5.8c-1.1-1.8-1.7-3.9-1.7-6.1l0,0c0-3.9,1.9-7.4,4.8-9.5
		c2-1.5,4.4-2.3,7-2.3h58.8c4.1,0,7.8,2.1,9.9,5.3c1.2,1.9,2,4.1,2,6.5l0,0c0,2.2-0.6,4.3-1.7,6.1
		C1391,826.6,1387.2,828.9,1382.8,828.9z"/>
	<path class="st4" d="M1353.2,915.9H1324c-3.3,0-6.2-1.3-8.4-3.5c-2.1-2.1-3.5-5.1-3.5-8.4l0,0c0-2.9,1-5.6,2.8-7.6
		c2.2-2.6,5.4-4.2,9.1-4.2h29.2c3.8,0,7.3,1.8,9.4,4.7c1.5,2,2.4,4.5,2.4,7.2l0,0c0,2.7-0.9,5.2-2.4,7.2
		C1360.5,914.1,1357,915.9,1353.2,915.9z"/>
	<path class="st4" d="M1416.7,915.9h-29.2c-3.2,0-6.1-1.2-8.2-3.3c-2.3-2.2-3.7-5.2-3.7-8.6l0,0c0-2.8,1-5.4,2.7-7.5
		c2.2-2.7,5.5-4.4,9.2-4.4h29.2c4.3,0,8.1,2.3,10.2,5.8c1.1,1.8,1.7,3.9,1.7,6.1l0,0c0,2.8-1,5.4-2.6,7.4
		C1423.8,914.2,1420.5,915.9,1416.7,915.9z"/>
	<rect x="826.7" y="798.2" class="st0" width="273.7" height="70.2"/>
	<rect x="932.8" y="813.7" class="st5" width="61.5" height="18.8"/>
	<rect x="1452.5" y="777.5" class="st4" width="334.2" height="229.4"/>
	
		<rect x="1365" y="979.7" transform="matrix(0.7071 -0.7071 0.7071 0.7071 -288.5229 1268.7717)" class="st3" width="44.5" height="5.9"/>
	
		<rect x="1385.1" y="1185.6" transform="matrix(0.7071 -0.7071 0.7071 0.7071 -431.7993 1334.583)" class="st6" width="19.9" height="5.9"/>
	
		<rect x="978" y="1262.3" transform="matrix(0.5834 -0.8122 0.8122 0.5834 -625.0211 1327.0026)" class="st3" width="5.9" height="20.9"/>
	<rect x="1127.2" y="1249.8" class="st3" width="5.9" height="22.7"/>
	
		<rect x="1606.8" y="1265.4" transform="matrix(0.707 -0.7072 0.7072 0.707 -430.0394 1511.9701)" class="st3" width="5.9" height="19.2"/>
	<rect x="1502.1" y="1307.1" class="st3" width="5.9" height="19.4"/>
	<circle class="st6" cx="1197.9" cy="817" r="11.9"/>
	<rect x="1177.1" y="979.7" class="st4" width="71.4" height="5.9"/>
	<polygon class="st4" points="984.4,1362.4 939.7,1362.4 939.7,1356.5 981.9,1356.5 992.2,1346.2 996.4,1350.4 	"/>
	<polygon class="st4" points="1193,1362.4 1160.1,1362.4 1147.5,1349.8 1151.7,1345.6 1162.6,1356.5 1193,1356.5 	"/>
	<polygon class="st4" points="1222,1176.8 1197.7,1152.5 1055.5,1152.5 1055.5,1146.6 1200.1,1146.6 1226.2,1172.6 	"/>
	<polygon class="st4" points="1464.7,1356.8 1428.6,1356.8 1428.6,1350.9 1462.2,1350.9 1471.2,1341.9 1475.4,1346.1 	"/>
	<polygon class="st4" points="1721.5,1356.5 1671.3,1356.5 1655.5,1340.7 1659.7,1336.5 1673.8,1350.6 1721.5,1350.6 	"/>
	<rect x="1734.9" y="1350.9" class="st4" width="16.8" height="5.9"/>
	<rect x="810.2" y="1131" class="st0" width="16.5" height="100.9"/>
	<rect x="807.6" y="1162.1" class="st4" width="21.7" height="38.6"/>
	<rect x="861.6" y="1131" class="st0" width="16.5" height="100.9"/>
	<rect x="913" y="1131" class="st0" width="16.5" height="100.9"/>
	<rect x="910.3" y="1191.3" class="st4" width="21.7" height="38.6"/>
	<rect x="859" y="1142.9" class="st4" width="21.7" height="38.6"/>
	<rect x="1544" y="1132.2" class="st7" width="5.9" height="37.9"/>
	<rect x="1702.3" y="1132.2" class="st7" width="5.9" height="37.9"/>
	<path class="st7" d="M1594.4,1173H1564v-43.8h30.4V1173z M1569.9,1167.1h18.6v-31.9h-18.6V1167.1z"/>
	<polygon class="st7" points="1594.4,1170.1 1588.5,1170.1 1588.5,1135.2 1569.9,1135.2 1569.9,1170.1 1564,1170.1 1564,1129.2 
		1594.4,1129.2 	"/>
	<polygon class="st7" points="1682.6,1173 1651,1173 1651,1167.1 1676.7,1167.1 1676.7,1152.5 1653.7,1152.5 1653.7,1129.2 
		1684.6,1129.2 1684.6,1135.2 1659.6,1135.2 1659.6,1146.6 1682.6,1146.6 	"/>
	<rect x="1622.8" y="1137.3" class="st7" width="5.9" height="6.7"/>
	<rect x="1622.8" y="1158.2" class="st7" width="5.9" height="6.7"/>
	<rect x="1741.8" y="1134.4" class="st5" width="29.7" height="5.9"/>
	<rect x="1741.8" y="1158.6" class="st5" width="29.7" height="5.9"/>
	<rect x="1546.4" y="901.1" class="st0" width="146.5" height="5.9"/>
	<rect x="890.3" y="901.1" class="st0" width="146.5" height="5.9"/>
	<rect x="1482.8" y="798.2" class="st0" width="273.7" height="70.2"/>
	<rect x="1588.9" y="813.7" class="st5" width="61.5" height="18.8"/>
	<path class="st5" d="M1823.9,726.1v337.2H1765v22.8h58.8v337.2H1765v26.7h-163.2v-26.7h-618v26.7H820.7v-26.7h-58.8V1086h58.8
		v-22.8h-58.8V726.1H1823.9 M983.8,1086h618v-22.8h-618V1086 M1835.7,714.2h-11.9h-1062H750v11.9v337.2v11.9v10.9v337.2v11.9h11.9
		h47v14.8v11.9h11.9h163.2h11.9v-11.9v-14.8H1590v14.8v11.9h11.9H1765h11.9v-11.9v-14.8h47h11.9v-11.9V1086v-10.9v-11.9V726.1V714.2
		L1835.7,714.2z"/>
</g>
<g id="Pixels">
	<rect x="818.8" y="336.6" class="st8" width="93.9" height="93.9"/>
	<path class="st5" d="M915.6,433.5h-99.8v-99.8h99.8V433.5z M821.7,427.5h88v-88h-88V427.5z"/>
	<rect x="818.8" y="515.5" class="st8" width="93.9" height="93.9"/>
	<path class="st5" d="M915.6,612.3h-99.8v-99.8h99.8V612.3z M821.7,606.4h88v-88h-88V606.4z"/>
	<rect x="818.8" y="609.4" class="st8" width="93.9" height="93.9"/>
	<path class="st5" d="M915.6,706.2h-99.8v-99.8h99.8V706.2z M821.7,700.3h88v-88h-88V700.3z"/>
	<rect x="724.8" y="609.4" class="st8" width="93.9" height="93.9"/>
	<path class="st5" d="M821.7,706.2h-99.8v-99.8h99.8V706.2z M727.8,700.3h88v-88h-88V700.3z"/>
	<rect x="912.7" y="609.4" class="st8" width="93.9" height="93.9"/>
	<path class="st5" d="M1009.5,706.2h-99.8v-99.8h99.8V706.2z M915.6,700.3h88v-88h-88V700.3z"/>
	<rect x="1523.8" y="430.5" class="st8" width="93.9" height="93.9"/>
	<path class="st5" d="M1620.7,527.4h-99.8v-99.8h99.8V527.4z M1526.8,521.4h88v-88h-88V521.4z"/>
	<rect x="912.7" y="516.3" class="st8" width="93.9" height="93.9"/>
	<path class="st5" d="M1009.5,613.2h-99.8v-99.8h99.8V613.2z M915.6,607.3h88v-88h-88V607.3z"/>
	<rect x="1523.8" y="516.3" class="st8" width="93.9" height="93.9"/>
	<path class="st5" d="M1620.7,613.2h-99.8v-99.8h99.8V613.2z M1526.8,607.3h88v-88h-88V607.3z"/>
	<rect x="451.9" y="688" class="st7" width="93.9" height="93.9"/>
	<path class="st5" d="M548.7,784.9h-99.8v-99.8h99.8V784.9z M454.8,779h88v-88h-88V779z"/>
	<rect x="451.9" y="875.8" class="st9" width="93.9" height="93.9"/>
	<path class="st5" d="M548.7,972.7h-99.8v-99.8h99.8V972.7z M454.8,966.8h88v-88h-88V966.8z"/>
	<rect x="451.9" y="967.2" class="st9" width="93.9" height="93.9"/>
	<path class="st5" d="M548.7,1064h-99.8v-99.8h99.8V1064z M454.8,1058.1h88v-88h-88V1058.1z"/>
	<rect x="451.9" y="1059.9" class="st7" width="93.9" height="93.9"/>
	<path class="st5" d="M548.7,1156.7h-99.8v-99.8h99.8V1156.7z M454.8,1150.8h88v-88h-88V1150.8z"/>
	<rect x="545.8" y="1059.9" class="st7" width="93.9" height="93.9"/>
	<path class="st5" d="M642.7,1156.7h-99.8v-99.8h99.8V1156.7z M548.7,1150.8h88v-88h-88V1150.8z"/>
	<rect x="637.4" y="968.3" class="st7" width="93.9" height="93.9"/>
	<path class="st5" d="M734.2,1065.1h-99.8v-99.8h99.8V1065.1z M640.3,1059.2h88v-88h-88V1059.2z"/>
	<rect x="545.8" y="968.3" class="st7" width="93.9" height="93.9"/>
	<path class="st5" d="M642.7,1065.1h-99.8v-99.8h99.8V1065.1z M548.7,1059.2h88v-88h-88V1059.2z"/>
	<rect x="637.4" y="875.8" class="st7" width="93.9" height="93.9"/>
	<path class="st5" d="M734.2,972.7h-99.8v-99.8h99.8V972.7z M640.3,966.8h88v-88h-88V966.8z"/>
	<rect x="267.9" y="1059.9" class="st7" width="93.9" height="93.9"/>
	<path class="st5" d="M364.7,1156.7h-99.8v-99.8h99.8V1156.7z M270.8,1150.8h88v-88h-88V1150.8z"/>
	<rect x="1853.9" y="1059.9" class="st8" width="93.9" height="93.9"/>
	<path class="st5" d="M1950.8,1156.7h-99.8v-99.8h99.8V1156.7z M1856.9,1150.8h88v-88h-88V1150.8z"/>
	<rect x="1947.8" y="1059.9" class="st7" width="93.9" height="93.9"/>
	<path class="st5" d="M2044.7,1156.7h-99.8v-99.8h99.8V1156.7z M1950.8,1150.8h88v-88h-88V1150.8z"/>
	<rect x="2041" y="1059.9" class="st9" width="93.9" height="93.9"/>
	<path class="st5" d="M2137.9,1156.7h-99.8v-99.8h99.8V1156.7z M2044,1150.8h88v-88h-88V1150.8z"/>
	<rect x="2138.2" y="962.7" class="st9" width="93.9" height="93.9"/>
	<path class="st5" d="M2235.1,1059.5h-99.8v-99.8h99.8V1059.5z M2141.2,1053.6h88v-88h-88V1053.6z"/>
	<rect x="1947.8" y="965.8" class="st9" width="93.9" height="93.9"/>
	<path class="st5" d="M2044.7,1062.6h-99.8v-99.8h99.8V1062.6z M1950.8,1056.7h88v-88h-88V1056.7z"/>
	<rect x="1853.9" y="965.8" class="st8" width="93.9" height="93.9"/>
	<path class="st5" d="M1950.8,1062.6h-99.8v-99.8h99.8V1062.6z M1856.9,1056.7h88v-88h-88V1056.7z"/>
	<rect x="1853.9" y="873" class="st8" width="93.9" height="93.9"/>
	<path class="st5" d="M1950.8,969.9h-99.8v-99.8h99.8V969.9z M1856.9,964h88v-88h-88V964z"/>
	<rect x="1853.9" y="687.6" class="st9" width="93.9" height="93.9"/>
	<path class="st5" d="M1950.8,784.4h-99.8v-99.8h99.8V784.4z M1856.9,778.5h88v-88h-88V778.5z"/>
</g>
</svg>
