<?xml version="1.0" encoding="utf-8"?>
<!-- Generator: Adobe Illustrator 21.0.2, SVG Export Plug-In . SVG Version: 6.00 Build 0)  -->
<svg version="1.1" id="Слой_1" xmlns="http://www.w3.org/2000/svg" xmlns:xlink="http://www.w3.org/1999/xlink" x="0px" y="0px"
	 viewBox="0 0 2500 2000" style="enable-background:new 0 0 2500 2000;" xml:space="preserve">
<style type="text/css">
	.st0{fill:#FFFF01;}
	.st1{fill:#C0C0C0;}
	.st2{fill:#393939;}
	.st3{fill:#D1D1D1;}
	.st4{fill:#E8E8E8;}
	.st5{fill:#B8E617;}
	.st6{fill:#E6240B;}
	.st7{fill:#6CFFF1;}
	.st8{fill:#808080;}
	.st9{fill:#FFFFFF;}
	.st10{fill:#EAEAEA;}
	.st11{fill:#DCE0DF;}
	.st12{fill:#08FF9E;}
	.st13{fill:#0000E7;}
	.st14{fill:#CCC600;}
	.st15{fill:#00817F;}
	.st16{fill:#A5BDC0;}
	.st17{fill:#E6008E;}
</style>
<g id="Stars">
	<polygon class="st0" points="1771.2,1488.7 1886.6,1527.7 1771.2,1566.7 1732.3,1756.4 1693.3,1566.7 1577.9,1527.7 1693.3,1488.7 
		1732.3,1302.5 	"/>
	<polygon class="st0" points="419.8,473.2 493.5,498.1 419.8,523 394.9,644.3 370,523 296.2,498.1 370,473.2 394.9,354.2 	"/>
	<polygon class="st0" points="2035.1,307.2 2080.6,322.5 2035.1,337.9 2019.7,412.8 2004.3,337.9 1958.8,322.5 2004.3,307.2 
		2019.7,233.6 	"/>
</g>
<g id="Window_3">
	<rect x="1523.3" y="447.6" class="st1" width="521.7" height="819.2"/>
	<path class="st2" d="M2042.7,449.8v814.8h-517.2V449.8H2042.7 M2047.2,445.3h-4.5h-517.2h-4.5v4.5v814.8v4.5h4.5h517.2h4.5v-4.5
		V449.8V445.3L2047.2,445.3z"/>
	<rect x="1548.5" y="599.5" class="st3" width="471.2" height="638.2"/>
	<path class="st2" d="M2021.9,1239.9h-475.7V597.3h475.7V1239.9z M1550.7,1235.5h466.8V601.7h-466.8V1235.5z"/>
	<rect x="1576.7" y="795.2" class="st4" width="414.8" height="414.8"/>
	<rect x="1784.1" y="898.9" class="st5" width="103.7" height="103.7"/>
	<rect x="1887.8" y="1106.4" class="st1" width="103.7" height="103.7"/>
	<rect x="1887.8" y="795.2" class="st1" width="103.7" height="103.7"/>
	<rect x="1576.7" y="1002.7" class="st1" width="103.7" height="103.7"/>
	<rect x="1680.4" y="795.2" class="st1" width="103.7" height="311.2"/>
	<path class="st2" d="M1993.7,766.7h-419.3V621.2h419.3V766.7z M1578.9,762.2h410.4V625.7h-410.4V762.2z"/>
	
		<rect x="1599" y="651.5" transform="matrix(-1 -1.224647e-16 1.224647e-16 -1 3312.9631 1387.8628)" class="st2" width="115" height="84.9"/>
	<path class="st6" d="M1658.7,722.1H1622v-56.4h36.7V722.1z M1626.4,717.7h27.8v-47.5h-27.8V717.7z"/>
	<rect x="1691.5" y="668" class="st6" width="4.5" height="51.9"/>
	
		<rect x="1851.3" y="651.5" transform="matrix(-1 -1.224647e-16 1.224647e-16 -1 3817.5586 1387.8624)" class="st2" width="115" height="84.9"/>
	<path class="st6" d="M1903.1,722.1h-36.7v-56.4h36.7V722.1z M1870.8,717.7h27.8v-47.5h-27.8V717.7z"/>
	<rect x="1939" y="668" class="st6" width="4.5" height="51.9"/>
	
		<rect x="1740" y="651.5" transform="matrix(-1 -1.224647e-16 1.224647e-16 -1 3568.229 1387.8628)" class="st4" width="88.3" height="84.9"/>
	<path class="st2" d="M1830.5,738.6h-92.8v-89.4h92.8V738.6z M1742.2,734.2h83.9v-80.5h-83.9V734.2z"/>
	<rect x="1525.5" y="449.8" class="st7" width="517.2" height="75.7"/>
	<rect x="1828.3" y="464.6" class="st3" width="46" height="46"/>
	<path class="st2" d="M1876.5,512.9H1826v-50.5h50.5V512.9z M1830.5,508.4h41.6v-41.6h-41.6V508.4z"/>
	<rect x="1893.6" y="464.6" class="st3" width="46" height="46"/>
	<path class="st2" d="M1941.8,512.9h-50.5v-50.5h50.5V512.9z M1895.8,508.4h41.6v-41.6h-41.6V508.4z"/>
	<rect x="1906.9" y="478" class="st3" width="19.3" height="19.3"/>
	<path class="st2" d="M1928.4,499.5h-23.7v-23.7h23.7V499.5z M1909.1,495.1h14.8v-14.8h-14.8V495.1z"/>
	<rect x="1958.9" y="464.6" class="st3" width="46" height="46"/>
	<path class="st2" d="M2007.1,512.9h-50.5v-50.5h50.5V512.9z M1961.1,508.4h41.6v-41.6h-41.6V508.4z"/>
	<circle class="st0" cx="1784.1" cy="693.9" r="29.1"/>
	<path class="st2" d="M1784.1,725.3c-17.3,0-31.4-14.1-31.4-31.3c0-17.3,14.1-31.4,31.4-31.4c17.3,0,31.4,14.1,31.4,31.4
		C1815.5,711.2,1801.4,725.3,1784.1,725.3z M1784.1,667c-14.8,0-26.9,12.1-26.9,26.9c0,14.8,12.1,26.9,26.9,26.9
		c14.8,0,26.9-12.1,26.9-26.9C1811,679.1,1798.9,667,1784.1,667z"/>
	<circle class="st0" cx="1784.1" cy="693.9" r="29.1"/>
	<path class="st2" d="M1784.1,725.3c-17.3,0-31.4-14.1-31.4-31.3c0-17.3,14.1-31.4,31.4-31.4c17.3,0,31.4,14.1,31.4,31.4
		C1815.5,711.2,1801.4,725.3,1784.1,725.3z M1784.1,667c-14.8,0-26.9,12.1-26.9,26.9c0,14.8,12.1,26.9,26.9,26.9
		c14.8,0,26.9-12.1,26.9-26.9C1811,679.1,1798.9,667,1784.1,667z"/>
	<path class="st2" d="M1799.2,711.7h-4.5c0-5.9-4.8-10.6-10.6-10.6c-5.9,0-10.6,4.8-10.6,10.6h-4.5c0-8.3,6.8-15.1,15.1-15.1
		C1792.4,696.6,1799.2,703.4,1799.2,711.7z"/>
	<path class="st2" d="M1682.6,1004.9h-108.2V793h108.2V1004.9z M1578.9,1000.4h99.3v-203h-99.3V1000.4z"/>
	<path class="st2" d="M1786.3,1004.9h-108.1V793h108.1V1004.9z M1682.6,1000.4h99.2v-203h-99.2V1000.4z"/>
	<path class="st2" d="M1786.3,901.2h-211.9V793h211.9V901.2z M1578.9,896.7h203v-99.2h-203V896.7z"/>
	<path class="st2" d="M1786.3,1004.9h-211.9V896.7h211.9V1004.9z M1578.9,1000.4h203v-99.3h-203V1000.4z"/>
	<path class="st2" d="M1890.1,1004.9h-108.2V793h108.2V1004.9z M1786.3,1000.4h99.3v-203h-99.3V1000.4z"/>
	<path class="st2" d="M1993.8,1004.9h-108.1V793h108.1V1004.9z M1890.1,1000.4h99.2v-203h-99.2V1000.4z"/>
	<path class="st2" d="M1993.8,901.2h-211.9V793h211.9V901.2z M1786.3,896.7h203v-99.2h-203V896.7z"/>
	<path class="st2" d="M1993.8,1004.9h-211.9V896.7h211.9V1004.9z M1786.3,1000.4h203v-99.3h-203V1000.4z"/>
	<path class="st2" d="M1682.6,1212.3h-108.2v-211.9h108.2V1212.3z M1578.9,1207.9h99.3v-203h-99.3V1207.9z"/>
	<path class="st2" d="M1786.3,1212.3h-108.1v-211.9h108.1V1212.3z M1682.6,1207.9h99.2v-203h-99.2V1207.9z"/>
	<path class="st2" d="M1786.3,1108.6h-211.9v-108.1h211.9V1108.6z M1578.9,1104.1h203v-99.2h-203V1104.1z"/>
	<path class="st2" d="M1786.3,1212.3h-211.9v-108.2h211.9V1212.3z M1578.9,1207.9h203v-99.3h-203V1207.9z"/>
	<path class="st2" d="M1890.1,1212.3h-108.2v-211.9h108.2V1212.3z M1786.3,1207.9h99.3v-203h-99.3V1207.9z"/>
	<path class="st2" d="M1993.8,1212.3h-108.1v-211.9h108.1V1212.3z M1890.1,1207.9h99.2v-203h-99.2V1207.9z"/>
	<path class="st2" d="M1993.8,1108.6h-211.9v-108.1h211.9V1108.6z M1786.3,1104.1h203v-99.2h-203V1104.1z"/>
	<path class="st2" d="M1993.8,1212.3h-211.9v-108.2h211.9V1212.3z M1786.3,1207.9h203v-99.3h-203V1207.9z"/>
	<path class="st2" d="M1871.3,953v-4.5h-12.5c-0.5-4.7-2.3-8.9-5.1-12.4l8.8-8.8l-3.1-3.1l-8.8,8.8c-3.4-2.8-7.7-4.7-12.4-5.1v-12.5
		h-4.5v12.5c-4.7,0.5-8.9,2.3-12.4,5.1l-8.8-8.8l-3.1,3.1l8.8,8.8c-2.8,3.4-4.7,7.7-5.1,12.4h-12.5v4.5h12.5
		c0.5,4.7,2.3,8.9,5.1,12.4l-8.8,8.8l3.1,3.1l8.8-8.8c3.4,2.8,7.7,4.7,12.4,5.1v12.5h4.5v-12.5c4.7-0.5,8.9-2.3,12.4-5.1l8.8,8.8
		l3.1-3.1l-8.8-8.8c2.8-3.4,4.7-7.7,5.1-12.4H1871.3z"/>
	<path class="st8" d="M1822.1,950.8h-4.5c0-10.1,8.2-18.3,18.3-18.3v4.5C1828.3,937,1822.1,943.2,1822.1,950.8z"/>
	<path class="st2" d="M1767.6,845.9v-4.5h-12.5c-0.5-4.7-2.3-8.9-5.1-12.4l8.8-8.8l-3.1-3.1l-8.8,8.8c-3.4-2.8-7.7-4.7-12.4-5.1
		v-12.5h-4.5v12.5c-4.7,0.5-8.9,2.3-12.4,5.1l-8.8-8.8l-3.1,3.1l8.8,8.8c-2.8,3.4-4.7,7.7-5.1,12.4h-12.5v4.5h12.5
		c0.5,4.7,2.3,8.9,5.1,12.4l-8.8,8.8l3.1,3.1l8.8-8.8c3.4,2.8,7.7,4.7,12.4,5.1V879h4.5v-12.5c4.7-0.5,8.9-2.3,12.4-5.1l8.8,8.8
		l3.1-3.1l-8.8-8.8c2.8-3.4,4.7-7.7,5.1-12.4H1767.6z"/>
	<path class="st8" d="M1718.4,843.7h-4.5c0-10.1,8.2-18.3,18.3-18.3v4.5C1724.6,829.9,1718.4,836.1,1718.4,843.7z"/>
	<path class="st2" d="M1663.9,1056.7v-4.5h-12.5c-0.5-4.7-2.3-8.9-5.1-12.4l8.8-8.8l-3.1-3.1l-8.8,8.8c-3.4-2.8-7.7-4.7-12.4-5.1
		v-12.5h-4.5v12.5c-4.7,0.5-8.9,2.3-12.4,5.1l-8.8-8.8l-3.1,3.1l8.8,8.8c-2.8,3.4-4.7,7.7-5.1,12.4h-12.5v4.5h12.5
		c0.5,4.7,2.3,8.9,5.1,12.4l-8.8,8.8l3.1,3.1l8.8-8.8c3.4,2.8,7.7,4.7,12.4,5.1v12.5h4.5v-12.5c4.7-0.5,8.9-2.3,12.4-5.1l8.8,8.8
		l3.1-3.1l-8.8-8.8c2.8-3.4,4.7-7.7,5.1-12.4H1663.9z"/>
	<path class="st8" d="M1614.7,1054.5h-4.5c0-10.1,8.2-18.3,18.3-18.3v4.5C1620.9,1040.7,1614.7,1046.9,1614.7,1054.5z"/>
	<path class="st2" d="M1975,1160.5v-4.5h-12.5c-0.5-4.7-2.3-8.9-5.1-12.4l8.8-8.8l-3.1-3.1l-8.8,8.8c-3.4-2.8-7.7-4.7-12.4-5.1
		v-12.5h-4.5v12.5c-4.7,0.5-8.9,2.3-12.4,5.1l-8.8-8.8l-3.1,3.1l8.8,8.8c-2.8,3.4-4.7,7.7-5.1,12.4h-12.5v4.5h12.5
		c0.5,4.7,2.3,8.9,5.1,12.4l-8.8,8.8l3.1,3.1l8.8-8.8c3.4,2.8,7.7,4.7,12.4,5.1v12.5h4.5v-12.5c4.7-0.5,8.9-2.3,12.4-5.1l8.8,8.8
		l3.1-3.1l-8.8-8.8c2.8-3.4,4.7-7.7,5.1-12.4H1975z"/>
	<path class="st8" d="M1925.9,1158.2h-4.5c0-10.1,8.2-18.3,18.3-18.3v4.5C1932.1,1144.4,1925.9,1150.6,1925.9,1158.2z"/>
	<polygon class="st6" points="1693.8,696.2 1668.7,696.2 1668.7,668 1673.2,668 1673.2,691.7 1693.8,691.7 	"/>
	<circle class="st2" cx="1769.7" cy="687.2" r="3.1"/>
	<circle class="st2" cx="1797" cy="687.2" r="3.1"/>
	<rect x="1840.5" y="495.4" class="st2" width="21.5" height="4.5"/>
	<line class="st3" x1="1906.9" y1="481.3" x2="1926.2" y2="481.3"/>
	<rect x="1906.9" y="479.1" class="st2" width="19.3" height="4.5"/>
	<line class="st3" x1="1973.2" y1="478.9" x2="1990.6" y2="496.4"/>
	
		<rect x="1979.6" y="475.3" transform="matrix(0.7071 -0.7071 0.7071 0.7071 235.6621 1544.2216)" class="st2" width="4.5" height="24.7"/>
	<line class="st3" x1="1990.6" y1="478.9" x2="1973.2" y2="496.4"/>
	
		<rect x="1969.5" y="485.4" transform="matrix(0.7071 -0.7071 0.7071 0.7071 235.6621 1544.2216)" class="st2" width="24.7" height="4.5"/>
	<rect x="1566.3" y="485.4" class="st9" width="181.8" height="4.5"/>
	<rect x="1566.3" y="560.3" class="st2" width="104.6" height="4.5"/>
	<rect x="1702.7" y="560.3" class="st2" width="52.3" height="4.5"/>
</g>
<g id="Window_2">
	<rect x="616.8" y="838.7" class="st1" width="1022.2" height="819.2"/>
	<path class="st2" d="M1636.8,840.9v814.8H619.1V840.9H1636.8 M1641.3,836.5h-4.5H619.1h-4.5v4.5v814.8v4.5h4.5h1017.8h4.5v-4.5
		V840.9V836.5L1641.3,836.5z"/>
	<rect x="958.8" y="1001.8" class="st9" width="640.2" height="563.7"/>
	<rect x="664.7" y="1001.9" class="st10" width="140.9" height="140.9"/>
	<path class="st2" d="M807.8,1145H662.5V999.6h145.4V1145z M666.9,1140.5h136.5v-136.5H666.9V1140.5z"/>
	<polyline class="st10" points="668.3,1146.7 668.3,1005.8 809.2,1005.8 	"/>
	<polygon class="st2" points="670.5,1146.7 666.1,1146.7 666.1,1003.6 809.2,1003.6 809.2,1008 670.5,1008 	"/>
	<rect x="805.6" y="1001.9" class="st4" width="140.9" height="140.9"/>
	<path class="st2" d="M948.7,1145H803.4V999.6h145.4V1145z M807.8,1140.5h136.5v-136.5H807.8V1140.5z"/>
	<rect x="664.7" y="1142.8" class="st4" width="140.9" height="140.9"/>
	<path class="st2" d="M807.8,1285.9H662.5v-145.4h145.4V1285.9z M666.9,1281.4h136.5V1145H666.9V1281.4z"/>
	<rect x="805.6" y="1142.8" class="st4" width="140.9" height="140.9"/>
	<path class="st2" d="M948.7,1285.9H803.4v-145.4h145.4V1285.9z M807.8,1281.4h136.5V1145H807.8V1281.4z"/>
	<rect x="664.7" y="1283.7" class="st4" width="140.9" height="140.9"/>
	<path class="st2" d="M807.8,1426.8H662.5v-145.4h145.4V1426.8z M666.9,1422.4h136.5v-136.5H666.9V1422.4z"/>
	<rect x="805.6" y="1283.7" class="st4" width="140.9" height="140.9"/>
	<path class="st2" d="M948.7,1426.8H803.4v-145.4h145.4V1426.8z M807.8,1422.4h136.5v-136.5H807.8V1422.4z"/>
	<rect x="664.7" y="1424.6" class="st4" width="140.9" height="140.9"/>
	<path class="st2" d="M807.8,1567.7H662.5v-145.4h145.4V1567.7z M666.9,1563.3h136.5v-136.5H666.9V1563.3z"/>
	<rect x="805.6" y="1424.6" class="st4" width="140.9" height="140.9"/>
	<path class="st2" d="M948.7,1567.7H803.4v-145.4h145.4V1567.7z M807.8,1563.3h136.5v-136.5H807.8V1563.3z"/>
	<rect x="619.1" y="840.9" class="st8" width="1017.8" height="75.7"/>
	<rect x="619.1" y="914.4" class="st2" width="1017.8" height="4.5"/>
	<rect x="1422.4" y="855.8" class="st3" width="46" height="46"/>
	<path class="st2" d="M1470.6,904h-50.5v-50.5h50.5V904z M1424.6,899.6h41.6V858h-41.6V899.6z"/>
	<rect x="1487.7" y="855.8" class="st3" width="46" height="46"/>
	<path class="st2" d="M1535.9,904h-50.5v-50.5h50.5V904z M1489.9,899.6h41.6V858h-41.6V899.6z"/>
	<rect x="1501" y="869.1" class="st3" width="19.3" height="19.3"/>
	<path class="st2" d="M1522.6,890.7h-23.7v-23.7h23.7V890.7z M1503.3,886.2h14.8v-14.8h-14.8V886.2z"/>
	<rect x="1553" y="855.8" class="st3" width="46" height="46"/>
	<path class="st2" d="M1601.2,904h-50.5v-50.5h50.5V904z M1555.2,899.6h41.6V858h-41.6V899.6z"/>
	<rect x="1434.6" y="886.6" class="st2" width="21.5" height="4.5"/>
	<line class="st3" x1="1501" y1="872.5" x2="1520.3" y2="872.5"/>
	<rect x="1501" y="870.3" class="st2" width="19.3" height="4.5"/>
	<line class="st3" x1="1567.3" y1="870.1" x2="1584.7" y2="887.5"/>
	
		<rect x="1573.8" y="866.5" transform="matrix(0.7071 -0.7072 0.7072 0.7071 -159.767 1371.8951)" class="st2" width="4.5" height="24.7"/>
	<line class="st3" x1="1584.7" y1="870.1" x2="1567.3" y2="887.5"/>
	
		<rect x="1563.7" y="876.6" transform="matrix(0.7071 -0.7071 0.7071 0.7071 -159.7978 1371.787)" class="st2" width="24.7" height="4.5"/>
	<rect x="665.7" y="870.3" class="st9" width="337.6" height="4.5"/>
	<rect x="665.7" y="949.8" class="st2" width="118" height="4.5"/>
	<rect x="834.5" y="949.8" class="st2" width="73.8" height="4.5"/>
	<rect x="966.4" y="949.8" class="st2" width="73.8" height="4.5"/>
	<rect x="1091" y="949.8" class="st2" width="119.6" height="4.5"/>
	<rect x="1529.2" y="1004.1" class="st11" width="67.6" height="559"/>
	<rect x="1536.9" y="1011.8" class="st1" width="52.3" height="52.3"/>
	<g>
		<path class="st2" d="M1591.4,1066.3h-56.8v-56.8h56.8V1066.3z M1539.1,1061.8h47.9V1014h-47.9V1061.8z"/>
	</g>
	<rect x="1536.9" y="1071.3" class="st1" width="52.3" height="320.3"/>
	<g>
		<path class="st2" d="M1591.4,1393.8h-56.8v-324.7h56.8V1393.8z M1539.1,1389.4h47.9v-315.8h-47.9V1389.4z"/>
	</g>
	<polygon class="st2" points="1563.1,1031 1549.2,1044.9 1576.9,1044.9 	"/>
	<rect x="1536.9" y="1503.3" class="st1" width="52.3" height="52.3"/>
	<g>
		<path class="st2" d="M1591.4,1557.8h-56.8V1501h56.8V1557.8z M1539.1,1553.4h47.9v-47.9h-47.9V1553.4z"/>
	</g>
	<polygon class="st2" points="1563,1536.4 1576.9,1522.5 1549.2,1522.5 	"/>
	<g id="Title">
		<path class="st12" d="M1117.2,1198.3c-15.8-21.5-38.6-32.4-68.4-32.4c-31.5,0-58.8,9.2-81.9,27.4c-2.7,2.1-5.4,4.4-8,6.6v84.6
			c10.2-26.7,23.2-46.3,39.1-58.9c12.6-9.9,25.5-14.9,38.8-14.9c14.9,0,26.6,5.8,35.1,17.4c13.3,18.3,14.5,48.1,3.4,89.5
			c-7.1,26.5-22.3,48.9-45.4,67.1c-12.6,10-28.9,14.9-48.8,14.9c-8.2,0-15.7-2.9-22.4-8.7v53.4c25.7-0.4,49.9-9.5,72.4-27.3
			c10.5-8.2,20.4-17.4,29.7-27.3c-19.1,71.3-45.5,120.2-79.1,146.7c-7.7,6-15.3,10.5-23,13.4v15.6h58.3
			c45.8-36.6,80.3-98.4,103.7-185.7C1143.9,1293.6,1142.7,1233.1,1117.2,1198.3z"/>
		<path class="st12" d="M1306.4,1225.6l2-7.5H1475l12.6-47.2h-213.9l-2.7,10l-63.8,191.5c-1.3,5-3.7,10.8-7.2,17.4h49.8
			c4.6-5,13.3-12.4,25.9-22.4c18.9-14.9,38.3-22.4,58.2-22.4c13.3,0,23.6,5,30.8,15c11,14.9,10.9,43.1-0.3,84.5
			c-11.5,43.1-28.9,73.8-52,92c-14.7,11.6-32,17.4-51.9,17.4c-14.9,0-26-5-33.3-14.9c-9.8-13.3-12-35.6-6.9-67.2h-57.2
			c-6.2,41-2.4,72.2,11.5,93.7h173.1c37.3-29.8,63.4-72.6,78.4-128.5c12-44.7,9.5-78.7-7.5-102c-15.8-21.5-40.3-32.3-73.4-32.3
			c-24.9,0-50.8,9.9-77.6,29.8c1.3-5,3.5-9.9,6.5-14.9C1285.6,1287.8,1296.3,1257.1,1306.4,1225.6z"/>
	</g>
	<path class="st2" d="M1601.2,1567.7H956.6V999.6h644.6V1567.7z M961.1,1563.3h635.7v-559.2H961.1V1563.3z"/>
	
		<rect x="732.7" y="1439.5" transform="matrix(0.7071 -0.7071 0.7071 0.7071 -836.9847 955.5515)" class="st2" width="4.5" height="97.2"/>
	<path class="st2" d="M914.2,1522.8h-77.5l28.7-69.3h50l-20.3,46.1h19.1V1522.8z M843.4,1518.3h66.4V1504h-21.5l20.3-46.1h-40.2
		L843.4,1518.3z"/>
	<g>
		<path class="st13" d="M888.3,1359.9l21.2,21.2c3,3,3,8,0,11c-3.1,3.1-8,3-11,0l-21.2-21.2c2.2-1.3,4.3-2.9,6.2-4.8
			C885.4,1364.3,887,1362.2,888.3,1359.9z"/>
		<path class="st2" d="M861.8,1377.4c-8.5,0-16.9-3.3-23.3-9.6c-12.8-12.8-12.8-33.7,0-46.5c12.8-12.8,33.7-12.8,46.5,0
			c10.6,10.6,12.7,27,5.2,39.8c-1.4,2.4-3.1,4.7-5.1,6.7c-2,2-4.2,3.7-6.7,5.1C873.2,1375.9,867.5,1377.4,861.8,1377.4z
			 M861.8,1316.1c-7.6,0-14.7,3-20.1,8.3c-11.1,11.1-11.1,29.1,0,40.2c9.2,9.2,23.3,11,34.5,4.4c2.1-1.2,4-2.7,5.8-4.4
			c1.7-1.7,3.2-3.7,4.4-5.8c6.5-11.1,4.7-25.3-4.5-34.4C876.5,1319,869.4,1316.1,861.8,1316.1z"/>
		<path class="st9" d="M846,1360.3c-8.7-8.7-8.7-22.8,0-31.5l3.1,3.1c-7,7-7,18.3,0,25.2L846,1360.3z"/>
	</g>
	<g>
		<polygon class="st14" points="734.3,1231 734.3,1247.3 734.5,1247.3 785.3,1196.5 785.3,1179.9 		"/>
		<polygon class="st0" points="735.7,1179.1 685,1229.9 685,1247.3 734.5,1247.3 785.3,1196.5 785.3,1179.1 		"/>
		<rect x="685" y="1229.9" class="st4" width="49.6" height="17.4"/>
		<polygon class="st2" points="736.8,1247.3 732.3,1247.3 732.3,1229 783.8,1177.6 786.9,1180.7 736.8,1230.8 		"/>
		<path class="st2" d="M735.5,1249.5h-52.7V1229l52.1-52.1h52.7v20.5L735.5,1249.5z M687.2,1245.1h46.4l49.5-49.5v-14.2h-46.4
			l-49.5,49.5V1245.1z"/>
	</g>
	<g>
		<path class="st2" d="M846.5,1257.6c-23.8-25.6-22.4-61.7-18.4-69.7c2.2-4.3,8.4-11.7,17.9-11.7c6,0,12.4,2.9,19,8.5l-25.4,25.4
			l6.9,6.9V1257.6z"/>
		<g>
			<path class="st4" d="M846,1178.4c4.9,0,10.2,2.2,15.7,6.4l-22.1,22.1l-3.1,3.1l3.1,3.1l4.7,4.7v33.7
				c-19.1-24.3-17.8-55.5-14.2-62.7C832,1185,837.5,1178.4,846,1178.4 M846,1174c-10.2,0-17.2,7.4-19.9,12.9
				c-5,9.9-5.5,50,22.6,76.1v-46.9l-6-6l25.5-25.5C859.8,1176.8,852.3,1174,846,1174L846,1174z"/>
		</g>
		<polygon class="st15" points="931.1,1210.1 886.9,1254.3 848.7,1216.1 842.7,1210.1 868.2,1184.6 886.9,1165.9 		"/>
		<polygon class="st16" points="916.9,1195.9 886.9,1165.9 856.9,1195.9 		"/>
		
			<rect x="858.4" y="1201" transform="matrix(0.7071 -0.7071 0.7071 0.7071 -597.0603 984.3666)" class="st2" width="62.5" height="23.8"/>
		<path class="st2" d="M886.9,1257.5l-47.4-47.4l47.4-47.3l47.4,47.3L886.9,1257.5z M845.9,1210.1l41.1,41.1l41.1-41.1l-41.1-41.1
			L845.9,1210.1z"/>
	</g>
	<path class="st2" d="M773.5,1391.2l-43.2-81.6l-33.9,81.6h-11.9v4.5h28.2v-4.5h-11.5l4.6-11.2v0h36.5l5.9,11.1h-9.6v4.5h45.3v-4.5
		H773.5z M707.7,1375.6l14.2-34.2l18.1,34.2H707.7z"/>
	<g>
		<polygon class="st2" points="919.1,1108.9 903.6,1108.9 903.6,1104.5 914.7,1104.5 914.7,1093.3 919.1,1093.3 		"/>
		<rect x="866.9" y="1104.5" class="st2" width="18.3" height="4.5"/>
		<polygon class="st2" points="848.5,1108.9 833,1108.9 833,1093.3 837.4,1093.3 837.4,1104.5 848.5,1104.5 		"/>
		<rect x="833" y="1065.3" class="st2" width="4.5" height="14"/>
		<polygon class="st2" points="837.4,1051.3 833,1051.3 833,1035.7 848.5,1035.7 848.5,1040.1 837.4,1040.1 		"/>
		<rect x="866.9" y="1035.7" class="st2" width="18.3" height="4.5"/>
		<polygon class="st2" points="919.1,1051.3 914.7,1051.3 914.7,1040.1 903.6,1040.1 903.6,1035.7 919.1,1035.7 		"/>
		<rect x="914.7" y="1065.3" class="st2" width="4.5" height="14"/>
	</g>
	<g>
		<g>
			<path class="st0" d="M713.5,1093.5L748,1033c1.6-2.8,4.6-4.6,7.8-4.6c1.6,0,3.1,0.4,4.4,1.2c2.1,1.2,3.6,3.1,4.2,5.4
				c0.6,2.3,0.3,4.8-0.9,6.8l-34.4,60.5L713.5,1093.5z"/>
			<path class="st2" d="M755.8,1030.7L755.8,1030.7c1.2,0,2.3,0.3,3.3,0.9c1.6,0.9,2.7,2.4,3.2,4.1c0.5,1.7,0.3,3.6-0.6,5.2
				l-33.3,58.6l-11.8-6.7l33.3-58.6C751.1,1032,753.4,1030.7,755.8,1030.7 M755.8,1026.2c-3.9,0-7.7,2-9.8,5.7l-35.5,62.5l19.5,11.1
				l35.5-62.5c3.1-5.4,1.2-12.3-4.2-15.3h0C759.6,1026.7,757.7,1026.2,755.8,1026.2L755.8,1026.2z"/>
		</g>
		<g>
			<path class="st6" d="M742.7,1042.2l5.2-9.2c1.6-2.8,4.6-4.6,7.8-4.6c1.6,0,3.1,0.4,4.4,1.2c2.1,1.2,3.6,3.1,4.2,5.4
				c0.6,2.3,0.3,4.8-0.9,6.8l-5.2,9.2L742.7,1042.2z"/>
			<path class="st2" d="M755.8,1030.7c1.2,0,2.3,0.3,3.3,0.9c1.6,0.9,2.7,2.4,3.2,4.1c0.5,1.7,0.3,3.6-0.6,5.2l-4.1,7.3l-11.8-6.7
				l4.1-7.3C751.1,1032,753.4,1030.7,755.8,1030.7 M755.8,1026.2c-3.9,0-7.7,2-9.8,5.7l-6.3,11.2l19.5,11.1l6.3-11.2
				c3.1-5.4,1.2-12.3-4.2-15.3C759.6,1026.7,757.7,1026.2,755.8,1026.2L755.8,1026.2z"/>
		</g>
		<polygon class="st2" points="730,1105.5 706,1125.6 710.5,1094.4 		"/>
		
			<rect x="753.6" y="1040.1" transform="matrix(0.496 -0.8683 0.8683 0.496 -523.3294 1182.9669)" class="st9" width="7.5" height="4.5"/>
	</g>
	<g id="Pen">
		<g>
			<path class="st0" d="M1252,1171.7c-3.1,0-6-1.6-7.6-4.2l-37.1-58.9l15.3-9.6l37.1,58.9c1.3,2,1.7,4.5,1.2,6.8
				c-0.5,2.3-2,4.3-4,5.6C1255.3,1171.2,1253.7,1171.7,1252,1171.7z"/>
			<path class="st2" d="M1221.8,1102l35.9,57.1c2,3.2,1,7.4-2.1,9.4c-1.1,0.7-2.3,1-3.6,1c-2.4,0-4.5-1.2-5.8-3.2l-35.9-57.1
				L1221.8,1102 M1223.2,1095.9l-19,12l38.3,60.8c2.1,3.4,5.8,5.3,9.5,5.3c2,0,4.1-0.6,6-1.7c5.3-3.3,6.8-10.2,3.5-15.5
				L1223.2,1095.9L1223.2,1095.9z"/>
		</g>
		<g>
			<path class="st6" d="M1252,1171.7c-3.1,0-6-1.6-7.6-4.2l-5.6-9l15.3-9.6l5.6,9c1.3,2,1.7,4.5,1.2,6.8c-0.5,2.3-2,4.3-4,5.6
				C1255.3,1171.2,1253.7,1171.7,1252,1171.7L1252,1171.7z"/>
			<path class="st2" d="M1253.3,1152l4.5,7.1c2,3.2,1,7.4-2.1,9.4c-1.1,0.7-2.3,1-3.6,1c-2.4,0-4.5-1.2-5.8-3.2l-4.5-7.1
				L1253.3,1152 M1254.7,1145.8l-19,12l6.8,10.9c2.1,3.4,5.8,5.3,9.5,5.3c2,0,4.1-0.6,6-1.7c5.3-3.3,6.8-10.2,3.5-15.5
				L1254.7,1145.8L1254.7,1145.8z"/>
		</g>
		<polygon class="st2" points="1204.2,1107.9 1197.8,1077.2 1200,1077.2 1223.2,1095.9 		"/>
		
			<rect x="1244.7" y="1158.1" transform="matrix(0.8443 -0.5359 0.5359 0.8443 -428.4348 849.0733)" class="st9" width="4.5" height="7.5"/>
		<path class="st2" d="M1199.4,1076.8c-15-6.1-33.3-1.9-43.2,11.3c-5.9,7.9-7.5,17.7-10,27c-1.7,6.5-3.8,13.6-8.5,18.7
			c-7.7,8.4-20.9,8-25.1-3.6c-2.7-7.7-2.1-16.2-9.1-21.7c-4.8-3.8-11.3-4.8-17.3-4c-19.1,2.9-26.1,22.6-31,38.7
			c-0.8,2.7,3.5,3.9,4.3,1.2c3.3-10.8,6.8-22.4,15.6-30c11.3-9.7,27.3-6.7,31.3,8.4c3,11.5,6.3,23.5,21.1,21.5
			c14.6-2,20.3-17.1,23.4-29.6c2.9-11.6,5.5-23.7,16.2-30.7c9.4-6.1,20.8-6.9,31.1-2.7C1200.8,1082.2,1202,1077.9,1199.4,1076.8z"/>
	</g>
</g>
<g id="Window_1">
	<rect x="472.1" y="566.4" class="st1" width="918.1" height="307.1"/>
	<path class="st2" d="M1387.9,568.6v302.6H474.3V568.6H1387.9 M1392.4,564.1h-4.5H474.3h-4.5v4.5v302.6v4.5h4.5h913.7h4.5v-4.5
		V568.6V564.1L1392.4,564.1z"/>
	<rect x="474.3" y="568.6" class="st17" width="913.7" height="75.7"/>
	<rect x="1173.5" y="583.4" class="st3" width="46" height="46"/>
	<path class="st2" d="M1221.7,631.7h-50.5v-50.5h50.5V631.7z M1175.7,627.2h41.6v-41.6h-41.6V627.2z"/>
	<rect x="1238.8" y="583.4" class="st3" width="46" height="46"/>
	<path class="st2" d="M1287,631.7h-50.5v-50.5h50.5V631.7z M1241,627.2h41.6v-41.6H1241V627.2z"/>
	<rect x="1252.1" y="596.8" class="st3" width="19.3" height="19.3"/>
	<path class="st2" d="M1273.7,618.3h-23.7v-23.7h23.7V618.3z M1254.4,613.9h14.8V599h-14.8V613.9z"/>
	<rect x="1304.1" y="583.4" class="st3" width="46" height="46"/>
	<path class="st2" d="M1352.3,631.7h-50.5v-50.5h50.5V631.7z M1306.3,627.2h41.6v-41.6h-41.6V627.2z"/>
	<rect x="1185.7" y="614.2" class="st2" width="21.5" height="4.5"/>
	<line class="st3" x1="1252.1" y1="600.1" x2="1271.4" y2="600.1"/>
	<rect x="1252.1" y="597.9" class="st2" width="19.3" height="4.5"/>
	<line class="st3" x1="1318.4" y1="597.7" x2="1335.8" y2="615.2"/>
	
		<rect x="1324.9" y="594.1" transform="matrix(0.7072 -0.7071 0.7071 0.7072 -40.1543 1115.9323)" class="st2" width="4.5" height="24.7"/>
	<line class="st3" x1="1335.8" y1="597.7" x2="1318.4" y2="615.2"/>
	
		<rect x="1314.8" y="604.2" transform="matrix(0.7071 -0.7071 0.7071 0.7071 -40.1225 1116.0175)" class="st2" width="24.7" height="4.5"/>
	<rect x="524.2" y="604.2" class="st9" width="139.3" height="4.5"/>
	<rect x="716.9" y="604.2" class="st9" width="89.6" height="4.5"/>
	<rect x="775.4" y="754.8" class="st4" width="288.4" height="80.8"/>
	<path class="st2" d="M1066,837.7H773.2v-85.2H1066V837.7z M777.6,833.3h283.9V757H777.6V833.3z"/>
	<rect x="917.5" y="802.8" class="st2" width="4.5" height="0.5"/>
	<rect x="925.5" y="774.6" class="st2" width="4.5" height="36.6"/>
	<polygon class="st2" points="947.3,810.8 925.5,791.8 942.8,774.2 945.9,777.3 932,791.5 950.2,807.5 	"/>
	<path class="st2" d="M903.1,812H901c-6.9,0-12.6-5.6-12.6-12.6V785c0-6.9,5.6-12.6,12.6-12.6h2.1c6.9,0,12.6,5.6,12.6,12.6v14.5
		C915.7,806.4,910.1,812,903.1,812z M901,776.8c-4.5,0-8.1,3.6-8.1,8.1v14.5c0,4.5,3.6,8.1,8.1,8.1h2.1c4.5,0,8.1-3.6,8.1-8.1V785
		c0-4.5-3.6-8.1-8.1-8.1H901z"/>
	<rect x="730.3" y="708.7" class="st2" width="195.9" height="4.5"/>
	<rect x="968.5" y="708.7" class="st2" width="98" height="4.5"/>
	<path class="st2" d="M1105.9,713.3h-4.5v-7.8l0.7-0.7c1.6-1.6,3.4-2.8,5.1-4.1c3.8-2.7,6.1-4.5,6.1-7.7c0-5.3-4.3-9.6-9.6-9.6
		s-9.6,4.3-9.6,9.6h-4.5c0-7.8,6.3-14.1,14.1-14.1s14.1,6.3,14.1,14.1c0,5.7-4.1,8.6-8,11.3c-1.3,0.9-2.7,1.9-3.9,3V713.3z"/>
	<rect x="1101.2" y="718.3" class="st2" width="5" height="5"/>
</g>
</svg>
