<?xml version="1.0" encoding="utf-8"?>
<!-- Generator: Adobe Illustrator 21.0.2, SVG Export Plug-In . SVG Version: 6.00 Build 0)  -->
<svg version="1.1" id="Слой_1" xmlns="http://www.w3.org/2000/svg" xmlns:xlink="http://www.w3.org/1999/xlink" x="0px" y="0px"
	 viewBox="0 0 2500 2000" style="enable-background:new 0 0 2500 2000;" xml:space="preserve">
<style type="text/css">
	.st0{fill:#BABABA;}
	.st1{fill:#DDDDDD;}
	.st2{fill:#C9C5C2;}
	.st3{fill:#F7F7F7;}
	.st4{fill:#D3D2D1;}
	.st5{fill:#E0E0E0;}
	.st6{fill:#828383;}
	.st7{fill:#D5D2CB;}
	.st8{fill:#989FAF;}
	.st9{fill:#000080;}
	.st10{fill:#080806;}
	.st11{fill:#FFFFFF;}
	.st12{fill:#FFFF01;}
	.st13{fill:#76808E;}
	.st14{fill:#B5BDC9;}
	.st15{fill:#1B2B33;}
	.st16{fill:#0029FA;}
	.st17{fill:#E6008E;}
	.st18{fill:#838B9B;}
	.st19{fill:#AAB1BF;}
	.st20{fill:#C2C7CE;}
	.st21{fill:#8D07F6;}
	.st22{fill:#FF07F6;}
	.st23{fill:#00FF00;}
	.st24{fill:#CC3300;}
	.st25{fill:#33FFCC;}
	.st26{fill:#D1D1D1;}
	.st27{fill:#8E8E8E;}
	.st28{fill:#DBDBDB;}
	.st29{fill:#BEBEBE;}
	.st30{fill:#889FFF;}
</style>
<g id="Phone_3">
	<path class="st0" d="M1472,905h266.8v-92.1c0-22.8-18.5-41.3-41.3-41.3l-162.9-22.3c-26.3,0-42,7.5-51.1,17.9
		c-9.1,10.4-11.6,23.6-11.6,35L1472,905z"/>
	<path class="st0" d="M1712.3,731.2h-193.6c-10.1,0-19.3-4.1-25.9-10.7c-6.6-6.6-10.8-15.8-10.8-25.9V399.1
		c0-73.7,33-144.7,141.8-144.7l0,0c73.7,0,125,71.1,125,144.7l11.3,282.2c0,19.2-5.3,31.2-13,38.6
		C1737.4,729.3,1723.7,731.2,1712.3,731.2z"/>
	<path class="st0" d="M1472,816.4h266.8l21.4,309.8c0,54-21.4,93.6-52.3,119.4c-29.2,24.4-66.7,36.3-102.5,36.3h0
		c-32.9,0-63.1-11.9-86.3-31.7c-28.8-24.5-47.1-61-47.1-101.7V816.4z"/>
	<rect x="1545" y="717.3" class="st0" width="141" height="42.7"/>
	<path class="st1" d="M1493.4,882.7h266.8v-92.1c0-11-4.3-20.9-11.2-28.3c-7.5-8-18.2-13-30.1-13h-184.3c-11.7,0-22.2,4.8-29.7,12.6
		c-7.2,7.4-11.6,17.5-11.6,28.7V882.7z"/>
	<path class="st2" d="M1723.6,719.8h-193.6c-9,0-17.3-3.3-23.7-8.7c-7.9-6.7-13-16.8-13-28V387.8c0-35.8,14.1-68.3,37.1-92.3
		c24.3-25.3,58.5-41.1,96.4-41.1h0c41.1,0,77.9,18.6,102.4,47.9c19.4,23.2,31,53,31,85.5v295.4c0,8.6-3,16.5-7.9,22.8
		C1745.6,714.4,1735.3,719.8,1723.6,719.8z"/>
	<path class="st3" d="M1715.5,681.3h-177.2c-8.5,0-16.2-3.1-22.1-8.3c-7-6.2-11.4-15.2-11.4-25.2V390.1c0-36,15.5-68.3,40.3-90.7
		c21.7-19.6,50.4-31.5,81.9-31.5h0c27.5,0,52.9,9.1,73.3,24.4c29.7,22.3,48.9,57.8,48.9,97.7v257.6c0,9.3-3.8,17.7-9.8,23.7
		C1733.1,677.5,1724.7,681.3,1715.5,681.3z"/>
	<path class="st4" d="M1493.4,794.1h266.8v332.1c0,44.2-21.5,83.4-54.7,107.7c-22.1,16.2-49.3,25.7-78.7,25.7h0
		c-27.6,0-53.3-8.4-74.6-22.8c-35.5-24-58.8-64.6-58.8-110.6V794.1z"/>
	<path class="st0" d="M1541.8,804.6h170.2c19.5,0,35.4,15.8,35.4,35.4v264.4c0,34.6-14.6,65.7-37.9,87.7
		c-21.6,20.3-50.6,32.8-82.6,32.8h0c-32.6,0-62.2-13-83.9-34.1c-22.5-21.9-36.5-52.5-36.5-86.4V840
		C1506.4,820.5,1522.2,804.6,1541.8,804.6z"/>
	<path class="st5" d="M1604.8,980.4c-5.9,0-10.1,5.9-7.9,11.4c1.7,4.3,4.3,8.2,7.6,11.4c5.8,5.7,13.8,9.2,22.6,9.2h0
		c8.6,0,16.4-3.3,22.2-8.8c3.4-3.2,6.2-7.2,7.9-11.7c2.2-5.5-2-11.5-7.9-11.5H1604.8z"/>
	<path class="st6" d="M1627,1015.4c-9.3,0-18-3.6-24.7-10c-3.6-3.5-6.5-7.8-8.3-12.4c-1.4-3.5-0.9-7.4,1.2-10.5c2.2-3.2,5.7-5,9.5-5
		h44.4c3.8,0,7.4,1.9,9.5,5c2.1,3.1,2.6,7.1,1.2,10.6c-1.9,4.8-4.9,9.2-8.7,12.8C1644.7,1011.9,1636.1,1015.4,1627,1015.4z
		 M1604.8,983.4c-1.8,0-3.5,0.9-4.5,2.4c-1,1.5-1.2,3.3-0.6,4.9c1.5,3.9,3.9,7.4,6.9,10.3c5.5,5.4,12.8,8.3,20.5,8.3
		c7.5,0,14.7-2.8,20.1-8c3.1-2.9,5.6-6.6,7.2-10.6c0.7-1.7,0.4-3.5-0.6-5c-1-1.5-2.7-2.4-4.5-2.4H1604.8z"/>
	<path class="st7" d="M1626.8,346.5c-33,0-58.9-15-58.9-34.2c0-19.2,25.9-34.2,58.9-34.2s58.9,15,58.9,34.2
		C1685.8,331.4,1659.9,346.5,1626.8,346.5z M1626.8,284c-28.7,0-52.9,12.9-52.9,28.2c0,15.3,24.2,28.2,52.9,28.2
		c28.7,0,52.9-12.9,52.9-28.2C1679.7,297,1655.5,284,1626.8,284z"/>
	<ellipse class="st8" cx="1626.8" cy="312.2" rx="39.4" ry="22"/>
	<rect x="1556.4" y="706" class="st2" width="141" height="42.7"/>
	<rect x="1556.4" y="742.2" class="st4" width="141" height="56.6"/>
	<circle class="st5" cx="1626.8" cy="887.5" r="59.7"/>
	<path class="st6" d="M1626.8,950.1c-34.6,0-62.7-28.1-62.7-62.7s28.1-62.7,62.7-62.7c34.6,0,62.7,28.1,62.7,62.7
		S1661.4,950.1,1626.8,950.1z M1626.8,830.8c-31.2,0-56.6,25.4-56.6,56.6c0,31.2,25.4,56.6,56.6,56.6c31.2,0,56.6-25.4,56.6-56.6
		C1683.5,856.2,1658.1,830.8,1626.8,830.8z"/>
	<circle class="st9" cx="1626.8" cy="887.5" r="26.6"/>
	<rect x="1571" y="650.1" class="st10" width="93.6" height="16.7"/>
	<rect x="1556.4" y="777" class="st10" width="141" height="6"/>
	<rect x="1556.4" y="739.2" class="st3" width="141" height="6"/>
	<path class="st5" d="M1570.1,1006.3h-44.7c-3.4,0-6.3-2.4-7-5.8l-3.4-17.8c-0.8-4.4,2.5-8.4,7-8.4h44.7c3.4,0,6.3,2.4,7,5.8
		l3.4,17.8C1577.9,1002.3,1574.5,1006.3,1570.1,1006.3z"/>
	<path class="st6" d="M1570.1,1009.3h-44.7c-4.9,0-9-3.5-9.9-8.2l-3.4-17.8c-0.6-3,0.2-6,2.1-8.3c1.9-2.3,4.8-3.7,7.8-3.7h44.7
		c4.9,0,9,3.5,9.9,8.2l3.4,17.8c0.6,3-0.2,6-2.1,8.3C1575.9,1008,1573.1,1009.3,1570.1,1009.3z M1522,977.3c-1.2,0-2.4,0.5-3.1,1.5
		c-0.8,0.9-1.1,2.2-0.9,3.3l3.4,17.8c0.4,1.9,2,3.3,4,3.3h44.7c1.2,0,2.4-0.5,3.1-1.5c0.8-0.9,1.1-2.2,0.9-3.3l-3.4-17.8
		c-0.4-1.9-2-3.3-4-3.3H1522z"/>
	<path class="st5" d="M1576.1,1059.9h-44.7c-3.4,0-6.3-2.4-7-5.8l-3.4-17.8c-0.8-4.4,2.5-8.4,7-8.4h44.7c3.4,0,6.3,2.4,7,5.8
		l3.4,17.8C1583.9,1055.9,1580.6,1059.9,1576.1,1059.9z"/>
	<path class="st6" d="M1576.1,1062.9h-44.7c-4.9,0-9-3.5-9.9-8.2l-3.4-17.8c-0.6-3,0.2-6,2.1-8.3c1.9-2.3,4.8-3.7,7.8-3.7h44.7
		c4.8,0,9,3.5,9.9,8.2l3.4,17.8c0.6,3-0.2,6-2.1,8.3C1582,1061.6,1579.2,1062.9,1576.1,1062.9z M1528,1031c-1.2,0-2.4,0.5-3.1,1.5
		c-0.8,0.9-1.1,2.2-0.9,3.3l3.4,17.8c0.4,1.9,2,3.3,4,3.3h44.7c1.2,0,2.4-0.5,3.1-1.5c0.8-0.9,1.1-2.2,0.9-3.3l-3.4-17.8
		c-0.4-1.9-2-3.3-4-3.3H1528z"/>
	<path class="st5" d="M1644.7,1064h-35.4c-3.4,0-6.3-2.4-6.9-5.8l-3.4-17.8c-0.8-4.4,2.5-8.4,6.9-8.4h42.1c4.4,0,7.8,4,6.9,8.4
		l-3.4,17.8C1651,1061.5,1648.1,1064,1644.7,1064z"/>
	<path class="st6" d="M1644.7,1067h-35.4c-4.8,0-9-3.5-9.9-8.2l-3.4-17.8c-0.6-3,0.2-6,2.1-8.3c1.9-2.3,4.8-3.7,7.8-3.7h42.1
		c3,0,5.8,1.3,7.8,3.7c1.9,2.3,2.7,5.3,2.1,8.3l-3.4,17.8C1653.7,1063.5,1649.5,1067,1644.7,1067z M1605.9,1035
		c-1.2,0-2.3,0.5-3.1,1.5c-0.8,0.9-1.1,2.1-0.9,3.3l3.4,17.8c0.4,1.9,2,3.3,4,3.3h35.4c1.9,0,3.6-1.4,4-3.3l3.4-17.8
		c0.2-1.2-0.1-2.4-0.9-3.3c-0.8-0.9-1.9-1.5-3.1-1.5H1605.9z"/>
	<path class="st5" d="M1684.6,1006.3h44.7c3.4,0,6.3-2.4,7-5.8l3.4-17.8c0.8-4.4-2.5-8.4-7-8.4H1688c-3.4,0-6.3,2.4-7,5.8l-3.4,17.8
		C1676.8,1002.3,1680.2,1006.3,1684.6,1006.3z"/>
	<path class="st6" d="M1729.4,1009.3h-44.7c-3,0-5.9-1.3-7.8-3.7c-1.9-2.3-2.7-5.4-2.1-8.3l3.4-17.8c0.9-4.8,5.1-8.2,9.9-8.2h44.7
		c3,0,5.9,1.3,7.8,3.7c1.9,2.3,2.7,5.4,2.1,8.3l-3.4,17.8C1738.4,1005.8,1734.2,1009.3,1729.4,1009.3z M1688,977.3
		c-2,0-3.6,1.4-4,3.3l-3.4,17.8c-0.2,1.2,0.1,2.4,0.9,3.3c0.8,0.9,1.9,1.5,3.1,1.5h44.7c1.9,0,3.6-1.4,4-3.3l3.4-17.8
		c0.2-1.2-0.1-2.4-0.9-3.3c-0.8-0.9-1.9-1.5-3.1-1.5H1688z"/>
	<path class="st5" d="M1678.6,1059.9h44.7c3.4,0,6.3-2.4,7-5.8l3.4-17.8c0.8-4.4-2.5-8.4-7-8.4h-44.7c-3.4,0-6.3,2.4-7,5.8
		l-3.4,17.8C1670.8,1055.9,1674.1,1059.9,1678.6,1059.9z"/>
	<path class="st6" d="M1723.3,1062.9h-44.7c-3,0-5.9-1.3-7.8-3.7c-1.9-2.3-2.7-5.4-2.1-8.3l3.4-17.8c0.9-4.8,5.1-8.2,9.9-8.2h44.7
		c3,0,5.9,1.3,7.8,3.7c1.9,2.3,2.7,5.4,2.1,8.3l-3.4,17.8C1732.3,1059.5,1728.2,1062.9,1723.3,1062.9z M1681.9,1031
		c-2,0-3.6,1.4-4,3.3l-3.4,17.8c-0.2,1.2,0.1,2.4,0.9,3.3c0.8,0.9,1.9,1.5,3.1,1.5h44.7c1.9,0,3.6-1.4,4-3.3l3.4-17.8
		c0.2-1.2-0.1-2.4-0.9-3.3c-0.8-0.9-1.9-1.5-3.1-1.5H1681.9z"/>
	<path class="st5" d="M1582.2,1113.6h-44.7c-3.4,0-6.3-2.4-7-5.8l-3.4-17.8c-0.8-4.4,2.5-8.4,7-8.4h44.7c3.4,0,6.3,2.4,7,5.8
		l3.4,17.8C1590,1109.5,1586.6,1113.6,1582.2,1113.6z"/>
	<path class="st6" d="M1582.2,1116.6h-44.7c-4.9,0-9-3.5-9.9-8.2l-3.4-17.8c-0.6-3,0.2-6,2.1-8.3c1.9-2.3,4.8-3.7,7.8-3.7h44.7
		c4.8,0,9,3.5,9.9,8.2l3.4,17.8c0.6,3-0.2,6-2.1,8.3C1588,1115.3,1585.2,1116.6,1582.2,1116.6z M1534.1,1084.6
		c-1.2,0-2.4,0.5-3.1,1.5c-0.8,0.9-1.1,2.2-0.9,3.3l3.4,17.8c0.4,1.9,2,3.3,4,3.3h44.7c1.2,0,2.4-0.5,3.1-1.5
		c0.8-0.9,1.1-2.2,0.9-3.3l-3.4-17.8c-0.4-1.9-2-3.3-4-3.3H1534.1z"/>
	<path class="st5" d="M1644.7,1115.6h-35.4c-3.4,0-6.3-2.4-6.9-5.8l-3.4-17.8c-0.8-4.4,2.5-8.4,6.9-8.4h42.1c4.4,0,7.8,4,6.9,8.4
		l-3.4,17.8C1651,1113.2,1648.1,1115.6,1644.7,1115.6z"/>
	<path class="st6" d="M1644.7,1118.6h-35.4c-4.8,0-9-3.5-9.9-8.2l-3.4-17.8c-0.6-3,0.2-6,2.1-8.3c1.9-2.3,4.8-3.7,7.8-3.7h42.1
		c3,0,5.8,1.3,7.8,3.7c1.9,2.3,2.7,5.4,2.1,8.3l-3.4,17.8C1653.7,1115.1,1649.5,1118.6,1644.7,1118.6z M1605.9,1086.6
		c-1.2,0-2.3,0.5-3.1,1.5c-0.8,0.9-1.1,2.1-0.9,3.3l3.4,17.8c0.4,1.9,2,3.3,4,3.3h35.4c1.9,0,3.6-1.4,4-3.3l3.4-17.8
		c0.2-1.2-0.1-2.4-0.9-3.3c-0.8-0.9-1.9-1.5-3.1-1.5H1605.9z"/>
	<path class="st5" d="M1672.5,1113.6h44.7c3.4,0,6.3-2.4,7-5.8l3.4-17.8c0.8-4.4-2.5-8.4-7-8.4h-44.7c-3.4,0-6.3,2.4-7,5.8
		l-3.4,17.8C1664.7,1109.5,1668.1,1113.6,1672.5,1113.6z"/>
	<path class="st6" d="M1717.3,1116.6h-44.7c-3,0-5.9-1.3-7.8-3.7c-1.9-2.3-2.7-5.4-2.1-8.3l3.4-17.8c0.9-4.8,5.1-8.2,9.9-8.2h44.7
		c3,0,5.9,1.3,7.8,3.7c1.9,2.3,2.7,5.4,2.1,8.3l-3.4,17.8C1726.3,1113.1,1722.1,1116.6,1717.3,1116.6z M1675.9,1084.6
		c-2,0-3.6,1.4-4,3.3l-3.4,17.8c-0.2,1.2,0.1,2.4,0.9,3.3c0.8,0.9,1.9,1.5,3.1,1.5h44.7c2,0,3.6-1.4,4-3.3l3.4-17.8
		c0.2-1.2-0.1-2.4-0.9-3.3c-0.8-0.9-1.9-1.5-3.1-1.5H1675.9z"/>
	<path class="st5" d="M1582.2,1167.2h-24.7c-10.1,0-18.7-7.2-20.6-17l-1.2-6.5c-0.8-4.4,2.5-8.4,7-8.4h36.1c3.4,0,6.3,2.4,7,5.8
		l3.4,17.8C1590,1163.2,1586.6,1167.2,1582.2,1167.2z"/>
	<path class="st6" d="M1582.2,1170.2h-24.7c-11.5,0-21.4-8.2-23.5-19.5l-1.2-6.5c-0.6-3,0.2-6,2.1-8.3c1.9-2.3,4.8-3.7,7.8-3.7h36.1
		c4.8,0,9,3.5,9.9,8.2l3.4,17.8c0.6,3-0.2,6-2.1,8.3C1588,1168.9,1585.2,1170.2,1582.2,1170.2z M1542.7,1138.3
		c-1.2,0-2.4,0.5-3.1,1.5c-0.8,0.9-1.1,2.2-0.9,3.3l1.2,6.5c1.6,8.4,9,14.6,17.6,14.6h24.7c1.2,0,2.4-0.5,3.1-1.5
		c0.8-0.9,1.1-2.2,0.9-3.3l-3.4-17.8c-0.4-1.9-2-3.3-4-3.3H1542.7z"/>
	<path class="st5" d="M1672.8,1167.2h24.7c10.1,0,18.7-7.2,20.6-17l1.2-6.5c0.8-4.4-2.5-8.4-7-8.4h-36.1c-3.4,0-6.3,2.4-7,5.8
		l-3.4,17.8C1665,1163.2,1668.4,1167.2,1672.8,1167.2z"/>
	<path class="st6" d="M1697.5,1170.2h-24.7c-3,0-5.9-1.3-7.8-3.7c-1.9-2.3-2.7-5.4-2.1-8.3l3.4-17.8c0.9-4.8,5.1-8.2,9.9-8.2h36.1
		c3,0,5.9,1.3,7.8,3.7c1.9,2.3,2.7,5.4,2.1,8.3l-1.2,6.5C1718.9,1162,1709,1170.2,1697.5,1170.2z M1676.2,1138.3c-2,0-3.6,1.4-4,3.3
		l-3.4,17.8c-0.2,1.2,0.1,2.4,0.9,3.3c0.8,0.9,1.9,1.5,3.1,1.5h24.7c8.6,0,16-6.1,17.6-14.6l1.2-6.5c0.2-1.2-0.1-2.4-0.9-3.3
		c-0.8-0.9-1.9-1.5-3.1-1.5H1676.2z"/>
	<path class="st5" d="M1644.7,1167.2h-35.4c-3.4,0-6.3-2.4-6.9-5.8l-3.4-17.8c-0.8-4.4,2.5-8.4,6.9-8.4h42.1c4.4,0,7.8,4,6.9,8.4
		l-3.4,17.8C1651,1164.8,1648.1,1167.2,1644.7,1167.2z"/>
	<path class="st6" d="M1644.7,1170.2h-35.4c-4.8,0-9-3.5-9.9-8.2l-3.4-17.8c-0.6-3,0.2-6,2.1-8.3c1.9-2.3,4.8-3.7,7.8-3.7h42.1
		c3,0,5.8,1.3,7.8,3.7c1.9,2.3,2.7,5.3,2.1,8.3l-3.4,17.8C1653.7,1166.8,1649.5,1170.2,1644.7,1170.2z M1605.9,1138.3
		c-1.2,0-2.3,0.5-3.1,1.5c-0.8,0.9-1.1,2.1-0.9,3.3l3.4,17.8c0.4,1.9,2,3.3,4,3.3h35.4c1.9,0,3.6-1.4,4-3.3l3.4-17.8
		c0.2-1.2-0.1-2.4-0.9-3.3c-0.8-0.9-1.9-1.5-3.1-1.5H1605.9z"/>
	<path class="st6" d="M1550.6,868.7h-23.3c-4.5,0-8.1-3.6-8.1-8.1V852c0-21.5,17.5-39.1,39.1-39.1h22.2c3.6,0,6.7,2.3,7.8,5.8
		c1.1,3.4-0.1,7-3,9c-12.6,8.8-21.9,21-27,35.4C1557.1,866.5,1554,868.7,1550.6,868.7z M1558.2,819c-18.2,0-33,14.8-33,33v8.5
		c0,1.2,0.9,2.1,2.1,2.1h23.3c0.9,0,1.6-0.6,2-1.5c5.5-15.6,15.6-28.9,29.2-38.4c1-0.7,0.8-1.8,0.7-2.2c-0.2-0.8-0.9-1.6-2.1-1.6
		H1558.2z"/>
	<path class="st6" d="M1726.4,868.7h-23.3c-3.4,0-6.5-2.2-7.7-5.5c-5.1-14.4-14.4-26.7-27-35.4c-2.9-2-4.1-5.6-3-9
		c1.1-3.5,4.2-5.8,7.8-5.8h22.2c21.5,0,39.1,17.5,39.1,39.1v8.5C1734.5,865,1730.9,868.7,1726.4,868.7z M1673.2,819
		c-1.2,0-1.8,0.8-2.1,1.6c-0.1,0.4-0.3,1.5,0.7,2.2c13.6,9.5,23.7,22.8,29.2,38.4c0.3,0.9,1.1,1.5,2,1.5h23.3c1.2,0,2.1-0.9,2.1-2.1
		V852c0-18.2-14.8-33-33-33H1673.2z"/>
	<path class="st6" d="M1580.7,962c-33.9,0-61.5-27.6-61.5-61.5v-0.7c0-4.5,3.6-8.1,8.1-8.1h19.7c4,0,7.4,2.9,8,7
		c3,19.4,14,37.1,30.2,48.4c3,2.1,4.3,5.7,3.2,9.2C1587.3,959.7,1584.3,962,1580.7,962z M1527.3,897.7c-1.2,0-2.1,0.9-2.1,2.1v0.7
		c0,30.6,24.9,55.4,55.4,55.4c1.4,0,1.8-1,2-1.4c0.1-0.4,0.4-1.6-0.9-2.4c-17.5-12.3-29.5-31.4-32.7-52.5c-0.2-1.1-1-1.9-2.1-1.9
		H1527.3z"/>
	<path class="st6" d="M1673,962c-3.6,0-6.6-2.2-7.7-5.6c-1.1-3.5,0.1-7.1,3.2-9.2c16.2-11.3,27.2-29,30.3-48.4c0.6-4.1,4-7,8-7h19.6
		c4.5,0,8.1,3.6,8.1,8.1v0.7C1734.5,934.4,1706.9,962,1673,962z M1706.8,897.7c-1,0-1.9,0.8-2.1,1.9c-3.3,21.1-15.3,40.2-32.8,52.4
		c-1.2,0.9-1,2.1-0.9,2.4c0.1,0.4,0.6,1.4,2,1.4c30.6,0,55.4-24.9,55.4-55.4v-0.7c0-1.2-0.9-2.1-2.1-2.1H1706.8z"/>
	<rect x="1619" y="841.7" class="st3" width="15.6" height="6"/>
	<rect x="1619" y="927.2" class="st3" width="15.6" height="6"/>
	<rect x="1666.6" y="879.7" class="st3" width="6" height="15.6"/>
	<rect x="1581" y="879.7" class="st3" width="6" height="15.6"/>
	<g id="Screen_2_">
		<path class="st10" d="M1701.9,618.6h-150c-5.6,0-10.9-1.7-15.2-4.6c-7.3-4.9-12.2-13.3-12.2-22.8V403.8c0-8.9,4.2-16.7,10.7-21.7
			c4.6-3.5,10.4-5.6,16.7-5.6h150c8.3,0,15.7,3.7,20.7,9.5c4.2,4.8,6.7,11.1,6.7,17.9v187.4c0,8.4-3.8,15.9-9.7,20.9
			C1714.8,616.1,1708.6,618.6,1701.9,618.6z"/>
		<path class="st11" d="M1697.5,609.5h-141.3c-4.1,0-7.9-1.5-10.8-4.1c-3.5-3-5.7-7.5-5.7-12.4V415.7c0-4.8,2-9.1,5.3-12.1
			c2.9-2.7,6.9-4.4,11.2-4.4h141.3c4.2,0,8,1.6,10.9,4.1c3.4,3,5.5,7.4,5.5,12.3V593c0,4.7-2,8.9-5.1,11.9
			C1705.9,607.7,1701.9,609.5,1697.5,609.5z"/>
		<g>
			<circle class="st12" cx="1626.8" cy="497.5" r="52.9"/>
			<path class="st10" d="M1626.8,526.7c-12.9,0-23.3-10.5-23.3-23.3h6c0,9.5,7.7,17.3,17.3,17.3c9.5,0,17.3-7.7,17.3-17.3h6
				C1650.2,516.2,1639.7,526.7,1626.8,526.7z"/>
			<ellipse class="st10" cx="1642.7" cy="482.3" rx="4.8" ry="9.7"/>
			<ellipse class="st10" cx="1611" cy="482.3" rx="4.8" ry="9.7"/>
		</g>
	</g>
	
		<rect x="1598.4" y="309.2" transform="matrix(0.7071 -0.7071 0.7071 0.7071 253.4271 1236.2872)" class="st3" width="41.3" height="6"/>
</g>
<g id="Phone_2">
	<path class="st13" d="M1536.8,1705c0,0.1,0,0.2-0.1,0.4c-0.1,1.4-0.2,2.8-0.5,4.3c-0.1,0.4-0.2,0.7-0.2,1.1
		c-1.5,8.2-5.2,15.8-10.9,22.7c-9.9,12.2-25.9,22.1-46.6,29.5v-38.2c0,0,55-41.6,58.2-22.5c0,0.1,0,0.1,0,0.1
		C1536.8,1703.2,1536.8,1704.2,1536.8,1705z"/>
	<path class="st13" d="M1120.7,1337.2c-35.3,3.8-39.1,29.5-40.6,42.3c-1.5,12.8-5,27.8,16.2,64.4
		C1117.4,1480.7,1120.7,1337.2,1120.7,1337.2z"/>
	<path class="st8" d="M1144.9,832.7l-15.5,6.2c-10.7,4.2-19.6,11.3-26.2,20.1c-7.5,10.1-11.8,22.6-11.8,35.8v315.9
		c0,11.3,4.6,21.6,12,29.1c7.4,7.4,17.7,12,29.1,12H1301c10.9,0,20.7-4.2,28.1-11.1c8-7.5,13-18.2,13-30V894.7
		c0-12.1-3.6-23.6-10.1-33.3c-6.6-10-16.3-18-27.9-22.6l-15.5-6.2C1242.5,814.4,1191,814.4,1144.9,832.7z"/>
	<path class="st6" d="M1216.7,1202c-25.1,0-50.2-1.4-74.1-4.1c-14.1-1.6-24.7-12.4-25.3-25.8c-3.5-72.2-3.5-142.4,0-214.6
		c0.2-4,1.3-7.7,3.2-11.2c4.2-8.1,12.5-13.6,22.1-14.6c47.8-5.4,100.4-5.4,148.2,0c14.1,1.6,24.7,12.4,25.3,25.8
		c3.5,72.2,3.5,142.4,0,214.6c-0.4,9.2-5.9,17.7-14.4,22.4c-3.5,1.8-7.1,3-10.9,3.4C1267,1200.7,1241.9,1202,1216.7,1202z
		 M1216.8,933.7c-24.9,0-49.8,1.3-73.4,4c-7.5,0.8-14.2,5.2-17.5,11.5c-1.5,2.7-2.3,5.6-2.5,8.6c-3.5,72-3.5,142,0,214
		c0.5,10.3,9.1,18.9,20,20.1c47.4,5.4,99.5,5.4,146.9,0c3.1-0.4,6-1.3,8.8-2.7c6.6-3.6,10.9-10.3,11.2-17.3v0c3.5-72,3.5-142,0-214
		c-0.5-10.3-9.1-18.9-20-20.1C1266.5,935,1241.6,933.7,1216.8,933.7z"/>
	<path class="st14" d="M1291,1231.5h-148.6c-21.6,0-39.2-18.3-39.2-40.9V899.5c0-24.1,13.9-45.4,35.3-54.3l13.7-5.7
		c41.6-17.2,87.4-17.2,129.1,0l13.7,5.7c21.5,8.9,35.3,30.2,35.3,54.3v291.1C1330.3,1213.2,1312.7,1231.5,1291,1231.5z
		 M1216.8,832.7c-21.1,0-42.2,4.2-62.2,12.5l-13.7,5.7c-19.2,8-31.6,27.1-31.6,48.7v291.1c0,19.2,14.9,34.8,33.2,34.8H1291
		c18.3,0,33.2-15.6,33.2-34.8V899.5c0-21.6-12.4-40.7-31.6-48.7l-13.7-5.7C1258.9,836.9,1237.8,832.7,1216.8,832.7z"/>
	<rect x="1187.3" y="896" class="st15" width="58.9" height="6"/>
	<rect x="1187.3" y="870.3" class="st15" width="58.9" height="6"/>
	<rect x="1129.2" y="1251.8" class="st8" width="175" height="31.1"/>
	<circle class="st10" cx="1153.4" cy="1253.7" r="8.1"/>
	<circle class="st10" cx="1278.6" cy="1253.7" r="8.1"/>
	<g id="Screen_1_">
		<path class="st16" d="M1313.2,1172c-0.4,8.4-5.4,15.8-12.8,19.9c-3,1.6-6.3,2.7-9.8,3.1c-47.9,5.4-99.7,5.4-147.5,0
			c-12.5-1.4-22.1-11.2-22.7-23c-3.5-71.8-3.5-142.5,0-214.3c0.2-3.5,1.1-6.8,2.8-9.8c3.7-7,11.1-12.1,19.8-13.1
			c47.9-5.4,99.7-5.4,147.5,0c12.5,1.4,22.1,11.2,22.7,23C1316.7,1029.5,1316.7,1100.2,1313.2,1172z"/>
		<path class="st11" d="M1303.2,1182c-0.2,3.5-1.1,6.9-2.8,9.8c-3,1.6-6.3,2.7-9.8,3.1c-47.9,5.4-99.7,5.4-147.5,0
			c-12.5-1.4-22.1-11.2-22.7-23c-3.5-71.8-3.5-142.5,0-214.3c0.2-3.5,1.1-6.8,2.8-9.8c2.9-1.6,6.2-2.7,9.7-3.1
			c47.9-5.4,99.8-5.4,147.6,0c12.5,1.4,22.1,11.2,22.7,23C1306.7,1039.5,1306.7,1110.2,1303.2,1182z"/>
		<g>
			<path class="st17" d="M1216.6,1049.1c-8.5-14-25.5-10.2-25.1,5.9c0.4,16,25.1,32.3,25.1,32.3s25.3-14.5,25.3-33.2
				C1242,1037.7,1222.2,1035.8,1216.6,1049.1z"/>
			<path class="st17" d="M1216.6,1111.8c-8.5-14-25.5-10.2-25.1,5.9c0.4,16,25.1,32.3,25.1,32.3s25.3-14.5,25.3-33.2
				C1242,1100.4,1222.2,1098.5,1216.6,1111.8z"/>
			<path class="st17" d="M1216.6,986.5c-8.5-14-25.5-10.2-25.1,5.9c0.4,16,25.1,32.3,25.1,32.3s25.3-14.5,25.3-33.2
				C1242,975,1222.2,973.1,1216.6,986.5z"/>
		</g>
	</g>
	<path class="st13" d="M1501.3,1709.4l-178-308.3c-11.3-19.6-39-35.5-61.8-35.5h-164.4c0.9,8.4,0,16.4-2.3,24.8
		c-1.6,5.7-3.6,11.1-5,16.6c3.6,3.2,5.8,8,4.2,14.1c-1.2,4.5,3.2,18.4,2.2,22.8l153.2,265.4c12.3,21.3,38.5,40.4,66,48.3l18.7,5.3
		c55.5,15.8,107.2,15.8,144.4,0l12.5-5.3C1509.5,1749.8,1513.6,1730.7,1501.3,1709.4z"/>
	<path class="st18" d="M1536.8,1705c0,0.1,0,0.2-0.1,0.4c-0.1,1.4-0.2,2.8-0.5,4.3c-0.1,0.4-0.2,0.7-0.2,1.1
		c-1.5,8.2-5.2,15.8-10.9,22.7c-9.4,7.7-21.8,14.3-36.4,19.5c-3.3,1.4-6.6,2.7-10.2,3.7c-36.3,12-83.7,10.7-134.3-3.7l-18.6-5.3
		c-27.6-7.9-53.7-27-66-48.3L1106.4,1434c-21.2-36.7-17.6-51.6-16.1-64.5c1.5-12.8,5.3-38.5,40.6-42.4c0,0-0.1,3.8-0.3,10
		c-0.2,4.9-0.5,11.2-0.9,18.4h142.1c22.8,0,50.4,15.9,61.7,35.5l177.9,308.2c7.4-4.5,15.4-8.8,21.9-10.8c2.1,4.8,3.1,9.4,3.4,13.7
		c0,0.1,0,0.1,0,0.1C1536.8,1703.2,1536.8,1704.2,1536.8,1705z"/>
	<path class="st19" d="M1536.8,1705c0,0.1,0,0.2-0.1,0.4c-0.1,1.4-0.2,2.8-0.5,4.3c-0.1,0.4-0.2,0.7-0.2,1.1
		c-1.9,8.2-7.6,14.7-16.6,18.5l-12.5,5.3c-8.7,3.7-18.2,6.5-28.4,8.5c-33.3,6.5-73.5,3.6-116-8.5l-18.7-5.3
		c-27.6-7.9-53.7-26.9-66-48.3l-178-308.3c-0.3-0.4-0.5-0.8-0.7-1.3c3.4-9.1,7.4-18.4,13.5-25.9c2-2.4,3.3-5.3,3.8-8.2
		c1.3-0.1,2.7-0.2,4.2-0.2H1290c22.8,0,50.4,15.9,61.7,35.5l178,308.3c1.5,2.5,2.7,5,3.6,7.5c2.1,4.8,3.1,9.4,3.4,13.7
		c0,0.1,0,0.1,0,0.1C1536.8,1703.2,1536.8,1704.2,1536.8,1705z"/>
	<rect x="1132.5" y="1339.8" class="st10" width="167.9" height="6"/>
	<path class="st10" d="M1476.7,1682.9h-143.4c-19.9,0-45.3-16.1-56.8-36l-119.2-206.4c-11.5-19.9-4.7-36,15.2-36h143.4
		c19.9,0,45.3,16.1,56.8,36l119.2,206.4C1503.4,1666.8,1496.5,1682.9,1476.7,1682.9z"/>
	
		<rect x="1302.4" y="1434.7" transform="matrix(0.845 -0.5348 0.5348 0.845 -638.4848 941.9803)" class="st19" width="6" height="275"/>
	
		<rect x="1375.6" y="1441.2" transform="matrix(0.8866 -0.4625 0.4625 0.8866 -570.8834 815.9657)" class="st19" width="6" height="262.1"/>
	<path class="st19" d="M1294,1520.4c-51.3,0-99.9-2.5-103.9-9.5l5.2-3c-0.1-0.2-0.3-0.4-0.3-0.4c11,8.5,208.1,9.2,219.6,0.8
		c-0.4,0.3-1,1.5-0.4,2.6l5.2-3c0.7,1.2,0.7,2.6,0.1,3.8c-0.4,0.8-1.1,1.4-2,1.9C1411.2,1517.3,1350.9,1520.4,1294,1520.4z"/>
	<path class="st19" d="M1334.3,1563.5c-34.4,0-114.4-0.9-119.3-9.4l5.2-3c-0.1-0.3-0.3-0.4-0.3-0.4c11,8.5,208,9.2,219.6,0.8
		c-0.5,0.4-0.9,1.6-0.4,2.6l5.2-3c0.7,1.2,0.7,2.6,0,3.8c-4.1,7.1-62.1,8.6-110,8.6C1334.4,1563.5,1334.4,1563.5,1334.3,1563.5z"/>
	<path class="st19" d="M1343.8,1606.7c-51.3,0-99.9-2.5-103.9-9.5l5.2-3c-0.1-0.3-0.3-0.4-0.3-0.4c11,8.5,208.1,9.2,219.6,0.8
		c-0.4,0.3-1,1.5-0.4,2.6l5.2-3c0.7,1.2,0.7,2.6,0.1,3.7c-0.4,0.8-1.1,1.4-2,1.9C1461,1603.6,1400.7,1606.7,1343.8,1606.7z"/>
	<path class="st19" d="M1368.7,1649.8c-51.3,0-99.9-2.5-103.9-9.5l5.2-3c-0.1-0.3-0.3-0.4-0.3-0.4c11,8.5,208.1,9.2,219.6,0.8
		c-0.4,0.3-1,1.5-0.4,2.6l5.2-3c0.7,1.2,0.7,2.6,0.1,3.7c-0.4,0.8-1.1,1.4-2,1.9C1485.9,1646.7,1425.6,1649.8,1368.7,1649.8z"/>
	<rect x="1159.3" y="1448.5" class="st19" width="51.2" height="6"/>
	<rect x="1329.5" y="1448.5" class="st19" width="57.5" height="6"/>
	<path class="st10" d="M1332.1,1455.3c-45.4,2.6-68.8,2.6-117.1,0c-19.5-26.1-27-39.2-37.7-65.3c45.4-2.6,68.8-2.6,117.1,0
		C1313.9,1416.2,1321.4,1429.2,1332.1,1455.3z"/>
	<path class="st6" d="M1274.6,1460.3c-17.6,0-35.5-0.6-59.8-2l-1.4-0.1l-0.8-1.1c-19.5-26.2-27.3-39.7-38.1-65.9l-1.6-3.9l4.2-0.2
		c45.7-2.6,68.8-2.6,117.5,0l1.4,0.1l0.8,1.1c19.5,26.2,27.3,39.7,38.1,65.9l1.6,3.9l-4.2,0.2
		C1309.4,1459.6,1292.2,1460.3,1274.6,1460.3z M1216.5,1452.4c46,2.4,68.9,2.5,111.1,0.2c-9.6-23-17.1-35.6-34.8-59.5
		c-46-2.4-68.9-2.5-111.1-0.2C1191.3,1415.8,1198.8,1428.5,1216.5,1452.4z"/>
	<path class="st6" d="M1282.4,1434.4c-16.3,0.9-24.7,0.9-42,0c-7-9.4-9.7-14-13.5-23.4c16.3-0.9,24.7-0.9,42,0
		C1275.9,1420.4,1278.6,1425,1282.4,1434.4z"/>
	<polygon class="st11" points="1281.7,1413.2 1292.6,1432.2 1298.9,1421.5 	"/>
	<polygon class="st11" points="1227.6,1432.2 1216.7,1413.2 1210.5,1423.9 	"/>
	<polygon class="st11" points="1276.2,1440.9 1254.2,1440.9 1272.7,1451.5 	"/>
	<polygon class="st11" points="1233.2,1404.5 1255.2,1404.5 1236.7,1393.9 	"/>
	<polygon class="st18" points="1323.3,1383.5 1300.4,1342.8 1300.4,1282.9 1324.6,1327.9 	"/>
	<path class="st19" d="M1300.4,1282.9h-167.3c-7.3,0-7.3,59.9,0,59.9h167.3C1305.7,1342.8,1305.7,1282.9,1300.4,1282.9z"/>
	<path class="st8" d="M1298.2,1272.3l13.4,5.6c7.5,3.1,13.6,9.5,16.3,17l30,88.7h-34.7L1298.2,1272.3z"/>
	<path class="st20" d="M1304.3,1306.1c-0.3-12.4-1.6-23.2-3.9-23.2h-167.3c-3.1,0-4.9,10.8-5.3,23.2H1304.3z"/>
	<path class="st18" d="M1119.5,1277.9c-21,10.5-25.9,22.8-27.3,30.4l-10.9,63c2.6,2.7,4.5,2.6,4.7,6.4c0,0.4,0,0.6,0.1,0.8
		c0.1,0.3,0.1,0.6,0.2,0.8c0.2,1.1,0.5,2.2,0.9,3.3c0.3,1.1,0.8,2.2,1.1,3.3c0.1,0.2,0.1,0.3,0.2,0.4c0.2,0.4,0.4,0.8,0.6,1.2
		c1.5,3.1,2,6.4,1.6,9.4l15.6-13.3l11.8-97.9L1119.5,1277.9z"/>
	<path class="st8" d="M1130.9,1272.3l-11.5,5.6c-6.4,3.1-10.3,9.5-10.3,17l-3,88.7h38.9L1130.9,1272.3z"/>
	<path class="st6" d="M1216.7,1202c-25.1,0-50.2-1.4-74.1-4.1c-14.1-1.6-24.7-12.4-25.3-25.8c-3.5-72.2-3.5-142.4,0-214.6
		c0.2-4,1.3-7.7,3.2-11.2c4.2-8.1,12.5-13.6,22.1-14.6c47.8-5.4,100.4-5.4,148.2,0c14.1,1.6,24.7,12.4,25.3,25.8
		c3.5,72.2,3.5,142.4,0,214.6c-0.4,9.2-5.9,17.7-14.4,22.4c-3.5,1.8-7.1,3-10.9,3.4C1267,1200.7,1241.9,1202,1216.7,1202z
		 M1216.8,933.7c-24.9,0-49.8,1.3-73.4,4c-7.5,0.8-14.2,5.2-17.5,11.5c-1.5,2.7-2.3,5.6-2.5,8.6c-3.5,72-3.5,142,0,214
		c0.5,10.3,9.1,18.9,20,20.1c47.4,5.4,99.5,5.4,146.9,0c3.1-0.4,6-1.3,8.8-2.7c6.6-3.6,10.9-10.3,11.2-17.3v0c3.5-72,3.5-142,0-214
		c-0.5-10.3-9.1-18.9-20-20.1C1266.5,935,1241.6,933.7,1216.8,933.7z"/>
</g>
<g id="Objects">
	<polygon class="st21" points="1308.9,548.4 1297.8,514.2 1258.4,532.7 1241.8,490.5 1206.3,506.1 1201.4,495 1248.4,474.4 
		1264.9,516.3 1305.1,497.5 1320.4,544.7 	"/>
	<polygon class="st21" points="1290.3,593.3 1279.2,559.1 1239.7,577.6 1223.1,535.3 1187.7,550.9 1182.8,539.8 1229.8,519.2 
		1246.3,561.2 1286.5,542.3 1301.7,589.5 	"/>
	<polygon class="st22" points="1609.9,1447.9 1598.2,1444.6 1612,1395.4 1653,1410.9 1665.6,1367.9 1708.4,1382.2 1719.8,1339.3 
		1765.8,1358 1761.2,1369.2 1727.9,1355.7 1716.7,1397.8 1673.7,1383.4 1661,1426.8 1620.1,1411.4 	"/>
	<polygon class="st23" points="535,682.2 443.9,717.5 520.1,778.8 	"/>
	<polygon class="st23" points="1797,1035.7 1823.6,1104.3 1869.7,1047 	"/>
	<polygon class="st22" points="946.9,256.3 963.4,299 992,263.3 	"/>
	<circle class="st24" cx="1324.6" cy="640.9" r="22.7"/>
	
		<rect x="845.6" y="1388.1" transform="matrix(0.7071 -0.7071 0.7071 0.7071 -748.2123 1039.0532)" class="st25" width="69.1" height="69.1"/>
	<rect x="1903.4" y="735.5" class="st16" width="36.6" height="36.6"/>
	<polygon class="st25" points="2014.9,855.3 1966.8,855.3 1966.8,817.6 1930.9,817.6 1930.9,805.5 1978.8,805.5 1978.8,843.3 
		2014.9,843.3 	"/>
	<polygon class="st16" points="603.4,825 555.2,825 555.2,775.1 567.3,775.1 567.3,812.9 603.4,812.9 	"/>
	<rect x="955.4" y="507" class="st16" width="12.1" height="57.6"/>
	<rect x="863.6" y="1275.8" class="st25" width="61.5" height="12.1"/>
</g>
<g id="Phone_1">
	<path class="st26" d="M533.4,1415.6c-10-4.3-18.6-10.9-25.9-18.9c-4.8-5.3-9.1-11.3-12.6-17.7c-10.9-19.7-15.5-43.3-12.9-63.9
		c0,0,45.4,59.2,57.9,87.4c1,2.5,1.9,4.7,2.4,6.6C544.4,1416.4,542.3,1419.5,533.4,1415.6z"/>
	<path class="st27" d="M905.8,1037.2h-35.9L954.3,891c2.8-4.8,7.9-7.8,13.5-7.8l0,0c12,0,19.5,13,13.5,23.3L905.8,1037.2z"/>
	<path class="st6" d="M854,1138.4h-47.8l114-197.5c2.6-4.6,7.5-7.4,12.8-7.4h13.6c11.4,0,18.5,12.3,12.8,22.2L854,1138.4z"/>
	<path class="st28" d="M914.7,565.7v313.9c0,13-10.5,23.4-23.4,23.4H684.3c-12.9,0-30.2-12.9-30.2-25.8l6.8-311.5
		c0-3.1,0.1-6.3,0.4-9.4c0.5-8.3,1.9-16.4,4-24.2c14.7-53.8,63.9-93.3,122.4-93.3c35,0,66.8,14.2,89.7,37.2
		c15.3,15.3,26.8,34.6,32.7,56.2c2.1,7.8,3.5,15.8,4,24.2C914.6,559.4,914.7,562.6,914.7,565.7z"/>
	<rect x="704.8" y="903" class="st28" width="166.2" height="75.3"/>
	<path class="st26" d="M906.7,1100.6l-112.4,190.6c-21.8,37-56.9,70.4-95.9,94.7c-39,24.2-82,39.2-119.8,39.2
		c-29.5,0-51.4-9.1-64.4-24.7c-1.7-1.9-3.2-3.9-4.5-6c-1.1-1.8-2.2-3.6-3.1-5.5c-12.3-24.4-8.5-59.1,14.2-97.8l154.9-262.8
		c8-13.7,25.9-24.7,39.8-24.7l191.3-5.2l15.6-0.4l1.1,6c0.4,3,0.8,6,1.1,9.1c0.1,1.1,0.2,2.1,0.2,3.2c0.1,0.7,0.1,1.3,0.2,1.9
		c0.1,1.9,0.2,3.7,0.3,5.6C926.5,1050.7,920.5,1077.3,906.7,1100.6z"/>
	<path class="st29" d="M687.6,970.6h212.9c13.3,0,17.9,10.8,10.2,24.1l-147.8,256c-41.6,72.1-133.8,130.5-205.9,130.5h0
		c-72.1,0-96.8-58.4-55.2-130.5l147.8-256C657.3,981.4,674.3,970.6,687.6,970.6z"/>
	<polygon class="st6" points="697.4,994.4 725.8,966 686.8,946.4 	"/>
	<path class="st26" d="M916.1,989l-3.7-46.8c-2.1-9.8-6-24.3-25.5-24.3l-13.4,9.9v56.5C887.8,984.9,901.9,986.9,916.1,989z"/>
	<path class="st29" d="M907.4,558.4v313.9c0,13-10.5,23.4-23.4,23.4H677c-12.9,0-23.4-10.5-23.4-23.4V558.4c0-3.1,0.1-6.3,0.4-9.4
		c0.5-8.3,1.9-16.4,4-24.2c14.7-53.8,63.9-93.3,122.4-93.3c35,0,66.8,14.2,89.7,37.2c15.3,15.3,26.8,34.6,32.7,56.2
		c2.1,7.8,3.5,15.8,4,24.2C907.2,552.1,907.4,555.2,907.4,558.4z"/>
	<path class="st6" d="M875.6,859.4H685.3c-5.6,0-11-1.9-15.4-5.4c-5.8-4.7-9.2-11.7-9.2-19.2V566.8c0-6,0.4-12.1,1.3-18.2
		c1.2-8.4,3.1-16.7,5.7-24.7c5.9-18.3,15.4-34.8,26.7-46.5c22.8-23.5,53.3-36.4,86-36.4c13.9,0,27.5,2.4,40.5,7
		c12.6,4.6,24.2,11.1,34.5,19.4c16.4,13.2,29.7,33.2,37.5,56.4c2.8,8.4,4.7,16.8,5.8,24.7c0.9,5.8,1.4,12,1.4,18.2l0,266.8
		c0,5.9-1.6,11.9-5.2,16.5C890.2,856.1,883.2,859.4,875.6,859.4z M780.5,447.1c-31,0-60,12.3-81.6,34.5
		c-10.7,11-19.6,26.7-25.3,44.1c-2.5,7.7-4.4,15.7-5.5,23.7c-0.8,5.8-1.2,11.6-1.2,17.3v268.1c0,5.7,2.5,10.9,6.9,14.4
		c3.3,2.6,7.4,4,11.6,4h190.3c6.9,0,13.1-3.7,16.5-10.1c1.5-2.8,2-6,2-9.2l0-267.4c0-5.9-0.4-11.7-1.3-17.3
		c-1-7.7-2.9-15.6-5.6-23.7c-7.4-22.1-20.1-41.1-35.6-53.6c-9.8-7.9-20.8-14.1-32.8-18.4C806.6,449.3,793.6,447.1,780.5,447.1z"/>
	<path class="st6" d="M596.1,1316.4c-26.9,0-61.5-4-73.2-22.9c-10.1-16.3-6.1-39.5,12-71l20.4-35.3c6.1-10.6,20.7-19,33-19H768
		c6.6,0,11.6,2.4,14.1,6.7c2.5,4.3,2,9.7-1.2,15.3l-20.4,35.3c-18.9,32.8-44.6,57.6-76.4,73.8
		C661.5,1310.8,632.8,1316.4,596.1,1316.4z M588.4,1174.2c-10.1,0-22.8,7.3-27.8,16l-20.4,35.3c-16.9,29.4-20.9,50.5-12.1,64.8
		c8,12.9,32.2,20,68.1,20c35.7,0,63.6-5.4,85.3-16.4c30.7-15.6,55.5-39.6,73.9-71.4l20.4-35.3c2.1-3.7,2.5-7,1.2-9.3
		c-1.3-2.3-4.6-3.7-8.8-3.7H588.4z"/>
	<path class="st6" d="M780.5,531.4c-19.2,0-34.7-15.6-34.7-34.7s15.6-34.7,34.7-34.7s34.7,15.6,34.7,34.7S799.6,531.4,780.5,531.4z
		 M780.5,468c-15.8,0-28.7,12.9-28.7,28.7c0,15.8,12.9,28.7,28.7,28.7s28.7-12.9,28.7-28.7C809.2,480.9,796.3,468,780.5,468z"/>
	<circle class="st6" cx="780.5" cy="496.7" r="19.4"/>
	<path class="st26" d="M761.6,1144H626.2c-21.6,0-29.3-16-16.7-34.5l36-52.6c11.1-16.3,34.2-28.7,53.1-28.7h124.1
		c19,0,27.7,12.4,20,28.7l-24.7,52.6C809.4,1128.1,783.2,1144,761.6,1144z"/>
	<path class="st6" d="M761.6,1147.1H626.2c-11.3,0-19.7-4.1-23.6-11.4c-4-7.6-2.4-17.7,4.5-27.8l36-52.6c11.7-17.1,35.6-30,55.6-30
		h124.1c10.6,0,18.7,3.6,22.9,10.2c3.9,6.2,3.9,14.3-0.2,22.8l-24.7,52.6C811.6,1130.5,784.4,1147.1,761.6,1147.1z M698.7,1031.2
		c-17.9,0-40.1,12-50.7,27.4l-36,52.6c-5.6,8.1-7.1,16-4.1,21.5c2.8,5.3,9.3,8.2,18.3,8.2h135.4c20.4,0,45.6-15.3,53.8-32.8
		l24.7-52.6c3.1-6.6,3.3-12.6,0.5-17c-3-4.8-9.4-7.4-17.8-7.4H698.7z"/>
	<path class="st26" d="M653.6,994.4l4.9-62.1c0.6-8.2,7.4-14.4,15.6-14.4h23.3v76.5H653.6z"/>
	<path class="st28" d="M907.4,994.4l-4.9-62.1c-0.6-8.2-7.4-14.4-15.6-14.4h-23.3v76.5H907.4z"/>
	<rect x="697.4" y="895.7" class="st29" width="166.2" height="75.3"/>
	<rect x="697.4" y="921.9" class="st26" width="166.2" height="49.1"/>
	<circle class="st6" cx="675.5" cy="871.5" r="10.1"/>
	<circle class="st6" cx="885.5" cy="871.5" r="10.1"/>
	<path class="st6" d="M685.7,536.9L685.7,536.9c0,6.7-5.4,12.1-12.1,12.1h-8.6c1.1-8.2,3-16.3,5.6-24.2h3
		C680.4,524.8,685.7,530.3,685.7,536.9z"/>
	<path class="st6" d="M895.8,549h-8.5c-6.7,0-12.1-5.4-12.1-12v-0.1c0-6.6,5.4-12.1,12.1-12.1h2.8
		C892.7,532.7,894.7,540.8,895.8,549z"/>
	<rect x="549.1" y="1201" class="st6" width="220.3" height="6"/>
	<rect x="528.5" y="1236.6" class="st6" width="220.3" height="6"/>
	<rect x="520.5" y="1272.2" class="st6" width="194.7" height="6"/>
	<rect x="626.8" y="1081.3" class="st6" width="202.7" height="6"/>
	
		<rect x="751.5" y="1030.5" transform="matrix(0.4999 -0.8661 0.8661 0.4999 -516.2455 1173.0464)" class="st6" width="12.3" height="6"/>
	
		<rect x="662.8" y="1132.2" transform="matrix(0.7071 -0.7071 0.7071 0.7071 -604.925 809.9722)" class="st6" width="25" height="6"/>
	
		<rect x="719.6" y="1132.2" transform="matrix(0.1524 -0.9883 0.9883 0.1524 -504.4334 1682.2405)" class="st6" width="17.9" height="6"/>
	
		<rect x="520.7" y="1238.5" transform="matrix(0.4999 -0.8661 0.8661 0.4999 -774.2615 1142.1082)" class="st6" width="162.4" height="6"/>
	
		<rect x="598.4" y="1238.5" transform="matrix(0.4999 -0.8661 0.8661 0.4999 -735.4114 1209.3911)" class="st6" width="162.4" height="6"/>
	<path class="st26" d="M781.2,1084.3c-14.5,25.1-49.9,45.4-79.1,45.4c-29.2,0-41.1-20.3-26.6-45.4c14.5-25.1,49.9-45.4,79.1-45.4
		C783.7,1038.9,795.7,1059.2,781.2,1084.3z"/>
	<path class="st6" d="M702.1,1132.8c-15.3,0-26.8-5.3-32.4-14.9c-5.5-9.5-4.4-22,3.1-35c14.9-25.9,51.6-46.9,81.7-46.9
		c15.3,0,26.8,5.3,32.4,14.9c5.5,9.5,4.4,22-3.1,35C768.9,1111.7,732.2,1132.8,702.1,1132.8z M754.6,1041.9
		c-28.2,0-62.5,19.7-76.4,43.9c-6.4,11.1-7.5,21.4-3.1,29c4.4,7.7,14.1,11.9,27.1,11.9c28.2,0,62.5-19.7,76.4-43.9l0,0
		c6.4-11.1,7.5-21.4,3.1-29C777.3,1046.2,767.6,1041.9,754.6,1041.9z"/>
	<path class="st16" d="M757.9,1084.3c-8.1,14-27.9,25.4-44.2,25.4s-23-11.4-14.9-25.4s27.9-25.4,44.2-25.4
		C759.3,1058.9,766,1070.3,757.9,1084.3z"/>
	<rect x="694.4" y="917.8" class="st6" width="6" height="53.1"/>
	<rect x="860.5" y="917.8" class="st6" width="6" height="53.1"/>
	<rect x="703.2" y="926.5" class="st3" width="156.3" height="6"/>
	
		<rect x="694.4" y="1078.9" transform="matrix(0.8672 -0.498 0.498 0.8672 -442.4241 505.1047)" class="st3" width="62.5" height="6"/>
	<g id="Screen">
		<path class="st30" d="M860.5,806.7H700.4c-3.3,0-6.4-1.2-8.7-3.2c-3-2.5-4.9-6.2-4.9-10.4V583.5c0-4.4,2.1-8.3,5.3-10.8
			c2.3-1.8,5.2-2.8,8.3-2.8h160.1c3.8,0,7.2,1.5,9.6,4s4,5.9,4,9.6v209.6c0,3.8-1.5,7.2-4,9.6C867.7,805.2,864.3,806.7,860.5,806.7z
			"/>
		<g>
			<path class="st16" d="M865.5,569.9H693.9c-0.6,0.6-1.2,1.3-1.8,1.9c-1.8,2.2-3.5,4.4-5.3,6.6v18.7h187.3v-20.4
				C871.4,574.3,868.4,572.1,865.5,569.9z"/>
			<path class="st16" d="M686.8,779.5h187.3v13.6c0,3.8-1.5,7.2-4,9.6c-2.5,2.5-5.9,4-9.6,4H700.4c-3.3,0-6.4-1.2-8.7-3.2
				c-3-2.5-4.9-6.2-4.9-10.4V779.5z"/>
			<rect x="686.8" y="647.2" class="st6" width="187.3" height="6"/>
			<rect x="686.8" y="682" class="st6" width="187.3" height="6"/>
			<rect x="686.8" y="716.7" class="st6" width="187.3" height="6"/>
			<rect x="686.8" y="751.5" class="st6" width="187.3" height="6"/>
			<rect x="703.2" y="607.1" class="st11" width="101.2" height="21.1"/>
			<rect x="814.1" y="658.8" class="st15" width="5.9" height="5.9"/>
			<rect x="814.1" y="675.2" class="st15" width="5.9" height="5.9"/>
			<rect x="745" y="688.3" class="st15" width="5.9" height="5.9"/>
			<rect x="739.1" y="694.2" class="st15" width="5.9" height="5.9"/>
			<rect x="733.2" y="700.2" class="st15" width="5.9" height="5.9"/>
			<rect x="727.2" y="706.1" class="st15" width="5.9" height="5.9"/>
			<rect x="721.3" y="712.1" class="st15" width="5.9" height="5.9"/>
		</g>
	</g>
	<path class="st26" d="M925,1016.4c0.1,3.1-0.1,6.3-0.6,9.4c-1,6.9-3.4,13.6-6.9,19.8l-22.2,38.4l1.4-10.5l2.1-15.6l8-59.3l0.5-4.2
		l-1.8-22.2l6.8-30l10.1,55.9l1.1,6l0.5,3.1c0.4,1.9,0.6,3.8,0.7,5.7C925,1014.2,925.1,1015.3,925,1016.4z"/>
	<path class="st15" d="M700.4,572.9c-2.2,0-4.3,0.7-6.1,1.9c-2.7,1.9-4.5,5.1-4.5,8.7v209.6c0,5.8,4.7,10.6,10.6,10.6h160.1
		c5.8,0,10.6-4.7,10.6-10.6V583.5c0-3.6-1.8-6.7-4.5-8.7c-1.7-1.2-3.8-1.9-6.1-1.9H700.4z M860.5,809.7H700.4
		c-9.2,0-16.6-7.5-16.6-16.6V583.5c0-9.2,7.5-16.6,16.6-16.6h160.1c9.2,0,16.6,7.5,16.6,16.6v209.6
		C877.2,802.3,869.7,809.7,860.5,809.7z"/>
	<path class="st29" d="M925.5,1023.9l-1.1,1.9l-27.7,47.6l-117.2,201.9c-21.3,36.3-55.7,70.3-96.9,95.8
		c-41.3,25.6-84.4,39.6-121.5,39.6c-5,0-11.5-0.3-18.7-1.5c-8.9-1.4-18.9-3.9-28.2-8.8c-2.2-1.1-4.5-2.4-6.6-3.7
		c-4.8-5.3-9.1-11.3-12.6-17.7c1.3,1.1,3,2.7,5.3,4.7c1.9,1.9,4,3.6,6.3,5.2c8.9,6.4,20.5,11.2,33.4,13.7c6.8,1.3,13.9,2.1,21.1,2.1
		c35.9,0,78-13.8,118.3-38.7c40.4-25.1,74-58.4,94.9-93.7l124.5-214.4l25.9-44.6l0.1-0.2c0.1,1.1,0.2,2.2,0.1,3.4
		c0.1,0.7,0.1,1.3,0.2,1.9C925.3,1020.2,925.4,1022.1,925.5,1023.9z"/>
</g>
</svg>
