<?xml version="1.0" encoding="utf-8"?>
<!-- Generator: Adobe Illustrator 21.0.2, SVG Export Plug-In . SVG Version: 6.00 Build 0)  -->
<svg version="1.1" id="Слой_1" xmlns="http://www.w3.org/2000/svg" xmlns:xlink="http://www.w3.org/1999/xlink" x="0px" y="0px"
	 viewBox="0 0 2500 2000" style="enable-background:new 0 0 2500 2000;" xml:space="preserve">
<style type="text/css">
	.st0{fill:#89FFAE;}
	.st1{fill:#A4E800;}
	.st2{fill:#08FF9E;}
	.st3{fill:#8D00A1;}
	.st4{fill:#FF3C2D;}
	.st5{fill:#FFFFFF;}
	.st6{fill:#230CFF;}
	.st7{fill:#A3A3A3;}
	.st8{fill:#F6FFE3;}
	.st9{fill:#C6C6C6;}
	.st10{fill:#00D72F;}
	.st11{fill:url(#SVGID_1_);}
	.st12{fill:url(#SVGID_2_);}
	.st13{fill:#494949;}
	.st14{fill:#0000E7;}
	.st15{fill:#1BF7F7;}
	.st16{fill:#FAFAFA;}
	.st17{fill:#C0C0C0;}
	.st18{fill:#0F0F0F;}
	.st19{fill:#FFFF01;}
	.st20{fill:#39D3FF;}
	.st21{fill:#FF3127;}
</style>
<g id="Cube">
	<g id="Cube_1_">
		<polygon class="st0" points="1245.7,1049.6 1245.7,1704.9 965.2,1542.6 957.5,1538.1 677,1375.8 677,721.6 677.9,721.6 
			957.5,882.9 961.4,885.2 965.2,887.4 		"/>
		<polygon class="st1" points="1813.4,721.6 1813.4,1376.8 1533,1539 1525.2,1543.5 1245.7,1704.9 1245.7,1049.6 1525.2,888.3 
			1529.1,886 1529.1,885.2 1533,882.9 1533,882.9 		"/>
		<polygon class="st2" points="1813.4,721.6 1533,882.9 1533,882.9 1529.1,885.2 1529.1,886 1525.2,888.3 1245.7,1049.6 
			965.2,887.4 961.4,885.2 957.5,882.9 677.9,721.6 957.5,560.2 961.4,558 965.2,555.8 1245.7,393.5 1525.2,555.8 1529.1,558 
			1533,560.2 		"/>
		<polygon class="st3" points="1533,560.2 1247.6,724.9 965.2,887.4 965.2,1542.6 957.5,1538.1 957.5,882.9 959.4,881.8 
			1243.7,718.2 1525.2,555.8 1529.1,558 		"/>
		<polygon class="st3" points="1533,882.9 1533,1539 1525.2,1543.5 1525.2,887.4 1243.7,724.9 957.5,560.2 961.4,558 965.2,555.8 
			1247.6,718.2 		"/>
		<polygon class="st3" points="1813.4,1044.3 1813.4,1053.2 1531,1216.6 1245.7,1381.3 1243.7,1380.2 959.4,1215.7 677,1053.2 
			677,1044.3 963.3,1209 1245.7,1372.3 1527.2,1209.9 		"/>
	</g>
	<g id="Cross">
		<path class="st4" d="M1194.3,1175.3c0,57.4-40.6,80.4-90.6,51.6c-50-28.9-90.6-98.8-90.6-156.2c0-57.4,40.6-80.4,90.6-51.6
			C1153.7,1048.1,1194.3,1118,1194.3,1175.3z"/>
		<g>
			
				<rect x="1099.8" y="1035.2" transform="matrix(0.865 -0.5018 0.5018 0.865 -414.533 705.4921)" class="st5" width="7.8" height="175.6"/>
		</g>
		<g>
			
				<rect x="1053" y="1119.1" transform="matrix(0.8693 -0.4942 0.4942 0.8693 -410.8243 692.2339)" class="st5" width="101.4" height="7.8"/>
		</g>
	</g>
	<g id="Loadong">
		<g>
			<rect x="1683.3" y="1044" class="st6" width="7.8" height="42.1"/>
		</g>
		<g>
			<polygon class="st6" points="1683.3,970.4 1683.3,970.3 1691.1,970.3 			"/>
		</g>
		<g>
			<rect x="1683.3" y="854.5" class="st6" width="7.8" height="42.1"/>
		</g>
		<g>
			
				<rect x="1755" y="960.5" transform="matrix(8.507805e-02 -0.9964 0.9964 8.507805e-02 636.3074 2645.8025)" class="st6" width="7.8" height="31.9"/>
		</g>
		<g>
			<polygon class="st6" points="1683.3,970.4 1683.3,970.3 1691.1,970.3 			"/>
		</g>
		<g>
			
				<rect x="1611.7" y="948.4" transform="matrix(8.508810e-02 -0.9964 0.9964 8.508810e-02 517.3171 2492.0178)" class="st6" width="7.8" height="31.9"/>
		</g>
		<g>
			
				<rect x="1733.4" y="877.7" transform="matrix(0.6279 -0.7783 0.7783 0.6279 -31.7179 1696.8927)" class="st6" width="50.8" height="7.8"/>
		</g>
		<g>
			<polygon class="st6" points="1683.3,970.4 1683.3,970.3 1691.1,970.3 			"/>
		</g>
		<g>
			
				<rect x="1590.3" y="1055.2" transform="matrix(0.6279 -0.7783 0.7783 0.6279 -223.1176 1651.4934)" class="st6" width="50.6" height="7.8"/>
		</g>
	</g>
	<g id="Bin">
		<polygon class="st7" points="1135.5,1582.4 1187.6,1552.4 1211,1393.4 1135.5,1437 		"/>
		<polygon class="st8" points="1135.5,1437 1009.6,1364.3 1034.8,1524.3 1135.5,1582.4 		"/>
		<polygon class="st9" points="1211,1393.4 1135.5,1437 1085.1,1408 1009.6,1364.4 1085.1,1320.8 		"/>
		<polygon class="st7" points="1085.1,1320.8 1085.1,1408 1009.6,1364.4 		"/>
		<g>
			<g>
				<path class="st10" d="M1053.4,1478.2h-7.8c0-20,16.3-36.3,36.3-36.3v7.8C1066.2,1449.6,1053.4,1462.5,1053.4,1478.2z"/>
			</g>
			<g>
				<polygon class="st10" points="1077.8,1461.7 1070.9,1458.2 1076.6,1446.8 1065,1441 1068.4,1434 1087,1443.3 				"/>
			</g>
			<g>
				<path class="st10" d="M1081.9,1509.5c-12.6,0-24.8-6.5-31.5-18.2l6.7-3.9c3.8,6.6,10,11.3,17.4,13.3c7.4,2,15.1,1,21.7-2.9
					l3.9,6.7C1094.3,1508,1088,1509.5,1081.9,1509.5z"/>
			</g>
			<g>
				<polygon class="st10" points="1050.3,1507 1049.1,1486.3 1069.6,1485.1 1070.1,1492.8 1057.3,1493.6 1058.1,1506.6 				"/>
			</g>
			<g>
				<path class="st10" d="M1109.3,1495l-6.7-3.9c7.9-13.7,3.2-31.2-10.5-39.1l3.9-6.7c8.4,4.9,14.4,12.7,16.9,22.1
					C1115.4,1476.8,1114.1,1486.6,1109.3,1495z"/>
			</g>
			<g>
				<polygon class="st10" points="1105.5,1498.6 1094.2,1481.5 1100.7,1477.2 1107.7,1487.9 1118.6,1480.7 1122.8,1487.2 				"/>
			</g>
		</g>
	</g>
	<g id="Mail">
		<polygon points="910.3,1116.6 709.3,1000.6 701.5,988.4 709.3,851.1 902.4,954.9 910.3,967.1 		"/>
		<linearGradient id="SVGID_1_" gradientUnits="userSpaceOnUse" x1="600.1196" y1="727.7422" x2="1041.0509" y2="1260.4803">
			<stop  offset="0" style="stop-color:#FFFFFF"/>
			<stop  offset="9.688431e-02" style="stop-color:#FEFFF6"/>
			<stop  offset="0.2581" style="stop-color:#FCFFDC"/>
			<stop  offset="0.4637" style="stop-color:#F9FFB3"/>
			<stop  offset="0.7058" style="stop-color:#F5FF79"/>
			<stop  offset="0.9758" style="stop-color:#EFFF30"/>
			<stop  offset="0.9944" style="stop-color:#EFFF2B"/>
		</linearGradient>
		<polygon class="st11" points="902.4,954.9 902.4,1104.4 701.5,988.4 701.5,838.9 708.8,843.1 708.8,843.1 898.2,952.4 		"/>
		<polygon class="st7" points="902.4,954.9 902.4,954.9 898.2,952.4 826.8,981.5 780.1,954.6 708.8,843.1 708.8,843.1 701.5,838.9 
			701.5,846.1 761.8,940.3 766.1,947 774.6,960.3 826.2,990.1 834.7,986.6 842.1,983.6 902.4,959.1 		"/>
		<polygon class="st7" points="769.1,945.7 766.1,947 701.5,973.3 701.5,964.9 761.8,940.3 766.1,938.6 		"/>
		<polygon class="st7" points="902.4,1078 902.4,1092.4 834.7,986.6 833,983.9 839.5,979.7 842.1,983.6 		"/>
	</g>
	<g id="Lens">
		<polygon points="1176.1,522.4 1122.4,522.5 1067.4,554.3 1067.2,585.3 1217.5,672.1 1430.3,549.3 1430.3,536.3 1279.9,462.5 		"/>
		<linearGradient id="SVGID_2_" gradientUnits="userSpaceOnUse" x1="963.7321" y1="554.3593" x2="1617.2319" y2="554.3593">
			<stop  offset="0" style="stop-color:#FFFFFF"/>
			<stop  offset="9.688431e-02" style="stop-color:#FEFFF6"/>
			<stop  offset="0.2581" style="stop-color:#FCFFDC"/>
			<stop  offset="0.4637" style="stop-color:#F9FFB3"/>
			<stop  offset="0.7058" style="stop-color:#F5FF79"/>
			<stop  offset="0.9758" style="stop-color:#EFFF30"/>
			<stop  offset="0.9944" style="stop-color:#EFFF2B"/>
		</linearGradient>
		<polygon class="st12" points="1176.1,509.5 1122.4,509.6 1067.4,541.4 1067.2,572.4 1217.5,659.2 1430.3,536.3 1279.9,449.5 		"/>
		<polygon class="st13" points="1071.7,575.2 1063.7,570.8 1172.7,507.9 1180.6,512.3 		"/>
		<path class="st9" d="M1313.5,556.5l-78.7-1.3l-1.4,23l81.1,1.3C1314.5,571.9,1313.8,564.2,1313.5,556.5z"/>
		<path class="st14" d="M1401.1,558l-95.4-1.6l-0.1,23l94.1,1.6c10.3,0.2,18.9-4.5,19.3-10.4l0.1-1.5
			C1419.4,563.1,1411.4,558.1,1401.1,558z"/>
		<path class="st15" d="M1206.1,525c40.3,0.7,71.8,20.1,70.3,43.3c-1.4,23.3-35.3,41.6-75.6,40.9s-71.8-20.1-70.3-43.3
			S1165.8,524.3,1206.1,525z"/>
		<path class="st13" d="M1203,613.2c-0.8,0-1.5,0-2.3,0c-27.4-0.5-51.6-9.2-64.7-23.3c-6.7-7.3-10-15.6-9.5-24.1
			c1.6-25.7,36.3-45.1,79.5-44.6c27.4,0.5,51.6,9.2,64.7,23.4c6.7,7.3,10,15.6,9.5,24.1C1278.7,593.8,1245,613.2,1203,613.2z
			 M1204,528.9c-36.7,0-68.4,16.8-69.7,37.3c-0.4,6.4,2.1,12.6,7.4,18.4c11.5,12.5,34.2,20.4,59.1,20.9
			c37.4,0.5,70.3-16.5,71.6-37.3c0.4-6.4-2.1-12.6-7.4-18.4c-11.5-12.5-34.2-20.4-59.1-20.9C1205.3,528.9,1204.7,528.9,1204,528.9z"
			/>
		<path class="st5" d="M1198,597.6c-19.6-0.3-37.3-6.9-47.1-17.6c-6-6.5-8.9-14-8.4-21.9l23.2,1.4c-0.1,1.4,0.7,3,2.2,4.7
			c4.2,4.5,14.6,9.9,30.4,10.1L1198,597.6z"/>
	</g>
	<g id="OK">
		<polygon class="st3" points="1385.2,1456 1385.2,1455.3 1393,1455.3 		"/>
		<polygon points="1479.3,1323.8 1479.3,1463.9 1303.9,1565.1 1303.9,1425.1 		"/>
		<polygon class="st16" points="1478.8,1324.1 1475,1339 1469.2,1458.1 1314.2,1555.3 1303.9,1564.8 1303.9,1425.1 		"/>
		<polygon class="st17" points="1475,1338.8 1475.3,1461.3 1314.5,1555.2 1314.5,1431.1 		"/>
		<path class="st18" d="M1361.4,1484.7c-2,0-4-0.5-5.7-1.5c-4.5-2.6-7-8.1-7-15.2v-11.3c0-12.2,7.3-26,16.6-31.4
			c4.8-2.8,9.6-3,13.5-0.8c4.5,2.6,7,8.1,7,15.2v11.3c0,12.2-7.3,26-16.6,31.4C1366.5,1483.9,1363.9,1484.7,1361.4,1484.7z
			 M1373.1,1430.6c-1.5,0-3,0.7-3.9,1.2c-6.9,4-12.8,15.3-12.8,24.7v11.3c0,4.2,1.2,7.4,3.1,8.5c1.9,1.1,4.4,0,5.7-0.8l0,0
			c6.9-4,12.8-15.3,12.8-24.7v-11.3c0-4.2-1.2-7.4-3.1-8.5C1374.3,1430.8,1373.7,1430.6,1373.1,1430.6z"/>
		<rect x="1394" y="1409.1" width="7.8" height="54.5"/>
		<polygon points="1424.2,1448.1 1393.6,1435.7 1416.5,1396.2 1423.2,1400.1 1404.8,1431.9 1427.1,1440.9 		"/>
	</g>
	<g id="Arrow">
		<polygon class="st5" points="1314.2,848.1 1096.1,848.6 1251.4,938.2 1251.6,897.5 1363.6,921.8 1379,898.5 1268.5,874.5 		"/>
		<path d="M1255.2,944.9l-173.5-100.2l247-0.5l-49.6,28.7l106.3,23l-20,30.3l-109.9-23.8L1255.2,944.9z M1110.6,852.4l136.9,79.1
			l0.2-38.8l114.1,24.7l10.8-16.4l-114.8-24.9l41.9-24.2L1110.6,852.4z"/>
	</g>
</g>
<g id="Objects">
	
		<rect x="944.3" y="360.1" transform="matrix(0.7071 -0.7071 0.7071 0.7071 -0.566 785.7062)" class="st19" width="7.8" height="66.9"/>
	
		<rect x="914.7" y="389.7" transform="matrix(0.7071 -0.7071 0.7071 0.7071 -0.566 785.7062)" class="st19" width="66.9" height="7.8"/>
	
		<rect x="1482.8" y="155.6" transform="matrix(0.7071 -0.7071 0.7071 0.7071 329.5044 1114.3811)" class="st14" width="54.2" height="7.8"/>
	<path class="st20" d="M1759.5,397.4h-33.3v-33.3h33.3V397.4z M1734,389.7h17.7v-17.7H1734V389.7z"/>
	<path class="st20" d="M1759.5,466.2h-33.3v-33.3h33.3V466.2z M1734,458.4h17.7v-17.7H1734V458.4z"/>
	<path class="st19" d="M612.1,929h-33.3v-33.3h33.3V929z M586.6,921.2h17.7v-17.7h-17.7V921.2z"/>
	
		<rect x="456.1" y="698.9" transform="matrix(0.7071 -0.7071 0.7071 0.7071 -378.1748 537.7042)" class="st14" width="7.8" height="53"/>
	<path class="st14" d="M1902.4,1187.3c-7.3,0-13.3-5.9-13.3-13.3c0-7.3,5.9-13.3,13.3-13.3c7.3,0,13.3,5.9,13.3,13.3
		C1915.7,1181.4,1909.7,1187.3,1902.4,1187.3z M1902.4,1168.6c-3,0-5.5,2.5-5.5,5.5c0,3,2.5,5.5,5.5,5.5c3,0,5.5-2.5,5.5-5.5
		C1907.9,1171,1905.4,1168.6,1902.4,1168.6z"/>
	<rect x="604.4" y="1453.8" class="st21" width="7.8" height="44.1"/>
	<rect x="1047.3" y="221.7" class="st14" width="25.2" height="7.8"/>
	
		<rect x="1693.5" y="1592.1" transform="matrix(0.7071 -0.7071 0.7071 0.7071 -638.7302 1670.6852)" class="st21" width="7.8" height="28.6"/>
	<path class="st21" d="M1513.8,1723.9h-38.4v-38.4h38.4V1723.9z M1483.2,1716.1h22.9v-22.9h-22.9V1716.1z"/>
	<path class="st14" d="M864,1569h-31.6v-31.6H864V1569z M840.1,1561.2h16.1v-16.1h-16.1V1561.2z"/>
	<path class="st14" d="M924.5,1667.8c-12.1,0-21.9-9.8-21.9-21.9c0-12.1,9.8-21.9,21.9-21.9s21.9,9.8,21.9,21.9
		C946.4,1658,936.6,1667.8,924.5,1667.8z M924.5,1631.8c-7.8,0-14.1,6.3-14.1,14.2c0,7.8,6.3,14.1,14.1,14.1
		c7.8,0,14.2-6.3,14.2-14.1C938.6,1638.1,932.3,1631.8,924.5,1631.8z"/>
	<rect x="677.9" y="1764.3" class="st14" width="45.2" height="7.8"/>
	
		<rect x="1995" y="1492.8" transform="matrix(0.7071 -0.7071 0.7071 0.7071 -466.8068 1866.4111)" class="st19" width="49" height="7.8"/>
</g>
</svg>
