<?xml version="1.0" encoding="utf-8"?>
<!-- Generator: Adobe Illustrator 21.0.2, SVG Export Plug-In . SVG Version: 6.00 Build 0)  -->
<svg version="1.1" id="Слой_1" xmlns="http://www.w3.org/2000/svg" xmlns:xlink="http://www.w3.org/1999/xlink" x="0px" y="0px"
	 viewBox="0 0 2500 2000" style="enable-background:new 0 0 2500 2000;" xml:space="preserve">
<style type="text/css">
	.st0{fill:#FFFFFF;}
	.st1{fill:#FF3127;}
</style>
<g id="Box">
	<path class="st0" d="M1446.7,915.1L1320,773H755.3l-126.7,142c-4.5,5.1-7.1,11.7-7.1,18.5l0,134c0,24.9,20.2,45.1,45.1,45.1h742
		c24.9,0,45.1-20.2,45.1-45.1l0-134C1453.7,926.7,1451.2,920.2,1446.7,915.1z"/>
	<path class="st1" d="M1376.9,1014.4c0.1,1.7,0.1,3.5,0.1,5.2h74.1v-5.2H1376.9z"/>
	<path class="st1" d="M698.7,1014.4h-74.5v5.2h74.5C698.6,1017.8,698.6,1016.1,698.7,1014.4z"/>
	<path class="st1" d="M1329.7,1081.5H745.5c-28.3,0-51.3-23-51.3-51.3v-26.3c0-28.3,23-51.3,51.3-51.3h584.2
		c28.3,0,51.3,23,51.3,51.3v26.3C1381,1058.4,1358,1081.5,1329.7,1081.5z M745.5,957.7c-25.4,0-46.1,20.7-46.1,46.1v26.3
		c0,25.4,20.7,46.1,46.1,46.1h584.2c25.4,0,46.1-20.7,46.1-46.1v-26.3c0-25.4-20.7-46.1-46.1-46.1H745.5z"/>
	<g>
		<path class="st1" d="M1297.4,1038.8h-64.9v-43.7h64.9c5.8,0,11.2,2.2,15.3,6.3c4.2,4.1,6.5,9.7,6.5,15.6c0,5.8-2.3,11.3-6.4,15.5
			C1308.8,1036.6,1303.3,1038.8,1297.4,1038.8z M1237.7,1033.6h59.7c4.4,0,8.6-1.7,11.8-4.9c3.1-3.1,4.9-7.3,4.9-11.8
			c0-4.5-1.8-8.7-5-11.9c-3.1-3.1-7.3-4.8-11.7-4.8h-59.7V1033.6z"/>
	</g>
	<g>
		<path class="st1" d="M1227.6,1038.8h-82.1v-43.7h82.1V1038.8z M1150.7,1033.6h71.7v-33.3h-71.7V1033.6z"/>
	</g>
	<path class="st1" d="M1408.6,1112.6h-742c-24.9,0-45.1-20.2-45.1-45.1l0-134c0-6.8,2.5-13.4,7.1-18.5l126.7-142H1320l126.7,142
		c4.5,5.1,7,11.7,7,18.5l0,134C1453.7,1092.4,1433.5,1112.6,1408.6,1112.6z M757.6,778.2L632.5,918.5c-3.7,4.1-5.7,9.5-5.7,15l0,134
		c0,22,17.9,39.9,39.9,39.9h742c22,0,39.9-17.9,39.9-39.9l0-134c0-5.5-2-10.9-5.7-15l-125.2-140.3H757.6z"/>
	<path class="st1" d="M1394.2,915.4H681.1l103.3-131.2h506.6L1394.2,915.4z M691.8,910.2h691.6l-95-120.8H786.9L691.8,910.2z"/>
	<rect x="625.4" y="928.4" class="st1" width="825.7" height="5.2"/>
	<rect x="953.1" y="880.9" class="st1" width="171.6" height="5.2"/>
	<path class="st1" d="M1167.3,1025.1c-4.5,0-8.2-3.7-8.2-8.2s3.7-8.2,8.2-8.2c4.5,0,8.2,3.7,8.2,8.2S1171.9,1025.1,1167.3,1025.1z
		 M1167.3,1014c-1.6,0-3,1.3-3,3c0,1.6,1.3,3,3,3c1.6,0,3-1.3,3-3C1170.3,1015.3,1169,1014,1167.3,1014z"/>
	<path class="st1" d="M1199.9,1025.1c-4.5,0-8.2-3.7-8.2-8.2s3.7-8.2,8.2-8.2s8.2,3.7,8.2,8.2S1204.4,1025.1,1199.9,1025.1z
		 M1199.9,1014c-1.6,0-3,1.3-3,3c0,1.6,1.3,3,3,3c1.6,0,3-1.3,3-3C1202.8,1015.3,1201.5,1014,1199.9,1014z"/>
	<path class="st1" d="M1258,1025.1c-4.5,0-8.2-3.7-8.2-8.2s3.7-8.2,8.2-8.2s8.2,3.7,8.2,8.2S1262.5,1025.1,1258,1025.1z M1258,1014
		c-1.6,0-3,1.3-3,3c0,1.6,1.3,3,3,3s3-1.3,3-3C1261,1015.3,1259.6,1014,1258,1014z"/>
	<path class="st1" d="M1290.5,1025.1c-4.5,0-8.2-3.7-8.2-8.2s3.7-8.2,8.2-8.2c4.5,0,8.2,3.7,8.2,8.2S1295,1025.1,1290.5,1025.1z
		 M1290.5,1014c-1.6,0-3,1.3-3,3c0,1.6,1.3,3,3,3c1.6,0,3-1.3,3-3C1293.5,1015.3,1292.1,1014,1290.5,1014z"/>
</g>
<g id="Objects">
	<path class="st1" d="M558.3,729.4l-134.4-30.2l49.3-89L558.3,729.4z M431.8,695.7l114.3,25.7L473.7,620L431.8,695.7z"/>
	<path class="st1" d="M905.8,533.6L736,355.5l139-42.2L905.8,533.6z M745.6,358l152.8,160.3L870.7,320L745.6,358z"/>
	<path class="st1" d="M1293.9,490.9l129.2-164l12.7,63.5L1293.9,490.9z M1420.2,338.9l-99.9,126.8L1430,388L1420.2,338.9z"/>
	<path class="st1" d="M1551,810.5l-70.3-24.3l62.2-20.9L1551,810.5z M1496.9,786.3l47.4,16.4l-5.4-30.5L1496.9,786.3z"/>
	<path class="st1" d="M982.4,526.4l-32.4-120l56.8-24.8L982.4,526.4z M956.2,409.4l25,92.7l18.8-111.8L956.2,409.4z"/>
</g>
<g id="Cartridge">
	<rect x="811.4" y="673.8" class="st0" width="450.2" height="178"/>
	<path class="st1" d="M1262.9,671.2H810l-1.3,1.8v181.5h455.4V672.9L1262.9,671.2z M1258.9,849.2H814V676.4h445V849.2z"/>
	<rect x="878.6" y="802.9" class="st0" width="315.7" height="48.9"/>
	<path class="st1" d="M1196.9,854.4H876v-54.1h320.9V854.4z M881.2,849.2h310.5v-43.7H881.2V849.2z"/>
	<rect x="854.5" y="704.1" class="st1" width="364" height="82.7"/>
	<path class="st0" d="M1261.5,673.8H811.4l6-8.5c11.3-15.8,29.5-25.1,48.9-25.1h340.1c18.9,0,36.8,8.9,48.1,24.1L1261.5,673.8z"/>
	<path class="st1" d="M1262.9,671.2l-6.3-8.5c-11.8-15.8-30.5-25.2-50.2-25.2H866.3c-20.2,0-39.3,9.8-51,26.2l-5.3,7.4l-1.3,1.8v3.4
		h455.4v-3.5L1262.9,671.2z M866.3,642.8h340.1c18,0,35.2,8.6,46,23.1l4,5.3H816.4l3.1-4.3C830.3,651.8,847.8,642.8,866.3,642.8z"/>
	<rect x="811.4" y="708.1" class="st1" width="18.3" height="5.2"/>
	<rect x="811.4" y="737.9" class="st1" width="18.3" height="5.2"/>
	<rect x="811.4" y="767.7" class="st1" width="18.3" height="5.2"/>
	<rect x="811.4" y="797.6" class="st1" width="18.3" height="5.2"/>
	<rect x="1243.3" y="708.1" class="st1" width="18.3" height="5.2"/>
	<rect x="1243.3" y="737.9" class="st1" width="18.3" height="5.2"/>
	<rect x="1243.3" y="767.7" class="st1" width="18.3" height="5.2"/>
	<rect x="1243.3" y="797.6" class="st1" width="18.3" height="5.2"/>
	<polygon class="st0" points="1037.6,712.8 1003.4,745.4 1028.7,751.4 1022.2,775.2 1059.4,733.5 1037.6,733.5 	"/>
</g>
<g id="Wires">
	<path class="st1" d="M929.7,1029v24.3c0,6.8-5.5,12.2-12.2,12.2h-158c-6.8,0-12.2-5.5-12.2-12.2v-25.1l1.2-1.8l21-31.3h153.2
		l6.6,31.3L929.7,1029z"/>
	<polygon class="st0" points="929.7,1029 929.7,1031.6 747.2,1031.6 747.2,1028.2 748.4,1026.4 929.2,1026.4 	"/>
	<path class="st1" d="M1443.9,1689c-168.9,0-355.4-0.8-490.7-1.4c-75.5-0.3-135.2-0.6-165.4-0.6h-3.3c-95.1,0-253.8,0-321.9-71.8
		c-23.8-25.1-34.9-57.3-32.9-95.8c4.9-94.4,135.6-101.7,274-109.4c108.6-6,220.8-12.3,266.4-63.9c33.7-38.3,44.9-70.8,33.1-96.8
		c-18.3-40.5-95-64.7-205.2-64.7c-105.7,0-124.6-5.6-124.6-21.4c0-15.3,63.9-18.5,117.4-18.5c13.1,0,23.8-4.5,31.8-13.4
		c22.8-25.3,17.6-78,17.5-78.6l5.2-0.5c0.2,2.3,5.5,55.6-18.8,82.6c-9,10-21,15.1-35.7,15.1c-73.7,0-112.2,6.7-112.2,13.3
		c0,10.8,18.5,16.2,119.3,16.2c114,0,190.5,24.7,209.9,67.8c12.7,28,1.2,62.5-34,102.4c-47,53.3-160.4,59.6-270,65.7
		c-136,7.5-264.4,14.7-269.1,104.4c-1.9,37,8.7,67.9,31.5,91.9c66.6,70.2,224.2,70.2,318.1,70.1h3.3c30.3,0,89.9,0.3,165.4,0.6
		c241.3,1,645.1,2.7,822-0.6c184.2-3.4,298.5-7.5,327.3-46.5c7.6-10.2,9-22.8,4.6-38.5c-12.1-42.2-60.2-44.5-115.8-47.2
		c-21.8-1.1-44.3-2.2-65.9-5.8c-25.3-4.3-31-15.2-31.4-23.5c-1.5-30.6,66.8-78.2,140.4-98c50.2-13.5,88.3-51.9,83.2-83.8
		c-6.8-42.2-84.1-58.4-236.4-49.6l-0.3-5.2c157.5-9.1,234.4,8,241.8,54c5.6,34.4-34.3,75.5-87,89.7
		c-77.1,20.7-137.7,67.7-136.5,92.7c0.6,11.7,15.1,16.6,27.1,18.6c21.3,3.6,43.7,4.7,65.3,5.7c55.3,2.7,107.5,5.2,120.6,51
		c5,17.3,3.2,31.4-5.4,43c-30.3,41-145.7,45.2-331.4,48.6C1697.6,1688.5,1576.1,1689,1443.9,1689z"/>
	<path class="st1" d="M1379.9,1325.4c-56.2,0-114.8-27.7-121.7-51.7l5-1.5c6.1,20.8,66.1,51.2,125.8,47.7c21.8-1.2,54-8,77.6-34.2
		c-4.8-1-9.5-2.3-14-3.8c-34-11.3-56.9-34.5-68.3-68.7c-10.4-31.2-4-59,17.3-76.3c19.5-15.8,47.8-18.3,68.8-6.1
		c26.2,15.3,36.8,49.4,29.3,93.7c-4.2,24.8-12.6,43.6-23.3,57.8c55.5,8.8,118.8-12.9,148.2-33.1l3,4.3
		c-36,24.9-101.6,42.6-154.8,33.5c-24.9,29.5-59.9,36.9-83.4,38.3C1386.1,1325.4,1383,1325.4,1379.9,1325.4z M1440.8,1128.3
		c-12.8,0-25.8,4.3-36.1,12.7c-19.6,15.9-25.3,41.6-15.6,70.6c10.8,32.6,32.7,54.7,65,65.4c5.3,1.8,10.7,3.2,16.2,4.3
		c11-13.9,19.8-32.5,24.1-57.6c7.1-42-2.6-74.2-26.8-88.3C1459.5,1130.6,1450.2,1128.3,1440.8,1128.3z"/>
	<path class="st1" d="M1312.7,1204.9h-159.4v44.4l26,37.3c1.8,2.6,4.8,4.1,7.9,4.1h158.7c5.3,0,9.6-4.3,9.6-9.6v-24.3L1312.7,1204.9
		z"/>
	<path class="st1" d="M1356.5,1253.9l-4.3-5.2l-38.3-46.4h-163.3v47.9l26.5,37.9c2.3,3.3,6,5.2,10,5.2h158.7
		c6.8,0,12.2-5.5,12.2-12.2v-25.2L1356.5,1253.9z"/>
	<polygon class="st0" points="1356.5,1253.9 1186,1253.9 1150.7,1205.8 1150.7,1202.3 1154.6,1202.3 1188.7,1248.7 1352.2,1248.7 	
		"/>
</g>
<g id="Gamepad_2">
	<path class="st0" d="M1086.9,1348H642.5c-79.6,0-146.7,36.5-146.7,97.7c0,1.4,0,47.6,0,48.9c0,81,65.7,146.7,146.7,146.7
		c46.4,0,87.7-21.5,114.6-55.1h215.3c26.9,33.6,68.2,55.1,114.6,55.1c81,0,146.7-65.7,146.7-146.7c0-0.7-0.3-58.1-0.3-58.8
		C1202.9,1384,1167.2,1348,1086.9,1348z"/>
	<path class="st1" d="M1086.9,1643.9c-45.1,0-87.3-20.1-115.8-55.1H758.3c-28.5,35-70.7,55.1-115.8,55.1
		c-82.3,0-149.3-67-149.3-149.3l0-2.8c0-30.3,0-45.4,0-46.2c0-59,61.4-100.3,149.3-100.3h444.4c79.9,0,117.2,35.7,148.6,89.2
		l0.3,0.6l0,0.7c0,0.9,0.3,58.4,0.3,58.8C1236.2,1577,1169.3,1643.9,1086.9,1643.9z M755.8,1583.6h217.8l0.8,1
		c27.5,34.4,68.6,54.1,112.5,54.1c79.4,0,144.1-64.6,144.1-144.1c0-0.9-0.3-51.5-0.3-58c-31.3-53.1-66.4-86-143.8-86H642.5
		c-84.8,0-144.1,39.1-144.1,95.1c0,0.6,0,9.1,0,46.2l0,2.8c0,79.4,64.6,144.1,144.1,144.1c44,0,85-19.7,112.5-54.1L755.8,1583.6z"/>
	<path class="st0" d="M1086.9,1299H642.5c-81,0-146.7,65.7-146.7,146.7c0,81,65.7,146.7,146.7,146.7c46.4,0,87.7-21.5,114.6-55.1
		h215.3c26.9,33.6,68.2,55.1,114.6,55.1c81,0,146.7-65.7,146.7-146.7C1233.6,1364.7,1168,1299,1086.9,1299z"/>
	<path class="st1" d="M1086.9,1595c-45.1,0-87.3-20.1-115.8-55.1H758.3c-28.5,35-70.7,55.1-115.8,55.1c-82.3,0-149.3-67-149.3-149.3
		c0-82.3,67-149.3,149.3-149.3h444.4c82.3,0,149.3,67,149.3,149.3C1236.2,1528,1169.3,1595,1086.9,1595z M755.8,1534.7h217.8l0.8,1
		c27.5,34.4,68.6,54.1,112.5,54.1c79.4,0,144.1-64.6,144.1-144.1c0-79.4-64.6-144.1-144.1-144.1H642.5
		c-79.4,0-144.1,64.6-144.1,144.1c0,79.4,64.6,144.1,144.1,144.1c44,0,85-19.7,112.5-54.1L755.8,1534.7z"/>
	<path class="st1" d="M1086.9,1540c-57.7,0-104.7-47-104.7-104.7s47-104.7,104.7-104.7s104.7,47,104.7,104.7
		S1144.7,1540,1086.9,1540z M1086.9,1335.8c-54.9,0-99.5,44.6-99.5,99.5s44.6,99.5,99.5,99.5s99.5-44.6,99.5-99.5
		S1141.8,1335.8,1086.9,1335.8z"/>
	<rect x="618.4" y="1350.5" class="st1" width="48.2" height="157.6"/>
	
		<rect x="618.4" y="1350.5" transform="matrix(-1.836970e-16 1 -1 -1.836970e-16 2071.8052 786.7872)" class="st1" width="48.2" height="157.6"/>
	<path class="st1" d="M770,1336.8c5,0,9.1,4.1,9.1,9.1c0,5-4.1,9.1-9.1,9.1c-5,0-9.1-4.1-9.1-9.1
		C760.9,1340.9,765,1336.8,770,1336.8 M770,1331.6c-7.9,0-14.3,6.4-14.3,14.3c0,7.9,6.4,14.3,14.3,14.3s14.3-6.4,14.3-14.3
		C784.3,1338,777.9,1331.6,770,1331.6L770,1331.6z"/>
	<path class="st1" d="M1049.1,1377.3c6.1,0,11.8,2.4,16.1,6.7c4.3,4.3,6.7,10,6.7,16.1c0,6.1-2.4,11.8-6.7,16.1
		c-4.3,4.3-10,6.7-16.1,6.7s-11.8-2.4-16.1-6.7c-4.3-4.3-6.7-10-6.7-16.1c0-6.1,2.4-11.8,6.7-16.1
		C1037.3,1379.7,1043.1,1377.3,1049.1,1377.3 M1049.1,1372.1c-7.2,0-14.3,2.7-19.8,8.2c-10.9,10.9-10.9,28.6,0,39.6
		c5.5,5.5,12.6,8.2,19.8,8.2c7.2,0,14.3-2.7,19.8-8.2c10.9-10.9,10.9-28.6,0-39.6C1063.5,1374.8,1056.3,1372.1,1049.1,1372.1
		L1049.1,1372.1z"/>
	<path class="st1" d="M1124.7,1377.3c6.1,0,11.8,2.4,16.1,6.7c4.3,4.3,6.7,10,6.7,16.1c0,6.1-2.4,11.8-6.7,16.1
		c-4.3,4.3-10,6.7-16.1,6.7c-6.1,0-11.8-2.4-16.1-6.7c-4.3-4.3-6.7-10-6.7-16.1c0-6.1,2.4-11.8,6.7-16.1
		C1112.9,1379.7,1118.7,1377.3,1124.7,1377.3 M1124.7,1372.1c-7.2,0-14.3,2.7-19.8,8.2c-10.9,10.9-10.9,28.6,0,39.6
		c5.5,5.5,12.6,8.2,19.8,8.2c7.2,0,14.3-2.7,19.8-8.2c10.9-10.9,10.9-28.6,0-39.6C1139.1,1374.8,1131.9,1372.1,1124.7,1372.1
		L1124.7,1372.1z"/>
	<path class="st1" d="M1049.1,1452.9c6.1,0,11.8,2.4,16.1,6.7c8.9,8.9,8.9,23.3,0,32.2c-4.3,4.3-10,6.7-16.1,6.7s-11.8-2.4-16.1-6.7
		c-8.9-8.9-8.9-23.3,0-32.2C1037.3,1455.3,1043.1,1452.9,1049.1,1452.9 M1049.1,1447.7c-7.2,0-14.3,2.7-19.8,8.2
		c-10.9,10.9-10.9,28.6,0,39.6c5.5,5.5,12.6,8.2,19.8,8.2c7.2,0,14.3-2.7,19.8-8.2c10.9-10.9,10.9-28.6,0-39.6
		C1063.5,1450.4,1056.3,1447.7,1049.1,1447.7L1049.1,1447.7z"/>
	<path class="st1" d="M1124.7,1452.9c6.1,0,11.8,2.4,16.1,6.7c8.9,8.9,8.9,23.3,0,32.2c-4.3,4.3-10,6.7-16.1,6.7s-11.8-2.4-16.1-6.7
		c-8.9-8.9-8.9-23.3,0-32.2C1112.9,1455.3,1118.7,1452.9,1124.7,1452.9 M1124.7,1447.7c-7.2,0-14.3,2.7-19.8,8.2
		c-10.9,10.9-10.9,28.6,0,39.6c5.5,5.5,12.6,8.2,19.8,8.2c7.2,0,14.3-2.7,19.8-8.2c10.9-10.9,10.9-28.6,0-39.6
		C1139.1,1450.4,1131.9,1447.7,1124.7,1447.7L1124.7,1447.7z"/>
	<path class="st1" d="M661.4,1365.5v50.5v5.2h5.2h49.5v38.7h-49.5h-5.2v5.2v50.5h-37.8v-50.5v-5.2h-5.2h-49.5v-38.7h49.5h5.2v-5.2
		v-50.5H661.4 M666.6,1360.3h-48.2v55.7h-54.7v49.1h54.7v55.7h48.2v-55.7h54.7V1416h-54.7V1360.3L666.6,1360.3z"/>
	<circle class="st1" cx="770" cy="1338.1" r="14.3"/>
	<path class="st1" d="M868.9,1444.1l-35,35c-3.2,3.2-7.7,4.3-11.8,3.2c-2.1-0.5-4-1.6-5.7-3.2h0c-2.4-2.4-3.6-5.6-3.6-8.7
		c0-3.2,1.2-6.3,3.6-8.7l35-35c2.4-2.4,5.6-3.6,8.7-3.6c3.2,0,6.3,1.2,8.7,3.6h0c2.4,2.4,3.6,5.6,3.6,8.7
		C872.5,1438.5,871.3,1441.7,868.9,1444.1z"/>
	<path class="st1" d="M926,1444.1l-35,35c-2.1,2.1-4.7,3.2-7.3,3.5c-3.6,0.4-7.4-0.8-10.2-3.5h0c-4.8-4.8-4.8-12.7,0-17.5l35-35
		c2.4-2.4,5.6-3.6,8.7-3.6c3.2,0,6.3,1.2,8.7,3.6h0C930.9,1431.4,930.9,1439.2,926,1444.1z"/>
	<path class="st1" d="M860.2,1438.6c1.9,0,3.7,0.7,5.1,2.1c2.8,2.8,2.8,7.3,0,10.1l-35,35c-1.4,1.4-3.2,2.1-5.1,2.1
		s-3.7-0.7-5.1-2.1c-2.8-2.8-2.8-7.3,0-10.1l35-35C856.4,1439.3,858.2,1438.6,860.2,1438.6 M860.2,1433.4c-3.2,0-6.3,1.2-8.7,3.6
		l-35,35c-4.8,4.8-4.8,12.7,0,17.5c2.4,2.4,5.6,3.6,8.7,3.6s6.3-1.2,8.7-3.6l35-35c4.8-4.8,4.8-12.7,0-17.5
		C866.5,1434.6,863.3,1433.4,860.2,1433.4L860.2,1433.4z"/>
	<path class="st1" d="M917.3,1438.6c1.9,0,3.7,0.7,5.1,2.1c2.8,2.8,2.8,7.3,0,10.1l-35,35c-1.4,1.4-3.2,2.1-5.1,2.1
		c-1.9,0-3.7-0.7-5.1-2.1c-2.8-2.8-2.8-7.3,0-10.1l35-35C913.6,1439.3,915.4,1438.6,917.3,1438.6 M917.3,1433.4
		c-3.2,0-6.3,1.2-8.7,3.6l-35,35c-4.8,4.8-4.8,12.7,0,17.5h0c2.4,2.4,5.6,3.6,8.7,3.6c3.2,0,6.3-1.2,8.7-3.6l35-35
		c4.8-4.8,4.8-12.7,0-17.5h0C923.6,1434.6,920.5,1433.4,917.3,1433.4L917.3,1433.4z"/>
	
		<ellipse transform="matrix(0.7071 -0.7071 0.7071 0.7071 -677.1909 1149.6415)" class="st1" cx="1049.1" cy="1392.3" rx="28" ry="28"/>
	
		<ellipse transform="matrix(0.7071 -0.7071 0.7071 0.7071 -655.0495 1203.0955)" class="st1" cx="1124.7" cy="1392.3" rx="28" ry="28"/>
	
		<ellipse transform="matrix(0.7071 -0.7071 0.7071 0.7071 -730.6448 1171.7828)" class="st1" cx="1049.1" cy="1467.9" rx="28" ry="28"/>
	
		<ellipse transform="matrix(0.7071 -0.7071 0.7071 0.7071 -708.5034 1225.2368)" class="st1" cx="1124.7" cy="1467.9" rx="28" ry="28"/>
	<rect x="754.5" y="1537.3" class="st1" width="5.2" height="48.9"/>
	<rect x="969.3" y="1537.3" class="st1" width="5.2" height="48.9"/>
</g>
<g id="Gamepad">
	<path class="st0" d="M1919.8,1346l0.1-38.4l-6.7-0.2c-3.7-11.6-9-23-16-33.7c-42.3-65.1-129.4-83.6-194.5-41.3l-357.2,232.1
		c-23.7,15.4-52.7,5.1-58.4,30.8c-12.8,57.5-9.7,122.3,17.1,163.6c42.3,65.1,129.4,83.6,194.5,41.3c37.3-24.2,59.2-63.1,63.3-104.1
		l173-112.4c39.1,13,83.6,8.7,120.8-15.5C1898.5,1440.5,1921.1,1393.5,1919.8,1346L1919.8,1346z"/>
	<path class="st1" d="M1422.4,1725.6c-10,0-20-1-30-3.2c-37.4-7.9-69.5-30-90.3-62c-25-38.4-31.7-101.9-17.5-165.6
		c3.8-17.2,17.3-19.9,31.5-22.8c9.4-1.9,19-3.8,28-9.7l357.2-232.1c66.2-43,155.1-24.1,198.1,42.1c6.6,10.1,11.8,21.1,15.7,32.6
		l7.4,0.2l-0.1,42.7c0.9,49.8-23.4,95.5-65.1,122.6c-36.3,23.6-80.7,29.5-121.9,16.2l-171,111.1c-4.6,43.1-28,81.2-64.3,104.8
		C1476.6,1717.7,1449.8,1725.6,1422.4,1725.6z M1779,1212.4c-25.8,0-51.8,7.2-75,22.2l-357.2,232.1c-9.8,6.4-20.5,8.5-29.9,10.4
		c-14.2,2.9-24.4,4.9-27.5,18.8c-13.9,62.4-7.4,124.4,16.8,161.6c20.1,30.9,51,52.1,87,59.8c36.1,7.7,72.9,0.8,103.8-19.3
		c35.3-22.9,57.9-60.2,62.1-102.2l0.1-1.2l175.1-113.8l1.2,0.4c40.1,13.3,83.3,7.7,118.6-15.2c40.7-26.4,64.1-71.2,62.7-119.9
		l-0.1-1.9l0.1,0l0.1-34.1l-6-0.1l-0.6-1.8c-3.8-11.7-9-22.8-15.7-33.1C1868.6,1234.5,1824.2,1212.4,1779,1212.4z"/>
	<path class="st0" d="M1702.7,1184.4l-357.2,232.1c-65.1,42.3-83.6,129.4-41.3,194.5c42.3,65.1,129.4,83.6,194.5,41.3
		c37.3-24.2,59.2-63.1,63.3-104.1l173-112.4c39.1,13,83.6,8.7,120.8-15.5c65.1-42.3,83.6-129.4,41.3-194.5
		C1854.8,1160.6,1767.8,1142.1,1702.7,1184.4z"/>
	<path class="st1" d="M1422.4,1677.6c-10,0-20-1-30-3.2c-37.4-7.9-69.5-30-90.3-62.1c-20.8-32.1-27.9-70.3-20-107.7s30-69.5,62-90.3
		l357.2-232.1c66.2-43,155.1-24.1,198.1,42.1c43,66.2,24.1,155.1-42.1,198.1c-36.3,23.6-80.7,29.5-121.9,16.2l-171,111.1
		c-4.6,43.1-28,81.2-64.3,104.8C1476.6,1669.7,1449.8,1677.6,1422.4,1677.6z M1779,1164.4c-25.8,0-51.8,7.2-75,22.2l-357.2,232.1
		c-30.9,20.1-52.1,51-59.8,87c-7.7,36.1-0.8,72.9,19.3,103.8c20.1,30.9,51,52.1,87,59.8c36.1,7.7,72.9,0.8,103.8-19.3
		c35.3-22.9,57.9-60.2,62.1-102.2l0.1-1.2l175.1-113.8l1.2,0.4c40.1,13.3,83.3,7.7,118.6-15.2c63.8-41.4,82-127.1,40.5-190.9
		C1868.6,1186.5,1824.2,1164.4,1779,1164.4z"/>
	<path class="st1" d="M1781.3,1396.5c-33.6,0-66.6-16.5-86.2-46.7c-14.9-23-20-50.4-14.3-77.2c5.7-26.8,21.5-49.8,44.5-64.8
		s50.4-20,77.2-14.3c26.8,5.7,49.8,21.5,64.8,44.5l0,0c30.8,47.5,17.3,111.2-30.1,142C1819.8,1391.2,1800.5,1396.5,1781.3,1396.5z
		 M1781,1196.5c-18.6,0-36.9,5.4-52.9,15.8c-21.8,14.2-36.8,36-42.2,61.5c-5.4,25.5-0.6,51.5,13.6,73.3c14.2,21.8,36,36.8,61.5,42.2
		c25.5,5.4,51.5,0.6,73.3-13.6c45-29.3,57.9-89.7,28.6-134.8l0,0c-14.2-21.8-36-36.8-61.5-42.2
		C1794.6,1197.2,1787.7,1196.5,1781,1196.5z"/>
	
		<rect x="1378.8" y="1448.1" transform="matrix(0.8385 -0.5448 0.5448 0.8385 -605.394 1010.8641)" class="st1" width="48.2" height="157.6"/>
	
		<rect x="1378.8" y="1448.1" transform="matrix(0.5448 0.8385 -0.8385 0.5448 1918.9242 -481.3998)" class="st1" width="48.2" height="157.6"/>
	<path class="st1" d="M1378.6,1469.3l27,41.5l2.8,4.4l4.4-2.8l41.5-27l20.6,31.7l-41.5,27l-4.4,2.8l2.8,4.4l27,41.5l-31.7,20.6
		l-27-41.5l-2.8-4.4l-4.4,2.8l-41.5,27l-20.6-31.7l41.5-27l4.4-2.8l-2.8-4.4l-27-41.5L1378.6,1469.3 M1380.2,1462.1l-40.4,26.3
		l29.8,45.9l-45.9,29.8l26.3,40.4l45.9-29.8l29.8,45.9l40.4-26.3l-29.8-45.9l45.9-29.8l-26.3-40.4l-45.9,29.8L1380.2,1462.1
		L1380.2,1462.1z"/>
	
		<ellipse transform="matrix(0.8385 -0.5448 0.5448 0.8385 -514.9979 1019.4846)" class="st1" cx="1462.6" cy="1378.7" rx="14.3" ry="14.3"/>
	<path class="st1" d="M1603.3,1413.6L1593,1462c-0.7,3.3-2.7,6.1-5.4,7.8c-2.7,1.7-6,2.4-9.3,1.7v0c-6.7-1.4-11-8-9.5-14.7
		l10.3-48.4c0.7-3.3,2.7-6.1,5.4-7.8c2.7-1.7,6-2.4,9.3-1.7l0,0C1600.5,1400.4,1604.7,1407,1603.3,1413.6z"/>
	<path class="st1" d="M1651.2,1382.5l-10.3,48.4c-0.7,3.3-2.7,6.1-5.4,7.8c-2.7,1.7-6,2.4-9.3,1.7l0,0c-6.7-1.4-11-8-9.5-14.7
		l10.3-48.4c0.8-4,3.5-7.1,7-8.7c2.3-1.1,5-1.4,7.7-0.8h0c4.9,1,8.6,4.9,9.5,9.5C1651.6,1379,1651.6,1380.8,1651.2,1382.5z"/>
	
		<ellipse transform="matrix(0.2077 -0.9782 0.9782 0.2077 130.4954 2704.5225)" class="st1" cx="1734.8" cy="1271.7" rx="28" ry="28"/>
	
		<ellipse transform="matrix(0.2077 -0.9782 0.9782 0.2077 221.0087 2733.8977)" class="st1" cx="1798.2" cy="1230.5" rx="28" ry="28"/>
	
		<ellipse transform="matrix(0.2077 -0.9782 0.9782 0.2077 101.1201 2795.0359)" class="st1" cx="1775.9" cy="1335.1" rx="28" ry="28"/>
	
		<ellipse transform="matrix(0.2077 -0.9782 0.9782 0.2077 191.6334 2824.4111)" class="st1" cx="1839.3" cy="1293.9" rx="28" ry="28"/>
	<path class="st1" d="M1462.6,1379.4L1462.6,1379.4c3.1,0,6,1.6,7.7,4.2c1.3,2,1.8,4.5,1.3,6.9c-0.5,2.4-1.9,4.4-4,5.8
		c-1.5,1-3.2,1.5-5,1.5c-3.1,0-6-1.6-7.7-4.2c-1.3-2-1.8-4.5-1.3-6.9c0.5-2.4,1.9-4.4,4-5.8
		C1459.2,1379.9,1460.9,1379.4,1462.6,1379.4 M1462.6,1374.2c-2.7,0-5.4,0.7-7.8,2.3c-6.6,4.3-8.5,13.2-4.2,19.8
		c2.7,4.2,7.3,6.5,12,6.5c2.7,0,5.4-0.7,7.8-2.3c6.6-4.3,8.5-13.2,4.2-19.8C1471.9,1376.5,1467.3,1374.2,1462.6,1374.2
		L1462.6,1374.2z"/>
	<path class="st1" d="M1591.2,1413.7L1591.2,1413.7c0.5,0,1,0.1,1.5,0.2c1.9,0.4,3.5,1.5,4.5,3.1s1.4,3.5,1,5.4l-10.3,48.4
		c-0.7,3.3-3.6,5.7-7,5.7c-0.5,0-1-0.1-1.5-0.2c-3.9-0.8-6.3-4.6-5.5-8.5l10.3-48.4C1584.9,1416.1,1587.9,1413.7,1591.2,1413.7
		 M1591.2,1408.5c-5.7,0-10.9,4-12.1,9.8l-10.3,48.4c-1.4,6.7,2.8,13.3,9.5,14.7l0,0c0.9,0.2,1.7,0.3,2.6,0.3c5.7,0,10.9-4,12.1-9.8
		l10.3-48.4c1.4-6.7-2.8-13.3-9.5-14.7v0C1592.9,1408.6,1592.1,1408.5,1591.2,1408.5L1591.2,1408.5z"/>
	<path class="st1" d="M1639.1,1382.6L1639.1,1382.6c0.5,0,1,0.1,1.5,0.2c3.9,0.8,6.3,4.6,5.5,8.5l-9.5,44.7l-0.8,3.7
		c-0.7,3.3-3.6,5.7-7,5.7c-0.5,0-1-0.1-1.5-0.2c-1.9-0.4-3.5-1.5-4.5-3.1c-1-1.6-1.4-3.5-1-5.4l10.3-48.4
		C1632.8,1385,1635.8,1382.6,1639.1,1382.6 M1639.1,1377.4c-5.7,0-10.9,4-12.1,9.8l-10.3,48.4c-1.4,6.7,2.8,13.3,9.5,14.7
		c0.9,0.2,1.7,0.3,2.6,0.3c5.7,0,10.9-4,12.1-9.8l10.3-48.4c1.4-6.7-2.8-13.3-9.5-14.7C1640.8,1377.5,1640,1377.4,1639.1,1377.4
		L1639.1,1377.4z"/>
	<path class="st1" d="M1734.7,1258.8L1734.7,1258.8c1.6,0,3.2,0.2,4.8,0.5c12.3,2.6,20.2,14.7,17.5,27c-2.2,10.5-11.6,18-22.2,18
		c-1.6,0-3.2-0.2-4.8-0.5c-12.3-2.6-20.2-14.7-17.5-27C1714.7,1266.3,1724.1,1258.8,1734.7,1258.8 M1734.7,1253.5
		c-12.9,0-24.6,9-27.3,22.2c-3.2,15.1,6.4,30,21.6,33.2c2,0.4,3.9,0.6,5.8,0.6c12.9,0,24.6-9,27.3-22.2c3.2-15.1-6.4-30-21.6-33.2
		C1738.6,1253.7,1736.7,1253.5,1734.7,1253.5L1734.7,1253.5z"/>
	<path class="st1" d="M1798.1,1217.6L1798.1,1217.6c1.6,0,3.2,0.2,4.8,0.5c6,1.3,11.1,4.8,14.4,9.9s4.4,11.2,3.2,17.1
		c-2.2,10.5-11.6,18-22.2,18c-1.6,0-3.2-0.2-4.8-0.5c-12.3-2.6-20.2-14.7-17.5-27C1778.1,1225.2,1787.5,1217.6,1798.1,1217.6
		 M1798.1,1212.4c-12.9,0-24.6,9-27.3,22.2c-3.2,15.1,6.4,30,21.6,33.2c2,0.4,3.9,0.6,5.8,0.6c12.9,0,24.6-9,27.3-22.2
		c3.2-15.1-6.4-30-21.6-33.2C1802,1212.6,1800,1212.4,1798.1,1212.4L1798.1,1212.4z"/>
	<path class="st1" d="M1775.9,1322.1L1775.9,1322.1c1.6,0,3.2,0.2,4.8,0.5c12.3,2.6,20.2,14.7,17.5,27c-2.2,10.5-11.6,18-22.2,18
		c-1.6,0-3.2-0.2-4.8-0.5c-12.3-2.6-20.2-14.7-17.5-27C1755.9,1329.7,1765.2,1322.1,1775.9,1322.1 M1775.9,1316.9
		c-12.9,0-24.6,9-27.3,22.2c-3.2,15.1,6.4,30,21.6,33.2c2,0.4,3.9,0.6,5.8,0.6c12.9,0,24.6-9,27.3-22.2c3.2-15.1-6.4-30-21.6-33.2
		C1779.8,1317.1,1777.8,1316.9,1775.9,1316.9L1775.9,1316.9z"/>
	<path class="st1" d="M1839.3,1281L1839.3,1281c1.6,0,3.2,0.2,4.8,0.5c6,1.3,11.1,4.8,14.4,9.9c3.3,5.1,4.4,11.2,3.2,17.1
		c-2.2,10.5-11.6,18-22.2,18c-1.6,0-3.2-0.2-4.8-0.5c-12.3-2.6-20.2-14.7-17.5-27C1819.3,1288.5,1828.6,1281,1839.3,1281
		 M1839.3,1275.7c-12.9,0-24.6,9-27.3,22.2c-3.2,15.1,6.4,30,21.6,33.2c2,0.4,3.9,0.6,5.8,0.6c12.9,0,24.6-9,27.3-22.2
		c3.2-15.1-6.4-30-21.6-33.2C1843.2,1275.9,1841.2,1275.7,1839.3,1275.7L1839.3,1275.7z"/>
	<rect x="1559.4" y="1548.1" class="st1" width="5.2" height="48"/>
	
		<rect x="1732.2" y="1436" transform="matrix(1 -8.147562e-03 8.147562e-03 1 -11.8366 14.1829)" class="st1" width="5.2" height="47.8"/>
</g>
</svg>
