<?xml version="1.0" encoding="utf-8"?>
<!-- Generator: Adobe Illustrator 21.0.2, SVG Export Plug-In . SVG Version: 6.00 Build 0)  -->
<svg version="1.1" id="Слой_1" xmlns="http://www.w3.org/2000/svg" xmlns:xlink="http://www.w3.org/1999/xlink" x="0px" y="0px"
	 viewBox="0 0 2500 2000" style="enable-background:new 0 0 2500 2000;" xml:space="preserve">
<style type="text/css">
	.st0{fill:#889FFF;}
	.st1{fill:#FF5548;}
	.st2{fill:#0029FA;}
	.st3{fill:#E9EEFF;}
	.st4{fill:#FFFFFF;}
	.st5{fill:#00156B;}
</style>
<g id="Grid">
	<path class="st0" d="M921.1,619c-9.9-1.5-19.9-2.5-29.8-3.3v-116c0-3.4-5.3-3.4-5.3,0c0,38.5,0.1,77.1,0,115.6
		c-42.5-2.7-85.6,0.1-128,1c-1-41.5-1.8-83.1-1.8-124.6c0-3.4-5.3-3.4-5.3,0c0,41.6,0.9,83.2,1.9,124.8c-52.7,1.5-105.3,9-158.1,5
		c-3.4-0.3-3.4,5,0,5.3c52.7,4,105.3-3.5,158-5c0.1,0,0.2,0,0.3,0c1.5,61.7,3.3,123.4,3.3,185.2c0,3.4,5.3,3.4,5.3,0
		c-0.1-61.8-1.8-123.6-3.3-185.3c42.2-1.4,85.5-4,127.8-1.1c0,3.4,0,6.9,0,10.3c-0.1,31-7.7,64.7,2.7,94.7c1.1,3.2,6.2,1.8,5.1-1.4
		c-10.7-30.8-2.6-66.5-2.6-98.5v-4.8c9.5,0.8,19,1.7,28.4,3.2C923,624.6,924.5,619.5,921.1,619z"/>
	<path class="st0" d="M1676,473.3c-14.4-4.6-29.5-4.4-44.5-3.9c-16.7,0.6-33.2,0.3-50,0c-12.7-0.3-25.5-0.5-38.3-0.9
		c1.1-25.8,2.1-51.5,2.3-77.3c0-3.4-5.3-3.4-5.3,0c-0.2,25.7-1.2,51.4-2.2,77.1c-23.1-1-46-2.9-68.6-8.2c-3.3-0.8-4.7,4.3-1.4,5.1
		c22.9,5.3,46.3,7.3,69.8,8.3c-1.3,31.7-2.8,63.4-2.8,95.1c0,3.4,5.3,3.4,5.3,0c0.1-31.6,1.5-63.3,2.8-94.9
		c9.8,0.4,19.7,0.6,29.5,0.8c16.9,0.4,33.7,1.2,50.6,0.6c17.2-0.6,34.8-1.9,51.5,3.4C1677.9,479.4,1679.3,474.3,1676,473.3z"/>
	<path class="st0" d="M1842.2,981.8c-16.8,0-33.6-0.3-50.3,0.5v-117c0-3.4-5.3-3.4-5.3,0v117.3c-16.3,1-32.4,3-48.4,7.3
		c-3.3,0.9-1.9,6,1.4,5.1c15.5-4.2,31.2-6.2,47-7.1v44.3c0,3.4,5.3,3.4,5.3,0v-44.6c16.7-0.8,33.5-0.5,50.3-0.4
		C1845.6,987.1,1845.6,981.8,1842.2,981.8z"/>
	<path class="st0" d="M1682.5,1403.7c-6.7-6-19.5-4.9-27.7-5c-17.5-0.2-34.9,1-52.4,1.6c-11.4,0.4-22.7-0.2-34-0.4
		c-2.1-37.8-4.2-75.6-4.3-113.5c0-3.4-5.3-3.4-5.3,0c0.1,37.9,2.2,75.7,4.3,113.5c-5.6,0-11.3,0.2-16.9,0.7
		c-27.6,2.5-54.8,8.5-82.7,7.7c-3.4-0.1-3.4,5.2,0,5.3c25.5,0.8,50.3-4.2,75.6-7c8.2-0.9,16.3-1.1,24.4-1
		c1.7,31.8,3.3,63.6,3.4,95.4c0,3.4,5.3,3.4,5.3,0c-0.1-31.8-1.6-63.6-3.4-95.4c8.7,0.1,17.3,0.4,26.1,0.2
		c15.1-0.3,30.2-1.3,45.3-1.7c9.4-0.2,31-3.6,38.7,3.4C1681.3,1409.7,1685.1,1406,1682.5,1403.7z"/>
	<path class="st0" d="M1807,1213c-12.2-13.7-36.9-10.8-53.1-9.9c-23.1,1.3-52.5,8.2-74.6-1.1c-3.1-1.3-5.8,3.3-2.7,4.6
		c18.8,7.9,41.4,4.5,61.1,3c18-1.3,51.6-8.3,65.5,7.2C1805.5,1219.3,1809.3,1215.5,1807,1213z"/>
	<path class="st0" d="M687.2,1023.5c-2-5.1-8.7-5.7-13.3-6.4c-12.1-1.8-24.7-1.5-36.9-1.2c-24.7,0.4-49.4,2.9-74.2,3.1
		c-3.4,0-3.4,5.3,0,5.3c19.9-0.1,39.9-2,59.8-2.7c11.8-0.4,23.7-0.7,35.5-0.3c3.6,0.1,22.2-0.7,23.9,3.7
		C683.3,1028,688.4,1026.7,687.2,1023.5z"/>
	<path class="st0" d="M708.5,878.5c0-3.4-5.3-3.4-5.3,0c0.1,23,1.5,45.9,2.6,68.9c0.2,3.4,5.5,3.4,5.3,0
		C710,924.4,708.6,901.5,708.5,878.5z"/>
	<path class="st0" d="M1489.9,1646.6c-40-2.2-79.2,10.3-118.9,10.4c-1.4-27.3-0.6-54.9-0.3-82c0-3.4-5.3-3.4-5.3,0
		c-0.3,27.1-1.1,54.6,0.3,81.9c-7.8-0.2-15.6-0.9-23.4-2.3c-3.3-0.6-4.8,4.5-1.4,5.1c8.4,1.6,16.8,2.2,25.1,2.4
		c1.5,24.6,5.1,49,12.8,72.6c1.1,3.2,6.2,1.8,5.1-1.4c-7.5-23.1-11-47-12.6-71.1c39.6-0.3,78.6-12.4,118.6-10.3
		C1493.3,1652.1,1493.3,1646.8,1489.9,1646.6z"/>
	<path class="st0" d="M1593.2,1641.4c-19.4-0.8-38.5,8.6-57.6,2.7c-3.3-1-4.7,4.1-1.4,5.1c19.8,6.1,39-3.4,59-2.6
		C1596.6,1646.8,1596.6,1641.5,1593.2,1641.4z"/>
</g>
<g id="Lives">
	<path class="st1" d="M1207.9,238.1c-9.4,6.1-16.9,14.5-22.4,24.3c-5.5-7.6-10.8-15.3-17.2-22.2c-14-15-36.4,7.5-22.5,22.5
		c7.8,8.3,13.5,18.2,20.5,27.1c6.5,8.3,13,15.8,16,26.1c5,17.2,31,13.9,31.2-4.2c0.2-21.7,19.4-37.5,18.2-59.8
		C1231.2,240.4,1218.5,231.2,1207.9,238.1z"/>
	<path class="st1" d="M1064.8,229.3c-14.8-5.8-25.8,7.3-32,19c-2.3,4.4-4.3,9-6.3,13.6c-3.2-5.7-6.6-12.4-10.8-18
		c1.4-7.6-4.3-15.6-11.5-17.6c-7.8-2.1-14.8,1.8-18.3,8.4c-12.1,6.6-9.9,24-1.2,35.7c0.1,1.5,0.5,3,1.2,4.7
		c10,23.4,24.9,45.2,45.8,60.2c6.4,4.6,18.6,1.1,21.6-6.2c4.3-10.6,6.8-21.4,10.2-32.3c2.5-7.9,7.1-14.8,10.6-22.4
		C1080.7,259.6,1083.8,236.8,1064.8,229.3z"/>
	<path class="st2" d="M1078.7,238.6c-4.3-11.4-16.7-13.2-27-9.3c-13.6,5.2-18.7,18.3-23.4,31c-0.6,0.2-1.2,0.5-1.6,1.1
		c-4.7-11.2-11.8-31.6-23.5-36c-11.4-4.3-24.5,9-27.7,18.9c-4.3,13.5,9.5,26.6,17.4,35.9c16.5,19.3,30.9,39.7,46.4,59.7
		c1.1,1.4,3.3,0.8,4.2-0.5c10.4-16.4,20.7-33,28.1-51C1077.4,274.4,1084.5,253.6,1078.7,238.6z M1071.9,271.7
		c-6.1,22.3-18.5,42.3-30.8,61.7c-10.2-13.5-19.4-27.7-30.2-40.7c-8.6-10.3-18.3-19.8-25.8-31c-4.7-7-6.8-12.3-2.2-20.1
		c4.6-7.8,14.1-14.7,22.4-7.9c8.2,6.7,13.4,22.4,17.5,31.9c0.7,1.7,2.4,1.6,3.5,0.8c0,0,0,0.1,0,0.1c-0.1,3.2,4.2,3.4,5.2,0.7
		c5-13.3,9.3-29.8,25.1-33.7C1079.8,227.6,1075.4,258.6,1071.9,271.7z"/>
	<path class="st2" d="M1226.9,235.5c-9.2-7.8-20.9-2.3-27.9,5.5c-5,5.6-12.2,14.5-15.8,23.1c-1.4-5-3.5-9.8-6.8-14.2
		c-3.5-4.8-12.7-15-18.8-16.4c-9.2-2.1-19.2,14.3-19.6,21.9c-0.7,13.3,16.6,26.9,24.3,35.8c11.9,13.9,19.2,34.5,37,42.1
		c1.5,0.6,3.4,0.2,3.9-1.6c4.9-19.4,18.4-34.8,26.1-53C1234.6,266.2,1239,245.8,1226.9,235.5z M1228.2,265.3
		c-4.8,22.6-22.4,39.9-29.1,61.8c-10.8-6.1-17.5-17.9-24.2-28c-5.2-7.8-11.3-14.4-17.5-21.4c-8.5-9.7-18.5-19.4-9.3-32
		c6.5-9,9.8-6.1,16.5-0.5c8.8,7.4,13.8,16.2,15.1,27.8c0.2,1.9,1.9,2.7,3.3,2.5c1.5,0.3,3.2-0.5,3.3-2.5
		c0.2-8.5,10.3-21.3,15.6-27.5c5-5.8,10.9-10,18.4-7.1C1230.5,242.3,1230,256.5,1228.2,265.3z"/>
	<path class="st2" d="M1366,234.5c-7.7-12.3-21.6-16.8-33.5-7.4c-6.8,5.4-14.5,15.6-17.5,25.2c0-0.3,0-0.7-0.1-1
		c-2.9-10.7-7.3-24-20.8-22.4c-11.4,1.3-19,10.9-19,22c0,13.5,7.7,27.8,13.6,39.6c6.8,13.8,14.9,28.8,27.1,38.5c1.2,1,2.5,1,3.7,0
		c15.9-13.3,25.2-33.2,37.9-49.2C1368.2,266.1,1376.3,251,1366,234.5z M1363.2,261.4c-4.4,10.3-12.8,18.3-19.2,27.3
		c-6.8,9.8-12.7,20.4-20.6,29.3c-3.4,3.8-3.8,5.7-7.7,3.8c-3.8-1.9-7.3-8.4-9.6-11.8c-5.5-8.1-10.2-16.8-14.4-25.6
		c-4.3-9.1-9.2-19-10.7-29c-1.6-10.5,2.6-18.7,13.7-19.8c7.5-0.8,8.7,0.9,11.9,7.3c1.5,3.1,2.3,6.5,3.3,9.8c0.7,2.6,4.1,2.2,5,0.3
		c-0.6,1.9-1,3.8-1.1,5.6c-0.2,3.4,5.1,3.4,5.3,0c0.5-8.1,8.3-18.6,13.6-24.3C1351.5,214.5,1371.1,242.6,1363.2,261.4z"/>
</g>
<g id="Gameboy">
	<g id="Box">
		<path class="st2" d="M1090.4,519.3c6.4-7.9,12.7-15.9,19.1-23.8c-4.7,8.7-9.3,17.5-14,26.1c-0.1,0.1-0.1,0.1-0.1,0.2
			c-20.9,38.3-45.9,74.4-70.7,110.2C934.8,762,842.8,890.8,755.3,1022.5c-20.5,30.9-40.8,61.7-62.9,91.5c-23,31-46.9,61.4-69.9,92.4
			c-35.1,47.5-63.6,99.3-96.3,148.3c-1.3,2-2.7,4.1-4.1,6.1c-0.7-2.6-1.2-5.4-1.2-8.2c2.2-3.2,4.2-6.5,6.3-9.7
			c12.9-20.3,25.2-41.1,37.9-61.6c21.5-34.7,45.2-67.8,69.8-100.3c23.7-31.3,47.9-62.1,70.7-94.1c22.6-31.7,43.3-64.7,65.1-97
			C815,924.4,860.8,859.8,906,794.9c45.5-65.5,91.2-131,135.8-197.2c10.4-15.5,20.5-31.1,30.2-46.9
			C1078.3,540.4,1084.4,529.9,1090.4,519.3z"/>
		<path class="st2" d="M1729.4,730.8c-0.4-0.3-0.8-0.6-1.3-0.9c-0.4-0.3-0.9-0.6-1.3-0.9c-22.3-16-43.5-33.3-65.4-49.9
			c-38.3-28.8-79.7-52.6-122.1-74.8c-44.6-23.3-89.7-45.7-134.5-68.6c-22.8-11.6-45.4-23.4-67.5-36.1c-20.3-11.7-39.5-26-60.4-36.6
			c-24.7-12.5-55.6-19.9-81.6-33.4c-1.7-0.8-3.3-1.7-4.9-2.6c-3.6-0.6-7-0.7-10.3-0.4c3.1,2.1,6.4,4,9.7,5.7
			c20.8,11.1,44.7,18.1,65.2,26.6c19.7,8.2,36.6,19.2,54.7,30.3c22.6,14,45.9,26.8,69.4,39.2c87.6,45.8,181.2,84.8,262,142.2
			c24.9,17.7,48.4,37.2,72.9,55.4c4.2,3.1,8.5,6.3,12.8,9.3c1.5,1.1,3.1,2.2,4.6,3.2c1.2,0.8,2.4,1.6,3.7,2.5
			C1732.7,737.8,1730.8,734.5,1729.4,730.8z"/>
		<path class="st2" d="M1745.2,814.6c-12.6,18.7-30.6,44.6-42.2,63c-22.8,35.9-43.8,72.9-66.8,108.7
			c-47.5,73.9-98.3,145.5-144.8,220c-45.3,72.6-89.6,145.4-140.9,214.2c-24.2,32.5-48.9,64.4-71.8,97.8
			c-24.3,35.5-48.2,71.5-76.1,104.4c-37,43.7-79.9,98.9-138.3,109.8c-3.5,0.7-7.2,1.2-10.9,1.5c3.5,1.4,7,2.7,10.6,4
			c3.5-0.6,6.9-1.4,10.3-2.3c42.9-11.7,77.2-46.4,106.7-79.9c25-28.4,48.6-57.5,70.4-88.4c25.3-35.9,49-72.9,75.8-107.7
			c52.8-68.3,100.9-139.5,145.7-213.3c47.5-78.2,98.4-154.4,149.8-230.1c27.7-40.8,52.2-83.5,78.3-125.4
			c12.8-20.6,29.6-48.2,43.9-67.7c0.8-1.1,1.6-2.3,2.5-3.5c0.1-0.7,0.2-1.3,0.2-1.9C1746.8,816.6,1746,815.6,1745.2,814.6z"/>
		<path class="st2" d="M1730.1,737.2c-1.6-0.4-2.6-1.4-3.3-2.6c-0.1,0.2-0.1,0.5-0.2,0.7c-8.5,29.5-24.1,56.8-40.8,82.3
			c-22.1,33.9-47.6,65.5-72.2,97.5c-24.6,32-46.8,65.7-70.5,98.3c-27.9,38.4-56.7,76-84.6,114.4
			c-105.2,145.1-180.8,310.8-296.9,448.1c-24.9,29.5-50.4,60.9-80,85.7c-31.8,26.6-68.6,36.8-109.1,25.6c-0.4-0.1-0.8-0.1-1.2-0.1
			c-20.6-10.1-40.9-21-59.7-34.2c-21.6-15.3-42-32.4-62.9-48.7c-38.4-29.8-77-59.4-116.9-87.3c-42.1-29.5-85.6-56.8-127.7-86.2
			c-21.8-15.2-75.2-42.9-78-76c-0.3-3.5,0-7.1,1-10.7c0.1-0.4,0.1-0.8,0.1-1.1c-0.4-2.4-4.4-3-5.2-0.1c-0.8,3.3-1.2,6.6-1.1,9.8
			c0.1,2.8,0.5,5.6,1.2,8.2c4.1,15.9,18.3,29.5,30.6,39.6c29.4,24,62.3,44.7,93.7,66c37.1,25,74.8,49,110.9,75.3
			c34.4,25.1,68.1,51.1,101.6,77.3c17.9,14,35.3,28.7,54.1,41.4c19.7,13.4,40.8,24.4,62.3,34.7c1.4,0.6,2.6,0.1,3.3-1
			c27.9,6.2,55.7,3.4,81.2-10.9c28.1-15.7,50-40.6,71-64.5c58.5-66.1,109.6-136.2,156.4-211.1c49.5-79.1,94.7-161.3,147.9-238.1
			c29.2-42.2,60.3-83.1,90.9-124.3c26.8-36.2,51.7-73.7,78.6-109.8c26.2-35,54.1-68.7,78.7-104.9c19.3-28.3,37.8-58.9,47.7-92
			c0.1-0.4,0.2-0.8,0.3-1.2C1731.1,737.4,1730.6,737.3,1730.1,737.2z"/>
		<path class="st2" d="M974.1,1619.1c-2.2-10.7-0.5-21,0-31.9c1.2-26.2,0.9-52.7,1.4-78.9c0.1-3.4-5.2-2.8-5.3,0.6
			c-0.4,27.3,0.1,54.9-1.6,82.2c-0.5,7.7-1.8,15.5-0.8,23.2c0.8,5.9,4.6,13.5,3.9,19.3c-0.4,3.4,4.8,4.2,5.2,0.8
			C977.6,1629.6,975.1,1623.8,974.1,1619.1z"/>
		<path class="st2" d="M1015.7,1626.5c-0.5-8.8-4.9-16.5-5.8-25.3c-1.3-13.1,1.1-27.3,1.4-40.6c0.2-8.6,0.5-17.3,0.4-25.9
			c-0.1-9.3-2-20.1,2.6-28.6c1.6-3-3.2-5.2-4.8-2.2c-7.7,14.3-3,38.4-3.4,53.9c-0.3,12.2-1.3,24.4-1.5,36.6
			c-0.2,11.7,5.2,21.2,5.8,32.6C1010.6,1630.5,1015.8,1629.9,1015.7,1626.5z"/>
		<path class="st2" d="M1055.6,1623c-9-40.9-2-82.4-0.7-123.7c0.1-3.4-5.1-4.2-5.2-0.8c-1.4,41.8-8.4,83.7,0.7,125.1
			C1051,1626.9,1056.3,1626.3,1055.6,1623z"/>
		<path class="st2" d="M1086.6,1560.9c2.1-10.1,4.4-20.2,5.2-30.5c0.8-10.1,0.2-20.2,1.4-30.3c0.4-3.4-4.8-4.2-5.2-0.8
			c-1.3,10.9-0.5,21.8-1.6,32.7c-1.2,11.2-3.9,22.2-6,33.2c-3.9,20-4.2,39.8-3.5,60.1c0.1,3.4,5.4,2.8,5.3-0.6
			C1081.4,1602.9,1082.2,1582.1,1086.6,1560.9z"/>
		<path class="st2" d="M1195.2,429.8c0.3,1.7-1,3.8-3.1,3.2c-0.8-0.2-1.6-0.4-2.4-0.6c-27.3-5.2-44.8,26.1-58.8,44.5
			c-11.5,15.1-23.5,29.9-35.4,44.7c-0.1,0.1-0.1,0.1-0.1,0.2c-7.8,9.6-15.7,19.3-23.4,29c6.4-10.4,12.5-20.8,18.4-31.5
			c6.4-7.9,12.7-15.9,19.1-23.8c10-12.6,19.9-25.3,29.6-38.2c10.4-13.9,23.8-28.4,41-30.5c3.3-0.3,6.7-0.3,10.3,0.4
			c1,0.2,2,0.4,3,0.7C1194.4,428.1,1195,428.9,1195.2,429.8z"/>
		<path class="st2" d="M1294.8,1415.3c-1,17.8-3.1,35.6-5.7,53.1c-1.8,12-2.9,32.4-9.9,44.9c0.3-30.2,8-59.9,6.9-90.2
			c-0.1-2.5-3.7-3.8-4.9-1.3c-8.9,17.2-12.5,35.6-15,54.4c0.2-10.5-0.9-21-4.5-31.5c-0.9-2.6-4.2-2.5-5.1,0
			c-15,40.2-10.2,84.7-24.8,124.8c-2.3-5.1-3.4-10.9-3.6-16.9c1-13.3,2.6-26.5,4.3-39.7c1.9-11.5,4-23.1,4.1-34.8c0-3.5-5-3.3-5.3,0
			c-1.4,15.5-3.9,30.9-5.8,46.4c-0.3,2.2-0.6,4.5-0.9,6.7c0.8-10.3,1.4-20.5,1.5-30.9c0-3-4.5-3.6-5.2-0.7
			c-10.5,41.9-12.5,85.5-23.9,127.1c2.4-26,9.5-52,2.9-77.8c-0.6-2.4-4.7-2.7-5.1,0c-3.5,21.4-12.3,41.6-15.1,63.2
			c-1.9,14.4-0.3,34.7-8.5,47.8c-8.5-28.9,9.6-61.2,9-90.5c-0.1-2.9-4.5-3.7-5.2-0.7c-5,21.1-10.1,42.9-13,64.4
			c-1.9,13.7-1.7,31.2-7.9,44.5c1.5-30,15.6-60.7,7.1-90.1c-0.6-2.1-3.7-2.7-4.8-0.6c-18.2,33-11.3,72.7-25.8,106.7
			c-1.3-4.9-1.5-10.1-1-15.3c3.8-12.5,6.3-25.6,8.8-38.6c2.8-10,5.4-20,6.5-30.4c0,0,0,0,0-0.1l0,0c0-0.2,0.1-0.5,0.1-0.7
			c0.3-3-4.5-3.5-5.2-0.7c-2.1,8-3.7,16.3-5.3,24.8c-4.5,15.4-10.2,31.6-10.7,46.9c-3.4,10.6-8,20.6-14.4,29.5
			c-7.3-27.1,10.6-57.9,12.6-84.9c0.2-3.2-4.2-3.3-5.2-0.7c-11.7,32.1-15.1,66.7-26.6,98.8c1.1-25.8,7-51.1,10.5-76.8
			c0.5-3.3-4.6-4.8-5.1-1.4c-1.2,8.8-2.7,17.6-4.2,26.5c-1.2-0.2-2.4,0.3-2.8,1.8c-3.9,13.9-0.7,37.3-10.6,49.4
			c-0.9-13.7,2.9-27.3,4.5-41c0.4-3,0.7-6.1,0.7-9c0-3.4-5.2-3.4-5.3,0c0,2.2-0.2,4.5-0.4,6.7c-1.4,11.9-6.6,24.4-15.7,32
			c0.5-9.5,1.4-19,1.9-28.6c0.2-3.4-5.1-3.4-5.3,0c-0.6,11.3-1.8,22.6-2.2,33.9c-0.1,2,2.3,3.3,4,2.3c5.4-3.2,9.9-7.8,13.4-13.2
			c-1,7.7-1.5,15.4-0.3,23.2c0.2,1.6,2.6,2.5,3.9,1.6c3.5-2.6,6-5.9,7.8-9.6c-0.3,5.4-0.4,10.7-0.2,16.2c0.1,2.4,3.8,3.9,4.9,1.3
			c5.5-12.4,9.5-25.3,12.8-38.4c0.3,5.5,1.3,10.9,3.4,16.2c0.6,1.6,3,2.9,4.4,1.2c6.1-7.6,10.7-16,14.4-24.9
			c0.7,3.5,1.7,6.9,3.3,10.2c0.8,1.8,3.7,1.7,4.6,0c16.8-33.1,10.2-72.4,25.1-105.8c4.9,29.8-10.5,60.9-9,91c0.1,2.1,3,3.8,4.5,1.9
			c7.7-9.3,10-21.6,11.5-33.6c0.7,3.7,1.6,7.3,3.1,10.9c0.7,1.7,3,2.8,4.4,1.2c10.1-11.3,10.3-29.6,11.6-43.9
			c2-20.5,8.6-39.6,13.2-59.4c2.3,27.1-7.1,54.5-6,81.8c0.1,3.1,4.2,3.5,5.2,0.7c12.8-35.5,16.4-73,22.6-110
			c-2.4,26.5-6.1,52.8-7,79.4c-0.1,2.6,3.8,3.7,4.9,1.3c7-14.2,9.1-30,10.3-45.7c0.8,1.8,1.8,3.6,3,5.3c1.4,2,3.9,1.5,4.8-0.6
			c16.1-38.8,12-82.1,24.1-121.9c7.2,32.3-6.6,65.5-6.5,98.2c0,3.1,4.2,3.4,5.2,0.7c14.3-37.7,8.9-80.1,23.2-117.6
			c-1,28.6-8,56.7-6.9,85.4c0.1,2.3,2.8,3.5,4.5,1.9c11.7-11.1,13-35.5,15.3-50.2c3-19,5.3-38.3,6.3-57.6
			C1300.3,1411.9,1295,1411.9,1294.8,1415.3z M1218,1597.7c1.3-17.4,3.4-34.8,5.1-52.2c0,0.2,0,0.4,0,0.6c-0.1,1.4-0.2,2.7-0.3,4.1
			C1221.9,1565.8,1221.7,1582.3,1218,1597.7z"/>
		<path class="st2" d="M1321.4,1370.5c-3.5,17.1-2.9,35.2-4.2,52.6c-0.8,11.2-1.8,22.5-3.9,33.6c-1.1,5.6-2.3,14.1-6,19.6
			c-0.9-36.3,4.5-72.3,5.2-108.5c0.1-3.4-5.2-3.4-5.3,0c-0.7,38.3-6.8,76.3-5,114.7c0.1,2,2.2,3.4,4,2.3c13.4-8,13.7-33.2,15.1-46.7
			c2.3-21.7,0.9-44.6,5.3-66C1327.1,1368.5,1322,1367.1,1321.4,1370.5z"/>
		<path class="st2" d="M1328.3,1337.6c0.6,32.2-4.2,64.2-5.1,96.4c-1.3,0.6-2.3,2.1-1.6,3.8c0.5,1.8,1,3.5,1.4,5.3
			c0.4,3.3,5.3,3.5,5.3,0c0.1-35.3,5.9-70.3,5.3-105.5C1333.6,1334.2,1328.3,1334.2,1328.3,1337.6z"/>
		<path class="st2" d="M1570.4,1006.7c-6.9,29.7-2.6,63.9-16.1,91.8c-0.5-27.6,5.5-54.9,8.9-82.2c0.4-3.4-4.9-3.3-5.3,0
			c-1.2,9.8-2.8,19.5-4.2,29.3c-1.3,0.1-2.6,0.9-2.8,2.5c-2.7,20-5.7,40-8.8,60c-1.7,10.7-1.7,23.6-5.6,34.3
			c-1-24.1,1.5-48,5.5-71.7c1-4.4,2.1-8.8,3.4-13.1c0.3-1,0-1.8-0.6-2.4c2.9-14.6,6.1-29.1,9.4-43.5c0.8-3.3-4.4-4.7-5.1-1.4
			c-4.5,19.8-9,39.7-12.4,59.8c-3.9,17-6.1,34.4-9.3,51.6c-2.4,12.8-3.7,38.6-13.7,49c-2.3-5.3-3.9-10.9-4.8-16.7
			c3.3-20,6.8-39.8,8.3-60.1c0.1-2-1.6-2.8-3.1-2.4c3.1-13.9,7.2-27.6,11.8-41c1.1-3.2-4-4.6-5.1-1.4c-4.3,12.5-9.1,26.8-12.8,41.7
			c0.6-8.7,0.4-17.3-1-25.9c-0.4-2.6-4.5-2.4-5.1,0c-7.7,30.2-12.5,61-18.1,91.7c-4.4,24.2-4.1,52.4-14.2,75.2
			c-8.1-45.1,12-89.1,15.4-133.9c0.2-3.1-4.3-3.4-5.2-0.7c-9.9,29.8-15.6,62.5-18.8,93.7c-2.5,24.7-1.9,52.9-12.7,76
			c-0.2-42.9,10.8-85,10.2-127.9c0-2.5-3.7-3.8-4.9-1.3c-11.8,24.4-10.5,55.9-13,82.5c-2.5,26.5-2.8,55.1-11.5,80.7
			c4.4-32.3,2.9-65.6,5.7-98.2c0.9-7.8,1.9-15.5,2.9-23.3c0.4-2.9-4.7-3.6-5.2-0.7c-1.2,7-2,14.1-2.7,21.2
			c-2.7,21.8-5.3,43.6-8.7,65.4c-2.4,15.1-5.8,33,0.7,47.5c-1.9,9.4-4.4,18.7-7.9,27.8c-7.4-39.9,3.3-82.8,9.6-122
			c0.5-3.3-4-4.7-5.1-1.4c-16.1,46.1-18.3,95.5-31.8,142.3c1-33.4,9.3-66.5,6.5-100.1c-0.2-2.4-3.6-3.9-4.9-1.3
			c-11,21.2-11.9,46.3-13.8,69.7c-1.4,17.8-1.4,45.7-14.3,60.6c-0.8-10.1-0.7-20.2,0.1-30.2c4.8-22,7.7-44.5,8.6-67.1
			c0.1-3.5-4.9-3.3-5.3,0c-2.6,22.1-6.9,44.2-8.6,66.4c-3.6,16.5-8.3,32.7-14,48.6c1.6-33.5,10.5-66.3,12-99.9
			c0.2-3.4-5.1-3.4-5.3,0c-1.7,38.6-13.2,76.1-12.2,114.8c0.1,3.2,4.1,3.4,5.2,0.7c5.3-13.2,9.8-26.7,13.7-40.3
			c0.2,4.3,0.5,8.5,1,12.8c0.3,2.4,2.6,3.4,4.5,1.9c14.8-11.6,16.6-35.6,18.5-52.9c2.6-23.6,1.9-49.7,10-72.4
			c0.5,35.2-8.8,69.9-6.9,105.1c0.2,3,4.2,3.5,5.2,0.7c11-30.7,15.6-63,21.4-94.9c-2.6,23.1-3.1,46.3,2.6,68.5
			c0.5,2,3.9,2.8,4.8,0.6c4.8-10.8,8.1-21.8,10.5-33.1c0.9,0,1.8-0.3,2.3-1.3c10.6-21.8,13.3-46.6,15.3-70.7
			c-0.7,10.4-1,20.8-0.5,31.3c0.1,2.7,3.5,3.6,4.9,1.3c10-15.4,13.3-34.1,15.2-52.6c0.6,5,1.4,10,2.6,15.1c0.6,2.2,3.7,2.6,4.8,0.6
			c13.3-23.3,12.5-52.6,17.2-78.4c4.8-26.4,9.1-52.9,14.9-79.1c-0.4,14-3.3,28-5.9,41.7c-2.5,13.1-4,26.4-6.5,39.6
			c-2.9,15.6-12.6,46,1.2,58.9c1.3,1.2,3.2,1,4.2-0.5c10-16.3,7.8-37.1,10.6-55.3c0-0.1,0-0.3,0.1-0.4c1.1,3,2.2,5.9,3.7,8.7
			c0.6,1.2,2.5,1.7,3.6,1c12.2-8.6,12.8-27,15.6-40.3c0.5-2.2,0.9-4.3,1.3-6.5c0,7.2,0.2,14.5,0.8,21.7c0.2,2.7,3.4,3.5,4.9,1.3
			c8.8-12.1,8.2-29.9,10.4-44.1c0.6-3.9,1.2-7.9,1.8-11.8c0,3.5,0.2,7,0.4,10.4c0.2,2.6,3.5,3.6,4.9,1.3
			c19.3-29.7,13.4-68.1,21.2-101.3C1576.2,1004.8,1571.1,1003.4,1570.4,1006.7z M1424.1,1300.9c-2.2-13,1.1-27.8,3.3-40.7
			C1426.9,1273.9,1426,1287.5,1424.1,1300.9z M1445.8,1224.5c1-10.4,2.2-20.7,3.1-31.1c1-12.4,1.4-25.3,4.2-37.6
			C1451.9,1178.8,1448.3,1201.7,1445.8,1224.5z M1501.7,1166.6c-2.5,16.4-0.9,35.4-8.3,50.5c-5.5-9.2-1.9-25.5-0.4-34.7
			c1.5-9.3,3.6-18.5,4.9-27.8c1.1-7.7,2.6-15.6,4.1-23.5c-0.3,8.2,0.2,16.2,1.6,24C1502.9,1159,1502.2,1162.8,1501.7,1166.6z"/>
		<path class="st2" d="M1745.5,763.3c-3.8,8.2-6.7,16.6-9.2,25.3c0.5-6.9,0.9-13.9,1.3-20.9c0.2-3.2-4.2-3.3-5.2-0.7
			c-2,5-3.7,10.1-5.2,15.3c-0.9-1.5-3.5-1.5-4.6,0.1c-26.8,37.9-19.1,87.4-37,128.4c2.9-35.7,12.6-70.5,18.8-105.7
			c0.6-3.3-4.5-4.8-5.1-1.4c-3.8,21.6-8.9,43-13,64.5c-1.2-1.5-4-1.6-4.7,0.8c-9.7,33.5-11.8,69.4-25.9,101.6
			c-4-16.1,4.4-37.1,7.9-52c6-25,11.1-50.4,13.7-76.1c0.3-2.7-3.7-3.4-4.9-1.3c-26.7,44.3-17.5,100.1-40.3,145.6
			c-0.1-7.2,0-14.3,0.4-21.4c1.6-12.2,2.7-24.6,4.1-36.9c3-19.9,7.2-39.7,11.4-59.3c0.7-3.3-4-4.6-5.1-1.4
			c-6.2,18.2-8.9,37.4-11,56.6c-2.3,14.2-4,28.5-4.7,42.9c-2.3,16.8-5.8,33.2-12.3,48.9c1.1-22.7,3.8-45.1,7.2-67.6
			c3.4-22,11.5-43.3,11.9-65.7c0.1-3.2-4.2-3.4-5.2-0.7c-19.8,51.3-19,107.5-35.5,159.6c0.1-20.7,2.9-41.7,7.1-61.8
			c4.1-19.5,9.4-39.4,7.6-59.5c-0.2-2.4-3.6-3.9-4.9-1.3c-8.2,16.4-13.7,33.6-17.8,51.3c-1.4-1.3-3.9-1.4-4.3,1
			c-5,33.5-9.4,67-12.5,100.6c-0.3,3,4.6,3.6,5.2,0.7c8.9-46.7,10.4-96.5,29.3-140.7c-0.6,18.4-5.8,36.5-9.3,54.5
			c-4.4,22.8-6.8,46.7-5.3,69.9c0.2,3.1,4.1,3.5,5.2,0.7c10.5-26.9,15.2-55.3,19.7-83.6c-2.3,18.5-3.9,37.1-4.2,55.8
			c0,2.6,3.7,3.7,4.9,1.3c6-11.2,10-22.9,13-34.9c0,0.3,0,0.7,0,1c0.1,2.6,3.5,3.6,4.9,1.3c26.2-42.7,18.7-96.3,38.3-141
			c-3.3,23.9-8.6,47.5-14.4,71c-3.8,15.3-10.2,35.7-2.7,50.8c0.9,1.7,3.7,1.7,4.6,0c15.3-31.2,18.2-66,26.6-99.2
			c-2.4,14.5-4.3,29.1-4.7,43.9c-0.1,2.7,3.6,3.5,4.9,1.3c23.6-39.7,15.1-90,36.8-130.1c-3.4,33.8-11.4,67-19.9,99.9
			c-0.9,3.3,4,4.6,5.1,1.4c12.2-35.1,14.6-72.7,24.7-108.3c-1.5,21.9-3.4,43.8-3.7,65.8c-0.1,3.4,5.2,3.4,5.3,0
			c0.6-21.5,2.9-43.5,8.9-64.3c0.6,2,4.1,2.4,5.2-0.1c3.2-8.1,3.8-15.8,3.7-24.5C1750.4,762.2,1746.7,760.8,1745.5,763.3z
			 M1625,911.4c-1.6,7.6-3.4,15.3-5.1,22.9C1621.4,926.6,1623.1,919,1625,911.4z"/>
		<path class="st2" d="M1074.3,1735.6c-3.4,0.9-6.8,1.7-10.3,2.3c-3.5-1.3-7.1-2.6-10.6-4c-4.3-1.7-8.6-3.4-12.9-4.9
			c-12.9-4.6-25.9-9.1-38.6-14c-6.3-2.4-12.6-5.1-18.2-8.8c-5.1-3.3-9.2-8.7-14.9-10.8c-3.1-1.2-2-6.4,1.2-5.2
			c10.4,3.9,17.7,13,28.1,17.6c13.4,5.9,27.5,10.4,41.3,15.3c8.2,2.9,16.5,6.4,24.8,9.3C1067.6,1733.6,1070.9,1734.7,1074.3,1735.6z
			"/>
		<path class="st2" d="M1749.8,773.1c-2.9-14-8-32.3-20-41.4c-2.7-2-6.4,1.8-3.6,3.9c10.6,8,15,23.5,17.9,35.9
			c3.2,13.8,5.9,31.6-1.5,44.6c-1.7,3,3,5.5,4.7,2.5C1754.8,805.2,1752.8,787.6,1749.8,773.1z"/>
		<path class="st2" d="M1051.1,1703.2c0.2,7-0.9,14.6-5,20.3c0.3-10.9,1.8-21.8,1.5-32.7c-0.1-3.4-5.4-3.4-5.3,0
			c0.1,3.9,0,7.8-0.2,11.7c-1.3-0.5-2.9-0.1-3.2,1.7c-1.2,6.9-3.3,13.5-7,19.4c-2.4-9.4,1.4-21.4,1.6-30.5c0.1-2.9-4.8-3.7-5.2-0.7
			c-0.7,4.8-2,9.3-3.8,13.7c-0.4-3-0.4-6.1-0.2-9.2c0.1-2.2-3-3.6-4.5-1.9c-3.6,4.3-6.3,10.9-10.9,14.5c-0.1-6.3-0.1-12.5-0.1-18.8
			c0-3.4-5.3-3.4-5.3,0c0,7.8-0.1,15.5,0.2,23.3c0.1,1.6,1.7,3.2,3.4,2.6c5.8-2.2,8.9-6.9,12.1-11.7c0.3,3.5,0.9,7,2.1,10.4
			c0.7,2,3.8,2.8,4.8,0.6c-0.1,5.1,0.5,10.1,2.9,14.6c0.8,1.4,3.1,1.8,4.2,0.5c3.7-4.5,6.2-9.5,8.1-14.8c-0.3,4.6-0.5,9.2-0.4,13.8
			c0.1,1.8,2.3,3.6,4,2.3c9.1-7,12-18.1,11.7-29.2C1056.3,1699.8,1051,1699.7,1051.1,1703.2z"/>
	</g>
	<g id="Buttons">
		<path class="st3" d="M1086.4,1177.7c-9-5.5-19.9-6-30.1-3.3c-4.7-2.4-10.2-3.4-15.8-2.4c-11.8,2.1-20.2,10.9-24.5,21.8
			c-4.8,12.3-5.2,28.8,1.6,39.9c6.6,16.4,24.2,26.2,40.4,17.6c13.4-2.4,26-11.8,33.5-22.6C1102,1213.5,1104.2,1188.7,1086.4,1177.7z
			"/>
		<path class="st3" d="M1204.6,1292.5c-9-5.5-19.9-6-30.1-3.3c-4.7-2.4-10.2-3.4-15.8-2.4c-11.8,2.1-20.2,10.9-24.5,21.8
			c-4.8,12.3-5.2,28.8,1.6,39.9c6.6,16.4,24.2,26.2,40.4,17.6c13.4-2.4,26-11.8,33.5-22.6
			C1220.2,1328.3,1222.4,1303.4,1204.6,1292.5z"/>
		<path class="st3" d="M933.7,1118.7c-2.1-2.5-3.8-4.8-4.1-5.9c-5.1-16.6,6.2-24.2,13-36.5c2.7-4.9,3-9.5,1.9-13.4
			c3-6.9,4.6-14.7,4-24.1c-0.1-1.6-0.4-3.2-0.9-4.7c-9.1-5.8-18.1-11.6-26.6-18.1c-6.2-4-12.4-8-18.6-11.9c-0.8,0.6-1.6,1.4-2.3,2.2
			c-2.7,3.1-5.2,6.6-7.6,10.2c-3.6,0.4-7.1,1.8-10.1,4.3c-12.6,11.1-23.3,25.3-31.4,40.3c-8.9-5.4-20.6-16.7-28-18.6
			c-1.3-0.3-2.6-0.5-4-0.7c-9.7-10.7-20.9-4.6-31.1,6.8c-4.6,3-8.8,6.7-12.3,11.3c-5.9,7.5-9.3,15.4-10.8,23.2
			c-0.2,0.5-0.4,1.1-0.6,1.6c-1.9,3.5-3.5,6.4-4.6,8.5c-4.7,8.2-2.1,19.5,6.4,24.3c3.3,1.9,6.5,3.7,9.6,5.3c1,3.6,2.9,6.8,5.4,9.4
			c0.4,5.3,3,10.6,8.3,13.9c1.5,1,2.9,2.1,4.2,3.2c-3.2,6.2-6.2,12.5-9.2,18.7c-10.5,10.2-19.1,23.5-17.7,35.8
			c1.9,16,24.9,40.1,41.4,40.4c20,0.5,32.6-23.5,40.6-38.2c5.1-9.4,10.2-18.4,15.5-27.2c4.8,11.7,17.4,21.1,30.9,23.9
			c21,4.4,34.2-1.7,40.5-11.9c21.3-10.8,29.1-46.5,12.1-63.6C943.8,1123.3,939.1,1120.6,933.7,1118.7z"/>
		<path class="st3" d="M915.1,1381.4c-12.7-11.3-36.9-13.8-56.2-8.8c-4.2-0.4-8.4-0.5-12.6-0.1c-12.2,1.2-15.6,15.3-10.1,22.5
			c3.4,7.3,13.9,12.2,22.1,5.4c0.5-0.4,1.3-0.8,2.2-1.2c15,1.6,29.9,6.5,45.3,4.8C916.1,1402.9,924.5,1389.8,915.1,1381.4z"/>
		<path class="st3" d="M930.6,1264.6c-21.5-7.2-44.8-6-67.2-6c-23.9,0.1-23.9,37.2,0,37.1c19.1-0.1,38.9-1.5,57.3,4.6
			C943.5,1307.9,953.2,1272.1,930.6,1264.6z"/>
		<path class="st2" d="M952,1041c-17.5-12.5-34.4-25.8-51.7-38.5c-2-1.5-4.3-0.6-5.4,0.9c-1.1,0-2.2,0.5-3,1.7
			c-11.1,19.6-26.4,36-39.8,54c-11.9,16-21.3,33.5-32.3,50.1c-11.3,17-23.4,33.4-35.1,50.1c-9.3,13.4-19.4,27-22.2,43.5
			c-0.2,1.2,0,2.6,1,3.4c17,13.6,34.9,25.8,54.3,36c1.4,0.8,3.1,0.4,4.3-0.7c11.9-11.6,19.4-26.1,26.7-40.9
			c9.5-19.3,20.4-35.9,33.8-52.8c25.2-31.8,54.3-64.8,70.9-102.1C954.3,1043.9,953.7,1042.2,952,1041z M867.5,1155.7
			c-10.7,13.8-18.4,28.5-26.1,44.1c-4.5,9.1-9.1,18.2-15.2,26.4c-9.1,12.3-16.5,4-27.4-2.9c-7-4.4-27.5-14.1-28.7-23.1
			c-1-8.1,10.7-22.6,15-29c11.5-17.1,23.8-33.6,35.5-50.6c13.9-20.2,25.4-41.9,40.3-61.3c12.6-16.5,26.3-31.9,36.7-49.9
			c16.1,11.9,32,24.1,48.2,35.9C927,1085.8,894.6,1120.6,867.5,1155.7z"/>
		<path class="st2" d="M960.7,1134.9c-3.4-6-11.6-9.5-16.9-13.2c-12-8.3-23.2-17.6-34.9-26.4c-21.3-16-43.2-32-67.1-44.1
			c-5.3-2.7-40.7-15.8-40.9-21.1c-0.1-4.6-7.2-4.3-7.1,0.3c0,0.3,0.2,0.7,0.3,1c-0.5,0.1-1,0.4-1.5,0.8
			c-15.7,13.2-27.2,32.4-36.3,50.7c-5.8,11.7-5.7,20.8,3.6,30.6c32.4,34.2,82,51.7,120,78.9c8.9,6.4,28.8,23.4,41.2,16.9
			c4.1-2.2,5.5-7,7.6-10.9c6.3-11.9,13.1-24.1,20.8-35.2C954.9,1155.4,966.5,1145.4,960.7,1134.9z M940.8,1163.4
			c-6.5,10-11.5,24.9-19.3,33.6c-9.6,10.6-21.6,0.8-31.5-5.9c-20-13.6-39.6-26.8-60.7-38.9c-11.6-6.6-23.3-13.2-34.5-20.5
			c-10.1-6.6-28-16.2-33.9-27.8c-5.7-11.1,4.6-23.1,9.9-32.2c7.6-12.8,15.4-24.9,26.9-34.6c0.1-0.1,0.1-0.1,0.2-0.2
			c4.6,3.7,11.8,6.4,15.1,8.2c13,6.7,26.3,12.4,38.9,19.8c25.5,15,49,33.2,72.4,51.2c7.1,5.4,18.1,10.6,24.1,17.2
			C959.7,1145.6,947.2,1153.6,940.8,1163.4z"/>
		<path class="st2" d="M1086.2,1182c-2.1-2.9-4.7-5.6-7.7-7.8c-15-11-31-8.1-47.9-4.4c-2.1,0.5-2.2,2.7-1.2,4.1
			c-25.3,18.8-24.4,66.7,0.3,80.1c-0.2,1,0.2,2,1.4,2.5c21.6,9.8,50.8,3.7,63.2-17.8C1106.4,1217.5,1101.1,1197.5,1086.2,1182z
			 M1038.6,1174.5c0.7-0.3,1.1-0.7,1.3-1.3c11.5-2.1,23-2.8,33.2,3.6c0.1,0.5,0.3,0.9,0.8,1.3c3,2.3,5.8,4.8,8.3,7.4
			c3.9,5.8,5.6,12.8,5.3,20c-0.9,19.1-14.8,39.9-33.7,45.1C1009.4,1263.1,1003.6,1189.5,1038.6,1174.5z M1091.3,1232.9
			c-6.8,13.8-20.7,21.6-35.3,22.7c22-6.5,37.9-31.6,36.9-54.1c0-0.2,0-0.4-0.1-0.6C1096.9,1210.5,1097,1221.2,1091.3,1232.9z"/>
		<path class="st2" d="M1207.8,1292.8c-1.3-2.2-4.1-1.2-4.7,0.7c-16.7-17.8-46.9-14.4-65.1-1.5c-2.1,1.5-1,4.4,0.9,4.9
			c-7.3,9.9-13.4,20.6-12.5,33.5c0.4,6.3,2.5,12.3,5.9,17.5c-1,0.5-1.6,1.5-1,2.9c10.6,24.7,41.2,28.9,63.5,17.7
			c13.7-6.9,24.1-21,26.8-36.1C1224.6,1315.8,1215.5,1306.4,1207.8,1292.8z M1133.1,1337.9c-5.7-17.5,5.2-31.7,15.3-44.7
			c0.3-0.4,0.5-0.9,0.5-1.3c16.3-7.7,37.9-8.3,50.9,5.8c10.2,11.1,6.4,27.5-0.8,39c-7.7,12.4-21.5,23.2-36.8,22.8
			C1149.3,1359.1,1137.1,1350.2,1133.1,1337.9z M1194.6,1362.6c-16.2,9.5-40,9.2-52.7-4.7c0.8,0.5,1.5,1.1,2.4,1.6
			c20,11.9,43.1,1.5,56.1-15.5c7.8-10.2,13.1-24.4,10.2-37c3.8,6,6.7,12.2,6.2,20.3C1215.9,1341.5,1206.9,1355.5,1194.6,1362.6z"/>
		<path class="st2" d="M1042.9,1290c1.1-1.1,2.1-2.3,2.8-3.9c0.6-1.7,0.1-3.3-1.7-3.8c-3.8-1.2-10.7-3.8-13.9-0.2
			c-1.4,1.5-0.5,3.4,0.9,4.2c-0.5,4.8-0.5,9.7,0,14.4c0.3,3.2,4.9,3.2,5.2,0.3c6.2,2.3,15.6,3.9,17.1-3.2
			C1054.3,1292.2,1048.4,1290.7,1042.9,1290z M1035.8,1295c0-0.2,0-0.4,0-0.6c3.4,0.3,11.7,0.5,12.1,2.3
			C1048.4,1298.7,1039.2,1296.3,1035.8,1295z"/>
		<path class="st2" d="M1171,1416c-0.1-3.6,1.7-7.4,1-11c-0.9-4-5.2-5.4-8.8-5.9c-10.3-1.4-12.6,8-14.5,16c-0.8,3.3,4.4,4.5,5.2,1.2
			c0.3-1.5,0.6-3.1,1-4.7c3.8-0.3,7.5,0,11.1,1.2c-0.1,1.1-0.3,2.2-0.3,3.4C1165.8,1419.6,1171.1,1419.4,1171,1416z M1157.3,1406.1
			c1.2-1.4,3-2.2,5.6-1.7c2.4,0.4,4,0.7,3.8,3.1C1163.6,1406.6,1160.4,1406.1,1157.3,1406.1z"/>
		<path class="st2" d="M916.4,1388.4c2.2-17.8-26.7-17.6-38.2-20c-1.5-0.3-2.5,0.6-3,1.7c-9.3-1.5-19.1-2.5-28.2-2.4
			c-6.6,0.1-12.2,2.5-14.9,8.9c-8.6,20.8,25.5,21.5,37.1,22.5c11.1,1,25,4.6,36,2.7C912.1,1400.6,915.5,1395,916.4,1388.4z
			 M895.7,1395.9c-4.9,0.2-10.3-0.9-15.2-1.2c-7.5-0.5-14.9-1-22.3-2.1c-2.7-0.4-6-0.5-8.6-1.5c-6.4-2.4-5.4,3.2-3.6-9.5
			c1.5-10.7,0.7-8.8,9-7.8c1.7,0.2,3.3,0.5,5,0.7c6.8,0.7,13.5,0.5,20.3,1.9c1.5,0.3,2.5-0.6,2.9-1.7c6.4,1,12.9,1.9,19,3.9
			c3.2,1.1,10.3,5.7,8.7,10.2C909.5,1392.7,899.5,1395.7,895.7,1395.9z"/>
		<path class="st2" d="M891.2,1262c-0.6-0.2-1.1-0.1-1.5,0.1c-12.7-3.5-33.7-7.8-40.9,3.8c-11.3,18.4,22.3,21.7,31.7,23.2
			c12.8,2,46.9,13.2,53.1-5.9C939.7,1264.4,900.8,1264.7,891.2,1262z M911.9,1287.9c-3.1-0.3-6.2-0.7-9.2-1
			c-6.2-0.7-12.5-1.6-18.7-2.5c-6.1-0.9-12.4-1.7-18.5-3.1c-2.6-0.4-5-1.1-7.5-2.1c-2.4-10.6-0.1-15.5,6.6-14.9
			c7.6-2.2,20.9,2.1,28.4,4.3c0.9,0.3,1.7,0,2.2-0.5c9.5,1.1,23.3,1,28.6,6.3C924.2,1286.1,920.2,1290.6,911.9,1287.9z"/>
		<path class="st2" d="M841.5,1305.8c2.8-1.9,7.2-1.8,10.2-2c3.4-0.2,3.2-5.5-0.2-5.3c-6,0.4-12.6,0.9-16.3,6.3
			c-0.7,1-0.2,2.4,0.5,3.2c1.3,1.5,3.1,2.4,4.9,3.2c0.8,0.4,5.9,2.1,6,3.2c0.3,2.2-7.1,0.3-8.3-0.1c-3.3-0.9-4.5,4.3-1.2,5.2
			c4.5,1.2,12.6,2.9,14.5-3.1C853.6,1309.9,846,1308.5,841.5,1305.8z"/>
		<path class="st2" d="M858.8,1316c0,0,0-0.1,0-0.1C857.6,1316.3,858.9,1316.8,858.8,1316z"/>
		<path class="st2" d="M870.9,1305.7c-4.5-3.2-10-1.5-15-2.9c-3.3-0.9-4.5,4.2-1.2,5.2c1.7,0.5,3.6,0.5,5.4,0.6
			c-0.2,1.2-0.4,2.3-0.6,3.5c-0.1,0.9-0.3,1.8-0.5,2.6c-0.1,0.3-0.2,0.7-0.3,1.1c0.3-0.1,0.8-0.2,1.6-0.3c-3.4,0.3-3.2,5.6,0.2,5.3
			c2.6-0.3,3.2-2.7,3.6-4.9c0.5-2.3,0.8-4.6,1.2-6.8c1.1,0.3,2.1,0.6,3,1.3C871.2,1312.3,873.7,1307.6,870.9,1305.7z"/>
		<path class="st2" d="M887.3,1322.3c-0.4-5.1,4.2-13-2.3-16.2c-6.1-3-9.8,2-11.7,7.3c-0.1,0.2-0.2,0.5-0.3,0.7
			c-0.6,1.9-1.1,3.8-1.3,5.3c-0.5,3.3,4.6,4.6,5.2,1.2c0.2-1,0.4-1.9,0.6-2.9c1.6,0.2,3.3,0.4,4.9,0.8c-0.3,1.3-0.5,2.7-0.4,4
			C882.3,1325.9,887.6,1325.7,887.3,1322.3z M883,1311c0.4,0.5,0.5,1.4,0.4,2.3c-1.3-0.3-2.7-0.5-4-0.7
			C880.1,1311.4,881.7,1309.5,883,1311z"/>
		<path class="st2" d="M912.1,1324.4c-2.3-1.9-4.8-3.6-7.2-5.3c1.6-1,2.8-2.4,3.3-4.4c0.8-3.2-0.7-6.7-3.9-7.7
			c-10-3.1-10.7,11-9.6,17.2c0.5,3.3,5.8,3.1,5.3-0.2c-0.1-0.5-0.2-1.2-0.3-2c3,2,6,4.1,8.9,6.3
			C911.1,1330.3,914.8,1326.5,912.1,1324.4z M903.1,1313c-0.1,1.7-2.2,2.3-3.6,2.5c0.3-1.7,0.9-3.1,2.1-3.5
			C902.6,1311.7,903.2,1312,903.1,1313z"/>
		<path class="st2" d="M929.6,1310.4c-3.4-1-7-1.8-10.5-2.3c-2.6-0.4-6-1.3-8.6-0.3c-3.2,1.1-1.7,6.2,1.6,5.1c2-0.7,5.3,0.3,7.4,0.7
			c-0.9,4.9-1.6,9.9-1.6,15c0,3.2,4.3,3.1,5.2,0.5c0.2-0.5,0.4-1,0.5-1.6c0.2-0.8,0.1-1.5-0.3-2c0.2-3.6,0.6-7.2,1.3-10.8
			c1.3,0.3,2.5,0.6,3.8,1C931.7,1316.5,932.9,1311.3,929.6,1310.4z"/>
		<path class="st2" d="M831.1,1420c-0.9-5.1-5.2-4.6-9-6c-4.2-1.5,2.5-1.9,3.9-2.1c3.4-0.4,3.2-5.7-0.2-5.3
			c-4,0.5-10.4,0.6-10.4,6.1c0,2.8,1.9,5.1,4.4,6c1.3,0.5,3.3,0.5,4.7,1c-2.1,0.7-4.1,0.7-6.5-0.1c-3.2-1.1-4.4,4.1-1.2,5.2
			c4.6,1.5,9.2,0.7,13.2-1.8C831.1,1422.3,831.3,1421.2,831.1,1420z"/>
		<path class="st2" d="M845.6,1423.5c-2.6,0.4-4.9-0.6-5.8-2.9c1.9,0.2,3.8,0.4,5.6,0.8c3.3,0.7,4.5-4.5,1.2-5.2
			c-1.5-0.3-3-0.4-4.6-0.6c0.8-0.1,1.7-0.1,2.6,0.2c3.3,0.8,4.5-4.3,1.2-5.2c-6.1-1.5-12,1.8-11.8,8.5c0.1,6.3,5.6,10.6,11.7,9.8
			C849.2,1428.3,849,1423,845.6,1423.5z"/>
		<path class="st2" d="M860.5,1424.1c-1.9-0.4-5.5-0.5-5.5-3c0-1.4,0.7-2.8,0.9-4.1c0.3-1.7,0.2-3.3-0.5-4.9
			c-1.3-3.1-6.4-1.6-5.1,1.6c1.5,3.7-2.1,7.5,0.2,11.3c1.8,3,5.5,3.7,8.7,4.3C862.6,1429.9,863.8,1424.8,860.5,1424.1z"/>
		<path class="st2" d="M877.6,1426.1c-2.1,0.3-7.7,1.9-8.1-1.3c0-0.1,0-0.2,0-0.3c1.9,0.2,3.8,0.3,5.8,0.2c3.4-0.1,3.2-5.4-0.2-5.3
			c-1.5,0-3,0-4.5-0.1c0.1-0.2,0.2-0.5,0.4-0.7c0.9-1.2,2.6-0.9,4-0.8c3.4,0.2,3.2-5.1-0.2-5.3c-2.8-0.2-5.6,0.2-7.5,2.3
			c-1.1,1.2-1.8,2.8-2.2,4.5c-0.9,0.8-1.2,2.4-0.6,3.5c-0.1,0.8-0.1,1.5,0,2.2c0.5,7.5,8,7.2,13.6,6.4
			C881.2,1430.9,881,1425.6,877.6,1426.1z"/>
		<path class="st2" d="M899.6,1425.4c-2.3,0.5-5.4,1.3-7.8,0.4c-1.3-0.5-2-1.4-2-2.8c0-2,1.6-2.4,3.4-2.2c3.3,0.5,4.6-4.7,1.2-5.2
			c-3.1-0.4-6.4,0-8.5,2.7c-2,2.6-1.8,6.6,0,9.3c3.3,5.1,10.3,3.8,15.3,2.8C904.5,1429.8,902.9,1424.7,899.6,1425.4z"/>
		<path class="st2" d="M915,1417.7l-12.9-3c-3.3-0.8-4.5,4.4-1.2,5.2l5.1,1.2c-0.9,3.6-1.6,7-0.7,10.7c0.8,3.3,5.9,1.7,5.1-1.6
			c-0.6-2.7,0.1-5.3,0.8-8l2.6,0.6C917.1,1423.6,918.3,1418.4,915,1417.7z"/>
		<path class="st2" d="M876.8,1102.4c-6.7-11.9-20-11.4-30.5-5c-0.1,0-0.1,0.1-0.1,0.1c-0.8,0-1.7,0.2-2.5,0.9
			c-9.9,8.8-20.3,26.5-8.4,38c10,9.7,27.4,8.1,36.8-1.4C880.3,1126.7,882.7,1112.7,876.8,1102.4z M867.9,1129.1
			c-6.5,7.4-19.4,9.6-27.2,2.7c-9.1-8.1,0.6-21.5,7.5-27.9c0.6,0,1.2-0.1,1.9-0.5c7.2-4.4,16.1-5.8,20.7,2.8
			C874.7,1113.4,873.2,1123,867.9,1129.1z"/>
		<path class="st2" d="M1096,1195.8c-1.2-1.3-3.7-0.8-4.3,0.8c-1.2,0.1-2.2,0.9-2.2,2.5c0,8.9-0.6,17.4-3.1,25.9
			c-0.3,0.9-0.1,1.6,0.3,2.1c-1.3-0.3-2.8,0.2-3.1,1.8c-0.3,1.7-0.7,3.2-1.2,4.6c-1.1-0.1-2.3,0.4-2.8,1.8c-0.6,1.9-1.7,3.6-3,5.1
			c-3.4,2.7-7.5,5.1-10.9,7.5c-2.6,1.2-5.2,2.3-7.4,3.3c-0.8,0.3-1.2,0.9-1.5,1.5c-1.1,0.2-2.2,0.3-3.4,0.4c-3.4,0.2-3.4,5.3,0,5.3
			h3c0.7,0,1.2-0.2,1.6-0.6c2.3-0.4,4.5-1,6.8-1.7c0.5,0.3,1.1,0.4,1.8,0.2c9.6-2.2,16.9-7.9,22-15.6c5.9-4.8,7.5-12.5,7.6-20.6
			C1099.9,1211.8,1102.2,1202.9,1096,1195.8z"/>
		<path class="st2" d="M1211.4,1304.2c-2.7-0.8-4.3,2.5-2.6,4.4c0.2,0.2,0.3,0.5,0.5,0.7c-0.4-0.1-0.7-0.3-1.2-0.3
			c-2.1-0.4-3.6,1.2-3.3,3.3c0.3,1.7,0.8,3.4,1.3,5c0.6,2.7,1.2,5.3,1.6,7.9c-0.2,0.1-0.3,0.2-0.5,0.4c-0.4,0.5-0.7,1-1.1,1.5
			c-1,0.1-2,0.6-2.4,1.8c-0.6,1.6-1.2,3.2-1.9,4.8c-2.5,4.5-4.6,9.3-6.1,14.2c0,0,0,0.1,0,0.1c-4.8,2-8.8,5-12.3,8.7
			c-2.4,1.4-4.8,3.1-7.1,4.7c-0.2,0.1-0.4,0.2-0.6,0.4c-10.2-0.1-21.7-3-27.7-4.9c-1.6-0.5-2.7,0.4-3.1,1.7c-0.6-0.3-1.3-0.6-1.9-1
			c-2.9-1.8-5.6,2.8-2.7,4.6c9,5.4,17.7,6.2,27.2,6c-0.6,1.6,0.2,3.6,2.4,3.6c8.8-0.1,18.1-1.7,25.1-7.5c0.3-0.3,0.6-0.6,0.9-0.9
			c0.6,0,1.1-0.2,1.7-0.7c0.6-0.5,1.1-1.1,1.6-1.6c0.7-0.1,1.4-0.4,1.9-1.2c0.7-1.2,1.4-2.4,2.1-3.6c1.3-1.9,2.5-4,3.5-6.1
			c0.9-1.6,1.7-3.2,2.5-4.8c1.2,0.6,2.8,0.3,3.7-0.9c2.6-3.7,4.6-10.3,5-16.9C1219.7,1318.5,1220,1306.8,1211.4,1304.2z"/>
		<path class="st2" d="M931.9,1275.1c-2-1.5-4.3,1-3.9,3c3.1,15.9-61.9,5.1-70,4.8c-0.4,0-0.8,0.1-1.1,0.3c-2.2-2.1-3.7-4.9-4-8.6
			c-0.3-3.4-5.6-3.4-5.3,0c2.2,24.1,37.8,20.8,54.8,23c9.4,1.2,27.2,4.4,33.8-4.9C940.6,1286.3,937.5,1279.1,931.9,1275.1z"/>
		<path class="st2" d="M913.9,1378.6c-2.6-2.1-6.4,1.6-3.7,3.7c1,0.8,2.1,1.7,3.1,2.7c-0.3,0.5-0.4,1.1-0.3,1.9c0,0,0,0,0,0.1
			c-0.7,0.4-1.3,1.2-1.3,2.1c-0.7,13.1-29,9.8-37.3,9.2c-1.4-0.1-2.9-0.2-4.5-0.3c-1.7-0.2-3.3-0.4-5-0.5c-0.4,0-0.9-0.1-1.3-0.1
			c-11.3-1.4-22.9-5-24-17.8c-0.3-3.4-5.6-3.4-5.3,0c0,0.5,0.1,0.9,0.2,1.4c-0.4,0.4-0.7,1-0.6,1.7c0.2,8.1,1.9,14.5,10,17.9
			c6,2.5,12.5,1.6,18.9,2c7.7,0.5,15.2,2.1,22.9,2.8c6.6,0.6,15.5,0.8,22.2-1.7c5.5-0.6,11.9-2.2,13.9-7.9
			C924.3,1388.5,919,1382.8,913.9,1378.6z"/>
		<path class="st2" d="M801.5,1143.1c-5.1-6.2-13.1-8.1-18.8-13.4c-4.6-4.4-7-11-14-12.1c-1.1-0.2-2.1,0.1-2.8,0.7
			c-1.5-2.8-2.7-5.8-4.5-8.5c-2.6-3.7-8.7-0.2-6.1,3.6c2.8,4,4,8.7,7,12.6c3.6,4.6,8.7,8.2,13.2,11.7c7,5.4,14.5,10.6,23.4,11.6
			C802.4,1149.5,803.2,1145.1,801.5,1143.1z"/>
		<path class="st2" d="M964.1,1141.7c-0.5-3.8-5.8-2.9-6.8,0c-6.8,19.6-20.3,34.4-29.3,52.7c-1.1,2.2,0,4.1,1.6,4.8
			c-2,1.8-4,3.4-5.9,4.7c-8.7,5.8-20.2,3.4-31.3-2c3.2-0.3,5.2-4.6,1.7-6.4c-10-4.2-19.7-12.1-30.3-15c-0.2-0.4-0.5-0.7-0.7-1.1
			c-1.4-3.1-5.1-1.9-6.2,0.6c-1.7,1.2-2.2,4.1-0.5,5.5c14.5,12.5,47.3,38.1,67.6,27.1C944.6,1201.5,967.3,1165.2,964.1,1141.7z"/>
		<path class="st2" d="M953.5,1043.5c-2.1-1.8-5-1.1-5.9,1.6c-2,6-3,12.5-4.4,18.7c-1.2-0.1-2.4,0.4-3.1,1.7
			c-1.3,2.8-2.7,5.5-4.1,8.2c-4.3,6.5-9.9,12.2-13.2,19.1c-0.2,0.3-0.4,0.7-0.6,1c-1.9,2.2-3.9,4.4-6.1,6.4
			c-2.6,2.3-0.3,5.8,2.5,5.9c0,0.2,0.1,0.5,0.2,0.7c0,0.1,0,0.2,0,0.3c0,1.3,0.7,2.2,1.6,2.8c1.2,2.4,5.4,2.8,6.6-0.5
			c1.2-3.2,2.6-6.3,4.1-9.4C943.6,1084.5,967.5,1055.7,953.5,1043.5z"/>
		<path class="st2" d="M867.1,1183.5c-1.3,0.6-2.4,1.4-3.5,2.3c-1-1.8-2.9-2.6-4.9-1.6c-0.2,0.1-0.5,0.3-0.7,0.4
			c-0.9-0.3-1.9-0.4-2.8,0.2c-6.8,4.9-11,13.3-14.6,22c-1.4,2.8-2.8,5.7-4.2,8.5c-0.5,0.3-1,0.7-1.3,1.4
			c-3.5,7.2-8.1,12.2-13.8,16.6c-13.9,3.1-26.3-8.6-39.2-12.5c-5.1-4.5-9.3-9.7-10.3-15.2c-0.9-4.5-7.7-2.6-6.8,1.9
			c3.6,18.3,34.4,38.4,52.7,41c5.4,3.6,12.1-1.4,17.1-7.6c7-8.7,14.3-18.7,19.4-29.4c4.5-5,8.8-10.5,10.2-16.3
			c1.7-2.4,3.7-4.6,6.3-5.7C874.8,1187.7,871.2,1181.6,867.1,1183.5z"/>
		<path class="st2" d="M863.4,1128.5c-7.9,6.3-13-7-10.8-12.7c2.7-7,9.8-7,15.5-10c2.6-1.4,2.2-5.9-0.8-6.5
			c-0.3-0.1-0.6-0.1-0.9-0.1c0-3.2-4.7-5.4-6.5-1.9c0,0.1-0.1,0.1-0.1,0.2c0,0-0.1,0-0.1,0c-1.3,0.3-2.6,0.7-3.8,1.3
			c-2.7,0.4-5.3,1.3-8.5,3c-5.5,3.1-9.7,7.2-11.2,13.4c-0.8,3.4-0.7,6.8,0.2,9.8c0.7,6.1,5.2,10,10.9,11.9c1.7,0.6,3.5,1.1,5.4,1.2
			c1.8,0.1,2.8-0.8,3.2-2.1c4,1.2,8.5,0.7,12.6-2.5C872,1130.7,866.9,1125.7,863.4,1128.5z"/>
		<path class="st2" d="M1057.6,1183.3c1-1.5,0.3-4.1-2.1-4.2c-15.9-0.3-26.5,14.7-29.6,29.6c-0.8,3.1-1.1,6.3-0.9,9.4
			c0.2,3.4,5.4,3.4,5.3,0c-0.1-2.4,0.2-5,0.7-7.7c2.7-12,13.1-23.1,25.8-22.1C1059.9,1188.6,1060.2,1184.3,1057.6,1183.3z"/>
		<path class="st2" d="M1170.7,1295.7c-11.4,1.5-22.7,11.5-22.6,23.6c0,2.9,4.5,3.7,5.2,0.7c1.9-8.2,7-13.8,15.5-15.1
			c2.1-0.3,2.3-2.3,1.4-3.8c0.2,0,0.3-0.1,0.5-0.1C1174.1,1300.5,1174.1,1295.2,1170.7,1295.7z"/>
	</g>
	<g id="Screen">
		<path class="st3" d="M1618.1,762.4c-16.8-12.5-36.2-19.6-55.5-27.4c-19.1-7.8-36.1-18.2-53.4-29.5c-38.7-25.4-76.5-50.9-117.8-72
			c-37.5-19.2-78.4-36.8-111.1-63.8c-28.1-23.2-50.2-49.1-88.2-52.8c-4.7-3-10.8-4.6-18.2-3.9c-23.2,2.1-37.4,15.1-48.2,33.7
			c-0.3,0.3-0.6,0.5-0.9,0.7c-25,23.1-39.9,52.8-55.6,81.9c-17.2,19-33.5,38.5-44.7,62c-7.9,9.2-15.6,18.5-22.9,28.1
			c-17.2,20.1-32.7,41.4-43.8,65.6c-2.2,2.9-4.4,5.7-6.5,8.7c-10.9,15.1-17.3,36.4-31.3,48.6c-12.2,10.7-12.4,34.3,0,45
			c13,11.1,28.3,18.2,44.3,24c17.4,22.5,45.2,38,68.3,52.7c38.9,24.8,79.3,46,119.7,68.2c6.2,3.4,12.6,4.4,18.7,3.7
			c20.5,15.7,41.1,30.8,63.6,42.5c13.7,27.8,42.8,41.1,72.6,48.8c13.1,8.6,27.5,14.1,44.5,12c1.7-0.2,3.4-0.6,5.1-1.1
			c7.4,1.2,14.8,1.8,22,1.1c26.4-2.5,49.8-22.6,66.6-41.8c37.6-42.9,63.1-94.6,91.3-143.8c15-26.3,32.6-50.8,48.2-76.7
			c12-19.9,22.7-48.4,39.4-64.6C1640.5,796.8,1634,774.3,1618.1,762.4z"/>
		<path class="st0" d="M1516.7,767.9c-0.3,0.5-0.6,1.1-1,1.6c-0.1-0.6-0.4-1.2-0.9-1.6c-87.7-75.3-192.3-126.8-293.2-181.6
			c-0.2-0.6-0.5-1.1-1-1.6c-2.4-2.3-6.5,1.1-4,3.4c0,0.8-18.2,27.7-19.2,29.3c-8.7,14-17.7,28-26.9,41.7
			c-17.9,26.9-36.7,53-55.7,79.1c-32.2,44.3-66.5,89.3-89.6,139.3c-2.5-0.3-4.5,3.1-2.1,4.6c-0.8,1.9-1.8,3.8-2.6,5.7
			c-1.4,3.2,3.7,4.9,5,1.8c0.7-1.6,1.4-3.3,2.2-4.9c47.7,26.4,97.2,49.9,142.5,80.4c41,27.6,78.7,60,119.6,87.8
			c2.1-1.6,5.4-1.9,7.6,0.3l6,6c7.9-0.3,15.9-2.7,23.8-5.4c15.1-14.1,24.4-34,37.3-50c19.3-24,37.9-47.8,54.1-74
			c33.2-53.7,69.5-105.2,102.5-159C1522.9,768,1518.5,765,1516.7,767.9z"/>
		<path class="st2" d="M1634,789.1c0.1-20.9-32.8-35.9-47.8-44.1c-31.6-17.2-63.6-32.9-94.2-52c-42-26.2-84.7-50.8-127.6-75.6
			c-41.5-23.9-80.4-51.9-122.8-74.3c-18.2-9.6-37.2-20.3-56.5-27.5c-15.5-5.7-29.3-4.5-43.2,4.5c-2.8,1.9,0.6,5.9,3.4,4
			c17-11.1,33.6-6.3,50.5,2.1c17.9,8.8,35.9,17.3,53.3,27c37,20.4,71.4,44.9,107.9,66.1c37.2,21.6,74.9,42.1,111.3,65.1
			c30.6,19.3,61.3,38.1,93.8,54.2c13,6.4,26,13.1,38.3,20.9c9.4,5.9,28.3,16.4,28.3,29.2C1628.8,792,1634,792.5,1634,789.1z"/>
		<path class="st2" d="M1396.7,1120.2c-17.2,7.8-35.5,13.8-54.6,11.7c-20.2-2.2-37.2-13-54.2-23.4c-43-26.4-85.6-53.5-128.3-80.4
			c-41.4-26-83.3-51.2-124.5-77.4c-19.9-12.6-39.2-26.2-59.5-38.2c-20-11.9-40.8-22.6-58.2-38.2c-2.5-2.3-5.5,2.1-3,4.4
			c18.6,16.7,41,27.8,62.3,40.6c20.9,12.6,41,26.7,61.6,39.7c45.1,28.4,90.7,56,135.7,84.4c43.7,27.6,86.8,58.3,132.6,82.3
			c31,16.3,61.2,13.3,92.4-0.8C1402.1,1123.6,1399.8,1118.8,1396.7,1120.2z"/>
		<path class="st2" d="M1521.1,770.9c-33,53.8-69.3,105.3-102.5,159c-16.2,26.2-34.8,50-54.1,74c-13,16.1-22.3,36.2-37.6,50.3
			c-2.4,2.3-5,4.5-7.8,6.4c-0.6,0.4-1.1,0.8-1.7,1.2c-1.4,1-3.1,0.3-3.9-0.8c-0.8-1-0.9-2.4,0.5-3.2c1.1-0.7,2.2-1.5,3.3-2.3
			c20.8-15.3,33-42.3,49-62c18.5-22.7,35.2-45.9,50.7-70.8c31.4-50.5,65.5-99.2,96.8-149.8c-0.6,0.1-1.2-0.1-1.8-0.6
			c-87.1-74.8-190.9-126.1-291.2-180.5c-1.3,2.6-3.4,5.1-4.5,6.6c-8.4,12-15.9,24.5-23.8,36.8c-18.6,29.2-38.3,57.9-58.6,86
			c-36.6,50.7-77.7,101.5-104,158.7c48,26.6,97.7,50.2,143.3,80.9c44.7,30.1,85.3,65.7,130.5,95.1c2.4,1.5,4.8,3.1,7.2,4.6
			c0.3,0.2,0.4,0.3,0.6,0.5c1.7,2-1,5.5-3.6,3.9c-1.9-1.2-3.8-2.4-5.7-3.7c-2.7-1.7-5.4-3.4-8-5.2c-42.6-28.4-81.4-62.2-123.9-90.8
			c-45.3-30.5-94.8-54-142.5-80.4c-0.7,1.6-1.5,3.3-2.2,4.9c-1.3,3.1-6.4,1.4-5-1.8c0.8-1.9,1.7-3.8,2.6-5.7
			c-2.3-1.5-0.4-4.9,2.1-4.6c23.2-50,57.5-95,89.6-139.3c19-26.1,37.8-52.2,55.7-79.1c9.2-13.8,18.1-27.7,26.9-41.7
			c1-1.6,19.2-28.4,19.2-29.3c-2.4-2.3,1.6-5.8,4-3.4c0.5,0.5,0.8,1,1,1.6c101,54.8,205.6,106.3,293.2,181.6c0.5,0.4,0.8,1,0.9,1.6
			c0.3-0.5,0.6-1.1,1-1.6C1518.5,765,1522.9,768,1521.1,770.9z"/>
		<path class="st2" d="M1466.6,1050.9c21.5-30.4,41.9-61.1,60.3-93.5c17.4-30.6,34.8-61.2,52.8-91.5c16.4-27.5,32-57.3,56.9-78.2
			c2.6-2.2-0.8-6.2-3.4-4c-22.7,19-37.8,45.3-52.6,70.5c-17.1,29-34.2,57.8-50.6,87.2c-17.4,31.1-35.9,61.3-56.3,90.5
			c-20.9,29.8-40,65.6-74,82.1c-3.1,1.5-0.8,6.3,2.2,4.8C1431.7,1104.3,1448.1,1077.1,1466.6,1050.9z"/>
		<path class="st2" d="M1111.5,656.3c-0.2-0.3-0.4-0.6-0.6-0.9c0.2-1.4-1-2.8-2.4-2.8c-1.6-1.4-3.6-2.4-5.9-2.1
			c-1.8,0.2-3.5,1.1-4.9,2.4c-2.5,1-5.3,2.3-6.4,4.8c-0.9,2.1-0.1,4.3,1.6,5.7c0.8,0.6,1.6,1.1,2.6,1.5c1.3,1.7,3.3,2.6,5.8,1.9
			c0.4-0.1,0.8-0.3,1.2-0.5c1.2,0,2.3-0.1,3.4-0.2C1110.9,665.2,1114.2,661.2,1111.5,656.3z"/>
		<path class="st2" d="M1071.2,712.1c0.5,0,0.9,0,1.3-0.1c2.2-0.2,4.7-0.9,5.9-2.9c1.6-2.7,0-5.7-1.8-7.8c-0.7-0.8-1.5-1.6-2.3-2.2
			c-0.2-0.8-0.7-1.5-1.6-1.7c-0.7-0.2-1.5-0.3-2.2-0.3c-2-0.6-4.1-0.6-6.4,0.4c-1.4,0.6-2.7,1.5-3.7,2.6c-3.5,1.7-6.1,4.3-2.9,7.8
			c0,0.4,0.1,0.8,0.1,1.1c1.3,5.5,7,8.7,11.7,4.9C1070.1,713.4,1070.7,712.8,1071.2,712.1z"/>
		<path class="st2" d="M1225.8,590.8c-1.3-0.1-2.5,0.1-3.7,0.5c-0.7-0.1-1.4,0.1-2,0.7c-0.1,0.1-0.2,0.2-0.3,0.4
			c-5.4,3.4-9.9,11.2-12.6,15.4c-0.4,0.6-0.8,1.3-1.2,1.9c-5.5,7.9-10.4,16.2-14.5,25c-0.9,1.9-1.7,3.9-2.5,5.9
			c-0.1,0.1-0.1,0.3-0.2,0.4c0,0,0,0,0,0.1c-6.8,8.3-13.4,16.7-19.6,25.4c-12.6,17.9-24.7,36.1-37.2,54
			c-6.4,8.3-12.8,16.5-19.9,24.2c-7.1,7.7-14.7,15.6-19.8,24.8c-11.6,10.7-22.1,25.6-25.4,41c-0.2,0.3-0.4,0.6-0.6,0.8
			c-7.9,11.9-15.9,24-22.1,36.9c-0.5,1-0.9,1.9-1.4,2.9c0,0,0,0-0.1,0.1c-1.1,2-2.1,4.1-3.2,6.1c-5,4.6-7.8,9.6-10.6,15.7
			c-0.8,1.7,0.3,3.5,1.8,4c-0.9,2.4-1.7,4.7-2.4,7.1c-0.5,1.8,0.9,3.2,2.6,3.4c5.5,0.5,9.9-6.5,12.7-10.2c7.1-9.3,13-19.7,18.8-29.8
			c1.7-2.9,3.5-5.8,5.2-8.6c4.8-6.7,9-14,13.2-21.1c9.7-15,20-29.6,31-44.1c5.2-6.8,10.4-13.5,15.6-20.3c2.8-3.2,5.4-6.5,7.8-10.1
			c8.5-11,16.9-22,25-33.3c4.9-5.7,9-12,12.9-18.5c4-5.9,7.9-11.9,11.6-18.1c9.1-15,17.4-30,27.7-44.2c7.4-10.1,17.3-22.4,16.3-35.7
			C1228.3,591.8,1227.3,590.9,1225.8,590.8z M1113.5,759.9c0-0.1,0.1-0.1,0.1-0.2c1.3-1.9,2.5-3.8,3.7-5.8c1.2-1.4,2.4-2.9,3.5-4.3
			c0.3,0.3,0.7,0.5,1,0.6c-2.8,3.3-5.6,6.5-8.3,9.8C1113.6,760.1,1113.6,760,1113.5,759.9z M1201.5,633.8c3.1-3.7,6.1-7.4,9.1-11.1
			c-3.6,5.5-7.2,10.9-10.8,16.3C1200.4,637.3,1200.9,635.5,1201.5,633.8z"/>
		<path class="st2" d="M1521.7,778.4c-8.7-8.6-18.2-16.3-28.1-23.5c6.5,4.1,12.9,8.4,19,13.1c2.6,2,6.2-1.3,3.7-3.7
			c-8-8-18.9-13.5-29.1-19.3c-0.9-0.5-1.8-1.1-2.7-1.6c-1.5-0.9-3-1.8-4.5-2.7c-2-1.3-4.1-2.5-6.2-3.8c1.9-0.4,2.9-3.4,0.8-4.9
			c-10-7.2-20.6-13.3-31.4-18.8c-6.7-4-13.3-8-20-11.9c0.1-0.9-0.3-1.8-1.3-2.2c-3.8-1.6-7.4-3.4-11.1-5.2
			c-6.6-3.9-13.1-7.8-19.7-11.8c-20.4-12.2-40.9-24.4-62.7-33.7c-8.2-4.4-16.4-8.5-24.7-12.8c-3.7-2.3-7.5-4.2-11.5-6
			c-0.7-0.4-1.5-0.8-2.2-1.2c0.1,0,0.2,0,0.3,0.1c2.2,0.3,4.9-2.6,2.6-4.4c-7.8-6.1-16.6-8.4-25.9-11.4c-5.9-1.9-11.7-3.9-17.4-6.1
			c-1.6-0.8-3.2-1.5-4.8-2.3c-5.8-2.9-11.4-6.4-17.6-8.1c-0.9-0.5-1.8-0.9-2.7-1.5c-1.2-0.7-2.4-0.3-3.1,0.5
			c-0.9-0.1-1.7-0.1-2.6-0.1c-2,0.1-3.3,2.2-2.3,4c7.3,13.8,23.8,20.3,37,27.2c14.8,7.8,29.3,15.2,45,20.2
			c14.3,9.4,28.2,19.3,44.3,25.2c0.2,0.4,0.5,0.8,1,1.1c10.6,6.2,21.6,11.5,32.7,16.6c0.1,0.2,0.2,0.4,0.4,0.6
			c0.2,0.1,0.4,0.3,0.6,0.4c0,0,0,0,0,0c0.3,0.2,0.5,0.4,0.8,0.5c2.2,1.7,4.5,3.2,6.9,4.6c2.5,1.6,5,3.3,7.6,4.8
			c-0.9,1.1-1,2.9,0.6,4c19.1,12.5,38.2,25.1,57.3,37.5c18.2,11.9,35.5,25.3,54.7,35.5c1.6,0.9,3.4-0.3,3.9-1.7
			c2.9,2.2,5.8,4.3,8.6,6.5C1520.5,784.2,1524.1,780.9,1521.7,778.4z M1232.9,608.9c5.9,2.5,11.7,5.2,17.5,7.9
			c0.1,0.7,0.4,1.4,1.1,1.8c1,0.8,2.1,1.4,3.2,2.1C1247.5,617.2,1239.6,613.6,1232.9,608.9z"/>
		<path class="st4" d="M1328.6,989.7c-11.9,2.2-22.5,8.9-34.3,11.1c10.4-8.5,27-8.6,37-18.3c2-2-0.1-4.8-2.6-4.4
			c-15.5,2.6-31,8.6-44.1,17.4c-2.8,1.9-0.2,6.5,2.7,4.6c0.2-0.2,0.5-0.3,0.7-0.4c-1,1-1.9,2.1-2.8,3.3c-1.2,1.7,0.4,4,2.3,4
			c1.6,0,3.2-0.2,4.8-0.4c-2,1.7-3.7,3.5-4.7,5.8c-1.4,3.1,3.1,5.8,4.6,2.7c2.9-6.1,11.4-9.4,17.2-12c6.7-3,13.7-5.4,20.6-8.1
			C1333.2,993.6,1332,989.1,1328.6,989.7z"/>
		<path class="st4" d="M1250.2,644c-1.8,0.6-3.7,1.2-5.5,1.7c0.3-1.8-1-3.7-3.1-2.9c-4.5,1.7-8.9,3.6-13.2,5.6
			c-1.3,0.6-1.5,1.9-1.1,3.1c-0.5,0.2-1.1,0.4-1.6,0.6c-3.1,1.2-1.8,6.3,1.4,5.1c8-3.1,16.4-5.3,24.5-8.1
			C1254.8,648,1253.4,642.9,1250.2,644z"/>
		<g>
			<path class="st5" d="M1234,704.9c-2.9-4.9-9.1-7.5-14.2-10.5c-0.3-1.2-1.7-2.1-3.1-1.9c-2-1-3.8,1.2-3.3,3.2
				c-3,4.5-5.8,9.1-8.3,13.8c-0.6,1.2-0.4,3,1,3.6c6.2,2.9,12.1,6.5,18.2,9.7c1.6,0.9,3.3,0,3.9-1.6
				C1230.3,715.9,1237.8,711.3,1234,704.9z M1226.4,714.7c0-0.2,0-0.3,0.1-0.5c0.1-0.6-0.1-1.1-0.3-1.5c0.4-1.5,1.1-2.9,2-4.3
				c0.5-0.7,0.5-1.4,0.4-2C1230.3,708.7,1228.4,711.8,1226.4,714.7z"/>
			<path class="st5" d="M1244.3,729.2c-5.2-2.3-9.9-5.4-14.7-8.3c1-2.7-3.1-4.8-4.8-2.1c-3.8,6-8.2,11.6-10.1,18.6
				c-0.2,0.8,0,2,0.7,2.6c2.1,1.7,5,4.1,8.1,6c0.5,1.1,1.7,1.9,3,1.7c2.4,1.1,4.8,1.9,6.9,1.7c7.3-0.6,10.5-11.4,12.1-17.1
				C1245.8,731.2,1245.4,729.7,1244.3,729.2z M1227.2,740.4c-0.2,0.1-0.4,0.2-0.6,0.4c-0.2,0.2-0.4,0.4-0.5,0.5
				c-1.1-0.7-2.1-1.4-3.1-2.2c2.4,0,4.6-0.7,6.9-1.5C1228.9,738.6,1228.1,739.5,1227.2,740.4z M1226.8,725.4
				c0.7,0.4,1.4,0.9,2.2,1.3c-1.9,1.6-3.8,3.1-5.8,4.5C1224.3,729.2,1225.5,727.3,1226.8,725.4z M1232.1,743.8
				c-0.2,0-0.5-0.1-0.7-0.1c2.8-2.8,5.5-6,7.3-9.5c0.3-0.6,0.4-1.2,0.3-1.7c0.3,0.2,0.6,0.3,0.9,0.5
				C1238.6,737.3,1236.2,744.1,1232.1,743.8z"/>
			<path class="st5" d="M1253.3,755.8c-5.3-4.6-10.7-9.4-16.9-12.8c-3-1.6-5.7,3-2.7,4.6c1.1,0.6,2.2,1.3,3.2,2
				c-0.7,0.6-1.3,1.1-2,1.6c0-0.2,0.1-0.4,0.1-0.6c0.1-3.4-5.2-3.4-5.3,0c-0.2,6.3-4.3,12.4-8.1,17.2c-1.1,1.4,0.1,3.5,1.6,3.9
				c3,0.9,6.3,1.1,9.2,2.4c2.5,1.1,4.4,2.3,7.1,2.8c1.1,0.2,2.4-0.1,3-1.2c3.2-5.9,7.2-11.3,11.2-16.7
				C1254.4,758.2,1254.1,756.5,1253.3,755.8z M1240.9,753.1c0.2-0.2,0.3-0.3,0.4-0.5c0.8,0.6,1.5,1.2,2.2,1.8
				c-0.2,0.1-0.4,0.2-0.6,0.3c-2.2,1.7-6.7,5.4-10.3,5.9C1234.8,757.7,1238.2,755.4,1240.9,753.1z M1239.1,771.3
				c-0.4-0.2-0.8-0.4-1.3-0.6c0.4-0.2,0.8-0.4,1.3-0.6c2.3-1.2,1.2-4.2-0.8-4.8c2.8-2.3,5.8-4.4,8.4-6.8c0.3-0.3,0.5-0.6,0.7-0.9
				c0.2,0.2,0.4,0.3,0.6,0.5C1244.7,762.4,1241.7,766.7,1239.1,771.3z"/>
			<path class="st5" d="M1272.3,848c-6.9-6.2-15.7-9-23.3-13.9c-2.8-5.8-12.9-9-17.7-11.6c-1.1-1.1-3.2-1.4-4.4,0.3
				c-3.3,4.8-13.6,14.1-9.9,20.6c1,1.7,2.8,3.3,4.6,4.6c0.3,1.2,1.3,2.2,2.6,2.1c0.2,0,0.3-0.1,0.5-0.1c0.6,0.4,1.2,0.7,1.7,1.1
				c2.5,1.6,5.3,3.4,8.1,4.7c0.1,0.5,0.3,1,0.7,1.4c3.7,3.7,8.6,5.9,12.8,8.9c0.2,1.3,1.1,2.5,2.6,2.2c0.5,0.4,0.9,0.9,1.4,1.4
				c0.7,0.9,2.3,1,3.2,0.4c7.3-4.6,12.5-11.9,17.5-18.8C1273.3,850.3,1273.1,848.8,1272.3,848z M1249.9,848.2
				c-0.3,0.2-0.9,0.7-1.6,1.2c0.6-0.6,1.1-1.3,1.6-1.9c1.3-1.8,2-3.5,2.3-5.4c1,0.5,2,1.1,3.1,1.6
				C1253.3,844.8,1251.6,846.6,1249.9,848.2z M1223.6,843c-0.7-0.6-1.3-1.3-1.7-2c-0.1-0.2-0.1-0.5-0.1-0.8c0.7,0.3,1.5,0.4,2.3-0.2
				c2.1-1.3,4.2-2.7,6.4-3.9C1228.1,838.4,1225.5,840.4,1223.6,843z M1229.9,843.1c3.3-3.5,7.8-6.1,9.4-10.9
				c1.3,0.7,2.5,1.5,3.4,2.4c-0.1,0.9,0.2,1.8,1.1,2.4c0.2,0.1,0.4,0.3,0.6,0.4c0,0.6-0.1,1.4-0.4,2.1c-0.4-0.9-1.1-1.5-2.3-1.4
				C1237.3,838.6,1233.7,841.3,1229.9,843.1z M1235.7,850.3c0-0.1,0-0.3,0-0.4c1.8-1.7,3.7-3.2,5.5-4.8c-0.2,0.3-0.4,0.6-0.5,0.9
				c-0.9,1.8-1.9,3.6-3,5.4C1237,851,1236.4,850.7,1235.7,850.3z"/>
			<path class="st5" d="M1426.8,822.7c-3.6-2-7-4.3-10.5-6.3c-2.7-1.5-6.2-3.7-9.4-3.3c-2.8,0.3-3.2,3.9-1.4,5
				c-1.7,3.7-5,6.8-6.3,10.8c-0.2-0.5-0.4-0.9-0.8-1.2c-0.1-0.7-0.5-1.3-1.3-1.7c-5.7-2.4-15-7.6-21.3-4.5
				c-5.6,2.8-8.4,10.8-11.1,16.9c-1.2-0.9-2.6-0.9-3.6,0.1c-0.3-0.9-1.1-1.6-2.4-1.6c-5.6,0.3-9.6-4.5-14.9-5.8
				c-1.3-0.3-3,0.4-3.3,1.9c-0.9,5.5-6.4,11.6-4.3,17.2c2,5.3,9.3,8.9,14.4,10.4c1.1,0.3,2.4-0.2,3-1.2c2.9-5.3,6.3-10.2,9.7-15.1
				c0.2,0.3,0.5,0.6,0.9,0.8c6.6,3.4,12.8,7.9,20.2,9.3c1.1,0.2,2.5-0.1,3-1.2c2.6-5.5,5.4-10.8,8.6-15.9c1.2-1.8,3.1-4.2,3.4-6.6
				c0.2,0.5,0.6,0.9,1,1.2c4.5,3,11.1,2.7,14.8,6.6c1.1,1.1,3.4,1,4.2-0.5c2.1-4.5,6.3-7.3,8.5-11.7
				C1428.4,825,1428.2,823.4,1426.8,822.7z M1344.7,845.4c1.7-2.1,4-3.6,6.4-5c1,0.5,2,0.9,3,1.2
				C1351.9,842.4,1347.7,845,1344.7,845.4z M1377.5,846.4c-1.8-0.8-3.5-1.7-5.2-2.7c2.9-2.1,5.8-4.2,8.5-6.6
				C1379.8,840.2,1378.4,843.3,1377.5,846.4z M1383,827.4c-2.1,2.6-4.5,4.9-7.1,7c1.6-2.6,3.2-5.2,4.2-8.2c1.3-0.2,2.7,0,4.2,0.4
				C1383.8,826.7,1383.4,827,1383,827.4z M1389.7,836.9c-0.5,0.8-0.9,1.6-1.3,2.3c-0.7-0.6-1.7-0.8-2.8,0c1.1-3.2,2-6.5,1.9-9.9
				c0-0.8-0.5-1.5-1-2c2.6,0.9,5.2,2.1,7.3,3c0,0.1,0.1,0.3,0.1,0.4C1393.1,831.9,1390.5,835.7,1389.7,836.9z"/>
			<path class="st5" d="M1290.3,861.6c-4.9-9.9-17.1-12.8-26.3-17.5c-1.8-0.9-3.9,0.2-4,2.3c-0.2,4.6-0.1,8.5-2,12.8
				c-1,2.4-2,4.4-2.5,7c0,0.2,0,0.3,0,0.5c-1.4-0.8-2.7-1.5-4.1-2.2c-3.1-1.5-5.8,3.1-2.7,4.6c4.2,2,8.1,4.4,12.1,6.7
				c0,0.1,0,0.1,0,0.2c0.6,1.5,2,2.2,3.4,1.7c2.7,1.5,5.4,2.8,8.3,3.9c1.5,0.5,2.8-0.6,3.3-1.8c2.5-6.1,7.8-11.3,13.4-14.6
				C1290.6,864.5,1290.9,862.9,1290.3,861.6z M1284.4,862.3c-0.9,0.6-1.9,1.2-2.8,2c0.1-0.2,0.1-0.4,0.2-0.6c0.6-2.3-1.8-4-3.9-3
				c-4.8,2.4-8,6.7-12,10c0.5-2.6,2.2-5.1,4-7.6c1-1.2,2-2.4,2.9-3.6c0.8-1,1.6-2,2.2-2.9c0.3-0.5,0.4-1,0.4-1.5
				C1279,856.9,1282.2,859.2,1284.4,862.3z M1262.3,863c0.9-1.9,1.8-3.8,2.4-5.9c0.6-2.1,0.6-4.4,0.6-6.6c2,0.8,4,1.7,6,2.6
				c-0.3,0.2-0.6,0.4-0.9,0.8C1268.6,856.3,1265.6,860.7,1262.3,863z"/>
		</g>
		<path class="st2" d="M1148.5,508.3c-18.2,34.2-44.9,64-66.1,96.5c-22.1,33.9-46.7,66.1-69.2,99.9c-22.9,34.4-44.7,69.5-68.8,103
			c-15.9,22.1-43.5,46.1-31.2,76c1.3,3.1,6.4,1.6,5.1-1.6c-8.3-20.2,3.7-37.2,15.9-52.6c9.2-11.7,18-23.6,26.4-35.8
			c22.5-32.6,43.4-66.3,65.6-99.1c21.2-31.4,44.4-61.5,64.7-93.5c19.6-30.8,44.9-58,62.1-90.3
			C1154.7,507.8,1150.1,505.3,1148.5,508.3z"/>
	</g>
</g>
</svg>
